<svg width="50" height="50" viewBox="0 0 50 50" fill="none" xmlns="http://www.w3.org/2000/svg">
<path d="M22.6883 2.55592V47.4441C22.6883 49.0727 21.2009 50.2941 19.6379 49.9379C8.36944 47.3932 0 37.189 0 25C0 12.811 8.36944 2.60681 19.6379 0.0621339C21.2009 -0.294121 22.6883 0.927325 22.6883 2.55592ZM27.8057 2.55592V19.8852C27.8057 21.2848 28.9401 22.4299 30.3266 22.4299H47.4437C49.057 22.4299 50.2671 20.9285 49.9142 19.3254C47.7714 9.75737 40.3347 2.22511 30.8812 0.0621339C29.2931 -0.294121 27.8057 0.927325 27.8057 2.55592ZM27.8057 30.1148V47.4441C27.8057 49.0727 29.2931 50.2941 30.8812 49.9379C40.3599 47.7749 47.7966 40.2172 49.9394 30.6492C50.2923 29.0715 49.057 27.5447 47.4689 27.5447H30.3518C28.9401 27.5701 27.8057 28.7152 27.8057 30.1148Z" fill="#4F5B67"/>
</svg>
