<svg width="62" height="62" viewBox="0 0 62 62" fill="none" xmlns="http://www.w3.org/2000/svg">
<circle cx="31" cy="31" r="30" fill="url(#paint0_linear_1978_57409)" stroke="white" stroke-width="1.57598"/>
<g clip-path="url(#clip0_1978_57409)">
<path d="M26.6004 28.4925L11.5276 20.5166L9.92499 23.7217L18.4349 37.7765L21.5625 33.4142V30.7296V29.2755H25.4818L26.0411 30.7296L26.6004 28.4925Z" fill="black"/>
<path d="M27.2716 31.4007C27.9977 31.1977 29.6856 30.6702 30.635 30.3785V35.5561L26.6005 38.3357L27.8309 43.4811L30.7392 45.4945L30.635 50.349H26.6005L18.435 37.7765L23.9889 35.2064L26.0988 36.8944L28.9495 33.6378L27.2716 31.4007Z" fill="black"/>
<path d="M22.8689 44.6783L27.7999 43.4456L26.5671 50.3489L22.8689 44.6783Z" fill="black"/>
<path d="M23.245 21.3338L20.896 23.1235L11.5276 20.5167L13.007 17.4188H30.6352V23.8451L23.245 21.3338Z" fill="black"/>
<path d="M30.635 17.4348L23.2385 21.3796L30.635 23.8451V17.4348Z" fill="black"/>
</g>
<g clip-path="url(#clip1_1978_57409)">
<path d="M34.6699 28.4925L49.7427 20.5166L51.3453 23.7217L42.8354 37.7765L39.7077 33.4142V30.7296V29.2755H35.7885L35.2292 30.7296L34.6699 28.4925Z" fill="black"/>
<path d="M33.9986 31.4007C33.2726 31.1977 31.5847 30.6702 30.6352 30.3785V35.5561L34.6698 38.3357L33.4394 43.4811L30.5311 45.4945L30.6352 50.349H34.6698L42.8353 37.7765L37.2814 35.2064L35.1715 36.8944L32.3208 33.6378L33.9986 31.4007Z" fill="black"/>
<path d="M38.4014 44.6783L33.4704 43.4456L34.7031 50.3489L38.4014 44.6783Z" fill="black"/>
<path d="M38.0253 21.3338L40.3743 23.1235L49.7426 20.5167L48.2633 17.4188H30.635V23.8451L38.0253 21.3338Z" fill="black"/>
<path d="M30.6353 17.4348L38.0317 21.3796L30.6353 23.8451V17.4348Z" fill="black"/>
</g>
<defs>
<linearGradient id="paint0_linear_1978_57409" x1="6.33332" y1="1.5797" x2="49.8222" y2="51.7311" gradientUnits="userSpaceOnUse">
<stop stop-color="#88E5ED"/>
<stop offset="0.479167" stop-color="#83D9C0"/>
<stop offset="0.713542" stop-color="#87F7BE"/>
<stop offset="1" stop-color="#90FBBE"/>
</linearGradient>
<clipPath id="clip0_1978_57409">
<rect x="8.69226" y="14.8461" width="21.9428" height="38.4615" fill="white"/>
</clipPath>
<clipPath id="clip1_1978_57409">
<rect width="21.9428" height="38.4615" transform="matrix(-1 0 0 1 52.578 14.8461)" fill="white"/>
</clipPath>
</defs>
</svg>
