<svg width="64" height="64" viewBox="0 0 64 64" fill="none" xmlns="http://www.w3.org/2000/svg">
<circle cx="32" cy="32" r="30" fill="url(#paint0_linear_1978_57409)" stroke="white" stroke-width="1.57598"/>
<g clip-path="url(#clip0_1978_57409)">
<path d="M27.6004 29.4925L12.5276 21.5166L10.925 24.7217L19.4349 38.7765L22.5625 34.4142V31.7296V30.2755H26.4818L27.0411 31.7296L27.6004 29.4925Z" fill="black"/>
<path d="M28.2716 32.4007C28.9977 32.1977 30.6856 31.6702 31.635 31.3785V36.5561L27.6005 39.3357L28.8309 44.4811L31.7392 46.4945L31.635 51.349H27.6005L19.435 38.7765L24.9889 36.2064L27.0988 37.8944L29.9495 34.6378L28.2716 32.4007Z" fill="black"/>
<path d="M23.8689 45.6783L28.7999 44.4456L27.5671 51.3489L23.8689 45.6783Z" fill="black"/>
<path d="M24.245 22.3338L21.896 24.1235L12.5276 21.5167L14.007 18.4188H31.6352V24.8451L24.245 22.3338Z" fill="black"/>
<path d="M31.635 18.4348L24.2385 22.3796L31.635 24.8451V18.4348Z" fill="black"/>
</g>
<g clip-path="url(#clip1_1978_57409)">
<path d="M35.6699 29.4925L50.7427 21.5166L52.3453 24.7217L43.8354 38.7765L40.7077 34.4142V31.7296V30.2755H36.7885L36.2292 31.7296L35.6699 29.4925Z" fill="black"/>
<path d="M34.9986 32.4007C34.2726 32.1977 32.5847 31.6702 31.6352 31.3785V36.5561L35.6698 39.3357L34.4394 44.4811L31.5311 46.4945L31.6352 51.349H35.6698L43.8353 38.7765L38.2814 36.2064L36.1715 37.8944L33.3208 34.6378L34.9986 32.4007Z" fill="black"/>
<path d="M39.4014 45.6783L34.4704 44.4456L35.7031 51.3489L39.4014 45.6783Z" fill="black"/>
<path d="M39.0253 22.3338L41.3743 24.1235L50.7426 21.5167L49.2633 18.4188H31.635V24.8451L39.0253 22.3338Z" fill="black"/>
<path d="M31.6353 18.4348L39.0317 22.3796L31.6353 24.8451V18.4348Z" fill="black"/>
</g>
<defs>
<linearGradient id="paint0_linear_1978_57409" x1="7.33332" y1="2.5797" x2="50.8222" y2="52.7311" gradientUnits="userSpaceOnUse">
<stop stop-color="#88E5ED"/>
<stop offset="0.479167" stop-color="#83D9C0"/>
<stop offset="0.713542" stop-color="#87F7BE"/>
<stop offset="1" stop-color="#90FBBE"/>
</linearGradient>
<clipPath id="clip0_1978_57409">
<rect x="9.69226" y="15.8461" width="21.9428" height="38.4615" fill="white"/>
</clipPath>
<clipPath id="clip1_1978_57409">
<rect width="21.9428" height="38.4615" transform="matrix(-1 0 0 1 53.578 15.8461)" fill="white"/>
</clipPath>
</defs>
</svg>
