<svg width="50" height="52" viewBox="0 0 50 52" fill="none" xmlns="http://www.w3.org/2000/svg">
<path d="M34.8167 0.709189C33.7575 -0.349977 31.9233 0.373356 31.9233 1.84586V10.8617C31.9233 14.6334 35.1267 17.7592 39.0275 17.7592C41.4817 17.785 44.8917 17.785 47.8108 17.785C49.2833 17.785 50.0583 16.0542 49.025 15.0209C45.305 11.275 38.64 4.53252 34.8167 0.709189Z" fill="#4F5B67"/>
<path d="M46.9583 21.3241H39.4925C33.37 21.3241 28.3842 16.3383 28.3842 10.2158V2.74996C28.3842 1.32913 27.2217 0.166626 25.8008 0.166626H14.8475C6.89084 0.166626 0.458344 5.33329 0.458344 14.5558V37.4441C0.458344 46.6666 6.89084 51.8333 14.8475 51.8333H35.1525C43.1092 51.8333 49.5417 46.6666 49.5417 37.4441V23.9075C49.5417 22.4866 48.3792 21.3241 46.9583 21.3241ZM23.7083 40.8541H13.375C12.3158 40.8541 11.4375 39.9758 11.4375 38.9166C11.4375 37.8575 12.3158 36.9791 13.375 36.9791H23.7083C24.7675 36.9791 25.6458 37.8575 25.6458 38.9166C25.6458 39.9758 24.7675 40.8541 23.7083 40.8541ZM28.875 30.5208H13.375C12.3158 30.5208 11.4375 29.6425 11.4375 28.5833C11.4375 27.5241 12.3158 26.6458 13.375 26.6458H28.875C29.9342 26.6458 30.8125 27.5241 30.8125 28.5833C30.8125 29.6425 29.9342 30.5208 28.875 30.5208Z" fill="#4F5B67"/>
</svg>
