<svg width="50" height="50" viewBox="0 0 50 50" fill="none" xmlns="http://www.w3.org/2000/svg">
<path d="M48.75 22.25V5.25C48.75 1.5 47.15 0 43.175 0H33.075C29.1 0 27.5 1.5 27.5 5.25V22.25C27.5 26 29.1 27.5 33.075 27.5H43.175C47.15 27.5 48.75 26 48.75 22.25Z" fill="#4F5B67"/>
<path d="M22.5 27.75V44.75C22.5 48.5 20.9 50 16.925 50H6.825C2.85 50 1.25 48.5 1.25 44.75V27.75C1.25 24 2.85 22.5 6.825 22.5H16.925C20.9 22.5 22.5 24 22.5 27.75Z" fill="#4F5B67"/>
<path d="M48.75 44.75V37.75C48.75 34 47.15 32.5 43.175 32.5H33.075C29.1 32.5 27.5 34 27.5 37.75V44.75C27.5 48.5 29.1 50 33.075 50H43.175C47.15 50 48.75 48.5 48.75 44.75Z" fill="#4F5B67"/>
<path d="M22.5 12.25V5.25C22.5 1.5 20.9 0 16.925 0H6.825C2.85 0 1.25 1.5 1.25 5.25V12.25C1.25 16 2.85 17.5 6.825 17.5H16.925C20.9 17.5 22.5 16 22.5 12.25Z" fill="#4F5B67"/>
</svg>
