<svg width="88" height="81" viewBox="0 0 88 81" fill="none" xmlns="http://www.w3.org/2000/svg">
<g clip-path="url(#clip0_496_29828)">
<path d="M68.1219 66.6336C68.1219 67.8147 67.2491 68.9642 65.6097 70.0287C63.9747 71.0904 61.6021 72.0503 58.6612 72.858C52.7808 74.4731 44.6513 75.4732 35.6677 75.4732C26.6841 75.4732 18.5547 74.4731 12.6743 72.858C9.73335 72.0503 7.36073 71.0904 5.72572 70.0287C4.08632 68.9642 3.21356 67.8147 3.21356 66.6336C3.21356 65.4524 4.08632 64.3029 5.72572 63.2384C7.36073 62.1767 9.73335 61.2168 12.6743 60.4091C18.5547 58.7941 26.6841 57.7939 35.6677 57.7939C44.6513 57.7939 52.7808 58.7941 58.6612 60.4091C61.6021 61.2168 63.9747 62.1767 65.6097 63.2384C67.2491 64.3029 68.1219 65.4524 68.1219 66.6336Z" fill="url(#paint0_radial_496_29828)" stroke="black" stroke-width="0.202991"/>
<circle cx="56.1405" cy="19.8535" r="11.7045" fill="url(#paint1_linear_496_29828)" stroke="black" stroke-width="0.202991"/>
<circle cx="54.7342" cy="19.8535" r="11.6377" fill="#EFEFEF" stroke="black" stroke-width="0.336603"/>
<circle cx="54.7343" cy="19.8534" r="9.61051" fill="url(#paint2_linear_496_29828)"/>
<circle cx="37.2573" cy="39.3923" r="17.3757" fill="url(#paint3_linear_496_29828)" stroke="black" stroke-width="0.202991"/>
<circle cx="35.1755" cy="39.3923" r="17.2281" fill="#EFEFEF" stroke="black" stroke-width="0.498297"/>
<circle cx="35.1756" cy="39.3924" r="14.2271" fill="url(#paint4_linear_496_29828)"/>
<g filter="url(#filter0_d_496_29828)">
<g clip-path="url(#clip1_496_29828)">
<g clip-path="url(#clip2_496_29828)">
<path d="M32.7438 37.702L24.9812 33.6132L24.1599 35.2637L28.5518 42.4864L30.1567 40.239L30.154 38.8578L30.1526 38.1097L32.169 38.1059L32.4582 38.8535L32.7438 37.702Z" fill="black"/>
<path d="M33.0919 39.1975C33.4653 39.0924 34.3332 38.8194 34.8214 38.6684L34.8264 41.3322L32.7534 42.7662L33.3915 45.4122L34.8897 46.4452L34.8408 48.9429L32.7651 48.9468L28.5518 42.4864L31.4067 41.1588L32.4939 42.0251L33.9573 40.3469L33.0919 39.1975Z" fill="black"/>
<path d="M30.8397 46.0329L33.3754 45.3939L32.7479 48.9467L30.8397 46.0329Z" fill="black"/>
<path d="M31.0105 34.022L29.8037 34.9451L24.9813 33.6131L25.7394 32.0178L34.8088 32.0006L34.8151 35.3069L31.0105 34.022Z" fill="black"/>
<path d="M34.8087 32.0089L31.0072 34.0456L34.815 35.3069L34.8087 32.0089Z" fill="black"/>
</g>
<g clip-path="url(#clip3_496_29828)">
<path d="M36.8953 37.6941L44.6422 33.5759L45.4699 35.2233L41.1054 42.4626L39.492 40.2213L39.4894 38.8401L39.4879 38.092L37.4715 38.0958L37.1852 38.8445L36.8953 37.6941Z" fill="black"/>
<path d="M36.5528 39.1909C36.179 39.0871 35.3101 38.8174 34.8213 38.6683L34.8264 41.332L36.9048 42.7582L36.2768 45.4066L34.7825 46.4453L34.8408 48.9428L36.9165 48.9388L41.1053 42.4625L38.2454 41.1457L37.1615 42.0161L35.6917 40.3435L36.5528 39.1909Z" fill="black"/>
<path d="M38.8309 46.0178L36.2928 45.3884L36.9338 48.9388L38.8309 46.0178Z" fill="black"/>
<path d="M38.6147 34.0077L39.8249 34.9262L44.6422 33.5759L43.8781 31.9835L34.8087 32.0007L34.8149 35.3069L38.6147 34.0077Z" fill="black"/>
<path d="M34.8088 32.0089L38.618 34.0312L34.815 35.3069L34.8088 32.0089Z" fill="black"/>
</g>
</g>
</g>
<path d="M7.73528 15.8154V15.7139H7.63379H0.603082V14.7592L7.6784 7.04973H9.19895L16.9031 15.7139H12.6075H12.5061V15.8154V37.6437H7.65386L5.37007 36.7035L7.73251 26.8039L7.73528 26.7923V26.7803V15.8154Z" fill="url(#paint5_linear_496_29828)" stroke="black" stroke-width="0.202991"/>
<path d="M7.63263 7.2124L0.648193 14.6846H5.16983V36.6144H10.1436V14.6846H14.6652L7.63263 7.2124Z" fill="url(#paint6_linear_496_29828)"/>
<path d="M76.6276 23.0442L70.9792 29.087H74.6359V40.97H78.6582V29.087H82.3149L76.6276 23.0442Z" fill="url(#paint7_linear_496_29828)"/>
<path d="M58.846 45.3733L53.3847 51.216H56.9203V68.3635H60.8094V51.216H64.345L58.846 45.3733Z" fill="url(#paint8_linear_496_29828)"/>
</g>
<defs>
<filter id="filter0_d_496_29828" x="17.8967" y="24.193" width="33.2322" height="33.2321" filterUnits="userSpaceOnUse" color-interpolation-filters="sRGB">
<feFlood flood-opacity="0" result="BackgroundImageFix"/>
<feColorMatrix in="SourceAlpha" type="matrix" values="0 0 0 0 0 0 0 0 0 0 0 0 0 0 0 0 0 0 127 0" result="hardAlpha"/>
<feMorphology radius="0.596685" operator="erode" in="SourceAlpha" result="effect1_dropShadow_496_29828"/>
<feOffset dy="1.43205"/>
<feGaussianBlur stdDeviation="1.1337"/>
<feColorMatrix type="matrix" values="0 0 0 0 0.145098 0 0 0 0 0.152941 0 0 0 0 0.239216 0 0 0 0.08 0"/>
<feBlend mode="normal" in2="BackgroundImageFix" result="effect1_dropShadow_496_29828"/>
<feBlend mode="normal" in="SourceGraphic" in2="effect1_dropShadow_496_29828" result="shape"/>
</filter>
<radialGradient id="paint0_radial_496_29828" cx="0" cy="0" r="1" gradientUnits="userSpaceOnUse" gradientTransform="translate(35.6677 66.6336) rotate(90) scale(8.94117 32.5557)">
<stop stop-color="#006D6D" stop-opacity="0"/>
<stop offset="0.607292" stop-color="#04A7A7" stop-opacity="0.43"/>
<stop offset="1" stop-color="#07E0D3"/>
</radialGradient>
<linearGradient id="paint1_linear_496_29828" x1="56.1405" y1="8.04749" x2="56.1405" y2="31.6595" gradientUnits="userSpaceOnUse">
<stop stop-color="#07E085"/>
<stop offset="1" stop-color="#006D67"/>
</linearGradient>
<linearGradient id="paint2_linear_496_29828" x1="54.7343" y1="10.2429" x2="54.7343" y2="29.4639" gradientUnits="userSpaceOnUse">
<stop stop-color="#BED3D6"/>
<stop offset="1" stop-color="white"/>
</linearGradient>
<linearGradient id="paint3_linear_496_29828" x1="37.2573" y1="21.915" x2="37.2573" y2="56.8695" gradientUnits="userSpaceOnUse">
<stop stop-color="#07E085"/>
<stop offset="1" stop-color="#006D67"/>
</linearGradient>
<linearGradient id="paint4_linear_496_29828" x1="35.1756" y1="25.1653" x2="35.1756" y2="53.6195" gradientUnits="userSpaceOnUse">
<stop stop-color="#BED3D6"/>
<stop offset="1" stop-color="white"/>
</linearGradient>
<linearGradient id="paint5_linear_496_29828" x1="10.1207" y1="8.34322" x2="10.1207" y2="37.7452" gradientUnits="userSpaceOnUse">
<stop stop-color="#07E085"/>
<stop offset="1" stop-color="#006D67"/>
</linearGradient>
<linearGradient id="paint6_linear_496_29828" x1="7.6567" y1="7.2124" x2="-6.35241" y2="16.5594" gradientUnits="userSpaceOnUse">
<stop stop-color="white"/>
<stop offset="0.425305" stop-color="#D9D9D9"/>
<stop offset="1" stop-color="white"/>
</linearGradient>
<linearGradient id="paint7_linear_496_29828" x1="76.6471" y1="23.0442" x2="65.3178" y2="30.6032" gradientUnits="userSpaceOnUse">
<stop stop-color="white"/>
<stop offset="0.425305" stop-color="#D9D9D9"/>
<stop offset="1" stop-color="white"/>
</linearGradient>
<linearGradient id="paint8_linear_496_29828" x1="58.8649" y1="45.3733" x2="47.9107" y2="52.682" gradientUnits="userSpaceOnUse">
<stop stop-color="white"/>
<stop offset="0.425305" stop-color="#D9D9D9"/>
<stop offset="1" stop-color="white"/>
</linearGradient>
<clipPath id="clip0_496_29828">
<rect width="86.7036" height="80.7241" fill="white" transform="translate(0.648193)"/>
</clipPath>
<clipPath id="clip1_496_29828">
<rect width="23.4459" height="20.4066" fill="white" transform="translate(23.5154 29.6125) rotate(-0.108655)"/>
</clipPath>
<clipPath id="clip2_496_29828">
<rect x="23.517" y="30.6985" width="11.2893" height="19.7879" transform="rotate(-0.108655 23.517 30.6985)" fill="white"/>
</clipPath>
<clipPath id="clip3_496_29828">
<rect width="11.2893" height="19.7879" transform="matrix(-0.999998 0.00189638 0.00189638 0.999998 46.0955 30.6556)" fill="white"/>
</clipPath>
</defs>
</svg>
