<svg xmlns="http://www.w3.org/2000/svg" xmlns:xlink="http://www.w3.org/1999/xlink" viewBox="0 0 177.66 182.34"><defs><style>.cls-1{fill:none;}.cls-2{clip-path:url(#clip-path);}.cls-3{fill:#f5f8ff;}.cls-4{fill:#cfe1ff;}.cls-5{fill:#a0c4ff;}.cls-6{fill:#80b1ff;}.cls-7{fill:#0e2443;}</style><clipPath id="clip-path"><circle class="cls-1" cx="88.83" cy="88.83" r="88.83" transform="translate(-36.79 88.83) rotate(-45)"/></clipPath></defs><g id="Layer_2" data-name="Layer 2"><g id="OBJECTS"><g class="cls-2"><circle class="cls-3" cx="88.83" cy="88.83" r="88.83" transform="translate(-36.79 88.83) rotate(-45)"/><path class="cls-4" d="M148.58,167.24c0,20.14-119.5,20.14-119.5,0s47.15-28,59.75-28S148.58,147.09,148.58,167.24Z"/><path class="cls-5" d="M78.24,114.92H99.41a0,0,0,0,1,0,0V139a10.59,10.59,0,0,1-10.59,10.59h0A10.59,10.59,0,0,1,78.24,139V114.92a0,0,0,0,1,0,0Z"/><path class="cls-6" d="M99.41,132.84v-9.23H78.24v9.23a28.22,28.22,0,0,0,21.17,0Z"/><rect class="cls-5" x="60.61" y="49.42" width="56.43" height="78.83" rx="28.21"/><circle class="cls-5" cx="57.77" cy="96.7" r="7.72" transform="translate(-33.27 30.36) rotate(-23.07)"/><path class="cls-7" d="M52.26,97.2a.5.5,0,0,1-.5-.5,6,6,0,0,1,6-6,.5.5,0,1,1,0,1,5,5,0,0,0-5,5A.5.5,0,0,1,52.26,97.2Z"/><circle class="cls-5" cx="119.89" cy="96.7" r="7.72" transform="translate(-13.05 174.5) rotate(-69.23)"/><path class="cls-7" d="M125.4,97.2a.5.5,0,0,1-.5-.5,5,5,0,0,0-5-5,.5.5,0,1,1,0-1,6,6,0,0,1,6,6A.5.5,0,0,1,125.4,97.2Z"/><path class="cls-7" d="M125.21,68.37l-6.37-3.68c3.6-10.51-3.32-19.62-3.32-19.62s-4.48,5.2-12.11,2C72.52,34,62.08,48.55,58.82,54.39c-2.46,4.4-1.24,10.08-1.24,10.08l-5.89,3.9,8.17,21.47s2.22,2.58,3.69-21.3h51.21C115.28,88,117,89.84,117,89.84Z"/></g></g></g></svg>