<svg width="38" height="39" viewBox="0 0 38 39" fill="none" xmlns="http://www.w3.org/2000/svg">
<rect y="0.5" width="38" height="38" rx="19" fill="white" fill-opacity="0.15"/>
<g clip-path="url(#clip0_2100_35613)">
<path d="M13.9817 17.4382L19.0001 12.4199L24.0208 17.4405L26.9407 14.5205L19.0001 6.58008L11.062 14.5181L13.9819 17.438L13.9817 17.4382ZM6.08008 19.5L9.0001 16.5796L11.9199 19.4995L8.9999 22.4195L6.08008 19.5ZM13.9817 21.5622L19.0001 26.5802L24.0207 21.5599L26.9421 24.4782L26.9407 24.4798L19.0001 32.42L11.062 24.482L11.0579 24.4779L13.982 21.5619L13.9817 21.5622ZM26.0802 19.5013L29.0002 16.5813L31.9201 19.5011L29.0002 22.4211L26.0802 19.5013Z" fill="#FFD232"/>
<path d="M21.9611 19.4981H21.9624L18.9996 16.5352L16.8097 18.7245L16.5581 18.9761L16.0392 19.4951L16.0352 19.4991L16.0392 19.5034L18.9996 22.4641L21.9625 19.5012L21.964 19.4995L21.9613 19.4981" fill="#FFD232"/>
</g>
<defs>
<clipPath id="clip0_2100_35613">
<rect width="25.84" height="25.84" fill="white" transform="translate(6.08008 6.58008)"/>
</clipPath>
</defs>
</svg>
