<svg width="20" height="20" viewBox="0 0 20 20" fill="none" xmlns="http://www.w3.org/2000/svg">
<g clip-path="url(#clip0_1629_29996)">
<g clip-path="url(#clip1_1629_29996)">
<path d="M20 4.61836V15.3816C20 17.9324 17.9324 20 15.3816 20H4.61797C2.06719 20 0 17.9324 0 15.3816V4.61836C0 2.06758 2.06719 0 4.61797 0H15.3816C17.9324 0 20 2.06758 20 4.61836Z" fill="url(#paint0_linear_1629_29996)"/>
<path d="M4.61797 19.8438C2.15777 19.8438 0.15625 17.8421 0.15625 15.3816V4.61836C0.15625 2.15793 2.15777 0.15625 4.61797 0.15625H15.3816C17.8421 0.15625 19.8438 2.15793 19.8438 4.61836V15.3816C19.8438 17.8421 17.8421 19.8438 15.3816 19.8438H4.61797Z" fill="url(#paint1_linear_1629_29996)"/>
<path opacity="0.5" d="M19.9998 9.78516V15.3816C19.9998 17.9324 17.9322 20 15.3814 20H9.28691L4.64355 15.3562L15.1072 4.89258L19.9998 9.78516Z" fill="url(#paint2_linear_1629_29996)"/>
<path opacity="0.3" d="M15.1667 4.95038C13.5466 3.33034 10.92 3.33034 9.29996 4.95038C8.42594 5.8244 8.02375 6.99136 8.09281 8.13522C8.04551 8.91886 8.21938 9.71331 8.61469 10.417L8.24152 10.7902L8.16781 10.7165C8.05594 10.6046 7.87457 10.6046 7.7627 10.7165L4.0927 14.3865C3.98082 14.4984 3.98082 14.6797 4.0927 14.7916L5.32555 16.0244C5.43742 16.1363 5.61879 16.1363 5.73066 16.0244L9.40066 12.3544C9.51254 12.2425 9.51254 12.0612 9.40066 11.9493L9.32695 11.8756L9.60562 11.5969C11.2352 12.934 13.645 12.8418 15.1668 11.3201C16.0408 10.446 16.443 9.27909 16.3739 8.13526C16.4429 6.99136 16.0407 5.8244 15.1667 4.95038Z" fill="#1A1A1A"/>
<path d="M12.0244 12.3398C14.3155 12.3398 16.1729 10.4825 16.1729 8.19141C16.1729 5.90029 14.3155 4.04297 12.0244 4.04297C9.73329 4.04297 7.87598 5.90029 7.87598 8.19141C7.87598 10.4825 9.73329 12.3398 12.0244 12.3398Z" fill="url(#paint3_linear_1629_29996)"/>
<path d="M12.0244 11.8367C14.3155 11.8367 16.1729 9.97935 16.1729 7.68823C16.1729 5.39711 14.3155 3.53979 12.0244 3.53979C9.73329 3.53979 7.87598 5.39711 7.87598 7.68823C7.87598 9.97935 9.73329 11.8367 12.0244 11.8367Z" fill="white"/>
<path d="M12.0249 11.7978C10.9272 11.7978 9.89532 11.3704 9.11915 10.5942C7.51692 8.99191 7.51692 6.38492 9.11915 4.7827C9.89532 4.00656 10.9272 3.5791 12.0249 3.5791C13.1225 3.5791 14.1545 4.00656 14.9306 4.7827C15.7068 5.55887 16.1343 6.59078 16.1343 7.68844C16.1343 8.78609 15.7068 9.81805 14.9306 10.5942C14.1545 11.3703 13.1225 11.7978 12.0249 11.7978Z" fill="url(#paint4_linear_1629_29996)"/>
<path d="M12.0246 11.0547C13.8838 11.0547 15.391 9.54752 15.391 7.68831C15.391 5.82909 13.8838 4.3219 12.0246 4.3219C10.1654 4.3219 8.6582 5.82909 8.6582 7.68831C8.6582 9.54752 10.1654 11.0547 12.0246 11.0547Z" fill="white"/>
<path d="M9.68559 5.6795C10.9775 4.38759 13.0722 4.38759 14.3641 5.6795C14.968 6.28345 15.2895 7.06286 15.3288 7.85364C15.3735 6.95286 15.052 6.03728 14.3641 5.34931C13.0722 4.05739 10.9775 4.05739 9.68559 5.34931C8.99762 6.03728 8.67613 6.95286 8.7209 7.85364C8.7602 7.06286 9.08164 6.28345 9.68559 5.6795Z" fill="url(#paint5_linear_1629_29996)"/>
<path d="M8.96246 10.751C8.77703 10.5655 8.61332 10.3665 8.47082 10.1572L7.93945 10.6886L9.02484 11.774L9.5557 11.2431C9.34523 11.0994 9.14656 10.9351 8.96246 10.751Z" fill="url(#paint6_linear_1629_29996)"/>
<path d="M5.11701 15.8291L3.8842 14.5963C3.77232 14.4844 3.77232 14.303 3.8842 14.1912L7.5542 10.5212C7.66607 10.4093 7.84744 10.4093 7.95932 10.5212L9.19213 11.754C9.304 11.8659 9.304 12.0472 9.19213 12.1591L5.52213 15.8291C5.41025 15.941 5.22885 15.941 5.11701 15.8291Z" fill="url(#paint7_linear_1629_29996)"/>
<path d="M14.3639 5.67951C13.072 4.38759 10.9773 4.38759 9.68539 5.67951C9.08145 6.28345 8.75996 7.06283 8.7207 7.85361C8.75996 8.64439 9.08145 9.4238 9.68539 10.0278C10.9773 11.3197 13.072 11.3197 14.3639 10.0278C14.9678 9.4238 15.2893 8.64439 15.3286 7.85361C15.2893 7.06283 14.9678 6.28345 14.3639 5.67951Z" fill="url(#paint8_linear_1629_29996)"/>
</g>
</g>
<defs>
<linearGradient id="paint0_linear_1629_29996" x1="10" y1="0.195312" x2="10" y2="20.1188" gradientUnits="userSpaceOnUse">
<stop stop-color="#928DDB"/>
<stop offset="1" stop-color="#614492"/>
</linearGradient>
<linearGradient id="paint1_linear_1629_29996" x1="10" y1="0.348516" x2="10" y2="19.9605" gradientUnits="userSpaceOnUse">
<stop stop-color="#746DD1"/>
<stop offset="1" stop-color="#522563"/>
</linearGradient>
<linearGradient id="paint2_linear_1629_29996" x1="9.79047" y1="10.0398" x2="18.5217" y2="18.7707" gradientUnits="userSpaceOnUse">
<stop stop-color="#541759"/>
<stop offset="1" stop-color="#5E2563" stop-opacity="0"/>
</linearGradient>
<linearGradient id="paint3_linear_1629_29996" x1="7.95488" y1="8.19141" x2="16.1092" y2="8.19141" gradientUnits="userSpaceOnUse">
<stop stop-color="#B3B3B3"/>
<stop offset="0.504" stop-color="#CCCCCC"/>
<stop offset="1" stop-color="#999999"/>
</linearGradient>
<linearGradient id="paint4_linear_1629_29996" x1="12.0259" y1="3.52848" x2="12.0259" y2="11.7746" gradientUnits="userSpaceOnUse">
<stop stop-color="white"/>
<stop offset="1" stop-color="#F2F2F2"/>
</linearGradient>
<linearGradient id="paint5_linear_1629_29996" x1="9.1141" y1="6.11701" x2="15.0852" y2="6.11701" gradientUnits="userSpaceOnUse">
<stop offset="0.005" stop-color="#B3B3B3"/>
<stop offset="0.504" stop-color="#E6E6E6"/>
<stop offset="1" stop-color="#B3B3B3"/>
</linearGradient>
<linearGradient id="paint6_linear_1629_29996" x1="8.18143" y1="10.3992" x2="9.2951" y2="11.5129" gradientUnits="userSpaceOnUse">
<stop stop-color="#808080"/>
<stop offset="0.07" stop-color="#999999"/>
<stop offset="0.156" stop-color="#AFAFAF"/>
<stop offset="0.248" stop-color="#BFBFBF"/>
<stop offset="0.353" stop-color="#C9C9C9"/>
<stop offset="0.491" stop-color="#CCCCCC"/>
<stop offset="1" stop-color="#4D4D4D"/>
</linearGradient>
<linearGradient id="paint7_linear_1629_29996" x1="5.71888" y1="12.356" x2="7.35745" y2="13.9942" gradientUnits="userSpaceOnUse">
<stop stop-color="#F78F2D"/>
<stop offset="0.522" stop-color="#F7BA2A"/>
<stop offset="1" stop-color="#F78F2D"/>
</linearGradient>
<linearGradient id="paint8_linear_1629_29996" x1="12.0246" y1="4.71057" x2="12.0246" y2="10.9778" gradientUnits="userSpaceOnUse">
<stop stop-color="#298BE2"/>
<stop offset="0.994" stop-color="#5FCEE2"/>
</linearGradient>
<clipPath id="clip0_1629_29996">
<rect width="20" height="20" fill="white"/>
</clipPath>
<clipPath id="clip1_1629_29996">
<rect width="20" height="20" fill="white"/>
</clipPath>
</defs>
</svg>
