<svg width="20" height="20" viewBox="0 0 20 20" fill="none" xmlns="http://www.w3.org/2000/svg">
<g clip-path="url(#clip0_1629_29963)">
<g clip-path="url(#clip1_1629_29963)">
<path d="M10 20C15.5228 20 20 15.5228 20 10C20 4.47715 15.5228 0 10 0C4.47715 0 0 4.47715 0 10C0 15.5228 4.47715 20 10 20Z" fill="url(#paint0_linear_1629_29963)"/>
<path d="M10.0001 17.65C14.2251 17.65 17.6501 14.225 17.6501 9.99998C17.6501 5.775 14.2251 2.34998 10.0001 2.34998C5.77512 2.34998 2.3501 5.775 2.3501 9.99998C2.3501 14.225 5.77512 17.65 10.0001 17.65Z" fill="url(#paint1_radial_1629_29963)"/>
<path d="M17.4578 11.7089C17.3128 12.3469 17.0873 12.9549 16.7928 13.5209L9.34527 6.07295C9.16277 5.90545 9.07129 5.71045 9.07129 5.48693C9.07129 5.25393 9.16277 5.05592 9.34527 4.89342C9.52777 4.73143 9.74578 4.6499 9.99977 4.6499C10.2533 4.6499 10.4718 4.73139 10.6543 4.89342L17.4578 11.7089Z" fill="url(#paint2_linear_1629_29963)"/>
<path d="M16.4335 14.141C15.3696 15.79 13.689 17.004 11.7175 17.4565C10.9115 16.6525 9.44201 15.1865 9.43701 15.1825C9.28451 15.071 9.2085 14.949 9.2085 14.817V8.653C9.2085 8.5005 9.28201 8.37651 9.429 8.27999C9.576 8.18351 9.7665 8.1355 10 8.1355C10.2335 8.1355 10.426 8.18351 10.5785 8.27999L16.4335 14.141Z" fill="url(#paint3_linear_1629_29963)"/>
<path d="M9.07178 5.48713C9.07178 5.25389 9.16307 5.05592 9.34568 4.89354C9.5283 4.73139 9.74639 4.65002 10.0002 4.65002C10.2537 4.65002 10.4721 4.73135 10.6547 4.89354C10.8373 5.05592 10.9286 5.25389 10.9286 5.48713C10.9286 5.71042 10.8373 5.90569 10.6547 6.07315C10.4721 6.24053 10.2537 6.32432 10.0002 6.32432C9.74643 6.32432 9.5283 6.24053 9.34568 6.07315C9.16307 5.90569 9.07178 5.71045 9.07178 5.48713ZM9.20873 14.8173V8.65303C9.20873 8.50073 9.28221 8.37666 9.42943 8.2801C9.57639 8.18374 9.76666 8.13549 10.0002 8.13549C10.2335 8.13549 10.4264 8.18374 10.5785 8.2801C10.7307 8.37659 10.8068 8.50073 10.8068 8.65303V14.8173C10.8068 14.9492 10.7281 15.0711 10.5709 15.1826C10.4135 15.2945 10.2233 15.3501 10.0002 15.3501C9.77682 15.3501 9.5892 15.2945 9.43701 15.1826C9.28478 15.071 9.20873 14.9492 9.20873 14.8173Z" fill="white"/>
</g>
</g>
<defs>
<linearGradient id="paint0_linear_1629_29963" x1="10.0003" y1="5.617" x2="10.0003" y2="17.3099" gradientUnits="userSpaceOnUse">
<stop stop-color="#00A6F9"/>
<stop offset="1" stop-color="#0071E2"/>
</linearGradient>
<radialGradient id="paint1_radial_1629_29963" cx="0" cy="0" r="1" gradientUnits="userSpaceOnUse" gradientTransform="translate(10.0004 9.99961) scale(12.2554)">
<stop stop-color="#00A6F9"/>
<stop offset="1" stop-color="#0071E2"/>
</radialGradient>
<linearGradient id="paint2_linear_1629_29963" x1="18.8082" y1="14.2919" x2="7.32452" y2="2.80774" gradientUnits="userSpaceOnUse">
<stop offset="0.0001" stop-color="#008BF2" stop-opacity="0"/>
<stop offset="1" stop-color="#0046E2"/>
</linearGradient>
<linearGradient id="paint3_linear_1629_29963" x1="15.6851" y1="17.4152" x2="4.20102" y2="5.93112" gradientUnits="userSpaceOnUse">
<stop offset="0.0001" stop-color="#008BF2" stop-opacity="0"/>
<stop offset="1" stop-color="#0046E2"/>
</linearGradient>
<clipPath id="clip0_1629_29963">
<rect width="20" height="20" fill="white"/>
</clipPath>
<clipPath id="clip1_1629_29963">
<rect width="20" height="20" fill="white"/>
</clipPath>
</defs>
</svg>
