<svg width="20" height="20" viewBox="0 0 20 20" fill="none" xmlns="http://www.w3.org/2000/svg">
<g clip-path="url(#clip0_1629_29913)">
<path d="M20.0002 9.5007C20.0002 7.12308 17.8449 5.19543 15.1861 5.19543C12.5274 5.19543 10.3721 7.12292 10.3721 9.5007V10.5185C10.3721 12.8961 12.5274 14.8237 15.1861 14.8237C17.8449 14.8237 20.0002 12.8962 20.0002 10.5185C20.0002 10.5151 20.0002 9.50406 20.0002 9.5007Z" fill="url(#paint0_linear_1629_29913)"/>
<path d="M19.1509 7.05865C18.2825 5.93317 16.8308 5.19556 15.186 5.19556C13.5413 5.19556 12.0896 5.93332 11.2212 7.05865V12.9604C12.0896 14.0859 13.5413 14.8237 15.186 14.8237C16.8308 14.8237 18.2825 14.0859 19.1509 12.9604V7.05865Z" fill="url(#paint1_linear_1629_29913)"/>
<path d="M12.3623 14.0054C13.1556 14.5201 14.1311 14.8237 15.1859 14.8237C16.2409 14.8237 17.2164 14.5201 18.0097 14.0054V6.01376C17.2164 5.49924 16.2409 5.19543 15.1859 5.19543C14.1311 5.19543 13.1556 5.49924 12.3623 6.01376V14.0054Z" fill="url(#paint2_linear_1629_29913)"/>
<path d="M14.0923 14.712C14.4437 14.7849 14.8099 14.8237 15.186 14.8237C15.5623 14.8237 15.9284 14.7849 16.2798 14.712V5.3071C15.9284 5.23416 15.5623 5.19556 15.186 5.19556C14.8099 5.19556 14.4437 5.23416 14.0923 5.3071V14.712Z" fill="url(#paint3_linear_1629_29913)"/>
<path d="M20.0002 9.5007C20.0002 7.12292 17.8449 5.19543 15.1861 5.19543C12.5274 5.19543 10.3721 7.12292 10.3721 9.5007C10.3721 11.8783 12.5274 13.806 15.1861 13.806C17.8449 13.806 20.0002 11.8783 20.0002 9.5007Z" fill="url(#paint4_radial_1629_29913)"/>
<path d="M19.4629 9.50073C19.4629 7.38815 17.5479 5.67566 15.1857 5.67566C12.8235 5.67566 10.9087 7.38815 10.9087 9.50073C10.9087 11.6133 12.8235 13.3258 15.1857 13.3258C17.5479 13.3258 19.4629 11.6133 19.4629 9.50073Z" fill="url(#paint5_radial_1629_29913)"/>
<path d="M19.0583 9.50067C19.0583 7.58829 17.3246 6.03784 15.186 6.03784C13.0477 6.03784 11.314 7.58829 11.314 9.50067C11.314 11.4131 13.0477 12.9635 15.186 12.9635C17.3246 12.9635 19.0583 11.4131 19.0583 9.50067Z" fill="url(#paint6_radial_1629_29913)"/>
<path d="M19.7152 10.962L15.6767 6.96133C15.6714 6.90945 15.6277 6.86902 15.5745 6.86902H15.1989C15.1422 6.86902 15.0963 6.9151 15.0963 6.97186V7.29504L14.703 6.96133C14.6978 6.90945 14.6541 6.86902 14.6008 6.86902H14.2254C14.1687 6.86902 14.1226 6.9151 14.1226 6.97186V7.29504H13.7986C13.7419 7.29504 13.6958 7.34097 13.6958 7.39774V7.73038C13.6958 7.78348 13.7362 7.82727 13.7881 7.83261L14.1226 8.19058V10.9141H13.7986C13.7419 10.9141 13.6958 10.9601 13.6958 11.0168V11.3493C13.6958 11.4026 13.7362 11.4464 13.7881 11.4515L16.0583 13.7352C17.7556 13.4573 19.1417 12.3835 19.7152 10.962Z" fill="url(#paint7_linear_1629_29913)"/>
<path d="M16.5281 9.5271C16.4294 9.38504 16.2835 9.27609 16.0902 9.2001C16.4125 9.05606 16.5736 8.74905 16.5736 8.27878C16.5736 7.91119 16.4692 7.6553 16.2608 7.51111C16.1053 7.40369 15.9106 7.3364 15.6772 7.30908V6.97186C15.6772 6.9151 15.6312 6.86902 15.5745 6.86902H15.1989C15.1422 6.86902 15.0961 6.9151 15.0961 6.97186V7.29504H14.7035V6.97186C14.7035 6.9151 14.6576 6.86902 14.6008 6.86902H14.2253C14.1685 6.86902 14.1226 6.9151 14.1226 6.97186V7.29504H13.7985C13.7419 7.29504 13.6958 7.34097 13.6958 7.39774V7.73038C13.6958 7.78699 13.7417 7.83307 13.7985 7.83307H14.1226V10.9141H13.7985C13.7419 10.9141 13.6958 10.9601 13.6958 11.0168V11.3493C13.6958 11.4061 13.7417 11.4521 13.7985 11.4521H14.1226V11.7753C14.1226 11.8321 14.1685 11.8782 14.2253 11.8782H14.6008C14.6576 11.8782 14.7035 11.8321 14.7035 11.7753V11.4521H15.0961V11.7753C15.0961 11.8321 15.1422 11.8782 15.1989 11.8782H15.5745C15.6311 11.8782 15.6772 11.8321 15.6772 11.7753V11.4471C15.9605 11.4253 16.1912 11.3324 16.3688 11.1677C16.5736 10.9782 16.676 10.675 16.676 10.2578V10.1498C16.676 9.87683 16.6267 9.66931 16.5281 9.5271ZM14.7197 7.82956H15.3851C15.7754 7.82956 15.9707 8.0116 15.9707 8.37552C15.9707 8.76599 15.7792 8.9613 15.3964 8.9613H14.7197V7.82956ZM16.0731 10.2124C16.0731 10.6825 15.8589 10.9175 15.4306 10.9175H14.7197V9.4389H15.4306C15.6428 9.4389 15.803 9.49216 15.9111 9.59821C16.0191 9.70441 16.0731 9.87881 16.0731 10.1214V10.2124Z" fill="url(#paint8_linear_1629_29913)"/>
<path d="M9.62814 9.5007C9.62814 7.12308 7.47284 5.19543 4.81415 5.19543C2.1553 5.19543 0 7.12308 0 9.5007V10.5185C0 12.8961 2.1553 14.8237 4.81415 14.8237C7.47284 14.8237 9.62814 12.8962 9.62814 10.5185C9.62814 10.5151 9.62814 9.50406 9.62814 9.5007Z" fill="url(#paint9_linear_1629_29913)"/>
<path d="M8.77896 7.05865C7.91058 5.93317 6.45871 5.19556 4.81412 5.19556C3.16937 5.19556 1.71765 5.93332 0.849121 7.05865V12.9604C1.71765 14.0859 3.16937 14.8237 4.81412 14.8237C6.45871 14.8237 7.91058 14.0859 8.77896 12.9604V7.05865Z" fill="url(#paint10_linear_1629_29913)"/>
<path d="M1.99072 14.0054C2.78387 14.5201 3.75937 14.8237 4.81436 14.8237C5.8692 14.8237 6.8447 14.5201 7.638 14.0054V6.01376C6.8447 5.49924 5.8692 5.19543 4.81436 5.19543C3.75937 5.19543 2.78387 5.49924 1.99072 6.01376V14.0054Z" fill="url(#paint11_linear_1629_29913)"/>
<path d="M3.72021 14.712C4.07147 14.7849 4.43768 14.8237 4.81396 14.8237C5.19009 14.8237 5.5563 14.7849 5.90756 14.712V5.3071C5.5563 5.23416 5.19009 5.19556 4.81396 5.19556C4.43768 5.19556 4.07147 5.23416 3.72021 5.3071V14.712Z" fill="url(#paint12_linear_1629_29913)"/>
<path d="M9.62814 9.5007C9.62814 7.12292 7.47284 5.19543 4.81415 5.19543C2.1553 5.19543 0 7.12292 0 9.5007C0 11.8783 2.1553 13.806 4.81415 13.806C7.47284 13.806 9.62814 11.8783 9.62814 9.5007Z" fill="url(#paint13_radial_1629_29913)"/>
<path d="M9.09134 9.50073C9.09134 7.38815 7.17651 5.67566 4.8143 5.67566C2.45209 5.67566 0.537109 7.38815 0.537109 9.50073C0.537109 11.6133 2.45209 13.3258 4.8143 13.3258C7.17651 13.3258 9.09134 11.6133 9.09134 9.50073Z" fill="url(#paint14_radial_1629_29913)"/>
<path d="M8.68619 9.50067C8.68619 7.58829 6.95248 6.03784 4.81412 6.03784C2.6756 6.03784 0.941895 7.58829 0.941895 9.50067C0.941895 11.4131 2.6756 12.9635 4.81412 12.9635C6.95248 12.9635 8.68619 11.4131 8.68619 9.50067Z" fill="url(#paint15_radial_1629_29913)"/>
<path d="M9.39157 10.8358L6.04166 7.48578C5.99405 7.41147 5.90189 7.34952 5.76486 7.30023C5.61731 7.24713 5.45984 7.21127 5.29306 7.19144C5.28406 7.18564 5.27506 7.18076 5.26575 7.17648L5.01871 6.9119C4.97995 6.88336 4.93814 6.86902 4.89328 6.86902C4.84445 6.86902 4.80264 6.88336 4.76801 6.9119C4.73337 6.94043 4.71597 6.97308 4.71597 7.0097V7.18701C4.38577 7.22379 4.10944 7.3338 3.88727 7.51736C3.66495 7.70078 3.55402 7.96979 3.55402 8.32394C3.55402 8.45013 3.56821 8.56503 3.59674 8.66879C3.62527 8.77255 3.67212 8.86304 3.73743 8.9404C3.80258 9.01776 3.86484 9.08383 3.92404 9.13876C3.92435 9.13922 3.92496 9.13953 3.92526 9.13998C3.92526 9.13998 4.69431 9.90903 4.69476 9.90948C4.70193 9.91711 4.70895 9.92429 4.71597 9.93161V10.9546C4.53531 10.9424 4.37616 10.8957 4.23853 10.8142C4.10089 10.7328 3.99286 10.6566 3.91412 10.5853C3.83539 10.5142 3.77191 10.4785 3.72354 10.4785C3.65045 10.4785 3.58575 10.5171 3.52899 10.5945C3.47223 10.6718 3.44385 10.749 3.44385 10.8264C3.44385 10.95 3.51358 11.0717 3.65289 11.1918L6.1091 13.648C7.66 13.2615 8.8952 12.198 9.39157 10.8358Z" fill="url(#paint16_linear_1629_29913)"/>
<path d="M3.44385 10.8264C3.44385 10.7492 3.47208 10.6718 3.52899 10.5945C3.58575 10.5172 3.65045 10.4785 3.72354 10.4785C3.77176 10.4785 3.83539 10.5142 3.91412 10.5853C3.99286 10.6566 4.10089 10.7328 4.23853 10.8142C4.37616 10.8957 4.53531 10.9424 4.71597 10.9546V9.52023C4.5936 9.47552 4.49976 9.43997 4.4346 9.41342C4.36929 9.38702 4.28262 9.34827 4.17474 9.29745C4.06656 9.24664 3.98294 9.1937 3.92389 9.13876C3.86484 9.08383 3.80258 9.01761 3.73743 8.9404C3.67212 8.86304 3.62512 8.77255 3.59674 8.66879C3.56821 8.56488 3.55386 8.44998 3.55386 8.32379C3.55386 7.96964 3.66495 7.70078 3.88727 7.51721C4.10944 7.3338 4.38577 7.22379 4.71597 7.18701V7.0097C4.71597 6.97293 4.73322 6.94028 4.76801 6.91174C4.80249 6.88336 4.84445 6.86902 4.89328 6.86902C4.93814 6.86902 4.97995 6.88336 5.01871 6.91174C5.05746 6.94028 5.07684 6.97293 5.07684 7.0097V7.1748C5.32556 7.18304 5.5549 7.2247 5.76486 7.30008C5.97482 7.37561 6.07996 7.48059 6.07996 7.61517C6.07996 7.68857 6.05508 7.76501 6.0058 7.84451C5.95651 7.92401 5.89059 7.96368 5.8085 7.96368C5.776 7.96368 5.68658 7.9292 5.54071 7.85977C5.39453 7.7905 5.23996 7.74976 5.07684 7.73755V8.97687C5.23904 9.03806 5.37393 9.09604 5.48135 9.15097C5.58878 9.2059 5.7023 9.2822 5.82193 9.37985C5.94156 9.47751 6.03189 9.60065 6.09262 9.74911C6.15335 9.89758 6.18387 10.0715 6.18387 10.271C6.18387 10.6352 6.08453 10.9248 5.88571 11.1396C5.68704 11.3545 5.41742 11.4865 5.07684 11.5356V11.7399C5.07684 11.7759 5.05746 11.808 5.01871 11.8361C4.97995 11.864 4.93814 11.878 4.89328 11.878C4.84445 11.878 4.80264 11.864 4.76801 11.8361C4.73322 11.808 4.71597 11.7759 4.71597 11.7399V11.5539C4.36121 11.5498 4.06046 11.4686 3.81387 11.3104C3.56714 11.1522 3.44385 10.9909 3.44385 10.8264ZM4.15948 8.26291C4.15948 8.4216 4.20877 8.54276 4.3078 8.62607C4.40668 8.70953 4.55484 8.78781 4.75275 8.86105V7.74915C4.35709 7.79813 4.15948 7.96933 4.15948 8.26291ZM5.04022 10.9424C5.39896 10.8772 5.5784 10.6758 5.5784 10.3381C5.5784 10.1591 5.5314 10.0187 5.43771 9.91711C5.34387 9.81534 5.21143 9.72791 5.04022 9.65451V10.9424Z" fill="url(#paint17_linear_1629_29913)"/>
<path d="M15.1857 5.19556C15.0145 5.19556 14.8453 5.20364 14.6787 5.21921C14.6819 5.22394 14.6851 5.22867 14.6881 5.23355C14.6587 5.22913 14.6291 5.22729 14.5998 5.22729C14.5508 5.23264 14.5021 5.23828 14.4536 5.245C14.2633 5.29184 14.099 5.42886 14.0265 5.62677C13.9313 5.88708 14.0248 6.16968 14.2368 6.32593L19.4354 11.5246C19.7955 10.9213 19.9999 10.2323 19.9999 9.50067C19.9999 7.12305 17.8446 5.19556 15.1857 5.19556Z" fill="url(#paint18_linear_1629_29913)"/>
<path d="M16.903 5.24139L16.439 6.50955C16.4382 6.51154 16.4374 6.51321 16.4367 6.51505C16.4344 6.52054 16.4319 6.52603 16.4297 6.53152C16.4249 6.54343 16.4199 6.55518 16.4144 6.56647C16.412 6.57166 16.4092 6.57623 16.4069 6.58142C16.4007 6.59348 16.394 6.60538 16.3869 6.61667C16.3845 6.62064 16.3822 6.6246 16.3798 6.62842C16.3708 6.64261 16.361 6.65634 16.3508 6.66962C16.35 6.67084 16.3497 6.67191 16.3488 6.67282C16.3375 6.68762 16.3253 6.70181 16.3128 6.71509C16.31 6.71783 16.3073 6.72058 16.3045 6.72333C16.2951 6.73355 16.2849 6.74301 16.2748 6.75232C16.2701 6.75674 16.2653 6.76056 16.2603 6.76498C16.2511 6.77231 16.2421 6.77979 16.2328 6.78696C16.2273 6.79077 16.2221 6.79504 16.2166 6.79871C16.2026 6.80878 16.1881 6.81793 16.1732 6.82648C16.1696 6.82877 16.1654 6.83075 16.1614 6.83273C16.1492 6.83975 16.1367 6.84616 16.1237 6.85196C16.1182 6.85471 16.1127 6.85715 16.1072 6.85944C16.0943 6.86493 16.081 6.87042 16.0677 6.87469C16.0645 6.87592 16.0618 6.87744 16.0587 6.8782C16.057 6.87897 16.0555 6.87897 16.054 6.87988C16.0441 6.88293 16.0335 6.88568 16.0233 6.88843C16.0183 6.88995 16.0131 6.89163 16.0081 6.8927C15.9971 6.89514 15.9861 6.89743 15.9751 6.89941C15.9704 6.90018 15.9656 6.9014 15.9611 6.90216C15.9492 6.90369 15.9371 6.90536 15.9254 6.90643C15.9214 6.90689 15.9179 6.90735 15.9139 6.90765C15.8982 6.90887 15.8826 6.90964 15.8669 6.90964C15.85 6.90964 15.8332 6.90887 15.8167 6.90735C15.8115 6.90689 15.8069 6.90613 15.8022 6.90567C15.79 6.90414 15.7783 6.90292 15.7665 6.90094C15.7606 6.89987 15.7551 6.89865 15.7496 6.89743C15.7383 6.89545 15.7273 6.89316 15.7163 6.89041C15.7104 6.88889 15.7049 6.8869 15.6991 6.88538C15.6881 6.88217 15.6774 6.87897 15.6669 6.87515C15.6638 6.87393 15.6606 6.87347 15.6574 6.87241L14.3893 6.40808C14.0735 6.29272 13.9112 5.94299 14.0269 5.62683C14.128 5.35034 14.4085 5.19165 14.6885 5.23361C14.3203 4.66019 13.8473 4.15588 13.285 3.74329C12.3218 3.03711 11.1794 2.66342 9.98145 2.66342C8.78302 2.66342 7.64059 3.03711 6.67792 3.74329C6.12097 4.15192 5.65192 4.64996 5.28571 5.21622C5.13083 5.20264 4.97351 5.19547 4.81436 5.19547C4.48538 5.19547 4.16418 5.22491 3.85352 5.28137C4.33478 4.28696 5.05087 3.42651 5.95709 2.76138C7.13034 1.90018 8.52225 1.44531 9.98145 1.44531C11.4406 1.44531 12.8319 1.90018 14.0053 2.76138C14.7379 3.29865 15.3457 3.96378 15.806 4.72382C15.9524 4.47479 16.2594 4.35745 16.5403 4.46014C16.8563 4.5755 17.0186 4.92538 16.903 5.24139Z" fill="url(#paint19_linear_1629_29913)"/>
<path d="M16.1468 14.7379C15.6656 15.7325 14.9495 16.5927 14.0432 17.2579C12.87 18.1191 11.4781 18.5739 10.0189 18.5739C8.55969 18.5739 7.1684 18.1191 5.995 17.2579C5.26242 16.7206 4.65466 16.0555 4.19431 15.2956C4.04798 15.5446 3.74097 15.6618 3.46005 15.5591C3.14404 15.4438 2.98169 15.094 3.09735 14.7779L3.56137 13.5097C3.56214 13.5077 3.5629 13.5062 3.56366 13.5042C3.56595 13.4987 3.56839 13.4932 3.57068 13.4877C3.57541 13.476 3.58045 13.4642 3.58594 13.4528C3.58838 13.4478 3.59113 13.443 3.59342 13.4378C3.59967 13.4258 3.60639 13.414 3.61341 13.4026C3.61585 13.3986 3.61814 13.3948 3.62058 13.3908C3.62958 13.3766 3.63935 13.3629 3.64957 13.3496C3.65033 13.3484 3.65064 13.3474 3.65155 13.3466C3.66284 13.3316 3.67505 13.3174 3.68756 13.3042C3.69031 13.3014 3.69306 13.2987 3.6958 13.2959C3.70526 13.2857 3.71549 13.2764 3.72556 13.2669C3.73029 13.2627 3.73502 13.2587 3.74005 13.2544C3.74921 13.2469 3.75821 13.2395 3.76752 13.2325C3.77301 13.2285 3.7782 13.2242 3.78369 13.2207C3.79773 13.2105 3.81223 13.2015 3.82718 13.1928C3.83069 13.1905 3.83496 13.1885 3.83893 13.1865C3.85114 13.1795 3.86365 13.1732 3.87662 13.1673C3.88211 13.1646 3.88761 13.1623 3.8931 13.1598C3.90607 13.1543 3.91934 13.1488 3.93262 13.1446C3.93582 13.1433 3.93857 13.1418 3.94162 13.1411C3.9433 13.1403 3.94483 13.1403 3.94635 13.1395C3.95627 13.1363 3.9668 13.1336 3.97702 13.1308C3.98206 13.1293 3.98725 13.1276 3.99228 13.1266C4.00327 13.1241 4.01425 13.1218 4.02524 13.1198C4.02997 13.1191 4.0347 13.1179 4.03928 13.1171C4.05118 13.1156 4.06323 13.114 4.07498 13.1128C4.07895 13.1124 4.08246 13.1121 4.08643 13.1116C4.10214 13.1104 4.11771 13.1096 4.13342 13.1096C4.15036 13.1096 4.16715 13.1104 4.18363 13.1121C4.18881 13.1124 4.19339 13.1131 4.19812 13.1136C4.21033 13.1151 4.22208 13.1163 4.23383 13.1183C4.23978 13.1194 4.24527 13.1206 4.25076 13.1218C4.26206 13.1238 4.27304 13.1261 4.28403 13.1288C4.28998 13.1304 4.29547 13.1324 4.30127 13.134C4.31226 13.1371 4.32294 13.1403 4.33347 13.1441C4.33652 13.1453 4.33972 13.1458 4.34293 13.1469L5.61109 13.6112C5.92679 13.7265 6.08914 14.0763 5.97348 14.3924C5.87232 14.6689 5.59186 14.8278 5.31186 14.7858C5.68006 15.3591 6.15308 15.8634 6.71536 16.276C7.6785 16.9821 8.82092 17.356 10.0189 17.356C11.2173 17.356 12.3597 16.9821 13.3224 16.276C13.8794 15.8673 14.3484 15.3693 14.7146 14.803C14.8695 14.8168 15.0268 14.8238 15.186 14.8238C15.515 14.8238 15.8362 14.7943 16.1468 14.7379Z" fill="url(#paint20_linear_1629_29913)"/>
</g>
<defs>
<linearGradient id="paint0_linear_1629_29913" x1="10.372" y1="10.0096" x2="20.0002" y2="10.0096" gradientUnits="userSpaceOnUse">
<stop stop-color="#FFC738"/>
<stop offset="0.2344" stop-color="#FEC33A"/>
<stop offset="0.4454" stop-color="#FBB840"/>
<stop offset="0.6474" stop-color="#F6A649"/>
<stop offset="0.8426" stop-color="#F08D56"/>
<stop offset="1" stop-color="#E97264"/>
</linearGradient>
<linearGradient id="paint1_linear_1629_29913" x1="14.7278" y1="9.1283" x2="18.6847" y2="16.7377" gradientUnits="userSpaceOnUse">
<stop stop-color="#FCA17A" stop-opacity="0"/>
<stop offset="0.152" stop-color="#F69373" stop-opacity="0.152941"/>
<stop offset="0.416" stop-color="#EF816B" stop-opacity="0.415686"/>
<stop offset="0.6926" stop-color="#EA7666" stop-opacity="0.694118"/>
<stop offset="1" stop-color="#E97264"/>
</linearGradient>
<linearGradient id="paint2_linear_1629_29913" x1="15.0379" y1="11.5119" x2="14.5705" y2="16.2522" gradientUnits="userSpaceOnUse">
<stop stop-color="#E97264" stop-opacity="0"/>
<stop offset="1" stop-color="#B53759"/>
</linearGradient>
<linearGradient id="paint3_linear_1629_29913" x1="14.2326" y1="11.7535" x2="12.7879" y2="14.3958" gradientUnits="userSpaceOnUse">
<stop stop-color="#E97264" stop-opacity="0"/>
<stop offset="1" stop-color="#B53759"/>
</linearGradient>
<radialGradient id="paint4_radial_1629_29913" cx="0" cy="0" r="1" gradientUnits="userSpaceOnUse" gradientTransform="translate(13.842 6.38423) scale(9.07671 8.1173)">
<stop stop-color="#FFC738"/>
<stop offset="0.2344" stop-color="#FEC33A"/>
<stop offset="0.4454" stop-color="#FBB840"/>
<stop offset="0.6474" stop-color="#F6A649"/>
<stop offset="0.8426" stop-color="#F08D56"/>
<stop offset="1" stop-color="#E97264"/>
</radialGradient>
<radialGradient id="paint5_radial_1629_29913" cx="0" cy="0" r="1" gradientUnits="userSpaceOnUse" gradientTransform="translate(15.517 10.5949) rotate(180) scale(6.69421 5.98663)">
<stop stop-color="#FFC738"/>
<stop offset="0.2344" stop-color="#FEC33A"/>
<stop offset="0.4454" stop-color="#FBB840"/>
<stop offset="0.6474" stop-color="#F6A649"/>
<stop offset="0.8426" stop-color="#F08D56"/>
<stop offset="1" stop-color="#E97264"/>
</radialGradient>
<radialGradient id="paint6_radial_1629_29913" cx="0" cy="0" r="1" gradientUnits="userSpaceOnUse" gradientTransform="translate(14.5274 7.38166) scale(7.53647 6.73986)">
<stop stop-color="#FFC738"/>
<stop offset="0.2344" stop-color="#FEC33A"/>
<stop offset="0.4454" stop-color="#FBB840"/>
<stop offset="0.6474" stop-color="#F6A649"/>
<stop offset="0.8426" stop-color="#F08D56"/>
<stop offset="1" stop-color="#E97264"/>
</radialGradient>
<linearGradient id="paint7_linear_1629_29913" x1="17.883" y1="11.5039" x2="12.8703" y2="8.56916" gradientUnits="userSpaceOnUse">
<stop stop-color="#E97264" stop-opacity="0"/>
<stop offset="1" stop-color="#B53759"/>
</linearGradient>
<linearGradient id="paint8_linear_1629_29913" x1="15.6571" y1="8.96682" x2="11.6865" y2="11.0996" gradientUnits="userSpaceOnUse">
<stop stop-color="#FFC738"/>
<stop offset="1" stop-color="#E97264"/>
</linearGradient>
<linearGradient id="paint9_linear_1629_29913" x1="0" y1="10.0096" x2="9.62818" y2="10.0096" gradientUnits="userSpaceOnUse">
<stop stop-color="#FFC738"/>
<stop offset="0.2344" stop-color="#FEC33A"/>
<stop offset="0.4454" stop-color="#FBB840"/>
<stop offset="0.6474" stop-color="#F6A649"/>
<stop offset="0.8426" stop-color="#F08D56"/>
<stop offset="1" stop-color="#E97264"/>
</linearGradient>
<linearGradient id="paint10_linear_1629_29913" x1="4.3558" y1="9.1283" x2="8.31269" y2="16.7377" gradientUnits="userSpaceOnUse">
<stop stop-color="#FCA17A" stop-opacity="0"/>
<stop offset="0.152" stop-color="#F69373" stop-opacity="0.152941"/>
<stop offset="0.416" stop-color="#EF816B" stop-opacity="0.415686"/>
<stop offset="0.6926" stop-color="#EA7666" stop-opacity="0.694118"/>
<stop offset="1" stop-color="#E97264"/>
</linearGradient>
<linearGradient id="paint11_linear_1629_29913" x1="4.66619" y1="11.5119" x2="4.19883" y2="16.2522" gradientUnits="userSpaceOnUse">
<stop stop-color="#E97264" stop-opacity="0"/>
<stop offset="1" stop-color="#B53759"/>
</linearGradient>
<linearGradient id="paint12_linear_1629_29913" x1="3.86041" y1="11.7535" x2="2.41568" y2="14.3958" gradientUnits="userSpaceOnUse">
<stop stop-color="#E97264" stop-opacity="0"/>
<stop offset="1" stop-color="#B53759"/>
</linearGradient>
<radialGradient id="paint13_radial_1629_29913" cx="0" cy="0" r="1" gradientUnits="userSpaceOnUse" gradientTransform="translate(3.46992 6.38423) scale(9.07671 8.11729)">
<stop stop-color="#FFC738"/>
<stop offset="0.2344" stop-color="#FEC33A"/>
<stop offset="0.4454" stop-color="#FBB840"/>
<stop offset="0.6474" stop-color="#F6A649"/>
<stop offset="0.8426" stop-color="#F08D56"/>
<stop offset="1" stop-color="#E97264"/>
</radialGradient>
<radialGradient id="paint14_radial_1629_29913" cx="0" cy="0" r="1" gradientUnits="userSpaceOnUse" gradientTransform="translate(5.1455 10.5949) rotate(180) scale(6.69421 5.98663)">
<stop stop-color="#FFC738"/>
<stop offset="0.2344" stop-color="#FEC33A"/>
<stop offset="0.4454" stop-color="#FBB840"/>
<stop offset="0.6474" stop-color="#F6A649"/>
<stop offset="0.8426" stop-color="#F08D56"/>
<stop offset="1" stop-color="#E97264"/>
</radialGradient>
<radialGradient id="paint15_radial_1629_29913" cx="0" cy="0" r="1" gradientUnits="userSpaceOnUse" gradientTransform="translate(4.15538 7.38166) scale(7.53647 6.73986)">
<stop stop-color="#FFC738"/>
<stop offset="0.2344" stop-color="#FEC33A"/>
<stop offset="0.4454" stop-color="#FBB840"/>
<stop offset="0.6474" stop-color="#F6A649"/>
<stop offset="0.8426" stop-color="#F08D56"/>
<stop offset="1" stop-color="#E97264"/>
</radialGradient>
<linearGradient id="paint16_linear_1629_29913" x1="7.49465" y1="11.482" x2="1.83554" y2="7.76697" gradientUnits="userSpaceOnUse">
<stop stop-color="#E97264" stop-opacity="0"/>
<stop offset="1" stop-color="#B53759"/>
</linearGradient>
<linearGradient id="paint17_linear_1629_29913" x1="5.91259" y1="9.37358" x2="1.59858" y2="9.37358" gradientUnits="userSpaceOnUse">
<stop stop-color="#FFC738"/>
<stop offset="1" stop-color="#E97264"/>
</linearGradient>
<linearGradient id="paint18_linear_1629_29913" x1="17.4794" y1="8.09649" x2="15.3439" y2="4.30417" gradientUnits="userSpaceOnUse">
<stop stop-color="#E97264" stop-opacity="0"/>
<stop offset="1" stop-color="#B53759"/>
</linearGradient>
<linearGradient id="paint19_linear_1629_29913" x1="10.7268" y1="2.65174" x2="9.83525" y2="9.47521" gradientUnits="userSpaceOnUse">
<stop stop-color="#00E7B2"/>
<stop offset="0.4139" stop-color="#1FA999"/>
<stop offset="1" stop-color="#4F4A72"/>
</linearGradient>
<linearGradient id="paint20_linear_1629_29913" x1="9.60343" y1="16.1815" x2="9.60343" y2="20.8982" gradientUnits="userSpaceOnUse">
<stop stop-color="#00E7B2"/>
<stop offset="0.4139" stop-color="#1FA999"/>
<stop offset="1" stop-color="#4F4A72"/>
</linearGradient>
<clipPath id="clip0_1629_29913">
<rect width="20" height="20" fill="white"/>
</clipPath>
</defs>
</svg>
