<svg width="21" height="21" viewBox="0 0 21 21" fill="none" xmlns="http://www.w3.org/2000/svg">
<path fill-rule="evenodd" clip-rule="evenodd" d="M10.4888 0.125C4.69372 0.125 0 4.81871 0 10.6138C0 15.2551 3.00241 19.1752 7.17169 20.565C7.69613 20.6568 7.89279 20.3421 7.89279 20.0668C7.89279 19.8177 7.87968 18.9917 7.87968 18.1133C5.24438 18.5984 4.56261 17.4708 4.35283 16.8808C4.23484 16.5793 3.72351 15.6484 3.27774 15.3993C2.91063 15.2026 2.38619 14.7175 3.26463 14.7044C4.09062 14.6913 4.68061 15.4649 4.87727 15.7795C5.82126 17.3659 7.32902 16.9202 7.93212 16.6448C8.0239 15.9631 8.29923 15.5042 8.60078 15.242C6.26703 14.9797 3.8284 14.0751 3.8284 10.0631C3.8284 8.92244 4.23484 7.97845 4.90349 7.24424C4.79861 6.98202 4.4315 5.90692 5.00838 4.46472C5.00838 4.46472 5.88682 4.18939 7.89279 5.53982C8.73189 5.30382 9.62344 5.18582 10.515 5.18582C11.4065 5.18582 12.2981 5.30382 13.1372 5.53982C15.1431 4.17628 16.0216 4.46472 16.0216 4.46472C16.5985 5.90692 16.2314 6.98202 16.1265 7.24424C16.7951 7.97845 17.2016 8.90933 17.2016 10.0631C17.2016 14.0882 14.7498 14.9797 12.4161 15.242C12.7963 15.5697 13.1241 16.1991 13.1241 17.1824C13.1241 18.5853 13.1109 19.7128 13.1109 20.0668C13.1109 20.3421 13.3076 20.6699 13.8321 20.565C17.9751 19.1752 20.9775 15.242 20.9775 10.6138C20.9775 4.81871 16.2838 0.125 10.4888 0.125Z" fill="#25273D"/>
</svg>
