<svg width="18" height="16" viewBox="0 0 18 16" fill="none" xmlns="http://www.w3.org/2000/svg">
<path d="M18 2.22657C17.332 2.52539 16.6289 2.72754 15.873 2.81543C16.6465 2.3584 17.2266 1.62891 17.499 0.767578C16.7959 1.18946 15.9961 1.49707 15.1699 1.66407C14.4756 0.960937 13.5176 0.503906 12.4541 0.503906C10.415 0.503906 8.77148 2.14746 8.77148 4.18653C8.77148 4.47657 8.78906 4.77539 8.85059 5.03907C5.79199 4.87207 3.08496 3.4834 1.24805 1.25098C0.94043 1.7959 0.74707 2.3584 0.74707 3.04395C0.74707 4.30957 1.39746 5.43457 2.39941 6.10254C1.79297 6.08496 1.23047 5.91797 0.729492 5.64551V5.68946C0.729492 7.48243 2.00391 8.97657 3.69141 9.31055C3.375 9.39844 3.04102 9.44239 2.70703 9.44239C2.47852 9.44239 2.25 9.41602 2.02148 9.37207C2.47852 10.8311 3.8584 11.9209 5.45801 11.9385C4.20996 12.9405 2.60156 13.6875 0.878906 13.6875C0.580078 13.6875 0.290039 13.6699 0 13.626C1.62598 14.6719 3.58594 15.1289 5.66895 15.1289C12.4541 15.1289 16.1631 9.50391 16.1631 4.62598V4.14258C16.875 3.62403 17.499 2.98243 18 2.22657Z" fill="#25273D"/>
</svg>
