<svg width="33" height="38" viewBox="0 0 33 38" fill="none" xmlns="http://www.w3.org/2000/svg">
<path d="M16.0723 19.0579L32.0354 9.77686V28.2227L16.0723 37.4998V19.0579Z" fill="url(#paint0_linear_5028_164387)"/>
<path d="M16.0714 19.0579V37.4998L0 28.2227V9.77686L16.0714 19.0579Z" fill="url(#paint1_linear_5028_164387)"/>
<path d="M30.0327 14.5661C30.3515 14.3586 30.6166 14.0785 30.8063 13.7487C30.9959 13.419 31.1047 13.0489 31.1236 12.669C31.1236 11.9711 30.6303 11.6944 30.0247 12.0433C29.7056 12.2499 29.44 12.5292 29.2497 12.8583C29.0594 13.1873 28.9497 13.5568 28.9297 13.9364C28.9297 14.6183 29.423 14.903 30.0327 14.5661Z" fill="#094A14"/>
<path d="M18.0444 21.4766C18.3632 21.2691 18.6283 20.989 18.818 20.6592C19.0076 20.3294 19.1164 19.9594 19.1353 19.5794C19.1353 18.8816 18.642 18.6008 18.0364 18.9538C17.7173 19.1604 17.4517 19.4397 17.2614 19.7687C17.0711 20.0978 16.9614 20.4673 16.9414 20.8469C16.9454 21.5407 17.4508 21.8255 18.0444 21.4766Z" fill="#094A14"/>
<path d="M18.0734 32.7229C17.7545 32.9304 17.4894 33.2105 17.2998 33.5403C17.1101 33.8701 17.0014 34.2401 16.9824 34.62C16.9824 35.3179 17.4758 35.5987 18.0814 35.2457C18.4005 35.0391 18.666 34.7598 18.8563 34.4307C19.0467 34.1017 19.1563 33.7322 19.1764 33.3526C19.1723 32.6587 18.683 32.374 18.0734 32.7229Z" fill="#094A14"/>
<path d="M30.0617 24.7857L30.0376 15.5607C28.9427 16.1945 28.0322 15.6851 28.0322 14.4297L20.0105 19.0622C19.9737 19.7479 19.7753 20.4152 19.4317 21.0097C19.0881 21.6042 18.6089 22.1092 18.0332 22.4835L18.0613 31.7084C19.1562 31.0787 20.0466 31.5841 20.0667 32.8435L28.0884 28.2109C28.1242 27.5249 28.3216 26.857 28.6645 26.2618C29.0075 25.6666 29.4862 25.1608 30.0617 24.7857Z" fill="#094A14"/>
<path d="M30.0657 25.7964C29.7466 26.003 29.481 26.2823 29.2907 26.6114C29.1004 26.9405 28.9907 27.3099 28.9707 27.6895C28.9707 28.3874 29.464 28.6682 30.0697 28.3192C30.3893 28.1122 30.6552 27.8323 30.8455 27.5025C31.0359 27.1727 31.1452 26.8024 31.1646 26.4221C31.1646 25.7362 30.6873 25.4555 30.0657 25.7964Z" fill="#094A14"/>
<path d="M23.9296 19.7799C24.9765 19.1783 26.1035 19.2465 26.1075 20.6262C26.1075 22.3829 24.5032 23.5581 24.5232 24.5127V24.8937L22.9751 25.7962V25.2627C22.9751 23.8188 24.435 22.7158 24.431 21.8174C24.431 21.4524 24.1222 21.3602 23.7652 21.5647C23.4104 21.8274 23.1106 22.1572 22.8828 22.5354L21.9844 21.8014C22.4513 20.9738 23.1206 20.2783 23.9296 19.7799Z" fill="url(#paint2_linear_5028_164387)"/>
<path d="M23.0177 28.1509L23.0137 26.5466L24.4856 25.6963L24.4897 27.2966L23.0177 28.1509Z" fill="url(#paint3_linear_5028_164387)"/>
<path d="M14.0461 21.4766C14.6558 21.8255 15.1451 21.5407 15.1491 20.8469C15.1291 20.4673 15.0194 20.0978 14.8291 19.7687C14.6388 19.4397 14.3732 19.1604 14.0542 18.9538C13.4485 18.6008 12.9552 18.8816 12.9512 19.5794C12.9725 19.9593 13.0827 20.3288 13.2728 20.6583C13.463 20.9878 13.7279 21.2681 14.0461 21.4766Z" fill="#0D7220"/>
<path d="M14.013 32.7229C13.4074 32.374 12.9141 32.6587 12.9141 33.3526C12.9341 33.7322 13.0437 34.1017 13.2341 34.4307C13.4244 34.7598 13.69 35.0391 14.009 35.2457C14.6147 35.5987 15.108 35.3179 15.108 34.62C15.0886 34.2397 14.9792 33.8695 14.7889 33.5397C14.5985 33.2099 14.3326 32.9299 14.013 32.7229Z" fill="#0D7220"/>
<path d="M2.02486 25.7965C1.41922 25.4475 0.925886 25.7283 0.921875 26.4222C0.943177 26.802 1.05334 27.1716 1.24352 27.5011C1.4337 27.8306 1.69857 28.1108 2.01683 28.3193C2.62647 28.6682 3.1158 28.3875 3.11981 27.6896C3.09979 27.31 2.99013 26.9405 2.7998 26.6115C2.60948 26.2824 2.34392 26.0031 2.02486 25.7965Z" fill="#0D7220"/>
<path d="M14.018 31.7084L14.0421 22.4835C13.4669 22.109 12.9883 21.6039 12.6454 21.0093C12.3024 20.4148 12.1049 19.7476 12.0687 19.0622L4.04706 14.4297C4.04706 15.6851 3.15666 16.1945 2.04164 15.5607L2.01758 24.7857C2.59332 25.1605 3.07223 25.6663 3.41519 26.2616C3.75815 26.8569 3.95543 27.5248 3.99092 28.2109L12.0126 32.8435C12.0327 31.5841 12.9231 31.0787 14.018 31.7084Z" fill="#0D7220"/>
<path d="M2.05784 14.5661C2.66348 14.9151 3.15681 14.6303 3.16082 13.9364C3.1408 13.5568 3.03114 13.1873 2.84082 12.8583C2.65049 12.5292 2.38493 12.2499 2.06587 12.0433C1.46023 11.6944 0.966901 11.9711 0.962891 12.669C0.984505 13.0488 1.0948 13.4182 1.28495 13.7477C1.4751 14.0771 1.73981 14.3574 2.05784 14.5661Z" fill="#0D7220"/>
<path d="M6.98242 26.9432L8.45039 27.7935L8.45841 26.1892L6.98643 25.3389L6.98242 26.9432Z" fill="url(#paint4_linear_5028_164387)"/>
<path d="M7.93754 19.6679C6.68616 18.9459 6.02438 19.4112 5.98828 19.4352L6.87869 21.2C7.02001 21.1379 7.17405 21.1102 7.32816 21.1193C7.48226 21.1283 7.63202 21.1739 7.76508 21.2522C7.94589 21.3577 8.09952 21.5041 8.21373 21.6796C8.32793 21.8551 8.39954 22.0548 8.42285 22.2629C8.42285 23.1653 6.95889 22.5797 6.95488 24.0236V24.5571L8.49506 25.4475V25.0665C8.49506 24.1119 10.0994 24.7737 10.0994 23.0209C10.1074 21.6372 8.98036 20.2695 7.93754 19.6679Z" fill="url(#paint5_linear_5028_164387)"/>
<g style="mix-blend-mode:overlay" opacity="0.8">
<path d="M0 9.77686V10.1539L16.0714 19.435L32.0346 10.1539V9.77686L16.0714 19.0579L0 9.77686Z" fill="white"/>
</g>
<path d="M0 9.77707L15.9672 0.5L32.0346 9.77707L16.0714 19.0582L0 9.77707Z" fill="#75C536"/>
<path d="M17.1469 16.0662C16.8084 15.8937 16.4339 15.8037 16.0539 15.8037C15.674 15.8037 15.2995 15.8937 14.961 16.0662C14.3554 16.4152 14.3634 16.9847 14.961 17.3336C15.3 17.5069 15.6752 17.5972 16.0559 17.5972C16.4366 17.5972 16.8119 17.5069 17.1509 17.3336C17.7565 16.9727 17.7565 16.4152 17.1469 16.0662Z" fill="#2EA02D"/>
<path d="M25.9869 8.63398L17.9652 4.00146C17.3526 4.31286 16.6751 4.47517 15.9879 4.47517C15.3007 4.47517 14.6232 4.31286 14.0106 4.00146L6.04102 8.63398C7.13598 9.2677 7.13999 10.2905 6.04102 10.9242L14.0627 15.5567C14.6743 15.2444 15.3513 15.0816 16.038 15.0816C16.7248 15.0816 17.4017 15.2444 18.0134 15.5567L25.9829 10.9242C24.9 10.2905 24.896 9.2677 25.9869 8.63398Z" fill="#2EA02D"/>
<path d="M29.0576 9.14342C28.7186 8.9702 28.3433 8.87988 27.9626 8.87988C27.5819 8.87988 27.2067 8.9702 26.8677 9.14342C26.2661 9.49236 26.2701 10.0619 26.8677 10.4108C27.2067 10.5841 27.5819 10.6744 27.9626 10.6744C28.3433 10.6744 28.7186 10.5841 29.0576 10.4108C29.6632 10.0619 29.6632 9.49236 29.0576 9.14342Z" fill="#2EA02D"/>
<path d="M14.8913 3.49189C15.2298 3.66445 15.6044 3.7544 15.9843 3.7544C16.3642 3.7544 16.7388 3.66445 17.0772 3.49189C17.6789 3.14295 17.6749 2.57341 17.0772 2.22447C16.7382 2.05125 16.363 1.96094 15.9823 1.96094C15.6016 1.96094 15.2263 2.05125 14.8873 2.22447C14.2817 2.57341 14.2817 3.14295 14.8913 3.49189Z" fill="#2EA02D"/>
<path d="M5.16112 9.14732C4.82211 8.97411 4.44686 8.88379 4.06616 8.88379C3.68547 8.88379 3.31021 8.97411 2.9712 9.14732C2.36958 9.49626 2.37359 10.0618 2.9712 10.4147C3.31021 10.588 3.68547 10.6783 4.06616 10.6783C4.44686 10.6783 4.82211 10.588 5.16112 10.4147C5.77076 10.0618 5.76675 9.49225 5.16112 9.14732Z" fill="#2EA02D"/>
<path d="M19.2848 7.74737C20.3316 8.353 20.837 9.3517 19.6418 10.0576C18.1217 10.94 16.3088 10.1499 15.4866 10.6271L15.1536 10.8237L13.6055 9.92926L14.0667 9.66054C15.3181 8.93457 17.0026 9.66054 17.7767 9.19929C18.0936 9.01479 18.0174 8.70195 17.6644 8.49739C17.2598 8.31918 16.8231 8.22503 16.381 8.22064L16.5735 7.07354C17.5199 7.06368 18.4531 7.29561 19.2848 7.74737Z" fill="#75C536"/>
<path d="M11.5957 11.1367L12.9835 10.3306L14.4554 11.1809L13.0677 11.987L11.5957 11.1367Z" fill="#75C536"/>
<defs>
<linearGradient id="paint0_linear_5028_164387" x1="16.0723" y1="23.6383" x2="32.0354" y2="23.6383" gradientUnits="userSpaceOnUse">
<stop stop-color="#0B611B"/>
<stop offset="1" stop-color="#119129"/>
</linearGradient>
<linearGradient id="paint1_linear_5028_164387" x1="-7.34385" y1="39.0159" x2="14.5834" y2="17.0926" gradientUnits="userSpaceOnUse">
<stop stop-color="#8BD139"/>
<stop offset="0.17" stop-color="#7DCA37"/>
<stop offset="0.49" stop-color="#57B632"/>
<stop offset="0.93" stop-color="#1B962A"/>
<stop offset="1" stop-color="#119129"/>
</linearGradient>
<linearGradient id="paint2_linear_5028_164387" x1="25.7265" y1="29.3538" x2="23.32" y2="17.574" gradientUnits="userSpaceOnUse">
<stop stop-color="#0B611B"/>
<stop offset="1" stop-color="#119129"/>
</linearGradient>
<linearGradient id="paint3_linear_5028_164387" x1="24.3092" y1="29.643" x2="21.9027" y2="17.8631" gradientUnits="userSpaceOnUse">
<stop stop-color="#0B611B"/>
<stop offset="1" stop-color="#119129"/>
</linearGradient>
<linearGradient id="paint4_linear_5028_164387" x1="6.44497" y1="30.0396" x2="11.7593" y2="15.5484" gradientUnits="userSpaceOnUse">
<stop stop-color="#8BD139"/>
<stop offset="0.17" stop-color="#7DCA37"/>
<stop offset="0.49" stop-color="#57B632"/>
<stop offset="0.93" stop-color="#1B962A"/>
<stop offset="1" stop-color="#119129"/>
</linearGradient>
<linearGradient id="paint5_linear_5028_164387" x1="5.06579" y1="29.5345" x2="10.3802" y2="15.0474" gradientUnits="userSpaceOnUse">
<stop stop-color="#8BD139"/>
<stop offset="0.17" stop-color="#7DCA37"/>
<stop offset="0.49" stop-color="#57B632"/>
<stop offset="0.93" stop-color="#1B962A"/>
<stop offset="1" stop-color="#119129"/>
</linearGradient>
</defs>
</svg>
