<svg width="25" height="25" viewBox="0 0 25 25" fill="none" xmlns="http://www.w3.org/2000/svg">
<circle cx="12.5" cy="12.5" r="12.5" fill="#797979"/>
<g clip-path="url(#clip0_5112_20245)">
<path d="M19.5005 10.5454C19.5005 11.6782 19.4946 12.8169 19.5005 13.9497C19.5005 14.1962 19.3949 14.296 19.1425 14.296C18.7023 14.296 18.2621 14.3253 17.8219 14.3253C17.5988 14.3253 17.499 14.3958 17.5049 14.6306C17.5166 15.0532 17.5108 15.4699 17.5049 15.8925C17.5049 16.0803 17.5812 16.1566 17.769 16.1566C18.2268 16.1507 18.6905 16.1625 19.1483 16.1507C19.4066 16.1449 19.5005 16.2564 19.4946 16.497C19.4888 16.9842 19.4888 17.4772 19.4946 17.9644C19.4946 18.1933 19.4066 18.2579 19.1718 18.2461C18.7023 18.2226 18.2327 18.2344 17.7632 18.2461C17.4169 18.252 17.3758 18.2285 17.3758 17.8705C17.3758 17.442 17.3699 17.0077 17.3758 16.5792C17.3816 16.3738 17.323 16.2681 17.0999 16.274C16.6714 16.2799 16.2371 16.2799 15.8086 16.274C15.5915 16.2681 15.5152 16.3738 15.521 16.5792C15.5269 17.0311 15.5152 17.4772 15.5269 17.9292C15.5269 18.1463 15.4565 18.2461 15.2158 18.2403C14.7345 18.2344 14.2591 18.2579 13.7778 18.2637C13.4315 18.2637 13.408 18.1992 13.4139 17.8646C13.4257 17.4068 13.408 16.949 13.3787 16.4912C13.3728 16.4207 13.2554 16.3033 13.185 16.2975C12.7155 16.2799 12.2459 16.2857 11.7763 16.2857C11.6003 16.2857 11.5768 16.3973 11.5768 16.544C11.5768 16.9959 11.565 17.442 11.5768 17.894C11.5827 18.1405 11.5064 18.252 11.2422 18.2461C10.7551 18.2285 10.262 18.2344 9.77487 18.2461C9.54597 18.252 9.45792 18.1581 9.45792 17.935C9.46379 17.4831 9.45205 17.037 9.45792 16.5851C9.46379 16.3738 9.38749 16.2799 9.17032 16.2857C8.74185 16.2916 8.30752 16.2916 7.87905 16.2857C7.65601 16.2799 7.59145 16.3738 7.59732 16.5851C7.60906 17.037 7.59145 17.4831 7.60319 17.935C7.60906 18.1581 7.52688 18.252 7.29798 18.2461C6.79908 18.2344 6.30017 18.2403 5.80127 18.2461C5.60758 18.2461 5.51367 18.1757 5.51367 17.9703C5.51954 17.4537 5.51367 16.9314 5.51367 16.4149C5.51367 16.2036 5.60758 16.1331 5.82475 16.139C6.29431 16.1566 6.76386 16.1449 7.23341 16.1566C7.44471 16.1625 7.49167 16.0803 7.4858 15.8749C7.46819 15.4347 7.47406 14.9945 7.49754 14.5543C7.50341 14.3488 7.43884 14.3019 7.24515 14.3077C6.76973 14.3253 6.28844 14.3253 5.81301 14.3253C5.62519 14.3253 5.51954 14.2314 5.51954 14.0377C5.51954 12.8521 5.51954 11.6724 5.51954 10.4867C5.51954 10.2754 5.62519 10.2168 5.81301 10.2168C6.26496 10.2226 6.71103 10.2109 7.16298 10.2226C7.38602 10.2285 7.47993 10.1404 7.47993 9.91154C7.47993 9.48307 7.49754 9.04874 7.50928 8.62027C7.51515 8.43245 7.43884 8.36201 7.25102 8.36201C6.76973 8.36788 6.29431 8.35615 5.81301 8.36201C5.59584 8.36201 5.51954 8.27984 5.52541 8.06854C5.53715 7.58138 5.53128 7.08835 5.51954 6.60119C5.5078 6.32532 5.62519 6.23141 5.88345 6.24315C6.37061 6.26663 6.85777 6.2725 7.3508 6.28424C7.53862 6.29011 7.60906 6.37228 7.60906 6.55423C7.60319 7.02379 7.61493 7.49334 7.60906 7.96289C7.60319 8.16832 7.68536 8.23876 7.88492 8.23876C8.32513 8.23289 8.76533 8.23289 9.20554 8.23876C9.41684 8.24463 9.47553 8.14485 9.47553 7.95702C9.46966 7.49921 9.4814 7.03553 9.46966 6.57771C9.46379 6.33706 9.56357 6.24902 9.80422 6.24902C10.7022 6.25489 11.6061 6.25489 12.5042 6.25489C13.3846 6.25489 14.265 6.25489 15.1454 6.25489C15.4917 6.25489 15.5269 6.29011 15.5328 6.64227C15.5328 7.08248 15.5386 7.52269 15.5328 7.96289C15.5269 8.16245 15.6032 8.24463 15.8028 8.24463C16.243 8.23876 16.6832 8.23876 17.1234 8.24463C17.3347 8.2505 17.3934 8.15072 17.3875 7.96289C17.3816 7.50508 17.3934 7.04139 17.3816 6.58358C17.3758 6.3488 17.4697 6.24315 17.7103 6.24902C18.1916 6.26076 18.6671 6.26076 19.1483 6.24902C19.3949 6.24315 19.5064 6.3488 19.5064 6.59532C19.5005 7.08248 19.5005 7.57551 19.5005 8.06267C19.5005 8.27984 19.4066 8.37962 19.1777 8.37375C18.7081 8.36201 18.2386 8.37375 17.769 8.36788C17.5753 8.36201 17.5049 8.43832 17.5108 8.62614C17.5166 9.06635 17.5166 9.50655 17.5108 9.94676C17.5108 10.1463 17.5871 10.2285 17.7866 10.2226C18.2386 10.2168 18.6847 10.2285 19.1366 10.2168C19.3773 10.205 19.5005 10.2989 19.5005 10.5454Z" fill="#F5F5F5"/>
<rect x="9.04102" y="9.24902" width="2.07106" height="2.07106" fill="black"/>
<rect x="13.6387" y="9.24902" width="2.07106" height="2.07106" fill="black"/>
<rect x="11.2871" y="11.1763" width="2.07106" height="2.07106" fill="black"/>
<rect x="9.21484" y="13.1802" width="2.07106" height="2.07106" fill="black"/>
<rect x="13.3594" y="13.1802" width="2.07106" height="2.07106" fill="black"/>
</g>
<defs>
<clipPath id="clip0_5112_20245">
<rect width="13.981" height="12.0264" fill="white" transform="translate(5.51953 6.23682)"/>
</clipPath>
</defs>
</svg>
