<svg width="27" height="19" viewBox="0 0 27 19" fill="none" xmlns="http://www.w3.org/2000/svg">
<g clip-path="url(#clip0_5112_20264)">
<path d="M2.28042 10.3288C2.35369 11.1203 2.55686 11.8943 2.88176 12.6197C3.20632 13.3426 3.63371 14.0148 4.15066 14.6155C4.66253 15.2146 5.24251 15.752 5.87885 16.2168C6.19702 16.4484 6.52761 16.6625 6.86914 16.8581C7.2163 17.0596 7.58043 17.2304 7.95736 17.3684C8.06206 17.4057 8.16951 17.4348 8.27873 17.4553L8.55458 17.5091L9.10627 17.6222C9.48694 17.7036 9.86624 17.7877 10.2193 17.8677L10.5255 17.938L10.7255 17.0705L10.4193 17.0015C10.0662 16.9202 9.69935 16.8402 9.32971 16.7629C9.14765 16.7243 8.96421 16.6885 8.77801 16.6526L8.50217 16.6002L8.45251 16.5905L8.37941 16.5767L8.26907 16.545C8.1059 16.4901 7.9461 16.4256 7.79048 16.3519C7.63601 16.2802 7.47739 16.1988 7.31739 16.1092C7.00442 15.9345 6.70144 15.7425 6.40986 15.534C5.8253 15.1174 5.29035 14.6352 4.81546 14.0969C4.34212 13.5626 3.94524 12.9652 3.6362 12.3218C3.33102 11.6773 3.13302 10.9874 3.05003 10.2791C2.95913 9.56548 2.96285 8.84295 3.06106 8.13027C3.15745 7.41506 3.35868 6.71796 3.65827 6.06141C3.80901 5.73377 3.98421 5.41795 4.18238 5.11663C4.37242 4.8191 4.5924 4.54181 4.8389 4.28908L4.97683 4.19944L4.58512 3.73877L4.45961 3.84911C4.31266 3.98212 4.17445 4.12448 4.04584 4.2753C3.91757 4.42425 3.79482 4.58011 3.68172 4.73872C3.45395 5.05803 3.2515 5.39467 3.07623 5.74556C2.72507 6.44958 2.47969 7.20154 2.348 7.97718C2.22142 8.75459 2.19869 9.54538 2.28042 10.3288ZM2.6666 8.03234C2.79271 7.28688 3.02835 6.56416 3.36588 5.88763C3.53415 5.55126 3.72828 5.22847 3.94653 4.92216C3.95632 4.9069 3.96691 4.89216 3.97826 4.87802L3.93136 4.9456C3.7231 5.26057 3.53869 5.59067 3.37967 5.93314C3.06759 6.61642 2.85755 7.34182 2.75625 8.08613C2.65477 8.82581 2.6506 9.5756 2.74384 10.3164C2.83099 11.0577 3.03879 11.7799 3.35898 12.4542C3.68048 13.1246 4.0936 13.7471 4.5865 14.3037C5.07685 14.8598 5.62941 15.3578 6.23331 15.7878C6.53448 16.0035 6.84761 16.202 7.1712 16.3823C7.33808 16.4747 7.50359 16.5602 7.66497 16.636C7.83209 16.7154 8.00389 16.7845 8.17942 16.8429C8.23321 16.8609 8.27597 16.8719 8.31734 16.8815L8.40562 16.8981L8.45113 16.9064L8.72698 16.9602C8.90766 16.9946 9.08972 17.0319 9.2704 17.0691C9.63866 17.1464 10.0028 17.2264 10.3531 17.3064L10.2952 17.5601C9.94071 17.4801 9.56004 17.3946 9.17662 17.3133L8.61526 17.1988L8.33942 17.145C8.2459 17.1264 8.15375 17.1015 8.06357 17.0705C7.70543 16.9382 7.35934 16.7753 7.02914 16.5836C6.69595 16.3945 6.37362 16.1868 6.06367 15.9616C5.44656 15.5119 4.88455 14.9911 4.38927 14.4099C3.89149 13.8323 3.47989 13.1856 3.16727 12.49C2.85619 11.7957 2.66187 11.0547 2.59213 10.2971C2.51638 9.54219 2.54142 8.7806 2.6666 8.03234Z" fill="#424242"/>
<path d="M2.51121 8.00659C2.64049 7.24583 2.88122 6.50828 3.22565 5.81774C3.39762 5.47422 3.5959 5.14451 3.81873 4.83158C3.92906 4.67573 4.04768 4.52539 4.17319 4.38057C4.29723 4.23396 4.43085 4.09573 4.57317 3.9668L4.74282 4.16541L4.70006 4.20679L4.7442 4.16403C4.48604 4.42905 4.25501 4.71921 4.05458 5.03019C3.44924 5.95715 3.05816 7.0074 2.90981 8.10452C2.81028 8.83096 2.80657 9.56734 2.89877 10.2948C2.984 11.0192 3.18664 11.725 3.49874 12.3843C3.81419 13.0414 4.21892 13.6517 4.70144 14.198C5.18673 14.7468 5.73325 15.2383 6.33032 15.6628C6.62643 15.8745 6.93401 16.0697 7.25166 16.2476C7.41027 16.3358 7.57164 16.4186 7.73577 16.4944C7.89696 16.5714 8.06279 16.6382 8.23229 16.6944C8.27251 16.7083 8.3135 16.7198 8.35505 16.7289C8.38953 16.7386 8.4378 16.7455 8.48332 16.7551L8.75916 16.8075C8.94122 16.842 9.12329 16.8792 9.30397 16.9179C9.66809 16.9937 10.0294 17.0723 10.3922 17.1551L10.5439 17.1896L10.508 17.3427L10.4501 17.5978L10.4143 17.7495L10.2625 17.7151C9.89014 17.6309 9.51913 17.5482 9.14673 17.4696C8.96053 17.4296 8.77296 17.3909 8.58676 17.3551L8.31091 17.3013C8.20997 17.2825 8.11078 17.2553 8.01438 17.2199C7.6461 17.0863 7.29064 16.9196 6.95236 16.722C6.61543 16.5304 6.28985 16.3195 5.97724 16.0903C5.35018 15.6332 4.77894 15.1041 4.27525 14.5138C3.76947 13.9241 3.35139 13.2645 3.03394 12.5553C2.7165 11.8454 2.51755 11.0883 2.44501 10.3141C2.36557 9.54534 2.38783 8.7695 2.51121 8.00659Z" fill="url(#paint0_linear_5112_20264)"/>
<path d="M24.6451 7.97864C24.5134 7.203 24.268 6.45104 23.9168 5.74703C23.7416 5.39614 23.5391 5.0595 23.3113 4.74018C23.1983 4.58157 23.0755 4.42571 22.9472 4.27676C22.8186 4.12594 22.6804 3.98358 22.5335 3.85057L22.4079 3.74023L22.0162 4.2009L22.1542 4.29055C22.4007 4.54328 22.6207 4.82057 22.8107 5.11809C23.0089 5.41941 23.1841 5.73523 23.3348 6.06287C23.6344 6.71942 23.8356 7.41653 23.932 8.13173C24.0302 8.84441 24.0339 9.56694 23.943 10.2806C23.86 10.9888 23.662 11.6788 23.3569 12.3232C23.0478 12.9667 22.651 13.5641 22.1776 14.0983C21.7027 14.6366 21.1678 15.1188 20.5832 15.5355C20.2916 15.7439 19.9887 15.936 19.6757 16.1106C19.5157 16.2003 19.3571 16.2817 19.2026 16.3534C19.047 16.4271 18.8872 16.4915 18.724 16.5465L18.6136 16.5782L18.5406 16.592L18.4909 16.6016L18.2151 16.6541C18.033 16.6899 17.8496 16.7258 17.6634 16.7644C17.2937 16.8416 16.9269 16.9216 16.5738 17.003L16.2676 17.072L16.4676 17.9395L16.7737 17.8692C17.1268 17.7892 17.5061 17.705 17.8868 17.6237L18.4385 17.5106L18.7143 17.4568C18.8236 17.4362 18.931 17.4072 19.0357 17.3699C19.4126 17.2319 19.7768 17.0611 20.1239 16.8596C20.4655 16.664 20.796 16.4499 21.1142 16.2182C21.7506 15.7534 22.3305 15.216 22.8424 14.6169C23.3592 14.0159 23.787 13.3438 24.1127 12.6212C24.4372 11.8957 24.6399 11.1217 24.7127 10.3302C24.7944 9.54684 24.7717 8.75605 24.6451 7.97864ZM24.4078 10.2985C24.3381 11.0562 24.1438 11.7971 23.8327 12.4915C23.5201 13.1871 23.1085 13.8337 22.6107 14.4114C22.1154 14.9926 21.5534 15.5134 20.9363 15.9631C20.6264 16.1883 20.304 16.396 19.9708 16.5851C19.6406 16.7768 19.2945 16.9397 18.9364 17.072C18.8462 17.1029 18.7541 17.1278 18.6606 17.1464L18.3847 17.2002L17.8233 17.3147C17.4399 17.3961 17.0593 17.4816 16.7048 17.5616L16.6469 17.3078C16.9972 17.2278 17.3627 17.1478 17.7296 17.0706C17.9102 17.0333 18.0923 16.9961 18.273 16.9616L18.5488 16.9078L18.5944 16.8996L18.6826 16.883C18.7212 16.8734 18.764 16.8623 18.8205 16.8444C18.996 16.7857 19.1678 16.7166 19.335 16.6375C19.4964 16.5616 19.6633 16.4761 19.8288 16.3837C20.1524 16.2034 20.4655 16.0049 20.7667 15.7893C21.3706 15.3592 21.9231 14.8613 22.4135 14.3052C22.9064 13.7486 23.3195 13.1261 23.641 12.4557C23.9612 11.7813 24.169 11.0592 24.2561 10.3178C24.3486 9.57702 24.3445 8.82733 24.2437 8.0876C24.1424 7.34329 23.9324 6.61788 23.6203 5.93461C23.4618 5.59186 23.2774 5.26172 23.0686 4.94707L23.0217 4.87948C23.0331 4.89362 23.0436 4.90836 23.0534 4.92362C23.2717 5.22993 23.4658 5.55272 23.6341 5.88909C23.9716 6.56562 24.2073 7.28835 24.3334 8.03381C24.4585 8.78207 24.4836 9.54365 24.4078 10.2985Z" fill="#424242"/>
<path d="M24.4913 8.00659C24.3621 7.24583 24.1213 6.50828 23.7769 5.81774C23.6049 5.47422 23.4066 5.14451 23.1838 4.83158C23.0735 4.67573 22.9549 4.52539 22.8293 4.38057C22.7053 4.23396 22.5717 4.09573 22.4294 3.9668L22.2597 4.16541L22.3025 4.20679L22.2583 4.16403C22.5174 4.42826 22.7485 4.71852 22.948 5.03019C23.1506 5.33797 23.3295 5.66073 23.4831 5.99566C23.7895 6.66423 23.9954 7.37439 24.0941 8.10314C24.1936 8.82959 24.1973 9.56596 24.1051 10.2934C24.0199 11.0178 23.8173 11.7236 23.5052 12.3829C23.1903 13.0403 22.7855 13.6507 22.3025 14.1966C21.8173 14.7459 21.2707 15.2378 20.6736 15.6628C20.3775 15.8745 20.0699 16.0697 19.7523 16.2476C19.5936 16.3358 19.4323 16.4186 19.2682 16.4944C19.107 16.5714 18.9411 16.6382 18.7716 16.6944C18.7314 16.7083 18.6904 16.7198 18.6489 16.7289C18.6144 16.7386 18.5661 16.7455 18.5206 16.7551L18.2448 16.8075C18.0627 16.842 17.8806 16.8792 17.6931 16.9179C17.3289 16.9937 16.9676 17.0723 16.6048 17.1551L16.4531 17.1896L16.489 17.3427L16.5469 17.5978L16.5828 17.7495L16.7345 17.7151C17.1069 17.6309 17.4779 17.5482 17.8503 17.4696C18.0379 17.4296 18.2241 17.3909 18.4103 17.3551L18.6861 17.3013C18.7871 17.2825 18.8862 17.2553 18.9826 17.2199C19.3509 17.0863 19.7064 16.9196 20.0447 16.722C20.3816 16.5304 20.7072 16.3195 21.0198 16.0903C21.6468 15.6332 22.2181 15.1041 22.7218 14.5138C23.2276 13.9241 23.6456 13.2645 23.9631 12.5553C24.2805 11.8454 24.4795 11.0883 24.552 10.3141C24.6333 9.54558 24.6129 8.76974 24.4913 8.00659Z" fill="url(#paint1_linear_5112_20264)"/>
<path d="M19.3126 17.4995C19.292 17.4678 19.2726 17.4333 19.2547 17.4002L19.2285 17.3478L19.2423 17.2913C19.252 17.2513 19.4947 16.3079 20.8974 15.8651C22.3001 15.4224 23.558 16.2265 23.6117 16.261L23.7579 16.3548L23.6503 16.4927C23.2384 16.982 22.7498 17.4012 22.2035 17.734C21.0257 18.4346 19.7568 18.1781 19.3126 17.4995ZM19.565 17.3106L19.5761 17.3271C19.9333 17.8788 21.0353 18.0622 22.0463 17.465C22.5076 17.1839 22.9257 16.8373 23.2876 16.4361C22.9221 16.2485 21.9787 15.8568 20.9995 16.1603C19.9402 16.4968 19.6354 17.1216 19.5692 17.3106H19.565Z" fill="#424242"/>
<path d="M19.3965 17.3285C19.3965 17.3285 19.6103 16.4361 20.9481 16.0141C22.286 15.592 23.5301 16.392 23.5301 16.392C23.1313 16.8683 22.6575 17.2764 22.1274 17.6002C21.0212 18.2539 19.7537 18.0278 19.3965 17.3285Z" fill="url(#paint2_linear_5112_20264)"/>
<g style="mix-blend-mode:overlay" opacity="0.49">
<path d="M23.3661 16.3909C23.3661 16.3909 21.8779 15.7136 20.8435 16.2529C19.8091 16.7922 20.4559 17.8142 21.1842 17.7632C21.9124 17.7122 23.4475 16.5205 23.3661 16.3909Z" fill="#F7F7F7"/>
</g>
<g style="mix-blend-mode:overlay" opacity="0.49">
<path d="M23.2212 16.446C23.2212 16.446 22.1785 17.3232 21.6847 17.2543C21.191 17.1853 21.0696 16.4874 21.5303 16.1964C21.9909 15.9054 23.2212 16.446 23.2212 16.446Z" fill="#F7F7F7"/>
</g>
<path d="M22.4309 15.0598C22.4029 15.033 22.3767 15.0044 22.3523 14.9743L22.3164 14.9301V14.8722C22.3164 14.8308 22.355 13.8571 23.635 13.1261C24.9149 12.3951 26.3121 12.9151 26.3714 12.9371L26.5341 12.9992L26.4583 13.1551C26.1597 13.7199 25.7712 14.2323 25.308 14.6722C24.3011 15.6101 23.0074 15.628 22.4309 15.0598ZM22.6378 14.8226L22.6516 14.8364C23.115 15.2929 24.2322 15.2501 25.0942 14.4474C25.4836 14.0744 25.8175 13.6476 26.0859 13.1799C25.6886 13.0737 24.6832 12.8903 23.7908 13.3992C22.8309 13.9468 22.6653 14.6267 22.6378 14.8226Z" fill="#424242"/>
<path d="M22.4766 14.8752C22.4766 14.8752 22.4973 13.958 23.7179 13.2628C24.9385 12.5677 26.3205 13.0849 26.3205 13.0849C26.0311 13.6346 25.6543 14.1335 25.2047 14.5621C24.2599 15.4365 22.9731 15.4834 22.4766 14.8752Z" fill="url(#paint3_linear_5112_20264)"/>
<g style="mix-blend-mode:overlay" opacity="0.49">
<path d="M26.1581 13.1176C26.1581 13.1176 24.5609 12.7701 23.6644 13.519C22.7679 14.2679 23.6162 15.1272 24.3182 14.9231C25.0202 14.7189 26.2657 13.2266 26.1581 13.1176Z" fill="#F7F7F7"/>
</g>
<g style="mix-blend-mode:overlay" opacity="0.49">
<path d="M26.0267 13.2019C26.0267 13.2019 25.1991 14.2819 24.6971 14.3177C24.1951 14.3536 23.933 13.6985 24.3219 13.3164C24.7109 12.9344 26.0267 13.2019 26.0267 13.2019Z" fill="#F7F7F7"/>
</g>
<path d="M24.6725 11.3868C24.6408 11.3772 24.6077 11.3661 24.5773 11.3537L24.5304 11.333L24.507 11.2875C24.4904 11.2558 24.1125 10.4848 24.8008 9.38418C25.489 8.28354 26.7882 8.10562 26.8434 8.09735L26.9951 8.07666V8.22975C27.001 8.79179 26.9143 9.35096 26.7386 9.88484C26.3524 11.0406 25.3621 11.5923 24.6725 11.3868ZM24.7345 11.111H24.7511C25.3028 11.2724 26.1483 10.7689 26.4821 9.79105C26.6293 9.33984 26.7106 8.86972 26.7234 8.39526C26.3703 8.4794 25.5152 8.75524 25.0352 9.5221C24.518 10.351 24.6725 10.9482 24.7332 11.1151L24.7345 11.111Z" fill="#424242"/>
<path d="M24.6278 11.2255C24.6278 11.2255 24.2609 10.5056 24.916 9.45874C25.5712 8.41189 26.8608 8.23535 26.8608 8.23535C26.8652 8.78185 26.7809 9.32544 26.6111 9.84492C26.2456 10.9166 25.2678 11.489 24.6278 11.2255Z" fill="url(#paint4_linear_5112_20264)"/>
<g style="mix-blend-mode:overlay" opacity="0.49">
<path d="M26.7495 8.32764C26.7495 8.32764 25.3702 8.72486 24.984 9.67791C24.5979 10.631 25.6171 10.9454 26.0764 10.4944C26.5357 10.0434 26.8791 8.36763 26.7495 8.32764Z" fill="#F7F7F7"/>
</g>
<g style="mix-blend-mode:overlay" opacity="0.49">
<path d="M26.6852 8.44775C26.6852 8.44775 26.4893 9.63114 26.1183 9.86699C25.7473 10.1028 25.2673 9.70562 25.4108 9.24771C25.5542 8.7898 26.6852 8.44775 26.6852 8.44775Z" fill="#F7F7F7"/>
</g>
<path d="M24.6648 8.02421C24.6317 8.03106 24.598 8.03521 24.5642 8.03662H24.5131L24.4718 8.00628C24.4428 7.98421 23.7628 7.46148 23.8911 6.16913C24.0194 4.87678 25.1048 4.14165 25.1503 4.10993L25.2772 4.02441L25.3503 4.16234C25.6048 4.6651 25.7758 5.20594 25.8565 5.76363C26.0137 6.96219 25.3627 7.90008 24.6648 8.02421ZM24.6 7.75526H24.6166C25.1807 7.65457 25.72 6.82841 25.582 5.80225C25.5131 5.33282 25.377 4.87575 25.1779 4.44508C24.9021 4.67679 24.2552 5.30435 24.1656 6.20361C24.0704 7.16908 24.4704 7.6325 24.6 7.75526Z" fill="#424242"/>
<path d="M24.5546 7.89868C24.5546 7.89868 23.9064 7.41594 24.0291 6.18704C24.1519 4.95814 25.2277 4.22852 25.2277 4.22852C25.4749 4.71658 25.6412 5.24155 25.7201 5.78292C25.8663 6.90286 25.2443 7.85178 24.5546 7.89868Z" fill="url(#paint5_linear_5112_20264)"/>
<g style="mix-blend-mode:overlay" opacity="0.49">
<path d="M25.1699 4.36106C25.1699 4.36106 24.1079 5.32653 24.1879 6.35544C24.2679 7.38435 25.3175 7.20919 25.5285 6.60094C25.7395 5.9927 25.3037 4.33899 25.1699 4.36106Z" fill="#F7F7F7"/>
</g>
<g style="mix-blend-mode:overlay" opacity="0.49">
<path d="M25.1642 4.49756C25.1642 4.49756 25.5145 5.64509 25.2869 6.01472C25.0594 6.38436 24.4594 6.24782 24.3766 5.77474C24.2939 5.30166 25.1642 4.49756 25.1642 4.49756Z" fill="#F7F7F7"/>
</g>
<path d="M13.363 18.4293C8.2888 18.4293 4.16211 14.4088 4.16211 9.46419C4.16211 9.4242 4.16211 9.38557 4.16211 9.34558V9.28075H4.53589L4.16211 9.27248C4.26004 4.83408 7.73848 1.09496 12.2596 0.569472H12.2927C12.4541 0.551542 12.6306 0.536373 12.7989 0.525339H12.8293C13.0155 0.514305 13.1892 0.508789 13.3589 0.508789H13.3768H13.4582H13.4872C13.614 0.508789 13.7396 0.508789 13.8637 0.521202C13.9602 0.521202 14.0554 0.533614 14.1519 0.541889H14.2057C14.2526 0.541889 14.2995 0.548785 14.3437 0.554302C14.4609 0.566715 14.5809 0.581888 14.6995 0.598439L14.7974 0.612232C17.1286 0.955397 19.2392 2.18026 20.6937 4.03413L21.0964 4.61754C21.3802 5.04639 21.6262 5.49911 21.8316 5.97058C22.2863 7.01613 22.5314 8.14079 22.5529 9.28075V9.33868C22.5529 9.38282 22.5529 9.42557 22.5529 9.46971C22.5584 14.4088 18.4317 18.4293 13.363 18.4293ZM5.42136 9.30282C5.42136 9.33316 5.42136 9.36351 5.42136 9.39385C5.42136 9.42419 5.42136 9.44212 5.42136 9.46695C5.42136 13.715 8.98394 17.1714 13.363 17.1714C17.7421 17.1714 21.3047 13.715 21.3047 9.46695C21.3047 9.43799 21.3047 9.40902 21.3047 9.38006V9.3042C21.2854 8.32951 21.0755 7.36803 20.6868 6.474C20.4283 5.88308 20.0965 5.32702 19.6992 4.81891L19.4137 4.45617C18.1681 3.04906 16.4641 2.1289 14.6043 1.85906L14.5202 1.84665C14.4195 1.83148 14.3161 1.81906 14.2099 1.80803L14.1023 1.79838H14.0595C13.9589 1.78872 13.8775 1.78183 13.7947 1.77769C13.6844 1.77769 13.5754 1.76941 13.4665 1.76803H13.3396C13.2099 1.76803 13.0637 1.76803 12.8927 1.78321H12.8637C12.7162 1.79148 12.5644 1.80527 12.4141 1.8232H12.3838C8.50534 2.27284 5.50135 5.48922 5.42136 9.30282Z" fill="#424242"/>
<path d="M13.3978 1.67725C8.98424 1.67725 5.37891 5.17086 5.37891 9.46719C5.37891 13.7635 8.97735 17.2571 13.4006 17.2571C17.8238 17.2571 21.4002 13.7759 21.4209 9.49616V9.47133C21.4246 7.7636 20.8511 6.10473 19.7933 4.76399L19.5175 4.40814C18.7985 3.59533 17.9233 2.93552 16.9439 2.46802C15.9646 2.00051 14.9012 1.73486 13.8171 1.6869H13.795H13.6199H13.3992L13.3978 1.67725Z" fill="url(#paint6_linear_5112_20264)"/>
<path d="M21.9707 9.46715C21.9707 14.0697 18.1337 17.8005 13.4001 17.8005C8.66655 17.8005 4.82812 14.0752 4.82812 9.46715C4.82812 4.85911 8.66655 1.13379 13.4001 1.13379C18.1337 1.13379 21.9707 4.86463 21.9707 9.46715Z" fill="url(#paint7_linear_5112_20264)"/>
<g style="mix-blend-mode:overlay" opacity="0.49">
<path d="M13.4001 1.13379C8.66655 1.13379 4.82813 4.86463 4.82813 9.46715C4.82813 9.56784 4.82812 9.66852 4.8364 9.76783C7.01974 11.6726 10.0265 12.849 13.3436 12.849C16.7213 12.849 19.7736 11.6312 21.9652 9.66715C21.9652 9.59956 21.9652 9.52922 21.9652 9.46715C21.9707 4.86463 18.1337 1.13379 13.4001 1.13379Z" fill="#F7F7F7"/>
</g>
<g style="mix-blend-mode:overlay" opacity="0.49">
<path d="M20.2412 4.4203C19.4215 3.39046 18.3794 2.55954 17.1928 1.98986C16.0062 1.42019 14.7061 1.12653 13.3899 1.13091C12.0736 1.13529 10.7755 1.43759 9.59275 2.01515C8.41001 2.59271 7.37336 3.43054 6.56055 4.46581C8.63671 5.68196 11.001 6.31922 13.4071 6.31121C15.8132 6.30321 18.1732 5.65024 20.2412 4.4203Z" fill="#F7F7F7"/>
</g>
<g style="mix-blend-mode:overlay" opacity="0.49">
<path d="M13.4001 1.60962C18.0509 1.60962 21.8342 5.21358 21.9638 9.70576C21.9638 9.62577 21.9707 9.54715 21.9707 9.46715C21.9707 4.86463 18.1337 1.13379 13.4001 1.13379C8.66655 1.13379 4.82812 4.86463 4.82812 9.46715C4.82812 9.54715 4.82812 9.62577 4.82812 9.70576C4.96467 5.21358 8.74793 1.60962 13.4001 1.60962Z" fill="#F7F7F7"/>
</g>
<path d="M13.4018 17.4486C8.72896 17.4486 4.93191 13.8116 4.83399 9.29044C4.83399 9.34975 4.83399 9.40768 4.83399 9.46699C4.82985 14.075 8.67517 17.799 13.4018 17.799C18.1285 17.799 21.9724 14.0681 21.9724 9.46561C21.9724 9.4063 21.9724 9.34837 21.9724 9.28906C21.8704 13.8116 18.0733 17.4486 13.4018 17.4486Z" fill="#DDDDDD"/>
<path d="M13.399 16.2668C17.261 16.2668 20.3917 13.2225 20.3917 9.46713C20.3917 5.71179 17.261 2.66748 13.399 2.66748C9.53701 2.66748 6.40625 5.71179 6.40625 9.46713C6.40625 13.2225 9.53701 16.2668 13.399 16.2668Z" fill="url(#paint8_linear_5112_20264)"/>
<path d="M13.3995 2.66754C12.4304 2.66362 11.4708 2.85924 10.5805 3.24222C9.69018 3.62519 8.88825 4.18733 8.22461 4.89363C9.52991 3.71773 11.2261 3.06972 12.983 3.07579C16.8449 3.07579 19.9757 6.12115 19.9757 9.87544C19.9751 11.5762 19.3243 13.2125 18.1565 14.449C18.8591 13.8228 19.4218 13.0554 19.8078 12.197C20.1937 11.3386 20.3943 10.4084 20.3964 9.46719C20.3964 5.71152 17.2614 2.66754 13.3995 2.66754Z" fill="url(#paint9_linear_5112_20264)"/>
<g style="mix-blend-mode:multiply" opacity="0.43">
<path d="M9.04474 13.489C9.04474 9.73333 12.1756 6.68934 16.0375 6.68934C17.548 6.68533 19.0203 7.16371 20.24 8.05479C19.5725 4.97771 16.763 2.66748 13.399 2.66748C9.53713 2.66748 6.40625 5.71146 6.40625 9.46713C6.40913 10.5291 6.66347 11.5753 7.14844 12.5201C7.63341 13.4649 8.33523 14.2813 9.19645 14.9027C9.09527 14.4383 9.04441 13.9643 9.04474 13.489Z" fill="#6E6E6E"/>
</g>
<path d="M13.4013 15.8957C9.60563 15.8957 6.52026 12.9552 6.41406 9.29053C6.41406 9.35535 6.41406 9.42018 6.41406 9.48638C6.41406 13.2421 9.54356 16.286 13.4068 16.286C17.2701 16.286 20.3982 13.2476 20.3982 9.48638C20.3982 9.42018 20.3982 9.34846 20.3982 9.29053C20.2809 12.9552 17.1956 15.8957 13.4013 15.8957Z" fill="url(#paint10_linear_5112_20264)"/>
<path d="M12.2488 1.68114C12.6488 1.65079 13.0598 1.80251 12.8598 1.97629C12.6598 2.15008 11.3123 2.92797 10.7234 2.44661C10.1344 1.96526 11.7799 1.717 12.2488 1.68114Z" fill="#F7F7F7"/>
<path d="M7.61234 3.79952C6.36275 4.85051 5.35453 6.79248 5.37936 7.92621C5.40418 9.05995 6.01105 7.28073 6.32414 6.63524C6.63723 5.98976 8.20128 4.02158 9.33501 3.42575C10.4687 2.82992 9.56535 2.15685 7.61234 3.79952Z" fill="#F7F7F7"/>
<path d="M18.9048 17.0553H18.7889H18.731L18.6896 17.0153C18.6592 16.9878 17.9682 16.2995 18.2979 14.8623C18.6275 13.4252 19.953 12.7521 20.0136 12.7231L20.1695 12.6445L20.2316 12.8073C20.4475 13.4101 20.5631 14.0442 20.5736 14.6844C20.5778 16.0526 19.7075 17.0167 18.9048 17.0553ZM18.8689 16.7423H18.8896C19.5392 16.7119 20.2688 15.8582 20.2578 14.683C20.2485 14.1437 20.1612 13.6085 19.9985 13.0942C19.6509 13.3162 18.8358 13.93 18.6055 14.9313C18.3572 16.0057 18.742 16.585 18.8689 16.7423Z" fill="#424242"/>
<path d="M18.7982 16.8983C18.7982 16.8983 18.1376 16.2611 18.4521 14.8942C18.7665 13.5274 20.0851 12.8599 20.0851 12.8599C20.2928 13.4449 20.4046 14.0597 20.4161 14.6805C20.4189 15.9673 19.5817 16.9438 18.7982 16.8983Z" fill="url(#paint11_linear_5112_20264)"/>
<g style="mix-blend-mode:overlay" opacity="0.49">
<path d="M20.0004 12.999C20.0004 12.999 18.6639 13.9397 18.6074 15.1051C18.5508 16.2706 19.7577 16.2306 20.0818 15.5768C20.4059 14.9231 20.1549 12.9949 20.0004 12.999Z" fill="#F7F7F7"/>
</g>
<g style="mix-blend-mode:overlay" opacity="0.49">
<path d="M19.9763 13.1538C19.9763 13.1538 20.2053 14.4972 19.8936 14.8861C19.5819 15.2751 18.9281 15.0241 18.9047 14.4848C18.8812 13.9455 19.9763 13.1538 19.9763 13.1538Z" fill="#F7F7F7"/>
</g>
<path d="M22.3582 14.5634C22.3253 14.5836 22.2912 14.6021 22.2562 14.6185L22.2038 14.6434L22.1486 14.6282C22.1086 14.6185 21.1707 14.3524 20.7693 12.9331C20.368 11.5139 21.1997 10.2836 21.2355 10.2312L21.3321 10.0933L21.47 10.205C21.9514 10.627 22.3593 11.1262 22.6768 11.6821C23.3361 12.8752 23.0465 14.1372 22.3582 14.5634ZM22.1762 14.3055L22.1927 14.2958C22.7444 13.9538 22.9651 12.8559 22.3941 11.8297C22.1247 11.3628 21.7893 10.9373 21.3983 10.5663C21.2011 10.9277 20.7845 11.8601 21.0673 12.8476C21.3721 13.9096 21.9872 14.231 22.1762 14.3055Z" fill="#424242"/>
<path d="M22.1917 14.4764C22.1917 14.4764 21.3049 14.2391 20.9187 12.8902C20.5325 11.5413 21.3642 10.3193 21.3642 10.3193C21.8297 10.7308 22.2252 11.2153 22.5352 11.7537C23.1572 12.8765 22.8993 14.1371 22.1917 14.4764Z" fill="url(#paint12_linear_5112_20264)"/>
<g style="mix-blend-mode:overlay" opacity="0.49">
<path d="M21.3542 10.4891C21.3542 10.4891 20.6384 11.958 21.1528 13.0062C21.6673 14.0544 22.7045 13.4352 22.67 12.7042C22.6355 11.9732 21.4866 10.405 21.3542 10.4891Z" fill="#F7F7F7"/>
</g>
<g style="mix-blend-mode:overlay" opacity="0.49">
<path d="M21.4074 10.627C21.4074 10.627 22.257 11.6917 22.1742 12.1841C22.0915 12.6765 21.3922 12.7799 21.1136 12.311C20.835 11.8421 21.4074 10.627 21.4074 10.627Z" fill="#F7F7F7"/>
</g>
<path d="M24.182 7.97448C24.1685 8.00562 24.1532 8.03601 24.1364 8.06551L24.1116 8.10964L24.0633 8.12757C24.0288 8.13999 23.2192 8.42411 22.2083 7.60898C21.1973 6.79385 21.1752 5.48357 21.1738 5.42702V5.27393L21.3255 5.28772C21.8861 5.34811 22.4328 5.50098 22.9434 5.74011C24.0302 6.26422 24.4619 7.31658 24.182 7.97448ZM23.9199 7.88207C23.9194 7.87657 23.9194 7.87102 23.9199 7.86552C24.1447 7.33865 23.7461 6.438 22.8165 5.98975C22.3859 5.7901 21.9288 5.65353 21.4593 5.58425C21.5007 5.94424 21.6731 6.82557 22.3765 7.39382C23.1406 8.0062 23.7461 7.92207 23.9199 7.88207Z" fill="#424242"/>
<path d="M24.0158 7.998C24.0158 7.998 23.2558 8.27385 22.2945 7.50148C21.3332 6.7291 21.3125 5.43262 21.3125 5.43262C21.856 5.49303 22.386 5.64115 22.8821 5.87121C23.9013 6.35119 24.3537 7.39528 24.0158 7.998Z" fill="url(#paint13_linear_5112_20264)"/>
<g style="mix-blend-mode:overlay" opacity="0.49">
<path d="M21.3887 5.54726C21.3887 5.54726 21.619 6.96649 22.521 7.46026C23.4231 7.95403 23.8548 6.98304 23.4603 6.47411C23.0658 5.96517 21.4452 5.42312 21.3887 5.54726Z" fill="#F7F7F7"/>
</g>
<g style="mix-blend-mode:overlay" opacity="0.49">
<path d="M21.5 5.62598C21.5 5.62598 22.653 5.96113 22.842 6.35835C23.031 6.75557 22.5813 7.1859 22.1427 6.98729C21.7041 6.78868 21.5 5.62598 21.5 5.62598Z" fill="#F7F7F7"/>
</g>
<path d="M23.206 4.59273C23.1924 4.62388 23.1773 4.65427 23.1604 4.68376L23.1356 4.72927L23.0873 4.7472C23.0529 4.75962 22.2433 5.04236 21.2323 4.22861C20.2213 3.41486 20.1992 2.10182 20.1992 2.04665V1.89355L20.3523 1.90597C20.9122 1.9674 21.4583 2.12022 21.9688 2.35836C23.0542 2.88247 23.4859 3.93759 23.206 4.59273ZM22.9439 4.50032C22.9437 4.49526 22.9437 4.4902 22.9439 4.48515C23.1687 3.9569 22.7701 3.05625 21.8405 2.608C21.4099 2.40835 20.9529 2.27178 20.4833 2.20251C20.5247 2.56249 20.6971 3.44382 21.4005 4.01207C22.1646 4.62307 22.7701 4.54169 22.9439 4.50032Z" fill="#424242"/>
<path d="M23.0392 4.61623C23.0392 4.61623 22.2793 4.89208 21.318 4.12108C20.3566 3.35009 20.3359 2.04395 20.3359 2.04395C20.8795 2.10446 21.4096 2.25306 21.9055 2.48392C22.9248 2.97493 23.3772 4.0135 23.0392 4.61623Z" fill="url(#paint14_linear_5112_20264)"/>
<g style="mix-blend-mode:overlay" opacity="0.49">
<path d="M20.4141 2.16542C20.4141 2.16542 20.6444 3.58604 21.5464 4.07981C22.4484 4.57357 22.8801 3.60121 22.4857 3.09227C22.0912 2.58333 20.4706 2.04129 20.4141 2.16542Z" fill="#F7F7F7"/>
</g>
<g style="mix-blend-mode:overlay" opacity="0.49">
<path d="M20.5273 2.24512C20.5273 2.24512 21.679 2.58027 21.868 2.97611C22.0569 3.37195 21.6073 3.80366 21.1687 3.60505C20.7301 3.40644 20.5273 2.24512 20.5273 2.24512Z" fill="#F7F7F7"/>
</g>
<path d="M24.1972 11.4655C24.1765 11.493 24.1558 11.5206 24.1338 11.5455L24.1007 11.5841L24.0496 11.591C24.0138 11.591 23.1628 11.7082 22.3394 10.7055C21.516 9.70279 21.7628 8.4132 21.7725 8.36079L21.8028 8.21045L21.949 8.25458C22.4848 8.42902 22.9885 8.68992 23.44 9.02696C24.3972 9.75933 24.6055 10.8807 24.1972 11.4655ZM23.96 11.3206L23.9696 11.3068C24.2979 10.8365 24.0924 9.87381 23.2717 9.23798C22.8922 8.95551 22.4742 8.72885 22.0304 8.56491C21.9973 8.92627 21.9863 9.82416 22.5601 10.5234C23.1711 11.282 23.7807 11.3262 23.96 11.3165V11.3206Z" fill="#424242"/>
<path d="M24.0308 11.4545C24.0308 11.4545 23.2308 11.5717 22.4474 10.6173C21.664 9.66283 21.9095 8.38428 21.9095 8.38428C22.4293 8.55423 22.9179 8.80764 23.3563 9.13458C24.2597 9.8242 24.4845 10.9331 24.0308 11.4545Z" fill="url(#paint15_linear_5112_20264)"/>
<g style="mix-blend-mode:overlay" opacity="0.49">
<path d="M21.9623 8.51821C21.9623 8.51821 21.8974 9.95538 22.6781 10.6229C23.4587 11.2905 24.0822 10.4285 23.8008 9.84917C23.5194 9.26989 22.0409 8.40925 21.9623 8.51821Z" fill="#F7F7F7"/>
</g>
<g style="mix-blend-mode:overlay" opacity="0.49">
<path d="M22.0519 8.61865C22.0519 8.61865 23.1112 9.18276 23.216 9.60895C23.3208 10.0351 22.7926 10.3634 22.4023 10.082C22.0119 9.80066 22.0519 8.61865 22.0519 8.61865Z" fill="#F7F7F7"/>
</g>
<path d="M4.79464 17.7353C4.24831 17.4032 3.76004 16.9838 3.3492 16.494L3.24023 16.356L3.38643 16.2623C3.44022 16.2278 4.70913 15.4278 6.10079 15.8664C7.49244 16.305 7.74898 17.2456 7.75587 17.2925L7.76966 17.3491L7.74346 17.4015C7.72553 17.4346 7.70622 17.4691 7.68553 17.5008C7.24417 18.178 5.97527 18.4346 4.79464 17.7353ZM6.00562 16.1643C5.02636 15.8568 4.08295 16.2485 3.71745 16.4402C4.07933 16.8413 4.49745 17.1879 4.95877 17.4691C5.96975 18.0663 7.07176 17.8829 7.42899 17.3312L7.44002 17.3146C7.36554 17.1215 7.06074 16.4967 6.00562 16.1643Z" fill="#424242"/>
<path d="M7.60623 17.3285C7.60623 17.3285 7.39245 16.4361 6.05459 16.0141C4.71673 15.592 3.47266 16.392 3.47266 16.392C3.8718 16.8679 4.34552 17.276 4.87534 17.6002C5.98149 18.2539 7.24901 18.0278 7.60623 17.3285Z" fill="url(#paint16_linear_5112_20264)"/>
<g style="mix-blend-mode:overlay" opacity="0.49">
<path d="M3.63397 16.3909C3.63397 16.3909 5.12217 15.7136 6.1566 16.2529C7.19103 16.7922 6.54417 17.8142 5.81593 17.7632C5.08769 17.7122 3.5526 16.5205 3.63397 16.3909Z" fill="#F7F7F7"/>
</g>
<g style="mix-blend-mode:overlay" opacity="0.49">
<path d="M3.78125 16.446C3.78125 16.446 4.82395 17.3232 5.31772 17.2543C5.81148 17.1853 5.93287 16.4874 5.4722 16.1964C5.01153 15.9054 3.78125 16.446 3.78125 16.446Z" fill="#F7F7F7"/>
</g>
<path d="M1.69294 14.6776C1.22973 14.2376 0.841216 13.7252 0.542653 13.1604L0.466797 13.0046L0.629546 12.9425C0.688854 12.9204 2.09844 12.4073 3.36596 13.1314C4.63348 13.8555 4.68314 14.8362 4.68451 14.8776V14.9355L4.64865 14.9796C4.62383 15.01 4.59762 15.0389 4.57142 15.0651C3.99352 15.6279 2.69979 15.6099 1.69294 14.6776ZM3.21011 13.399C2.31774 12.8901 1.31227 13.0735 0.91505 13.1797C1.18339 13.6474 1.51734 14.0743 1.90672 14.4472C2.76875 15.2458 3.88594 15.2927 4.34936 14.8362L4.36315 14.8224C4.33557 14.6265 4.17006 13.9466 3.21011 13.399Z" fill="#424242"/>
<path d="M4.52753 14.8752C4.52753 14.8752 4.50547 13.958 3.28622 13.2628C2.06697 12.5677 0.683594 13.0849 0.683594 13.0849C0.972954 13.6346 1.34982 14.1335 1.7994 14.5621C2.74418 15.4365 4.02963 15.4834 4.52753 14.8752Z" fill="url(#paint17_linear_5112_20264)"/>
<g style="mix-blend-mode:overlay" opacity="0.49">
<path d="M0.84443 13.1176C0.84443 13.1176 2.44159 12.7701 3.3381 13.519C4.2346 14.2679 3.38637 15.1272 2.68434 14.9231C1.98231 14.7189 0.73685 13.2266 0.84443 13.1176Z" fill="#F7F7F7"/>
</g>
<g style="mix-blend-mode:overlay" opacity="0.49">
<path d="M0.974609 13.2019C0.974609 13.2019 1.80216 14.2819 2.3042 14.3177C2.80624 14.3536 3.06829 13.6985 2.67935 13.3164C2.2904 12.9344 0.974609 13.2019 0.974609 13.2019Z" fill="#F7F7F7"/>
</g>
<path d="M1.14475 5.76363C1.22548 5.20594 1.39644 4.6651 1.65094 4.16234L1.72403 4.02441L1.85093 4.10993C1.89782 4.14165 2.98328 4.89058 3.11017 6.16913C3.23706 7.44769 2.55848 7.98421 2.52951 8.00628L2.48814 8.03662H2.43711C2.40326 8.03521 2.36959 8.03106 2.33641 8.02421C1.6399 7.90008 0.987516 6.96219 1.14475 5.76363ZM2.8357 6.20085C2.74605 5.30159 2.10195 4.67404 1.82334 4.44232C1.62425 4.873 1.48816 5.33007 1.41923 5.7995C1.2813 6.82565 1.82058 7.65182 2.38469 7.7525H2.40124C2.53089 7.63251 2.93087 7.16908 2.8357 6.20085Z" fill="#424242"/>
<path d="M2.44673 7.89868C2.44673 7.89868 3.09497 7.41594 2.97222 6.18704C2.84947 4.95814 1.77366 4.22852 1.77366 4.22852C1.52647 4.71658 1.36019 5.24155 1.28128 5.78292C1.13508 6.90286 1.75711 7.85178 2.44673 7.89868Z" fill="url(#paint18_linear_5112_20264)"/>
<g style="mix-blend-mode:overlay" opacity="0.49">
<path d="M1.83136 4.36106C1.83136 4.36106 2.89475 5.32653 2.81338 6.35544C2.732 7.38435 1.68378 7.20919 1.47275 6.60094C1.26173 5.9927 1.69757 4.33899 1.83136 4.36106Z" fill="#F7F7F7"/>
</g>
<g style="mix-blend-mode:overlay" opacity="0.49">
<path d="M1.83711 4.49756C1.83711 4.49756 1.48816 5.64509 1.71573 6.01472C1.94331 6.38436 2.54328 6.24782 2.62466 5.77474C2.70603 5.30166 1.83711 4.49756 1.83711 4.49756Z" fill="#F7F7F7"/>
</g>
<path d="M6.42775 14.6805C6.43831 14.0403 6.55386 13.4062 6.7698 12.8034L6.83187 12.6406L6.98772 12.7192C7.04427 12.7482 8.37524 13.4364 8.70349 14.8584C9.03175 16.2804 8.34213 16.9839 8.31317 17.0114L8.27041 17.0514H8.21249H8.09663C7.29529 17.017 6.42361 16.0529 6.42775 14.6805ZM8.39868 14.9302C8.16835 13.9288 7.35322 13.3151 7.00565 13.093C6.842 13.6072 6.75372 14.1424 6.74359 14.6819C6.74359 15.857 7.46217 16.7108 8.1118 16.7411H8.13249C8.26076 16.5852 8.64418 16.006 8.39868 14.9302Z" fill="#424242"/>
<path d="M8.20185 16.8983C8.20185 16.8983 8.8625 16.2611 8.54804 14.8942C8.23357 13.5274 6.91501 12.8599 6.91501 12.8599C6.7073 13.4449 6.59551 14.0597 6.58399 14.6805C6.58123 15.9673 7.41844 16.9438 8.20185 16.8983Z" fill="url(#paint19_linear_5112_20264)"/>
<g style="mix-blend-mode:overlay" opacity="0.49">
<path d="M7.00088 12.999C7.00088 12.999 8.33736 13.9397 8.39391 15.1051C8.45046 16.2706 7.24363 16.2306 6.91951 15.5768C6.59539 14.9231 6.84641 12.9949 7.00088 12.999Z" fill="#F7F7F7"/>
</g>
<g style="mix-blend-mode:overlay" opacity="0.49">
<path d="M7.02665 13.1538C7.02665 13.1538 6.7977 14.4972 7.10803 14.8861C7.41836 15.2751 8.08177 15.0241 8.0997 14.4848C8.11763 13.9455 7.02665 13.1538 7.02665 13.1538Z" fill="#F7F7F7"/>
</g>
<path d="M4.33193 11.6768C4.64999 11.1212 5.05777 10.6221 5.53876 10.1996L5.67669 10.0879L5.77599 10.2258C5.81047 10.2782 6.64353 11.5251 6.24079 12.9277C5.83805 14.3304 4.89741 14.6132 4.86155 14.6228L4.80639 14.638L4.75398 14.6132C4.71896 14.5967 4.68489 14.5783 4.65191 14.558C3.95402 14.1373 3.66438 12.8753 4.33193 11.6768ZM5.93322 12.8478C6.20907 11.8602 5.7953 10.9278 5.6022 10.5665C5.21116 10.9375 4.87577 11.363 4.6064 11.8299C4.03539 12.856 4.25331 13.9539 4.80776 14.296L4.82432 14.3056C5.01327 14.2311 5.62979 13.9098 5.93322 12.8478Z" fill="#424242"/>
<path d="M4.81248 14.4764C4.81248 14.4764 5.69933 14.2391 6.08551 12.8902C6.4717 11.5413 5.64002 10.3193 5.64002 10.3193C5.17514 10.7311 4.78014 11.2155 4.47043 11.7537C3.84701 12.8765 4.10355 14.1371 4.81248 14.4764Z" fill="url(#paint20_linear_5112_20264)"/>
<g style="mix-blend-mode:overlay" opacity="0.49">
<path d="M5.64671 10.4891C5.64671 10.4891 6.36254 11.958 5.84808 13.0062C5.33362 14.0544 4.29644 13.4352 4.33092 12.7042C4.3654 11.9732 5.5143 10.405 5.64671 10.4891Z" fill="#F7F7F7"/>
</g>
<g style="mix-blend-mode:overlay" opacity="0.49">
<path d="M5.5948 10.627C5.5948 10.627 4.74519 11.6917 4.82794 12.1841C4.9107 12.6765 5.60997 12.7799 5.88858 12.311C6.16718 11.8421 5.5948 10.627 5.5948 10.627Z" fill="#F7F7F7"/>
</g>
<path d="M4.06054 5.74011C4.57113 5.50098 5.11783 5.34811 5.6784 5.28772L5.83011 5.27393V5.42702C5.83011 5.48357 5.79563 6.80626 4.79568 7.60898C3.79573 8.4117 2.97508 8.13999 2.9406 8.12757L2.89233 8.10964L2.8675 8.06551C2.85069 8.03601 2.83549 8.00562 2.82199 7.97448C2.54062 7.31658 2.97232 6.26422 4.06054 5.74011ZM4.62051 7.3952C5.32393 6.82833 5.49633 5.94562 5.53771 5.58564C5.06819 5.65491 4.6111 5.79148 4.18054 5.99113C3.24955 6.43939 2.85095 7.34003 3.07714 7.8669C3.08003 7.87215 3.08234 7.8777 3.08404 7.88345C3.25644 7.92206 3.86193 8.0062 4.62051 7.39382V7.3952Z" fill="#424242"/>
<path d="M2.98562 7.998C2.98562 7.998 3.74558 8.27385 4.70691 7.50148C5.66824 6.7291 5.68893 5.43262 5.68893 5.43262C5.14676 5.4909 4.61763 5.63669 4.12211 5.86432C3.1001 6.35119 2.64771 7.39528 2.98562 7.998Z" fill="url(#paint21_linear_5112_20264)"/>
<g style="mix-blend-mode:overlay" opacity="0.49">
<path d="M5.61266 5.54726C5.61266 5.54726 5.38233 6.96649 4.48031 7.46026C3.57828 7.95403 3.14658 6.98304 3.54105 6.47411C3.93551 5.96517 5.55611 5.42312 5.61266 5.54726Z" fill="#F7F7F7"/>
</g>
<g style="mix-blend-mode:overlay" opacity="0.49">
<path d="M5.50155 5.62598C5.50155 5.62598 4.34851 5.96113 4.15955 6.35835C3.9706 6.75557 4.42023 7.1859 4.85883 6.98729C5.29743 6.78868 5.50155 5.62598 5.50155 5.62598Z" fill="#F7F7F7"/>
</g>
<path d="M5.0364 2.35836C5.54687 2.12022 6.09294 1.9674 6.65287 1.90597L6.80596 1.89355V2.04665C6.80596 2.10182 6.77286 3.42589 5.77291 4.22861C4.77296 5.03132 3.95231 4.75962 3.91783 4.7472L3.86956 4.72927L3.84473 4.68376C3.82791 4.65427 3.81273 4.62388 3.79922 4.59273C3.51648 3.93759 3.94817 2.88247 5.0364 2.35836ZM5.59637 4.01345C6.29978 3.44658 6.47219 2.56387 6.51356 2.20388C6.04404 2.27316 5.58695 2.40973 5.15639 2.60938C4.2254 3.05763 3.8268 3.95828 4.053 4.48653C4.05323 4.49158 4.05323 4.49664 4.053 4.5017C4.2323 4.5417 4.83778 4.62307 5.59637 4.00655V4.01345Z" fill="#424242"/>
<path d="M3.96026 4.61623C3.96026 4.61623 4.72022 4.89208 5.68017 4.12108C6.64012 3.35009 6.66357 2.04395 6.66357 2.04395C6.11965 2.10621 5.58951 2.25668 5.09399 2.48944C4.07473 2.97493 3.62235 4.0135 3.96026 4.61623Z" fill="url(#paint22_linear_5112_20264)"/>
<g style="mix-blend-mode:overlay" opacity="0.49">
<path d="M6.58728 2.16542C6.58728 2.16542 6.35694 3.58604 5.45492 4.07981C4.55289 4.57357 4.12119 3.60121 4.51566 3.09227C4.91012 2.58333 6.53073 2.04129 6.58728 2.16542Z" fill="#F7F7F7"/>
</g>
<g style="mix-blend-mode:overlay" opacity="0.49">
<path d="M6.47478 2.24512C6.47478 2.24512 5.32312 2.58027 5.13416 2.97611C4.94521 3.37195 5.39484 3.80366 5.83344 3.60505C6.27204 3.40644 6.47478 2.24512 6.47478 2.24512Z" fill="#F7F7F7"/>
</g>
<path d="M3.56148 9.02403C4.01302 8.687 4.51666 8.42609 5.05244 8.25166L5.20002 8.20752L5.22898 8.35786C5.23864 8.41303 5.47586 9.71089 4.66211 10.7026C3.84836 11.6942 2.98772 11.5922 2.95186 11.5922L2.90083 11.5853L2.86773 11.5467C2.84553 11.5212 2.8248 11.4945 2.80566 11.4667C2.3974 10.8805 2.60567 9.75917 3.56148 9.02403ZM4.44695 10.5288C5.02071 9.82951 5.00968 8.93162 4.97658 8.57026C4.53279 8.7342 4.11478 8.96086 3.73527 9.24333C2.916 9.87364 2.70911 10.8364 3.03737 11.3122C3.04104 11.3165 3.04428 11.3211 3.04703 11.326C3.22081 11.326 3.83043 11.2818 4.44695 10.5288Z" fill="#424242"/>
<path d="M2.97141 11.4545C2.97141 11.4545 3.77137 11.5717 4.55478 10.6173C5.33818 9.66283 5.09268 8.38428 5.09268 8.38428C4.57289 8.55423 4.08423 8.80764 3.64585 9.13458C2.74383 9.8242 2.51764 10.9331 2.97141 11.4545Z" fill="url(#paint23_linear_5112_20264)"/>
<g style="mix-blend-mode:overlay" opacity="0.49">
<path d="M5.04108 8.51821C5.04108 8.51821 5.10591 9.95538 4.32388 10.6229C3.54185 11.2905 2.92119 10.4285 3.20117 9.84917C3.48116 9.26989 4.96108 8.40925 5.04108 8.51821Z" fill="#F7F7F7"/>
</g>
<g style="mix-blend-mode:overlay" opacity="0.49">
<path d="M4.94903 8.61865C4.94903 8.61865 3.88977 9.18276 3.78495 9.60895C3.68012 10.0351 4.20976 10.3634 4.5987 10.082C4.98765 9.80066 4.94903 8.61865 4.94903 8.61865Z" fill="#F7F7F7"/>
</g>
<path d="M13.1305 11.7153L14.0601 10.9402C15.3579 9.77886 16.2227 8.75271 16.2227 7.51553C16.2227 6.0825 15.2104 5.19289 13.5801 5.19289C12.8211 5.19068 12.0734 5.37642 11.4036 5.73355L11.223 5.83286L11.4988 6.53489L11.7305 6.41352C12.1707 6.17102 12.6638 6.0403 13.1663 6.03285C14.2863 6.03285 14.9814 6.6673 14.9814 7.68794V7.70035C14.9483 8.94166 13.787 10.0713 12.016 11.6546L11.0312 12.5456V13.2049H16.3799V12.3249H13.1222L13.1305 11.7153ZM15.4586 7.70173V7.68242C15.4586 6.6935 14.9069 5.95699 14.0118 5.67976C15.129 5.80803 15.7593 6.45903 15.7593 7.51001C15.7593 8.35962 15.2462 9.12924 14.4242 9.95403C15.0628 9.19682 15.4379 8.48514 15.4586 7.70173ZM12.6601 12.7277H11.5292L12.3388 11.9953L12.6601 11.7057V12.7277Z" fill="#424242"/>
<path d="M17.4813 7.50985C17.4813 5.37203 15.9173 3.93624 13.5878 3.93624C12.3858 3.92594 11.2118 4.29891 10.2362 5.00102L9.71484 5.3941L10.9451 8.51256L11.8499 7.82294C12.3189 7.46434 12.7657 7.28228 13.1754 7.28228C13.7271 7.28228 13.7381 7.49744 13.7381 7.6726C13.7119 8.34016 12.8223 9.25735 11.1893 10.718L9.78795 11.9855V14.4516H17.6386V11.0655H15.7421C16.6235 10.1608 17.4813 8.98426 17.4813 7.50985ZM17.171 11.5345V13.9785H10.2569V12.1855L11.4982 11.0586C13.3078 9.44079 14.1753 8.52084 14.2029 7.67674V7.66709C14.2029 7.10298 13.8415 6.80368 13.1698 6.80368C12.654 6.80368 12.112 7.01885 11.5589 7.44227L11.1451 7.75674L10.2734 5.54996L10.5107 5.37066C11.4051 4.73105 12.48 4.39289 13.5795 4.40519C15.6276 4.40519 17.0041 5.6465 17.0041 7.50985C17.0041 9.03667 15.9352 10.2463 15.0029 11.129L14.5767 11.5345H17.171Z" fill="#424242"/>
<path d="M17.3638 14.2129H9.97795V12.0861L11.3006 10.8889C13.0219 9.34968 13.9019 8.42835 13.9281 7.67391C13.9281 7.37875 13.8302 7.04497 13.1309 7.04497C12.6675 7.04497 12.1737 7.2422 11.662 7.63391L11.0041 8.13733L9.95312 5.47402L10.3324 5.18714C11.2677 4.51613 12.3922 4.16012 13.5433 4.17064C15.7308 4.17064 17.201 5.51264 17.201 7.50978C17.201 9.02694 16.2521 10.2338 15.1322 11.2999H17.3638V14.2129ZM11.2317 12.9605H16.1128V12.5468H12.8537V11.6061L13.8674 10.7593C15.1198 9.6407 15.9528 8.65868 15.9528 7.50978C15.9528 6.20226 15.0522 5.42161 13.546 5.42161C12.8249 5.41965 12.1143 5.5954 11.4772 5.93331L11.582 6.1995C12.0562 5.93905 12.5872 5.79932 13.1281 5.79262C14.3694 5.79262 15.1763 6.53465 15.1763 7.68218V7.69873C15.1418 9.03383 13.9488 10.1965 12.1351 11.8199L11.2262 12.6474L11.2317 12.9605Z" fill="url(#paint24_linear_5112_20264)"/>
<g style="mix-blend-mode:overlay" opacity="0.49">
<path d="M13.666 4.1709C12.6737 4.17376 11.6966 4.4145 10.8165 4.87293L9.95312 5.47428L10.7089 5.68668C10.7089 5.68668 11.9696 4.85914 13.2219 4.8219C14.4743 4.78466 16.1004 5.72254 16.1004 5.72254L16.6838 5.4729C16.15 4.72811 15.157 4.1709 13.666 4.1709Z" fill="#F7F7F7"/>
</g>
<path d="M10.6055 13.5883V12.3649L11.7226 11.3539C13.6122 9.66437 14.5294 8.69339 14.5556 7.68241C14.5556 6.97762 14.1308 6.41902 13.1336 6.41902C12.3888 6.41902 11.7364 6.79142 11.2841 7.13761L10.7117 5.68665C11.5384 5.09727 12.5308 4.78531 13.546 4.79566C15.5004 4.79566 16.5803 5.94043 16.5803 7.51C16.5803 8.95958 15.5294 10.1168 14.2784 11.234L13.4798 11.8987V11.925H16.7389V13.5883H10.6055Z" fill="url(#paint25_linear_5112_20264)"/>
<path d="M16.5738 7.6021C16.5738 7.569 16.5738 7.5359 16.5738 7.5028C16.5738 5.93322 15.4952 4.78983 13.5394 4.78983C12.5241 4.77882 11.5315 5.09084 10.7051 5.68082L10.7685 5.83944C11.583 5.27878 12.5507 4.98305 13.5394 4.99258C15.4552 4.99258 16.5269 6.08632 16.5738 7.6021Z" fill="#F7F7F7"/>
<path d="M13.4746 12.096V12.1222H16.7338V11.9194H13.687L13.4746 12.096Z" fill="#F7F7F7"/>
<path d="M14.5515 7.87935C14.5515 7.83936 14.5515 7.79936 14.5515 7.76074C14.477 8.74138 13.5584 9.70547 11.7226 11.3468L10.6055 12.3577V12.5577L11.7226 11.5468C13.6081 9.86133 14.5253 8.89034 14.5515 7.87935Z" fill="#F7F7F7"/>
<path opacity="0.46" d="M11.3391 7.1788L11.0039 8.14427C11.0039 8.14427 12.3183 7.1195 13.1486 7.1788C13.9789 7.23811 13.87 7.51258 13.87 7.51258L14.4479 7.12915C14.4479 7.12915 14.0865 6.3485 13.0217 6.42298C12.3888 6.46667 11.7921 6.73467 11.3391 7.1788Z" fill="#424242"/>
<path opacity="0.46" d="M10.6027 13.5884L9.97656 14.2146H17.361L16.7348 13.5884H10.6027Z" fill="#424242"/>
<g style="mix-blend-mode:overlay" opacity="0.49">
<path d="M17.3599 11.2998L16.7338 11.9191L13.4746 11.9246L15.1256 11.2998H17.3599Z" fill="#F7F7F7"/>
</g>
<g style="mix-blend-mode:overlay" opacity="0.49">
<path d="M9.97656 12.0861L10.6014 12.362C10.6014 12.362 13.2812 9.99108 13.7143 9.4118L14.1474 8.83252H13.3791C13.3791 8.83252 11.6289 10.6931 9.97656 12.0861Z" fill="#F7F7F7"/>
</g>
<g style="mix-blend-mode:overlay" opacity="0.49">
<path d="M13.5458 4.79566C12.531 4.78532 11.5391 5.09729 10.7129 5.68665L11.2853 7.13761C11.7377 6.79142 12.3887 6.41902 13.1335 6.41902C14.132 6.41902 14.5568 6.97762 14.5568 7.68241C14.5568 8.3872 14.0672 9.10165 13.1155 10.0547C13.1845 10.0547 13.2534 10.0547 13.3224 10.0547C14.7844 10.0547 16.0395 8.9982 16.5788 7.48931C16.5719 5.93767 15.4961 4.79566 13.5458 4.79566Z" fill="#F7F7F7"/>
</g>
<path d="M0.260724 9.89022C0.0849641 9.35634 -0.00170561 8.79716 0.00418778 8.23513V8.08203L0.155901 8.10272C0.21107 8.111 1.51721 8.29995 2.19855 9.38955C2.8799 10.4792 2.50888 11.2612 2.49233 11.2929L2.46889 11.3384L2.42199 11.3591C2.39165 11.3715 2.35855 11.3826 2.32682 11.3922C1.63996 11.5922 0.648291 11.0405 0.260724 9.89022ZM1.9696 9.53161C1.48963 8.76476 0.634502 8.48891 0.281416 8.40478C0.293495 8.87864 0.373856 9.34827 0.520022 9.79919C0.853798 10.7771 1.70065 11.2805 2.25097 11.1191H2.26752C2.32958 10.9481 2.48268 10.3509 1.96684 9.53161H1.9696Z" fill="#424242"/>
<path d="M2.37183 11.2255C2.37183 11.2255 2.7387 10.5056 2.08356 9.45874C1.42842 8.41189 0.138837 8.23535 0.138837 8.23535C0.134422 8.78185 0.218731 9.32544 0.388479 9.84492C0.753977 10.9166 1.73186 11.489 2.37183 11.2255Z" fill="url(#paint26_linear_5112_20264)"/>
<g style="mix-blend-mode:overlay" opacity="0.49">
<path d="M0.251818 8.32764C0.251818 8.32764 1.63106 8.72486 2.01724 9.67791C2.40343 10.631 1.38417 10.9454 0.924888 10.4944C0.465601 10.0434 0.123549 8.36763 0.251818 8.32764Z" fill="#F7F7F7"/>
</g>
<g style="mix-blend-mode:overlay" opacity="0.49">
<path d="M0.316406 8.44775C0.316406 8.44775 0.512256 9.63114 0.883272 9.86699C1.25429 10.1028 1.73288 9.70562 1.59082 9.24771C1.44876 8.7898 0.316406 8.44775 0.316406 8.44775Z" fill="#F7F7F7"/>
</g>
</g>
<defs>
<linearGradient id="paint0_linear_5112_20264" x1="5.06267" y1="6.2642" x2="6.0151" y2="16.1414" gradientUnits="userSpaceOnUse">
<stop stop-color="#CECEDB"/>
<stop offset="1" stop-color="#6C6C79"/>
</linearGradient>
<linearGradient id="paint1_linear_5112_20264" x1="21.1642" y1="7.12688" x2="20.1984" y2="16.9901" gradientUnits="userSpaceOnUse">
<stop stop-color="#CECEDB"/>
<stop offset="1" stop-color="#6C6C79"/>
</linearGradient>
<linearGradient id="paint2_linear_5112_20264" x1="22.5493" y1="15.8497" x2="20.2946" y2="17.7642" gradientUnits="userSpaceOnUse">
<stop stop-color="#CECEDB"/>
<stop offset="1" stop-color="#6C6C79"/>
</linearGradient>
<linearGradient id="paint3_linear_5112_20264" x1="25.7304" y1="11.7934" x2="23.9364" y2="14.1341" gradientUnits="userSpaceOnUse">
<stop stop-color="#CECEDB"/>
<stop offset="1" stop-color="#6C6C79"/>
</linearGradient>
<linearGradient id="paint4_linear_5112_20264" x1="25.8787" y1="8.43327" x2="25.4648" y2="11.0051" gradientUnits="userSpaceOnUse">
<stop stop-color="#CECEDB"/>
<stop offset="1" stop-color="#6C6C79"/>
</linearGradient>
<linearGradient id="paint5_linear_5112_20264" x1="24.4456" y1="4.83338" x2="25.2162" y2="7.32172" gradientUnits="userSpaceOnUse">
<stop stop-color="#CECEDB"/>
<stop offset="1" stop-color="#6C6C79"/>
</linearGradient>
<linearGradient id="paint6_linear_5112_20264" x1="5.37891" y1="9.46719" x2="21.4209" y2="9.46719" gradientUnits="userSpaceOnUse">
<stop stop-color="#C3C3D0"/>
<stop offset="1" stop-color="#545461"/>
</linearGradient>
<linearGradient id="paint7_linear_5112_20264" x1="13.4001" y1="0.379345" x2="13.4001" y2="16.0654" gradientUnits="userSpaceOnUse">
<stop stop-color="#CECEDB"/>
<stop offset="1" stop-color="#6C6C79"/>
</linearGradient>
<linearGradient id="paint8_linear_5112_20264" x1="13.399" y1="4.746" x2="13.399" y2="17.6391" gradientUnits="userSpaceOnUse">
<stop stop-color="#C3C3D0"/>
<stop offset="1" stop-color="#545461"/>
</linearGradient>
<linearGradient id="paint9_linear_5112_20264" x1="8.22461" y1="8.55827" x2="20.3923" y2="8.55827" gradientUnits="userSpaceOnUse">
<stop stop-color="#C3C3D0"/>
<stop offset="1" stop-color="#545461"/>
</linearGradient>
<linearGradient id="paint10_linear_5112_20264" x1="6.40855" y1="12.7883" x2="20.394" y2="12.7883" gradientUnits="userSpaceOnUse">
<stop stop-color="#CECEDB"/>
<stop offset="1" stop-color="#6C6C79"/>
</linearGradient>
<linearGradient id="paint11_linear_5112_20264" x1="19.1122" y1="13.4535" x2="19.6206" y2="16.3687" gradientUnits="userSpaceOnUse">
<stop stop-color="#CECEDB"/>
<stop offset="1" stop-color="#6C6C79"/>
</linearGradient>
<linearGradient id="paint12_linear_5112_20264" x1="20.2269" y1="10.0166" x2="22.0943" y2="12.3169" gradientUnits="userSpaceOnUse">
<stop stop-color="#CECEDB"/>
<stop offset="1" stop-color="#6C6C79"/>
</linearGradient>
<linearGradient id="paint13_linear_5112_20264" x1="19.7902" y1="6.51398" x2="22.2945" y2="7.22382" gradientUnits="userSpaceOnUse">
<stop stop-color="#CECEDB"/>
<stop offset="1" stop-color="#6C6C79"/>
</linearGradient>
<linearGradient id="paint14_linear_5112_20264" x1="18.8042" y1="3.13731" x2="21.308" y2="3.84842" gradientUnits="userSpaceOnUse">
<stop stop-color="#CECEDB"/>
<stop offset="1" stop-color="#6C6C79"/>
</linearGradient>
<linearGradient id="paint15_linear_5112_20264" x1="21.8105" y1="9.39568" x2="24.1153" y2="10.6095" gradientUnits="userSpaceOnUse">
<stop stop-color="#CECEDB"/>
<stop offset="1" stop-color="#6C6C79"/>
</linearGradient>
<linearGradient id="paint16_linear_5112_20264" x1="4.06689" y1="17.0353" x2="6.33168" y2="18.9585" gradientUnits="userSpaceOnUse">
<stop stop-color="#CECEDB"/>
<stop offset="1" stop-color="#6C6C79"/>
</linearGradient>
<linearGradient id="paint17_linear_5112_20264" x1="2.52493" y1="11.9966" x2="4.31895" y2="14.3392" gradientUnits="userSpaceOnUse">
<stop stop-color="#CECEDB"/>
<stop offset="1" stop-color="#6C6C79"/>
</linearGradient>
<linearGradient id="paint18_linear_5112_20264" x1="5.62925" y1="7.23738" x2="4.87356" y2="9.71552" gradientUnits="userSpaceOnUse">
<stop stop-color="#CECEDB"/>
<stop offset="1" stop-color="#6C6C79"/>
</linearGradient>
<linearGradient id="paint19_linear_5112_20264" x1="7.10445" y1="12.6034" x2="6.59075" y2="15.5215" gradientUnits="userSpaceOnUse">
<stop stop-color="#CECEDB"/>
<stop offset="1" stop-color="#6C6C79"/>
</linearGradient>
<linearGradient id="paint20_linear_5112_20264" x1="6.05712" y1="8.27874" x2="4.18897" y2="10.5802" gradientUnits="userSpaceOnUse">
<stop stop-color="#CECEDB"/>
<stop offset="1" stop-color="#6C6C79"/>
</linearGradient>
<linearGradient id="paint21_linear_5112_20264" x1="7.54356" y1="5.29537" x2="5.03924" y2="6.00521" gradientUnits="userSpaceOnUse">
<stop stop-color="#CECEDB"/>
<stop offset="1" stop-color="#6C6C79"/>
</linearGradient>
<linearGradient id="paint22_linear_5112_20264" x1="8.52765" y1="1.9187" x2="6.02386" y2="2.6298" gradientUnits="userSpaceOnUse">
<stop stop-color="#CECEDB"/>
<stop offset="1" stop-color="#6C6C79"/>
</linearGradient>
<linearGradient id="paint23_linear_5112_20264" x1="6.91989" y1="8.78679" x2="4.61647" y2="9.99542" gradientUnits="userSpaceOnUse">
<stop stop-color="#CECEDB"/>
<stop offset="1" stop-color="#6C6C79"/>
</linearGradient>
<linearGradient id="paint24_linear_5112_20264" x1="13.6564" y1="14.7025" x2="13.6564" y2="1.55836" gradientUnits="userSpaceOnUse">
<stop stop-color="#CECEDB"/>
<stop offset="1" stop-color="#6C6C79"/>
</linearGradient>
<linearGradient id="paint25_linear_5112_20264" x1="13.6688" y1="5.21219" x2="13.6688" y2="14.8779" gradientUnits="userSpaceOnUse">
<stop stop-color="#CECEDB"/>
<stop offset="1" stop-color="#6C6C79"/>
</linearGradient>
<linearGradient id="paint26_linear_5112_20264" x1="1.05007" y1="8.20192" x2="1.46263" y2="10.774" gradientUnits="userSpaceOnUse">
<stop stop-color="#CECEDB"/>
<stop offset="1" stop-color="#6C6C79"/>
</linearGradient>
<clipPath id="clip0_5112_20264">
<rect width="27" height="18.4294" fill="white"/>
</clipPath>
</defs>
</svg>
