<svg width="27" height="19" viewBox="0 0 27 19" fill="none" xmlns="http://www.w3.org/2000/svg">
<g clip-path="url(#clip0_5112_20141)">
<path d="M2.28052 10.3282C2.35345 11.1197 2.55663 11.8938 2.88187 12.6191C3.20641 13.3425 3.6338 14.0152 4.15077 14.6163C4.66264 15.2154 5.24261 15.7528 5.87895 16.2176C6.19712 16.4492 6.52771 16.6633 6.86925 16.8589C7.2164 17.0604 7.58053 17.2312 7.95747 17.3692C8.06236 17.4059 8.16976 17.4349 8.27883 17.4561L8.55468 17.5085L9.10638 17.623C9.48705 17.703 9.86634 17.7885 10.2194 17.8685L10.5256 17.9375L10.7256 17.0713L10.4194 17.001C10.0663 16.921 9.69945 16.841 9.32981 16.7637C9.14775 16.7251 8.96431 16.6879 8.77812 16.652L8.50227 16.5996L8.45262 16.5913L8.37952 16.5762C8.34917 16.5762 8.31469 16.5596 8.26918 16.5444C8.10578 16.4901 7.94594 16.4256 7.79059 16.3513C7.63611 16.2796 7.47749 16.1982 7.3175 16.11C7.00483 15.9348 6.70188 15.7428 6.40997 15.5348C5.82572 15.1178 5.29082 14.6356 4.81556 14.0977C4.34189 13.5632 3.94498 12.9653 3.63631 12.3212C3.33112 11.6772 3.13313 10.9877 3.05013 10.2799C2.95924 9.56582 2.96296 8.84284 3.06117 8.12969C3.15741 7.41446 3.35865 6.71733 3.65838 6.06084C3.80911 5.73275 3.9843 5.41647 4.18249 5.11468C4.37322 4.81765 4.59315 4.54043 4.83901 4.28713L4.97693 4.19748L4.58523 3.73682L4.45972 3.84853C4.31241 3.98068 4.17417 4.12261 4.04595 4.27334C3.91768 4.4223 3.79492 4.57953 3.68182 4.73814C3.45406 5.05698 3.25161 5.39316 3.07634 5.74361C2.72505 6.44806 2.47966 7.20049 2.3481 7.9766C2.22137 8.754 2.19865 9.54481 2.28052 10.3282ZM2.66671 8.03177C2.79261 7.2867 3.02827 6.5644 3.36598 5.88843C3.53431 5.55209 3.72844 5.2293 3.94664 4.92296C3.95629 4.90779 3.96733 4.894 3.97836 4.87883L3.93147 4.94779C3.31124 5.89328 2.91152 6.96612 2.76187 8.08694C2.65904 8.82456 2.65302 9.57246 2.74394 10.3117C2.8309 11.0531 3.0387 11.7752 3.35909 12.4495C3.68062 13.125 4.09571 13.7518 4.59213 14.3114C5.08244 14.868 5.635 15.3664 6.23894 15.7969C6.54011 16.0126 6.85324 16.211 7.17682 16.3913C7.34371 16.4838 7.50921 16.5693 7.67058 16.6437C7.8377 16.7235 8.00951 16.793 8.18505 16.852C8.23884 16.8686 8.28159 16.881 8.32297 16.8892L8.41124 16.9072L8.45675 16.9155L8.7326 16.9679L9.27602 17.0782C9.64428 17.1554 10.0084 17.2341 10.3587 17.3141L10.3008 17.5692C9.94633 17.4878 9.56566 17.4023 9.18223 17.3223C8.98362 17.2796 8.7988 17.2423 8.62088 17.2079L8.34503 17.1541C8.25135 17.1355 8.15916 17.1102 8.06919 17.0782C7.7108 16.9465 7.36467 16.7836 7.03476 16.5913C6.70128 16.4032 6.37892 16.1959 6.06929 15.9707C5.4525 15.5206 4.89054 14.9998 4.39489 14.419C3.8974 13.8411 3.48583 13.1945 3.17288 12.4991C2.86198 11.8047 2.66766 11.0638 2.59774 10.3061C2.5194 9.54832 2.54259 8.78344 2.66671 8.03177Z" fill="#D42900"/>
<path d="M2.5123 8.00513C2.64199 7.24446 2.8827 6.50697 3.22674 5.81627C3.39871 5.47319 3.59699 5.14395 3.81982 4.83149C3.93016 4.67564 4.04877 4.52392 4.17428 4.3791C4.29864 4.23279 4.43225 4.09458 4.57427 3.96533L4.74391 4.16532L4.70115 4.20532L4.74529 4.16394C4.48713 4.42896 4.25611 4.71913 4.05567 5.03011C3.85368 5.33802 3.67525 5.66077 3.5219 5.99557C3.21844 6.66508 3.01535 7.37568 2.91918 8.10443C2.81967 8.83088 2.81595 9.56725 2.90814 10.2947C2.99336 11.0196 3.19601 11.7258 3.50812 12.3856C3.82326 13.0424 4.22801 13.6523 4.71081 14.1979C5.4383 15.0167 6.29801 15.7076 7.25413 16.2419C7.41274 16.3302 7.57411 16.4144 7.73824 16.4902C7.89968 16.5666 8.06548 16.6333 8.23477 16.6902C8.27498 16.7041 8.31597 16.7156 8.35752 16.7247C8.392 16.733 8.44027 16.7412 8.48579 16.7495L8.76164 16.8019L9.30644 16.9123C9.67056 16.9881 10.0319 17.0681 10.3947 17.1509L10.5464 17.1853L10.5105 17.3384L10.4526 17.5936L10.4167 17.7453L10.265 17.7108C9.89262 17.6267 9.5216 17.5426 9.1492 17.4653C8.963 17.4253 8.77543 17.3867 8.58923 17.3495L8.31338 17.2957C8.21262 17.2767 8.11348 17.25 8.01684 17.2157C7.6488 17.0815 7.29341 16.9148 6.95483 16.7178C6.6185 16.5252 6.29297 16.3143 5.97971 16.0861C5.35297 15.6286 4.78178 15.0995 4.27773 14.5096C3.77223 13.9196 3.35418 13.2601 3.03641 12.5511C2.71593 11.8422 2.51373 11.0855 2.43782 10.3112C2.36128 9.54258 2.38632 8.76722 2.5123 8.00513Z" fill="url(#paint0_linear_5112_20141)"/>
<path d="M24.647 7.97904C24.5155 7.20293 24.2701 6.4505 23.9188 5.74605C23.7435 5.3956 23.5411 5.05942 23.3133 4.74059C23.2002 4.58197 23.0774 4.42474 22.9492 4.27578C22.821 4.12505 22.6827 3.98312 22.5354 3.85098L22.4099 3.73926L22.0182 4.19992L22.1561 4.28957C22.402 4.54287 22.6219 4.82009 22.8126 5.11712C23.0108 5.41891 23.186 5.73519 23.3368 6.06328C23.6365 6.71977 23.8377 7.4169 23.934 8.13214C24.0322 8.84528 24.0359 9.56826 23.945 10.2824C23.862 10.9902 23.664 11.6797 23.3588 12.3236C23.0501 12.9677 22.6532 13.5656 22.1796 14.1001C21.7043 14.6381 21.1694 15.1202 20.5852 15.5373C20.2932 15.7452 19.9903 15.9372 19.6776 16.1124C19.5176 16.2007 19.359 16.2821 19.2045 16.3538C19.0492 16.428 18.8893 16.4925 18.7259 16.5469C18.6804 16.5621 18.6459 16.5717 18.6156 16.5786L18.5425 16.5938L18.4929 16.602L18.217 16.6545C18.035 16.6903 17.8515 16.7276 17.6653 16.7662C17.2957 16.8434 16.9288 16.9234 16.5757 17.0034L16.2695 17.0737L16.4695 17.9399L16.7757 17.8709C17.1288 17.791 17.5081 17.7054 17.8888 17.6254L18.4405 17.511L18.7163 17.4586C18.8254 17.4374 18.9328 17.4083 19.0377 17.3717C19.4146 17.2336 19.7787 17.0629 20.1259 16.8613C20.4674 16.6658 20.798 16.4517 21.1162 16.22C21.7525 15.7552 22.3325 15.2178 22.8444 14.6187C23.3613 14.0173 23.7891 13.3447 24.1146 12.6216C24.4394 11.8962 24.6422 11.1221 24.7146 10.3306C24.7965 9.54725 24.7738 8.75644 24.647 7.97904ZM24.4098 10.2989C24.3399 11.0566 24.1456 11.7975 23.8347 12.4919C23.5217 13.1873 23.1101 13.8339 22.6127 14.4118C22.1172 14.9936 21.5552 15.5153 20.9383 15.9662C20.6286 16.1915 20.3063 16.3987 19.9728 16.5869C19.6429 16.7791 19.2967 16.942 18.9384 17.0737C18.8484 17.1057 18.7562 17.1311 18.6625 17.1496L18.3867 17.2034C18.2087 17.2379 18.0253 17.2751 17.8253 17.3179C17.4419 17.3979 17.0612 17.4834 16.7067 17.5648L16.6488 17.3096C16.9991 17.2296 17.3646 17.151 17.7315 17.0737L18.2749 16.9634L18.5508 16.911L18.5963 16.9027L18.6846 16.8848C18.7232 16.8765 18.7659 16.8641 18.8225 16.8476C18.9979 16.7883 19.1697 16.7188 19.337 16.6393C19.4983 16.5648 19.6652 16.4793 19.8307 16.3869C20.1543 16.2066 20.4674 16.0081 20.7686 15.7924C21.3709 15.3629 21.922 14.8659 22.4113 14.3111C22.9048 13.7549 23.318 13.1324 23.6388 12.4616C23.9629 11.7839 24.173 11.0574 24.2608 10.3113C24.3533 9.57053 24.3492 8.82084 24.2484 8.08111C24.1468 7.33687 23.9367 6.61152 23.625 5.92811C23.4662 5.58596 23.2818 5.2563 23.0733 4.94196L23.0264 4.87299C23.0375 4.88816 23.0485 4.90196 23.0581 4.91713C23.2763 5.22347 23.4705 5.54626 23.6388 5.8826C23.9765 6.55857 24.2122 7.28086 24.3381 8.02593C24.463 8.77703 24.4871 9.54144 24.4098 10.2989Z" fill="#D42900"/>
<path d="M24.4921 8.00513C24.3625 7.24446 24.1217 6.50697 23.7777 5.81627C23.6057 5.47319 23.4074 5.14395 23.1846 4.83149C23.0743 4.67564 22.9557 4.52392 22.8302 4.3791C22.7058 4.23279 22.5722 4.09458 22.4302 3.96533L22.2605 4.16532L22.3033 4.20532L22.2591 4.16394C22.5182 4.42817 22.7493 4.71843 22.9488 5.03011C23.1517 5.33768 23.3306 5.66046 23.4839 5.99557C23.7901 6.6642 23.996 7.37434 24.0949 8.10305C24.1944 8.8295 24.1981 9.56587 24.106 10.2933C24.0207 11.0182 23.8181 11.7244 23.506 12.3842C23.1913 13.0413 22.7865 13.6513 22.3033 14.1965C21.573 15.0167 20.71 15.7081 19.7503 16.2419C19.5917 16.3302 19.4303 16.4144 19.2662 16.4902C19.1048 16.5666 18.939 16.6333 18.7697 16.6902C18.7294 16.7041 18.6885 16.7156 18.6469 16.7247C18.6124 16.733 18.5642 16.7412 18.5187 16.7495L18.2428 16.8019L17.6911 16.9123C17.327 16.9881 16.9656 17.0681 16.6029 17.1509L16.4512 17.1853L16.487 17.3384L16.545 17.5936L16.5808 17.7453L16.7325 17.7108C17.1049 17.6267 17.4759 17.5426 17.8483 17.4653L18.4083 17.3495L18.6842 17.2957C18.7849 17.2767 18.8841 17.25 18.9807 17.2157C19.3487 17.0815 19.7041 16.9148 20.0427 16.7178C20.3791 16.5252 20.7046 16.3143 21.0178 16.0861C21.6446 15.6286 22.2158 15.0995 22.7198 14.5096C23.2253 13.9196 23.6434 13.2601 23.9611 12.5511C24.2786 11.8407 24.4775 11.0831 24.5501 10.3085C24.6318 9.54146 24.6124 8.76704 24.4921 8.00513Z" fill="url(#paint1_linear_5112_20141)"/>
<path d="M19.3146 17.4999C19.2935 17.4668 19.2741 17.4337 19.2567 17.4006L19.2305 17.3482L19.2443 17.2917C19.2539 17.2517 19.4967 16.3069 20.8993 15.8641C22.302 15.4214 23.5599 16.2255 23.6137 16.26L23.7599 16.3538L23.6523 16.4917C23.2405 16.9812 22.7519 17.4004 22.2055 17.733C21.0276 18.4337 19.7587 18.173 19.3146 17.4999ZM19.567 17.311L19.578 17.3275C19.9353 17.8723 21.0373 18.0627 22.0482 17.4654C22.5095 17.1847 22.9276 16.8386 23.2896 16.4379C22.9241 16.2503 21.9807 15.8572 21.0014 16.1621C19.9422 16.4958 19.6373 17.1206 19.5711 17.311H19.567Z" fill="#D42900"/>
<path d="M19.3965 17.329C19.3965 17.329 19.6103 16.4366 20.9481 16.0145C22.286 15.5925 23.5301 16.3925 23.5301 16.3925C23.1315 16.8686 22.6577 17.2762 22.1274 17.5993C21.0212 18.2544 19.7537 18.0351 19.3965 17.329Z" fill="url(#paint2_linear_5112_20141)"/>
<g style="mix-blend-mode:overlay" opacity="0.49">
<path d="M23.3681 16.3898C23.3681 16.3898 21.8799 15.7139 20.8455 16.2518C19.811 16.7897 20.4579 17.8145 21.1861 17.7621C21.9144 17.7097 23.4495 16.518 23.3681 16.3898Z" fill="white"/>
</g>
<g style="mix-blend-mode:overlay" opacity="0.49">
<path d="M23.2212 16.4463C23.2212 16.4463 22.1785 17.3235 21.6847 17.2532C21.191 17.1828 21.0696 16.4877 21.5303 16.1953C21.9909 15.9029 23.2212 16.4463 23.2212 16.4463Z" fill="white"/>
</g>
<path d="M22.4328 15.0602C22.4052 15.0326 22.379 15.0036 22.3542 14.9747L22.3184 14.9292V14.8712C22.3184 14.8299 22.357 13.8561 23.6369 13.1251C24.9168 12.3941 26.314 12.9155 26.3733 12.9375L26.5361 12.9982L26.4602 13.1541C26.1616 13.7189 25.7731 14.2313 25.3099 14.6712C24.3031 15.6105 23.0094 15.6284 22.4328 15.0602ZM22.6397 14.8216C22.6436 14.8268 22.6482 14.8315 22.6535 14.8354C23.1169 15.2933 24.2341 15.2491 25.0962 14.4464C25.4858 14.0737 25.8198 13.6468 26.0878 13.1789C25.6906 13.0741 24.6851 12.8893 23.7928 13.3996C22.8328 13.9471 22.6673 14.6216 22.6397 14.8216Z" fill="#D42900"/>
<path d="M22.4766 14.8751C22.4766 14.8751 22.4973 13.9565 23.7179 13.2614C24.9385 12.5662 26.3205 13.0848 26.3205 13.0848C26.0311 13.6345 25.6543 14.1334 25.2047 14.562C24.2599 15.4364 22.9731 15.4833 22.4766 14.8751Z" fill="url(#paint3_linear_5112_20141)"/>
<g style="mix-blend-mode:overlay" opacity="0.49">
<path d="M26.1581 13.117C26.1581 13.117 24.5609 12.7708 23.6644 13.5197C22.7679 14.2687 23.6162 15.1279 24.3182 14.9224C25.0202 14.7169 26.2657 13.2273 26.1581 13.117Z" fill="white"/>
</g>
<g style="mix-blend-mode:overlay" opacity="0.49">
<path d="M26.0267 13.2078C26.0267 13.2078 25.1991 14.2864 24.6971 14.3222C24.1951 14.3581 23.933 13.7043 24.3219 13.3223C24.7109 12.9402 26.0267 13.2078 26.0267 13.2078Z" fill="white"/>
</g>
<path d="M24.6744 11.3873C24.6427 11.3777 24.6096 11.3653 24.5793 11.3528L24.5324 11.3335L24.5089 11.288C24.4924 11.2563 24.1145 10.4853 24.8027 9.38467C25.491 8.28403 26.7902 8.10473 26.8454 8.09784L26.9971 8.07715V8.23024C27.0031 8.79229 26.9164 9.35148 26.7405 9.88533C26.3544 11.0329 25.3641 11.5873 24.6744 11.3873ZM24.7365 11.1115H24.7531C25.3047 11.2715 26.1502 10.7694 26.484 9.79016C26.6312 9.33895 26.7125 8.86883 26.7254 8.39437C26.3723 8.47851 25.5172 8.75573 25.0372 9.52121C24.52 10.357 24.6744 10.9487 24.7351 11.1156L24.7365 11.1115Z" fill="#D42900"/>
<path d="M24.6297 11.2246C24.6297 11.2246 24.2629 10.5046 24.918 9.45776C25.5731 8.41092 26.8627 8.23438 26.8627 8.23438C26.8672 8.78133 26.7829 9.32537 26.6131 9.84533C26.2476 10.9156 25.2697 11.4894 24.6297 11.2246Z" fill="url(#paint4_linear_5112_20141)"/>
<g style="mix-blend-mode:overlay" opacity="0.49">
<path d="M26.7514 8.32666C26.7514 8.32666 25.3722 8.72388 24.986 9.67832C24.5998 10.6327 25.6191 10.9458 26.0784 10.4948C26.5376 10.0438 26.8811 8.36666 26.7514 8.32666Z" fill="white"/>
</g>
<g style="mix-blend-mode:overlay" opacity="0.49">
<path d="M26.6871 8.44678C26.6871 8.44678 26.4913 9.63155 26.1203 9.86602C25.7493 10.1005 25.2693 9.70602 25.4127 9.24674C25.5562 8.78745 26.6871 8.44678 26.6871 8.44678Z" fill="white"/>
</g>
<path d="M24.6648 8.0247C24.6317 8.0247 24.5973 8.03435 24.5642 8.03711H24.5131L24.4718 8.00677C24.4428 7.98608 23.7628 7.46335 23.8911 6.171C24.0194 4.87865 25.1048 4.14214 25.1503 4.1118L25.2772 4.0249L25.3503 4.16283C25.6048 4.66559 25.7758 5.20643 25.8565 5.76412C26.0137 6.9613 25.3627 7.90057 24.6648 8.0247ZM24.6 7.74885H24.6166C25.1807 7.64954 25.72 6.822 25.582 5.79723C25.5133 5.32775 25.3772 4.87064 25.1779 4.44005C24.9021 4.67177 24.2552 5.29794 24.1656 6.19858C24.0704 7.16957 24.4704 7.63162 24.6 7.75437V7.74885Z" fill="#D42900"/>
<path d="M24.5546 7.89916C24.5546 7.89916 23.9064 7.41643 24.0291 6.18752C24.1519 4.95862 25.2277 4.229 25.2277 4.229C25.4748 4.71664 25.641 5.24113 25.7201 5.78203C25.8663 6.90473 25.2443 7.85089 24.5546 7.89916Z" fill="url(#paint5_linear_5112_20141)"/>
<g style="mix-blend-mode:overlay" opacity="0.49">
<path d="M25.1699 4.36006C25.1699 4.36006 24.1079 5.32552 24.1879 6.35444C24.2679 7.38335 25.3175 7.20957 25.5285 6.60132C25.7395 5.99308 25.3037 4.33937 25.1699 4.36006Z" fill="white"/>
</g>
<g style="mix-blend-mode:overlay" opacity="0.49">
<path d="M25.1642 4.49658C25.1642 4.49658 25.5145 5.64549 25.2869 6.01375C25.0594 6.382 24.4594 6.24684 24.3766 5.77238C24.2939 5.29792 25.1642 4.49658 25.1642 4.49658Z" fill="white"/>
</g>
<path d="M13.365 18.4296C8.29075 18.4296 4.16406 14.4091 4.16406 9.46451C4.16406 9.42451 4.16406 9.38589 4.16406 9.3459V9.28245H4.53784L4.16406 9.27556C4.25923 4.8344 7.74044 1.09114 12.2616 0.567033H12.2947C12.4561 0.547724 12.6326 0.532553 12.8009 0.522898H12.8312C13.0174 0.511864 13.1912 0.506348 13.3608 0.506348H13.4891C13.616 0.506348 13.7415 0.506347 13.8656 0.517381C13.9622 0.517381 14.0574 0.531173 14.1539 0.53807H14.2077C14.2546 0.53807 14.3015 0.53807 14.3456 0.550483C14.4628 0.561517 14.5828 0.576689 14.7015 0.594619L14.7994 0.608411C17.1302 0.951632 19.2406 2.17591 20.6956 4.02893L21.0984 4.61372C22.0168 5.99625 22.522 7.61196 22.5549 9.27142V9.33072C22.5549 9.37348 22.5549 9.41624 22.5549 9.46037C22.5604 14.4091 18.4337 18.4296 13.365 18.4296ZM5.42745 9.30314C5.42745 9.33348 5.42745 9.36245 5.42745 9.39279C5.42745 9.42313 5.42745 9.44244 5.42745 9.46589C5.42745 13.7139 8.99003 17.1703 13.3691 17.1703C17.7482 17.1703 21.3108 13.7139 21.3108 9.46589C21.3108 9.43693 21.3108 9.40796 21.3108 9.38038V9.30452C21.2918 8.32979 21.0819 7.36825 20.6929 6.47432C20.4344 5.8834 20.1026 5.32733 19.7053 4.81923L19.4198 4.45511C18.1732 3.04715 16.4676 2.12691 14.6063 1.858L14.5222 1.84559C14.4215 1.8318 14.318 1.818 14.2118 1.80697L14.1042 1.79732H14.0615C13.9608 1.78904 13.8794 1.78214 13.7967 1.77801C13.6863 1.77801 13.5774 1.76973 13.4684 1.76835H13.3415C13.2119 1.76835 13.0657 1.76835 12.8947 1.78214H12.8657C12.7181 1.7918 12.5664 1.80559 12.4161 1.82214H12.3857C8.5073 2.27315 5.50331 5.48402 5.42331 9.30314H5.42745Z" fill="url(#paint6_linear_5112_20141)"/>
<path d="M13.3978 1.67725C8.98424 1.67725 5.37891 5.17086 5.37891 9.46581C5.37891 13.7608 8.97735 17.2571 13.4006 17.2571C17.8238 17.2571 21.4002 13.7759 21.4209 9.49616V9.46995C21.4244 7.76226 20.8509 6.10345 19.7933 4.7626L19.5175 4.40814C18.7987 3.59508 17.9235 2.93511 16.9441 2.46758C15.9648 2.00006 14.9013 1.73455 13.8171 1.6869H13.795H13.6199H13.3992L13.3978 1.67725Z" fill="url(#paint7_linear_5112_20141)"/>
<path d="M21.9727 9.46569C21.9727 14.0682 18.1356 17.8004 13.4021 17.8004C8.66851 17.8004 4.83008 14.0682 4.83008 9.46569C4.83008 4.86317 8.6754 1.13232 13.4021 1.13232C18.1287 1.13232 21.9727 4.86317 21.9727 9.46569Z" fill="url(#paint8_linear_5112_20141)"/>
<g style="mix-blend-mode:overlay" opacity="0.49">
<path d="M13.4021 1.13232C8.66851 1.13232 4.83008 4.86317 4.83008 9.46569C4.83008 9.56775 4.83008 9.66706 4.83835 9.76774C7.02169 11.6725 10.0284 12.849 13.3455 12.849C16.7233 12.849 19.7755 11.6297 21.9671 9.66706C21.9671 9.59948 21.9671 9.52914 21.9671 9.46569C21.9727 4.86317 18.1356 1.13232 13.4021 1.13232Z" fill="white"/>
</g>
<g style="mix-blend-mode:overlay" opacity="0.49">
<path d="M20.2412 4.42345C19.4218 3.39315 18.3798 2.5618 17.1932 1.99181C16.0066 1.42182 14.7063 1.12799 13.3899 1.13237C12.0735 1.13675 10.7752 1.43923 9.59237 2.0171C8.40959 2.59497 7.37305 3.43323 6.56055 4.46897C8.637 5.68427 11.0012 6.32104 13.4071 6.31304C15.813 6.30503 18.1729 5.65255 20.2412 4.42345Z" fill="white"/>
</g>
<g style="mix-blend-mode:overlay" opacity="0.49">
<path d="M13.4021 1.60954C18.0529 1.60954 21.8361 5.2135 21.9658 9.7043C21.9658 9.62569 21.9727 9.54569 21.9727 9.46569C21.9727 4.86317 18.1356 1.13232 13.4021 1.13232C8.66851 1.13232 4.83008 4.86317 4.83008 9.46569C4.83008 9.54569 4.83008 9.62569 4.83008 9.7043C4.96662 5.20798 8.74988 1.60954 13.4021 1.60954Z" fill="white"/>
</g>
<path d="M13.4018 17.4474C8.72896 17.4474 4.93191 13.8103 4.83398 9.29053C4.83398 9.34846 4.83398 9.40638 4.83398 9.46569C4.83398 14.0682 8.6724 17.8004 13.406 17.8004C18.1395 17.8004 21.9765 14.0682 21.9765 9.46569C21.9765 9.40638 21.9765 9.34846 21.9765 9.29053C21.8703 13.8103 18.0733 17.4474 13.4018 17.4474Z" fill="#FFF064"/>
<path d="M13.4009 16.2668C17.2629 16.2668 20.3937 13.2225 20.3937 9.46713C20.3937 5.71179 17.2629 2.66748 13.4009 2.66748C9.53896 2.66748 6.4082 5.71179 6.4082 9.46713C6.4082 13.2225 9.53896 16.2668 13.4009 16.2668Z" fill="url(#paint9_linear_5112_20141)"/>
<path d="M13.4015 2.66607C12.4322 2.66241 11.4726 2.85828 10.5823 3.24149C9.69202 3.6247 8.89014 4.18705 8.22656 4.89354C9.53186 3.71764 11.2281 3.06963 12.9849 3.0757C16.8468 3.0757 19.9777 6.11968 19.9777 9.87535C19.9768 11.5761 19.326 13.2122 18.1585 14.4489C18.8613 13.8225 19.424 13.0549 19.81 12.1963C20.196 11.3376 20.3964 10.4071 20.3984 9.46572C20.3984 5.71143 17.2633 2.66607 13.4015 2.66607Z" fill="url(#paint10_linear_5112_20141)"/>
<g style="mix-blend-mode:multiply" opacity="0.43">
<path d="M9.04669 13.4835C9.04669 9.72787 12.1776 6.68389 16.0394 6.68389C17.5498 6.67938 19.0222 7.15728 20.242 8.04796C19.5744 4.97087 16.7649 2.66064 13.401 2.66064C9.53908 2.66064 6.4082 5.70601 6.4082 9.4603C6.4113 10.5222 6.66573 11.5683 7.15069 12.5131C7.63564 13.4578 8.33735 14.2744 9.1984 14.8959C9.09742 14.4319 9.04656 13.9584 9.04669 13.4835Z" fill="#DB5800"/>
</g>
<path d="M13.4013 15.8946C9.60563 15.8946 6.52026 12.9555 6.41406 9.29085C6.41406 9.35567 6.41406 9.42049 6.41406 9.4867C6.41406 13.2424 9.54356 16.285 13.4068 16.285C17.2701 16.285 20.3982 13.2424 20.3982 9.48394C20.3982 9.41773 20.3982 9.34601 20.3982 9.28809C20.2809 12.9555 17.1956 15.8946 13.4013 15.8946Z" fill="url(#paint11_linear_5112_20141)"/>
<path d="M12.2488 1.68016C12.6488 1.64982 13.0598 1.80153 12.8598 1.97532C12.6598 2.1491 11.3123 2.92699 10.7234 2.44564C10.1344 1.96428 11.7799 1.7174 12.2488 1.68016Z" fill="white"/>
<path d="M7.61234 3.80017C6.36275 4.84978 5.35453 6.79174 5.37936 7.92548C5.40418 9.05922 6.01105 7.28 6.32414 6.63589C6.63723 5.99179 8.20128 4.01534 9.33501 3.42502C10.4687 2.83471 9.56535 2.1575 7.61234 3.80017Z" fill="white"/>
<path d="M18.9067 17.0558C18.8681 17.0579 18.8294 17.0579 18.7908 17.0558H18.7329L18.6915 17.0158C18.6612 16.9869 17.9702 16.3 18.2998 14.8628C18.6295 13.4257 19.9549 12.7512 20.0156 12.7236L20.1715 12.645L20.2335 12.8064C20.4494 13.4097 20.5649 14.0443 20.5756 14.6849C20.5797 16.0531 19.7094 17.0158 18.9067 17.0558ZM18.8708 16.7427H18.8915C19.5411 16.711 20.2708 15.8573 20.2597 14.6822C20.2507 14.1432 20.1633 13.6085 20.0004 13.0947C19.6529 13.3153 18.8377 13.9291 18.6074 14.9304C18.3591 16.0062 18.744 16.5855 18.8708 16.7427Z" fill="#D42900"/>
<path d="M18.8002 16.8988C18.8002 16.8988 18.1395 16.2616 18.454 14.8947C18.7685 13.5279 20.087 12.8604 20.087 12.8604C20.2949 13.4454 20.4067 14.0602 20.418 14.6809C20.4208 15.9664 19.5836 16.9443 18.8002 16.8988Z" fill="url(#paint12_linear_5112_20141)"/>
<g style="mix-blend-mode:overlay" opacity="0.49">
<path d="M20.0004 12.9995C20.0004 12.9995 18.6639 13.9388 18.6074 15.1056C18.5508 16.2725 19.7577 16.2311 20.0818 15.5759C20.4059 14.9208 20.1549 12.9954 20.0004 12.9995Z" fill="white"/>
</g>
<g style="mix-blend-mode:overlay" opacity="0.49">
<path d="M19.9763 13.1528C19.9763 13.1528 20.2053 14.4962 19.8936 14.8865C19.5819 15.2769 18.9281 15.0245 18.9047 14.4852C18.8812 13.9459 19.9763 13.1528 19.9763 13.1528Z" fill="white"/>
</g>
<path d="M22.3602 14.5634C22.3271 14.5827 22.2926 14.602 22.2581 14.6185L22.2057 14.6434L22.1505 14.6282C22.1105 14.6172 21.1727 14.3524 20.7713 12.9331C20.3699 11.5139 21.2016 10.2836 21.2375 10.2312L21.334 10.0933L21.472 10.205C21.9528 10.6281 22.3606 11.1276 22.6788 11.6835C23.3381 12.8752 23.0484 14.1372 22.3602 14.5634ZM22.1781 14.311L22.1947 14.2999C22.7464 13.9579 22.967 12.8614 22.396 11.8352C22.1262 11.3682 21.7909 10.9423 21.4002 10.5705C21.203 10.9318 20.7865 11.8642 21.0692 12.8517C21.374 13.9096 21.9892 14.2296 22.1781 14.311Z" fill="#D42900"/>
<path d="M22.1917 14.4769C22.1917 14.4769 21.3049 14.2382 20.9187 12.8907C20.5325 11.5432 21.3642 10.3198 21.3642 10.3198C21.8295 10.731 22.225 11.215 22.5352 11.7529C23.1572 12.8769 22.8993 14.1376 22.1917 14.4769Z" fill="url(#paint13_linear_5112_20141)"/>
<g style="mix-blend-mode:overlay" opacity="0.49">
<path d="M21.3561 10.4823C21.3561 10.4823 20.6403 11.9512 21.1548 13.0008C21.6692 14.0504 22.7064 13.4284 22.6719 12.6988C22.6375 11.9692 21.4885 10.4037 21.3561 10.4823Z" fill="white"/>
</g>
<g style="mix-blend-mode:overlay" opacity="0.49">
<path d="M21.4074 10.6299C21.4074 10.6299 22.257 11.6947 22.1742 12.1857C22.0915 12.6767 21.3922 12.7815 21.1136 12.3139C20.835 11.8464 21.4074 10.6299 21.4074 10.6299Z" fill="white"/>
</g>
<path d="M24.182 7.97497C24.1682 8.00531 24.153 8.03703 24.1364 8.066L24.1116 8.11013L24.0633 8.12806C24.0288 8.14047 23.2192 8.42322 22.2083 7.60947C21.1973 6.79572 21.1752 5.48268 21.1738 5.42751V5.27441L21.3255 5.28683C21.886 5.34801 22.4325 5.50084 22.9434 5.73922C24.0302 6.26333 24.4619 7.31845 24.182 7.97497ZM23.9199 7.88118C23.9194 7.87613 23.9194 7.87105 23.9199 7.86601C24.1447 7.33914 23.7461 6.43849 22.8165 5.98886C22.3859 5.78921 21.9288 5.65264 21.4593 5.58336C21.5007 5.94335 21.6731 6.82468 22.3765 7.39293C23.1406 8.00393 23.7461 7.92255 23.9199 7.88118Z" fill="#D42900"/>
<path d="M24.0158 7.99847C24.0158 7.99847 23.2558 8.27431 22.2945 7.50194C21.3332 6.72957 21.3125 5.4248 21.3125 5.4248C21.8561 5.48532 22.3862 5.63392 22.8821 5.86478C23.9013 6.35579 24.3537 7.39436 24.0158 7.99847Z" fill="url(#paint14_linear_5112_20141)"/>
<g style="mix-blend-mode:overlay" opacity="0.49">
<path d="M21.3906 5.54595C21.3906 5.54595 21.621 6.96657 22.523 7.46034C23.425 7.9541 23.8567 6.98174 23.4622 6.4728C23.0678 5.96386 21.4472 5.4232 21.3906 5.54595Z" fill="white"/>
</g>
<g style="mix-blend-mode:overlay" opacity="0.49">
<path d="M21.502 5.62207C21.502 5.62207 22.655 5.95723 22.844 6.35307C23.0329 6.74891 22.5833 7.18061 22.1447 6.982C21.7061 6.78339 21.502 5.62207 21.502 5.62207Z" fill="white"/>
</g>
<path d="M23.2079 4.59313C23.1944 4.62428 23.1792 4.65467 23.1624 4.68416L23.1376 4.7283L23.0893 4.74623C23.0548 4.75864 22.2452 5.04276 21.2342 4.22763C20.2232 3.4125 20.2012 2.10222 20.2012 2.04567V1.89258L20.3543 1.90637C20.9143 1.96703 21.4605 2.11989 21.9707 2.35876C23.0562 2.88287 23.4879 3.93799 23.2079 4.59313ZM22.9458 4.50072V4.48417C23.1707 3.9573 22.7721 3.05666 21.8425 2.60702C21.4116 2.40831 20.9546 2.27223 20.4853 2.20291C20.5267 2.56289 20.6991 3.44422 21.4025 4.01247C22.1666 4.62209 22.7721 4.54072 22.9458 4.50072Z" fill="#D42900"/>
<path d="M23.0412 4.61666C23.0412 4.61666 22.2812 4.8925 21.3199 4.12013C20.3586 3.34775 20.3379 2.05127 20.3379 2.05127C20.8813 2.11169 21.4114 2.25981 21.9074 2.48987C22.9267 2.97398 23.3791 4.01393 23.0412 4.61666Z" fill="url(#paint15_linear_5112_20141)"/>
<g style="mix-blend-mode:overlay" opacity="0.49">
<path d="M20.4141 2.16578C20.4141 2.16578 20.6444 3.58502 21.5464 4.07879C22.4484 4.57255 22.8801 3.60157 22.4857 3.09263C22.0912 2.58369 20.4706 2.03613 20.4141 2.16578Z" fill="white"/>
</g>
<g style="mix-blend-mode:overlay" opacity="0.49">
<path d="M20.5273 2.24414C20.5273 2.24414 21.679 2.5793 21.868 2.97514C22.0569 3.37098 21.6073 3.80268 21.1687 3.60545C20.7301 3.40822 20.5273 2.24414 20.5273 2.24414Z" fill="white"/>
</g>
<path d="M24.1972 11.4659C24.1765 11.4934 24.1558 11.5196 24.1338 11.5445L24.1007 11.5845L24.0496 11.5914C24.0138 11.5914 23.1628 11.7086 22.3394 10.7045C21.516 9.70043 21.7628 8.41222 21.7725 8.35981L21.8028 8.20947L21.949 8.25223C22.485 8.42679 22.9887 8.68819 23.44 9.02598C24.3972 9.75974 24.6055 10.8797 24.1972 11.4659ZM23.96 11.321C23.9629 11.3162 23.9661 11.3116 23.9696 11.3072C24.2979 10.8369 24.0924 9.87422 23.2717 9.23839C22.8922 8.95591 22.4742 8.72925 22.0304 8.56532C21.9973 8.9253 21.9863 9.82456 22.5601 10.5238C23.1711 11.2769 23.7807 11.3252 23.96 11.321Z" fill="#D42900"/>
<path d="M24.031 11.4547C24.031 11.4547 23.231 11.5719 22.4476 10.6175C21.6642 9.66306 21.9152 8.38037 21.9152 8.38037C22.4348 8.55017 22.9234 8.80309 23.3621 9.1293C24.26 9.82306 24.4848 10.9333 24.031 11.4547Z" fill="url(#paint16_linear_5112_20141)"/>
<g style="mix-blend-mode:overlay" opacity="0.49">
<path d="M21.9623 8.51819C21.9623 8.51819 21.8974 9.95536 22.6781 10.6229C23.4587 11.2905 24.0822 10.4271 23.8008 9.84916C23.5194 9.27126 22.0409 8.40923 21.9623 8.51819Z" fill="white"/>
</g>
<g style="mix-blend-mode:overlay" opacity="0.49">
<path d="M22.0539 8.61914C22.0539 8.61914 23.1131 9.18325 23.218 9.60944C23.3228 10.0356 22.7945 10.3639 22.4042 10.0825C22.0139 9.80115 22.0539 8.61914 22.0539 8.61914Z" fill="white"/>
</g>
<path d="M4.79464 17.736C4.24821 17.404 3.75992 16.9847 3.3492 16.4946L3.24023 16.3567L3.38643 16.2629C3.44022 16.2285 4.70913 15.4354 6.10078 15.8671C7.49244 16.2988 7.74898 17.2546 7.75587 17.2946L7.76966 17.3512L7.74346 17.4036C7.72599 17.4367 7.70668 17.4698 7.68553 17.5029C7.24417 18.1732 5.97527 18.4339 4.79464 17.736ZM6.00562 16.165C5.02636 15.8561 4.08295 16.2491 3.71745 16.4409C4.07944 16.8415 4.49755 17.1876 4.95877 17.4684C5.96975 18.067 7.07176 17.8822 7.42898 17.3305L7.44002 17.3139C7.36554 17.1208 7.06074 16.496 6.00562 16.165Z" fill="#D42900"/>
<path d="M7.60623 17.329C7.60623 17.329 7.39245 16.4366 6.05459 16.0145C4.71673 15.5925 3.47266 16.3925 3.47266 16.3925C3.87165 16.8682 4.3454 17.2758 4.87534 17.5993C5.98149 18.2544 7.24901 18.0351 7.60623 17.329Z" fill="url(#paint17_linear_5112_20141)"/>
<g style="mix-blend-mode:overlay" opacity="0.49">
<path d="M3.63592 16.3898C3.63592 16.3898 5.12412 15.7139 6.15855 16.2518C7.19298 16.7897 6.54612 17.8145 5.81788 17.7621C5.08964 17.7097 3.55455 16.518 3.63592 16.3898Z" fill="white"/>
</g>
<g style="mix-blend-mode:overlay" opacity="0.49">
<path d="M3.78125 16.4463C3.78125 16.4463 4.82395 17.3235 5.31772 17.2532C5.81148 17.1828 5.93287 16.4877 5.4722 16.1953C5.01153 15.9029 3.78125 16.4463 3.78125 16.4463Z" fill="white"/>
</g>
<path d="M1.69294 14.6765C1.22973 14.2365 0.841216 13.7241 0.542653 13.1593L0.466797 13.0035L0.629546 12.9428C0.688854 12.9207 2.09844 12.4076 3.36596 13.1304C4.63348 13.8531 4.68314 14.8351 4.68451 14.8765V14.9344L4.64865 14.9799C4.62383 15.0089 4.59762 15.0378 4.57142 15.0654C3.99352 15.6282 2.69979 15.6102 1.69294 14.6765ZM3.21011 13.3993C2.31774 12.889 1.31227 13.0738 0.91505 13.1786C1.18304 13.6465 1.51703 14.0734 1.90672 14.4461C2.76875 15.2447 3.88594 15.293 4.34936 14.8351C4.35463 14.8312 4.35927 14.8266 4.36315 14.8213C4.33557 14.6213 4.17006 13.9469 3.21011 13.3993Z" fill="#D42900"/>
<path d="M4.52753 14.8751C4.52753 14.8751 4.50547 13.9565 3.28622 13.2614C2.06697 12.5662 0.683594 13.0848 0.683594 13.0848C0.972954 13.6345 1.34982 14.1334 1.7994 14.562C2.74418 15.4364 4.02963 15.4833 4.52753 14.8751Z" fill="url(#paint18_linear_5112_20141)"/>
<g style="mix-blend-mode:overlay" opacity="0.49">
<path d="M0.84443 13.117C0.84443 13.117 2.44159 12.7708 3.3381 13.5197C4.2346 14.2687 3.38637 15.1279 2.68434 14.9224C1.98231 14.7169 0.73685 13.2273 0.84443 13.117Z" fill="white"/>
</g>
<g style="mix-blend-mode:overlay" opacity="0.49">
<path d="M0.976562 13.2078C0.976562 13.2078 1.80411 14.2864 2.30615 14.3222C2.8082 14.3581 3.07025 13.7043 2.6813 13.3223C2.29236 12.9402 0.976562 13.2078 0.976562 13.2078Z" fill="white"/>
</g>
<path d="M0.260736 9.88924C0.0848533 9.35539 -0.00181961 8.7962 0.00419952 8.23415V8.08105L0.155913 8.10174C0.211082 8.10864 1.51722 8.29897 2.19857 9.38857C2.87991 10.4782 2.5089 11.2602 2.49235 11.2919L2.4689 11.3374L2.422 11.3567C2.39166 11.3692 2.35856 11.3816 2.32683 11.3912C1.63997 11.5871 0.648302 11.0326 0.260736 9.88924ZM1.96962 9.53063C1.48964 8.76516 0.634513 8.48793 0.281428 8.4038C0.294267 8.87825 0.375562 9.34837 0.522795 9.79959C0.856571 10.7788 1.70342 11.2809 2.25374 11.1209H2.27029C2.3296 10.9485 2.48269 10.3568 1.96686 9.53063H1.96962Z" fill="#D42900"/>
<path d="M2.37378 11.2246C2.37378 11.2246 2.74066 10.5046 2.08552 9.45776C1.43038 8.41092 0.140792 8.23438 0.140792 8.23438C0.136349 8.78133 0.220658 9.32537 0.390434 9.84533C0.755933 10.9156 1.73381 11.4894 2.37378 11.2246Z" fill="url(#paint19_linear_5112_20141)"/>
<g style="mix-blend-mode:overlay" opacity="0.49">
<path d="M0.251818 8.32666C0.251818 8.32666 1.63106 8.72388 2.01724 9.67832C2.40343 10.6327 1.38417 10.9458 0.924888 10.4948C0.465601 10.0438 0.123549 8.36666 0.251818 8.32666Z" fill="white"/>
</g>
<g style="mix-blend-mode:overlay" opacity="0.49">
<path d="M0.316406 8.44678C0.316406 8.44678 0.512256 9.63155 0.883272 9.86602C1.25429 10.1005 1.73288 9.70602 1.59082 9.24674C1.44876 8.78745 0.316406 8.44678 0.316406 8.44678Z" fill="white"/>
</g>
<path d="M1.1467 5.75973C1.22743 5.20203 1.3984 4.6612 1.65289 4.15843L1.72599 4.02051L1.85288 4.1074C1.89978 4.13774 2.98523 4.88805 3.11212 6.1666C3.23901 7.44516 2.56043 7.98168 2.53146 8.00237L2.49009 8.03272H2.43906C2.40596 8.03272 2.37147 8.03272 2.33837 8.0203C1.64185 7.90031 0.98947 6.96105 1.1467 5.75973ZM2.83765 6.19695C2.748 5.2963 2.1039 4.67013 1.82529 4.43842C1.62599 4.86901 1.48988 5.32611 1.42118 5.79559C1.28325 6.82036 1.82254 7.64791 2.38665 7.74721H2.4032C2.53285 7.63136 2.93282 7.16931 2.83765 6.20109V6.19695Z" fill="#D42900"/>
<path d="M2.44763 7.89916C2.44763 7.89916 3.09588 7.41643 2.97312 6.18752C2.85037 4.95862 1.77871 4.229 1.77871 4.229C1.53166 4.71664 1.36537 5.24113 1.28632 5.78203C1.13598 6.90473 1.75801 7.85089 2.44763 7.89916Z" fill="url(#paint20_linear_5112_20141)"/>
<g style="mix-blend-mode:overlay" opacity="0.49">
<path d="M1.83136 4.36006C1.83136 4.36006 2.89475 5.32552 2.81338 6.35444C2.732 7.38335 1.68378 7.20957 1.47275 6.60132C1.26173 5.99308 1.69757 4.33937 1.83136 4.36006Z" fill="white"/>
</g>
<g style="mix-blend-mode:overlay" opacity="0.49">
<path d="M1.83711 4.49658C1.83711 4.49658 1.48816 5.64549 1.71573 6.01375C1.94331 6.382 2.54328 6.24684 2.62466 5.77238C2.70603 5.29792 1.83711 4.49658 1.83711 4.49658Z" fill="white"/>
</g>
<path d="M6.42775 14.681C6.4384 14.0404 6.55395 13.4058 6.7698 12.8025L6.83187 12.6411L6.98772 12.7197C7.04427 12.7473 8.37524 13.4369 8.7035 14.8589C9.03175 16.2809 8.34213 16.983 8.31317 17.0119L8.27041 17.0519H8.21249C8.1739 17.054 8.13522 17.054 8.09663 17.0519C7.29529 17.0161 6.42361 16.0534 6.42775 14.681ZM8.39592 14.9293C8.16559 13.9279 7.35046 13.3142 7.00289 13.0935C6.84 13.6073 6.75265 14.1421 6.74359 14.681C6.74359 15.8561 7.46217 16.7099 8.1118 16.7416H8.13249C8.26076 16.5857 8.64418 16.0065 8.39868 14.9293H8.39592Z" fill="#D42900"/>
<path d="M8.2038 16.8988C8.2038 16.8988 8.86446 16.2616 8.54999 14.8947C8.23552 13.5279 6.91697 12.8604 6.91697 12.8604C6.70906 13.4454 6.59727 14.0602 6.58594 14.6809C6.58319 15.9664 7.42039 16.9443 8.2038 16.8988Z" fill="url(#paint21_linear_5112_20141)"/>
<g style="mix-blend-mode:overlay" opacity="0.49">
<path d="M7.00088 12.9995C7.00088 12.9995 8.33736 13.9388 8.39391 15.1056C8.45046 16.2725 7.24363 16.2311 6.91951 15.5759C6.59539 14.9208 6.84641 12.9954 7.00088 12.9995Z" fill="white"/>
</g>
<g style="mix-blend-mode:overlay" opacity="0.49">
<path d="M7.02665 13.1528C7.02665 13.1528 6.7977 14.4962 7.10803 14.8865C7.41836 15.2769 8.08177 15.0245 8.0997 14.4852C8.11763 13.9459 7.02665 13.1528 7.02665 13.1528Z" fill="white"/>
</g>
<path d="M4.33388 11.6767C4.65258 11.1212 5.06028 10.6217 5.54072 10.1981L5.67864 10.0864L5.77794 10.2243C5.81242 10.2768 6.64548 11.5236 6.24275 12.9263C5.84001 14.329 4.89937 14.6103 4.86351 14.6214L4.80834 14.6365L4.75593 14.6117C4.72145 14.5952 4.68697 14.5759 4.65387 14.5565C3.95597 14.1373 3.66633 12.8752 4.33388 11.6767ZM5.93518 12.8463C6.21103 11.8588 5.79725 10.9264 5.60416 10.565C5.21349 10.9369 4.87815 11.3628 4.60835 11.8298C4.03734 12.8559 4.25526 13.9524 4.80971 14.2945L4.82627 14.3055C5.01523 14.2297 5.63175 13.9097 5.93518 12.8463Z" fill="#D42900"/>
<path d="M4.81248 14.4769C4.81248 14.4769 5.69933 14.2382 6.08551 12.8907C6.4717 11.5432 5.64002 10.3198 5.64002 10.3198C5.17536 10.7312 4.78038 11.2152 4.47043 11.7529C3.84701 12.8769 4.10355 14.1376 4.81248 14.4769Z" fill="url(#paint22_linear_5112_20141)"/>
<g style="mix-blend-mode:overlay" opacity="0.49">
<path d="M5.64671 10.4823C5.64671 10.4823 6.36254 11.9512 5.84808 13.0008C5.33362 14.0504 4.29644 13.4284 4.33092 12.6988C4.3654 11.9692 5.5143 10.4037 5.64671 10.4823Z" fill="white"/>
</g>
<g style="mix-blend-mode:overlay" opacity="0.49">
<path d="M5.5948 10.6299C5.5948 10.6299 4.74519 11.6947 4.82794 12.1857C4.9107 12.6767 5.60997 12.7815 5.88858 12.3139C6.16718 11.8464 5.5948 10.6299 5.5948 10.6299Z" fill="white"/>
</g>
<path d="M4.06054 5.73922C4.57141 5.50084 5.11798 5.34801 5.6784 5.28683L5.83011 5.27441V5.42751C5.83011 5.48268 5.79563 6.80675 4.79568 7.60947C3.79573 8.41218 2.97508 8.14047 2.9406 8.12806L2.89233 8.11013L2.8675 8.066C2.85095 8.03703 2.83578 8.00531 2.82199 7.97496C2.54062 7.31845 2.97232 6.26333 4.06054 5.73922ZM4.62051 7.3943C5.32393 6.82744 5.49633 5.94472 5.53771 5.58474C5.06819 5.65402 4.6111 5.79059 4.18054 5.99024C3.24955 6.43987 2.85095 7.34051 3.07714 7.86738C3.08 7.87217 3.08231 7.87726 3.08404 7.88256C3.25644 7.92255 3.86193 8.00393 4.62051 7.39293V7.3943Z" fill="#D42900"/>
<path d="M2.98757 7.99847C2.98757 7.99847 3.74753 8.27431 4.70886 7.50194C5.67019 6.72957 5.69088 5.4248 5.69088 5.4248C5.14818 5.48537 4.61897 5.63398 4.12407 5.86478C3.10205 6.35579 2.64966 7.39436 2.98757 7.99847Z" fill="url(#paint23_linear_5112_20141)"/>
<g style="mix-blend-mode:overlay" opacity="0.49">
<path d="M5.61266 5.54595C5.61266 5.54595 5.38233 6.96657 4.48031 7.46034C3.57828 7.9541 3.14658 6.98174 3.54105 6.4728C3.93551 5.96386 5.55611 5.4232 5.61266 5.54595Z" fill="white"/>
</g>
<g style="mix-blend-mode:overlay" opacity="0.49">
<path d="M5.5035 5.62207C5.5035 5.62207 4.35046 5.95723 4.16151 6.35307C3.97255 6.74891 4.42218 7.18061 4.86078 6.982C5.29938 6.78339 5.5035 5.62207 5.5035 5.62207Z" fill="white"/>
</g>
<path d="M5.0364 2.35876C5.5466 2.11989 6.09279 1.96703 6.65287 1.90637L6.80596 1.89258V2.04567C6.80596 2.10222 6.77286 3.42491 5.77291 4.22763C4.77296 5.03035 3.95231 4.75864 3.91783 4.74623L3.86956 4.72829L3.84473 4.68416C3.82791 4.65467 3.81273 4.62428 3.79922 4.59313C3.51648 3.93799 3.94817 2.88287 5.0364 2.35876ZM5.59637 4.01385C6.29978 3.4456 6.47219 2.56427 6.51356 2.20429C6.04422 2.27361 5.5872 2.40969 5.15639 2.6084C4.2254 3.05804 3.8268 3.95868 4.053 4.48555V4.5021C4.2323 4.54072 4.83778 4.62209 5.59637 4.01247V4.01385Z" fill="#D42900"/>
<path d="M3.96221 4.61666C3.96221 4.61666 4.72217 4.8925 5.68212 4.12013C6.64207 3.34775 6.66552 2.05127 6.66552 2.05127C6.12206 2.11169 5.592 2.25981 5.09595 2.48987C4.07669 2.97398 3.6243 4.01393 3.96221 4.61666Z" fill="url(#paint24_linear_5112_20141)"/>
<g style="mix-blend-mode:overlay" opacity="0.49">
<path d="M6.58923 2.16578C6.58923 2.16578 6.35889 3.58502 5.45687 4.07879C4.55485 4.57255 4.12315 3.60157 4.51761 3.09263C4.91207 2.58369 6.53268 2.03613 6.58923 2.16578Z" fill="white"/>
</g>
<g style="mix-blend-mode:overlay" opacity="0.49">
<path d="M6.47478 2.24414C6.47478 2.24414 5.32312 2.5793 5.13416 2.97514C4.94521 3.37098 5.39484 3.80268 5.83344 3.60545C6.27204 3.40822 6.47478 2.24414 6.47478 2.24414Z" fill="white"/>
</g>
<path d="M3.56148 9.02452C4.01276 8.68672 4.51645 8.42532 5.05244 8.25076L5.20002 8.20801L5.22898 8.35834C5.23864 8.41213 5.47586 9.71138 4.66211 10.7031C3.84836 11.6947 2.98772 11.5954 2.95186 11.5899L2.90083 11.583L2.86773 11.543C2.84553 11.518 2.82481 11.4918 2.80566 11.4644C2.3974 10.8796 2.60567 9.75965 3.56148 9.02452ZM4.44695 10.5293C5.02071 9.82999 5.00968 8.93073 4.97658 8.57075C4.53279 8.73469 4.11478 8.96134 3.73527 9.24382C2.916 9.87413 2.70911 10.8368 3.03737 11.3127C3.04135 11.3167 3.04462 11.3214 3.04703 11.3265C3.22081 11.3251 3.83043 11.2768 4.44695 10.5293Z" fill="#D42900"/>
<path d="M2.97156 11.4547C2.97156 11.4547 3.77152 11.5719 4.55493 10.6175C5.33834 9.66306 5.08869 8.38037 5.08869 8.38037C4.56911 8.55017 4.08049 8.80309 3.64187 9.1293C2.74399 9.82306 2.51779 10.9333 2.97156 11.4547Z" fill="url(#paint25_linear_5112_20141)"/>
<g style="mix-blend-mode:overlay" opacity="0.49">
<path d="M5.04108 8.51819C5.04108 8.51819 5.10591 9.95536 4.32388 10.6229C3.54185 11.2905 2.92119 10.4271 3.20117 9.84916C3.48116 9.27126 4.96108 8.40923 5.04108 8.51819Z" fill="white"/>
</g>
<g style="mix-blend-mode:overlay" opacity="0.49">
<path d="M4.95098 8.61914C4.95098 8.61914 3.89172 9.18325 3.7869 9.60944C3.68208 10.0356 4.21171 10.3639 4.60066 10.0825C4.9896 9.80115 4.95098 8.61914 4.95098 8.61914Z" fill="white"/>
</g>
<path d="M9.63086 5.54215L10.3439 8.7944L11.7673 8.11719V14.4782H15.443V4.10498H12.7162L9.63086 5.54215ZM14.974 4.57668V14.0038H12.2362V7.36964L10.6749 8.11305L10.1701 5.80972L12.821 4.57668H14.974Z" fill="#D42900"/>
<path d="M12.5135 6.37223H13.0183V13.2215H14.192V5.35986H12.9934L11.0625 6.25499L11.2225 6.98461L12.5135 6.37223ZM13.0969 5.82053H13.7231V12.7526H13.4886V5.89777H12.9369L13.0969 5.82053Z" fill="#D42900"/>
<path d="M15.157 14.2392H11.9503V7.74024L10.4676 8.45055L9.85938 5.67552L12.7268 4.3418H15.157V14.2392ZM13.2013 12.9869H13.9047V5.59277H12.993L11.2952 6.38721L11.3517 6.64375L12.4165 6.13757H13.2109L13.2013 12.9869Z" fill="url(#paint26_linear_5112_20141)"/>
<path d="M12.5801 6.76248H12.5539L10.8988 7.54727L10.5664 6.03011L12.8546 4.96533H14.5303V13.6118H12.5746L12.5801 6.76248Z" fill="url(#paint27_linear_5112_20141)"/>
<path d="M10.5723 6.0262L10.6123 6.21102L12.859 5.16555H14.5362V4.96143H12.859L10.5723 6.0262Z" fill="white"/>
<g style="mix-blend-mode:overlay" opacity="0.49">
<path d="M9.85352 5.67552L10.5721 6.02585L12.8589 4.96108H14.536L15.1608 4.3418H12.721L9.85352 5.67552Z" fill="white"/>
</g>
<g style="mix-blend-mode:overlay" opacity="0.49">
<path d="M12.8586 4.96108H14.5358L15.1606 4.3418H12.7207L12.8586 4.96108Z" fill="white"/>
</g>
<path opacity="0.46" d="M10.9056 7.54895L10.4629 8.45235L11.9552 7.74204L12.5552 6.76416L10.9056 7.54895Z" fill="#D42900"/>
<path opacity="0.46" d="M12.5813 13.6133L11.9551 14.2395H15.1618L14.537 13.6133H12.5813Z" fill="#D42900"/>
<g style="mix-blend-mode:overlay" opacity="0.49">
<path d="M14.5362 8.68928V4.96533H12.8604L10.5723 6.03562L10.9047 7.55279L12.5597 6.768H12.586V10.0147C13.3719 9.81649 14.0626 9.34707 14.5362 8.68928Z" fill="white"/>
</g>
</g>
<defs>
<linearGradient id="paint0_linear_5112_20141" x1="5.11369" y1="6.22301" x2="6.06612" y2="16.1002" gradientUnits="userSpaceOnUse">
<stop stop-color="#FFE800"/>
<stop offset="1" stop-color="#D45900"/>
</linearGradient>
<linearGradient id="paint1_linear_5112_20141" x1="21.1673" y1="7.12471" x2="20.2015" y2="16.9879" gradientUnits="userSpaceOnUse">
<stop stop-color="#FFE800"/>
<stop offset="1" stop-color="#D45900"/>
</linearGradient>
<linearGradient id="paint2_linear_5112_20141" x1="22.5486" y1="15.8498" x2="20.2927" y2="17.7651" gradientUnits="userSpaceOnUse">
<stop stop-color="#FFE800"/>
<stop offset="1" stop-color="#D45900"/>
</linearGradient>
<linearGradient id="paint3_linear_5112_20141" x1="25.7465" y1="11.8871" x2="23.9515" y2="14.2288" gradientUnits="userSpaceOnUse">
<stop stop-color="#FFE800"/>
<stop offset="1" stop-color="#D45900"/>
</linearGradient>
<linearGradient id="paint4_linear_5112_20141" x1="25.8816" y1="8.43356" x2="25.4663" y2="11.005" gradientUnits="userSpaceOnUse">
<stop stop-color="#FFE800"/>
<stop offset="1" stop-color="#D45900"/>
</linearGradient>
<linearGradient id="paint5_linear_5112_20141" x1="24.4439" y1="4.83156" x2="25.2132" y2="7.32014" gradientUnits="userSpaceOnUse">
<stop stop-color="#FFE800"/>
<stop offset="1" stop-color="#D45900"/>
</linearGradient>
<linearGradient id="paint6_linear_5112_20141" x1="12.4561" y1="5.78332" x2="15.2959" y2="17.351" gradientUnits="userSpaceOnUse">
<stop stop-color="#D45900"/>
<stop offset="0.95" stop-color="#D42900"/>
</linearGradient>
<linearGradient id="paint7_linear_5112_20141" x1="5.37891" y1="9.46719" x2="21.4209" y2="9.46719" gradientUnits="userSpaceOnUse">
<stop stop-color="#FFD600"/>
<stop offset="1" stop-color="#D43000"/>
</linearGradient>
<linearGradient id="paint8_linear_5112_20141" x1="13.4021" y1="0.37788" x2="13.4021" y2="16.0654" gradientUnits="userSpaceOnUse">
<stop stop-color="#FFE800"/>
<stop offset="1" stop-color="#D45900"/>
</linearGradient>
<linearGradient id="paint9_linear_5112_20141" x1="13.4009" y1="4.746" x2="13.4009" y2="17.6391" gradientUnits="userSpaceOnUse">
<stop stop-color="#FFD600"/>
<stop offset="1" stop-color="#D43000"/>
</linearGradient>
<linearGradient id="paint10_linear_5112_20141" x1="8.22656" y1="8.5568" x2="20.3942" y2="8.5568" gradientUnits="userSpaceOnUse">
<stop stop-color="#FFD600"/>
<stop offset="1" stop-color="#D43000"/>
</linearGradient>
<linearGradient id="paint11_linear_5112_20141" x1="6.40855" y1="12.7872" x2="20.394" y2="12.7872" gradientUnits="userSpaceOnUse">
<stop stop-color="#FFE800"/>
<stop offset="1" stop-color="#D45900"/>
</linearGradient>
<linearGradient id="paint12_linear_5112_20141" x1="19.1165" y1="13.4533" x2="19.6248" y2="16.3671" gradientUnits="userSpaceOnUse">
<stop stop-color="#FFE800"/>
<stop offset="1" stop-color="#D45900"/>
</linearGradient>
<linearGradient id="paint13_linear_5112_20141" x1="20.0956" y1="9.96179" x2="21.9638" y2="12.2633" gradientUnits="userSpaceOnUse">
<stop stop-color="#FFE800"/>
<stop offset="1" stop-color="#D45900"/>
</linearGradient>
<linearGradient id="paint14_linear_5112_20141" x1="19.6985" y1="6.53809" x2="22.2023" y2="7.24919" gradientUnits="userSpaceOnUse">
<stop stop-color="#FFE800"/>
<stop offset="1" stop-color="#D45900"/>
</linearGradient>
<linearGradient id="paint15_linear_5112_20141" x1="18.7157" y1="3.16192" x2="21.2195" y2="3.87302" gradientUnits="userSpaceOnUse">
<stop stop-color="#FFE800"/>
<stop offset="1" stop-color="#D45900"/>
</linearGradient>
<linearGradient id="paint16_linear_5112_20141" x1="21.812" y1="9.39533" x2="24.1161" y2="10.6103" gradientUnits="userSpaceOnUse">
<stop stop-color="#FFE800"/>
<stop offset="1" stop-color="#D45900"/>
</linearGradient>
<linearGradient id="paint17_linear_5112_20141" x1="4.07177" y1="16.9053" x2="6.3354" y2="18.8278" gradientUnits="userSpaceOnUse">
<stop stop-color="#FFE800"/>
<stop offset="1" stop-color="#D45900"/>
</linearGradient>
<linearGradient id="paint18_linear_5112_20141" x1="2.50978" y1="12.0912" x2="4.30477" y2="14.4329" gradientUnits="userSpaceOnUse">
<stop stop-color="#FFE800"/>
<stop offset="1" stop-color="#D45900"/>
</linearGradient>
<linearGradient id="paint19_linear_5112_20141" x1="1.06836" y1="8.20354" x2="1.48092" y2="10.7756" gradientUnits="userSpaceOnUse">
<stop stop-color="#FFE800"/>
<stop offset="1" stop-color="#D45900"/>
</linearGradient>
<linearGradient id="paint20_linear_5112_20141" x1="5.51016" y1="7.4097" x2="4.75448" y2="9.88783" gradientUnits="userSpaceOnUse">
<stop stop-color="#FFE800"/>
<stop offset="1" stop-color="#D45900"/>
</linearGradient>
<linearGradient id="paint21_linear_5112_20141" x1="7.1564" y1="12.5614" x2="6.6427" y2="15.4795" gradientUnits="userSpaceOnUse">
<stop stop-color="#FFE800"/>
<stop offset="1" stop-color="#D45900"/>
</linearGradient>
<linearGradient id="paint22_linear_5112_20141" x1="6.1877" y1="8.2251" x2="4.31956" y2="10.5266" gradientUnits="userSpaceOnUse">
<stop stop-color="#FFE800"/>
<stop offset="1" stop-color="#D45900"/>
</linearGradient>
<linearGradient id="paint23_linear_5112_20141" x1="7.63721" y1="5.31947" x2="5.13342" y2="6.03058" gradientUnits="userSpaceOnUse">
<stop stop-color="#FFE800"/>
<stop offset="1" stop-color="#D45900"/>
</linearGradient>
<linearGradient id="paint24_linear_5112_20141" x1="8.62003" y1="1.9433" x2="6.11624" y2="2.65441" gradientUnits="userSpaceOnUse">
<stop stop-color="#FFE800"/>
<stop offset="1" stop-color="#D45900"/>
</linearGradient>
<linearGradient id="paint25_linear_5112_20141" x1="6.98414" y1="8.83024" x2="4.68073" y2="10.0389" gradientUnits="userSpaceOnUse">
<stop stop-color="#FFE800"/>
<stop offset="1" stop-color="#D45900"/>
</linearGradient>
<linearGradient id="paint26_linear_5112_20141" x1="12.5075" y1="14.7261" x2="12.5075" y2="1.58332" gradientUnits="userSpaceOnUse">
<stop stop-color="#FFE800"/>
<stop offset="1" stop-color="#D45900"/>
</linearGradient>
<linearGradient id="paint27_linear_5112_20141" x1="12.5539" y1="5.23704" x2="12.5539" y2="14.9028" gradientUnits="userSpaceOnUse">
<stop stop-color="#FFE800"/>
<stop offset="1" stop-color="#D45900"/>
</linearGradient>
<clipPath id="clip0_5112_20141">
<rect width="27" height="18.4294" fill="white"/>
</clipPath>
</defs>
</svg>
