<svg width="27" height="19" viewBox="0 0 27 19" fill="none" xmlns="http://www.w3.org/2000/svg">
<g clip-path="url(#clip0_5112_20389)">
<path d="M2.27962 10.3293C2.35255 11.1208 2.55573 11.8949 2.88096 12.6202C3.20552 13.3431 3.63291 14.0153 4.14987 14.6159C4.66137 15.2154 5.24139 15.7528 5.87805 16.2172C6.19589 16.4494 6.52651 16.6635 6.86834 16.8586C7.21544 17.0606 7.57957 17.2318 7.95657 17.3703C8.06165 17.4063 8.16901 17.4353 8.27793 17.4572L8.55378 17.5096C8.72894 17.5454 8.911 17.5813 9.10547 17.6241C9.48615 17.7041 9.86544 17.7896 10.2185 17.8696L10.5247 17.9385L10.7247 17.0724L10.4185 17.002C10.0654 16.922 9.69855 16.842 9.32891 16.7648C9.14685 16.7262 8.96341 16.6889 8.77722 16.6531L8.50137 16.6007L8.45172 16.591L8.37861 16.5772C8.34827 16.5703 8.31379 16.5607 8.26827 16.5455C8.10488 16.4912 7.94504 16.4267 7.78968 16.3524C7.63521 16.2807 7.47659 16.1993 7.3166 16.1097C6.3755 15.5848 5.52967 14.9049 4.81466 14.0987C4.34536 13.5634 3.95266 12.9656 3.64782 12.3223C3.34264 11.6783 3.14464 10.9888 3.06164 10.281C2.97076 9.56688 2.97447 8.84389 3.07268 8.13075C3.16926 7.41559 3.37048 6.71851 3.66989 6.06189C3.82062 5.73425 3.99582 5.41844 4.194 5.11712C4.38441 4.81986 4.60437 4.54261 4.85052 4.28957L4.98845 4.19992L4.59674 3.73926L4.47123 3.85098C4.32392 3.98312 4.18569 4.12504 4.05746 4.27578C3.92919 4.42473 3.80644 4.5806 3.69334 4.74059C3.46527 5.05923 3.26281 5.39543 3.08785 5.74605C2.73656 6.4505 2.49117 7.20293 2.35961 7.97904C2.22887 8.75544 2.20197 9.54577 2.27962 10.3293ZM2.6658 8.03283C2.79191 7.28737 3.02755 6.56464 3.36508 5.88811C3.53335 5.55174 3.72748 5.22895 3.94573 4.92264C3.95762 4.90578 3.97052 4.88967 3.98436 4.87437L3.93746 4.94333C3.72921 5.25782 3.54479 5.58746 3.38576 5.92949C3.07404 6.6129 2.86402 7.33825 2.76235 8.08248C2.66087 8.82216 2.65669 9.57195 2.74993 10.3127C2.83543 11.0573 3.04278 11.7828 3.3637 12.4602C3.68453 13.131 4.09772 13.7535 4.59122 14.3097C5.0819 14.8659 5.63441 15.3643 6.23804 15.7952C6.53953 16.0104 6.85263 16.2088 7.17592 16.3896C7.34281 16.4821 7.50831 16.5676 7.66968 16.642C7.83654 16.722 8.00839 16.7911 8.18414 16.8489C8.22936 16.8644 8.27541 16.8773 8.32207 16.8875L8.41034 16.9055L8.45585 16.9138L8.7317 16.9662C8.91238 17.002 9.09444 17.0379 9.27512 17.0765C9.64338 17.1524 10.0075 17.2324 10.3578 17.3124L10.2999 17.5661C9.94543 17.4861 9.56476 17.4006 9.18133 17.3206C8.98272 17.2779 8.7979 17.2406 8.61998 17.2062L8.34413 17.151C8.25032 17.1337 8.15807 17.1087 8.06828 17.0765C7.7099 16.9448 7.36376 16.7819 7.03385 16.5896C6.70036 16.401 6.378 16.1933 6.06839 15.9676C5.45131 15.5184 4.8893 14.998 4.39399 14.4173C3.89679 13.8392 3.48525 13.1926 3.17198 12.4974C2.86108 11.803 2.66676 11.0621 2.59684 10.3044C2.51866 9.54754 2.54185 8.78359 2.6658 8.03283Z" fill="#681D07"/>
<path d="M2.50924 8.0066C2.63893 7.24593 2.87965 6.50844 3.22369 5.81774C3.39566 5.47466 3.59394 5.14542 3.81676 4.83296C3.92713 4.67622 4.04544 4.52522 4.17123 4.38057C4.29559 4.23425 4.42919 4.09604 4.57121 3.9668L4.74085 4.16679C4.72586 4.17931 4.71158 4.19266 4.6981 4.20678L4.74223 4.16541C4.48409 4.42994 4.25307 4.71965 4.05261 5.03019C3.44727 5.95715 3.0562 7.0074 2.90785 8.10452C2.80834 8.83097 2.80462 9.56734 2.89681 10.2948C2.98184 11.0193 3.18449 11.725 3.49678 12.3843C3.8119 13.0416 4.21666 13.6519 4.69948 14.198C5.18477 14.7468 5.73129 15.2383 6.32836 15.6628C6.62446 15.8745 6.93204 16.0697 7.24969 16.2476C7.4083 16.3358 7.56968 16.42 7.73381 16.4958C7.89525 16.5722 8.06104 16.6389 8.23033 16.6958C8.27171 16.7082 8.31309 16.7206 8.35308 16.7303C8.39308 16.7399 8.43584 16.7468 8.48135 16.7551L8.7572 16.8075L9.302 16.9179C9.66612 16.9937 10.0275 17.0723 10.3902 17.1551L10.5419 17.1896L10.5061 17.3427L10.4481 17.5992L10.4123 17.7509L10.2606 17.7164C9.88818 17.6323 9.51716 17.5482 9.14477 17.4696L8.58479 17.3551L8.30895 17.3013C8.20819 17.2823 8.10905 17.2556 8.01241 17.2213C7.64409 17.0872 7.28864 16.9201 6.9504 16.722C6.61347 16.5304 6.28789 16.3195 5.97527 16.0903C5.34857 15.6333 4.77737 15.1047 4.27329 14.5152C3.7678 13.9253 3.34975 13.2657 3.03197 12.5567C2.71453 11.8463 2.51559 11.0888 2.44304 10.3141C2.36363 9.54534 2.38588 8.7695 2.50924 8.0066Z" fill="url(#paint0_linear_5112_20389)"/>
<path d="M24.6451 7.98002C24.5135 7.20391 24.2681 6.45147 23.9168 5.74703C23.7419 5.39641 23.5394 5.06019 23.3113 4.74156C23.1983 4.58156 23.0755 4.42571 22.9472 4.27675C22.819 4.12602 22.6808 3.9841 22.5335 3.85195L22.4079 3.74023L22.0162 4.2009L22.1542 4.29055C22.4003 4.54358 22.6203 4.82084 22.8107 5.11809C23.0089 5.41941 23.1841 5.73523 23.3348 6.06287C23.6342 6.71949 23.8354 7.41656 23.932 8.13173C24.0302 8.84487 24.0339 9.56786 23.943 10.282C23.86 10.9898 23.662 11.6793 23.3569 12.3232C23.0482 12.9673 22.6513 13.5652 22.1776 14.0997C21.4626 14.9059 20.6168 15.5857 19.6757 16.1106C19.5157 16.2003 19.3571 16.2817 19.2026 16.3534C19.0472 16.4276 18.8874 16.4921 18.724 16.5465C18.6785 16.5616 18.644 16.5713 18.6136 16.5782L18.5406 16.592L18.4909 16.6016L18.2151 16.6541C18.033 16.6899 17.8496 16.7271 17.6634 16.7658C17.2937 16.843 16.9269 16.923 16.5738 17.003L16.2676 17.0733L16.4676 17.9395L16.7737 17.8705C17.1268 17.7905 17.5061 17.705 17.8868 17.625C18.0854 17.5823 18.2675 17.5464 18.4385 17.5106L18.7143 17.4581C18.8233 17.4363 18.9306 17.4073 19.0357 17.3713C19.4127 17.2328 19.7768 17.0616 20.1239 16.8596C20.4658 16.6645 20.7964 16.4504 21.1142 16.2182C21.7509 15.7538 22.3309 15.2164 22.8424 14.6169C23.3592 14.0159 23.787 13.3438 24.1127 12.6212C24.4375 11.8958 24.6402 11.1217 24.7127 10.3302C24.7944 9.5473 24.7717 8.75697 24.6451 7.98002ZM24.4078 10.2999C24.3379 11.0575 24.1436 11.7985 23.8327 12.4929C23.5194 13.1881 23.1079 13.8347 22.6107 14.4128C22.1154 14.9935 21.5534 15.5139 20.9363 15.9631C20.6267 16.1888 20.3043 16.3964 19.9708 16.5851C19.6409 16.7773 19.2948 16.9402 18.9364 17.072C18.8466 17.1042 18.7544 17.1291 18.6606 17.1464L18.3847 17.2016C18.2068 17.2361 18.0233 17.2733 17.8233 17.3161C17.4399 17.3961 17.0593 17.4816 16.7048 17.5616L16.6469 17.3078C16.9972 17.2278 17.3627 17.1478 17.7296 17.072C17.9102 17.0333 18.0923 16.9975 18.273 16.9616L18.5488 16.9092L18.5944 16.9009L18.6826 16.883C18.7293 16.8727 18.7753 16.8598 18.8205 16.8444C18.9962 16.7863 19.168 16.7172 19.335 16.6375C19.4964 16.563 19.6633 16.4775 19.8288 16.3851C20.1521 16.2043 20.4652 16.0058 20.7667 15.7907C21.3703 15.3597 21.9228 14.8614 22.4135 14.3052C22.907 13.749 23.3202 13.1264 23.641 12.4556C23.9614 11.7814 24.1692 11.0592 24.2561 10.3178C24.3486 9.57701 24.3445 8.82733 24.2437 8.08759C24.1421 7.34336 23.932 6.61801 23.6203 5.9346C23.4618 5.5923 23.2774 5.26262 23.0686 4.94844L23.0217 4.87948C23.0331 4.89362 23.0436 4.90835 23.0534 4.92362C23.2717 5.22992 23.4658 5.55272 23.6341 5.88908C23.9716 6.56562 24.2073 7.28834 24.3334 8.0338C24.4587 8.78251 24.4837 9.54458 24.4078 10.2999Z" fill="#681D07"/>
<path d="M24.4913 8.0066C24.3617 7.24593 24.1209 6.50844 23.7769 5.81774C23.6049 5.47466 23.4066 5.14542 23.1838 4.83296C23.0734 4.67622 22.9551 4.52522 22.8293 4.38057C22.705 4.23425 22.5714 4.09604 22.4294 3.9668L22.2597 4.16679C22.2747 4.17931 22.289 4.19266 22.3025 4.20678L22.2583 4.16541C22.5173 4.42921 22.7484 4.719 22.948 5.03019C23.1506 5.33797 23.3295 5.66073 23.4831 5.99566C23.7893 6.66429 23.9952 7.37442 24.0941 8.10314C24.1936 8.82959 24.1973 9.56596 24.1051 10.2934C24.0201 11.0179 23.8175 11.7237 23.5052 12.3829C23.1906 13.0405 22.7858 13.6509 22.3025 14.1966C21.8173 14.7459 21.2707 15.2378 20.6736 15.6628C20.3775 15.8745 20.0699 16.0697 19.7523 16.2476C19.5936 16.3358 19.4323 16.42 19.2682 16.4958C19.1067 16.5722 18.9409 16.6389 18.7716 16.6958C18.7302 16.7082 18.6889 16.7206 18.6489 16.7303C18.6089 16.7399 18.5661 16.7468 18.5206 16.7551L18.2448 16.8075L17.6931 16.9179C17.3289 16.9937 16.9676 17.0723 16.6048 17.1551L16.4531 17.1896L16.489 17.3427L16.5469 17.5992L16.5828 17.7509L16.7345 17.7164C17.1069 17.6323 17.4779 17.5482 17.8503 17.4696L18.4103 17.3551L18.6861 17.3013C18.7869 17.2823 18.886 17.2556 18.9826 17.2213C19.351 17.0872 19.7064 16.9201 20.0447 16.722C20.3816 16.5304 20.7072 16.3195 21.0198 16.0903C21.6465 15.6333 22.2177 15.1047 22.7218 14.5152C23.2273 13.9253 23.6453 13.2657 23.9631 12.5567C24.2805 11.8463 24.4795 11.0888 24.552 10.3141C24.6333 9.54558 24.6129 8.76975 24.4913 8.0066Z" fill="url(#paint1_linear_5112_20389)"/>
<path d="M19.3126 17.4995C19.2915 17.4673 19.2722 17.4342 19.2547 17.4002L19.2285 17.3492L19.2423 17.2926C19.252 17.2526 19.4947 16.3079 20.8974 15.8651C22.3001 15.4224 23.558 16.2265 23.6117 16.261L23.7579 16.3548L23.6504 16.4927C23.2388 16.9824 22.7501 17.4017 22.2035 17.734C21.0257 18.4346 19.7568 18.1781 19.3126 17.4995ZM19.565 17.3119L19.5761 17.3285C19.9333 17.8802 21.0353 18.0636 22.0463 17.4664C22.5076 17.1852 22.9257 16.8387 23.2876 16.4375C22.9221 16.2513 21.9787 15.8582 20.9995 16.1617C19.9402 16.4968 19.6354 17.1216 19.5692 17.3119H19.565Z" fill="#681D07"/>
<path d="M19.3965 17.3285C19.3965 17.3285 19.6103 16.4361 20.9481 16.0155C22.286 15.5948 23.5301 16.3934 23.5301 16.3934C23.1311 16.8691 22.6573 17.2767 22.1274 17.6002C21.0212 18.2526 19.7537 18.0292 19.3965 17.3285Z" fill="url(#paint2_linear_5112_20389)"/>
<g style="mix-blend-mode:overlay" opacity="0.49">
<path d="M23.3661 16.3907C23.3661 16.3907 21.8779 15.7149 20.8435 16.2528C19.8091 16.7907 20.4559 17.8141 21.1842 17.77C21.9124 17.7258 23.4475 16.5218 23.3661 16.3907Z" fill="white"/>
</g>
<g style="mix-blend-mode:overlay" opacity="0.49">
<path d="M23.2212 16.4473C23.2212 16.4473 22.1785 17.3245 21.6847 17.2542C21.191 17.1838 21.0696 16.4887 21.5303 16.1963C21.9909 15.9039 23.2212 16.4473 23.2212 16.4473Z" fill="white"/>
</g>
<path d="M22.4328 15.0612C22.4052 15.0336 22.379 15.0046 22.3542 14.9756L22.3184 14.9301V14.8722C22.3184 14.8308 22.357 13.8571 23.6369 13.1261C24.9168 12.3951 26.314 12.9164 26.3733 12.9385L26.5361 12.9992L26.4671 13.1495C26.1685 13.7143 25.78 14.2267 25.3168 14.6667C24.3031 15.6115 23.0094 15.6322 22.4328 15.0612ZM22.6397 14.8226L22.6535 14.8363C23.1169 15.2929 24.2341 15.2501 25.0962 14.4474C25.4855 14.0744 25.8195 13.6476 26.0878 13.1799C25.6906 13.0751 24.6851 12.8902 23.7928 13.3992C22.8328 13.9467 22.6673 14.6226 22.6397 14.8226Z" fill="#681D07"/>
<path d="M22.4766 14.8765C22.4766 14.8765 22.4973 13.958 23.7179 13.2628C24.9385 12.5677 26.3205 13.0863 26.3205 13.0863C26.0311 13.6359 25.6543 14.1348 25.2047 14.5635C24.2599 15.4379 22.9731 15.4848 22.4766 14.8765Z" fill="url(#paint3_linear_5112_20389)"/>
<g style="mix-blend-mode:overlay" opacity="0.49">
<path d="M26.1581 13.1181C26.1581 13.1181 24.5609 12.7719 23.6644 13.5195C22.7679 14.267 23.6162 15.1291 24.3182 14.9236C25.0202 14.718 26.2657 13.2285 26.1581 13.1181Z" fill="white"/>
</g>
<g style="mix-blend-mode:overlay" opacity="0.49">
<path d="M26.0267 13.2034C26.0267 13.2034 25.1991 14.2819 24.6971 14.3178C24.1951 14.3537 23.933 13.6999 24.3219 13.3165C24.7109 12.933 26.0267 13.2034 26.0267 13.2034Z" fill="white"/>
</g>
<path d="M24.6725 11.3869C24.6408 11.3773 24.6077 11.3662 24.5773 11.3538L24.5304 11.3345L24.507 11.289C24.4904 11.2573 24.1125 10.4863 24.8008 9.38565C25.489 8.28502 26.7882 8.10571 26.8434 8.09882L26.9951 8.07812V8.23123C27.0011 8.79327 26.9145 9.35246 26.7386 9.88631C26.3524 11.0338 25.3621 11.5869 24.6725 11.3869ZM24.7345 11.1111H24.7511C25.3028 11.2711 26.1483 10.769 26.4821 9.78977C26.6293 9.33855 26.7106 8.86843 26.7234 8.39398C26.3703 8.47811 25.5152 8.75396 25.0352 9.52081C24.518 10.3566 24.6725 10.9497 24.7332 11.1166L24.7345 11.1111Z" fill="#681D07"/>
<path d="M24.6297 11.2255C24.6297 11.2255 24.2629 10.5056 24.918 9.45874C25.5731 8.41189 26.8627 8.23535 26.8627 8.23535C26.8672 8.7823 26.7829 9.32635 26.6131 9.8463C26.2476 10.9166 25.2697 11.4945 24.6297 11.2255Z" fill="url(#paint4_linear_5112_20389)"/>
<g style="mix-blend-mode:overlay" opacity="0.49">
<path d="M26.7495 8.32227C26.7495 8.32227 25.3702 8.71949 24.984 9.67392C24.5979 10.6284 25.6171 10.9401 26.0764 10.4891C26.5357 10.038 26.8791 8.36778 26.7495 8.32227Z" fill="white"/>
</g>
<g style="mix-blend-mode:overlay" opacity="0.49">
<path d="M26.6852 8.44775C26.6852 8.44775 26.4893 9.63115 26.1183 9.867C25.7473 10.1028 25.2673 9.70701 25.4108 9.24772C25.5542 8.78843 26.6852 8.44775 26.6852 8.44775Z" fill="white"/>
</g>
<path d="M24.6648 8.02567C24.6317 8.02567 24.5973 8.03533 24.5642 8.03809H24.5131L24.4718 8.00774C24.4428 7.98568 23.7628 7.45605 23.8911 6.17198C24.0194 4.8879 25.1048 4.14311 25.1503 4.11139L25.2772 4.02588L25.3503 4.1638C25.6051 4.66646 25.7761 5.20735 25.8565 5.76511C26.0137 6.96229 25.3627 7.90844 24.6648 8.02567ZM24.6 7.74983H24.6166C25.1807 7.64914 25.72 6.82298 25.582 5.79821C25.5135 5.32868 25.3774 4.87155 25.1779 4.44103C24.9021 4.67136 24.2552 5.29892 24.1656 6.19956C24.0704 7.17055 24.4704 7.6326 24.6 7.75535V7.74983Z" fill="#681D07"/>
<path d="M24.5546 7.90014C24.5546 7.90014 23.9064 7.41741 24.0291 6.1885C24.1519 4.9596 25.2277 4.22998 25.2277 4.22998C25.4748 4.71762 25.641 5.24211 25.7201 5.78301C25.8663 6.90571 25.2443 7.85186 24.5546 7.90014Z" fill="url(#paint5_linear_5112_20389)"/>
<g style="mix-blend-mode:overlay" opacity="0.49">
<path d="M25.1699 4.36103C25.1699 4.36103 24.1079 5.32649 24.1879 6.35541C24.2679 7.38432 25.3175 7.21054 25.5285 6.6023C25.7395 5.99405 25.3037 4.34034 25.1699 4.36103Z" fill="white"/>
</g>
<g style="mix-blend-mode:overlay" opacity="0.49">
<path d="M25.1642 4.49756C25.1642 4.49756 25.5145 5.64509 25.2869 6.01472C25.0594 6.38436 24.4594 6.24919 24.3766 5.77474C24.2939 5.30028 25.1642 4.49756 25.1642 4.49756Z" fill="white"/>
</g>
<path d="M13.363 18.4307C8.2888 18.4307 4.16211 14.4089 4.16211 9.46568C4.16211 9.42569 4.16211 9.38707 4.16211 9.34707V9.28776H4.53589H4.16211C4.25728 4.84661 7.73848 1.10335 12.2596 0.577861H12.2927C12.4541 0.558552 12.6306 0.543387 12.7989 0.533733H12.8293C13.0155 0.524078 13.1892 0.518555 13.3589 0.518555H13.4872C13.614 0.518555 13.7396 0.518557 13.8637 0.529591C13.9602 0.529591 14.0554 0.542007 14.1519 0.550283H14.2057L14.3437 0.561311C14.4609 0.573724 14.5809 0.588897 14.6995 0.605447L14.7974 0.620617C17.1283 0.963838 19.2387 2.18812 20.6937 4.04114L21.0964 4.62456C21.3802 5.0534 21.6262 5.50612 21.8316 5.97759C22.2861 7.0232 22.5312 8.14782 22.5529 9.28776V9.34707C22.5529 9.38983 22.5529 9.43258 22.5529 9.47672C22.5584 14.4089 18.4317 18.4307 13.363 18.4307ZM5.4255 9.30432C5.4255 9.33466 5.4255 9.36363 5.4255 9.39397C5.4255 9.42431 5.4255 9.44224 5.4255 9.46706C5.4255 13.7151 8.98808 17.1715 13.3672 17.1715C17.7463 17.1715 21.3088 13.7151 21.3088 9.46706C21.3088 9.4381 21.3088 9.40914 21.3088 9.38017V9.3057C21.284 8.32935 21.068 7.36733 20.673 6.47411C20.4143 5.88331 20.0825 5.32728 19.6855 4.81902L19.4 4.45491C18.1576 3.05116 16.459 2.13175 14.6043 1.85918L14.5202 1.84676C14.4195 1.83297 14.3161 1.81918 14.2099 1.80815L14.1023 1.79849H14.0595C13.9589 1.79022 13.8775 1.78332 13.7947 1.77918C13.6844 1.77918 13.5754 1.77091 13.4665 1.76953H13.3396C13.2099 1.76953 13.0637 1.76953 12.8927 1.78332H12.8637C12.7162 1.7916 12.5644 1.80539 12.4141 1.82332H12.3838C8.50534 2.27295 5.50135 5.49072 5.42136 9.30432H5.4255Z" fill="#681D07"/>
<path d="M13.3978 1.67725C8.98424 1.67725 5.37891 5.17224 5.37891 9.46719C5.37891 13.7621 8.97735 17.2585 13.4006 17.2585C17.8238 17.2585 21.4002 13.7759 21.4209 9.49616V9.47133C21.4244 7.76364 20.8509 6.10483 19.7933 4.76399L19.5175 4.40814C18.7986 3.59527 17.9234 2.93551 16.944 2.46822C15.9647 2.00093 14.9012 1.73568 13.8171 1.68828H13.795H13.6199H13.3992L13.3978 1.67725Z" fill="url(#paint6_linear_5112_20389)"/>
<path d="M21.9707 9.46715C21.9707 14.0697 18.1337 17.8005 13.4001 17.8005C8.66655 17.8005 4.82812 14.0697 4.82812 9.46715C4.82812 4.86463 8.66655 1.13379 13.4001 1.13379C18.1337 1.13379 21.9707 4.86463 21.9707 9.46715Z" fill="url(#paint7_linear_5112_20389)"/>
<g style="mix-blend-mode:overlay" opacity="0.49">
<path d="M13.4001 1.13379C8.66655 1.13379 4.82813 4.85773 4.82813 9.46715C4.82813 9.56922 4.82812 9.66852 4.8364 9.76921C7.01974 11.6726 10.0265 12.8504 13.3436 12.8504C16.7213 12.8504 19.7736 11.6312 21.9652 9.66853C21.9652 9.60094 21.9652 9.5306 21.9652 9.46715C21.9707 4.86463 18.1337 1.13379 13.4001 1.13379Z" fill="white"/>
</g>
<g style="mix-blend-mode:overlay" opacity="0.49">
<path d="M20.2412 4.42442C19.4218 3.39412 18.3798 2.56278 17.1932 1.99279C16.0066 1.4228 14.7063 1.12897 13.3899 1.13335C12.0735 1.13773 10.7752 1.4402 9.59237 2.01807C8.40959 2.59594 7.37305 3.43421 6.56055 4.46994C8.637 5.68525 11.0012 6.32201 13.4071 6.31401C15.8131 6.30601 18.1729 5.65352 20.2412 4.42442Z" fill="white"/>
</g>
<g style="mix-blend-mode:overlay" opacity="0.49">
<path d="M13.4001 1.61101C18.0509 1.61101 21.8342 5.21358 21.9638 9.70577C21.9638 9.62715 21.9707 9.54715 21.9707 9.46715C21.9707 4.86463 18.1337 1.13379 13.4001 1.13379C8.66655 1.13379 4.82812 4.85773 4.82812 9.46715C4.82812 9.54715 4.82812 9.62715 4.82812 9.70577C4.96467 5.21358 8.74793 1.61101 13.4001 1.61101Z" fill="white"/>
</g>
<g style="mix-blend-mode:overlay" opacity="0.49">
<path d="M13.4018 17.4488C8.72896 17.4488 4.93191 13.8118 4.83398 9.29199C4.83398 9.34992 4.83398 9.40784 4.83398 9.46715C4.83398 14.0697 8.6724 17.8005 13.406 17.8005C18.1395 17.8005 21.9765 14.0697 21.9765 9.46715C21.9765 9.40784 21.9765 9.34992 21.9765 9.29199C21.8703 13.8118 18.0733 17.4488 13.4018 17.4488Z" fill="white"/>
</g>
<path d="M13.399 16.2668C17.261 16.2668 20.3917 13.2225 20.3917 9.46713C20.3917 5.71179 17.261 2.66748 13.399 2.66748C9.53701 2.66748 6.40625 5.71179 6.40625 9.46713C6.40625 13.2225 9.53701 16.2668 13.399 16.2668Z" fill="url(#paint8_linear_5112_20389)"/>
<path d="M13.4015 2.66753C12.4322 2.66387 11.4726 2.85975 10.5823 3.24296C9.69202 3.62617 8.89014 4.18852 8.22656 4.89501C9.53186 3.7191 11.2281 3.07109 12.9849 3.07716C16.8468 3.07716 19.9777 6.12115 19.9777 9.87682C19.977 11.5772 19.3262 13.213 18.1585 14.449C18.8611 13.8228 19.4237 13.0554 19.8097 12.197C20.1957 11.3385 20.3962 10.4084 20.3984 9.46718C20.3984 5.71289 17.2633 2.66753 13.4015 2.66753Z" fill="url(#paint9_linear_5112_20389)"/>
<g style="mix-blend-mode:multiply" opacity="0.43">
<path d="M9.04474 13.489C9.04474 9.73471 12.1756 6.69072 16.0375 6.69072C17.5479 6.68621 19.0202 7.16412 20.24 8.05479C19.5725 4.97771 16.763 2.66748 13.399 2.66748C9.53713 2.66748 6.40625 5.71284 6.40625 9.46713C6.40935 10.5291 6.66378 11.5752 7.14874 12.5199C7.63369 13.4647 8.33539 14.2812 9.19645 14.9027C9.09539 14.4383 9.04453 13.9643 9.04474 13.489Z" fill="#DB5800"/>
</g>
<path d="M13.4013 15.8958C9.60563 15.8958 6.52026 12.9553 6.41406 9.29199C6.41406 9.35682 6.41406 9.42026 6.41406 9.48646C6.41406 13.2421 9.54356 16.2861 13.4068 16.2861C17.2701 16.2861 20.3996 13.2421 20.3996 9.48646C20.3996 9.42026 20.3996 9.35682 20.3996 9.29199C20.2809 12.9553 17.1956 15.8958 13.4013 15.8958Z" fill="url(#paint10_linear_5112_20389)"/>
<path d="M12.2488 1.68114C12.6488 1.65079 13.0598 1.80251 12.8598 1.9763C12.6598 2.15008 11.3123 2.92798 10.7234 2.44662C10.1344 1.96527 11.7799 1.717 12.2488 1.68114Z" fill="white"/>
<path d="M7.61234 3.80121C6.36275 4.85081 5.35453 6.79279 5.37936 7.92652C5.40418 9.06026 6.01105 7.28104 6.32414 6.63693C6.63723 5.99283 8.20128 4.01637 9.33501 3.42606C10.4687 2.83575 9.56535 2.15716 7.61234 3.80121Z" fill="white"/>
<path d="M18.9048 17.0568C18.8662 17.0589 18.8275 17.0589 18.7889 17.0568H18.731L18.6896 17.0154C18.6592 16.9879 17.9682 16.301 18.2979 14.8638C18.6275 13.4266 19.953 12.7522 20.0136 12.7232L20.1695 12.646L20.2316 12.8074C20.4474 13.4107 20.563 14.0452 20.5736 14.6859C20.5778 16.0527 19.7075 17.0113 18.9048 17.0568ZM18.8689 16.7423H18.8896C19.5392 16.7106 20.2688 15.8569 20.2578 14.6818C20.2487 14.1428 20.1614 13.6081 19.9985 13.0942C19.6509 13.3149 18.8358 13.9218 18.6055 14.93C18.3572 16.0072 18.742 16.5865 18.8689 16.7423Z" fill="#681D07"/>
<path d="M18.7982 16.8983C18.7982 16.8983 18.1376 16.2611 18.4521 14.8942C18.7665 13.5274 20.0851 12.8599 20.0851 12.8599C20.2929 13.4454 20.4047 14.0606 20.4161 14.6818C20.4189 15.9673 19.5817 16.9452 18.7982 16.8983Z" fill="url(#paint11_linear_5112_20389)"/>
<g style="mix-blend-mode:overlay" opacity="0.49">
<path d="M20.0004 13.0005C20.0004 13.0005 18.6639 13.9398 18.6074 15.1066C18.5508 16.2734 19.7577 16.2321 20.0818 15.5769C20.4059 14.9218 20.1549 12.995 20.0004 13.0005Z" fill="white"/>
</g>
<g style="mix-blend-mode:overlay" opacity="0.49">
<path d="M19.9763 13.1494C19.9763 13.1494 20.2053 14.4928 19.8936 14.8831C19.5819 15.2734 18.9281 15.021 18.9047 14.4804C18.8812 13.9397 19.9763 13.1494 19.9763 13.1494Z" fill="white"/>
</g>
<path d="M22.3582 14.5634C22.3256 14.5842 22.2915 14.6026 22.2562 14.6185L22.2038 14.6448L22.1486 14.6296C22.1086 14.6185 21.1707 14.3537 20.7693 12.9345C20.368 11.5153 21.1997 10.2836 21.2355 10.2312L21.3321 10.0933L21.47 10.205C21.9509 10.6281 22.3586 11.1276 22.6768 11.6835C23.3361 12.8738 23.0465 14.1372 22.3582 14.5634ZM22.1762 14.3068L22.1927 14.2958C22.7444 13.9538 22.9651 12.8573 22.3941 11.8311C22.1247 11.3638 21.7893 10.9379 21.3983 10.5663C21.2011 10.9277 20.7845 11.8601 21.0673 12.8476C21.3721 13.911 21.9872 14.231 22.1762 14.3068Z" fill="#681D07"/>
<path d="M22.1898 14.4765C22.1898 14.4765 21.3029 14.2392 20.9167 12.8917C20.5306 11.5442 21.3622 10.3208 21.3622 10.3208C21.8275 10.732 22.223 11.2159 22.5332 11.7538C23.1553 12.8738 22.8973 14.1372 22.1898 14.4765Z" fill="url(#paint12_linear_5112_20389)"/>
<g style="mix-blend-mode:overlay" opacity="0.49">
<path d="M21.3542 10.4833C21.3542 10.4833 20.6384 11.9522 21.1528 13.0004C21.6673 14.0487 22.7045 13.4294 22.67 12.6984C22.6355 11.9674 21.4866 10.4047 21.3542 10.4833Z" fill="white"/>
</g>
<g style="mix-blend-mode:overlay" opacity="0.49">
<path d="M21.4074 10.6313C21.4074 10.6313 22.257 11.6961 22.1742 12.1871C22.0915 12.6781 21.3922 12.783 21.1136 12.3154C20.835 11.8478 21.4074 10.6313 21.4074 10.6313Z" fill="white"/>
</g>
<path d="M24.18 7.97594C24.1662 8.00629 24.151 8.03664 24.1345 8.06698L24.1097 8.11111L24.0614 8.12904C24.0269 8.14145 23.2173 8.4242 22.2063 7.61045C21.1953 6.7967 21.1733 5.48366 21.1719 5.42849V5.27539L21.3236 5.28781C21.884 5.34899 22.4306 5.50183 22.9414 5.7402C24.0283 6.26431 24.46 7.31943 24.18 7.97594ZM23.9179 7.88216C23.9172 7.87713 23.9172 7.87202 23.9179 7.86699C24.1428 7.33874 23.7442 6.4381 22.8146 5.98984C22.384 5.79019 21.9269 5.65362 21.4574 5.58435C21.4987 5.94433 21.6712 6.82566 22.3746 7.39391C23.1387 8.00491 23.7442 7.92353 23.9179 7.88216Z" fill="#681D07"/>
<path d="M24.0158 7.99801C24.0158 7.99801 23.2558 8.27385 22.2945 7.50148C21.3332 6.7291 21.3125 5.43262 21.3125 5.43262C21.8561 5.49313 22.3862 5.64174 22.8821 5.8726C23.9013 6.35671 24.3537 7.39528 24.0158 7.99801Z" fill="url(#paint13_linear_5112_20389)"/>
<g style="mix-blend-mode:overlay" opacity="0.49">
<path d="M21.3887 5.54709C21.3887 5.54709 21.619 6.96633 22.521 7.46147C23.4231 7.95662 23.8548 6.98287 23.4603 6.47393C23.0658 5.96499 21.4452 5.42571 21.3887 5.54709Z" fill="white"/>
</g>
<g style="mix-blend-mode:overlay" opacity="0.49">
<path d="M21.502 5.62744C21.502 5.62744 22.655 5.9626 22.844 6.35844C23.0329 6.75428 22.5833 7.18598 22.1447 6.98737C21.7061 6.78876 21.502 5.62744 21.502 5.62744Z" fill="white"/>
</g>
<path d="M23.206 4.5985C23.1924 4.62965 23.1773 4.66004 23.1604 4.68953L23.1356 4.73367L23.0873 4.7516C23.0529 4.76401 22.2433 5.04675 21.2323 4.233C20.2213 3.41925 20.1992 2.1076 20.1992 2.05105V1.89795L20.3523 1.91037C20.9122 1.9718 21.4583 2.12462 21.9688 2.36275C23.0542 2.88411 23.4859 3.93785 23.206 4.5985ZM22.9439 4.50472C22.9441 4.49966 22.9441 4.4946 22.9439 4.48955C23.1687 3.96268 22.7701 3.06203 21.8405 2.61239C21.4097 2.41338 20.9527 2.27684 20.4833 2.2069C20.5247 2.56826 20.6971 3.44821 21.4005 4.01784C22.1646 4.62333 22.7701 4.54195 22.9439 4.50057V4.50472Z" fill="#681D07"/>
<path d="M23.0392 4.61764C23.0392 4.61764 22.2793 4.89348 21.318 4.12111C20.3566 3.34873 20.3359 2.05225 20.3359 2.05225C20.8795 2.11186 21.4097 2.26002 21.9055 2.49084C22.9248 2.97496 23.3772 4.01353 23.0392 4.61764Z" fill="url(#paint14_linear_5112_20389)"/>
<g style="mix-blend-mode:overlay" opacity="0.49">
<path d="M20.4141 2.16513C20.4141 2.16513 20.6444 3.58574 21.5464 4.07951C22.4484 4.57328 22.8801 3.6023 22.4857 3.09198C22.0912 2.58166 20.4706 2.04237 20.4141 2.16513Z" fill="white"/>
</g>
<g style="mix-blend-mode:overlay" opacity="0.49">
<path d="M20.5273 2.24512C20.5273 2.24512 21.679 2.58027 21.868 2.97611C22.0569 3.37195 21.6073 3.80366 21.1687 3.60643C20.7301 3.4092 20.5273 2.24512 20.5273 2.24512Z" fill="white"/>
</g>
<path d="M24.1972 11.4655C24.1765 11.493 24.1558 11.5206 24.1338 11.5455L24.1007 11.5841L24.0496 11.5923C24.0138 11.5923 23.1628 11.7096 22.3394 10.7055C21.516 9.70141 21.7628 8.4132 21.7725 8.36079L21.8028 8.21045L21.949 8.25321C22.485 8.42777 22.9887 8.68916 23.44 9.02696C24.3972 9.76071 24.6055 10.8807 24.1972 11.4655ZM23.96 11.3275L23.9696 11.3124C24.2979 10.8434 24.0924 9.87933 23.2717 9.25039C22.8922 8.96756 22.4742 8.74045 22.0304 8.57595C21.9973 8.93731 21.9863 9.83657 22.5601 10.5358C23.1711 11.282 23.7807 11.3262 23.96 11.322V11.3275Z" fill="#681D07"/>
<path d="M24.0308 11.4546C24.0308 11.4546 23.2308 11.5732 22.4474 10.6174C21.664 9.66154 21.9095 8.38574 21.9095 8.38574C22.4291 8.55554 22.9177 8.80846 23.3563 9.13467C24.2597 9.82429 24.4845 10.9332 24.0308 11.4546Z" fill="url(#paint15_linear_5112_20389)"/>
<g style="mix-blend-mode:overlay" opacity="0.49">
<path d="M21.9623 8.51941C21.9623 8.51941 21.8974 9.95658 22.6781 10.6241C23.4587 11.2917 24.0822 10.4283 23.8008 9.849C23.5194 9.26972 22.0409 8.40907 21.9623 8.51941Z" fill="white"/>
</g>
<g style="mix-blend-mode:overlay" opacity="0.49">
<path d="M22.0519 8.62012C22.0519 8.62012 23.1112 9.18423 23.216 9.61042C23.3208 10.0366 22.7926 10.3635 22.4023 10.0835C22.0119 9.80351 22.0519 8.62012 22.0519 8.62012Z" fill="white"/>
</g>
<path d="M4.79464 17.7355C4.24797 17.4038 3.75963 16.9844 3.3492 16.4942L3.24023 16.3562L3.38643 16.2624C3.44022 16.228 4.70913 15.4349 6.10079 15.8666C7.49244 16.2983 7.74898 17.2541 7.75587 17.2941L7.76966 17.3507L7.74346 17.4017C7.72599 17.4366 7.70668 17.4697 7.68553 17.501C7.24417 18.1782 5.97527 18.4347 4.79464 17.7355ZM6.00562 16.1659C5.02636 15.8569 4.08295 16.25 3.71745 16.4417C4.07933 16.8429 4.49745 17.1895 4.95877 17.4707C5.96975 18.0693 7.07176 17.8844 7.42899 17.3327L7.44002 17.3162C7.36554 17.1217 7.06074 16.4969 6.00562 16.1659Z" fill="#681D07"/>
<path d="M7.60428 17.3285C7.60428 17.3285 7.3905 16.4361 6.05264 16.0155C4.71477 15.5948 3.4707 16.3934 3.4707 16.3934C3.87012 16.8687 4.3438 17.2762 4.87339 17.6002C5.97954 18.2526 7.24706 18.0292 7.60428 17.3285Z" fill="url(#paint16_linear_5112_20389)"/>
<g style="mix-blend-mode:overlay" opacity="0.49">
<path d="M3.63397 16.3907C3.63397 16.3907 5.12217 15.7149 6.1566 16.2528C7.19103 16.7907 6.54417 17.8141 5.81593 17.77C5.08769 17.7258 3.5526 16.5218 3.63397 16.3907Z" fill="white"/>
</g>
<g style="mix-blend-mode:overlay" opacity="0.49">
<path d="M3.78125 16.4473C3.78125 16.4473 4.82395 17.3245 5.31772 17.2542C5.81148 17.1838 5.93287 16.4887 5.4722 16.1963C5.01153 15.9039 3.78125 16.4473 3.78125 16.4473Z" fill="white"/>
</g>
<path d="M1.6926 14.6778C1.22646 14.2349 0.836017 13.7187 0.536794 13.1496L0.460938 12.9937L0.623687 12.933C0.682994 12.9109 2.09257 12.3979 3.36009 13.1206C4.62762 13.8433 4.67728 14.8253 4.67866 14.8667V14.9246L4.64279 14.9702C4.61797 14.9991 4.59176 15.0281 4.56556 15.0557C3.99317 15.6322 2.69944 15.6115 1.6926 14.6778ZM3.20976 13.3992C2.31739 12.8903 1.31193 13.0751 0.914704 13.1799C1.18305 13.6476 1.517 14.0744 1.90638 14.4474C2.7684 15.246 3.88559 15.2929 4.34902 14.8364L4.3628 14.8226C4.33522 14.6226 4.16971 13.9468 3.20976 13.3992Z" fill="#681D07"/>
<path d="M4.52753 14.8765C4.52753 14.8765 4.50547 13.958 3.28622 13.2628C2.06697 12.5677 0.683594 13.0863 0.683594 13.0863C0.972954 13.6359 1.34982 14.1348 1.7994 14.5635C2.74418 15.4379 4.02963 15.4848 4.52753 14.8765Z" fill="url(#paint17_linear_5112_20389)"/>
<g style="mix-blend-mode:overlay" opacity="0.49">
<path d="M0.84443 13.1181C0.84443 13.1181 2.44159 12.7719 3.3381 13.5195C4.2346 14.267 3.38637 15.1291 2.68434 14.9236C1.98231 14.718 0.73685 13.2285 0.84443 13.1181Z" fill="white"/>
</g>
<g style="mix-blend-mode:overlay" opacity="0.49">
<path d="M0.974609 13.2034C0.974609 13.2034 1.80216 14.2819 2.3042 14.3178C2.80624 14.3537 3.06829 13.6999 2.67935 13.3165C2.2904 12.933 0.974609 13.2034 0.974609 13.2034Z" fill="white"/>
</g>
<path d="M0.260736 9.8907C0.0848533 9.35685 -0.00181961 8.79766 0.00419952 8.23561V8.08252L0.155913 8.1032C0.211082 8.1032 1.51722 8.30044 2.19857 9.39004C2.87991 10.4796 2.5089 11.2617 2.49235 11.2934L2.4689 11.3389L2.422 11.3582C2.39166 11.3706 2.35856 11.3817 2.32683 11.3913C1.63997 11.5872 0.648303 11.0341 0.260736 9.8907ZM1.96962 9.5321C1.48964 8.76524 0.634514 8.48939 0.281428 8.40526C0.294267 8.87971 0.375562 9.34983 0.522795 9.80105C0.856571 10.7803 1.70342 11.2824 2.25374 11.1224H2.27029C2.3296 10.95 2.48269 10.3569 1.96686 9.5321H1.96962Z" fill="#681D07"/>
<path d="M2.37183 11.2255C2.37183 11.2255 2.7387 10.5056 2.08356 9.45874C1.42842 8.41189 0.138839 8.23535 0.138839 8.23535C0.134396 8.7823 0.218705 9.32635 0.388481 9.8463C0.753979 10.9166 1.73186 11.4945 2.37183 11.2255Z" fill="url(#paint18_linear_5112_20389)"/>
<g style="mix-blend-mode:overlay" opacity="0.49">
<path d="M0.251818 8.32227C0.251818 8.32227 1.63106 8.71949 2.01724 9.67392C2.40343 10.6284 1.38417 10.9401 0.924888 10.4891C0.465601 10.038 0.123549 8.36778 0.251818 8.32227Z" fill="white"/>
</g>
<g style="mix-blend-mode:overlay" opacity="0.49">
<path d="M0.316406 8.44775C0.316406 8.44775 0.512256 9.63115 0.883272 9.867C1.25429 10.1028 1.73288 9.70701 1.59082 9.24772C1.44876 8.78843 0.316406 8.44775 0.316406 8.44775Z" fill="white"/>
</g>
<path d="M1.14475 5.76511C1.22519 5.20735 1.39617 4.66646 1.65094 4.1638L1.72403 4.02588L1.85093 4.11139C1.89782 4.14311 2.98328 4.89342 3.11017 6.17198C3.23706 7.45053 2.55848 7.98568 2.52951 8.00774L2.48814 8.03809H2.43711C2.404 8.03809 2.36952 8.03119 2.33642 8.02567C1.6399 7.90844 0.987516 6.96229 1.14475 5.76511ZM2.8357 6.20232C2.74605 5.30168 2.10195 4.67413 1.82334 4.44379C1.62384 4.87431 1.48772 5.33144 1.41923 5.80096C1.2813 6.82574 1.82058 7.6519 2.38469 7.75259H2.40124C2.53089 7.63259 2.93087 7.17055 2.8357 6.20232Z" fill="#681D07"/>
<path d="M2.44673 7.90014C2.44673 7.90014 3.09497 7.41741 2.97222 6.1885C2.84947 4.9596 1.77366 4.22998 1.77366 4.22998C1.52662 4.71762 1.36033 5.24211 1.28128 5.78301C1.13508 6.90571 1.75711 7.85186 2.44673 7.90014Z" fill="url(#paint19_linear_5112_20389)"/>
<g style="mix-blend-mode:overlay" opacity="0.49">
<path d="M1.83136 4.36103C1.83136 4.36103 2.89475 5.32649 2.81338 6.35541C2.732 7.38432 1.68378 7.21054 1.47275 6.6023C1.26173 5.99405 1.69757 4.34034 1.83136 4.36103Z" fill="white"/>
</g>
<g style="mix-blend-mode:overlay" opacity="0.49">
<path d="M1.83711 4.49756C1.83711 4.49756 1.48816 5.64509 1.71573 6.01472C1.94331 6.38436 2.54328 6.24919 2.62466 5.77474C2.70603 5.30028 1.83711 4.49756 1.83711 4.49756Z" fill="white"/>
</g>
<path d="M6.42775 14.682C6.4384 14.0413 6.55395 13.4067 6.7698 12.8035L6.83187 12.6421L6.98772 12.7193C7.04427 12.7483 8.37524 13.4379 8.7035 14.8599C9.03175 16.2819 8.34213 16.9839 8.31317 17.0115L8.27041 17.0529H8.21249C8.1739 17.055 8.13522 17.055 8.09663 17.0529C7.29529 17.0115 6.42361 16.0529 6.42775 14.682ZM8.39592 14.9302C8.16559 13.9289 7.35046 13.3152 7.00289 13.0945C6.84 13.6083 6.75265 14.143 6.74359 14.682C6.74359 15.8571 7.46217 16.7108 8.1118 16.7426H8.13249C8.26076 16.5867 8.64418 16.0074 8.39868 14.9302H8.39592Z" fill="#681D07"/>
<path d="M8.20185 16.8983C8.20185 16.8983 8.8625 16.2611 8.54804 14.8942C8.23357 13.5274 6.91501 12.8599 6.91501 12.8599C6.7072 13.4454 6.59541 14.0606 6.58399 14.6818C6.58123 15.9673 7.41844 16.9452 8.20185 16.8983Z" fill="url(#paint20_linear_5112_20389)"/>
<g style="mix-blend-mode:overlay" opacity="0.49">
<path d="M7.00088 13.0005C7.00088 13.0005 8.33736 13.9398 8.39391 15.1066C8.45046 16.2734 7.24363 16.2321 6.91951 15.5769C6.59539 14.9218 6.84641 12.995 7.00088 13.0005Z" fill="white"/>
</g>
<g style="mix-blend-mode:overlay" opacity="0.49">
<path d="M7.02665 13.1494C7.02665 13.1494 6.7977 14.4928 7.10803 14.8831C7.41836 15.2734 8.08177 15.021 8.0997 14.4804C8.11763 13.9397 7.02665 13.1494 7.02665 13.1494Z" fill="white"/>
</g>
<path d="M4.33193 11.6782C4.65063 11.1226 5.05832 10.6231 5.53876 10.1996L5.67669 10.0879L5.77599 10.2258C5.81047 10.2782 6.64353 11.5264 6.24079 12.9291C5.83805 14.3318 4.89741 14.6132 4.86155 14.6242L4.80639 14.6394L4.75398 14.6132C4.71869 14.5972 4.68458 14.5788 4.65191 14.558C3.95402 14.1373 3.66438 12.874 4.33193 11.6782ZM5.93322 12.8478C6.20907 11.8602 5.7953 10.9279 5.6022 10.5665C5.2112 10.938 4.87582 11.364 4.6064 11.8313C4.03539 12.8574 4.25331 13.9539 4.80776 14.296L4.82432 14.307C5.01327 14.2311 5.62979 13.9111 5.93322 12.8478Z" fill="#681D07"/>
<path d="M4.81248 14.4765C4.81248 14.4765 5.69933 14.2392 6.08551 12.8917C6.4717 11.5442 5.64002 10.3208 5.64002 10.3208C5.17536 10.7322 4.78038 11.2162 4.47043 11.7538C3.84701 12.8738 4.10355 14.1372 4.81248 14.4765Z" fill="url(#paint21_linear_5112_20389)"/>
<g style="mix-blend-mode:overlay" opacity="0.49">
<path d="M5.64671 10.4833C5.64671 10.4833 6.36254 11.9522 5.84808 13.0004C5.33362 14.0487 4.29644 13.4294 4.33092 12.6984C4.3654 11.9674 5.5143 10.4047 5.64671 10.4833Z" fill="white"/>
</g>
<g style="mix-blend-mode:overlay" opacity="0.49">
<path d="M5.5948 10.6313C5.5948 10.6313 4.74519 11.6961 4.82794 12.1871C4.9107 12.6781 5.60997 12.783 5.88858 12.3154C6.16718 11.8478 5.5948 10.6313 5.5948 10.6313Z" fill="white"/>
</g>
<path d="M4.06054 5.7402C4.57141 5.50183 5.11798 5.34899 5.6784 5.28781L5.83011 5.27539V5.42573C5.83011 5.4809 5.79563 6.80497 4.79568 7.60769C3.79573 8.41041 2.97508 8.1387 2.9406 8.12629L2.89233 8.10836L2.8675 8.06422C2.85095 8.03387 2.83578 8.00353 2.82199 7.97318C2.54062 7.31942 2.97232 6.26431 4.06054 5.7402ZM4.62051 7.39529C5.32393 6.82842 5.49633 5.9457 5.53771 5.58572C5.06819 5.655 4.6111 5.79156 4.18054 5.99122C3.24955 6.43947 2.85095 7.34012 3.07714 7.86837C3.08026 7.87301 3.08259 7.87814 3.08404 7.88354C3.25644 7.92354 3.86193 8.00491 4.62051 7.39391V7.39529Z" fill="#681D07"/>
<path d="M2.98562 7.99801C2.98562 7.99801 3.74558 8.27385 4.70691 7.50148C5.66824 6.7291 5.68893 5.43262 5.68893 5.43262C5.14662 5.491 4.61743 5.63728 4.12211 5.8657C3.1001 6.35671 2.64771 7.39528 2.98562 7.99801Z" fill="url(#paint22_linear_5112_20389)"/>
<g style="mix-blend-mode:overlay" opacity="0.49">
<path d="M5.61266 5.54709C5.61266 5.54709 5.38233 6.96633 4.48031 7.46147C3.57828 7.95662 3.14658 6.98287 3.54105 6.47393C3.93551 5.96499 5.55611 5.42571 5.61266 5.54709Z" fill="white"/>
</g>
<g style="mix-blend-mode:overlay" opacity="0.49">
<path d="M5.50155 5.62744C5.50155 5.62744 4.34851 5.9626 4.15955 6.35844C3.9706 6.75428 4.42023 7.18598 4.85883 6.98737C5.29743 6.78876 5.50155 5.62744 5.50155 5.62744Z" fill="white"/>
</g>
<path d="M5.0364 2.35836C5.54687 2.12022 6.09294 1.96739 6.65287 1.90596L6.80596 1.89355V2.04665C6.80596 2.1032 6.77286 3.42589 5.77291 4.22861C4.77296 5.03132 3.95231 4.75962 3.91783 4.7472L3.86956 4.72927L3.84473 4.68514C3.82791 4.65564 3.81273 4.62525 3.79922 4.5941C3.51648 3.93758 3.94817 2.88385 5.0364 2.35836ZM5.59637 4.01345C6.29978 3.4452 6.47219 2.56386 6.51356 2.2025C6.04419 2.27245 5.5872 2.40899 5.15639 2.608C4.2254 3.05763 3.8268 3.95827 4.053 4.48514C4.05276 4.4902 4.05276 4.49526 4.053 4.50031C4.2323 4.54169 4.83778 4.62307 5.59637 4.01345Z" fill="#681D07"/>
<path d="M3.96221 4.61764C3.96221 4.61764 4.72217 4.89348 5.68212 4.12111C6.64207 3.34873 6.66552 2.05225 6.66552 2.05225C6.12191 2.11186 5.59171 2.26002 5.09595 2.49084C4.07669 2.97496 3.6243 4.01353 3.96221 4.61764Z" fill="url(#paint23_linear_5112_20389)"/>
<g style="mix-blend-mode:overlay" opacity="0.49">
<path d="M6.58728 2.16513C6.58728 2.16513 6.35694 3.58574 5.45492 4.07951C4.55289 4.57328 4.12119 3.6023 4.51566 3.09198C4.91012 2.58166 6.53073 2.04237 6.58728 2.16513Z" fill="white"/>
</g>
<g style="mix-blend-mode:overlay" opacity="0.49">
<path d="M6.47478 2.24512C6.47478 2.24512 5.32312 2.58027 5.13416 2.97611C4.94521 3.37195 5.39484 3.80366 5.83344 3.60643C6.27204 3.4092 6.47478 2.24512 6.47478 2.24512Z" fill="white"/>
</g>
<path d="M3.56148 9.02549C4.01276 8.6877 4.51645 8.4263 5.05244 8.25174L5.20002 8.20898L5.22898 8.35933C5.23864 8.41312 5.47586 9.71236 4.66211 10.704C3.84836 11.6957 2.98772 11.5964 2.95186 11.5909L2.90083 11.5826L2.86773 11.544C2.84553 11.5185 2.8248 11.4918 2.80566 11.464C2.3974 10.8806 2.60567 9.76063 3.56148 9.02549ZM4.44695 10.5289C5.02071 9.82959 5.00968 8.93032 4.97658 8.56896C4.53278 8.73347 4.11478 8.96058 3.73527 9.24341C2.916 9.87235 2.70911 10.8364 3.03737 11.3054L3.04703 11.3205C3.22081 11.3261 3.83043 11.2819 4.44695 10.5289Z" fill="#681D07"/>
<path d="M2.97141 11.4546C2.97141 11.4546 3.77137 11.5732 4.55478 10.6174C5.33818 9.66154 5.09268 8.38574 5.09268 8.38574C4.5731 8.55554 4.08447 8.80846 3.64585 9.13467C2.74383 9.82429 2.51764 10.9332 2.97141 11.4546Z" fill="url(#paint24_linear_5112_20389)"/>
<g style="mix-blend-mode:overlay" opacity="0.49">
<path d="M5.04108 8.51941C5.04108 8.51941 5.10591 9.95658 4.32388 10.6241C3.54185 11.2917 2.92119 10.4283 3.20117 9.849C3.48116 9.26972 4.96108 8.40907 5.04108 8.51941Z" fill="white"/>
</g>
<g style="mix-blend-mode:overlay" opacity="0.49">
<path d="M4.95098 8.62012C4.95098 8.62012 3.89172 9.18423 3.7869 9.61042C3.68208 10.0366 4.21171 10.3635 4.60066 10.0835C4.9896 9.80351 4.95098 8.62012 4.95098 8.62012Z" fill="white"/>
</g>
<path d="M16.674 9.28772C17.1494 8.76434 17.4065 8.07888 17.3926 7.37195C17.3926 5.91961 16.2244 4.35693 13.6604 4.35693C12.5005 4.35693 11.2688 4.66589 10.5226 5.14448L9.98472 5.48929L10.8743 8.64361L11.2964 8.39259V11.0256H12.9818C13.168 11.0256 13.8631 11.089 13.8631 11.4021C13.8631 11.6779 13.2618 11.7 13.1418 11.7C12.5791 11.6733 12.029 11.5246 11.5295 11.2642L10.5819 10.7732L9.72266 13.9316L10.2606 14.2709C10.9888 14.7302 12.1487 15.0157 13.2949 15.0157C14.5459 15.0157 15.6244 14.6943 16.412 14.0875C16.8121 13.7878 17.1365 13.3985 17.359 12.9509C17.5816 12.5032 17.696 12.0096 17.6933 11.5097C17.6956 11.0874 17.6056 10.6697 17.4296 10.2859C17.2535 9.90207 16.9956 9.56139 16.674 9.28772ZM16.1223 13.7165C15.4175 14.2599 14.4383 14.544 13.2921 14.544C12.2356 14.544 11.1722 14.2861 10.5157 13.8723L10.2716 13.7178L10.8867 11.4545L11.3171 11.6779C11.884 11.9717 12.5081 12.1383 13.1459 12.1662C13.8921 12.1662 14.3376 11.8793 14.3376 11.3993C14.3376 10.7759 13.6094 10.5539 12.9859 10.5539H11.7695V8.32225H12.9501C13.3776 8.31259 14.1031 8.17467 14.1031 7.71538C14.1031 7.39402 13.7721 7.20231 13.2177 7.20231C12.652 7.22709 12.1003 7.38592 11.6081 7.66573L11.1695 7.92503L10.535 5.70169L10.7792 5.54584C11.4564 5.11276 12.5887 4.83139 13.6645 4.83139C15.9072 4.83139 16.9278 6.15133 16.9278 7.37747C16.9373 7.70884 16.874 8.03827 16.7425 8.34256C16.611 8.64686 16.4143 8.91863 16.1665 9.13876L15.9485 9.33461L16.1872 9.50426C16.5091 9.73091 16.7713 10.0323 16.9513 10.3825C17.1312 10.7328 17.2235 11.1214 17.2202 11.5152C17.2217 11.9425 17.1232 12.3643 16.9326 12.7468C16.7419 13.1292 16.4645 13.4618 16.1223 13.7178V13.7165ZM12.3184 7.85468C12.6043 7.74554 12.9063 7.68449 13.2121 7.674C13.3357 7.67181 13.4589 7.68809 13.5776 7.72228C13.377 7.81302 13.1593 7.86003 12.939 7.86021L12.3184 7.85468Z" fill="#681D07"/>
<path d="M14.8798 9.79398L14.5585 9.73606V9.10436L14.8192 9.01334C15.6964 8.70577 16.1405 8.15545 16.1405 7.37342C16.1405 6.30175 15.1667 5.60938 13.6578 5.60938C12.9681 5.61119 12.2843 5.73637 11.6386 5.97901L11.4428 6.05763L11.6428 6.76655L11.88 6.67967C12.3043 6.52065 12.7524 6.43438 13.2054 6.4245C14.4357 6.4245 14.8729 7.1224 14.8729 7.71961C14.8743 7.90808 14.8304 8.09413 14.745 8.26213C14.6596 8.43013 14.5351 8.57518 14.3819 8.68508L14.2992 8.74853L14.204 8.80369C13.8178 9.00942 13.3865 9.1156 12.9489 9.11264H12.5448V9.7802H12.9792C13.4071 9.77119 13.8314 9.85888 14.2206 10.0367L14.3488 10.1002L14.4619 10.1788C14.6657 10.3117 14.8325 10.4942 14.9466 10.7091C15.0607 10.9241 15.1184 11.1644 15.1143 11.4077C15.1143 12.1221 14.5971 12.9566 13.1406 12.9566C12.6223 12.9481 12.1092 12.851 11.6235 12.6697L11.3848 12.5856L11.1738 13.3607L11.3697 13.4379C11.9825 13.6654 12.6319 13.778 13.2854 13.7703C15.1971 13.7703 16.4315 12.8849 16.4315 11.5153C16.437 10.4491 15.5998 9.92225 14.8798 9.79398ZM14.1902 6.11555C15.1116 6.24106 15.6826 6.70863 15.6826 7.37618C15.6902 7.54701 15.6566 7.71715 15.5846 7.87224C15.5125 8.02733 15.4042 8.16279 15.2688 8.26716C15.3307 8.08988 15.3615 7.90324 15.3598 7.71547C15.3588 7.35944 15.2451 7.01287 15.035 6.72544C14.8249 6.43802 14.5292 6.22452 14.1902 6.11555ZM14.0992 9.47676C14.0482 9.45883 13.9958 9.44366 13.9433 9.42987L14.0992 9.3747V9.47676ZM14.4661 13.1497C14.8013 12.9974 15.0853 12.7514 15.2837 12.4413C15.4822 12.1312 15.5867 11.7703 15.5846 11.4022C15.5875 11.0705 15.5048 10.7437 15.3446 10.4533C15.5346 10.5561 15.6928 10.7088 15.8022 10.895C15.9116 11.0813 15.968 11.2938 15.9653 11.5098C15.9681 12.3042 15.4067 12.8918 14.4661 13.1497Z" fill="#681D07"/>
<path d="M13.2457 14.7826C12.1423 14.7826 11.0389 14.5068 10.3493 14.075L9.95898 13.8268L10.6969 11.1166L11.3865 11.4738C11.9195 11.7508 12.5064 11.9085 13.1064 11.9358C13.3947 11.9358 14.0636 11.8834 14.0636 11.4035C14.0636 10.7994 12.9919 10.7925 12.9464 10.7925H11.4968V8.0919H12.8995C13.345 8.08087 13.8236 7.93743 13.8236 7.71951C13.8236 7.45469 13.2816 7.44366 13.1726 7.44366C12.6491 7.46866 12.1388 7.61655 11.683 7.87536L10.9824 8.28913L10.2238 5.59686L10.6058 5.34308C11.3175 4.88793 12.4995 4.59277 13.6167 4.59277C16.0207 4.59277 17.1159 6.03408 17.1159 7.37332C17.1236 7.73673 17.0525 8.09751 16.9075 8.43084C16.7625 8.76417 16.547 9.06214 16.2759 9.30425C16.6299 9.55221 16.9181 9.88281 17.1155 10.2674C17.3128 10.6519 17.4133 11.0788 17.4083 11.511C17.4105 11.9749 17.304 12.4329 17.0972 12.8482C16.8905 13.2636 16.5894 13.6247 16.218 13.9026C15.4732 14.4792 14.4443 14.7826 13.2457 14.7826ZM11.4168 13.2144C12.0019 13.431 12.6218 13.5386 13.2457 13.5316C15.0153 13.5316 16.1587 12.7386 16.1587 11.511C16.1587 10.5938 15.4249 10.1318 14.7974 10.0242L14.5546 9.98147C14.7895 10.1361 14.9817 10.3474 15.1133 10.596C15.245 10.8445 15.3118 11.1222 15.3077 11.4035C15.3077 12.2917 14.625 13.1868 13.1009 13.1868C12.5569 13.1769 12.0184 13.0757 11.5079 12.8875L11.4168 13.2144ZM12.7409 9.54149H12.9395C13.4025 9.52996 13.862 9.6243 14.2829 9.81734V8.98979C13.8617 9.21645 13.3903 9.3336 12.9119 9.33046H12.7409V9.54149ZM13.1657 6.18993C14.4801 6.18993 15.0691 6.95817 15.0691 7.71951C15.0697 7.94333 15.0171 8.1641 14.9157 8.36361C14.8143 8.56313 14.6669 8.73567 14.4857 8.86704L14.7022 8.79118C15.4842 8.51533 15.8649 8.05328 15.8649 7.37332C15.8649 6.44509 14.9836 5.84512 13.6181 5.84512C12.9586 5.84558 12.3045 5.96472 11.6872 6.19683L11.7603 6.46026C12.2098 6.2903 12.6852 6.19885 13.1657 6.18993Z" fill="url(#paint25_linear_5112_20389)"/>
<g style="mix-blend-mode:overlay" opacity="0.49">
<path d="M13.204 12.5565C14.2991 12.4793 14.5736 11.8586 14.6247 11.729C14.6558 11.6547 14.6717 11.575 14.6715 11.4945L14.0054 11.598C13.8495 11.8959 13.3378 11.9345 13.0951 11.9345C12.495 11.9072 11.9081 11.7495 11.3752 11.4725L10.6855 11.1152L11.0855 12.0214C11.0855 12.0214 12.1089 12.6352 13.204 12.5565Z" fill="white"/>
</g>
<path opacity="0.46" d="M10.3281 14.115C11.0178 14.5522 12.1322 14.8239 13.2246 14.8239C14.4245 14.8239 15.452 14.5205 16.1996 13.9439C16.3924 13.796 16.5674 13.6262 16.7209 13.4378L16.1223 13.1743L14.881 13.2736C14.3547 13.4824 13.792 13.5842 13.2259 13.5729C12.8934 13.5735 12.5616 13.5444 12.2343 13.486L10.7061 13.6088L9.99023 13.9039L10.3281 14.115Z" fill="#681D07"/>
<path opacity="0.46" d="M16.2758 9.31001L14.9062 9.40932C14.9062 9.40932 16.2152 8.98451 16.4082 7.96939C16.513 7.33842 16.3862 6.69082 16.051 6.14603L16.6344 5.89502C16.6344 5.89502 17.3241 6.81772 17.0703 7.88801C16.8165 8.95831 16.3696 9.30311 16.2758 9.31001Z" fill="#681D07"/>
<g style="mix-blend-mode:overlay" opacity="0.49">
<path d="M13.6178 4.59814C12.5764 4.59814 11.4813 4.85469 10.76 5.25743L10.2207 5.61464L10.9448 5.8698C11.631 5.49628 12.3932 5.28402 13.1737 5.24914C14.4246 5.21052 16.0521 6.14979 16.0521 6.14979L16.6355 5.90015C16.1018 5.14984 15.1129 4.59814 13.6178 4.59814Z" fill="white"/>
</g>
<path d="M11.0904 12.0294C11.449 12.2156 12.2737 12.5604 13.0985 12.5604C14.1495 12.5604 14.6805 12.0556 14.6805 11.4033C14.6805 10.5523 13.8295 10.162 12.9385 10.162H12.111V8.7165H12.8958C13.5744 8.70409 14.4392 8.45031 14.4392 7.71931C14.4392 7.20072 14.013 6.81453 13.162 6.81453C12.5263 6.83916 11.9059 7.01708 11.3538 7.33313L10.94 5.86975C11.4586 5.53735 12.4958 5.21875 13.613 5.21875C15.4612 5.21875 16.4859 6.18422 16.4859 7.37312C16.4859 8.2917 15.9674 9.0089 14.9026 9.38268V9.40888C15.9412 9.59508 16.7783 10.3743 16.7783 11.5108C16.7783 13.0404 15.435 14.1576 13.2406 14.1576C12.1234 14.1576 11.1786 13.8652 10.6738 13.5452L11.0904 12.0294Z" fill="url(#paint26_linear_5112_20389)"/>
<path d="M16.4873 7.4574C16.4873 7.42705 16.4873 7.39809 16.4873 7.36775C16.4873 6.18298 15.4626 5.21338 13.6144 5.21338C12.4972 5.21338 11.46 5.53198 10.9414 5.86438L10.9897 6.03816C11.5221 5.7168 12.5303 5.41612 13.6102 5.41612C15.4074 5.41612 16.4239 6.32642 16.4873 7.4574Z" fill="white"/>
<path d="M14.9076 9.60619C15.9117 9.78549 16.7296 10.5275 16.7806 11.5992C16.7806 11.5675 16.7806 11.5357 16.7806 11.504C16.7806 10.4765 16.091 9.73446 15.1821 9.46826C15.0938 9.50688 15.0028 9.5455 14.9062 9.57998L14.9076 9.60619Z" fill="white"/>
<path d="M13.0995 12.7581C14.1504 12.7581 14.6814 12.2533 14.6814 11.6009C14.6814 11.5651 14.6814 11.5306 14.6814 11.4961C14.6304 12.1002 14.1008 12.5553 13.1036 12.5553C12.276 12.5553 11.4485 12.2092 11.0954 12.023L10.6816 13.5401L10.7285 13.5677L11.094 12.2257C11.4499 12.4133 12.2747 12.7581 13.0995 12.7581Z" fill="white"/>
<path d="M14.4423 7.91692C14.4445 7.88247 14.4445 7.84792 14.4423 7.81348C14.3679 8.46862 13.5527 8.69895 12.9059 8.71136H12.1211V8.91411H12.9059C13.5776 8.90169 14.4423 8.64792 14.4423 7.91692Z" fill="white"/>
<path opacity="0.46" d="M11.3567 7.33337L10.9746 8.28642C10.9746 8.28642 12.289 7.39405 13.1207 7.45887C13.9524 7.5237 13.8103 7.72093 13.8103 7.72093L14.3124 7.28233C14.3124 7.28233 14.0365 6.74857 12.9773 6.82305C11.918 6.89752 11.3567 7.33337 11.3567 7.33337Z" fill="#681D07"/>
<path opacity="0.46" d="M12.1131 10.1679L11.4883 10.7927C11.4883 10.7927 13.2882 10.7706 13.5447 10.8809C13.66 10.9266 13.7712 10.982 13.8771 11.0464L14.3295 10.6065C14.3295 10.6065 13.7461 10.0355 12.1131 10.1679Z" fill="#681D07"/>
<g style="mix-blend-mode:overlay" opacity="0.49">
<path d="M11.4883 8.09214L12.1131 8.71142C12.1131 8.71142 13.1227 8.77625 13.7075 8.5735C13.8805 8.51197 14.0365 8.41043 14.1628 8.27717C14.2891 8.1439 14.3822 7.98268 14.4343 7.80664L13.7295 7.86457C13.7295 7.86457 13.6799 8.18455 11.4883 8.09214Z" fill="white"/>
</g>
<g style="mix-blend-mode:overlay" opacity="0.49">
<path d="M14.921 9.40888V9.38268C15.9844 9.0089 16.5043 8.2917 16.5043 7.37312C16.5043 6.18973 15.4796 5.21875 13.6314 5.21875C12.5128 5.21875 11.4756 5.53735 10.957 5.86975L11.3708 7.33313C11.9234 7.01707 12.5442 6.83916 13.1804 6.81453C14.0314 6.81453 14.4576 7.20072 14.4576 7.71931C14.4576 8.45031 13.5928 8.70409 12.9142 8.7165H12.1225V10.1675H12.95C13.3381 10.1586 13.7225 10.2442 14.07 10.4171C14.6371 10.2912 15.1606 10.0171 15.5871 9.62266C15.376 9.52104 15.1518 9.4491 14.921 9.40888Z" fill="white"/>
</g>
</g>
<defs>
<linearGradient id="paint0_linear_5112_20389" x1="5.6284" y1="13.8082" x2="5.64384" y2="4.23527" gradientUnits="userSpaceOnUse">
<stop stop-color="#8C320F"/>
<stop offset="1" stop-color="#EAB77B"/>
</linearGradient>
<linearGradient id="paint1_linear_5112_20389" x1="20.5329" y1="14.6188" x2="20.5342" y2="5.05766" gradientUnits="userSpaceOnUse">
<stop stop-color="#8C320F"/>
<stop offset="1" stop-color="#EAB77B"/>
</linearGradient>
<linearGradient id="paint2_linear_5112_20389" x1="21.4797" y1="17.7658" x2="21.4786" y2="16.1247" gradientUnits="userSpaceOnUse">
<stop stop-color="#8C320F"/>
<stop offset="1" stop-color="#EAB77B"/>
</linearGradient>
<linearGradient id="paint3_linear_5112_20389" x1="24.8853" y1="13.9567" x2="24.8857" y2="12.0974" gradientUnits="userSpaceOnUse">
<stop stop-color="#8C320F"/>
<stop offset="1" stop-color="#EAB77B"/>
</linearGradient>
<linearGradient id="paint4_linear_5112_20389" x1="25.6922" y1="10.9535" x2="25.6922" y2="8.56393" gradientUnits="userSpaceOnUse">
<stop stop-color="#8C320F"/>
<stop offset="1" stop-color="#EAB77B"/>
</linearGradient>
<linearGradient id="paint5_linear_5112_20389" x1="24.8838" y1="7.49404" x2="24.8829" y2="4.62261" gradientUnits="userSpaceOnUse">
<stop stop-color="#8C320F"/>
<stop offset="1" stop-color="#EAB77B"/>
</linearGradient>
<linearGradient id="paint6_linear_5112_20389" x1="5.37891" y1="9.46719" x2="21.4209" y2="9.46719" gradientUnits="userSpaceOnUse">
<stop stop-color="#8C320F"/>
<stop offset="1" stop-color="#EAB77B"/>
</linearGradient>
<linearGradient id="paint7_linear_5112_20389" x1="13.4001" y1="18.5563" x2="13.4001" y2="2.86887" gradientUnits="userSpaceOnUse">
<stop stop-color="#8C320F"/>
<stop offset="1" stop-color="#EAB77B"/>
</linearGradient>
<linearGradient id="paint8_linear_5112_20389" x1="13.399" y1="4.746" x2="13.399" y2="17.6391" gradientUnits="userSpaceOnUse">
<stop stop-color="#8C320F"/>
<stop offset="1" stop-color="#EAB77B"/>
</linearGradient>
<linearGradient id="paint9_linear_5112_20389" x1="8.22656" y1="8.55826" x2="20.3942" y2="8.55826" gradientUnits="userSpaceOnUse">
<stop stop-color="#8C320F"/>
<stop offset="1" stop-color="#EAB77B"/>
</linearGradient>
<linearGradient id="paint10_linear_5112_20389" x1="13.4013" y1="16.2861" x2="13.4013" y2="9.29199" gradientUnits="userSpaceOnUse">
<stop stop-color="#8C320F"/>
<stop offset="1" stop-color="#EAB77B"/>
</linearGradient>
<linearGradient id="paint11_linear_5112_20389" x1="19.3902" y1="16.4785" x2="19.3905" y2="13.3177" gradientUnits="userSpaceOnUse">
<stop stop-color="#8C320F"/>
<stop offset="1" stop-color="#EAB77B"/>
</linearGradient>
<linearGradient id="paint12_linear_5112_20389" x1="21.4267" y1="12.7992" x2="21.4136" y2="9.54295" gradientUnits="userSpaceOnUse">
<stop stop-color="#8C320F"/>
<stop offset="1" stop-color="#EAB77B"/>
</linearGradient>
<linearGradient id="paint13_linear_5112_20389" x1="21.2041" y1="7.82774" x2="21.1984" y2="5.77901" gradientUnits="userSpaceOnUse">
<stop stop-color="#8C320F"/>
<stop offset="1" stop-color="#EAB77B"/>
</linearGradient>
<linearGradient id="paint14_linear_5112_20389" x1="20.2188" y1="4.4529" x2="20.2136" y2="2.4029" gradientUnits="userSpaceOnUse">
<stop stop-color="#8C320F"/>
<stop offset="1" stop-color="#EAB77B"/>
</linearGradient>
<linearGradient id="paint15_linear_5112_20389" x1="23.0832" y1="11.147" x2="23.0835" y2="8.74189" gradientUnits="userSpaceOnUse">
<stop stop-color="#8C320F"/>
<stop offset="1" stop-color="#EAB77B"/>
</linearGradient>
<linearGradient id="paint16_linear_5112_20389" x1="5.13762" y1="19.0897" x2="5.13703" y2="17.4423" gradientUnits="userSpaceOnUse">
<stop stop-color="#8C320F"/>
<stop offset="1" stop-color="#EAB77B"/>
</linearGradient>
<linearGradient id="paint17_linear_5112_20389" x1="3.37104" y1="14.1608" x2="3.37061" y2="12.3016" gradientUnits="userSpaceOnUse">
<stop stop-color="#8C320F"/>
<stop offset="1" stop-color="#EAB77B"/>
</linearGradient>
<linearGradient id="paint18_linear_5112_20389" x1="1.22038" y1="10.7223" x2="1.22204" y2="8.33399" gradientUnits="userSpaceOnUse">
<stop stop-color="#8C320F"/>
<stop offset="1" stop-color="#EAB77B"/>
</linearGradient>
<linearGradient id="paint19_linear_5112_20389" x1="5.32805" y1="9.7104" x2="5.31671" y2="6.85416" gradientUnits="userSpaceOnUse">
<stop stop-color="#8C320F"/>
<stop offset="1" stop-color="#EAB77B"/>
</linearGradient>
<linearGradient id="paint20_linear_5112_20389" x1="6.76902" y1="15.6721" x2="6.77515" y2="12.5075" gradientUnits="userSpaceOnUse">
<stop stop-color="#8C320F"/>
<stop offset="1" stop-color="#EAB77B"/>
</linearGradient>
<linearGradient id="paint21_linear_5112_20389" x1="4.85464" y1="11.0625" x2="4.86848" y2="7.80509" gradientUnits="userSpaceOnUse">
<stop stop-color="#8C320F"/>
<stop offset="1" stop-color="#EAB77B"/>
</linearGradient>
<linearGradient id="paint22_linear_5112_20389" x1="6.12969" y1="6.60912" x2="6.13542" y2="4.5604" gradientUnits="userSpaceOnUse">
<stop stop-color="#8C320F"/>
<stop offset="1" stop-color="#EAB77B"/>
</linearGradient>
<linearGradient id="paint23_linear_5112_20389" x1="7.115" y1="3.23428" x2="7.12019" y2="1.18429" gradientUnits="userSpaceOnUse">
<stop stop-color="#8C320F"/>
<stop offset="1" stop-color="#EAB77B"/>
</linearGradient>
<linearGradient id="paint24_linear_5112_20389" x1="5.58071" y1="10.4905" x2="5.58634" y2="8.08785" gradientUnits="userSpaceOnUse">
<stop stop-color="#8C320F"/>
<stop offset="1" stop-color="#EAB77B"/>
</linearGradient>
<linearGradient id="paint25_linear_5112_20389" x1="13.6815" y1="15.1247" x2="13.6815" y2="1.98187" gradientUnits="userSpaceOnUse">
<stop stop-color="#8C320F"/>
<stop offset="1" stop-color="#EAB77B"/>
</linearGradient>
<linearGradient id="paint26_linear_5112_20389" x1="13.7302" y1="13.7411" x2="13.7302" y2="4.07536" gradientUnits="userSpaceOnUse">
<stop stop-color="#8C320F"/>
<stop offset="1" stop-color="#EAB77B"/>
</linearGradient>
<clipPath id="clip0_5112_20389">
<rect width="27" height="18.4308" fill="white"/>
</clipPath>
</defs>
</svg>
