<svg width="129" height="129" viewBox="0 0 129 129" fill="none" xmlns="http://www.w3.org/2000/svg">
<circle cx="64" cy="71" r="45" fill="#0C1620"/>
<g clip-path="url(#clip0_5097_16527)">
<g clip-path="url(#clip1_5097_16527)">
<path d="M35.4459 32.3015L108.488 46.6402C94.7143 53.695 85.4802 89.8614 84.1563 102.09C68.0609 97.136 15.0517 82.6452 12.9541 82.1383C15.3906 63.2465 30.0115 37.7267 35.4459 32.3015Z" fill="url(#paint0_linear_5097_16527)"/>
<mask id="mask0_5097_16527" style="mask-type:alpha" maskUnits="userSpaceOnUse" x="12" y="32" width="97" height="71">
<path d="M34.8366 32.6624L108.487 46.64C94.7131 53.6948 85.479 89.8612 84.1551 102.089C68.0597 97.1359 14.9935 82.7863 12.8959 82.2794C15.3324 63.3876 29.4022 38.0876 34.8366 32.6624Z" fill="url(#paint1_linear_5097_16527)"/>
</mask>
<g mask="url(#mask0_5097_16527)">
<path opacity="0.1" d="M2.33437 84.3196L127.193 17.3279L136.101 32.1088L16.2273 95.4845L2.33437 84.3196Z" fill="url(#paint2_linear_5097_16527)"/>
</g>
<path style="mix-blend-mode:screen" opacity="0.8" d="M66.5209 104.173C88.415 102.093 104.477 82.6577 102.397 60.7635C100.316 38.8693 80.8808 22.8072 58.9867 24.8877C37.0925 26.9682 21.0303 46.4035 23.1109 68.2977C25.1914 90.1919 44.6267 106.254 66.5209 104.173Z" fill="url(#paint3_radial_5097_16527)"/>
<g clip-path="url(#clip2_5097_16527)">
<path opacity="0.1" fill-rule="evenodd" clip-rule="evenodd" d="M63.5587 59.946L60.0845 57.5817L59.4137 57.3356L59.4081 57.3271L58.205 56.8921L55.8602 56.0319L55.1481 56.0809L55.1506 56.0662L53.8552 56.17L53.3624 56.2039L53.3626 56.2044L50.2406 57.5885L50.2418 57.5917L53.8782 69.3058L53.8852 69.3297L53.8852 69.3299L53.8852 69.33L53.8852 69.3299L53.8854 69.3305L53.8856 69.3298L53.9482 69.3064L53.8862 69.3439L53.9926 69.2899L65.0957 65.1467L61.6893 65.3822L59.9989 66.2373L60.1166 66.1775L61.6892 65.382L61.6892 65.3822L65.0956 65.1466L64.2511 61.7422L62.7243 61.8502L62.8046 61.8438L64.2509 61.7414L63.5587 59.946ZM59.1461 60.9624L61.2048 61.7177L61.2042 61.7166L59.144 60.9608C59.1447 60.9613 59.1454 60.9619 59.1461 60.9624ZM54.0353 69.2537L54.0325 69.2554L53.8856 69.3297L53.8858 69.3294L54.0353 69.2537ZM61.753 61.9275L61.6887 65.3817L61.6892 65.3819L61.7535 61.9277L61.753 61.9275ZM51.1823 60.0389L51.1822 60.0386L55.9248 63.2662L55.9243 63.267L51.1827 60.04L51.1823 60.0389ZM55.9243 63.267L55.9247 63.2672L55.9247 63.2673L55.9243 63.267Z" fill="black"/>
<path fill-rule="evenodd" clip-rule="evenodd" d="M58.834 56.9138L62.481 59.0018L63.3102 60.7382L60.834 61.1079L56.5023 59.8901L52.8553 57.802L52.0254 56.061L54.5024 55.6959L58.834 56.9138Z" fill="url(#paint4_radial_5097_16527)"/>
<path fill-rule="evenodd" clip-rule="evenodd" d="M52.0248 56.0613L49.0191 57.6832L50.1476 60.0531L52.8547 57.8023L52.0248 56.0613Z" fill="url(#paint5_radial_5097_16527)"/>
<path fill-rule="evenodd" clip-rule="evenodd" d="M52.8564 57.8025L50.1493 60.0533L55.1282 62.9041L56.5034 59.8905L52.8564 57.8025Z" fill="url(#paint6_radial_5097_16527)"/>
<path fill-rule="evenodd" clip-rule="evenodd" d="M56.5017 59.891L60.8333 61.1088L61.0374 64.5667L55.1264 62.9045L56.5017 59.891Z" fill="url(#paint7_radial_5097_16527)"/>
<path fill-rule="evenodd" clip-rule="evenodd" d="M63.311 60.7389L64.4168 64.0677L61.0388 64.5665L60.8348 61.1086L63.311 60.7389Z" fill="url(#paint8_radial_5097_16527)"/>
<path fill-rule="evenodd" clip-rule="evenodd" d="M50.1484 60.0542L53.5635 69.1076L55.1273 62.9049L50.1484 60.0542Z" fill="url(#paint9_radial_5097_16527)"/>
<path fill-rule="evenodd" clip-rule="evenodd" d="M55.127 62.9043L61.038 64.5665L53.5632 69.1071L55.127 62.9043Z" fill="url(#paint10_radial_5097_16527)"/>
<path fill-rule="evenodd" clip-rule="evenodd" d="M64.4152 64.0677L53.5625 69.107L61.0373 64.5665L64.4152 64.0677Z" fill="url(#paint11_radial_5097_16527)"/>
<path fill-rule="evenodd" clip-rule="evenodd" d="M49.0195 57.6841L53.563 69.1074L50.148 60.054L49.0195 57.6841Z" fill="#85F2FF"/>
<path style="mix-blend-mode:screen" opacity="0.5" fill-rule="evenodd" clip-rule="evenodd" d="M55.5078 55.9863C56.7864 56.8899 59.511 59.9001 60.2808 60.9649L60.8349 61.1181L61.9696 60.9378L62.1634 60.907C60.6805 59.652 59.3319 58.2464 58.1393 56.7128L55.5078 55.9863Z" fill="url(#paint12_radial_5097_16527)"/>
<g style="mix-blend-mode:screen" opacity="0.75">
<path fill-rule="evenodd" clip-rule="evenodd" d="M50.996 62.2937C50.6885 60.6258 51.4642 61.0133 52.3125 61.6495C54.9927 63.6357 54.4257 65.0973 53.8557 67.9404L55.1273 62.9049L50.1484 60.0542C50.4323 60.7989 50.7122 61.549 50.9761 62.2874L50.996 62.2937Z" fill="#9FDFFF"/>
</g>
<path style="mix-blend-mode:screen" opacity="0.5" fill-rule="evenodd" clip-rule="evenodd" d="M56.9634 63.4211C59.3855 64.1099 58.6372 65.4726 56.8813 66.7447L53.5651 69.1207L61.0284 64.5678L56.9542 63.4225L56.9634 63.4211Z" fill="url(#paint13_radial_5097_16527)"/>
<g style="mix-blend-mode:screen">
<path fill-rule="evenodd" clip-rule="evenodd" d="M52.8592 57.7973L52.1018 56.215C52.4112 57.0313 52.5703 57.3182 52.3791 57.7222C52.0765 58.2639 51.6856 58.7512 51.2224 59.1639L52.8592 57.7973Z" fill="#8FFCFF"/>
</g>
<path fill-rule="evenodd" clip-rule="evenodd" d="M56.5022 59.8906L52.8591 57.7972L51.2223 59.1639C52.0672 58.5284 52.5652 58.2695 52.9317 58.3437C53.5039 58.5141 54.0524 58.7559 54.5642 59.0634C55.4009 59.5075 55.8239 60.0267 55.8768 60.3305C55.9369 60.7087 55.6997 61.5078 55.3533 62.4236L56.5046 59.876L56.5022 59.8906Z" fill="white"/>
<g style="mix-blend-mode:screen" opacity="0.5">
<path fill-rule="evenodd" clip-rule="evenodd" d="M56.5021 59.8912L55.3508 62.4388C55.8883 61.3271 56.364 60.7787 56.7322 60.6256C57.2298 60.4236 58.0081 60.4702 59.5586 60.763L56.5021 59.8912Z" fill="#8FFCFF"/>
</g>
<path style="mix-blend-mode:screen" fill-rule="evenodd" clip-rule="evenodd" d="M53.7968 55.785L52.0254 56.0664L52.5847 57.2356L52.8546 57.8028L56.4977 59.8962L58.1758 60.3674C57.0647 59.6548 54.0129 56.55 53.7951 55.8042L53.7968 55.785Z" fill="url(#paint14_radial_5097_16527)"/>
</g>
<g clip-path="url(#clip3_5097_16527)">
<path opacity="0.1" fill-rule="evenodd" clip-rule="evenodd" d="M100.018 43.781L96.6 41.455L95.9399 41.2128L95.9345 41.2047L94.7743 40.7852L92.4441 39.9303L91.7438 39.9786L91.7462 39.9637L90.4414 40.0683L89.9868 40.0996L89.9869 40.0998L86.9158 41.4613L87.842 43.8718L89.0169 43.04L89.0096 43.0457L87.842 43.8723L87.8419 43.8722L86.9158 41.4617L90.5014 53.0123L90.5013 53.0124L90.5015 53.0125L90.5015 53.0123L90.5016 53.0125L90.5012 53.0127L90.5016 53.0125L90.5016 53.0127L90.5017 53.0125L90.5628 52.9897L90.5022 53.0263L90.6063 52.9735L101.529 48.8975L101.53 48.8974L100.699 45.5481L99.2059 45.6538L99.2888 45.6471L100.699 45.5473L100.018 43.781ZM90.5014 53.0123L88.4996 46.1324L88.4997 46.1324L90.5014 53.0121L90.5014 53.0123ZM95.6778 44.7812L97.7019 45.5238L97.7014 45.5229L95.6761 44.7799C95.6767 44.7803 95.6772 44.7808 95.6778 44.7812ZM96.4754 49.9906L98.1789 49.1289L98.179 49.1289L98.2423 45.7308L98.2414 45.7305L98.1781 49.1284L98.179 49.1287L96.5498 49.9528L96.4754 49.9906ZM90.6469 52.9388L90.6451 52.9399L90.5017 53.0124L90.5018 53.0122L90.6469 52.9388ZM88.1269 44.8511L88.1335 44.8744L87.842 43.8724L87.8421 43.8725L88.1269 44.8511Z" fill="black"/>
<path fill-rule="evenodd" clip-rule="evenodd" d="M95.3702 40.7994L98.9581 42.8536L99.7738 44.5618L97.3377 44.9256L93.0762 43.7274L89.4883 41.6732L88.6719 39.9604L91.1087 39.6013L95.3702 40.7994Z" fill="url(#paint15_radial_5097_16527)"/>
<path fill-rule="evenodd" clip-rule="evenodd" d="M88.6724 39.9601L85.7155 41.5558L86.8256 43.8873L89.4889 41.6729L88.6724 39.9601Z" fill="url(#paint16_radial_5097_16527)"/>
<path fill-rule="evenodd" clip-rule="evenodd" d="M89.4877 41.6725L86.8244 43.8869L91.7226 46.6914L93.0756 43.7267L89.4877 41.6725Z" fill="url(#paint17_radial_5097_16527)"/>
<path fill-rule="evenodd" clip-rule="evenodd" d="M93.0759 43.7272L97.3374 44.9253L97.5381 48.3271L91.7229 46.6919L93.0759 43.7272Z" fill="url(#paint18_radial_5097_16527)"/>
<path fill-rule="evenodd" clip-rule="evenodd" d="M99.7732 44.5622L100.861 47.8371L97.5379 48.3277L97.3372 44.9259L99.7732 44.5622Z" fill="url(#paint19_radial_5097_16527)"/>
<path fill-rule="evenodd" clip-rule="evenodd" d="M86.8262 43.8872L90.1859 52.7939L91.7244 46.6917L86.8262 43.8872Z" fill="url(#paint20_radial_5097_16527)"/>
<path fill-rule="evenodd" clip-rule="evenodd" d="M91.7235 46.6915L97.5386 48.3268L90.185 52.7937L91.7235 46.6915Z" fill="url(#paint21_radial_5097_16527)"/>
<path fill-rule="evenodd" clip-rule="evenodd" d="M100.862 47.8361L90.185 52.7938L97.5386 48.3268L100.862 47.8361Z" fill="url(#paint22_radial_5097_16527)"/>
<path fill-rule="evenodd" clip-rule="evenodd" d="M85.7148 41.5562L90.1847 52.7944L86.825 43.8876L85.7148 41.5562Z" fill="#85F2FF"/>
<path style="mix-blend-mode:screen" opacity="0.5" fill-rule="evenodd" clip-rule="evenodd" d="M92.0977 39.8857C93.3555 40.7747 96.036 43.7361 96.7933 44.7836L97.3384 44.9343L98.4548 44.757L98.6454 44.7267C97.1865 43.492 95.8598 42.1092 94.6865 40.6005L92.0977 39.8857Z" fill="url(#paint23_radial_5097_16527)"/>
<g style="mix-blend-mode:screen" opacity="0.75">
<path fill-rule="evenodd" clip-rule="evenodd" d="M87.66 46.0904C87.3575 44.4495 88.1206 44.8308 88.9552 45.4566C91.592 47.4107 91.0341 48.8486 90.4734 51.6456L91.7244 46.6917L86.8262 43.8872C87.1054 44.6199 87.3808 45.3578 87.6405 46.0842L87.66 46.0904Z" fill="#9FDFFF"/>
</g>
<path style="mix-blend-mode:screen" opacity="0.5" fill-rule="evenodd" clip-rule="evenodd" d="M93.5302 47.2004C95.913 47.8781 95.1768 49.2187 93.4494 50.4702L90.1869 52.8077L97.5293 48.3285L93.5211 47.2019L93.5302 47.2004Z" fill="url(#paint24_radial_5097_16527)"/>
<g style="mix-blend-mode:screen">
<path fill-rule="evenodd" clip-rule="evenodd" d="M89.4916 41.6686L88.7465 40.1119C89.0509 40.915 89.2074 41.1972 89.0193 41.5947C88.7217 42.1276 88.337 42.607 87.8813 43.0131L89.4916 41.6686Z" fill="#8FFCFF"/>
</g>
<path fill-rule="evenodd" clip-rule="evenodd" d="M93.076 43.7275L89.4919 41.6681L87.8816 43.0126C88.7128 42.3874 89.2028 42.1328 89.5633 42.2058C90.1263 42.3734 90.6659 42.6113 91.1693 42.9138C91.9925 43.3506 92.4086 43.8615 92.4608 44.1603C92.5199 44.5324 92.2865 45.3186 91.9457 46.2195L93.0783 43.7132L93.076 43.7275Z" fill="white"/>
<g style="mix-blend-mode:screen" opacity="0.5">
<path fill-rule="evenodd" clip-rule="evenodd" d="M93.0751 43.7277L91.9425 46.234C92.4713 45.1403 92.9393 44.6007 93.3015 44.4501C93.7911 44.2514 94.5568 44.2972 96.0821 44.5853L93.0751 43.7277Z" fill="#8FFCFF"/>
</g>
<path style="mix-blend-mode:screen" fill-rule="evenodd" clip-rule="evenodd" d="M90.4146 39.688L88.6719 39.9648L89.2221 41.1151L89.4876 41.6731L93.0717 43.7326L94.7226 44.1961C93.6295 43.4951 90.6272 40.4406 90.4129 39.7069L90.4146 39.688Z" fill="url(#paint25_radial_5097_16527)"/>
</g>
<path opacity="0.1" d="M31.5087 51.6122L35.5573 49.3491C35.9365 49.1371 36.4159 49.3006 36.5865 49.7003L38.0411 53.1091C38.0954 53.2362 38.1846 53.3454 38.2984 53.4239L41.5408 55.6609C41.9692 55.9564 41.9604 56.5923 41.524 56.8758L37.7229 59.3451C37.599 59.4256 37.5023 59.5419 37.4458 59.6784L35.7953 63.6634C35.6176 64.0925 35.09 64.2493 34.7068 63.9869L30.8834 61.3692C30.7571 61.2827 30.6068 61.238 30.4537 61.2415L25.2843 61.3595C24.741 61.372 24.3745 60.8082 24.6064 60.3167L26.2177 56.9013C26.2945 56.7386 26.3086 56.5533 26.2573 56.3809L25.182 52.7654C25.0446 52.3033 25.3841 51.8371 25.8661 51.8261L31.1686 51.705C31.2879 51.7023 31.4046 51.6704 31.5087 51.6122Z" fill="black"/>
<path d="M24.0393 59.6133L24.0041 58.075L40.5483 53.922L40.5817 55.3844C40.5868 55.6071 40.4853 55.8189 40.3085 55.9544L37.1647 58.3637C37.0679 58.4379 36.9922 58.5363 36.9452 58.6489L35.2208 62.7803C35.0521 63.1845 34.5571 63.3352 34.1918 63.0937L29.9673 60.3007C29.8486 60.2223 29.7087 60.1819 29.5664 60.1852L24.753 60.2951C24.3676 60.3039 24.0481 59.9986 24.0393 59.6133Z" fill="url(#paint26_linear_5097_16527)"/>
<path d="M30.6759 49.5919L34.5409 47.4314C34.903 47.229 35.3606 47.3851 35.5234 47.7667L36.9121 51.0209C36.9639 51.1423 37.0491 51.2465 37.1577 51.3214L40.2532 53.457C40.6621 53.7391 40.6537 54.3461 40.2371 54.6168L36.6084 56.9742C36.49 57.051 36.3978 57.162 36.3438 57.2924L34.7681 61.0967C34.5985 61.5063 34.0948 61.656 33.729 61.4055L30.079 58.9064C29.9584 58.8239 29.8149 58.7812 29.6687 58.7846L24.7337 58.8973C24.215 58.9091 23.8652 58.3709 24.0866 57.9017L25.6248 54.6411C25.6981 54.4858 25.7115 54.309 25.6626 54.1444L24.636 50.6928C24.5048 50.2517 24.829 49.8066 25.2891 49.796L30.3513 49.6805C30.4651 49.6779 30.5765 49.6475 30.6759 49.5919Z" fill="url(#paint27_linear_5097_16527)"/>
<mask id="mask1_5097_16527" style="mask-type:alpha" maskUnits="userSpaceOnUse" x="24" y="47" width="17" height="15">
<path d="M30.6761 49.5918L34.5399 47.4319C34.9025 47.2292 35.3608 47.3856 35.5238 47.7676L36.912 51.0206C36.9639 51.1422 37.0491 51.2466 37.1579 51.3216L40.252 53.4562C40.6615 53.7387 40.6531 54.3465 40.2358 54.6176L36.6086 56.974C36.4901 57.051 36.3977 57.1621 36.3436 57.2927L34.7686 61.0956C34.5987 61.5058 34.0943 61.6557 33.728 61.4048L30.0792 58.9066C29.9585 58.8239 29.8148 58.7812 29.6684 58.7846L24.7353 58.8972C24.2159 58.9091 23.8655 58.3702 24.0872 57.9002L25.6247 54.6415C25.698 54.4859 25.7115 54.3088 25.6625 54.144L24.6364 50.694C24.505 50.2523 24.8296 49.8065 25.2904 49.796L30.351 49.6805C30.465 49.6779 30.5766 49.6474 30.6761 49.5918Z" fill="#07E0E0"/>
</mask>
<g mask="url(#mask1_5097_16527)">
<path opacity="0.2" d="M30.69 49.5631L34.572 47.4232C34.9331 47.2241 35.3872 47.3793 35.5509 47.7577L35.6598 48.0094L24.3017 58.7673L24.234 58.7029C24.0171 58.4965 23.9558 58.1749 24.0814 57.9032L25.6301 54.555C25.7019 54.3997 25.7143 54.2236 25.6649 54.0598L24.642 50.6661C24.5087 50.2238 24.8334 49.7762 25.2952 49.7656L30.3686 49.6498C30.4811 49.6472 30.5914 49.6175 30.69 49.5631Z" fill="white"/>
<path opacity="0.2" d="M29.4743 58.7884L28.0768 58.8203L36.5435 49.9579L36.985 50.9266L29.4743 58.7884Z" fill="white"/>
</g>
<ellipse cx="28.4284" cy="52.0492" rx="1.77403" ry="1.30095" transform="rotate(-24.6439 28.4284 52.0492)" fill="white"/>
<ellipse cx="30.8014" cy="50.8223" rx="0.553643" ry="0.406005" transform="rotate(-24.6439 30.8014 50.8223)" fill="white"/>
<path opacity="0.1" d="M48.4013 80.6327L52.4498 78.3696C52.8291 78.1576 53.3085 78.3212 53.479 78.7208L54.9337 82.1296C54.9879 82.2567 55.0771 82.3659 55.1909 82.4444L58.4334 84.6814C58.8618 84.9769 58.853 85.6128 58.4165 85.8963L54.6155 88.3656C54.4916 88.4462 54.3949 88.5624 54.3383 88.699L52.6879 92.6839C52.5102 93.113 51.9826 93.2698 51.5994 93.0074L47.776 90.3897C47.6497 90.3032 47.4994 90.2585 47.3463 90.262L42.1769 90.3801C41.6335 90.3925 41.2671 89.8287 41.499 89.3372L43.1103 85.9218C43.1871 85.7591 43.2011 85.5738 43.1499 85.4014L42.0746 81.7859C41.9371 81.3238 42.2767 80.8576 42.7587 80.8466L48.0612 80.7255C48.1804 80.7228 48.2972 80.6909 48.4013 80.6327Z" fill="black"/>
<path d="M40.9318 88.6333L40.8967 87.095L57.4409 82.942L57.4743 84.4045C57.4794 84.6272 57.3779 84.8389 57.2011 84.9744L54.0573 87.3837C53.9604 87.458 53.8847 87.5563 53.8377 87.6689L52.1134 91.8003C51.9447 92.2045 51.4497 92.3552 51.0844 92.1137L46.8599 89.3208C46.7412 89.2423 46.6013 89.202 46.459 89.2052L41.6456 89.3151C41.2602 89.3239 40.9406 89.0186 40.9318 88.6333Z" fill="url(#paint28_linear_5097_16527)"/>
<path d="M47.5685 78.6124L51.4335 76.4519C51.7955 76.2495 52.2532 76.4056 52.416 76.7872L53.8047 80.0414C53.8565 80.1628 53.9416 80.267 54.0503 80.342L57.1457 82.4775C57.5547 82.7596 57.5463 83.3666 57.1296 83.6373L53.5009 85.9947C53.3826 86.0715 53.2903 86.1825 53.2363 86.3129L51.6607 90.1172C51.4911 90.5268 50.9874 90.6765 50.6216 90.426L46.9716 87.927C46.851 87.8444 46.7075 87.8017 46.5613 87.8051L41.6263 87.9178C41.1076 87.9296 40.7578 87.3914 40.9791 86.9222L42.5174 83.6616C42.5907 83.5063 42.6041 83.3295 42.5552 83.1649L41.5286 79.7133C41.3974 79.2722 41.7216 78.8271 42.1817 78.8166L47.2438 78.701C47.3576 78.6984 47.4691 78.668 47.5685 78.6124Z" fill="url(#paint29_linear_5097_16527)"/>
<mask id="mask2_5097_16527" style="mask-type:alpha" maskUnits="userSpaceOnUse" x="40" y="76" width="18" height="15">
<path d="M47.5687 78.6118L51.4325 76.4519C51.7951 76.2492 52.2534 76.4056 52.4164 76.7877L53.8046 80.0406C53.8564 80.1622 53.9417 80.2666 54.0505 80.3416L57.1446 82.4762C57.5541 82.7587 57.5456 83.3666 57.1284 83.6376L53.5012 85.994C53.3827 86.071 53.2903 86.1821 53.2362 86.3127L51.6612 90.1156C51.4913 90.5258 50.9869 90.6757 50.6206 90.4249L46.9718 87.9266C46.851 87.8439 46.7073 87.8013 46.561 87.8046L41.6279 87.9172C41.1085 87.9291 40.7581 87.3902 40.9798 86.9203L42.5172 83.6615C42.5906 83.506 42.6041 83.3288 42.5551 83.164L41.529 79.714C41.3976 79.2723 41.7222 78.8266 42.183 78.816L47.2436 78.7005C47.3576 78.6979 47.4692 78.6674 47.5687 78.6118Z" fill="#07E0E0"/>
</mask>
<g mask="url(#mask2_5097_16527)">
<path opacity="0.2" d="M47.5826 78.5822L51.4646 76.4422C51.8257 76.2432 52.2797 76.3983 52.4435 76.7768L52.5523 77.0285L41.1942 87.7864L41.1265 87.7219C40.9097 87.5156 40.8483 87.194 40.974 86.9222L42.5227 83.574C42.5945 83.4188 42.6069 83.2426 42.5575 83.0789L41.5345 79.6851C41.4012 79.2428 41.726 78.7952 42.1878 78.7847L47.2611 78.6688C47.3737 78.6662 47.484 78.6365 47.5826 78.5822Z" fill="white"/>
<path opacity="0.2" d="M46.3668 87.8079L44.9693 87.8398L53.436 78.9774L53.8776 79.9461L46.3668 87.8079Z" fill="white"/>
</g>
<ellipse cx="45.3209" cy="81.0692" rx="1.77403" ry="1.30095" transform="rotate(-24.6439 45.3209 81.0692)" fill="white"/>
<ellipse cx="47.694" cy="79.8423" rx="0.553643" ry="0.406005" transform="rotate(-24.6439 47.694 79.8423)" fill="white"/>
<path opacity="0.1" d="M74.1181 86.8261L78.1666 84.5629C78.5459 84.3509 79.0253 84.5145 79.1958 84.9142L80.6505 88.3229C80.7047 88.4501 80.7939 88.5593 80.9077 88.6378L84.1502 90.8748C84.5786 91.1703 84.5698 91.8061 84.1333 92.0897L80.3323 94.559C80.2083 94.6395 80.1117 94.7557 80.0551 94.8923L78.4047 98.8773C78.227 99.3064 77.6994 99.4632 77.3162 99.2008L73.4928 96.583C73.3665 96.4965 73.2162 96.4519 73.0631 96.4554L67.8937 96.5734C67.3503 96.5858 66.9839 96.0221 67.2158 95.5305L68.8271 92.1151C68.9038 91.9525 68.9179 91.7672 68.8667 91.5948L67.7914 87.9793C67.6539 87.5172 67.9935 87.0509 68.4754 87.0399L73.778 86.9189C73.8972 86.9161 74.014 86.8843 74.1181 86.8261Z" fill="black"/>
<path d="M66.6486 94.8271L66.6135 93.2889L83.1577 89.1359L83.1911 90.5983C83.1962 90.821 83.0947 91.0327 82.9179 91.1682L79.7741 93.5776C79.6772 93.6518 79.6015 93.7501 79.5545 93.8627L77.8302 97.9941C77.6615 98.3983 77.1665 98.5491 76.8012 98.3075L72.5767 95.5146C72.458 95.4361 72.3181 95.3958 72.1758 95.3991L67.3623 95.509C66.977 95.5178 66.6574 95.2125 66.6486 94.8271Z" fill="url(#paint30_linear_5097_16527)"/>
<path d="M73.2853 84.8058L77.1503 82.6452C77.5123 82.4428 77.97 82.599 78.1328 82.9805L79.5215 86.2347C79.5733 86.3561 79.6584 86.4604 79.7671 86.5353L82.8625 88.6709C83.2715 88.953 83.2631 89.56 82.8464 89.8307L79.2177 92.188C79.0994 92.2649 79.0071 92.3759 78.9531 92.5063L77.3775 96.3105C77.2078 96.7202 76.7042 96.8699 76.3383 96.6194L72.6884 94.1203C72.5677 94.0377 72.4243 93.9951 72.2781 93.9984L67.3431 94.1111C66.8244 94.123 66.4746 93.5848 66.6959 93.1155L68.2342 89.855C68.3075 89.6997 68.3209 89.5228 68.272 89.3582L67.2454 85.9067C67.1142 85.4655 67.4384 85.0204 67.8985 85.0099L72.9606 84.8943C73.0744 84.8917 73.1859 84.8613 73.2853 84.8058Z" fill="url(#paint31_linear_5097_16527)"/>
<mask id="mask3_5097_16527" style="mask-type:alpha" maskUnits="userSpaceOnUse" x="66" y="82" width="18" height="15">
<path d="M73.2855 84.8057L77.1493 82.6458C77.5119 82.4431 77.9702 82.5995 78.1332 82.9815L79.5214 86.2345C79.5732 86.3561 79.6585 86.4604 79.7673 86.5355L82.8614 88.67C83.2709 88.9526 83.2624 89.5604 82.8452 89.8315L79.218 92.1879C79.0995 92.2649 79.0071 92.376 78.953 92.5065L77.378 96.3094C77.2081 96.7197 76.7037 96.8695 76.3374 96.6187L72.6886 94.1205C72.5678 94.0378 72.4241 93.9951 72.2778 93.9984L67.3447 94.1111C66.8252 94.123 66.4749 93.584 66.6966 93.1141L68.234 89.8553C68.3074 89.6998 68.3209 89.5227 68.2719 89.3579L67.2458 85.9079C67.1144 85.4661 67.439 85.0204 67.8998 85.0099L72.9604 84.8943C73.0744 84.8917 73.186 84.8613 73.2855 84.8057Z" fill="#07E0E0"/>
</mask>
<g mask="url(#mask3_5097_16527)">
<path opacity="0.2" d="M73.2994 84.7775L77.1814 82.6375C77.5425 82.4385 77.9965 82.5937 78.1603 82.9721L78.2691 83.2238L66.911 93.9817L66.8433 93.9173C66.6265 93.7109 66.5651 93.3893 66.6908 93.1176L68.2395 89.7693C68.3113 89.6141 68.3236 89.4379 68.2743 89.2742L67.2513 85.8804C67.118 85.4382 67.4428 84.9905 67.9046 84.98L72.9779 84.8641C73.0905 84.8616 73.2008 84.8318 73.2994 84.7775Z" fill="white"/>
<path opacity="0.2" d="M72.0836 94.0027L70.6861 94.0347L79.1528 85.1723L79.5944 86.1409L72.0836 94.0027Z" fill="white"/>
</g>
<ellipse cx="71.0377" cy="87.2626" rx="1.77403" ry="1.30095" transform="rotate(-24.6439 71.0377 87.2626)" fill="white"/>
<ellipse cx="73.4108" cy="86.0361" rx="0.553643" ry="0.406005" transform="rotate(-24.6439 73.4108 86.0361)" fill="white"/>
<path opacity="0.1" d="M41.911 31.7778L45.9596 29.5146C46.3389 29.3026 46.8183 29.4662 46.9888 29.8658L48.4434 33.2746C48.4977 33.4018 48.5869 33.5109 48.7007 33.5894L51.9432 35.8264C52.3716 36.122 52.3627 36.7578 51.9263 37.0413L48.1253 39.5106C48.0013 39.5912 47.9047 39.7074 47.8481 39.844L46.1976 43.829C46.0199 44.2581 45.4924 44.4148 45.1091 44.1525L41.2858 41.5347C41.1594 41.4482 41.0091 41.4035 40.8561 41.407L35.6867 41.5251C35.1433 41.5375 34.7769 40.9737 35.0088 40.4822L36.6201 37.0668C36.6968 36.9041 36.7109 36.7188 36.6596 36.5464L35.5843 32.9309C35.4469 32.4689 35.7865 32.0026 36.2684 31.9916L41.571 31.8705C41.6902 31.8678 41.8069 31.8359 41.911 31.7778Z" fill="black"/>
<path d="M34.4416 39.7778L34.4065 38.2396L50.9506 34.0866L50.984 35.549C50.9891 35.7717 50.8876 35.9834 50.7108 36.1189L47.5671 38.5283C47.4702 38.6025 47.3945 38.7008 47.3475 38.8134L45.6232 42.9448C45.4545 43.349 44.9595 43.4998 44.5941 43.2582L40.3696 40.4653C40.2509 40.3868 40.1111 40.3465 39.9688 40.3497L35.1553 40.4597C34.7699 40.4685 34.4504 40.1632 34.4416 39.7778Z" fill="url(#paint32_linear_5097_16527)"/>
<path d="M41.0782 29.7574L44.9432 27.5969C45.3053 27.3945 45.7629 27.5507 45.9258 27.9322L47.3144 31.1864C47.3662 31.3078 47.4514 31.412 47.56 31.487L50.6555 33.6225C51.0645 33.9047 51.056 34.5117 50.6394 34.7823L47.0107 37.1397C46.8924 37.2166 46.8001 37.3275 46.7461 37.4579L45.1705 41.2622C45.0008 41.6718 44.4972 41.8215 44.1313 41.571L40.4813 39.072C40.3607 38.9894 40.2172 38.9468 40.0711 38.9501L35.1361 39.0628C34.6174 39.0746 34.2675 38.5364 34.4889 38.0672L36.0272 34.8067C36.1004 34.6514 36.1139 34.4745 36.0649 34.3099L35.0384 30.8583C34.9072 30.4172 35.2314 29.9721 35.6915 29.9616L40.7536 29.846C40.8674 29.8434 40.9789 29.813 41.0782 29.7574Z" fill="url(#paint33_linear_5097_16527)"/>
<mask id="mask4_5097_16527" style="mask-type:alpha" maskUnits="userSpaceOnUse" x="34" y="27" width="17" height="15">
<path d="M41.0784 29.7568L44.9423 27.5969C45.3049 27.3942 45.7631 27.5506 45.9262 27.9327L47.3143 31.1857C47.3662 31.3072 47.4515 31.4116 47.5603 31.4866L50.6543 33.6212C51.0639 33.9037 51.0554 34.5116 50.6382 34.7826L47.011 37.139C46.8925 37.216 46.8001 37.3271 46.746 37.4577L45.1709 41.2606C45.001 41.6708 44.4967 41.8207 44.1303 41.5699L40.4816 39.0717C40.3608 38.989 40.2171 38.9463 40.0708 38.9496L35.1377 39.0623C34.6182 39.0741 34.2679 38.5352 34.4896 38.0653L36.027 34.8065C36.1004 34.651 36.1138 34.4739 36.0648 34.309L35.0387 30.8591C34.9074 30.4173 35.232 29.9716 35.6927 29.9611L40.7534 29.8455C40.8673 29.8429 40.9789 29.8125 41.0784 29.7568Z" fill="#07E0E0"/>
</mask>
<g mask="url(#mask4_5097_16527)">
<path opacity="0.2" d="M41.0924 29.7277L44.9743 27.5877C45.3354 27.3887 45.7895 27.5439 45.9532 27.9223L46.0621 28.174L34.704 38.9319L34.6363 38.8675C34.4194 38.6611 34.3581 38.3395 34.4838 38.0678L36.0324 34.7195C36.1042 34.5643 36.1166 34.3881 36.0673 34.2244L35.0443 30.8306C34.911 30.3884 35.2357 29.9407 35.6976 29.9302L40.7709 29.8143C40.8835 29.8117 40.9937 29.782 41.0924 29.7277Z" fill="white"/>
<path opacity="0.2" d="M39.8766 38.9529L38.4791 38.9849L46.9458 30.1225L47.3874 31.0911L39.8766 38.9529Z" fill="white"/>
</g>
<ellipse cx="38.8307" cy="32.2142" rx="1.77403" ry="1.30095" transform="rotate(-24.6439 38.8307 32.2142)" fill="white"/>
<ellipse cx="41.2038" cy="30.9868" rx="0.553643" ry="0.406005" transform="rotate(-24.6439 41.2038 30.9868)" fill="white"/>
<path opacity="0.1" d="M30.9385 77.6787C31.1798 77.7675 31.3881 77.8819 31.5515 78.0156C31.7148 78.1492 31.83 78.2994 31.8905 78.4575C31.9509 78.6156 31.9554 78.7786 31.9037 78.937C31.852 79.0955 31.7451 79.2463 31.5892 79.3809L27.3135 83.3903L29.1333 83.994L29.2384 84.0314C30.2332 84.3636 30.2293 84.8288 29.2297 85.062L18.3239 87.6107C18.2017 87.649 18.0659 87.6719 17.9259 87.6778C17.7858 87.6837 17.6448 87.6725 17.5126 87.6449C17.2053 87.542 17.1915 87.2545 17.5193 86.8468L20.8537 82.8979L18.848 82.2242C18.3462 82.0328 17.9869 81.7441 17.8399 81.4142C17.6928 81.0842 17.7684 80.7366 18.052 80.4387L21.7623 76.1418C21.8689 75.994 22.0295 75.8607 22.2337 75.7504C22.4379 75.6401 22.6812 75.5552 22.9481 75.5012C23.2151 75.4472 23.4997 75.4253 23.7837 75.4368C24.0678 75.4484 24.345 75.4931 24.5977 75.5682L30.9385 77.6787Z" fill="black"/>
<path d="M28.8704 80.7531L28.7761 80.6985L27.1531 79.8151L26.7822 79.5611L24.3439 80.1846L25.9738 81.0607L26.0681 81.1152C26.9592 81.5976 26.9791 82.3251 26.1122 82.7271L16.6537 87.1186C16.5232 87.1788 16.3851 87.221 16.2432 87.244L19.0883 86.8806C19.2311 86.8582 19.3696 86.8134 19.4986 86.7481L28.9573 82.3638C29.7886 81.9627 29.7686 81.2353 28.8704 80.7531Z" fill="url(#paint34_linear_5097_16527)"/>
<path d="M30.0541 70.7568L24.403 67.6924C24.1045 67.5321 23.7634 67.4691 23.4273 67.5121L20.5822 67.8754C20.9182 67.8357 21.2583 67.8986 21.5579 68.0557L27.209 71.1202C27.4256 71.2499 27.6145 71.4211 27.7648 71.624C27.9151 71.8268 28.0239 72.0574 28.085 72.3023C28.146 72.5473 28.1582 72.8019 28.1207 73.0516C28.0832 73.3013 27.9968 73.5411 27.8665 73.7574L24.3094 80.1857L27.1543 79.8152L30.7044 73.3942C30.8351 73.1784 30.9219 72.9389 30.96 72.6895C30.998 72.4401 30.9865 72.1856 30.9261 71.9407C30.8657 71.6957 30.7576 71.4651 30.608 71.2619C30.4583 71.0588 30.2701 70.8872 30.0541 70.7568Z" fill="url(#paint35_linear_5097_16527)"/>
<g style="mix-blend-mode:overlay">
<path d="M26.1614 81.0774L26.0671 81.0229L24.4806 80.167L24.345 80.1707L25.975 81.0469L26.0693 81.1014C26.9604 81.5838 26.9803 82.3113 26.1134 82.7133L16.7401 87.0881L26.2059 82.7036C27.0724 82.2873 27.0525 81.5598 26.1614 81.0774Z" fill="white"/>
</g>
<g style="mix-blend-mode:overlay">
<path d="M28.0517 73.7518C28.1829 73.5358 28.2701 73.296 28.3081 73.0461C28.3461 72.7962 28.3342 72.5413 28.2731 72.2961C28.2119 72.0508 28.1028 71.8201 27.9519 71.6173C27.8011 71.4146 27.6115 71.2437 27.3942 71.1146L21.7504 68.0571C21.4865 67.9147 21.1881 67.8487 20.8887 67.8666C21.1395 67.8735 21.3853 67.9375 21.6076 68.0539L27.2587 71.1183C27.4753 71.2481 27.6642 71.4193 27.8145 71.6221C27.9648 71.825 28.0736 72.0555 28.1347 72.3005C28.1957 72.5455 28.2079 72.8001 28.1704 73.0498C28.1329 73.2995 28.0465 73.5393 27.9162 73.7555L24.3591 80.1838L24.5231 80.1794L28.0517 73.7518Z" fill="white"/>
</g>
<path d="M27.2436 71.1194C27.4602 71.2491 27.649 71.4204 27.7993 71.6232C27.9496 71.8261 28.0584 72.0566 28.1195 72.3016C28.1806 72.5465 28.1927 72.8012 28.1552 73.0509C28.1177 73.3005 28.0313 73.5403 27.901 73.7566L24.3439 80.1849L25.9739 81.0611L26.0681 81.1156C26.9593 81.598 26.9792 82.3255 26.1122 82.7275L16.6538 87.1189C16.5482 87.1834 16.43 87.2243 16.3072 87.2388C16.1844 87.2532 16.0599 87.2409 15.9423 87.2026C15.667 87.0531 15.6404 86.6042 15.9081 85.9545L18.6408 79.6558L16.8439 78.6771C16.3933 78.3965 16.063 77.9586 15.9171 77.4482C15.7712 76.9378 15.8202 76.3914 16.0546 75.915L19.1003 69.0581C19.1866 68.8231 19.321 68.6087 19.495 68.4286C19.669 68.2485 19.8786 68.1067 20.1105 68.0124C20.3424 67.918 20.5915 67.8731 20.8418 67.8806C21.0921 67.888 21.338 67.9477 21.5639 68.0557L27.2436 71.1194Z" fill="url(#paint36_linear_5097_16527)"/>
<g style="mix-blend-mode:overlay">
<path d="M24.2396 69.4893L21.5952 68.0556C21.3679 67.9427 21.1193 67.8793 20.8658 67.8693C20.6122 67.8594 20.3594 67.9033 20.124 67.998C19.8886 68.0928 19.6759 68.2363 19.5 68.4191C19.324 68.602 19.1887 68.82 19.103 69.0588L18.9819 69.3262L25.0801 78.8165L27.4539 74.5333L24.2396 69.4893Z" fill="url(#paint37_linear_5097_16527)"/>
<path d="M17.4228 72.88L16.0787 75.9288C15.8443 76.4052 15.7953 76.9516 15.9412 77.462C16.0871 77.9724 16.4174 78.4103 16.868 78.6909L18.6503 79.6557L16.7433 84.0475L17.9958 85.9975C18.184 86.0923 18.3718 86.1728 18.5593 86.2462L24.3106 83.5764L17.4228 72.88Z" fill="url(#paint38_linear_5097_16527)"/>
</g>
<path opacity="0.1" d="M75.3057 40.4815C75.547 40.5702 75.7553 40.6847 75.9187 40.8183C76.082 40.9519 76.1972 41.1021 76.2577 41.2602C76.3181 41.4184 76.3226 41.5813 76.2709 41.7398C76.2192 41.8982 76.1123 42.049 75.9564 42.1836L71.6807 46.193L73.5005 46.7967L73.6056 46.8341C74.6004 47.1663 74.5965 47.6315 73.5969 47.8648L62.6911 50.4134C62.5689 50.4518 62.4331 50.4747 62.293 50.4806C62.153 50.4865 62.012 50.4752 61.8798 50.4476C61.5725 50.3447 61.5587 50.0572 61.8865 49.6495L65.2208 45.7006L63.2151 45.0269C62.7134 44.8355 62.3541 44.5468 62.207 44.2169C62.06 43.887 62.1356 43.5393 62.4192 43.2414L66.1295 38.9445C66.2361 38.7967 66.3967 38.6634 66.6009 38.5531C66.8051 38.4428 67.0484 38.3579 67.3153 38.3039C67.5822 38.2499 67.8669 38.228 68.1509 38.2396C68.435 38.2511 68.7122 38.2959 68.9649 38.371L75.3057 40.4815Z" fill="black"/>
<path d="M73.2376 43.5558L73.1433 43.5013L71.5203 42.6178L71.1494 42.3639L68.7111 42.9873L70.341 43.8635L70.4353 43.918C71.3264 44.4003 71.3463 45.1278 70.4794 45.5299L61.0209 49.9213C60.8904 49.9815 60.7523 50.0237 60.6104 50.0467L63.4554 49.6834C63.5983 49.6609 63.7368 49.6162 63.8658 49.5508L73.3245 45.1665C74.1557 44.7655 74.1358 44.038 73.2376 43.5558Z" fill="url(#paint39_linear_5097_16527)"/>
<path d="M74.4213 33.5591L68.7702 30.4946C68.4717 30.3344 68.1306 30.2714 67.7945 30.3143L64.9494 30.6777C65.2854 30.638 65.6255 30.7008 65.9251 30.858L71.5762 33.9224C71.7928 34.0522 71.9817 34.2234 72.132 34.4262C72.2823 34.6291 72.3911 34.8596 72.4521 35.1046C72.5132 35.3496 72.5254 35.6042 72.4879 35.8539C72.4504 36.1035 72.364 36.3434 72.2337 36.5596L68.6766 42.9879L71.5215 42.6175L75.0716 36.1965C75.2023 35.9806 75.2891 35.7412 75.3271 35.4918C75.3652 35.2424 75.3537 34.9879 75.2933 34.7429C75.2329 34.498 75.1248 34.2673 74.9752 34.0642C74.8255 33.861 74.6373 33.6894 74.4213 33.5591Z" fill="url(#paint40_linear_5097_16527)"/>
<g style="mix-blend-mode:overlay">
<path d="M70.5286 43.8797L70.4343 43.8252L68.8477 42.9692L68.7122 42.973L70.3422 43.8491L70.4364 43.9036C71.3276 44.386 71.3475 45.1135 70.4805 45.5155L61.1072 49.8903L70.5731 45.5058C71.4396 45.0896 71.4197 44.3621 70.5286 43.8797Z" fill="white"/>
</g>
<g style="mix-blend-mode:overlay">
<path d="M72.4189 36.5545C72.5501 36.3386 72.6373 36.0987 72.6753 35.8488C72.7133 35.599 72.7014 35.344 72.6403 35.0988C72.5791 34.8536 72.47 34.6229 72.3191 34.4201C72.1683 34.2173 71.9787 34.0464 71.7614 33.9173L66.1176 30.8598C65.8537 30.7174 65.5553 30.6514 65.2559 30.6693C65.5066 30.6762 65.7525 30.7403 65.9748 30.8566L71.6259 33.921C71.8425 34.0508 72.0313 34.222 72.1817 34.4249C72.332 34.6277 72.4408 34.8582 72.5018 35.1032C72.5629 35.3482 72.575 35.6028 72.5376 35.8525C72.5001 36.1022 72.4137 36.342 72.2833 36.5582L68.7263 42.9866L68.8903 42.9821L72.4189 36.5545Z" fill="white"/>
</g>
<path d="M71.6108 33.9221C71.8274 34.0519 72.0162 34.2231 72.1665 34.4259C72.3168 34.6288 72.4256 34.8593 72.4867 35.1043C72.5478 35.3493 72.5599 35.6039 72.5224 35.8536C72.4849 36.1033 72.3985 36.3431 72.2682 36.5593L68.7111 42.9877L70.341 43.8638L70.4353 43.9183C71.3264 44.4007 71.3464 45.1282 70.4794 45.5302L61.0209 49.9217C60.9154 49.9862 60.7972 50.027 60.6744 50.0415C60.5516 50.0559 60.4271 50.0436 60.3095 50.0054C60.0342 49.8559 60.0076 49.4069 60.2753 48.7572L63.008 42.4585L61.2111 41.4798C60.7605 41.1993 60.4301 40.7613 60.2843 40.2509C60.1384 39.7405 60.1874 39.1941 60.4218 38.7178L63.4675 31.8609C63.5538 31.6258 63.6882 31.4114 63.8622 31.2313C64.0361 31.0512 64.2458 30.9095 64.4777 30.8151C64.7096 30.7207 64.9587 30.6758 65.209 30.6833C65.4593 30.6908 65.7052 30.7504 65.9311 30.8585L71.6108 33.9221Z" fill="url(#paint41_linear_5097_16527)"/>
<g style="mix-blend-mode:overlay">
<path d="M68.6068 32.2915L65.9624 30.8578C65.7351 30.745 65.4865 30.6815 65.2329 30.6716C64.9794 30.6617 64.7266 30.7055 64.4912 30.8003C64.2558 30.895 64.0431 31.0386 63.8672 31.2214C63.6912 31.4042 63.5559 31.6222 63.4702 31.8611L63.3491 32.1285L69.4473 41.6188L71.8211 37.3355L68.6068 32.2915Z" fill="url(#paint42_linear_5097_16527)"/>
<path d="M61.79 35.6823L60.4459 38.7311C60.2115 39.2074 60.1625 39.7538 60.3084 40.2642C60.4543 40.7746 60.7846 41.2126 61.2352 41.4931L63.0174 42.4579L61.1105 46.8497L62.363 48.7997C62.5512 48.8945 62.7389 48.975 62.9265 49.0484L68.6777 46.3786L61.79 35.6823Z" fill="url(#paint43_linear_5097_16527)"/>
</g>
<path opacity="0.1" d="M89.5674 66.6104C89.8087 66.6991 90.017 66.8136 90.1804 66.9472C90.3437 67.0809 90.459 67.231 90.5194 67.3891C90.5798 67.5473 90.5843 67.7102 90.5326 67.8687C90.4809 68.0271 90.374 68.178 90.2181 68.3125L85.9425 72.3219L87.7622 72.9256L87.8673 72.963C88.8621 73.2952 88.8582 73.7604 87.8586 73.9937L76.9528 76.5423C76.8306 76.5807 76.6948 76.6036 76.5548 76.6095C76.4147 76.6154 76.2737 76.6041 76.1415 76.5765C75.8342 76.4736 75.8204 76.1861 76.1483 75.7784L79.4826 71.8295L77.4769 71.1558C76.9751 70.9644 76.6158 70.6757 76.4688 70.3458C76.3217 70.0159 76.3973 69.6682 76.6809 69.3704L80.3912 65.0734C80.4978 64.9256 80.6584 64.7923 80.8626 64.682C81.0668 64.5717 81.3101 64.4868 81.577 64.4328C81.844 64.3789 82.1286 64.3569 82.4126 64.3685C82.6967 64.38 82.9739 64.4248 83.2266 64.4999L89.5674 66.6104Z" fill="black"/>
<path d="M87.4993 69.6847L87.405 69.6302L85.782 68.7467L85.4111 68.4928L82.9728 69.1162L84.6027 69.9924L84.697 70.0469C85.5881 70.5293 85.608 71.2568 84.7411 71.6588L75.2826 76.0502C75.1521 76.1104 75.014 76.1526 74.8721 76.1756L77.7172 75.8123C77.86 75.7898 77.9985 75.7451 78.1275 75.6797L87.5862 71.2954C88.4175 70.8944 88.3976 70.1669 87.4993 69.6847Z" fill="url(#paint44_linear_5097_16527)"/>
<path d="M88.683 59.689L83.0319 56.6245C82.7334 56.4643 82.3923 56.4012 82.0562 56.4442L79.2112 56.8076C79.5471 56.7679 79.8872 56.8307 80.1868 56.9878L85.8379 60.0523C86.0545 60.182 86.2434 60.3532 86.3937 60.5561C86.544 60.759 86.6528 60.9895 86.7139 61.2345C86.7749 61.4794 86.7871 61.7341 86.7496 61.9838C86.7121 62.2334 86.6257 62.4732 86.4954 62.6895L82.9383 69.1178L85.7832 68.7474L89.3333 62.3263C89.464 62.1105 89.5508 61.8711 89.5889 61.6216C89.6269 61.3722 89.6154 61.1178 89.555 60.8728C89.4946 60.6278 89.3865 60.3972 89.2369 60.1941C89.0873 59.9909 88.8991 59.8193 88.683 59.689Z" fill="url(#paint45_linear_5097_16527)"/>
<g style="mix-blend-mode:overlay">
<path d="M84.7903 70.0086L84.696 69.9541L83.1095 69.0982L82.974 69.1019L84.6039 69.978L84.6982 70.0325C85.5893 70.5149 85.6092 71.2424 84.7423 71.6444L75.369 76.0192L84.8348 71.6348C85.7013 71.2185 85.6814 70.491 84.7903 70.0086Z" fill="white"/>
</g>
<g style="mix-blend-mode:overlay">
<path d="M86.6806 62.6834C86.8119 62.4675 86.899 62.2276 86.937 61.9777C86.975 61.7279 86.9631 61.473 86.902 61.2277C86.8408 60.9825 86.7317 60.7518 86.5808 60.549C86.43 60.3462 86.2404 60.1753 86.0231 60.0462L80.3793 56.9887C80.1154 56.8463 79.817 56.7803 79.5176 56.7982C79.7684 56.8051 80.0142 56.8692 80.2365 56.9855L85.8876 60.05C86.1042 60.1797 86.2931 60.3509 86.4434 60.5538C86.5937 60.7566 86.7025 60.9872 86.7636 61.2321C86.8246 61.4771 86.8368 61.7317 86.7993 61.9814C86.7618 62.2311 86.6754 62.4709 86.5451 62.6871L82.988 69.1155L83.152 69.111L86.6806 62.6834Z" fill="white"/>
</g>
<path d="M85.8725 60.051C86.0891 60.1808 86.2779 60.352 86.4282 60.5548C86.5785 60.7577 86.6873 60.9882 86.7484 61.2332C86.8095 61.4782 86.8216 61.7328 86.7841 61.9825C86.7466 62.2322 86.6603 62.472 86.5299 62.6882L82.9728 69.1166L84.6028 69.9927L84.697 70.0472C85.5882 70.5296 85.6081 71.2571 84.7411 71.6591L75.2827 76.0506C75.1771 76.1151 75.0589 76.1559 74.9361 76.1704C74.8133 76.1848 74.6888 76.1725 74.5712 76.1343C74.2959 75.9848 74.2693 75.5358 74.537 74.8861L77.2697 68.5874L75.4728 67.6087C75.0222 67.3282 74.6919 66.8902 74.546 66.3798C74.4001 65.8694 74.4491 65.323 74.6835 64.8467L77.7292 57.9898C77.8155 57.7547 77.9499 57.5403 78.1239 57.3602C78.2979 57.1801 78.5075 57.0384 78.7394 56.944C78.9714 56.8496 79.2204 56.8047 79.4707 56.8122C79.721 56.8197 79.9669 56.8793 80.1928 56.9874L85.8725 60.051Z" fill="url(#paint46_linear_5097_16527)"/>
<g style="mix-blend-mode:overlay">
<path d="M82.8685 58.4209L80.2241 56.9872C79.9968 56.8744 79.7482 56.8109 79.4947 56.801C79.2411 56.7911 78.9883 56.8349 78.7529 56.9297C78.5175 57.0244 78.3048 57.168 78.1289 57.3508C77.9529 57.5336 77.8176 57.7516 77.732 57.9904L77.6108 58.2579L83.709 67.7482L86.0828 63.4649L82.8685 58.4209Z" fill="url(#paint47_linear_5097_16527)"/>
<path d="M76.0517 61.8121L74.7076 64.861C74.4733 65.3373 74.4243 65.8837 74.5701 66.3941C74.716 66.9045 75.0463 67.3425 75.4969 67.623L77.2792 68.5878L75.3723 72.9796L76.6247 74.9296C76.8129 75.0244 77.0007 75.1049 77.1882 75.1783L82.9395 72.5085L76.0517 61.8121Z" fill="url(#paint48_linear_5097_16527)"/>
</g>
<path d="M109.605 51.1572L108.488 46.64C94.1662 53.9178 85.3191 90.0832 84.1751 102.088L87.327 99.0308C91.4753 72.6001 105.057 54.4095 109.605 51.1572Z" fill="url(#paint49_linear_5097_16527)"/>
<path opacity="0.5" d="M56.0196 39.5008C50.652 44.405 39.0003 60.2882 35.334 84.5873" stroke="url(#paint50_linear_5097_16527)" stroke-width="0.390872"/>
<path opacity="0.5" d="M81.8165 45.3748C76.4697 50.4717 64.8884 67.0067 61.3371 92.371" stroke="url(#paint51_linear_5097_16527)" stroke-width="0.390872"/>
</g>
</g>
<defs>
<linearGradient id="paint0_linear_5097_16527" x1="12.9939" y1="76.018" x2="143.058" y2="-116.063" gradientUnits="userSpaceOnUse">
<stop stop-color="#260077"/>
<stop offset="0.223958" stop-color="#580BED"/>
<stop offset="0.567708" stop-color="#5D09EF"/>
<stop offset="1" stop-color="#5B1CC8"/>
</linearGradient>
<linearGradient id="paint1_linear_5097_16527" x1="93.8838" y1="29.4958" x2="80.4067" y2="112.75" gradientUnits="userSpaceOnUse">
<stop stop-color="#08D6A4"/>
<stop offset="0.421875" stop-color="#15C69B"/>
<stop offset="0.696275" stop-color="#18AB9D"/>
<stop offset="1" stop-color="#045F68"/>
</linearGradient>
<linearGradient id="paint2_linear_5097_16527" x1="23.1173" y1="67.1871" x2="63.325" y2="11.0742" gradientUnits="userSpaceOnUse">
<stop stop-color="#FFFDEE"/>
<stop offset="0.11" stop-color="#FFFDEE" stop-opacity="0.87"/>
<stop offset="0.44" stop-color="#FFFDEE" stop-opacity="0.5"/>
<stop offset="0.71" stop-color="#FFFDEE" stop-opacity="0.23"/>
<stop offset="0.9" stop-color="#FFFDEE" stop-opacity="0.06"/>
<stop offset="1" stop-color="#FFFDEE" stop-opacity="0"/>
</linearGradient>
<radialGradient id="paint3_radial_5097_16527" cx="0" cy="0" r="1" gradientUnits="userSpaceOnUse" gradientTransform="translate(62.7538 64.5306) rotate(-5.42829) scale(39.8215)">
<stop stop-color="#6100FF"/>
<stop offset="0.15" stop-color="#5000D3"/>
<stop offset="0.46" stop-color="#2E007A"/>
<stop offset="0.72" stop-color="#190038"/>
<stop offset="0.9" stop-color="#07000F"/>
<stop offset="1"/>
</radialGradient>
<radialGradient id="paint4_radial_5097_16527" cx="0" cy="0" r="1" gradientUnits="userSpaceOnUse" gradientTransform="translate(53.1203 57.8924) rotate(-9.02621) scale(13.0737 13.0736)">
<stop stop-color="#C4EEFF"/>
<stop offset="0.33" stop-color="#4CCAFF"/>
<stop offset="1" stop-color="#003EB0"/>
</radialGradient>
<radialGradient id="paint5_radial_5097_16527" cx="0" cy="0" r="1" gradientUnits="userSpaceOnUse" gradientTransform="translate(48.3935 56.0375) rotate(-9.02621) scale(4.96977 4.96976)">
<stop stop-color="#A5E2FF"/>
<stop offset="1" stop-color="#218CF3"/>
</radialGradient>
<radialGradient id="paint6_radial_5097_16527" cx="0" cy="0" r="1" gradientUnits="userSpaceOnUse" gradientTransform="translate(52.9867 58.2358) rotate(-9.02621) scale(14.3722 14.3721)">
<stop stop-color="#A5E2FF"/>
<stop offset="1" stop-color="#0088FF"/>
</radialGradient>
<radialGradient id="paint7_radial_5097_16527" cx="0" cy="0" r="1" gradientUnits="userSpaceOnUse" gradientTransform="translate(57.0766 69.1969) rotate(-9.02621) scale(9.99091 9.9909)">
<stop stop-color="#A5E2FF"/>
<stop offset="1" stop-color="#0069C2"/>
</radialGradient>
<radialGradient id="paint8_radial_5097_16527" cx="0" cy="0" r="1" gradientUnits="userSpaceOnUse" gradientTransform="translate(64.1799 58.4679) rotate(-9.02621) scale(7.25846 7.25847)">
<stop stop-color="#4CCAFF"/>
<stop offset="1" stop-color="#003EB0"/>
</radialGradient>
<radialGradient id="paint9_radial_5097_16527" cx="0" cy="0" r="1" gradientUnits="userSpaceOnUse" gradientTransform="translate(49.9557 65.8074) rotate(-9.02621) scale(6.33832 6.33831)">
<stop stop-color="#A5E2FF"/>
<stop offset="1" stop-color="#218CF3"/>
</radialGradient>
<radialGradient id="paint10_radial_5097_16527" cx="0" cy="0" r="1" gradientUnits="userSpaceOnUse" gradientTransform="translate(55.6243 70.9173) rotate(-9.02621) scale(11.6537 11.6537)">
<stop stop-color="#77D6FF"/>
<stop offset="1" stop-color="#001FB0"/>
</radialGradient>
<radialGradient id="paint11_radial_5097_16527" cx="0" cy="0" r="1" gradientUnits="userSpaceOnUse" gradientTransform="translate(53.8244 69.5053) rotate(-9.02621) scale(10.5748 10.5748)">
<stop stop-color="#A5E2FF"/>
<stop offset="1" stop-color="#0081FF"/>
</radialGradient>
<radialGradient id="paint12_radial_5097_16527" cx="0" cy="0" r="1" gradientUnits="userSpaceOnUse" gradientTransform="translate(61.1209 61.3706) rotate(-9.02621) scale(6.17017 6.17016)">
<stop stop-color="#00000D"/>
<stop offset="1" stop-color="white"/>
</radialGradient>
<radialGradient id="paint13_radial_5097_16527" cx="0" cy="0" r="1" gradientUnits="userSpaceOnUse" gradientTransform="translate(55.091 63.1557) rotate(-9.02621) scale(6.63257 6.63258)">
<stop offset="0.31" stop-color="#00000D"/>
<stop offset="1" stop-color="#1CB4FF"/>
</radialGradient>
<radialGradient id="paint14_radial_5097_16527" cx="0" cy="0" r="1" gradientUnits="userSpaceOnUse" gradientTransform="translate(59.4224 52.2571) rotate(-9.02621) scale(10.7663 10.7663)">
<stop offset="0.57" stop-color="#00000D"/>
<stop offset="0.6" stop-color="#030613"/>
<stop offset="0.63" stop-color="#0D1524"/>
<stop offset="0.68" stop-color="#1C2F3F"/>
<stop offset="0.72" stop-color="#315466"/>
<stop offset="0.77" stop-color="#4C8298"/>
<stop offset="0.82" stop-color="#6DBAD3"/>
<stop offset="0.86" stop-color="#85E3FF"/>
</radialGradient>
<radialGradient id="paint15_radial_5097_16527" cx="0" cy="0" r="1" gradientUnits="userSpaceOnUse" gradientTransform="translate(89.749 41.7621) rotate(-9.02621) scale(12.8618 12.8618)">
<stop stop-color="#C4EEFF"/>
<stop offset="0.33" stop-color="#4CCAFF"/>
<stop offset="1" stop-color="#003EB0"/>
</radialGradient>
<radialGradient id="paint16_radial_5097_16527" cx="0" cy="0" r="1" gradientUnits="userSpaceOnUse" gradientTransform="translate(85.1 39.9367) rotate(-9.02621) scale(4.88923 4.88923)">
<stop stop-color="#A5E2FF"/>
<stop offset="1" stop-color="#218CF3"/>
</radialGradient>
<radialGradient id="paint17_radial_5097_16527" cx="0" cy="0" r="1" gradientUnits="userSpaceOnUse" gradientTransform="translate(89.6159 42.0988) rotate(-9.02621) scale(14.1393 14.1392)">
<stop stop-color="#A5E2FF"/>
<stop offset="1" stop-color="#0088FF"/>
</radialGradient>
<radialGradient id="paint18_radial_5097_16527" cx="0" cy="0" r="1" gradientUnits="userSpaceOnUse" gradientTransform="translate(93.6415 52.8823) rotate(-9.02621) scale(9.82902 9.829)">
<stop stop-color="#A5E2FF"/>
<stop offset="1" stop-color="#0069C2"/>
</radialGradient>
<radialGradient id="paint19_radial_5097_16527" cx="0" cy="0" r="1" gradientUnits="userSpaceOnUse" gradientTransform="translate(100.628 42.328) rotate(-9.02621) scale(7.14084 7.14085)">
<stop stop-color="#4CCAFF"/>
<stop offset="1" stop-color="#003EB0"/>
</radialGradient>
<radialGradient id="paint20_radial_5097_16527" cx="0" cy="0" r="1" gradientUnits="userSpaceOnUse" gradientTransform="translate(86.6365 49.5472) rotate(-9.02621) scale(6.23561 6.2356)">
<stop stop-color="#A5E2FF"/>
<stop offset="1" stop-color="#218CF3"/>
</radialGradient>
<radialGradient id="paint21_radial_5097_16527" cx="0" cy="0" r="1" gradientUnits="userSpaceOnUse" gradientTransform="translate(92.2127 54.5747) rotate(-9.02621) scale(11.4649 11.4649)">
<stop stop-color="#77D6FF"/>
<stop offset="1" stop-color="#001FB0"/>
</radialGradient>
<radialGradient id="paint22_radial_5097_16527" cx="0" cy="0" r="1" gradientUnits="userSpaceOnUse" gradientTransform="translate(90.4426 53.1856) rotate(-9.02621) scale(10.4034 10.4034)">
<stop stop-color="#A5E2FF"/>
<stop offset="1" stop-color="#0081FF"/>
</radialGradient>
<radialGradient id="paint23_radial_5097_16527" cx="0" cy="0" r="1" gradientUnits="userSpaceOnUse" gradientTransform="translate(97.6198 45.1827) rotate(-9.02621) scale(6.07019 6.07018)">
<stop stop-color="#00000D"/>
<stop offset="1" stop-color="white"/>
</radialGradient>
<radialGradient id="paint24_radial_5097_16527" cx="0" cy="0" r="1" gradientUnits="userSpaceOnUse" gradientTransform="translate(91.6881 46.9394) rotate(-9.02621) scale(6.5251 6.5251)">
<stop offset="0.31" stop-color="#00000D"/>
<stop offset="1" stop-color="#1CB4FF"/>
</radialGradient>
<radialGradient id="paint25_radial_5097_16527" cx="0" cy="0" r="1" gradientUnits="userSpaceOnUse" gradientTransform="translate(95.949 36.2173) rotate(-9.02621) scale(10.5918 10.5918)">
<stop offset="0.57" stop-color="#00000D"/>
<stop offset="0.6" stop-color="#030613"/>
<stop offset="0.63" stop-color="#0D1524"/>
<stop offset="0.68" stop-color="#1C2F3F"/>
<stop offset="0.72" stop-color="#315466"/>
<stop offset="0.77" stop-color="#4C8298"/>
<stop offset="0.82" stop-color="#6DBAD3"/>
<stop offset="0.86" stop-color="#85E3FF"/>
</radialGradient>
<linearGradient id="paint26_linear_5097_16527" x1="24.0388" y1="59.0416" x2="40.6567" y2="58.6622" gradientUnits="userSpaceOnUse">
<stop stop-color="#FFAC05"/>
<stop offset="0.61" stop-color="#FF9C05"/>
<stop offset="1" stop-color="#FF8F05"/>
</linearGradient>
<linearGradient id="paint27_linear_5097_16527" x1="24.8529" y1="51.7194" x2="40.0861" y2="55.424" gradientUnits="userSpaceOnUse">
<stop stop-color="#FF8205"/>
<stop offset="0.16" stop-color="#FFAB05"/>
<stop offset="0.25" stop-color="#FFBB05"/>
<stop offset="0.34" stop-color="#FFC405"/>
<stop offset="0.5" stop-color="#FFDD05"/>
<stop offset="0.56" stop-color="#FFEA05"/>
<stop offset="0.64" stop-color="#FFDA05"/>
<stop offset="0.74" stop-color="#FFC905"/>
<stop offset="0.86" stop-color="#FFBE05"/>
<stop offset="1" stop-color="#FFBB05"/>
</linearGradient>
<linearGradient id="paint28_linear_5097_16527" x1="40.9313" y1="88.0617" x2="57.5492" y2="87.6822" gradientUnits="userSpaceOnUse">
<stop stop-color="#FFAC05"/>
<stop offset="0.61" stop-color="#FF9C05"/>
<stop offset="1" stop-color="#FF8F05"/>
</linearGradient>
<linearGradient id="paint29_linear_5097_16527" x1="41.7454" y1="80.7399" x2="56.9787" y2="84.4445" gradientUnits="userSpaceOnUse">
<stop stop-color="#FF8205"/>
<stop offset="0.16" stop-color="#FFAB05"/>
<stop offset="0.25" stop-color="#FFBB05"/>
<stop offset="0.34" stop-color="#FFC405"/>
<stop offset="0.5" stop-color="#FFDD05"/>
<stop offset="0.56" stop-color="#FFEA05"/>
<stop offset="0.64" stop-color="#FFDA05"/>
<stop offset="0.74" stop-color="#FFC905"/>
<stop offset="0.86" stop-color="#FFBE05"/>
<stop offset="1" stop-color="#FFBB05"/>
</linearGradient>
<linearGradient id="paint30_linear_5097_16527" x1="66.6481" y1="94.2555" x2="83.266" y2="93.8761" gradientUnits="userSpaceOnUse">
<stop stop-color="#FFAC05"/>
<stop offset="0.61" stop-color="#FF9C05"/>
<stop offset="1" stop-color="#FF8F05"/>
</linearGradient>
<linearGradient id="paint31_linear_5097_16527" x1="67.4622" y1="86.9333" x2="82.6955" y2="90.6379" gradientUnits="userSpaceOnUse">
<stop stop-color="#FF8205"/>
<stop offset="0.16" stop-color="#FFAB05"/>
<stop offset="0.25" stop-color="#FFBB05"/>
<stop offset="0.34" stop-color="#FFC405"/>
<stop offset="0.5" stop-color="#FFDD05"/>
<stop offset="0.56" stop-color="#FFEA05"/>
<stop offset="0.64" stop-color="#FFDA05"/>
<stop offset="0.74" stop-color="#FFC905"/>
<stop offset="0.86" stop-color="#FFBE05"/>
<stop offset="1" stop-color="#FFBB05"/>
</linearGradient>
<linearGradient id="paint32_linear_5097_16527" x1="34.4411" y1="39.2062" x2="51.059" y2="38.8267" gradientUnits="userSpaceOnUse">
<stop stop-color="#FFAC05"/>
<stop offset="0.61" stop-color="#FF9C05"/>
<stop offset="1" stop-color="#FF8F05"/>
</linearGradient>
<linearGradient id="paint33_linear_5097_16527" x1="35.2552" y1="31.885" x2="50.4884" y2="35.5896" gradientUnits="userSpaceOnUse">
<stop stop-color="#FF8205"/>
<stop offset="0.16" stop-color="#FFAB05"/>
<stop offset="0.25" stop-color="#FFBB05"/>
<stop offset="0.34" stop-color="#FFC405"/>
<stop offset="0.5" stop-color="#FFDD05"/>
<stop offset="0.56" stop-color="#FFEA05"/>
<stop offset="0.64" stop-color="#FFDA05"/>
<stop offset="0.74" stop-color="#FFC905"/>
<stop offset="0.86" stop-color="#FFBE05"/>
<stop offset="1" stop-color="#FFBB05"/>
</linearGradient>
<linearGradient id="paint34_linear_5097_16527" x1="22.773" y1="79.6708" x2="22.9752" y2="87.0598" gradientUnits="userSpaceOnUse">
<stop stop-color="#00718A"/>
<stop offset="1" stop-color="#002B34"/>
</linearGradient>
<linearGradient id="paint35_linear_5097_16527" x1="25.7087" y1="67.4416" x2="26.056" y2="80.1379" gradientUnits="userSpaceOnUse">
<stop stop-color="#00718A"/>
<stop offset="1" stop-color="#002B34"/>
</linearGradient>
<linearGradient id="paint36_linear_5097_16527" x1="26.4184" y1="68.5642" x2="17.3489" y2="86.2024" gradientUnits="userSpaceOnUse">
<stop stop-color="#86FFE2"/>
<stop offset="0.421875" stop-color="#4BDDBA"/>
<stop offset="0.696275" stop-color="#0ACFBC"/>
<stop offset="1" stop-color="#053A40"/>
</linearGradient>
<linearGradient id="paint37_linear_5097_16527" x1="20.6219" y1="74.4847" x2="26.8897" y2="71.1298" gradientUnits="userSpaceOnUse">
<stop stop-color="#FFFDEE"/>
<stop offset="0.11" stop-color="#FFFDEE" stop-opacity="0.87"/>
<stop offset="0.44" stop-color="#FFFDEE" stop-opacity="0.5"/>
<stop offset="0.71" stop-color="#FFFDEE" stop-opacity="0.23"/>
<stop offset="0.9" stop-color="#FFFDEE" stop-opacity="0.06"/>
<stop offset="1" stop-color="#FFFDEE" stop-opacity="0"/>
</linearGradient>
<linearGradient id="paint38_linear_5097_16527" x1="22.2893" y1="76.7439" x2="16.9929" y2="82.2135" gradientUnits="userSpaceOnUse">
<stop stop-color="#FFFDEE"/>
<stop offset="0.11" stop-color="#FFFDEE" stop-opacity="0.87"/>
<stop offset="0.44" stop-color="#FFFDEE" stop-opacity="0.5"/>
<stop offset="0.71" stop-color="#FFFDEE" stop-opacity="0.23"/>
<stop offset="0.9" stop-color="#FFFDEE" stop-opacity="0.06"/>
<stop offset="1" stop-color="#FFFDEE" stop-opacity="0"/>
</linearGradient>
<linearGradient id="paint39_linear_5097_16527" x1="67.1402" y1="42.4735" x2="67.3423" y2="49.8625" gradientUnits="userSpaceOnUse">
<stop stop-color="#00718A"/>
<stop offset="1" stop-color="#002B34"/>
</linearGradient>
<linearGradient id="paint40_linear_5097_16527" x1="70.0759" y1="30.2438" x2="70.4232" y2="42.9402" gradientUnits="userSpaceOnUse">
<stop stop-color="#00718A"/>
<stop offset="1" stop-color="#002B34"/>
</linearGradient>
<linearGradient id="paint41_linear_5097_16527" x1="70.7856" y1="31.3669" x2="61.7161" y2="49.0051" gradientUnits="userSpaceOnUse">
<stop stop-color="#86FFE2"/>
<stop offset="0.421875" stop-color="#4BDDBA"/>
<stop offset="0.696275" stop-color="#0ACFBC"/>
<stop offset="1" stop-color="#053A40"/>
</linearGradient>
<linearGradient id="paint42_linear_5097_16527" x1="64.9891" y1="37.2869" x2="71.2569" y2="33.9321" gradientUnits="userSpaceOnUse">
<stop stop-color="#FFFDEE"/>
<stop offset="0.11" stop-color="#FFFDEE" stop-opacity="0.87"/>
<stop offset="0.44" stop-color="#FFFDEE" stop-opacity="0.5"/>
<stop offset="0.71" stop-color="#FFFDEE" stop-opacity="0.23"/>
<stop offset="0.9" stop-color="#FFFDEE" stop-opacity="0.06"/>
<stop offset="1" stop-color="#FFFDEE" stop-opacity="0"/>
</linearGradient>
<linearGradient id="paint43_linear_5097_16527" x1="66.6565" y1="39.5462" x2="61.3601" y2="45.0157" gradientUnits="userSpaceOnUse">
<stop stop-color="#FFFDEE"/>
<stop offset="0.11" stop-color="#FFFDEE" stop-opacity="0.87"/>
<stop offset="0.44" stop-color="#FFFDEE" stop-opacity="0.5"/>
<stop offset="0.71" stop-color="#FFFDEE" stop-opacity="0.23"/>
<stop offset="0.9" stop-color="#FFFDEE" stop-opacity="0.06"/>
<stop offset="1" stop-color="#FFFDEE" stop-opacity="0"/>
</linearGradient>
<linearGradient id="paint44_linear_5097_16527" x1="81.4019" y1="68.6024" x2="81.6041" y2="75.9915" gradientUnits="userSpaceOnUse">
<stop stop-color="#00718A"/>
<stop offset="1" stop-color="#002B34"/>
</linearGradient>
<linearGradient id="paint45_linear_5097_16527" x1="84.3376" y1="56.3737" x2="84.6849" y2="69.07" gradientUnits="userSpaceOnUse">
<stop stop-color="#00718A"/>
<stop offset="1" stop-color="#002B34"/>
</linearGradient>
<linearGradient id="paint46_linear_5097_16527" x1="85.0473" y1="57.4958" x2="75.9778" y2="75.1341" gradientUnits="userSpaceOnUse">
<stop stop-color="#86FFE2"/>
<stop offset="0.421875" stop-color="#4BDDBA"/>
<stop offset="0.696275" stop-color="#0ACFBC"/>
<stop offset="1" stop-color="#053A40"/>
</linearGradient>
<linearGradient id="paint47_linear_5097_16527" x1="79.2508" y1="63.4163" x2="85.5186" y2="60.0615" gradientUnits="userSpaceOnUse">
<stop stop-color="#FFFDEE"/>
<stop offset="0.11" stop-color="#FFFDEE" stop-opacity="0.87"/>
<stop offset="0.44" stop-color="#FFFDEE" stop-opacity="0.5"/>
<stop offset="0.71" stop-color="#FFFDEE" stop-opacity="0.23"/>
<stop offset="0.9" stop-color="#FFFDEE" stop-opacity="0.06"/>
<stop offset="1" stop-color="#FFFDEE" stop-opacity="0"/>
</linearGradient>
<linearGradient id="paint48_linear_5097_16527" x1="80.9182" y1="65.6761" x2="75.6218" y2="71.1456" gradientUnits="userSpaceOnUse">
<stop stop-color="#FFFDEE"/>
<stop offset="0.11" stop-color="#FFFDEE" stop-opacity="0.87"/>
<stop offset="0.44" stop-color="#FFFDEE" stop-opacity="0.5"/>
<stop offset="0.71" stop-color="#FFFDEE" stop-opacity="0.23"/>
<stop offset="0.9" stop-color="#FFFDEE" stop-opacity="0.06"/>
<stop offset="1" stop-color="#FFFDEE" stop-opacity="0"/>
</linearGradient>
<linearGradient id="paint49_linear_5097_16527" x1="81.834" y1="78.5625" x2="164.138" y2="23.4866" gradientUnits="userSpaceOnUse">
<stop stop-color="#23006D"/>
<stop offset="0.1875" stop-color="#39059F"/>
<stop offset="0.375" stop-color="#4300B9"/>
<stop offset="0.598958" stop-color="#300084"/>
<stop offset="0.802083" stop-color="#220259"/>
<stop offset="1" stop-color="#0D0024"/>
</linearGradient>
<linearGradient id="paint50_linear_5097_16527" x1="33.4533" y1="65.4907" x2="100.853" y2="19.811" gradientUnits="userSpaceOnUse">
<stop stop-color="#6A39D2"/>
<stop offset="0.244792" stop-color="#3C0994"/>
<stop offset="0.552083" stop-color="#5D28BA"/>
<stop offset="0.765625" stop-color="#4D2395"/>
<stop offset="1" stop-color="#350786"/>
</linearGradient>
<linearGradient id="paint51_linear_5097_16527" x1="59.3636" y1="72.4144" x2="128.218" y2="27.5392" gradientUnits="userSpaceOnUse">
<stop stop-color="#6A39D2"/>
<stop offset="0.244792" stop-color="#3C0994"/>
<stop offset="0.552083" stop-color="#5D28BA"/>
<stop offset="0.765625" stop-color="#4D2395"/>
<stop offset="1" stop-color="#350786"/>
</linearGradient>
<clipPath id="clip0_5097_16527">
<rect width="105.781" height="105.781" fill="white" transform="translate(26.1387) rotate(14.3059)"/>
</clipPath>
<clipPath id="clip1_5097_16527">
<rect width="100" height="100" fill="white" transform="translate(9.52734 24.7251) rotate(1.27348)"/>
</clipPath>
<clipPath id="clip2_5097_16527">
<rect width="23.5732" height="23.5732" fill="white" transform="translate(41.25 51.0029) rotate(-9.02621)"/>
</clipPath>
<clipPath id="clip3_5097_16527">
<rect width="23.1912" height="23.1912" fill="white" transform="translate(78.0703 34.9834) rotate(-9.02621)"/>
</clipPath>
</defs>
</svg>
