<svg width="129" height="129" viewBox="0 0 129 129" fill="none" xmlns="http://www.w3.org/2000/svg">
<circle cx="64" cy="71" r="45" fill="#0C1620"/>
<g clip-path="url(#clip0_5097_16849)">
<ellipse cx="73.1174" cy="80.6468" rx="35.7363" ry="37.6649" transform="rotate(75.1093 73.1174 80.6468)" fill="url(#paint0_linear_5097_16849)"/>
<ellipse cx="71.922" cy="76.1292" rx="35.2494" ry="38.1013" transform="rotate(75.1093 71.922 76.1292)" fill="url(#paint1_linear_5097_16849)"/>
<path opacity="0.25" fill-rule="evenodd" clip-rule="evenodd" d="M36.8114 85.4657C41.5817 103.406 61.1686 113.769 80.56 108.612C80.7061 108.574 80.8518 108.534 80.997 108.494C62.239 113.246 43.4133 103.192 38.808 85.8722C34.1662 68.4157 45.7283 50.1895 64.6327 45.1627C83.3776 40.1783 102.303 50.0433 107.146 67.2285C107.11 67.0834 107.072 66.9382 107.034 66.7932C102.263 48.8533 82.6765 38.4901 63.2851 43.6464C43.8937 48.8026 32.0411 67.5258 36.8114 85.4657Z" fill="white"/>
<mask id="mask0_5097_16849" style="mask-type:alpha" maskUnits="userSpaceOnUse" x="39" y="46" width="65" height="59">
<ellipse cx="71.9503" cy="75.3218" rx="28.7708" ry="32.2185" transform="rotate(75.1093 71.9503 75.3218)" fill="white"/>
</mask>
<g mask="url(#mask0_5097_16849)">
<path d="M87.2098 103.997L71.5723 70.8887L103.439 95.2552L87.2098 103.997Z" fill="url(#paint2_linear_5097_16849)"/>
<path d="M103.44 95.2552L71.5729 70.8886L112.195 80.6874L103.44 95.2552Z" fill="url(#paint3_linear_5097_16849)"/>
<path d="M107.991 51.0553L71.5724 70.8888L113.186 65.8202L107.991 51.0553Z" fill="url(#paint4_linear_5097_16849)"/>
<path d="M87.2098 103.997L71.5723 70.8887L66.1351 107.583L87.2098 103.997Z" fill="url(#paint5_linear_5097_16849)"/>
<path d="M66.1347 107.583L71.5719 70.8889L50.886 103.694L66.1347 107.583Z" fill="url(#paint6_linear_5097_16849)"/>
<path d="M50.8862 103.694L71.5721 70.8889L38.3087 91.527L50.8862 103.694Z" fill="url(#paint7_linear_5097_16849)"/>
<path d="M38.3097 91.5269L71.573 70.8888L33.517 75.1845L38.3097 91.5269Z" fill="url(#paint8_linear_5097_16849)"/>
<path d="M33.5176 75.1846L71.5736 70.8889L34.2617 56.894L33.5176 75.1846Z" fill="url(#paint9_linear_5097_16849)"/>
<path d="M34.2606 56.8941L71.5725 70.889L42.4897 42.1923L34.2606 56.8941Z" fill="url(#paint10_linear_5097_16849)"/>
<path d="M42.4889 42.192L71.5716 70.8887L57.3985 34.2339L42.4889 42.192Z" fill="url(#paint11_linear_5097_16849)"/>
<path d="M57.4 34.2342L71.5732 70.889L77.8044 33.2773L57.4 34.2342Z" fill="url(#paint12_linear_5097_16849)"/>
<path d="M77.8027 33.2773L71.5716 70.889L94.8865 38.7538L77.8027 33.2773Z" fill="url(#paint13_linear_5097_16849)"/>
<path d="M94.8865 38.7536L71.5715 70.8888L107.99 51.0552L94.8865 38.7536Z" fill="url(#paint14_linear_5097_16849)"/>
<path d="M113.185 65.8203L71.5717 70.8889L112.194 80.6877L113.185 65.8203Z" fill="url(#paint15_linear_5097_16849)"/>
</g>
<ellipse opacity="0.1" cx="71.9737" cy="75.0464" rx="28.7708" ry="32.2185" transform="rotate(75.1093 71.9737 75.0464)" fill="white"/>
<ellipse opacity="0.5" cx="72.0285" cy="72.0208" rx="6.38293" ry="5.61865" transform="rotate(-16.1908 72.0285 72.0208)" fill="black"/>
<ellipse cx="70.574" cy="72.0067" rx="6.48933" ry="5.61865" transform="rotate(-16.1908 70.574 72.0067)" fill="url(#paint16_linear_5097_16849)"/>
<ellipse cx="70.3206" cy="71.1345" rx="6.48933" ry="5.21421" transform="rotate(-16.1908 70.3206 71.1345)" fill="url(#paint17_linear_5097_16849)"/>
<g opacity="0.15">
<mask id="mask1_5097_16849" style="mask-type:alpha" maskUnits="userSpaceOnUse" x="33" y="40" width="77" height="72">
<ellipse cx="71.922" cy="76.1297" rx="35.2494" ry="38.1013" transform="rotate(75.1093 71.922 76.1297)" fill="#6811B6"/>
</mask>
<g mask="url(#mask1_5097_16849)">
<g opacity="0.4">
<path d="M68.6185 35.4207L69.2016 33.1341L95.3698 33.8296L94.8153 36.0042C94.7307 36.3359 94.4929 36.6073 94.1752 36.7347L88.5344 38.9968C88.3604 39.0666 88.2077 39.1808 88.0916 39.328L83.8377 44.7204C83.4209 45.2489 82.6259 45.2672 82.185 44.7586L77.0963 38.8873C76.953 38.722 76.7627 38.6045 76.5508 38.5505L69.3928 36.7251C68.8188 36.5787 68.4721 35.9947 68.6185 35.4207Z" fill="black"/>
<path d="M82.5665 23.3514L89.1696 21.755C89.7892 21.6052 90.402 22.0256 90.4851 22.6576L91.1932 28.039C91.2196 28.2401 91.3026 28.4296 91.4324 28.5855L95.1237 33.0185C95.6123 33.6052 95.3488 34.5002 94.6201 34.7284L88.2857 36.713C88.0787 36.7778 87.8962 36.9039 87.7624 37.0745L83.8636 42.0448C83.443 42.5809 82.6356 42.5941 82.1978 42.072L77.8367 36.8724C77.6924 36.7003 77.4976 36.5779 77.2799 36.5224L69.9421 34.6512C69.1695 34.4541 68.8743 33.5129 69.3961 32.9099L73.0145 28.7284C73.1872 28.5288 73.2802 28.2726 73.2759 28.0087L73.1844 22.4857C73.1727 21.7785 73.8366 21.2538 74.5219 21.4286L82.0494 23.3481C82.2189 23.3914 82.3965 23.3925 82.5665 23.3514Z" fill="black"/>
<path d="M40.8028 46.5878L41.3387 44.4861L65.3917 45.1254L64.882 47.1242C64.8042 47.429 64.5857 47.6785 64.2936 47.7956L59.1089 49.8749C58.9489 49.939 58.8085 50.044 58.7018 50.1793L54.7918 55.1358C54.4086 55.6215 53.6779 55.6384 53.2727 55.1709L48.5953 49.7742C48.4636 49.6223 48.2887 49.5143 48.0939 49.4646L41.5145 47.7868C40.9869 47.6523 40.6682 47.1155 40.8028 46.5878Z" fill="black"/>
<path d="M53.6232 35.4941L59.6925 34.0268C60.262 33.8891 60.8252 34.2755 60.9017 34.8565L61.5525 39.8029C61.5768 39.9877 61.653 40.1619 61.7723 40.3051L65.1653 44.3798C65.6144 44.9191 65.3722 45.7417 64.7024 45.9515L58.88 47.7757C58.6898 47.8353 58.5221 47.9511 58.399 48.108L54.8154 52.6765C54.4288 53.1692 53.6867 53.1814 53.2842 52.7015L49.2757 47.9222C49.143 47.764 48.964 47.6515 48.7639 47.6004L42.0192 45.8805C41.3091 45.6994 41.0377 44.8342 41.5173 44.28L44.8433 40.4365C45.002 40.2531 45.0875 40.0175 45.0835 39.775L44.9994 34.6984C44.9886 34.0484 45.5989 33.5661 46.2288 33.7267L53.1479 35.4911C53.3037 35.5309 53.4669 35.5319 53.6232 35.4941Z" fill="black"/>
<mask id="mask2_5097_16849" style="mask-type:alpha" maskUnits="userSpaceOnUse" x="41" y="33" width="25" height="21">
<path d="M53.6232 35.4936L59.6925 34.0263C60.262 33.8886 60.8252 34.275 60.9017 34.856L61.5525 39.8024C61.5768 39.9872 61.653 40.1614 61.7723 40.3047L65.1653 44.3793C65.6144 44.9186 65.3722 45.7412 64.7024 45.951L58.88 47.7752C58.6898 47.8348 58.5221 47.9507 58.399 48.1075L54.8154 52.676C54.4288 53.1688 53.6867 53.1809 53.2842 52.701L49.2757 47.9217C49.143 47.7635 48.964 47.651 48.7639 47.5999L42.0192 45.88C41.3091 45.6989 41.0377 44.8337 41.5173 44.2795L44.8433 40.436C45.002 40.2526 45.0875 40.0171 45.0835 39.7745L44.9994 34.6979C44.9886 34.0479 45.5989 33.5656 46.2288 33.7263L53.1479 35.4907C53.3037 35.5304 53.4669 35.5314 53.6232 35.4936Z" fill="#07E0E0"/>
</mask>
<g mask="url(#mask2_5097_16849)">
<path opacity="0.5" d="M53.6539 35.4602L59.7403 34.0268C60.3064 33.8935 60.8644 34.2767 60.9431 34.853L60.9955 35.2363L41.4804 45.5391L41.4129 45.4259C41.1966 45.0632 41.2354 44.603 41.5093 44.2816L44.8845 40.3208C45.0409 40.1371 45.1246 39.9025 45.1198 39.6613L45.0185 34.6623C45.0054 34.0109 45.6165 33.526 46.2479 33.687L53.1843 35.4559C53.3382 35.4951 53.4993 35.4966 53.6539 35.4602Z" fill="black"/>
<path opacity="0.5" d="M48.4992 47.5324L46.5885 47.0451L61.4558 38.2196L61.6879 39.7033L48.4992 47.5324Z" fill="black"/>
</g>
<path d="M24.764 66.44L25.2201 64.6511L45.6923 65.1953L45.2584 66.8965C45.1923 67.156 45.0062 67.3683 44.7576 67.468L40.3448 69.2377C40.2086 69.2923 40.0891 69.3816 39.9983 69.4968L36.6704 73.7154C36.3443 74.1288 35.7223 74.1432 35.3775 73.7453L31.3964 69.152C31.2843 69.0227 31.1354 68.9308 30.9696 68.8885L25.3697 67.4605C24.9207 67.346 24.6494 66.8891 24.764 66.44Z" fill="black"/>
<path d="M35.6758 56.9977L40.8415 55.7488C41.3263 55.6316 41.8057 55.9605 41.8707 56.455L42.4246 60.665C42.4453 60.8223 42.5102 60.9705 42.6118 61.0925L45.4996 64.5605C45.8819 65.0196 45.6757 65.7197 45.1057 65.8983L40.15 67.4508C39.9881 67.5016 39.8454 67.6002 39.7406 67.7337L36.6905 71.622C36.3615 72.0415 35.7299 72.0518 35.3873 71.6434L31.9755 67.5756C31.8626 67.4409 31.7103 67.3451 31.54 67.3017L25.7994 65.8378C25.1949 65.6837 24.964 64.9473 25.3722 64.4756L28.203 61.2043C28.3381 61.0481 28.4109 60.8477 28.4075 60.6413L28.3359 56.3205C28.3267 55.7672 28.8461 55.3567 29.3823 55.4934L35.2712 56.9952C35.4039 57.029 35.5428 57.0298 35.6758 56.9977Z" fill="black"/>
<mask id="mask3_5097_16849" style="mask-type:alpha" maskUnits="userSpaceOnUse" x="25" y="55" width="21" height="17">
<path d="M35.6758 56.9977L40.8415 55.7488C41.3263 55.6316 41.8057 55.9605 41.8707 56.455L42.4246 60.665C42.4453 60.8223 42.5102 60.9705 42.6118 61.0925L45.4996 64.5605C45.8819 65.0196 45.6757 65.7197 45.1057 65.8983L40.15 67.4508C39.9881 67.5016 39.8454 67.6002 39.7406 67.7337L36.6905 71.622C36.3615 72.0415 35.7299 72.0518 35.3873 71.6434L31.9755 67.5756C31.8626 67.4409 31.7103 67.3451 31.54 67.3017L25.7994 65.8378C25.1949 65.6837 24.964 64.9473 25.3722 64.4756L28.203 61.2043C28.3381 61.0481 28.4109 60.8477 28.4075 60.6413L28.3359 56.3205C28.3267 55.7672 28.8461 55.3567 29.3823 55.4934L35.2712 56.9952C35.4039 57.029 35.5428 57.0298 35.6758 56.9977Z" fill="#07E0E0"/>
</mask>
<g mask="url(#mask3_5097_16849)">
<path opacity="0.5" d="M35.7004 56.9686L40.8806 55.7487C41.3625 55.6352 41.8374 55.9614 41.9044 56.4519L41.949 56.778L25.3391 65.5471L25.2817 65.4507C25.0976 65.142 25.1306 64.7503 25.3637 64.4767L28.2364 61.1056C28.3696 60.9493 28.4409 60.7496 28.4367 60.5443L28.3506 56.2895C28.3393 55.7351 28.8595 55.3224 29.3969 55.4594L35.3007 56.9649C35.4316 56.9983 35.5688 56.9996 35.7004 56.9686Z" fill="black"/>
<path opacity="0.5" d="M31.3129 67.2441L29.6866 66.8294L42.3406 59.3178L42.5382 60.5806L31.3129 67.2441Z" fill="black"/>
</g>
<ellipse cx="32.2842" cy="59.1131" rx="2.12992" ry="1.56194" transform="rotate(-9.0299 32.2842 59.1131)" fill="black"/>
<ellipse cx="35.4224" cy="58.4601" rx="0.664709" ry="0.487453" transform="rotate(-9.0299 35.4224 58.4601)" fill="black"/>
<path d="M26.9236 88.0677L27.3228 86.5023L45.2386 86.9784L44.8589 88.4672C44.801 88.6943 44.6382 88.8801 44.4207 88.9674L40.5588 90.5161C40.4397 90.5639 40.3351 90.642 40.2556 90.7428L37.3433 94.4346C37.0579 94.7965 36.5136 94.809 36.2118 94.4608L32.7278 90.4411C32.6298 90.328 32.4995 90.2475 32.3544 90.2105L27.4538 88.9608C27.0608 88.8606 26.8234 88.4607 26.9236 88.0677Z" fill="black"/>
<path d="M36.4736 79.8043L40.9943 78.7114C41.4186 78.6088 41.8381 78.8967 41.895 79.3294L42.3797 83.0137C42.3979 83.1514 42.4546 83.2811 42.5435 83.3878L45.0708 86.4228C45.4053 86.8245 45.2248 87.4372 44.726 87.5935L40.3892 88.9522C40.2475 88.9966 40.1226 89.0829 40.0309 89.1997L37.3616 92.6025C37.0737 92.9695 36.521 92.9786 36.2212 92.6212L33.2355 89.0613C33.1366 88.9435 33.0033 88.8597 32.8543 88.8217L27.8305 87.5406C27.3016 87.4057 27.0995 86.7613 27.4567 86.3484L29.934 83.4856C30.0522 83.349 30.1159 83.1736 30.1129 82.9929L30.0503 79.2117C30.0423 78.7275 30.4968 78.3683 30.966 78.4879L36.1196 79.8021C36.2357 79.8317 36.3572 79.8325 36.4736 79.8043Z" fill="black"/>
<mask id="mask4_5097_16849" style="mask-type:alpha" maskUnits="userSpaceOnUse" x="27" y="78" width="19" height="15">
<path d="M36.4717 79.8038L40.9924 78.7109C41.4166 78.6083 41.8361 78.8962 41.893 79.3289L42.3778 83.0132C42.3959 83.1509 42.4527 83.2806 42.5416 83.3873L45.0688 86.4223C45.4033 86.824 45.2229 87.4367 44.724 87.593L40.3872 88.9517C40.2455 88.9961 40.1206 89.0824 40.029 89.1992L37.3597 92.602C37.0718 92.9691 36.519 92.9781 36.2192 92.6207L33.2335 89.0608C33.1347 88.943 33.0013 88.8592 32.8523 88.8212L27.8286 87.5401C27.2996 87.4052 27.0975 86.7608 27.4547 86.348L29.932 83.4851C30.0503 83.3485 30.114 83.1731 30.111 82.9924L30.0483 79.2112C30.0403 78.727 30.4949 78.3678 30.9641 78.4874L36.1177 79.8016C36.2337 79.8312 36.3553 79.832 36.4717 79.8038Z" fill="#07E0E0"/>
</mask>
<g mask="url(#mask4_5097_16849)">
<path opacity="0.5" d="M36.4946 79.7789L41.028 78.7113C41.4497 78.612 41.8653 78.8975 41.924 79.3267L41.963 79.6122L27.4272 87.2862L27.377 87.2019C27.2159 86.9317 27.2448 86.5889 27.4488 86.3495L29.9627 83.3993C30.0793 83.2625 30.1416 83.0878 30.138 82.9081L30.0626 79.1847C30.0528 78.6994 30.508 78.3383 30.9783 78.4582L36.1448 79.7757C36.2595 79.805 36.3795 79.8061 36.4946 79.7789Z" fill="black"/>
<path opacity="0.5" d="M32.6535 88.7711L31.2304 88.4082L42.3042 81.8346L42.4771 82.9397L32.6535 88.7711Z" fill="black"/>
</g>
<ellipse cx="33.5046" cy="81.6551" rx="1.86395" ry="1.3669" transform="rotate(-9.0299 33.5046 81.6551)" fill="black"/>
<ellipse cx="36.2508" cy="81.0839" rx="0.581705" ry="0.426584" transform="rotate(-9.0299 36.2508 81.0839)" fill="black"/>
<path d="M37.4785 106.106L37.8013 104.84L52.2896 105.225L51.9825 106.429C51.9357 106.613 51.804 106.763 51.6281 106.833L48.5051 108.086C48.4087 108.124 48.3242 108.188 48.2599 108.269L45.9047 111.255C45.6739 111.547 45.2338 111.557 44.9897 111.276L42.1723 108.025C42.093 107.934 41.9876 107.869 41.8703 107.839L37.9072 106.828C37.5894 106.747 37.3974 106.424 37.4785 106.106Z" fill="black"/>
<path d="M45.1996 99.4239L48.8554 98.5401C49.1985 98.4571 49.5377 98.6899 49.5838 99.0398L49.9758 102.019C49.9904 102.131 50.0363 102.236 50.1082 102.322L52.152 104.776C52.4225 105.101 52.2765 105.597 51.8731 105.723L48.366 106.822C48.2514 106.858 48.1504 106.927 48.0763 107.022L45.9177 109.774C45.6848 110.07 45.2378 110.078 44.9954 109.789L42.5809 106.91C42.501 106.815 42.3931 106.747 42.2726 106.716L38.21 105.68C37.7822 105.571 37.6188 105.05 37.9077 104.716L39.911 102.401C40.0066 102.29 40.0582 102.149 40.0557 102.002L40.0051 98.9446C39.9986 98.5531 40.3662 98.2626 40.7456 98.3593L44.9133 99.4221C45.0071 99.4461 45.1054 99.4467 45.1996 99.4239Z" fill="black"/>
<mask id="mask5_5097_16849" style="mask-type:alpha" maskUnits="userSpaceOnUse" x="37" y="98" width="16" height="12">
<path d="M45.1996 99.4229L48.8554 98.5391C49.1985 98.4561 49.5377 98.6889 49.5838 99.0389L49.9758 102.018C49.9904 102.13 50.0363 102.235 50.1082 102.321L52.152 104.775C52.4225 105.1 52.2765 105.596 51.8731 105.722L48.366 106.821C48.2514 106.857 48.1504 106.926 48.0763 107.021L45.9177 109.773C45.6848 110.07 45.2378 110.077 44.9954 109.788L42.5809 106.909C42.501 106.814 42.3931 106.746 42.2726 106.715L38.21 105.679C37.7822 105.57 37.6188 105.049 37.9077 104.715L39.911 102.4C40.0066 102.289 40.0582 102.148 40.0557 102.002L40.0051 98.9437C39.9986 98.5521 40.3662 98.2616 40.7456 98.3584L44.9133 99.4211C45.0071 99.4451 45.1054 99.4457 45.1996 99.4229Z" fill="#07E0E0"/>
</mask>
<g mask="url(#mask5_5097_16849)">
<path opacity="0.5" d="M45.218 99.403L48.8841 98.5397C49.2251 98.4594 49.5612 98.6902 49.6086 99.0373L49.6402 99.2682L37.8853 105.474L37.8446 105.406C37.7144 105.187 37.7377 104.91 37.9027 104.717L39.9357 102.331C40.03 102.22 40.0804 102.079 40.0774 101.934L40.0165 98.9225C40.0085 98.5301 40.3767 98.238 40.757 98.335L44.9351 99.4004C45.0278 99.4241 45.1249 99.425 45.218 99.403Z" fill="black"/>
<path opacity="0.5" d="M42.1125 106.674L40.9616 106.381L49.9169 101.065L50.0567 101.958L42.1125 106.674Z" fill="black"/>
</g>
<ellipse cx="42.7989" cy="100.921" rx="1.50735" ry="1.10539" transform="rotate(-9.0299 42.7989 100.921)" fill="black"/>
<ellipse cx="45.0207" cy="100.459" rx="0.470418" ry="0.344974" transform="rotate(-9.0299 45.0207 100.459)" fill="black"/>
</g>
</g>
</g>
<path opacity="0.1" d="M75.6203 100.319C64.5412 102.723 54.7736 94.1962 53.1843 89.484C53.0257 89.0138 53.4882 88.6361 53.968 88.7627C77.4566 94.9614 83.522 86.4118 93.8339 75.6582C94.1087 75.3716 94.5674 75.3718 94.7142 75.7406C96.3546 79.8615 91.0246 96.9766 75.6203 100.319Z" fill="black"/>
<path opacity="0.2" d="M58.8921 52.8581C46.5424 58.982 43.7337 74.4949 45.8 80.1777C46.0061 80.7447 46.7322 80.7525 47.0918 80.2682C64.7021 56.554 76.9525 60.0733 94.9098 62.4637C95.3883 62.5274 95.8239 62.1792 95.6835 61.7173C94.1146 56.5576 76.0626 44.343 58.8921 52.8581Z" fill="white"/>
<path d="M110.088 73.3832L109.035 69.0287L111.493 68.8143L110.088 73.3832Z" fill="url(#paint18_linear_5097_16849)"/>
<g filter="url(#filter0_d_5097_16849)">
<path d="M88.1272 64.7748L88.7883 62.1824L118.035 65.314L116.385 71.7815C116.107 72.8719 115.089 73.6075 113.967 73.5294L110.072 73.2585L111.137 69.0833L90.2274 67.6741C88.7752 67.5763 87.7676 66.1852 88.1272 64.7748Z" fill="url(#paint19_linear_5097_16849)"/>
</g>
<path d="M89.0547 61.5425L97.8671 48.03C98.6673 46.8031 100.388 46.6106 101.439 47.6305L117.38 63.0908C118.946 64.61 117.751 67.2558 115.576 67.0846L90.8228 65.1367C89.0604 64.998 88.0889 63.0234 89.0547 61.5425Z" fill="url(#paint20_linear_5097_16849)"/>
<path opacity="0.3" fill-rule="evenodd" clip-rule="evenodd" d="M103.927 65.9343L114.894 66.7973C117.069 66.9684 118.264 64.3227 116.698 62.8035L114.356 60.5318L116.228 62.5961C117.626 64.1364 116.457 66.5966 114.38 66.4868L103.927 65.9343Z" fill="white"/>
<g opacity="0.3">
<mask id="mask6_5097_16849" style="mask-type:alpha" maskUnits="userSpaceOnUse" x="82" y="44" width="52" height="22">
<path d="M92.9133 65.1395C92.0291 54.4748 124.535 58.4025 133.844 57.9827L101.942 45.5873L90.8238 44.3435L82.6646 54.1449C84.0502 57.4687 86.5602 65.9592 92.9133 65.1395Z" fill="url(#paint21_linear_5097_16849)"/>
</mask>
<g mask="url(#mask6_5097_16849)">
<path d="M89.4041 61.5159L97.8469 48.5701C98.6135 47.3946 100.262 47.2102 101.269 48.1873L116.541 62.9993C118.042 64.4547 116.897 66.9895 114.813 66.8255L91.0981 64.9593C89.4096 64.8264 88.4789 62.9346 89.4041 61.5159Z" fill="white"/>
</g>
</g>
<ellipse opacity="0.2" cx="73.3336" cy="55.204" rx="4.1127" ry="3.01598" transform="rotate(-1.90211 73.3336 55.204)" fill="white"/>
<ellipse opacity="0.2" cx="79.5035" cy="54.7062" rx="1.2835" ry="0.941235" transform="rotate(-1.90211 79.5035 54.7062)" fill="white"/>
<path d="M57.7661 30.0755L58.3454 27.8036L84.348 28.4947L83.797 30.6554C83.7129 30.9851 83.4765 31.2549 83.1607 31.3815L77.2919 33.7351L72.8891 39.3163C72.4748 39.8415 71.6846 39.8598 71.2464 39.3542L65.9715 33.2682L58.5357 31.372C57.9651 31.2265 57.6206 30.646 57.7661 30.0755Z" fill="url(#paint22_linear_5097_16849)"/>
<path d="M71.625 18.0829L78.1858 16.4967C78.8017 16.3478 79.4107 16.7657 79.4934 17.3939L80.1969 22.7408C80.2232 22.9407 80.3056 23.129 80.4346 23.284L84.1023 27.6885C84.5879 28.2717 84.326 29.1612 83.6017 29.3881L77.3079 31.3599C77.1022 31.4244 76.9208 31.5497 76.7878 31.7193L72.914 36.6577C72.4959 37.1906 71.6935 37.2037 71.2582 36.6848L66.9251 31.5185C66.7816 31.3474 66.588 31.2257 66.3717 31.1705L59.0809 29.3113C58.3129 29.1155 58.0195 28.1799 58.5381 27.5806L62.1333 23.426C62.3049 23.2276 62.3974 22.9729 62.3931 22.7107L62.3022 17.2232C62.2905 16.5203 62.9504 15.9987 63.6316 16.1724L71.111 18.0797C71.2795 18.1227 71.4559 18.1238 71.625 18.0829Z" fill="url(#paint23_linear_5097_16849)"/>
<mask id="mask7_5097_16849" style="mask-type:alpha" maskUnits="userSpaceOnUse" x="58" y="16" width="27" height="22">
<path d="M71.6268 18.0829L78.1881 16.4966C78.8038 16.3478 79.4127 16.7656 79.4953 17.3936L80.1989 22.7409C80.2251 22.9407 80.3076 23.129 80.4365 23.2839L84.1045 27.6888C84.59 28.2719 84.3282 29.1611 83.6041 29.388L77.3098 31.36C77.1041 31.4244 76.9228 31.5496 76.7898 31.7192L72.9157 36.658C72.4978 37.1907 71.6955 37.2038 71.2604 36.6851L66.927 31.5184C66.7836 31.3473 66.59 31.2257 66.3737 31.1705L59.0824 29.3112C58.3146 29.1154 58.0213 28.1801 58.5398 27.5809L62.1353 23.4259C62.3069 23.2276 62.3994 22.973 62.395 22.7108L62.3041 17.2227C62.2925 16.5201 62.9522 15.9986 63.6332 16.1723L71.113 18.0797C71.2815 18.1227 71.4579 18.1238 71.6268 18.0829Z" fill="#07E0E0"/>
</mask>
<g mask="url(#mask7_5097_16849)">
<path opacity="0.2" d="M71.6584 18.0467L78.238 16.4971C78.8501 16.353 79.4533 16.7673 79.5384 17.3903L79.595 17.8046L58.4981 28.9426L58.4251 28.8202C58.1913 28.428 58.2333 27.9305 58.5294 27.5831L62.1781 23.3012C62.3472 23.1027 62.4377 22.8491 62.4325 22.5883L62.323 17.1841C62.3088 16.4799 62.9695 15.9557 63.652 16.1298L71.1507 18.042C71.317 18.0844 71.4912 18.086 71.6584 18.0467Z" fill="white"/>
<path opacity="0.2" d="M66.0869 31.098L64.0213 30.5712L80.0937 21.0304L80.3447 22.6343L66.0869 31.098Z" fill="white"/>
</g>
<ellipse cx="67.3171" cy="20.7696" rx="2.7053" ry="1.98389" transform="rotate(-9.0299 67.3171 20.7696)" fill="white"/>
<ellipse cx="71.304" cy="19.9409" rx="0.844277" ry="0.619137" transform="rotate(-9.0299 71.304 19.9409)" fill="white"/>
<path d="M31.1663 40.0482L31.6541 38.1353L53.5482 38.7172L53.0843 40.5365C53.0135 40.8141 52.8144 41.0413 52.5485 41.1479L47.607 43.1296L43.8999 47.829C43.551 48.2712 42.8857 48.2866 42.5167 47.8609L38.0752 42.7365L31.8143 41.1399C31.3339 41.0174 31.0438 40.5286 31.1663 40.0482Z" fill="url(#paint24_linear_5097_16849)"/>
<path d="M42.8372 29.9504L48.3614 28.6149C48.88 28.4895 49.3928 28.8414 49.4624 29.3703L50.0548 33.8724C50.0769 34.0407 50.1463 34.1993 50.2549 34.3297L53.3431 38.0383C53.752 38.5294 53.5314 39.2784 52.9216 39.4694L47.6222 41.1297C47.449 41.1839 47.2963 41.2894 47.1843 41.4323L43.9225 45.5904C43.5706 46.0391 42.8949 46.0501 42.5284 45.6132L38.8799 41.2632C38.7591 41.1191 38.5961 41.0166 38.414 40.9702L32.2751 39.4047C31.6285 39.2398 31.3815 38.4521 31.8181 37.9475L34.8452 34.4493C34.9898 34.2823 35.0676 34.0679 35.064 33.847L34.9874 29.2265C34.9776 28.6347 35.5333 28.1955 36.1068 28.3418L42.4044 29.9477C42.5463 29.9839 42.6949 29.9849 42.8372 29.9504Z" fill="url(#paint25_linear_5097_16849)"/>
<mask id="mask8_5097_16849" style="mask-type:alpha" maskUnits="userSpaceOnUse" x="31" y="28" width="23" height="18">
<path d="M42.8391 29.9505L48.3637 28.6148C48.8821 28.4895 49.3948 28.8413 49.4643 29.3701L50.0567 33.8725C50.0789 34.0407 50.1483 34.1993 50.2568 34.3297L53.3453 38.0386C53.7541 38.5295 53.5336 39.2783 52.924 39.4693L47.6241 41.1297C47.451 41.184 47.2983 41.2894 47.1863 41.4322L43.9243 45.5906C43.5724 46.0392 42.8969 46.0502 42.5306 45.6134L38.8818 41.2631C38.7611 41.1191 38.5981 41.0166 38.416 40.9702L32.2767 39.4046C31.6302 39.2398 31.3833 38.4523 31.8198 37.9478L34.8472 34.4492C34.9917 34.2823 35.0696 34.0679 35.0659 33.8471L34.9894 29.2262C34.9796 28.6345 35.535 28.1955 36.1084 28.3417L42.4065 29.9478C42.5483 29.9839 42.6968 29.9849 42.8391 29.9505Z" fill="#07E0E0"/>
</mask>
<g mask="url(#mask8_5097_16849)">
<path opacity="0.2" d="M42.8663 29.92L48.4064 28.6153C48.9217 28.4939 49.4296 28.8428 49.5013 29.3673L49.5489 29.7162L31.7854 39.0943L31.7239 38.9913C31.5271 38.6611 31.5624 38.2422 31.8117 37.9496L34.8839 34.3443C35.0264 34.1772 35.1026 33.9636 35.0981 33.7441L35.006 29.1938C34.994 28.6008 35.5503 28.1594 36.125 28.306L42.4388 29.9161C42.5789 29.9518 42.7256 29.9531 42.8663 29.92Z" fill="white"/>
<path opacity="0.2" d="M38.175 40.9092L36.4358 40.4657L49.9687 32.4324L50.18 33.7829L38.175 40.9092Z" fill="white"/>
</g>
<ellipse cx="39.2091" cy="32.2126" rx="2.27786" ry="1.67043" transform="rotate(-9.0299 39.2091 32.2126)" fill="white"/>
<ellipse cx="42.5671" cy="31.5151" rx="0.71088" ry="0.521312" transform="rotate(-9.0299 42.5671 31.5151)" fill="white"/>
<path d="M14.6881 56.5213L15.1295 54.7906L34.9384 55.3171L34.5187 56.9631C34.4546 57.2143 34.2745 57.4198 34.034 57.5163L29.5631 59.3093L26.209 63.5611C25.8933 63.9612 25.2914 63.9751 24.9576 63.59L20.9391 58.9536L15.2744 57.5091C14.8398 57.3982 14.5773 56.956 14.6881 56.5213Z" fill="url(#paint26_linear_5097_16849)"/>
<path d="M25.2471 47.3852L30.2452 46.1769C30.7143 46.0634 31.1783 46.3818 31.2413 46.8604L31.7772 50.9337C31.7973 51.0859 31.8601 51.2294 31.9583 51.3475L34.7524 54.7028C35.1224 55.1471 34.9228 55.8248 34.3711 55.9976L29.5764 57.4998C29.4197 57.5489 29.2815 57.6443 29.1801 57.7735L26.229 61.5356C25.9106 61.9416 25.2992 61.9516 24.9677 61.5563L21.6667 57.6205C21.5574 57.4902 21.4099 57.3975 21.2451 57.3555L15.6909 55.9391C15.1059 55.7899 14.8823 55.0772 15.2774 54.6206L18.0162 51.4556C18.147 51.3045 18.2174 51.1105 18.2141 50.9107L18.1449 46.7303C18.136 46.1948 18.6387 45.7975 19.1577 45.9298L24.8555 47.3828C24.9839 47.4155 25.1183 47.4164 25.2471 47.3852Z" fill="url(#paint27_linear_5097_16849)"/>
<mask id="mask9_5097_16849" style="mask-type:alpha" maskUnits="userSpaceOnUse" x="15" y="45" width="20" height="17">
<path d="M25.249 47.3852L30.2474 46.1768C30.7164 46.0634 31.1803 46.3817 31.2432 46.8601L31.7792 50.9337C31.7992 51.086 31.862 51.2294 31.9603 51.3474L34.7546 54.7031C35.1244 55.1473 34.9249 55.8247 34.3734 55.9975L29.5783 57.4998C29.4216 57.5489 29.2835 57.6443 29.1821 57.7735L26.2308 61.5359C25.9124 61.9417 25.3013 61.9517 24.9698 61.5565L21.6686 57.6205C21.5593 57.4902 21.4119 57.3975 21.2471 57.3555L15.6925 55.939C15.1076 55.7899 14.8842 55.0773 15.2791 54.6209L18.0182 51.4556C18.149 51.3045 18.2194 51.1105 18.2161 50.9108L18.1468 46.73C18.138 46.1946 18.6405 45.7974 19.1593 45.9297L24.8575 47.3828C24.9858 47.4155 25.1202 47.4164 25.249 47.3852Z" fill="#07E0E0"/>
</mask>
<g mask="url(#mask9_5097_16849)">
<path opacity="0.2" d="M25.2735 47.3578L30.2859 46.1774C30.7522 46.0676 31.2117 46.3832 31.2765 46.8578L31.3197 47.1735L15.2479 55.6584L15.1923 55.5652C15.0142 55.2664 15.0461 54.8875 15.2717 54.6227L18.0513 51.3608C18.1802 51.2096 18.2491 51.0164 18.2451 50.8177L18.1618 46.7008C18.1509 46.1643 18.6542 45.7649 19.1742 45.8975L24.8867 47.3543C25.0135 47.3866 25.1461 47.3878 25.2735 47.3578Z" fill="white"/>
<path opacity="0.2" d="M21.029 57.3L19.4555 56.8987L31.6995 49.6305L31.8907 50.8524L21.029 57.3Z" fill="white"/>
</g>
<ellipse cx="21.964" cy="49.4318" rx="2.06092" ry="1.51134" transform="rotate(-9.0299 21.964 49.4318)" fill="white"/>
<ellipse cx="25.0022" cy="48.8009" rx="0.643177" ry="0.471663" transform="rotate(-9.0299 25.0022 48.8009)" fill="white"/>
<path d="M14.6396 78.2957L15.0345 76.7472L32.7583 77.2183L32.3828 78.691C32.3255 78.9158 32.1643 79.0996 31.9491 79.186L27.9488 80.7902L24.9478 84.5944C24.6653 84.9525 24.1268 84.9649 23.8281 84.6203L20.2326 80.472L15.1642 79.1795C14.7753 79.0803 14.5405 78.6846 14.6396 78.2957Z" fill="url(#paint28_linear_5097_16849)"/>
<path d="M24.0866 70.1213L28.5586 69.0401C28.9784 68.9386 29.3935 69.2235 29.4499 69.6517L29.9294 73.2962C29.9473 73.4324 30.0035 73.5608 30.0914 73.6664L32.5914 76.6686C32.9224 77.0661 32.7438 77.6724 32.2502 77.8271L27.9602 79.1711C27.82 79.2151 27.6964 79.3005 27.6057 79.4161L24.9652 82.7822C24.6803 83.1454 24.1333 83.1543 23.8366 82.8006L20.8831 79.2792C20.7853 79.1626 20.6533 79.0796 20.5059 79.042L15.5364 77.7747C15.0129 77.6413 14.8129 77.0035 15.1664 76.595L17.6169 73.7632C17.7339 73.628 17.7969 73.4544 17.794 73.2756L17.732 69.5353C17.7241 69.0562 18.1739 68.7006 18.6382 68.819L23.7363 70.1191C23.8511 70.1484 23.9714 70.1491 24.0866 70.1213Z" fill="url(#paint29_linear_5097_16849)"/>
<mask id="mask10_5097_16849" style="mask-type:alpha" maskUnits="userSpaceOnUse" x="14" y="68" width="19" height="16">
<path d="M24.0885 70.1213L28.5608 69.04C28.9804 68.9386 29.3955 69.2234 29.4518 69.6514L29.9313 73.2963C29.9493 73.4325 30.0054 73.5608 30.0933 73.6664L32.5935 76.6688C32.9244 77.0663 32.7459 77.6724 32.2524 77.827L27.9621 79.1711C27.8219 79.2151 27.6983 79.3004 27.6077 79.416L24.967 82.7824C24.6821 83.1455 24.1353 83.1544 23.8387 82.8008L20.885 79.2791C20.7872 79.1626 20.6553 79.0796 20.5079 79.042L15.538 77.7747C15.0147 77.6412 14.8147 77.0037 15.1681 76.5953L17.6189 73.7632C17.7359 73.628 17.7989 73.4544 17.7959 73.2757L17.734 69.535C17.726 69.056 18.1757 68.7006 18.6399 68.819L23.7383 70.1191C23.8531 70.1484 23.9733 70.1491 24.0885 70.1213Z" fill="#07E0E0"/>
</mask>
<g mask="url(#mask10_5097_16849)">
<path opacity="0.2" d="M24.1103 70.0969L28.5952 69.0408C29.0123 68.9425 29.4235 69.2249 29.4815 69.6496L29.5201 69.932L15.1401 77.5238L15.0903 77.4404C14.931 77.1731 14.9595 76.834 15.1614 76.5971L17.6484 73.6785C17.7637 73.5432 17.8254 73.3704 17.8218 73.1926L17.7472 69.509C17.7375 69.029 18.1878 68.6717 18.6531 68.7904L23.7643 70.0938C23.8777 70.1227 23.9964 70.1238 24.1103 70.0969Z" fill="white"/>
<path opacity="0.2" d="M20.3128 78.9925L18.9049 78.6335L29.8601 72.1303L30.0311 73.2236L20.3128 78.9925Z" fill="white"/>
</g>
<ellipse cx="21.1486" cy="71.9528" rx="1.84398" ry="1.35225" transform="rotate(-9.0299 21.1486 71.9528)" fill="white"/>
<ellipse cx="23.867" cy="71.388" rx="0.575474" ry="0.422014" transform="rotate(-9.0299 23.867 71.388)" fill="white"/>
<path d="M25.2085 97.5557L25.5337 96.2805L40.1298 96.6684L39.8205 97.8813C39.7733 98.0663 39.6406 98.2178 39.4634 98.2889L36.169 99.61L33.6976 102.743C33.465 103.038 33.0214 103.048 32.7755 102.764L29.8145 99.3479L25.6405 98.2835C25.3203 98.2019 25.1268 97.876 25.2085 97.5557Z" fill="url(#paint30_linear_5097_16849)"/>
<path d="M32.9885 90.8242L36.6713 89.9338C37.017 89.8503 37.3589 90.0849 37.4053 90.4375L37.8002 93.4389C37.8149 93.5511 37.8612 93.6568 37.9336 93.7438L39.9924 96.2161C40.265 96.5435 40.118 97.0428 39.7114 97.1702L36.1785 98.277C36.063 98.3132 35.9612 98.3836 35.8865 98.4788L33.712 101.251C33.4774 101.55 33.0269 101.557 32.7826 101.266L30.3503 98.366C30.2698 98.27 30.1611 98.2017 30.0396 98.1707L25.9471 97.1271C25.516 97.0171 25.3513 96.492 25.6424 96.1556L27.6605 93.8235C27.7568 93.7121 27.8088 93.5692 27.8063 93.4219L27.7553 90.3416C27.7488 89.9471 28.1192 89.6543 28.5016 89.7518L32.7 90.8224C32.7946 90.8465 32.8936 90.8472 32.9885 90.8242Z" fill="url(#paint31_linear_5097_16849)"/>
<mask id="mask11_5097_16849" style="mask-type:alpha" maskUnits="userSpaceOnUse" x="25" y="89" width="16" height="13">
<path d="M32.9904 90.8242L36.6734 89.9338C37.019 89.8502 37.3608 90.0848 37.4072 90.4373L37.8021 93.4389C37.8169 93.5511 37.8632 93.6568 37.9356 93.7437L39.9945 96.2163C40.2671 96.5436 40.12 97.0428 39.7136 97.1701L36.1804 98.2771C36.065 98.3132 35.9632 98.3835 35.8885 98.4787L33.7139 101.251C33.4793 101.55 33.0289 101.557 32.7847 101.266L30.3522 98.366C30.2717 98.27 30.1631 98.2017 30.0417 98.1707L25.9488 97.127C25.5178 97.0171 25.3532 96.4921 25.6442 96.1558L27.6625 93.8234C27.7588 93.7121 27.8107 93.5692 27.8083 93.422L27.7572 90.3414C27.7507 89.9469 28.121 89.6543 28.5033 89.7517L32.702 90.8224C32.7965 90.8465 32.8955 90.8472 32.9904 90.8242Z" fill="#07E0E0"/>
</mask>
<g mask="url(#mask11_5097_16849)">
<path opacity="0.2" d="M33.0072 90.8038L36.7006 89.934C37.0442 89.8531 37.3827 90.0856 37.4305 90.4353L37.4623 90.6679L25.6199 96.92L25.579 96.8513C25.4477 96.6312 25.4713 96.3519 25.6375 96.1569L27.6856 93.7533C27.7806 93.6419 27.8314 93.4995 27.8284 93.3532L27.767 90.3196C27.759 89.9243 28.1299 89.6301 28.513 89.7278L32.7222 90.8011C32.8156 90.825 32.9134 90.8259 33.0072 90.8038Z" fill="white"/>
<path opacity="0.2" d="M29.881 98.1294L28.7215 97.8338L37.7434 92.4782L37.8843 93.3785L29.881 98.1294Z" fill="white"/>
</g>
<ellipse cx="30.5691" cy="92.3322" rx="1.51857" ry="1.11362" transform="rotate(-9.0299 30.5691 92.3322)" fill="white"/>
<ellipse cx="32.8078" cy="91.867" rx="0.47392" ry="0.347541" transform="rotate(-9.0299 32.8078 91.867)" fill="white"/>
<path style="mix-blend-mode:screen" opacity="0.6" d="M61.8492 120.433C80.4929 125.188 99.4607 113.928 104.215 95.2842C108.969 76.6405 97.7097 57.6727 79.066 52.9184C60.4223 48.1642 41.4545 59.4238 36.7002 78.0675C31.9459 96.7112 43.2055 115.679 61.8492 120.433Z" fill="url(#paint32_radial_5097_16849)"/>
</g>
<defs>
<filter id="filter0_d_5097_16849" x="87.1231" y="62.1826" width="31.8437" height="13.2158" filterUnits="userSpaceOnUse" color-interpolation-filters="sRGB">
<feFlood flood-opacity="0" result="BackgroundImageFix"/>
<feColorMatrix in="SourceAlpha" type="matrix" values="0 0 0 0 0 0 0 0 0 0 0 0 0 0 0 0 0 0 127 0" result="hardAlpha"/>
<feOffset dy="0.931624"/>
<feGaussianBlur stdDeviation="0.465812"/>
<feComposite in2="hardAlpha" operator="out"/>
<feColorMatrix type="matrix" values="0 0 0 0 0 0 0 0 0 0 0 0 0 0 0 0 0 0 0.5 0"/>
<feBlend mode="normal" in2="BackgroundImageFix" result="effect1_dropShadow_5097_16849"/>
<feBlend mode="normal" in="SourceGraphic" in2="effect1_dropShadow_5097_16849" result="shape"/>
</filter>
<linearGradient id="paint0_linear_5097_16849" x1="59.0473" y1="36.396" x2="102.487" y2="116.099" gradientUnits="userSpaceOnUse">
<stop stop-color="#284265"/>
<stop offset="1" stop-color="#192C40"/>
</linearGradient>
<linearGradient id="paint1_linear_5097_16849" x1="41.3067" y1="73.189" x2="96.5666" y2="90.369" gradientUnits="userSpaceOnUse">
<stop offset="0.17" stop-color="#557FAE"/>
<stop offset="0.35" stop-color="#3C6593"/>
<stop offset="0.546875" stop-color="#335477"/>
<stop offset="0.81" stop-color="#274159"/>
<stop offset="1" stop-color="#1C3144"/>
</linearGradient>
<linearGradient id="paint2_linear_5097_16849" x1="99.7597" y1="62.0618" x2="113.056" y2="94.6468" gradientUnits="userSpaceOnUse">
<stop stop-color="#08D6C9"/>
<stop offset="0.21875" stop-color="#15C6BB"/>
<stop offset="0.411458" stop-color="#18ABAB"/>
<stop offset="1" stop-color="#045668"/>
</linearGradient>
<linearGradient id="paint3_linear_5097_16849" x1="69.7837" y1="79.1062" x2="107.155" y2="31.1723" gradientUnits="userSpaceOnUse">
<stop stop-color="#6A39D2"/>
<stop offset="0.244792" stop-color="#3C0994"/>
<stop offset="0.552083" stop-color="#5D28BA"/>
<stop offset="0.765625" stop-color="#4D2395"/>
<stop offset="1" stop-color="#350786"/>
</linearGradient>
<linearGradient id="paint4_linear_5097_16849" x1="74.9816" y1="58.6431" x2="146.639" y2="5.34004" gradientUnits="userSpaceOnUse">
<stop stop-color="#6A39D2"/>
<stop offset="0.244792" stop-color="#3C0994"/>
<stop offset="0.552083" stop-color="#5D28BA"/>
<stop offset="0.765625" stop-color="#4D2395"/>
<stop offset="1" stop-color="#350786"/>
</linearGradient>
<linearGradient id="paint5_linear_5097_16849" x1="66.7214" y1="90.5819" x2="137.958" y2="71.3976" gradientUnits="userSpaceOnUse">
<stop stop-color="#6A39D2"/>
<stop offset="0.244792" stop-color="#3C0994"/>
<stop offset="0.552083" stop-color="#5D28BA"/>
<stop offset="0.765625" stop-color="#4D2395"/>
<stop offset="1" stop-color="#350786"/>
</linearGradient>
<linearGradient id="paint6_linear_5097_16849" x1="75.4041" y1="50.9237" x2="93.5759" y2="65.1656" gradientUnits="userSpaceOnUse">
<stop stop-color="#08D6C9"/>
<stop offset="0.21875" stop-color="#15C6BB"/>
<stop offset="0.411458" stop-color="#18ABAB"/>
<stop offset="1" stop-color="#045668"/>
</linearGradient>
<linearGradient id="paint7_linear_5097_16849" x1="40.4565" y1="83.8844" x2="118.38" y2="57.1998" gradientUnits="userSpaceOnUse">
<stop stop-color="#6A39D2"/>
<stop offset="0.244792" stop-color="#3C0994"/>
<stop offset="0.552083" stop-color="#5D28BA"/>
<stop offset="0.765625" stop-color="#4D2395"/>
<stop offset="1" stop-color="#350786"/>
</linearGradient>
<linearGradient id="paint8_linear_5097_16849" x1="64.3403" y1="53.0296" x2="77.9553" y2="85.0736" gradientUnits="userSpaceOnUse">
<stop stop-color="#08D6C9"/>
<stop offset="0.21875" stop-color="#15C6BB"/>
<stop offset="0.411458" stop-color="#18ABAB"/>
<stop offset="1" stop-color="#045668"/>
</linearGradient>
<linearGradient id="paint9_linear_5097_16849" x1="32.1023" y1="66.5007" x2="74.9869" y2="17.5586" gradientUnits="userSpaceOnUse">
<stop stop-color="#6A39D2"/>
<stop offset="0.244792" stop-color="#3C0994"/>
<stop offset="0.552083" stop-color="#5D28BA"/>
<stop offset="0.765625" stop-color="#4D2395"/>
<stop offset="1" stop-color="#350786"/>
</linearGradient>
<linearGradient id="paint10_linear_5097_16849" x1="67.2289" y1="36.7979" x2="73.3806" y2="64.702" gradientUnits="userSpaceOnUse">
<stop stop-color="#08D6C9"/>
<stop offset="0.21875" stop-color="#15C6BB"/>
<stop offset="0.411458" stop-color="#18ABAB"/>
<stop offset="1" stop-color="#045668"/>
</linearGradient>
<linearGradient id="paint11_linear_5097_16849" x1="41.1993" y1="48.263" x2="120.213" y2="2.38784" gradientUnits="userSpaceOnUse">
<stop stop-color="#6A39D2"/>
<stop offset="0.244792" stop-color="#3C0994"/>
<stop offset="0.552083" stop-color="#5D28BA"/>
<stop offset="0.765625" stop-color="#4D2395"/>
<stop offset="1" stop-color="#350786"/>
</linearGradient>
<linearGradient id="paint12_linear_5097_16849" x1="79.0784" y1="12.0438" x2="100.611" y2="34.4225" gradientUnits="userSpaceOnUse">
<stop stop-color="#08D6C9"/>
<stop offset="0.21875" stop-color="#15C6BB"/>
<stop offset="0.411458" stop-color="#18ABAB"/>
<stop offset="1" stop-color="#045668"/>
</linearGradient>
<linearGradient id="paint13_linear_5097_16849" x1="72.7671" y1="53.539" x2="132.025" y2="44.7229" gradientUnits="userSpaceOnUse">
<stop stop-color="#6A39D2"/>
<stop offset="0.244792" stop-color="#3C0994"/>
<stop offset="0.552083" stop-color="#5D28BA"/>
<stop offset="0.765625" stop-color="#4D2395"/>
<stop offset="1" stop-color="#350786"/>
</linearGradient>
<linearGradient id="paint14_linear_5097_16849" x1="105.759" y1="20.5838" x2="127.2" y2="50.8669" gradientUnits="userSpaceOnUse">
<stop stop-color="#08D6C9"/>
<stop offset="0.21875" stop-color="#15C6BB"/>
<stop offset="0.411458" stop-color="#18ABAB"/>
<stop offset="1" stop-color="#045668"/>
</linearGradient>
<linearGradient id="paint15_linear_5097_16849" x1="104.967" y1="55.1013" x2="106.937" y2="77.2525" gradientUnits="userSpaceOnUse">
<stop stop-color="#08D6C9"/>
<stop offset="0.21875" stop-color="#15C6BB"/>
<stop offset="0.411458" stop-color="#18ABAB"/>
<stop offset="1" stop-color="#045668"/>
</linearGradient>
<linearGradient id="paint16_linear_5097_16849" x1="64.0819" y1="72.002" x2="77.0634" y2="72.002" gradientUnits="userSpaceOnUse">
<stop stop-color="#413B4D"/>
<stop offset="0.06" stop-color="#453E51"/>
<stop offset="0.13" stop-color="#4F485E"/>
<stop offset="0.2" stop-color="#605773"/>
<stop offset="0.24" stop-color="#6B6180"/>
<stop offset="0.26" stop-color="#645B78"/>
<stop offset="0.33" stop-color="#554D65"/>
<stop offset="0.41" stop-color="#413E48"/>
<stop offset="0.51" stop-color="#332F39"/>
<stop offset="0.69" stop-color="#302C37"/>
<stop offset="1" stop-color="#25212B"/>
</linearGradient>
<linearGradient id="paint17_linear_5097_16849" x1="63.8183" y1="71.1345" x2="76.8081" y2="71.1345" gradientUnits="userSpaceOnUse">
<stop stop-color="#524A61"/>
<stop offset="0.17" stop-color="#4A4358"/>
<stop offset="0.68" stop-color="#5D556D"/>
<stop offset="1" stop-color="#585168"/>
</linearGradient>
<linearGradient id="paint18_linear_5097_16849" x1="110.024" y1="68.0087" x2="112.43" y2="71.8064" gradientUnits="userSpaceOnUse">
<stop stop-color="#112A4B"/>
<stop offset="1" stop-color="#165492"/>
</linearGradient>
<linearGradient id="paint19_linear_5097_16849" x1="98.5848" y1="59.482" x2="97.5444" y2="72.5139" gradientUnits="userSpaceOnUse">
<stop stop-color="#112A4B"/>
<stop offset="1" stop-color="#165492"/>
</linearGradient>
<linearGradient id="paint20_linear_5097_16849" x1="92.0044" y1="54.0884" x2="111.337" y2="71.8685" gradientUnits="userSpaceOnUse">
<stop offset="0.17" stop-color="#1F4E84"/>
<stop offset="0.35" stop-color="#225389"/>
<stop offset="0.57" stop-color="#295F99"/>
<stop offset="0.81" stop-color="#3675B2"/>
<stop offset="1" stop-color="#428ACC"/>
</linearGradient>
<linearGradient id="paint21_linear_5097_16849" x1="91.5103" y1="56.2628" x2="110.626" y2="38.4766" gradientUnits="userSpaceOnUse">
<stop stop-color="#FFFDEE"/>
<stop offset="0.11" stop-color="#FFFDEE" stop-opacity="0.87"/>
<stop offset="0.44" stop-color="#FFFDEE" stop-opacity="0.5"/>
<stop offset="0.71" stop-color="#FFFDEE" stop-opacity="0.23"/>
<stop offset="0.9" stop-color="#FFFDEE" stop-opacity="0.06"/>
<stop offset="1" stop-color="#FFFDEE" stop-opacity="0"/>
</linearGradient>
<linearGradient id="paint22_linear_5097_16849" x1="67.532" y1="22.8987" x2="68.2498" y2="41.9625" gradientUnits="userSpaceOnUse">
<stop stop-color="#112A4B"/>
<stop offset="1" stop-color="#165492"/>
</linearGradient>
<linearGradient id="paint23_linear_5097_16849" x1="60.9157" y1="22.2797" x2="78.2441" y2="34.9067" gradientUnits="userSpaceOnUse">
<stop offset="0.17" stop-color="#1F4E84"/>
<stop offset="0.35" stop-color="#225389"/>
<stop offset="0.57" stop-color="#295F99"/>
<stop offset="0.81" stop-color="#3675B2"/>
<stop offset="1" stop-color="#428ACC"/>
</linearGradient>
<linearGradient id="paint24_linear_5097_16849" x1="39.3892" y1="34.0054" x2="39.9936" y2="50.057" gradientUnits="userSpaceOnUse">
<stop stop-color="#112A4B"/>
<stop offset="1" stop-color="#165492"/>
</linearGradient>
<linearGradient id="paint25_linear_5097_16849" x1="33.8201" y1="33.4842" x2="48.4106" y2="44.1161" gradientUnits="userSpaceOnUse">
<stop offset="0.17" stop-color="#1F4E84"/>
<stop offset="0.35" stop-color="#225389"/>
<stop offset="0.57" stop-color="#295F99"/>
<stop offset="0.81" stop-color="#3675B2"/>
<stop offset="1" stop-color="#428ACC"/>
</linearGradient>
<linearGradient id="paint26_linear_5097_16849" x1="22.1279" y1="51.054" x2="22.6747" y2="65.577" gradientUnits="userSpaceOnUse">
<stop stop-color="#112A4B"/>
<stop offset="1" stop-color="#165492"/>
</linearGradient>
<linearGradient id="paint27_linear_5097_16849" x1="17.0887" y1="50.5824" x2="30.2896" y2="60.2018" gradientUnits="userSpaceOnUse">
<stop offset="0.17" stop-color="#1F4E84"/>
<stop offset="0.35" stop-color="#225389"/>
<stop offset="0.57" stop-color="#295F99"/>
<stop offset="0.81" stop-color="#3675B2"/>
<stop offset="1" stop-color="#428ACC"/>
</linearGradient>
<linearGradient id="paint28_linear_5097_16849" x1="21.2963" y1="73.4039" x2="21.7856" y2="86.3981" gradientUnits="userSpaceOnUse">
<stop stop-color="#112A4B"/>
<stop offset="1" stop-color="#165492"/>
</linearGradient>
<linearGradient id="paint29_linear_5097_16849" x1="16.787" y1="72.9819" x2="28.5984" y2="81.5887" gradientUnits="userSpaceOnUse">
<stop offset="0.17" stop-color="#1F4E84"/>
<stop offset="0.35" stop-color="#225389"/>
<stop offset="0.57" stop-color="#295F99"/>
<stop offset="0.81" stop-color="#3675B2"/>
<stop offset="1" stop-color="#428ACC"/>
</linearGradient>
<linearGradient id="paint30_linear_5097_16849" x1="30.6905" y1="93.5272" x2="31.0934" y2="104.228" gradientUnits="userSpaceOnUse">
<stop stop-color="#112A4B"/>
<stop offset="1" stop-color="#165492"/>
</linearGradient>
<linearGradient id="paint31_linear_5097_16849" x1="26.9771" y1="93.18" x2="36.704" y2="100.268" gradientUnits="userSpaceOnUse">
<stop offset="0.17" stop-color="#1F4E84"/>
<stop offset="0.35" stop-color="#225389"/>
<stop offset="0.57" stop-color="#295F99"/>
<stop offset="0.81" stop-color="#3675B2"/>
<stop offset="1" stop-color="#428ACC"/>
</linearGradient>
<radialGradient id="paint32_radial_5097_16849" cx="0" cy="0" r="1" gradientUnits="userSpaceOnUse" gradientTransform="translate(70.4576 86.6758) rotate(14.3059) scale(34.8377 34.8377)">
<stop stop-color="#00D1FF"/>
<stop offset="0.15" stop-color="#00C6D3"/>
<stop offset="0.46" stop-color="#00647A"/>
<stop offset="0.72" stop-color="#002738"/>
<stop offset="0.9" stop-color="#000F0F"/>
<stop offset="1"/>
</radialGradient>
<clipPath id="clip0_5097_16849">
<rect width="105.781" height="105.781" fill="white" transform="translate(26.1387) rotate(14.3059)"/>
</clipPath>
</defs>
</svg>
