<svg width="65" height="65" viewBox="0 0 65 65" fill="none" xmlns="http://www.w3.org/2000/svg">
<rect x="0.5" y="0.500244" width="64" height="64" rx="32" fill="#242D35"/>
<g clip-path="url(#clip0_1817_57247)">
<path d="M41.52 25.5002H39.5V23.4802C39.5 22.9402 39.06 22.5002 38.52 22.5002H38.49C37.94 22.5002 37.5 22.9402 37.5 23.4802V25.5002H35.49C34.95 25.5002 34.51 25.9402 34.5 26.4802V26.5102C34.5 27.0602 34.94 27.5002 35.49 27.5002H37.5V29.5102C37.5 30.0502 37.94 30.5002 38.49 30.4902H38.52C39.06 30.4902 39.5 30.0502 39.5 29.5102V27.5002H41.52C42.06 27.5002 42.5 27.0602 42.5 26.5202V26.4802C42.5 25.9402 42.06 25.5002 41.52 25.5002ZM36.5 29.5102V28.5002H35.49C34.96 28.5002 34.46 28.2902 34.08 27.9202C33.71 27.5402 33.5 27.0402 33.5 26.4802C33.5 26.1202 33.6 25.7902 33.77 25.5002H25.5C24.4 25.5002 23.5 26.4002 23.5 27.5002V39.5002C23.5 40.6002 24.4 41.5002 25.5 41.5002H37.5C38.6 41.5002 39.5 40.6002 39.5 39.5002V31.2202C39.2 31.3902 38.86 31.5002 38.48 31.5002C37.39 31.4902 36.5 30.6002 36.5 29.5102ZM36.46 39.5002H26.5C26.09 39.5002 25.85 39.0302 26.1 38.7002L28.08 36.0702C28.29 35.7902 28.7 35.8102 28.9 36.0902L30.5 38.5002L33.11 35.0202C33.31 34.7602 33.7 34.7502 33.9 35.0102L36.85 38.6902C37.11 39.0202 36.88 39.5002 36.46 39.5002Z" fill="#FAFAFA"/>
</g>
<defs>
<clipPath id="clip0_1817_57247">
<rect width="24" height="24" fill="white" transform="translate(20.5 20.5002)"/>
</clipPath>
</defs>
</svg>
