<svg width="21" height="21" viewBox="0 0 21 21" fill="none" xmlns="http://www.w3.org/2000/svg">
<g clip-path="url(#clip0_3302_74472)">
<path d="M13.4139 11.4333H4.34701C3.83344 11.4333 3.41367 11.0135 3.41367 10.4999C3.41367 9.98637 3.83344 9.5666 4.34701 9.5666H13.4146L9.5263 5.66231C9.52625 5.66227 9.52621 5.66223 9.52617 5.66219L9.52615 5.66217L9.59701 5.5916L13.4139 11.4333ZM13.4139 11.4333L9.51796 15.3292C9.15391 15.6933 9.15391 16.2899 9.51796 16.654C9.88201 17.018 10.4703 17.018 10.8344 16.654L16.3261 11.1623C16.6901 10.7983 16.6901 10.2101 16.3262 9.846L13.4139 11.4333ZM10.8428 4.346L10.8427 4.34589L16.326 9.84589L10.8428 4.346Z" fill="#323232" stroke="#323232" stroke-width="0.2"/>
</g>
<defs>
<clipPath id="clip0_3302_74472">
<rect width="20" height="20" fill="white" transform="translate(0.180176 0.5)"/>
</clipPath>
</defs>
</svg>
