<svg width="131" height="132" viewBox="0 0 131 132" fill="none" xmlns="http://www.w3.org/2000/svg">
<path d="M65.3038 11.708C35.2839 11.708 10.9199 36.072 10.9199 66.0919C10.9199 96.1118 35.2839 120.476 65.3038 120.476C95.3238 120.476 119.688 96.1118 119.688 66.0919C119.688 36.072 95.3238 11.708 65.3038 11.708ZM50.5658 89.4226L31.042 69.8988C28.921 67.7778 28.921 64.3516 31.042 62.2307C33.1629 60.1097 36.5891 60.1097 38.7101 62.2307L54.4271 77.8932L91.8432 40.4771C93.9641 38.3561 97.3904 38.3561 99.5113 40.4771C101.632 42.5981 101.632 46.0243 99.5113 48.1452L58.2339 89.4226C56.1673 91.5436 52.6868 91.5436 50.5658 89.4226Z" fill="#44C13C"/>
</svg>
