<svg width="20" height="21" viewBox="0 0 20 21" fill="none" xmlns="http://www.w3.org/2000/svg">
<g clip-path="url(#clip0_1286_50493)">
<path d="M12.4998 1.33337H3.33317C2.4165 1.33337 1.6665 2.08337 1.6665 3.00004V13.8334C1.6665 14.2917 2.0415 14.6667 2.49984 14.6667C2.95817 14.6667 3.33317 14.2917 3.33317 13.8334V3.83337C3.33317 3.37504 3.70817 3.00004 4.1665 3.00004H12.4998C12.9582 3.00004 13.3332 2.62504 13.3332 2.16671C13.3332 1.70837 12.9582 1.33337 12.4998 1.33337ZM15.8332 4.66671H6.6665C5.74984 4.66671 4.99984 5.41671 4.99984 6.33337V18C4.99984 18.9167 5.74984 19.6667 6.6665 19.6667H15.8332C16.7498 19.6667 17.4998 18.9167 17.4998 18V6.33337C17.4998 5.41671 16.7498 4.66671 15.8332 4.66671ZM14.9998 18H7.49984C7.0415 18 6.6665 17.625 6.6665 17.1667V7.16671C6.6665 6.70837 7.0415 6.33337 7.49984 6.33337H14.9998C15.4582 6.33337 15.8332 6.70837 15.8332 7.16671V17.1667C15.8332 17.625 15.4582 18 14.9998 18Z" fill="#07E0E0"/>
</g>
<defs>
<clipPath id="clip0_1286_50493">
<rect width="20" height="20" fill="white" transform="translate(0 0.5)"/>
</clipPath>
</defs>
</svg>
