<svg width="21" height="21" viewBox="0 0 21 21" fill="none" xmlns="http://www.w3.org/2000/svg">
<g clip-path="url(#clip0_4224_137860)">
<path d="M9.9633 17.4075H7.5706C6.40083 17.4075 5.44375 18.3645 5.44375 19.5343V19.8002H4.38033C3.94433 19.8002 3.58276 20.1617 3.58276 20.5977C3.58276 21.0337 3.94433 21.3953 4.38033 21.3953H17.1414C17.5774 21.3953 17.939 21.0337 17.939 20.5977C17.939 20.1617 17.5774 19.8002 17.1414 19.8002H16.078V19.5343C16.078 18.3645 15.1209 17.4075 13.9511 17.4075H11.5584V14.9722C11.2926 15.0041 11.0267 15.0148 10.7609 15.0148C10.495 15.0148 10.2292 15.0041 9.9633 14.9722V17.4075Z" fill="#A8B0B9"/>
<path d="M17.6518 10.3782C18.3536 10.1124 18.9704 9.67638 19.4596 9.18721C20.4486 8.09188 21.0972 6.78387 21.0972 5.25254C21.0972 3.72121 19.8956 2.51955 18.3643 2.51955H17.7687C17.0775 1.10519 15.6313 0.126846 13.9511 0.126846H7.57052C5.89031 0.126846 4.44405 1.10519 3.75283 2.51955H3.15731C1.62598 2.51955 0.424316 3.72121 0.424316 5.25254C0.424316 6.78387 1.073 8.09188 2.06199 9.18721C2.55116 9.67638 3.16795 10.1124 3.86981 10.3782C4.97576 13.1006 7.63432 15.0148 10.7608 15.0148C13.8872 15.0148 16.5458 13.1006 17.6518 10.3782ZM13.7809 6.98592L13.1216 7.79412C13.0152 7.9111 12.9408 8.14505 12.9514 8.30456L13.0152 9.34672C13.0578 9.98477 12.6005 10.3144 12.005 10.0805L11.0373 9.69765C10.8884 9.64448 10.6332 9.64448 10.4843 9.69765L9.51658 10.0805C8.92106 10.3144 8.46379 9.98477 8.50633 9.34672L8.57013 8.30456C8.58077 8.14505 8.50633 7.9111 8.39998 7.79412L7.74066 6.98592C7.32593 6.49675 7.50671 5.9544 8.1235 5.79489L9.13375 5.53967C9.29326 5.49713 9.48468 5.34825 9.56975 5.21001L10.1334 4.338C10.4843 3.79565 11.0373 3.79565 11.3882 4.338L11.9518 5.21001C12.0369 5.34825 12.2283 5.49713 12.3878 5.53967L13.3981 5.79489C14.0149 5.9544 14.1956 6.49675 13.7809 6.98592Z" fill="#A8B0B9"/>
</g>
<defs>
<clipPath id="clip0_4224_137860">
<rect width="21" height="21" fill="white"/>
</clipPath>
</defs>
</svg>
