<svg width="15" height="16" viewBox="0 0 15 16" fill="none" xmlns="http://www.w3.org/2000/svg">
<g clip-path="url(#clip0_1286_51538)">
<path d="M5.625 13.6252C5.625 13.969 5.90625 14.2502 6.25 14.2502H8.75C9.09375 14.2502 9.375 13.969 9.375 13.6252V13.0002H5.625V13.6252ZM7.5 1.75024C5.0875 1.75024 3.125 3.71274 3.125 6.12524C3.125 7.61274 3.86875 8.91899 5 9.71274V11.1252C5 11.469 5.28125 11.7502 5.625 11.7502H9.375C9.71875 11.7502 10 11.469 10 11.1252V9.71274C11.1313 8.91899 11.875 7.61274 11.875 6.12524C11.875 3.71274 9.9125 1.75024 7.5 1.75024ZM9.28125 8.68774L8.75 9.06274V10.5002H6.25V9.06274L5.71875 8.68774C4.875 8.10024 4.375 7.14399 4.375 6.12524C4.375 4.40024 5.775 3.00024 7.5 3.00024C9.225 3.00024 10.625 4.40024 10.625 6.12524C10.625 7.14399 10.125 8.10024 9.28125 8.68774Z" fill="#07E0E0"/>
</g>
<defs>
<clipPath id="clip0_1286_51538">
<rect width="15" height="15" fill="white" transform="translate(0 0.500244)"/>
</clipPath>
</defs>
</svg>
