<svg width="22" height="21" viewBox="0 0 22 21" fill="none" xmlns="http://www.w3.org/2000/svg">
<path d="M15.9513 0H5.31711C2.12684 0 0 2.12684 0 5.31711V11.6976C0 14.8879 2.12684 17.0148 5.31711 17.0148V19.2798C5.31711 20.1306 6.26356 20.641 6.96542 20.1625L11.6976 17.0148H15.9513C19.1416 17.0148 21.2684 14.8879 21.2684 11.6976V5.31711C21.2684 2.12684 19.1416 0 15.9513 0ZM10.6342 12.9418C10.1876 12.9418 9.83666 12.5803 9.83666 12.1443C9.83666 11.7083 10.1876 11.3467 10.6342 11.3467C11.0809 11.3467 11.4318 11.7083 11.4318 12.1443C11.4318 12.5803 11.0809 12.9418 10.6342 12.9418ZM11.9741 8.52865C11.5594 8.80514 11.4318 8.98592 11.4318 9.28368V9.507C11.4318 9.943 11.0702 10.3046 10.6342 10.3046C10.1982 10.3046 9.83666 9.943 9.83666 9.507V9.28368C9.83666 8.05011 10.7406 7.44396 11.0809 7.21C11.4743 6.94415 11.6019 6.76337 11.6019 6.48688C11.6019 5.95516 11.1659 5.51916 10.6342 5.51916C10.1025 5.51916 9.66651 5.95516 9.66651 6.48688C9.66651 6.92288 9.30495 7.28444 8.86894 7.28444C8.43294 7.28444 8.07138 6.92288 8.07138 6.48688C8.07138 5.07252 9.21987 3.92403 10.6342 3.92403C12.0486 3.92403 13.1971 5.07252 13.1971 6.48688C13.1971 7.69918 12.3038 8.30533 11.9741 8.52865Z" fill="#A8B0B9"/>
</svg>
