<svg width="179" height="130" viewBox="0 0 179 130" fill="none" xmlns="http://www.w3.org/2000/svg">
<g clip-path="url(#clip0_2604_68441)">
<path d="M51.1855 16.8228H7.94263C6.83806 16.8228 5.94263 17.697 5.94263 18.8016V119.845C5.94263 123.409 7.06142 125.922 8.28754 127.524C9.51401 129.127 11.6131 129.547 13.6313 129.547H143C144.104 129.547 145 128.651 145 127.547V30.8342C145 29.7296 144.104 28.8342 143 28.8342H62.7982C62.1939 28.8342 61.622 28.561 61.2423 28.0909L52.7414 17.5661C52.3617 17.096 51.7898 16.8228 51.1855 16.8228Z" fill="#242D35" stroke="#4F5B67" stroke-width="2"/>
<path d="M175.778 63.9451H48.9627C48.1018 63.9451 47.3385 64.4951 47.0621 65.3104C43.2611 76.5232 38.2281 89.1799 32.9135 104.366C24.2632 129.085 12.7541 129.085 10.0553 129.085H151.496C152.315 129.085 153.052 128.585 153.355 127.823L177.637 66.6833C178.159 65.3702 177.191 63.9451 175.778 63.9451Z" fill="#373F47" stroke="#4F5B67" stroke-width="2"/>
<path d="M141.687 15.7636L134.903 0.226734" stroke="#4F5B67" stroke-width="2" stroke-linecap="round"/>
<path d="M174.553 20.4404L161.3 25.8004" stroke="#4F5B67" stroke-width="2" stroke-linecap="round"/>
<path d="M156.079 16.8227L163.964 0.226889" stroke="#4F5B67" stroke-width="2" stroke-linecap="round"/>
<circle cx="79.3085" cy="84.9139" r="3.83728" fill="#0C1620"/>
<circle cx="133.068" cy="84.9139" r="3.83728" fill="#0C1620"/>
<path d="M81.549 111.75L100.674 111.75L119.8 111.75" stroke="#0C1620" stroke-width="2"/>
</g>
<defs>
<clipPath id="clip0_2604_68441">
<rect width="178" height="130" fill="white" transform="translate(0.713379)"/>
</clipPath>
</defs>
</svg>
