<svg width="16" height="15" viewBox="0 0 16 15" fill="none" xmlns="http://www.w3.org/2000/svg">
<path d="M1.66781 14.1729H14.2178C15.5011 14.1729 16.3011 12.7813 15.6595 11.6729L9.38448 0.83125C8.74281 -0.277083 7.14281 -0.277083 6.50114 0.83125L0.226143 11.6729C-0.415524 12.7813 0.384476 14.1729 1.66781 14.1729V14.1729ZM7.94281 8.33958C7.48448 8.33958 7.10948 7.96458 7.10948 7.50625V5.83958C7.10948 5.38125 7.48448 5.00625 7.94281 5.00625C8.40114 5.00625 8.77614 5.38125 8.77614 5.83958V7.50625C8.77614 7.96458 8.40114 8.33958 7.94281 8.33958ZM8.77614 11.6729H7.10948V10.0063H8.77614V11.6729Z" fill="#FBB03B"/>
</svg>
