<svg width="71" height="71" viewBox="0 0 71 71" fill="none" xmlns="http://www.w3.org/2000/svg">
<g filter="url(#filter0_b_1296_9766)">
<path d="M0.507143 35.4072C0.507143 16.1341 16.2235 0.507143 35.5 0.507143C54.7765 0.507143 70.4929 16.1341 70.4929 35.4072C70.4929 54.6802 54.7765 70.3072 35.5 70.3072C16.2235 70.3072 0.507143 54.6802 0.507143 35.4072Z" stroke="url(#paint0_radial_1296_9766)" stroke-width="1.01429"/>
<path d="M0.507143 35.4072C0.507143 16.1341 16.2235 0.507143 35.5 0.507143C54.7765 0.507143 70.4929 16.1341 70.4929 35.4072C70.4929 54.6802 54.7765 70.3072 35.5 70.3072C16.2235 70.3072 0.507143 54.6802 0.507143 35.4072Z" stroke="url(#paint1_radial_1296_9766)" stroke-width="1.01429"/>
<path d="M0.507143 35.4072C0.507143 16.1341 16.2235 0.507143 35.5 0.507143C54.7765 0.507143 70.4929 16.1341 70.4929 35.4072C70.4929 54.6802 54.7765 70.3072 35.5 70.3072C16.2235 70.3072 0.507143 54.6802 0.507143 35.4072Z" stroke="url(#paint2_radial_1296_9766)" stroke-width="1.01429"/>
</g>
<g clip-path="url(#clip0_1296_9766)">
<path d="M50.7152 28.2529H15.1361C13.9564 28.2529 13 29.2093 13 30.389V44.4012C13 45.5809 13.9564 46.5373 15.1361 46.5373H50.7152C51.895 46.5373 52.8513 45.5809 52.8513 44.4012V30.389C52.8513 29.2093 51.895 28.2529 50.7152 28.2529Z" fill="url(#paint3_linear_1296_9766)"/>
<path d="M55.7387 23.2295H20.1595C18.9798 23.2295 18.0234 24.1858 18.0234 25.3656V39.3777C18.0234 40.5575 18.9798 41.5138 20.1595 41.5138H55.7387C56.9184 41.5138 57.8748 40.5575 57.8748 39.3777V25.3656C57.8748 24.1858 56.9184 23.2295 55.7387 23.2295Z" fill="url(#paint4_linear_1296_9766)"/>
<path d="M55.7387 23.229H20.1595C18.9798 23.229 18.0234 24.1854 18.0234 25.3651V39.3772C18.0234 40.557 18.9798 41.5133 20.1595 41.5133H55.7387C56.9184 41.5133 57.8748 40.557 57.8748 39.3772V25.3651C57.8748 24.1854 56.9184 23.229 55.7387 23.229Z" fill="url(#paint5_linear_1296_9766)"/>
<g opacity="0.5">
<path d="M55.7387 23.23H20.1595C18.9798 23.23 18.0234 24.1863 18.0234 25.3661V39.3782C18.0234 40.5579 18.9798 41.5143 20.1595 41.5143H55.7387C56.9184 41.5143 57.8748 40.5579 57.8748 39.3782V25.3661C57.8748 24.1863 56.9184 23.23 55.7387 23.23Z" fill="url(#paint6_linear_1296_9766)"/>
</g>
<path d="M55.7387 23.229H20.1595C18.9798 23.229 18.0234 24.1854 18.0234 25.3651V39.3772C18.0234 40.557 18.9798 41.5133 20.1595 41.5133H55.7387C56.9184 41.5133 57.8748 40.557 57.8748 39.3772V25.3651C57.8748 24.1854 56.9184 23.229 55.7387 23.229Z" stroke="url(#paint7_linear_1296_9766)" stroke-width="0.245526" stroke-miterlimit="10"/>
<g opacity="0.5">
<path d="M55.7387 23.23H20.1595C18.9798 23.23 18.0234 24.1863 18.0234 25.3661V39.3782C18.0234 40.5579 18.9798 41.5143 20.1595 41.5143H55.7387C56.9184 41.5143 57.8748 40.5579 57.8748 39.3782V25.3661C57.8748 24.1863 56.9184 23.23 55.7387 23.23Z" stroke="white" stroke-width="0.245526" stroke-miterlimit="10"/>
</g>
<path d="M48.2652 31.0462H27.641C27.3175 31.0319 27.0121 30.8933 26.7882 30.6593C26.5644 30.4254 26.4395 30.1141 26.4395 29.7903C26.4395 29.4665 26.5644 29.1552 26.7882 28.9213C27.0121 28.6873 27.3175 28.5487 27.641 28.5344H48.2652C48.4348 28.5269 48.6041 28.5539 48.763 28.6136C48.9219 28.6733 49.0671 28.7646 49.1898 28.882C49.3124 28.9993 49.4101 29.1403 49.4768 29.2964C49.5434 29.4525 49.5778 29.6205 49.5778 29.7903C49.5778 29.9601 49.5434 30.1281 49.4768 30.2842C49.4101 30.4403 49.3124 30.5813 49.1898 30.6986C49.0671 30.816 48.9219 30.9073 48.763 30.967C48.6041 31.0267 48.4348 31.0537 48.2652 31.0462Z" fill="url(#paint8_linear_1296_9766)"/>
<g opacity="0.5">
<path d="M48.2652 31.0481H27.641C27.3175 31.0338 27.0121 30.8952 26.7882 30.6613C26.5644 30.4273 26.4395 30.116 26.4395 29.7922C26.4395 29.4685 26.5644 29.1572 26.7882 28.9232C27.0121 28.6893 27.3175 28.5507 27.641 28.5364H48.2652C48.4348 28.5289 48.6041 28.5558 48.763 28.6155C48.9219 28.6753 49.0671 28.7666 49.1898 28.8839C49.3124 29.0013 49.4101 29.1423 49.4768 29.2984C49.5434 29.4545 49.5778 29.6225 49.5778 29.7922C49.5778 29.962 49.5434 30.13 49.4768 30.2861C49.4101 30.4422 49.3124 30.5832 49.1898 30.7006C49.0671 30.8179 48.9219 30.9092 48.763 30.969C48.6041 31.0287 48.4348 31.0556 48.2652 31.0481Z" fill="white"/>
</g>
<path d="M35.7114 36.208H27.641C27.3175 36.1937 27.0121 36.0552 26.7882 35.8212C26.5644 35.5872 26.4395 35.2759 26.4395 34.9522C26.4395 34.6284 26.5644 34.3171 26.7882 34.0831C27.0121 33.8492 27.3175 33.7106 27.641 33.6963H35.7237C36.0472 33.7106 36.3527 33.8492 36.5765 34.0831C36.8003 34.3171 36.9253 34.6284 36.9253 34.9522C36.9253 35.2759 36.8003 35.5872 36.5765 35.8212C36.3527 36.0552 36.0472 36.1937 35.7237 36.208H35.7114Z" fill="url(#paint9_linear_1296_9766)"/>
<g opacity="0.5">
<path d="M35.7114 36.207H27.641C27.3175 36.1927 27.0121 36.0542 26.7882 35.8202C26.5644 35.5863 26.4395 35.275 26.4395 34.9512C26.4395 34.6274 26.5644 34.3161 26.7882 34.0821C27.0121 33.8482 27.3175 33.7096 27.641 33.6953H35.7237C36.0472 33.7096 36.3527 33.8482 36.5765 34.0821C36.8003 34.3161 36.9253 34.6274 36.9253 34.9512C36.9253 35.275 36.8003 35.5863 36.5765 35.8202C36.3527 36.0542 36.0472 36.1927 35.7237 36.207H35.7114Z" fill="white"/>
</g>
</g>
<defs>
<filter id="filter0_b_1296_9766" x="-5.07143" y="-5.07143" width="81.1429" height="80.9573" filterUnits="userSpaceOnUse" color-interpolation-filters="sRGB">
<feFlood flood-opacity="0" result="BackgroundImageFix"/>
<feGaussianBlur in="BackgroundImage" stdDeviation="2.53571"/>
<feComposite in2="SourceAlpha" operator="in" result="effect1_backgroundBlur_1296_9766"/>
<feBlend mode="normal" in="SourceGraphic" in2="effect1_backgroundBlur_1296_9766" result="shape"/>
</filter>
<radialGradient id="paint0_radial_1296_9766" cx="0" cy="0" r="1" gradientUnits="userSpaceOnUse" gradientTransform="translate(-37.8044 7.24449) rotate(35.0407) scale(81.7842 48.2695)">
<stop stop-color="white"/>
<stop offset="1" stop-color="white" stop-opacity="0.06"/>
</radialGradient>
<radialGradient id="paint1_radial_1296_9766" cx="0" cy="0" r="1" gradientUnits="userSpaceOnUse" gradientTransform="translate(91.7861 47.3932) rotate(161.385) scale(59.323 40.0959)">
<stop stop-color="#9DEDF9"/>
<stop offset="1" stop-color="#568DFB" stop-opacity="0.12"/>
</radialGradient>
<radialGradient id="paint2_radial_1296_9766" cx="0" cy="0" r="1" gradientUnits="userSpaceOnUse" gradientTransform="translate(36.273 -16.1844) rotate(47.2149) scale(39.6207 28.478)">
<stop/>
<stop offset="1" stop-color="white" stop-opacity="0"/>
</radialGradient>
<linearGradient id="paint3_linear_1296_9766" x1="26.1626" y1="22.8906" x2="39.6911" y2="51.902" gradientUnits="userSpaceOnUse">
<stop stop-color="#B0FFF9"/>
<stop offset="0.4" stop-color="#4DA3FB"/>
<stop offset="0.69" stop-color="#7745FF"/>
<stop offset="0.87" stop-color="#8A38F7"/>
<stop offset="1" stop-color="#9B2CF0"/>
</linearGradient>
<linearGradient id="paint4_linear_1296_9766" x1="31.1861" y1="17.8672" x2="44.7146" y2="46.8786" gradientUnits="userSpaceOnUse">
<stop stop-color="white" stop-opacity="0.6"/>
<stop offset="0.25" stop-color="white" stop-opacity="0.39"/>
<stop offset="0.52" stop-color="white" stop-opacity="0.18"/>
<stop offset="0.72" stop-color="white" stop-opacity="0.05"/>
<stop offset="0.83" stop-color="white" stop-opacity="0"/>
</linearGradient>
<linearGradient id="paint5_linear_1296_9766" x1="31.1861" y1="17.8667" x2="44.7146" y2="46.8781" gradientUnits="userSpaceOnUse">
<stop stop-color="white" stop-opacity="0.6"/>
<stop offset="0.25" stop-color="white" stop-opacity="0.39"/>
<stop offset="0.52" stop-color="white" stop-opacity="0.18"/>
<stop offset="0.72" stop-color="white" stop-opacity="0.05"/>
<stop offset="0.83" stop-color="white" stop-opacity="0"/>
</linearGradient>
<linearGradient id="paint6_linear_1296_9766" x1="37.9325" y1="41.5143" x2="37.9325" y2="23.23" gradientUnits="userSpaceOnUse">
<stop stop-color="white" stop-opacity="0"/>
<stop offset="1" stop-color="white" stop-opacity="0.8"/>
</linearGradient>
<linearGradient id="paint7_linear_1296_9766" x1="31.1861" y1="17.8667" x2="44.7146" y2="46.8781" gradientUnits="userSpaceOnUse">
<stop stop-color="white"/>
<stop offset="0.22" stop-color="#F1F4FF"/>
<stop offset="0.64" stop-color="#CED9FF"/>
<stop offset="1" stop-color="#AABDFF"/>
</linearGradient>
<linearGradient id="paint8_linear_1296_9766" x1="35.5764" y1="24.6993" x2="40.3249" y2="34.8813" gradientUnits="userSpaceOnUse">
<stop stop-color="white"/>
<stop offset="0.22" stop-color="#F1F4FF"/>
<stop offset="0.64" stop-color="#CED9FF"/>
<stop offset="1" stop-color="#AABDFF"/>
</linearGradient>
<linearGradient id="paint9_linear_1296_9766" x1="30.4179" y1="32.2649" x2="32.9223" y2="37.637" gradientUnits="userSpaceOnUse">
<stop stop-color="white"/>
<stop offset="0.22" stop-color="#F1F4FF"/>
<stop offset="0.64" stop-color="#CED9FF"/>
<stop offset="1" stop-color="#AABDFF"/>
</linearGradient>
<clipPath id="clip0_1296_9766">
<rect width="45" height="23.433" fill="white" transform="translate(13 23.1064)"/>
</clipPath>
</defs>
</svg>
