<svg width="47" height="47" viewBox="0 0 47 47" fill="none" xmlns="http://www.w3.org/2000/svg">
<circle cx="23.5" cy="23.5679" r="23" fill="#D9D9D9"/>
<path d="M35.9857 29.8078C35.5869 33.0219 32.9528 35.6561 29.7386 36.0548C27.7932 36.2965 25.9807 35.7648 24.5669 34.7257C23.7574 34.1336 23.9507 32.8769 24.9174 32.5869C28.5544 31.4873 31.4182 28.6115 32.5299 24.9744C32.8199 24.0198 34.0765 23.8265 34.6686 24.624C35.6957 26.0498 36.2274 27.8623 35.9857 29.8078Z" fill="#323232"/>
<path d="M21.5706 11.9844C16.2418 11.9844 11.916 16.3102 11.916 21.639C11.916 26.9677 16.2418 31.2935 21.5706 31.2935C26.8993 31.2935 31.2252 26.9677 31.2252 21.639C31.2131 16.3102 26.8993 11.9844 21.5706 11.9844ZM20.4348 20.2856L23.3468 21.3006C24.3981 21.6752 24.9056 22.4123 24.9056 23.5481C24.9056 24.8531 23.8664 25.9285 22.5977 25.9285H22.4889V25.989C22.4889 26.4844 22.0781 26.8952 21.5827 26.8952C21.0873 26.8952 20.6764 26.4844 20.6764 25.989V25.9165C19.3352 25.856 18.2598 24.7323 18.2598 23.3306C18.2598 22.8352 18.6706 22.4244 19.166 22.4244C19.6614 22.4244 20.0723 22.8352 20.0723 23.3306C20.0723 23.7656 20.3864 24.116 20.7731 24.116H22.5856C22.8635 24.116 23.081 23.8623 23.081 23.5481C23.081 23.1252 23.0085 23.101 22.7306 23.0044L19.8185 21.9894C18.7793 21.6269 18.2598 20.8898 18.2598 19.7419C18.2598 18.4369 19.2989 17.3615 20.5677 17.3615H20.6764V17.3131C20.6764 16.8177 21.0873 16.4069 21.5827 16.4069C22.0781 16.4069 22.4889 16.8177 22.4889 17.3131V17.3856C23.8302 17.446 24.9056 18.5698 24.9056 19.9715C24.9056 20.4669 24.4948 20.8777 23.9993 20.8777C23.5039 20.8777 23.0931 20.4669 23.0931 19.9715C23.0931 19.5365 22.7789 19.186 22.3923 19.186H20.5798C20.3018 19.186 20.0843 19.4398 20.0843 19.754C20.0723 20.1648 20.1448 20.189 20.4348 20.2856Z" fill="#323232"/>
</svg>
