<svg width="24" height="25" viewBox="0 0 24 25" fill="none" xmlns="http://www.w3.org/2000/svg">
<g clip-path="url(#clip0_455_26363)">
<path d="M11 18.9941H13C13.55 18.9941 14 18.5441 14 17.9941C14 17.4441 13.55 16.9941 13 16.9941H11C10.45 16.9941 10 17.4441 10 17.9941C10 18.5441 10.45 18.9941 11 18.9941ZM3 7.99414C3 8.54414 3.45 8.99414 4 8.99414H20C20.55 8.99414 21 8.54414 21 7.99414C21 7.44414 20.55 6.99414 20 6.99414H4C3.45 6.99414 3 7.44414 3 7.99414ZM7 13.9941H17C17.55 13.9941 18 13.5441 18 12.9941C18 12.4441 17.55 11.9941 17 11.9941H7C6.45 11.9941 6 12.4441 6 12.9941C6 13.5441 6.45 13.9941 7 13.9941Z" fill="white"/>
</g>
<defs>
<clipPath id="clip0_455_26363">
<rect width="24" height="24" fill="white" transform="translate(0 0.994141)"/>
</clipPath>
</defs>
</svg>
