<svg width="47" height="47" viewBox="0 0 47 47" fill="none" xmlns="http://www.w3.org/2000/svg">
<circle cx="23.5" cy="23.5679" r="23" fill="#D9D9D9"/>
<g clip-path="url(#clip0_657_39960)">
<path d="M13.5 32.5678H23.5C24.05 32.5678 24.5 33.0178 24.5 33.5678C24.5 34.1178 24.05 34.5678 23.5 34.5678H13.5C12.95 34.5678 12.5 34.1178 12.5 33.5678C12.5 33.0178 12.95 32.5678 13.5 32.5678ZM16.74 19.6378L19.57 16.8078L32.3 29.5378C33.08 30.3178 33.08 31.5878 32.3 32.3678C31.52 33.1478 30.25 33.1478 29.47 32.3678L16.74 19.6378ZM25.23 13.9778L28.06 16.8078C28.84 17.5878 28.84 18.8578 28.06 19.6378L26.64 21.0578L20.99 15.3978L22.4 13.9878C23.18 13.1978 24.45 13.1978 25.23 13.9778ZM15.33 21.0478L20.99 26.7078L19.58 28.1178C18.8 28.8978 17.53 28.8978 16.75 28.1178L13.92 25.2878C13.14 24.5078 13.14 23.2378 13.92 22.4578L15.33 21.0478Z" fill="#323232"/>
</g>
<defs>
<clipPath id="clip0_657_39960">
<rect width="24" height="24" fill="white" transform="translate(11.5 11.5679)"/>
</clipPath>
</defs>
</svg>
