<svg width="71" height="71" viewBox="0 0 71 71" fill="none" xmlns="http://www.w3.org/2000/svg">
<g filter="url(#filter0_b_1296_9708)">
<path d="M0.507143 35.4072C0.507143 16.1341 16.2235 0.507143 35.5 0.507143C54.7765 0.507143 70.4929 16.1341 70.4929 35.4072C70.4929 54.6802 54.7765 70.3072 35.5 70.3072C16.2235 70.3072 0.507143 54.6802 0.507143 35.4072Z" stroke="url(#paint0_radial_1296_9708)" stroke-width="1.01429"/>
<path d="M0.507143 35.4072C0.507143 16.1341 16.2235 0.507143 35.5 0.507143C54.7765 0.507143 70.4929 16.1341 70.4929 35.4072C70.4929 54.6802 54.7765 70.3072 35.5 70.3072C16.2235 70.3072 0.507143 54.6802 0.507143 35.4072Z" stroke="url(#paint1_radial_1296_9708)" stroke-width="1.01429"/>
<path d="M0.507143 35.4072C0.507143 16.1341 16.2235 0.507143 35.5 0.507143C54.7765 0.507143 70.4929 16.1341 70.4929 35.4072C70.4929 54.6802 54.7765 70.3072 35.5 70.3072C16.2235 70.3072 0.507143 54.6802 0.507143 35.4072Z" stroke="url(#paint2_radial_1296_9708)" stroke-width="1.01429"/>
</g>
<path d="M44.3942 16.1064H24.5308C23.3294 16.1071 22.1773 16.5847 21.3278 17.4342C20.4782 18.2838 20.0007 19.4358 20 20.6372V47.5931C20.0007 48.7945 20.4782 49.9465 21.3278 50.7961C22.1773 51.6456 23.3294 52.1232 24.5308 52.1239H44.3942C45.5958 52.1232 46.7481 51.6457 47.5981 50.7962C48.448 49.9468 48.9261 48.7947 48.9275 47.5931V20.6323C48.9248 19.4315 48.4461 18.2807 47.5963 17.4323C46.7465 16.5839 45.595 16.1071 44.3942 16.1064ZM48.574 47.5931C48.574 48.7016 48.1336 49.7648 47.3497 50.5486C46.5659 51.3325 45.5027 51.7729 44.3942 51.7729H24.5308C23.4223 51.7729 22.3591 51.3325 21.5752 50.5486C20.7914 49.7648 20.351 48.7016 20.351 47.5931V20.6323C20.351 19.5237 20.7914 18.4606 21.5752 17.6767C22.3591 16.8928 23.4223 16.4525 24.5308 16.4525H44.3942C45.5027 16.4525 46.5659 16.8928 47.3497 17.6767C48.1336 18.4606 48.574 19.5237 48.574 20.6323V47.5931Z" fill="url(#paint3_linear_1296_9708)"/>
<path opacity="0.3" d="M44.3928 16.4565H24.5294C22.221 16.4565 20.3496 18.3279 20.3496 20.6363V47.5897C20.3496 49.8981 22.221 51.7695 24.5294 51.7695H44.3928C46.7012 51.7695 48.5726 49.8981 48.5726 47.5897V20.6363C48.5726 18.3279 46.7012 16.4565 44.3928 16.4565Z" fill="url(#paint4_linear_1296_9708)"/>
<path d="M42.9652 24.2056H26.6668C26.4708 24.2055 26.2827 24.2825 26.143 24.4199C26.0033 24.5573 25.9232 24.7441 25.9199 24.94C25.9199 25.138 25.9986 25.328 26.1387 25.4681C26.2787 25.6081 26.4687 25.6868 26.6668 25.6868H42.9652C43.1633 25.6868 43.3532 25.6081 43.4933 25.4681C43.6334 25.328 43.7121 25.138 43.7121 24.94C43.7088 24.7441 43.6287 24.5573 43.489 24.4199C43.3492 24.2825 43.1612 24.2055 42.9652 24.2056Z" fill="url(#paint5_linear_1296_9708)"/>
<path d="M32.9002 34.4668H26.6765C26.4806 34.4668 26.2925 34.5437 26.1528 34.6811C26.0131 34.8185 25.933 35.0053 25.9297 35.2012C25.9297 35.3993 26.0084 35.5892 26.1484 35.7293C26.2885 35.8693 26.4785 35.948 26.6765 35.948H32.9002C33.0982 35.948 33.2882 35.8693 33.4282 35.7293C33.5683 35.5892 33.647 35.3993 33.647 35.2012C33.6437 35.0053 33.5636 34.8185 33.4239 34.6811C33.2842 34.5437 33.0961 34.4668 32.9002 34.4668Z" fill="url(#paint6_linear_1296_9708)"/>
<path d="M36.6398 29.145H26.9558C26.7599 29.145 26.5718 29.222 26.4321 29.3593C26.2924 29.4967 26.2122 29.6835 26.209 29.8794C26.209 30.0775 26.2877 30.2674 26.4277 30.4075C26.5678 30.5476 26.7577 30.6262 26.9558 30.6262H36.6398C36.8357 30.623 37.0225 30.5429 37.1599 30.4032C37.2972 30.2634 37.3742 30.0753 37.3742 29.8794C37.371 29.6856 37.2926 29.5007 37.1555 29.3637C37.0185 29.2266 36.8336 29.1482 36.6398 29.145Z" fill="url(#paint7_linear_1296_9708)"/>
<path d="M32.4348 39.4048H26.6668C26.4708 39.4048 26.2827 39.4817 26.143 39.6191C26.0033 39.7565 25.9232 39.9433 25.9199 40.1392C25.9232 40.3351 26.0033 40.5219 26.143 40.6592C26.2827 40.7966 26.4708 40.8736 26.6668 40.8736H32.4348C32.6308 40.8736 32.8189 40.7966 32.9586 40.6592C33.0983 40.5219 33.1784 40.3351 33.1817 40.1392C33.1784 39.9433 33.0983 39.7565 32.9586 39.6191C32.8189 39.4817 32.6308 39.4048 32.4348 39.4048Z" fill="url(#paint8_linear_1296_9708)"/>
<path d="M56.6631 46.368C59.5713 42.0983 58.4676 36.2795 54.1979 33.3714C49.9283 30.4632 44.1095 31.5668 41.2013 35.8365C38.2931 40.1061 39.3968 45.9249 43.6664 48.8331C47.9361 51.7413 53.7549 50.6376 56.6631 46.368Z" fill="url(#paint9_linear_1296_9708)"/>
<g style="mix-blend-mode:overlay">
<path d="M50.0409 44.6682V46.0802H48.8133V44.6592C47.9634 44.5459 47.1601 44.2048 46.4883 43.6721L47.1427 42.3523C47.8081 42.9254 48.8133 43.3304 49.4931 43.3304C49.9902 43.3304 50.3048 43.1496 50.3048 42.8043C50.3048 41.7069 46.9005 42.3704 46.9005 40.0833C46.9005 39.0582 47.6381 38.3477 48.8187 38.1543V36.7983H50.0463V38.1452C50.7636 38.2207 51.4546 38.4574 52.0675 38.8377L51.4293 40.1755C50.7477 39.7868 49.8799 39.4831 49.3448 39.4831C48.938 39.4831 48.6704 39.6314 48.6704 39.926C48.6704 40.9963 52.0766 40.3871 52.0766 42.7121C52.0712 43.8474 51.2033 44.5218 50.0409 44.6682Z" fill="white"/>
</g>
<path d="M46.7275 54.4398C49.6357 50.1701 48.532 44.3513 44.2624 41.4431C39.9927 38.5349 34.1739 39.6386 31.2657 43.9083C28.3576 48.1779 29.4612 53.9967 33.7309 56.9049C38.0005 59.8131 43.8193 58.7094 46.7275 54.4398Z" fill="url(#paint10_linear_1296_9708)"/>
<g style="mix-blend-mode:overlay">
<path d="M42.1438 50.5399C42.1571 50.174 42.037 49.8158 41.8059 49.5318C41.5749 49.2479 41.2485 49.0575 40.8876 48.9962C41.1881 48.9279 41.4563 48.7592 41.648 48.5179C41.8397 48.2766 41.9435 47.9772 41.9422 47.6691C41.9422 46.8571 41.287 46.299 40.2175 46.1609V44.8711H39.2226V46.1254H38.7242V44.8711H37.7293V46.1254H35.9355V47.3723H36.7718V50.9934H35.9374V52.2403H37.7312V53.4349H38.7261V52.2403H39.2244V53.4349H40.2193V52.2179C41.4065 52.1003 42.1438 51.4788 42.1438 50.5399ZM40.3033 47.9491C40.3033 48.3336 40.0327 48.5594 39.5884 48.5594H38.3658V47.3742H39.5884C40.0327 47.3648 40.3033 47.5832 40.3033 47.9491ZM39.5884 51.0028H38.3658V49.7204H39.5884C40.1484 49.7111 40.4956 49.9556 40.4956 50.3401C40.5049 50.7583 40.1465 51.0028 39.5884 51.0028Z" fill="white"/>
</g>
<defs>
<filter id="filter0_b_1296_9708" x="-5.07143" y="-5.07143" width="81.1429" height="80.9573" filterUnits="userSpaceOnUse" color-interpolation-filters="sRGB">
<feFlood flood-opacity="0" result="BackgroundImageFix"/>
<feGaussianBlur in="BackgroundImage" stdDeviation="2.53571"/>
<feComposite in2="SourceAlpha" operator="in" result="effect1_backgroundBlur_1296_9708"/>
<feBlend mode="normal" in="SourceGraphic" in2="effect1_backgroundBlur_1296_9708" result="shape"/>
</filter>
<radialGradient id="paint0_radial_1296_9708" cx="0" cy="0" r="1" gradientUnits="userSpaceOnUse" gradientTransform="translate(-37.8044 7.24449) rotate(35.0407) scale(81.7842 48.2695)">
<stop stop-color="white"/>
<stop offset="1" stop-color="white" stop-opacity="0.06"/>
</radialGradient>
<radialGradient id="paint1_radial_1296_9708" cx="0" cy="0" r="1" gradientUnits="userSpaceOnUse" gradientTransform="translate(91.7861 47.3932) rotate(161.385) scale(59.323 40.0959)">
<stop stop-color="#11EFC4"/>
<stop offset="1" stop-color="#0D8F76" stop-opacity="0.12"/>
</radialGradient>
<radialGradient id="paint2_radial_1296_9708" cx="0" cy="0" r="1" gradientUnits="userSpaceOnUse" gradientTransform="translate(36.273 -16.1844) rotate(47.2149) scale(39.6207 28.478)">
<stop/>
<stop offset="1" stop-color="white" stop-opacity="0"/>
</radialGradient>
<linearGradient id="paint3_linear_1296_9708" x1="34.4637" y1="16.1064" x2="34.4637" y2="52.1239" gradientUnits="userSpaceOnUse">
<stop stop-color="white"/>
<stop offset="1" stop-color="white" stop-opacity="0.37"/>
</linearGradient>
<linearGradient id="paint4_linear_1296_9708" x1="34.46" y1="16.4565" x2="34.46" y2="51.7695" gradientUnits="userSpaceOnUse">
<stop stop-color="white" stop-opacity="0.9"/>
<stop offset="0.01" stop-color="white" stop-opacity="0.84"/>
<stop offset="0.03" stop-color="white" stop-opacity="0.73"/>
<stop offset="0.05" stop-color="white" stop-opacity="0.65"/>
<stop offset="0.08" stop-color="white" stop-opacity="0.58"/>
<stop offset="0.11" stop-color="white" stop-opacity="0.53"/>
<stop offset="0.16" stop-color="white" stop-opacity="0.51"/>
<stop offset="0.28" stop-color="white" stop-opacity="0.5"/>
<stop offset="0.46" stop-color="#FEFEFE" stop-opacity="0.48"/>
<stop offset="0.67" stop-color="#FAFAFA" stop-opacity="0.43"/>
<stop offset="0.89" stop-color="#F3F3F3" stop-opacity="0.35"/>
<stop offset="1" stop-color="#EFEFEF" stop-opacity="0.3"/>
</linearGradient>
<linearGradient id="paint5_linear_1296_9708" x1="34.816" y1="24.2056" x2="34.816" y2="25.6868" gradientUnits="userSpaceOnUse">
<stop stop-color="white"/>
<stop offset="1" stop-color="white" stop-opacity="0.37"/>
</linearGradient>
<linearGradient id="paint6_linear_1296_9708" x1="29.7883" y1="34.4668" x2="29.7883" y2="35.948" gradientUnits="userSpaceOnUse">
<stop stop-color="white"/>
<stop offset="1" stop-color="white" stop-opacity="0.37"/>
</linearGradient>
<linearGradient id="paint7_linear_1296_9708" x1="31.7916" y1="29.145" x2="31.7916" y2="30.6262" gradientUnits="userSpaceOnUse">
<stop stop-color="white"/>
<stop offset="1" stop-color="white" stop-opacity="0.37"/>
</linearGradient>
<linearGradient id="paint8_linear_1296_9708" x1="29.5508" y1="39.4048" x2="29.5508" y2="40.8736" gradientUnits="userSpaceOnUse">
<stop stop-color="white"/>
<stop offset="1" stop-color="white" stop-opacity="0.37"/>
</linearGradient>
<linearGradient id="paint9_linear_1296_9708" x1="43.6139" y1="42.1211" x2="55.8314" y2="39.8102" gradientUnits="userSpaceOnUse">
<stop stop-color="#5625CA"/>
<stop offset="0.47" stop-color="#3F8DE5"/>
<stop offset="1" stop-color="#11EFC4"/>
</linearGradient>
<linearGradient id="paint10_linear_1296_9708" x1="33.6784" y1="50.1928" x2="45.8959" y2="47.882" gradientUnits="userSpaceOnUse">
<stop stop-color="#5625CA"/>
<stop offset="0.47" stop-color="#3F8DE5"/>
<stop offset="1" stop-color="#11EFC4"/>
</linearGradient>
</defs>
</svg>
