<svg width="71" height="71" viewBox="0 0 71 71" fill="none" xmlns="http://www.w3.org/2000/svg">
<g filter="url(#filter0_b_1296_9729)">
<path d="M0.507143 35.4072C0.507143 16.1341 16.2235 0.507143 35.5 0.507143C54.7765 0.507143 70.4929 16.1341 70.4929 35.4072C70.4929 54.6802 54.7765 70.3072 35.5 70.3072C16.2235 70.3072 0.507143 54.6802 0.507143 35.4072Z" stroke="url(#paint0_radial_1296_9729)" stroke-width="1.01429"/>
<path d="M0.507143 35.4072C0.507143 16.1341 16.2235 0.507143 35.5 0.507143C54.7765 0.507143 70.4929 16.1341 70.4929 35.4072C70.4929 54.6802 54.7765 70.3072 35.5 70.3072C16.2235 70.3072 0.507143 54.6802 0.507143 35.4072Z" stroke="url(#paint1_radial_1296_9729)" stroke-opacity="0.2" stroke-width="1.01429"/>
</g>
<path d="M27.418 57.5127C27.092 57.3794 19.401 54.1637 15.7763 44.727C12.205 35.4267 13.515 29.1761 13.5713 28.9153L13.8173 27.8039L14.9435 27.6261C15.3822 27.552 16.8048 27.1815 17.4894 26.4643C17.9451 26.0207 18.3078 25.4907 18.5564 24.9053L18.7905 23.542L20.1775 23.6398H37.323L37.5423 24.9024C37.7883 25.49 38.1513 26.0214 38.6092 26.4643C39.3176 27.2052 40.7965 27.5698 41.1521 27.6261L42.2784 27.8039L42.5244 28.9153C42.5807 29.1761 43.8907 35.4356 40.3193 44.727C36.6857 54.1844 28.9977 57.3823 28.6717 57.5127L28.0434 57.7676L27.418 57.5127Z" fill="url(#paint2_linear_1296_9729)"/>
<path d="M41.6133 48.9698C41.2873 48.8364 33.5963 45.6207 29.9717 36.1841C26.4003 26.8837 27.7103 20.6332 27.7666 20.3723L28.0126 19.2609L29.1388 19.0831C29.5775 19.009 31.0001 18.6385 31.6847 17.9213C32.1404 17.4777 32.5031 16.9477 32.7517 16.3624L32.9858 14.999L34.3728 15.0968H51.5183L51.7376 16.3594C51.9837 16.947 52.3467 17.4784 52.8045 17.9213C53.5129 18.6622 54.9918 19.0268 55.3475 19.0831L56.4737 19.2609L56.7197 20.3723C56.776 20.6332 58.086 26.8926 54.5146 36.1841C50.8811 45.6415 43.193 48.8394 42.867 48.9698L42.2387 49.2247L41.6133 48.9698Z" fill="url(#paint3_linear_1296_9729)"/>
<path d="M18.7938 23.5405L20.1809 23.6384H37.3263L37.5456 24.9009C37.7917 25.4885 38.1547 26.0199 38.6126 26.4628C39.3209 27.2038 40.7998 27.5683 41.1555 27.6246L42.2817 27.8025L42.5277 28.9139C42.584 29.1747 43.894 35.4342 40.3227 44.7256C36.6891 54.183 29.0011 57.3809 28.675 57.5113L28.0467 57.7662L27.4214 57.5113C27.0954 57.3779 19.4044 54.1622 15.7797 44.7256C12.2083 35.4253 13.5183 29.1747 13.5746 28.9139L13.8206 27.8025L14.9469 27.6246C15.3855 27.5505 16.8081 27.1801 17.4927 26.4628C17.9484 26.0192 18.3111 25.4893 18.5597 24.9039L18.7938 23.5405ZM18.7938 23.2442C18.7232 23.2431 18.6546 23.2674 18.6002 23.3125C18.5459 23.3576 18.5095 23.4206 18.4975 23.4902L18.2663 24.8268C18.0276 25.3625 17.6897 25.8482 17.2705 26.2583C16.6777 26.8689 15.4181 27.2453 14.8994 27.3312L13.7762 27.509C13.7169 27.5178 13.6617 27.5442 13.6178 27.585C13.5739 27.6257 13.5433 27.6788 13.5302 27.7372L13.2871 28.8516C13.2279 29.1154 11.9001 35.4519 15.504 44.8323C19.1732 54.3845 26.9768 57.6506 27.3087 57.784L27.9371 58.0418C27.9722 58.0546 28.0093 58.0617 28.0467 58.0625C28.0851 58.0617 28.1231 58.0547 28.1593 58.0418L28.7847 57.7869C29.1166 57.6536 36.9232 54.4053 40.6013 44.8323C44.2022 35.4519 42.8745 29.1243 42.8152 28.8516L42.5722 27.7372C42.5592 27.6792 42.5291 27.6264 42.4858 27.5857C42.4424 27.545 42.3879 27.5183 42.3291 27.509L41.2029 27.3312C40.8858 27.2808 39.4691 26.9341 38.8319 26.2583C38.4109 25.8492 38.0736 25.362 37.839 24.8239L37.6227 23.588C37.6107 23.5184 37.5742 23.4554 37.5199 23.4103C37.4655 23.3652 37.3969 23.341 37.3263 23.342H20.1898L18.8146 23.2471L18.7938 23.2442Z" fill="url(#paint4_linear_1296_9729)"/>
<g style="mix-blend-mode:soft-light">
<path d="M14.0446 29.2828L14.2817 28.204L15.3724 28.0321C15.7962 27.9639 17.1714 27.6024 17.8323 26.9118C18.275 26.4831 18.6259 25.9688 18.8637 25.4003L19.0949 24.0844L20.4345 24.1762H37.0168L37.2302 25.4003C37.4677 25.9681 37.8186 26.4815 38.2616 26.9088C38.9462 27.629 40.3777 27.9788 40.7245 28.0321L41.8122 28.204L42.0493 29.2828C42.0967 29.4903 42.968 34.8755 41.3083 41.8285C43.6201 34.1493 42.5739 29.1494 42.5235 28.9153L42.2775 27.8039L41.1513 27.6261C40.7956 27.5698 39.3167 27.2052 38.6083 26.4643C38.1505 26.0214 37.7875 25.49 37.5414 24.9024L37.3221 23.6398H20.1766L18.7896 23.542L18.5555 24.9053C18.3069 25.4907 17.9442 26.0207 17.4885 26.4643C16.8039 27.1815 15.3813 27.552 14.9426 27.6261L13.8164 27.8039L13.5704 28.9153C13.52 29.1494 12.4738 34.1493 14.7855 41.8285C13.1258 34.8755 14.0001 29.4903 14.0446 29.2828Z" fill="white"/>
</g>
<path d="M40.8938 29.2741C40.8938 29.2741 38.6443 28.9214 37.4025 27.6174C36.1607 26.3133 35.9206 25.3086 35.9206 25.3086H20.18C20.18 25.3086 19.9429 26.3163 18.6981 27.6174C17.4533 28.9185 15.2068 29.2741 15.2068 29.2741C15.2068 29.2741 13.9057 35.2017 17.3378 44.1285C20.752 53.0198 27.9718 55.9332 28.0488 55.9658C28.0488 55.9658 35.3486 53.0169 38.7629 44.1285C42.1979 35.1898 40.8938 29.2741 40.8938 29.2741Z" stroke="white" stroke-width="0.296377" stroke-linecap="round" stroke-linejoin="round"/>
<path d="M27.3803 45.2178C27.0898 45.2185 26.8108 45.1046 26.6038 44.9007L22.5345 40.9381C22.4296 40.836 22.3458 40.7142 22.2879 40.5797C22.2301 40.4451 22.1993 40.3005 22.1974 40.1541C22.1954 40.0076 22.2224 39.8622 22.2767 39.7262C22.331 39.5902 22.4116 39.4662 22.5138 39.3614C22.7203 39.1507 23.002 39.0305 23.297 39.0272C23.592 39.0239 23.8763 39.1376 24.0876 39.3436L27.164 42.3548L33.2397 32.5744C33.3962 32.3238 33.6456 32.1453 33.9333 32.0781C34.221 32.0109 34.5236 32.0604 34.7749 32.2158C35.0257 32.3722 35.204 32.6218 35.2707 32.9097C35.3374 33.1976 35.287 33.5002 35.1306 33.751L28.3139 44.6932C28.226 44.8349 28.1074 44.9551 27.9668 45.0449C27.8263 45.1346 27.6674 45.1917 27.5018 45.2119C27.4615 45.2163 27.4209 45.2183 27.3803 45.2178Z" fill="white"/>
<g style="mix-blend-mode:overlay">
<path d="M18.7198 24.3923C16.746 22.4184 15.3056 20.652 15.5071 20.4505C15.7086 20.2489 17.4721 21.6893 19.4489 23.6632C21.4257 25.6371 22.8632 27.4035 22.6616 27.605C22.4601 27.8065 20.6967 26.3691 18.7198 24.3923Z" fill="url(#paint5_radial_1296_9729)"/>
<path style="mix-blend-mode:hard-light" d="M18.962 24.1547C18.5945 23.7843 18.3515 23.4286 18.4197 23.3575C18.4878 23.2863 18.8464 23.5323 19.2169 23.8998C19.5874 24.2674 19.8275 24.626 19.7593 24.6971C19.6911 24.7682 19.3325 24.5222 18.962 24.1547Z" fill="url(#paint6_radial_1296_9729)"/>
<path d="M19.4908 24.4366C17.5584 26.369 15.8098 27.7531 15.5846 27.5278C15.3593 27.3026 16.7434 25.554 18.6758 23.6216C20.6082 21.6892 22.3597 20.3021 22.585 20.5274C22.8102 20.7526 21.4262 22.4983 19.4908 24.4366Z" fill="url(#paint7_radial_1296_9729)"/>
<path style="mix-blend-mode:hard-light" d="M19.2318 24.1701C18.8613 24.5376 18.4997 24.7628 18.4197 24.6976C18.3397 24.6324 18.5797 24.256 18.9473 23.8855C19.3148 23.5151 19.6793 23.2928 19.7593 23.358C19.8394 23.4232 19.5993 23.7996 19.2318 24.1701Z" fill="url(#paint8_radial_1296_9729)"/>
<g opacity="0.5">
<path d="M18.7198 24.3928C16.746 22.4189 15.3056 20.6525 15.5071 20.4509C15.7086 20.2494 17.4721 21.6898 19.4489 23.6637C21.4257 25.6375 22.8632 27.404 22.6616 27.6055C22.4601 27.807 20.6967 26.3696 18.7198 24.3928Z" fill="url(#paint9_radial_1296_9729)"/>
<path style="mix-blend-mode:hard-light" d="M18.9562 24.1552C18.5887 23.7847 18.3456 23.4291 18.4138 23.358C18.482 23.2868 18.8406 23.5328 19.2111 23.9003C19.5815 24.2678 19.8216 24.6265 19.7534 24.6976C19.6853 24.7687 19.3266 24.5227 18.9562 24.1552Z" fill="url(#paint10_radial_1296_9729)"/>
<path d="M19.4908 24.4371C17.5584 26.3695 15.8098 27.7536 15.5846 27.5283C15.3593 27.3031 16.7434 25.5544 18.6758 23.6221C20.6082 21.6897 22.3597 20.3026 22.585 20.5279C22.8102 20.7531 21.4262 22.4988 19.4908 24.4371Z" fill="url(#paint11_radial_1296_9729)"/>
<path style="mix-blend-mode:hard-light" d="M19.2298 24.1706C18.8593 24.5381 18.4978 24.7633 18.4177 24.6981C18.3377 24.6329 18.5778 24.2565 18.9453 23.886C19.3128 23.5156 19.6774 23.2933 19.7574 23.3585C19.8374 23.4237 19.5973 23.8001 19.2298 24.1706Z" fill="url(#paint12_radial_1296_9729)"/>
</g>
</g>
<g style="mix-blend-mode:overlay">
<path d="M36.1606 51.9706C34.0296 50.1657 32.4499 48.5267 32.6337 48.3104C32.8174 48.094 34.7083 49.3803 36.8274 51.1852C38.9465 52.9902 40.541 54.6291 40.3573 54.8455C40.1735 55.0618 38.2945 53.7756 36.1606 51.9706Z" fill="url(#paint13_radial_1296_9729)"/>
<path style="mix-blend-mode:hard-light" d="M36.3938 51.7132C35.9937 51.3782 35.724 51.0433 35.7863 50.9663C35.8485 50.8892 36.2249 51.1056 36.625 51.4405C37.0251 51.7754 37.2948 52.1133 37.2178 52.1903C37.1407 52.2674 36.7762 52.051 36.3938 51.7132Z" fill="url(#paint14_radial_1296_9729)"/>
<path d="M36.9347 51.9493C35.1564 54.0239 33.5412 55.5621 33.2981 55.3576C33.0551 55.1531 34.288 53.283 36.0545 51.2083C37.8209 49.1337 39.4509 47.5955 39.694 47.8C39.937 48.0045 38.7011 49.8628 36.9347 51.9493Z" fill="url(#paint15_radial_1296_9729)"/>
<path style="mix-blend-mode:hard-light" d="M36.6436 51.7069C36.3057 52.107 35.9649 52.3708 35.8819 52.2997C35.7989 52.2285 36.0005 51.8492 36.3383 51.4491C36.6762 51.049 37.02 50.7852 37.103 50.8563C37.186 50.9274 36.9844 51.3068 36.6436 51.7069Z" fill="url(#paint16_radial_1296_9729)"/>
<g opacity="0.5">
<path d="M36.1606 51.9696C34.0296 50.1647 32.4499 48.5257 32.6337 48.3094C32.8174 48.093 34.7083 49.3793 36.8274 51.1842C38.9465 52.9892 40.541 54.6281 40.3573 54.8445C40.1735 55.0609 38.2945 53.7746 36.1606 51.9696Z" fill="url(#paint17_radial_1296_9729)"/>
<path style="mix-blend-mode:hard-light" d="M36.3938 51.7122C35.9937 51.3773 35.724 51.0424 35.7863 50.9653C35.8485 50.8882 36.2249 51.1046 36.625 51.4395C37.0251 51.7744 37.2948 52.1123 37.2178 52.1893C37.1407 52.2664 36.7762 52.05 36.3938 51.7122Z" fill="url(#paint18_radial_1296_9729)"/>
<path d="M36.9347 51.9493C35.1564 54.0239 33.5412 55.5621 33.2981 55.3576C33.0551 55.1531 34.288 53.283 36.0545 51.2083C37.8209 49.1337 39.4509 47.5955 39.694 47.8C39.937 48.0045 38.7011 49.8628 36.9347 51.9493Z" fill="url(#paint19_radial_1296_9729)"/>
<path style="mix-blend-mode:hard-light" d="M36.6436 51.7069C36.3057 52.107 35.9649 52.3708 35.8819 52.2997C35.7989 52.2285 36.0005 51.8492 36.3383 51.4491C36.6762 51.049 37.02 50.7852 37.103 50.8563C37.186 50.9274 36.9844 51.3068 36.6436 51.7069Z" fill="url(#paint20_radial_1296_9729)"/>
</g>
</g>
<defs>
<filter id="filter0_b_1296_9729" x="-5.07143" y="-5.07143" width="81.1429" height="80.9573" filterUnits="userSpaceOnUse" color-interpolation-filters="sRGB">
<feFlood flood-opacity="0" result="BackgroundImageFix"/>
<feGaussianBlur in="BackgroundImage" stdDeviation="2.53571"/>
<feComposite in2="SourceAlpha" operator="in" result="effect1_backgroundBlur_1296_9729"/>
<feBlend mode="normal" in="SourceGraphic" in2="effect1_backgroundBlur_1296_9729" result="shape"/>
</filter>
<radialGradient id="paint0_radial_1296_9729" cx="0" cy="0" r="1" gradientUnits="userSpaceOnUse" gradientTransform="translate(-37.8044 7.24449) rotate(35.0407) scale(81.7842 48.2695)">
<stop/>
<stop offset="1" stop-color="white" stop-opacity="0.06"/>
</radialGradient>
<radialGradient id="paint1_radial_1296_9729" cx="0" cy="0" r="1" gradientUnits="userSpaceOnUse" gradientTransform="translate(35.5 35.4072) rotate(90) scale(35.4072 46.7388)">
<stop stop-color="#FB64F3"/>
<stop offset="1" stop-color="#4300F3" stop-opacity="0.29"/>
</radialGradient>
<linearGradient id="paint2_linear_1296_9729" x1="28.0478" y1="22.8286" x2="28.0478" y2="57.057" gradientUnits="userSpaceOnUse">
<stop stop-color="white" stop-opacity="0.9"/>
<stop offset="0.01" stop-color="white" stop-opacity="0.84"/>
<stop offset="0.03" stop-color="white" stop-opacity="0.73"/>
<stop offset="0.05" stop-color="white" stop-opacity="0.65"/>
<stop offset="0.08" stop-color="white" stop-opacity="0.58"/>
<stop offset="0.11" stop-color="white" stop-opacity="0.53"/>
<stop offset="0.16" stop-color="white" stop-opacity="0.51"/>
<stop offset="0.28" stop-color="white" stop-opacity="0.5"/>
<stop offset="0.46" stop-color="#FEFEFE" stop-opacity="0.48"/>
<stop offset="0.67" stop-color="#FAFAFA" stop-opacity="0.43"/>
<stop offset="0.89" stop-color="#F3F3F3" stop-opacity="0.35"/>
<stop offset="1" stop-color="#EFEFEF" stop-opacity="0.3"/>
</linearGradient>
<linearGradient id="paint3_linear_1296_9729" x1="54.7614" y1="23.0316" x2="27.7933" y2="37.5801" gradientUnits="userSpaceOnUse">
<stop stop-color="#FB64F3"/>
<stop offset="0.2" stop-color="#D464F5"/>
<stop offset="0.45" stop-color="#AC64F8"/>
<stop offset="0.67" stop-color="#8F64FA"/>
<stop offset="0.86" stop-color="#7D64FB"/>
<stop offset="1" stop-color="#7764FB"/>
</linearGradient>
<linearGradient id="paint4_linear_1296_9729" x1="28.0527" y1="58.0625" x2="28.0527" y2="23.2442" gradientUnits="userSpaceOnUse">
<stop stop-color="white" stop-opacity="0.9"/>
<stop offset="0.03" stop-color="white" stop-opacity="0.83"/>
<stop offset="0.11" stop-color="white" stop-opacity="0.68"/>
<stop offset="0.17" stop-color="white" stop-opacity="0.58"/>
<stop offset="0.23" stop-color="white" stop-opacity="0.52"/>
<stop offset="0.28" stop-color="white" stop-opacity="0.5"/>
<stop offset="0.46" stop-color="#FEFEFE" stop-opacity="0.48"/>
<stop offset="0.67" stop-color="#FAFAFA" stop-opacity="0.43"/>
<stop offset="0.89" stop-color="#F3F3F3" stop-opacity="0.35"/>
<stop offset="1" stop-color="#EFEFEF" stop-opacity="0.3"/>
</linearGradient>
<radialGradient id="paint5_radial_1296_9729" cx="0" cy="0" r="1" gradientUnits="userSpaceOnUse" gradientTransform="translate(9.63001 35.4172) rotate(135) scale(0.519194 5.05531)">
<stop stop-color="white"/>
<stop offset="0.05" stop-color="white" stop-opacity="0.89"/>
<stop offset="0.15" stop-color="white" stop-opacity="0.69"/>
<stop offset="0.26" stop-color="white" stop-opacity="0.5"/>
<stop offset="0.37" stop-color="white" stop-opacity="0.35"/>
<stop offset="0.48" stop-color="white" stop-opacity="0.22"/>
<stop offset="0.6" stop-color="white" stop-opacity="0.12"/>
<stop offset="0.72" stop-color="white" stop-opacity="0.05"/>
<stop offset="0.85" stop-color="white" stop-opacity="0.01"/>
<stop offset="1" stop-color="white" stop-opacity="0"/>
</radialGradient>
<radialGradient id="paint6_radial_1296_9729" cx="0" cy="0" r="1" gradientUnits="userSpaceOnUse" gradientTransform="translate(8.66329 34.4456) rotate(135) scale(0.179635 0.945447)">
<stop stop-color="white"/>
<stop offset="0.05" stop-color="white" stop-opacity="0.89"/>
<stop offset="0.15" stop-color="white" stop-opacity="0.69"/>
<stop offset="0.26" stop-color="white" stop-opacity="0.5"/>
<stop offset="0.37" stop-color="white" stop-opacity="0.35"/>
<stop offset="0.48" stop-color="white" stop-opacity="0.22"/>
<stop offset="0.6" stop-color="white" stop-opacity="0.12"/>
<stop offset="0.72" stop-color="white" stop-opacity="0.05"/>
<stop offset="0.85" stop-color="white" stop-opacity="0.01"/>
<stop offset="1" stop-color="white" stop-opacity="0"/>
</radialGradient>
<radialGradient id="paint7_radial_1296_9729" cx="0" cy="0" r="1" gradientUnits="userSpaceOnUse" gradientTransform="translate(14.4183 18.4402) rotate(45) scale(0.573845 4.946)">
<stop stop-color="white"/>
<stop offset="0.05" stop-color="white" stop-opacity="0.89"/>
<stop offset="0.15" stop-color="white" stop-opacity="0.69"/>
<stop offset="0.26" stop-color="white" stop-opacity="0.5"/>
<stop offset="0.37" stop-color="white" stop-opacity="0.35"/>
<stop offset="0.48" stop-color="white" stop-opacity="0.22"/>
<stop offset="0.6" stop-color="white" stop-opacity="0.12"/>
<stop offset="0.72" stop-color="white" stop-opacity="0.05"/>
<stop offset="0.85" stop-color="white" stop-opacity="0.01"/>
<stop offset="1" stop-color="white" stop-opacity="0"/>
</radialGradient>
<radialGradient id="paint8_radial_1296_9729" cx="0" cy="0" r="1" gradientUnits="userSpaceOnUse" gradientTransform="translate(13.9613 18.9042) rotate(45) scale(0.198544 0.945447)">
<stop stop-color="white"/>
<stop offset="0.05" stop-color="white" stop-opacity="0.89"/>
<stop offset="0.15" stop-color="white" stop-opacity="0.69"/>
<stop offset="0.26" stop-color="white" stop-opacity="0.5"/>
<stop offset="0.37" stop-color="white" stop-opacity="0.35"/>
<stop offset="0.48" stop-color="white" stop-opacity="0.22"/>
<stop offset="0.6" stop-color="white" stop-opacity="0.12"/>
<stop offset="0.72" stop-color="white" stop-opacity="0.05"/>
<stop offset="0.85" stop-color="white" stop-opacity="0.01"/>
<stop offset="1" stop-color="white" stop-opacity="0"/>
</radialGradient>
<radialGradient id="paint9_radial_1296_9729" cx="0" cy="0" r="1" gradientUnits="userSpaceOnUse" gradientTransform="translate(9.63001 35.4177) rotate(135) scale(0.519194 5.05531)">
<stop stop-color="white"/>
<stop offset="0.05" stop-color="white" stop-opacity="0.89"/>
<stop offset="0.15" stop-color="white" stop-opacity="0.69"/>
<stop offset="0.26" stop-color="white" stop-opacity="0.5"/>
<stop offset="0.37" stop-color="white" stop-opacity="0.35"/>
<stop offset="0.48" stop-color="white" stop-opacity="0.22"/>
<stop offset="0.6" stop-color="white" stop-opacity="0.12"/>
<stop offset="0.72" stop-color="white" stop-opacity="0.05"/>
<stop offset="0.85" stop-color="white" stop-opacity="0.01"/>
<stop offset="1" stop-color="white" stop-opacity="0"/>
</radialGradient>
<radialGradient id="paint10_radial_1296_9729" cx="0" cy="0" r="1" gradientUnits="userSpaceOnUse" gradientTransform="translate(8.65743 34.4461) rotate(135) scale(0.179635 0.945447)">
<stop stop-color="white"/>
<stop offset="0.05" stop-color="white" stop-opacity="0.89"/>
<stop offset="0.15" stop-color="white" stop-opacity="0.69"/>
<stop offset="0.26" stop-color="white" stop-opacity="0.5"/>
<stop offset="0.37" stop-color="white" stop-opacity="0.35"/>
<stop offset="0.48" stop-color="white" stop-opacity="0.22"/>
<stop offset="0.6" stop-color="white" stop-opacity="0.12"/>
<stop offset="0.72" stop-color="white" stop-opacity="0.05"/>
<stop offset="0.85" stop-color="white" stop-opacity="0.01"/>
<stop offset="1" stop-color="white" stop-opacity="0"/>
</radialGradient>
<radialGradient id="paint11_radial_1296_9729" cx="0" cy="0" r="1" gradientUnits="userSpaceOnUse" gradientTransform="translate(14.4183 18.4407) rotate(45) scale(0.573845 4.946)">
<stop stop-color="white"/>
<stop offset="0.05" stop-color="white" stop-opacity="0.89"/>
<stop offset="0.15" stop-color="white" stop-opacity="0.69"/>
<stop offset="0.26" stop-color="white" stop-opacity="0.5"/>
<stop offset="0.37" stop-color="white" stop-opacity="0.35"/>
<stop offset="0.48" stop-color="white" stop-opacity="0.22"/>
<stop offset="0.6" stop-color="white" stop-opacity="0.12"/>
<stop offset="0.72" stop-color="white" stop-opacity="0.05"/>
<stop offset="0.85" stop-color="white" stop-opacity="0.01"/>
<stop offset="1" stop-color="white" stop-opacity="0"/>
</radialGradient>
<radialGradient id="paint12_radial_1296_9729" cx="0" cy="0" r="1" gradientUnits="userSpaceOnUse" gradientTransform="translate(13.9594 18.9047) rotate(45) scale(0.198544 0.945447)">
<stop stop-color="white"/>
<stop offset="0.05" stop-color="white" stop-opacity="0.89"/>
<stop offset="0.15" stop-color="white" stop-opacity="0.69"/>
<stop offset="0.26" stop-color="white" stop-opacity="0.5"/>
<stop offset="0.37" stop-color="white" stop-opacity="0.35"/>
<stop offset="0.48" stop-color="white" stop-opacity="0.22"/>
<stop offset="0.6" stop-color="white" stop-opacity="0.12"/>
<stop offset="0.72" stop-color="white" stop-opacity="0.05"/>
<stop offset="0.85" stop-color="white" stop-opacity="0.01"/>
<stop offset="1" stop-color="white" stop-opacity="0"/>
</radialGradient>
<radialGradient id="paint13_radial_1296_9729" cx="0" cy="0" r="1" gradientUnits="userSpaceOnUse" gradientTransform="translate(58.3158 6.09654) rotate(130.601) scale(0.503866 5.05941)">
<stop stop-color="white"/>
<stop offset="0.05" stop-color="white" stop-opacity="0.89"/>
<stop offset="0.15" stop-color="white" stop-opacity="0.69"/>
<stop offset="0.26" stop-color="white" stop-opacity="0.5"/>
<stop offset="0.37" stop-color="white" stop-opacity="0.35"/>
<stop offset="0.48" stop-color="white" stop-opacity="0.22"/>
<stop offset="0.6" stop-color="white" stop-opacity="0.12"/>
<stop offset="0.72" stop-color="white" stop-opacity="0.05"/>
<stop offset="0.85" stop-color="white" stop-opacity="0.01"/>
<stop offset="1" stop-color="white" stop-opacity="0"/>
</radialGradient>
<radialGradient id="paint14_radial_1296_9729" cx="0" cy="0" r="1" gradientUnits="userSpaceOnUse" gradientTransform="translate(58.1879 5.46177) rotate(130.601) scale(0.174331 0.945487)">
<stop stop-color="white"/>
<stop offset="0.05" stop-color="white" stop-opacity="0.89"/>
<stop offset="0.15" stop-color="white" stop-opacity="0.69"/>
<stop offset="0.26" stop-color="white" stop-opacity="0.5"/>
<stop offset="0.37" stop-color="white" stop-opacity="0.35"/>
<stop offset="0.48" stop-color="white" stop-opacity="0.22"/>
<stop offset="0.6" stop-color="white" stop-opacity="0.12"/>
<stop offset="0.72" stop-color="white" stop-opacity="0.05"/>
<stop offset="0.85" stop-color="white" stop-opacity="0.01"/>
<stop offset="1" stop-color="white" stop-opacity="0"/>
</radialGradient>
<radialGradient id="paint15_radial_1296_9729" cx="0" cy="0" r="1" gradientUnits="userSpaceOnUse" gradientTransform="translate(27.9125 84.2816) rotate(41.1859) scale(0.580958 4.94329)">
<stop stop-color="white"/>
<stop offset="0.05" stop-color="white" stop-opacity="0.89"/>
<stop offset="0.15" stop-color="white" stop-opacity="0.69"/>
<stop offset="0.26" stop-color="white" stop-opacity="0.5"/>
<stop offset="0.37" stop-color="white" stop-opacity="0.35"/>
<stop offset="0.48" stop-color="white" stop-opacity="0.22"/>
<stop offset="0.6" stop-color="white" stop-opacity="0.12"/>
<stop offset="0.72" stop-color="white" stop-opacity="0.05"/>
<stop offset="0.85" stop-color="white" stop-opacity="0.01"/>
<stop offset="1" stop-color="white" stop-opacity="0"/>
</radialGradient>
<radialGradient id="paint16_radial_1296_9729" cx="0" cy="0" r="1" gradientUnits="userSpaceOnUse" gradientTransform="translate(26.9715 84.5224) rotate(41.186) scale(0.201004 0.945431)">
<stop stop-color="white"/>
<stop offset="0.05" stop-color="white" stop-opacity="0.89"/>
<stop offset="0.15" stop-color="white" stop-opacity="0.69"/>
<stop offset="0.26" stop-color="white" stop-opacity="0.5"/>
<stop offset="0.37" stop-color="white" stop-opacity="0.35"/>
<stop offset="0.48" stop-color="white" stop-opacity="0.22"/>
<stop offset="0.6" stop-color="white" stop-opacity="0.12"/>
<stop offset="0.72" stop-color="white" stop-opacity="0.05"/>
<stop offset="0.85" stop-color="white" stop-opacity="0.01"/>
<stop offset="1" stop-color="white" stop-opacity="0"/>
</radialGradient>
<radialGradient id="paint17_radial_1296_9729" cx="0" cy="0" r="1" gradientUnits="userSpaceOnUse" gradientTransform="translate(58.3158 6.09557) rotate(130.601) scale(0.503866 5.05941)">
<stop stop-color="white"/>
<stop offset="0.05" stop-color="white" stop-opacity="0.89"/>
<stop offset="0.15" stop-color="white" stop-opacity="0.69"/>
<stop offset="0.26" stop-color="white" stop-opacity="0.5"/>
<stop offset="0.37" stop-color="white" stop-opacity="0.35"/>
<stop offset="0.48" stop-color="white" stop-opacity="0.22"/>
<stop offset="0.6" stop-color="white" stop-opacity="0.12"/>
<stop offset="0.72" stop-color="white" stop-opacity="0.05"/>
<stop offset="0.85" stop-color="white" stop-opacity="0.01"/>
<stop offset="1" stop-color="white" stop-opacity="0"/>
</radialGradient>
<radialGradient id="paint18_radial_1296_9729" cx="0" cy="0" r="1" gradientUnits="userSpaceOnUse" gradientTransform="translate(58.1879 5.4608) rotate(130.601) scale(0.174331 0.945487)">
<stop stop-color="white"/>
<stop offset="0.05" stop-color="white" stop-opacity="0.89"/>
<stop offset="0.15" stop-color="white" stop-opacity="0.69"/>
<stop offset="0.26" stop-color="white" stop-opacity="0.5"/>
<stop offset="0.37" stop-color="white" stop-opacity="0.35"/>
<stop offset="0.48" stop-color="white" stop-opacity="0.22"/>
<stop offset="0.6" stop-color="white" stop-opacity="0.12"/>
<stop offset="0.72" stop-color="white" stop-opacity="0.05"/>
<stop offset="0.85" stop-color="white" stop-opacity="0.01"/>
<stop offset="1" stop-color="white" stop-opacity="0"/>
</radialGradient>
<radialGradient id="paint19_radial_1296_9729" cx="0" cy="0" r="1" gradientUnits="userSpaceOnUse" gradientTransform="translate(27.9125 84.2816) rotate(41.1859) scale(0.580958 4.94329)">
<stop stop-color="white"/>
<stop offset="0.05" stop-color="white" stop-opacity="0.89"/>
<stop offset="0.15" stop-color="white" stop-opacity="0.69"/>
<stop offset="0.26" stop-color="white" stop-opacity="0.5"/>
<stop offset="0.37" stop-color="white" stop-opacity="0.35"/>
<stop offset="0.48" stop-color="white" stop-opacity="0.22"/>
<stop offset="0.6" stop-color="white" stop-opacity="0.12"/>
<stop offset="0.72" stop-color="white" stop-opacity="0.05"/>
<stop offset="0.85" stop-color="white" stop-opacity="0.01"/>
<stop offset="1" stop-color="white" stop-opacity="0"/>
</radialGradient>
<radialGradient id="paint20_radial_1296_9729" cx="0" cy="0" r="1" gradientUnits="userSpaceOnUse" gradientTransform="translate(26.9715 84.5224) rotate(41.186) scale(0.201004 0.945431)">
<stop stop-color="white"/>
<stop offset="0.05" stop-color="white" stop-opacity="0.89"/>
<stop offset="0.15" stop-color="white" stop-opacity="0.69"/>
<stop offset="0.26" stop-color="white" stop-opacity="0.5"/>
<stop offset="0.37" stop-color="white" stop-opacity="0.35"/>
<stop offset="0.48" stop-color="white" stop-opacity="0.22"/>
<stop offset="0.6" stop-color="white" stop-opacity="0.12"/>
<stop offset="0.72" stop-color="white" stop-opacity="0.05"/>
<stop offset="0.85" stop-color="white" stop-opacity="0.01"/>
<stop offset="1" stop-color="white" stop-opacity="0"/>
</radialGradient>
</defs>
</svg>
