<svg width="47" height="47" viewBox="0 0 47 47" fill="none" xmlns="http://www.w3.org/2000/svg">
<circle cx="23.5" cy="23.5679" r="23" fill="#D9D9D9"/>
<g clip-path="url(#clip0_657_39961)">
<path fill-rule="evenodd" clip-rule="evenodd" d="M31.5 14.5679H15.5C14.4 14.5679 13.5 15.4679 13.5 16.5679V30.5679C13.5 31.6679 14.4 32.5679 15.5 32.5679H31.5C32.6 32.5679 33.5 31.6679 33.5 30.5679V16.5679C33.5 15.4679 32.6 14.5679 31.5 14.5679ZM20.5 28.5679H17.5C16.95 28.5679 16.5 28.1179 16.5 27.5679C16.5 27.0179 16.95 26.5679 17.5 26.5679H20.5C21.05 26.5679 21.5 27.0179 21.5 27.5679C21.5 28.1179 21.05 28.5679 20.5 28.5679ZM20.5 24.5679H17.5C16.95 24.5679 16.5 24.1179 16.5 23.5679C16.5 23.0179 16.95 22.5679 17.5 22.5679H20.5C21.05 22.5679 21.5 23.0179 21.5 23.5679C21.5 24.1179 21.05 24.5679 20.5 24.5679ZM20.5 20.5679H17.5C16.95 20.5679 16.5 20.1179 16.5 19.5679C16.5 19.0179 16.95 18.5679 17.5 18.5679H20.5C21.05 18.5679 21.5 19.0179 21.5 19.5679C21.5 20.1179 21.05 20.5679 20.5 20.5679ZM30.2 22.6879L27.03 25.8579C26.64 26.2479 26 26.2479 25.61 25.8579L24.2 24.4379C23.81 24.0479 23.81 23.4179 24.2 23.0279C24.59 22.6379 25.22 22.6379 25.61 23.0279L26.32 23.7379L28.79 21.2679C29.18 20.8779 29.81 20.8779 30.2 21.2679L30.21 21.2779C30.59 21.6679 30.59 22.3079 30.2 22.6879Z" fill="#323232"/>
</g>
<defs>
<clipPath id="clip0_657_39961">
<rect width="24" height="24" fill="white" transform="translate(11.5 11.5679)"/>
</clipPath>
</defs>
</svg>
