<svg width="33" height="37" viewBox="0 0 33 37" fill="none" xmlns="http://www.w3.org/2000/svg">
<g clip-path="url(#clip0_5838_319774)">
<path d="M16.0723 18.5582L32.0354 9.2771V27.723L16.0723 37V18.5582Z" fill="url(#paint0_linear_5838_319774)"/>
<path d="M16.0714 18.5582V37L0 27.723V9.2771L16.0714 18.5582Z" fill="url(#paint1_linear_5838_319774)"/>
<path d="M30.0327 14.0661C30.3515 13.8586 30.6166 13.5785 30.8063 13.2487C30.9959 12.919 31.1047 12.5489 31.1236 12.169C31.1236 11.4711 30.6303 11.1944 30.0247 11.5433C29.7056 11.7499 29.44 12.0292 29.2497 12.3583C29.0594 12.6873 28.9497 13.0568 28.9297 13.4364C28.9297 14.1183 29.423 14.403 30.0327 14.0661Z" fill="#094A14"/>
<path d="M18.0444 20.9768C18.3632 20.7693 18.6283 20.4892 18.818 20.1594C19.0076 19.8297 19.1164 19.4596 19.1353 19.0797C19.1353 18.3818 18.642 18.101 18.0364 18.454C17.7173 18.6606 17.4517 18.9399 17.2614 19.269C17.0711 19.598 16.9614 19.9675 16.9414 20.3471C16.9454 21.041 17.4508 21.3258 18.0444 20.9768Z" fill="#094A14"/>
<path d="M18.0734 32.2231C17.7545 32.4306 17.4894 32.7108 17.2998 33.0405C17.1101 33.3703 17.0014 33.7403 16.9824 34.1203C16.9824 34.8182 17.4758 35.0989 18.0814 34.746C18.4005 34.5393 18.666 34.26 18.8563 33.931C19.0467 33.6019 19.1563 33.2325 19.1764 32.8528C19.1723 32.159 18.683 31.8742 18.0734 32.2231Z" fill="#094A14"/>
<path d="M30.0617 24.2857L30.0376 15.0607C28.9427 15.6945 28.0322 15.1851 28.0322 13.9297L20.0105 18.5622C19.9737 19.2479 19.7753 19.9152 19.4317 20.5097C19.0881 21.1042 18.6089 21.6092 18.0332 21.9835L18.0613 31.2084C19.1562 30.5787 20.0466 31.0841 20.0667 32.3435L28.0884 27.7109C28.1242 27.0249 28.3216 26.357 28.6645 25.7618C29.0075 25.1666 29.4862 24.6608 30.0617 24.2857V24.2857Z" fill="#094A14"/>
<path d="M30.0657 25.2964C29.7466 25.503 29.481 25.7823 29.2907 26.1114C29.1004 26.4405 28.9907 26.8099 28.9707 27.1895C28.9707 27.8874 29.464 28.1682 30.0697 27.8192C30.3893 27.6122 30.6552 27.3323 30.8455 27.0025C31.0359 26.6727 31.1452 26.3024 31.1646 25.9221C31.1646 25.2362 30.6873 24.9555 30.0657 25.2964Z" fill="#094A14"/>
<path d="M23.9296 19.2802C24.9765 18.6785 26.1035 18.7467 26.1075 20.1264C26.1075 21.8832 24.5032 23.0584 24.5232 24.0129V24.394L22.9751 25.2964V24.763C22.9751 23.3191 24.435 22.2161 24.431 21.3177C24.431 20.9527 24.1222 20.8604 23.7652 21.065C23.4104 21.3277 23.1106 21.6574 22.8828 22.0356L21.9844 21.3016C22.4513 20.4741 23.1206 19.7785 23.9296 19.2802V19.2802Z" fill="url(#paint2_linear_5838_319774)"/>
<path d="M23.0177 27.6507L23.0137 26.0463L24.4856 25.196L24.4897 26.7964L23.0177 27.6507Z" fill="url(#paint3_linear_5838_319774)"/>
<path d="M14.0461 20.9768C14.6558 21.3258 15.1451 21.041 15.1491 20.3471C15.1291 19.9675 15.0194 19.598 14.8291 19.269C14.6388 18.9399 14.3732 18.6606 14.0542 18.454C13.4485 18.101 12.9552 18.3818 12.9512 19.0797C12.9725 19.4595 13.0827 19.8291 13.2728 20.1586C13.463 20.4881 13.7279 20.7684 14.0461 20.9768V20.9768Z" fill="#0D7220"/>
<path d="M14.013 32.2231C13.4074 31.8742 12.9141 32.159 12.9141 32.8528C12.9341 33.2325 13.0437 33.6019 13.2341 33.931C13.4244 34.26 13.69 34.5393 14.009 34.746C14.6147 35.0989 15.108 34.8182 15.108 34.1203C15.0886 33.74 14.9792 33.3697 14.7889 33.0399C14.5985 32.7101 14.3326 32.4302 14.013 32.2231V32.2231Z" fill="#0D7220"/>
<path d="M2.02486 25.2965C1.41922 24.9475 0.925886 25.2283 0.921875 25.9222C0.943177 26.302 1.05334 26.6716 1.24352 27.0011C1.4337 27.3306 1.69857 27.6108 2.01683 27.8193C2.62647 28.1682 3.1158 27.8875 3.11981 27.1896C3.09979 26.81 2.99013 26.4405 2.7998 26.1115C2.60948 25.7824 2.34392 25.5031 2.02486 25.2965V25.2965Z" fill="#0D7220"/>
<path d="M14.018 31.2084L14.0421 21.9835C13.4669 21.609 12.9883 21.1039 12.6454 20.5093C12.3024 19.9148 12.1049 19.2476 12.0687 18.5622L4.04706 13.9297C4.04706 15.1851 3.15666 15.6945 2.04164 15.0607L2.01758 24.2857C2.59332 24.6605 3.07223 25.1663 3.41519 25.7616C3.75815 26.3569 3.95543 27.0248 3.99092 27.7109L12.0126 32.3435C12.0327 31.0841 12.9231 30.5787 14.018 31.2084Z" fill="#0D7220"/>
<path d="M2.05784 14.0661C2.66348 14.4151 3.15681 14.1303 3.16082 13.4364C3.1408 13.0568 3.03114 12.6873 2.84082 12.3583C2.65049 12.0292 2.38493 11.7499 2.06587 11.5433C1.46023 11.1944 0.966901 11.4711 0.962891 12.169C0.984505 12.5488 1.0948 12.9182 1.28495 13.2477C1.4751 13.5771 1.73981 13.8574 2.05784 14.0661V14.0661Z" fill="#0D7220"/>
<path d="M6.98242 26.4434L8.45039 27.2937L8.45841 25.6894L6.98643 24.8391L6.98242 26.4434Z" fill="url(#paint4_linear_5838_319774)"/>
<path d="M7.93754 19.1679C6.68616 18.4459 6.02438 18.9112 5.98828 18.9352L6.87869 20.7C7.02001 20.6379 7.17405 20.6102 7.32816 20.6193C7.48226 20.6283 7.63202 20.6739 7.76508 20.7522C7.94589 20.8577 8.09952 21.0041 8.21373 21.1796C8.32793 21.3551 8.39954 21.5548 8.42285 21.7629C8.42285 22.6653 6.95889 22.0797 6.95488 23.5236V24.0571L8.49506 24.9475V24.5665C8.49506 23.6119 10.0994 24.2737 10.0994 22.5209C10.1074 21.1372 8.98036 19.7695 7.93754 19.1679Z" fill="url(#paint5_linear_5838_319774)"/>
<g style="mix-blend-mode:overlay" opacity="0.8">
<path d="M0 9.2771V9.65412L16.0714 18.9352L32.0346 9.65412V9.2771L16.0714 18.5582L0 9.2771Z" fill="white"/>
</g>
<path d="M0 9.27707L15.9672 0L32.0346 9.27707L16.0714 18.5582L0 9.27707Z" fill="#75C536"/>
<path d="M17.1469 15.566C16.8084 15.3934 16.4339 15.3035 16.0539 15.3035C15.674 15.3035 15.2995 15.3934 14.961 15.566C14.3554 15.9149 14.3634 16.4845 14.961 16.8334C15.3 17.0066 15.6752 17.0969 16.0559 17.0969C16.4366 17.0969 16.8119 17.0066 17.1509 16.8334C17.7565 16.4724 17.7565 15.9149 17.1469 15.566Z" fill="#2EA02D"/>
<path d="M25.9869 8.13398L17.9652 3.50146C17.3526 3.81286 16.6751 3.97517 15.9879 3.97517C15.3007 3.97517 14.6232 3.81286 14.0106 3.50146L6.04102 8.13398C7.13597 8.7677 7.13999 9.79046 6.04102 10.4242L14.0627 15.0567C14.6743 14.7444 15.3513 14.5816 16.038 14.5816C16.7248 14.5816 17.4017 14.7444 18.0134 15.0567L25.9829 10.4242C24.9 9.79046 24.896 8.7677 25.9869 8.13398Z" fill="#2EA02D"/>
<path d="M29.0576 8.64342C28.7186 8.4702 28.3433 8.37988 27.9626 8.37988C27.5819 8.37988 27.2067 8.4702 26.8677 8.64342C26.2661 8.99236 26.2701 9.5619 26.8677 9.91084C27.2067 10.0841 27.5819 10.1744 27.9626 10.1744C28.3433 10.1744 28.7186 10.0841 29.0576 9.91084C29.6632 9.5619 29.6632 8.99236 29.0576 8.64342Z" fill="#2EA02D"/>
<path d="M14.8913 2.99214C15.2298 3.16469 15.6044 3.25465 15.9843 3.25465C16.3642 3.25465 16.7388 3.16469 17.0772 2.99214C17.6789 2.6432 17.6749 2.07366 17.0772 1.72471C16.7382 1.5515 16.363 1.46118 15.9823 1.46118C15.6016 1.46118 15.2263 1.5515 14.8873 1.72471C14.2817 2.07366 14.2817 2.6432 14.8913 2.99214Z" fill="#2EA02D"/>
<path d="M5.16112 8.64732C4.82211 8.47411 4.44686 8.38379 4.06616 8.38379C3.68547 8.38379 3.31021 8.47411 2.9712 8.64732C2.36958 8.99626 2.37359 9.56179 2.9712 9.91475C3.31021 10.088 3.68547 10.1783 4.06616 10.1783C4.44686 10.1783 4.82211 10.088 5.16112 9.91475C5.77076 9.56179 5.76675 8.99225 5.16112 8.64732Z" fill="#2EA02D"/>
<path d="M19.2848 7.24761C20.3316 7.85325 20.837 8.85195 19.6418 9.55785C18.1217 10.4402 16.3088 9.6501 15.4866 10.1274L15.1536 10.3239L13.6055 9.42951L14.0667 9.16078C15.3181 8.43482 17.0026 9.16078 17.7767 8.69953C18.0936 8.51504 18.0174 8.20219 17.6644 7.99764C17.2598 7.81943 16.8231 7.72527 16.381 7.72089L16.5735 6.57379C17.5199 6.56392 18.4531 6.79586 19.2848 7.24761V7.24761Z" fill="#75C536"/>
<path d="M11.5957 10.6367L12.9835 9.83057L14.4554 10.6809L13.0677 11.487L11.5957 10.6367Z" fill="#75C536"/>
</g>
<defs>
<linearGradient id="paint0_linear_5838_319774" x1="16.0723" y1="23.1386" x2="32.0354" y2="23.1386" gradientUnits="userSpaceOnUse">
<stop stop-color="#0B611B"/>
<stop offset="1" stop-color="#119129"/>
</linearGradient>
<linearGradient id="paint1_linear_5838_319774" x1="-7.34385" y1="38.5161" x2="14.5834" y2="16.5929" gradientUnits="userSpaceOnUse">
<stop stop-color="#8BD139"/>
<stop offset="0.17" stop-color="#7DCA37"/>
<stop offset="0.49" stop-color="#57B632"/>
<stop offset="0.93" stop-color="#1B962A"/>
<stop offset="1" stop-color="#119129"/>
</linearGradient>
<linearGradient id="paint2_linear_5838_319774" x1="25.7265" y1="28.854" x2="23.32" y2="17.0742" gradientUnits="userSpaceOnUse">
<stop stop-color="#0B611B"/>
<stop offset="1" stop-color="#119129"/>
</linearGradient>
<linearGradient id="paint3_linear_5838_319774" x1="24.3092" y1="29.1427" x2="21.9027" y2="17.3629" gradientUnits="userSpaceOnUse">
<stop stop-color="#0B611B"/>
<stop offset="1" stop-color="#119129"/>
</linearGradient>
<linearGradient id="paint4_linear_5838_319774" x1="6.44497" y1="29.5398" x2="11.7593" y2="15.0486" gradientUnits="userSpaceOnUse">
<stop stop-color="#8BD139"/>
<stop offset="0.17" stop-color="#7DCA37"/>
<stop offset="0.49" stop-color="#57B632"/>
<stop offset="0.93" stop-color="#1B962A"/>
<stop offset="1" stop-color="#119129"/>
</linearGradient>
<linearGradient id="paint5_linear_5838_319774" x1="5.06579" y1="29.0345" x2="10.3802" y2="14.5474" gradientUnits="userSpaceOnUse">
<stop stop-color="#8BD139"/>
<stop offset="0.17" stop-color="#7DCA37"/>
<stop offset="0.49" stop-color="#57B632"/>
<stop offset="0.93" stop-color="#1B962A"/>
<stop offset="1" stop-color="#119129"/>
</linearGradient>
<clipPath id="clip0_5838_319774">
<rect width="32.0346" height="37" fill="white"/>
</clipPath>
</defs>
</svg>
