<svg width="103" height="79" viewBox="0 0 103 79" fill="none" xmlns="http://www.w3.org/2000/svg">
<g clip-path="url(#clip0_5838_319959)">
<g clip-path="url(#clip1_5838_319959)">
<g clip-path="url(#clip2_5838_319959)">
<path d="M24.9842 5.16835L102.249 20.3359C87.6787 27.7986 77.9108 66.0556 76.5104 78.9907C59.4846 73.7508 3.41101 58.4223 1.19219 57.8861C3.76957 37.9022 19.2356 10.9072 24.9842 5.16835Z" fill="url(#paint0_linear_5838_319959)"/>
<mask id="mask0_5838_319959" style="mask-type:alpha" maskUnits="userSpaceOnUse" x="1" y="5" width="102" height="74">
<path d="M24.3401 5.55042L102.248 20.336C87.6778 27.7987 77.9099 66.0557 76.5096 78.9908C59.4837 73.7509 3.34988 58.5719 1.13106 58.0357C3.70844 38.0518 18.5916 11.2893 24.3401 5.55042Z" fill="url(#paint1_linear_5838_319959)"/>
</mask>
<g mask="url(#mask0_5838_319959)">
<path opacity="0.1" d="M-10.0425 60.1938L122.034 -10.6705L131.457 4.96489L4.65355 72.0042L-10.0425 60.1938Z" fill="url(#paint2_linear_5838_319959)"/>
</g>
<g clip-path="url(#clip3_5838_319959)">
<path opacity="0.1" fill-rule="evenodd" clip-rule="evenodd" d="M54.7207 34.4116L51.0456 31.9106L50.3362 31.6503L50.3301 31.6412L49.0269 31.17L46.5771 30.2712L45.8256 30.323L45.8282 30.3073L44.4544 30.4175L43.9349 30.4532L43.9353 30.4542L40.6339 31.9178L41.6297 34.5097L42.8865 33.6199L42.8833 33.6223L41.6304 34.5094L46.6462 37.923L46.6454 37.9244L46.6471 37.9251L44.4897 44.3377L44.6398 44.2618L44.6376 44.2631L44.4896 44.338L44.5529 44.3144L44.4895 44.3527L44.5983 44.2974L56.3481 39.9129L52.7448 40.1621L50.6786 41.2072L50.7717 41.1599L52.7445 40.162L52.7445 40.162L56.3478 39.9129L55.4545 36.3116L53.813 36.4278L53.9083 36.4201L55.4528 36.3108L54.7207 34.4116ZM50.0558 35.4875L52.2306 36.2854L52.2302 36.2847L50.0544 35.4864C50.0549 35.4868 50.0554 35.4872 50.0558 35.4875ZM43.7881 32.9818L43.8597 32.9309L43.9283 32.8822L43.8567 32.9332L43.7881 32.9818ZM52.811 36.5077L52.743 40.161L52.7445 40.1616L52.8125 36.508L52.8119 36.508L52.811 36.5077ZM44.4888 44.3386L44.4837 44.321L40.6334 31.9178L41.6292 34.5096L41.6296 34.5109L46.6464 37.9252L46.6464 37.9252L44.4888 44.3386Z" fill="black"/>
<path fill-rule="evenodd" clip-rule="evenodd" d="M49.7237 31.204L53.5815 33.4128L54.4586 35.2496L51.8393 35.6406L47.2572 34.3524L43.3994 32.1437L42.5215 30.302L45.1416 29.9158L49.7237 31.204Z" fill="url(#paint3_radial_5838_319959)"/>
<path fill-rule="evenodd" clip-rule="evenodd" d="M42.5213 30.3021L39.3419 32.0178L40.5356 34.5247L43.3991 32.1437L42.5213 30.3021Z" fill="url(#paint4_radial_5838_319959)"/>
<path fill-rule="evenodd" clip-rule="evenodd" d="M43.4003 32.1439L40.5367 34.5249L45.8034 37.5404L47.2581 34.3527L43.4003 32.1439Z" fill="url(#paint5_radial_5838_319959)"/>
<path fill-rule="evenodd" clip-rule="evenodd" d="M47.2566 34.3531L51.8387 35.6414L52.0545 39.2991L45.8019 37.5409L47.2566 34.3531Z" fill="url(#paint6_radial_5838_319959)"/>
<path fill-rule="evenodd" clip-rule="evenodd" d="M54.46 35.2503L55.6297 38.7716L52.0564 39.2992L51.8406 35.6414L54.46 35.2503Z" fill="url(#paint7_radial_5838_319959)"/>
<path fill-rule="evenodd" clip-rule="evenodd" d="M40.5371 34.5259L44.1496 44.1027L45.8038 37.5414L40.5371 34.5259Z" fill="url(#paint8_radial_5838_319959)"/>
<path fill-rule="evenodd" clip-rule="evenodd" d="M45.802 37.5404L52.0547 39.2987L44.1478 44.1017L45.802 37.5404Z" fill="url(#paint9_radial_5838_319959)"/>
<path fill-rule="evenodd" clip-rule="evenodd" d="M55.6273 38.7714L44.1472 44.102L52.0541 39.299L55.6273 38.7714Z" fill="url(#paint10_radial_5838_319959)"/>
<path fill-rule="evenodd" clip-rule="evenodd" d="M39.3418 32.0186L44.1479 44.1022L40.5355 34.5254L39.3418 32.0186Z" fill="#85F2FF"/>
<path style="mix-blend-mode:screen" opacity="0.5" fill-rule="evenodd" clip-rule="evenodd" d="M46.2051 30.2227C47.5576 31.1785 50.4397 34.3626 51.254 35.489L51.8401 35.651L53.0404 35.4604L53.2454 35.4278C51.6768 34.1002 50.2502 32.6133 48.9886 30.9912L46.2051 30.2227Z" fill="url(#paint11_radial_5838_319959)"/>
<g style="mix-blend-mode:screen" opacity="0.75">
<path fill-rule="evenodd" clip-rule="evenodd" d="M41.4337 36.8948C41.1084 35.1305 41.929 35.5405 42.8263 36.2134C45.6614 38.3144 45.0616 39.8605 44.4587 42.8679L45.8038 37.5414L40.5371 34.5259C40.8373 35.3137 41.1335 36.1071 41.4126 36.8882L41.4337 36.8948Z" fill="#9FDFFF"/>
</g>
<path style="mix-blend-mode:screen" opacity="0.5" fill-rule="evenodd" clip-rule="evenodd" d="M47.7452 38.0873C50.3073 38.816 49.5157 40.2575 47.6583 41.6031L44.1504 44.1164L52.0451 39.3003L47.7354 38.0889L47.7452 38.0873Z" fill="url(#paint12_radial_5838_319959)"/>
<g style="mix-blend-mode:screen">
<path fill-rule="evenodd" clip-rule="evenodd" d="M43.4048 32.1384L42.6036 30.4646C42.9309 31.3281 43.0992 31.6316 42.8969 32.059C42.5769 32.6319 42.1633 33.1474 41.6733 33.5841L43.4048 32.1384Z" fill="#8FFCFF"/>
</g>
<path fill-rule="evenodd" clip-rule="evenodd" d="M47.2568 34.3527L43.4031 32.1383L41.6716 33.584C42.5654 32.9117 43.0922 32.6379 43.4799 32.7164C44.0852 32.8966 44.6654 33.1524 45.2067 33.4777C46.0918 33.9474 46.5392 34.4967 46.5953 34.818C46.6588 35.2181 46.4079 36.0634 46.0415 37.0321L47.2593 34.3373L47.2568 34.3527Z" fill="white"/>
<g style="mix-blend-mode:screen" opacity="0.5">
<path fill-rule="evenodd" clip-rule="evenodd" d="M47.2578 34.3534L46.0399 37.0482C46.6085 35.8723 47.1117 35.2921 47.5012 35.1302C48.0276 34.9165 48.8509 34.9658 50.491 35.2756L47.2578 34.3534Z" fill="#8FFCFF"/>
</g>
<path style="mix-blend-mode:screen" fill-rule="evenodd" clip-rule="evenodd" d="M44.3953 30.01L42.5215 30.3076L43.1132 31.5444L43.3986 32.1444L47.2523 34.3588L49.0274 34.8572C47.8521 34.1034 44.6239 30.8191 44.3935 30.0303L44.3953 30.01Z" fill="url(#paint13_radial_5838_319959)"/>
</g>
<g clip-path="url(#clip4_5838_319959)">
<path opacity="0.1" fill-rule="evenodd" clip-rule="evenodd" d="M93.2875 17.3114L89.672 14.851L88.9735 14.5947L88.9678 14.5861L87.7508 14.1461L85.2759 13.2381L84.5345 13.2892L84.5371 13.2735L83.1583 13.384L82.6765 13.4172L82.6766 13.4174L79.4277 14.8578L79.4324 14.8703L83.2146 27.0539L83.2211 27.0764L83.2204 27.0767L83.2212 27.0765L83.2212 27.0767L83.2213 27.0769L83.2214 27.0766L83.2216 27.0765L83.2231 27.0757L83.287 27.0519L83.2221 27.0912L83.3336 27.0345L94.8858 22.7237L94.8879 22.7236L94.009 19.1807L92.4172 19.2933L92.5115 19.2858L94.0078 19.1799L93.2875 17.3114ZM88.696 18.3695L90.8376 19.1553L90.8368 19.1539L88.6934 18.3676C88.6943 18.3682 88.6951 18.3689 88.696 18.3695ZM91.4076 19.3734L91.3407 22.9677L91.3427 22.9684L91.3427 22.9684L91.3429 22.9684L91.4099 19.3741L91.4094 19.3741L91.4076 19.3734ZM80.4084 17.4081L80.4081 17.4072L81.6566 16.5232L81.6371 16.5384L80.4088 17.4081L85.3427 20.7659L85.3424 20.7664L80.4086 17.4086L80.4084 17.4081Z" fill="black"/>
<path fill-rule="evenodd" clip-rule="evenodd" d="M88.3726 14.1577L92.1679 16.3306L93.0308 18.1376L90.4539 18.5224L85.9461 17.255L82.1508 15.0821L81.2871 13.2703L83.8648 12.8903L88.3726 14.1577Z" fill="url(#paint14_radial_5838_319959)"/>
<path fill-rule="evenodd" clip-rule="evenodd" d="M81.287 13.2697L78.1592 14.9576L79.3335 17.4239L82.1507 15.0815L81.287 13.2697Z" fill="url(#paint15_radial_5838_319959)"/>
<path fill-rule="evenodd" clip-rule="evenodd" d="M82.1498 15.0815L79.3327 17.4239L84.514 20.3906L85.9452 17.2545L82.1498 15.0815Z" fill="url(#paint16_radial_5838_319959)"/>
<path fill-rule="evenodd" clip-rule="evenodd" d="M85.9463 17.2545L90.4541 18.5219L90.6665 22.1204L84.5151 20.3906L85.9463 17.2545Z" fill="url(#paint17_radial_5838_319959)"/>
<path fill-rule="evenodd" clip-rule="evenodd" d="M93.0289 18.138L94.1797 21.6021L90.6644 22.1212L90.452 18.5227L93.0289 18.138Z" fill="url(#paint18_radial_5838_319959)"/>
<path fill-rule="evenodd" clip-rule="evenodd" d="M79.334 17.4238L82.8879 26.8454L84.5153 20.3905L79.334 17.4238Z" fill="url(#paint19_radial_5838_319959)"/>
<path fill-rule="evenodd" clip-rule="evenodd" d="M84.5153 20.3907L90.6666 22.1205L82.8878 26.8457L84.5153 20.3907Z" fill="url(#paint20_radial_5838_319959)"/>
<path fill-rule="evenodd" clip-rule="evenodd" d="M94.1804 21.6015L82.8864 26.8457L90.6651 22.1206L94.1804 21.6015Z" fill="url(#paint21_radial_5838_319959)"/>
<path fill-rule="evenodd" clip-rule="evenodd" d="M78.1582 14.9583L82.8865 26.8461L79.3325 17.4245L78.1582 14.9583Z" fill="#85F2FF"/>
<path style="mix-blend-mode:screen" opacity="0.5" fill-rule="evenodd" clip-rule="evenodd" d="M84.9102 13.1912C86.2407 14.1315 89.0762 17.2641 89.8773 18.3722L90.4538 18.5316L91.6348 18.344L91.8364 18.312C90.2932 17.0059 88.8897 15.5431 87.6486 13.9472L84.9102 13.1912Z" fill="url(#paint22_radial_5838_319959)"/>
<g style="mix-blend-mode:screen" opacity="0.75">
<path fill-rule="evenodd" clip-rule="evenodd" d="M80.2161 19.7544C79.896 18.0187 80.7033 18.422 81.5861 19.084C84.3753 21.151 83.7851 22.672 83.192 25.6307L84.5153 20.3905L79.334 17.4238C79.6294 18.1988 79.9207 18.9794 80.1953 19.7479L80.2161 19.7544Z" fill="#9FDFFF"/>
</g>
<path style="mix-blend-mode:screen" opacity="0.5" fill-rule="evenodd" clip-rule="evenodd" d="M86.4252 20.9286C88.9458 21.6454 88.167 23.0635 86.3397 24.3874L82.8886 26.86L90.6555 22.1219L86.4156 20.9301L86.4252 20.9286Z" fill="url(#paint23_radial_5838_319959)"/>
<g style="mix-blend-mode:screen">
<path fill-rule="evenodd" clip-rule="evenodd" d="M82.1544 15.0767L81.3662 13.4301C81.6882 14.2797 81.8537 14.5782 81.6548 14.9986C81.3399 15.5623 80.9331 16.0694 80.451 16.499L82.1544 15.0767Z" fill="#8FFCFF"/>
</g>
<path fill-rule="evenodd" clip-rule="evenodd" d="M85.9446 17.2548L82.1533 15.0763L80.4499 16.4986C81.3292 15.8372 81.8475 15.5678 82.2289 15.6451C82.8244 15.8224 83.3952 16.074 83.9277 16.394C84.7985 16.8561 85.2387 17.3965 85.2938 17.7126C85.3563 18.1062 85.1095 18.9378 84.749 19.8908L85.9471 17.2397L85.9446 17.2548Z" fill="white"/>
<g style="mix-blend-mode:screen" opacity="0.5">
<path fill-rule="evenodd" clip-rule="evenodd" d="M85.9446 17.2552L84.7465 19.9064C85.3059 18.7495 85.8009 18.1787 86.1841 18.0194C86.702 17.8092 87.5119 17.8577 89.1255 18.1625L85.9446 17.2552Z" fill="#8FFCFF"/>
</g>
<path style="mix-blend-mode:screen" fill-rule="evenodd" clip-rule="evenodd" d="M83.1305 12.9823L81.2871 13.2751L81.8692 14.4919L82.15 15.0822L85.9413 17.2607L87.6876 17.751C86.5313 17.0094 83.3554 13.7784 83.1288 13.0023L83.1305 12.9823Z" fill="url(#paint24_radial_5838_319959)"/>
</g>
<path opacity="0.1" d="M20.8181 25.5955L25.1007 23.2015C25.5019 22.9773 26.009 23.1503 26.1894 23.5731L27.7282 27.1789C27.7856 27.3134 27.8799 27.4289 28.0003 27.5119L31.4302 29.8782C31.8834 30.1909 31.874 30.8634 31.4124 31.1634L27.3916 33.7754C27.2605 33.8606 27.1583 33.9835 27.0984 34.128L25.3526 38.3434C25.1646 38.7973 24.6065 38.9631 24.2011 38.6856L20.1567 35.9165C20.0231 35.825 19.8641 35.7777 19.7022 35.7814L14.234 35.9063C13.6592 35.9194 13.2716 35.3231 13.5169 34.8031L15.2213 31.1903C15.3025 31.0182 15.3174 30.8222 15.2632 30.6399L14.1257 26.8154C13.9803 26.3266 14.3395 25.8334 14.8493 25.8217L20.4584 25.6936C20.5845 25.6908 20.708 25.6571 20.8181 25.5955Z" fill="black"/>
<path d="M12.9174 34.0592L12.8802 32.4321L30.3808 28.039L30.4161 29.5859C30.4215 29.8215 30.3141 30.0455 30.1271 30.1888L26.8016 32.7374C26.6991 32.816 26.619 32.92 26.5693 33.0391L24.7453 37.4093C24.5669 37.8369 24.0433 37.9963 23.6568 37.7408L19.1881 34.7865C19.0625 34.7034 18.9146 34.6608 18.7641 34.6642L13.6723 34.7805C13.2647 34.7898 12.9267 34.4669 12.9174 34.0592Z" fill="url(#paint25_linear_5838_319959)"/>
<path d="M19.9379 23.4584L24.0263 21.1729C24.4093 20.9588 24.8934 21.124 25.0656 21.5276L26.5346 24.97C26.5894 25.0984 26.6794 25.2086 26.7944 25.2879L30.0688 27.5469C30.5014 27.8453 30.4925 28.4874 30.0517 28.7738L26.2133 31.2674C26.0881 31.3487 25.9905 31.4661 25.9334 31.604L24.2667 35.6282C24.0872 36.0615 23.5544 36.2199 23.1674 35.9549L19.3064 33.3114C19.1789 33.224 19.0271 33.1789 18.8725 33.1824L13.6522 33.3016C13.1035 33.3142 12.7334 32.7449 12.9676 32.2485L14.5948 28.7995C14.6723 28.6352 14.6865 28.4481 14.6347 28.274L13.5489 24.6229C13.4101 24.1563 13.753 23.6854 14.2397 23.6743L19.5945 23.552C19.7149 23.5493 19.8327 23.5171 19.9379 23.4584Z" fill="url(#paint26_linear_5838_319959)"/>
<mask id="mask1_5838_319959" style="mask-type:alpha" maskUnits="userSpaceOnUse" x="12" y="21" width="19" height="16">
<path d="M19.9381 23.4583L24.0253 21.1735C24.4088 20.9591 24.8936 21.1245 25.066 21.5287L26.5344 24.9697C26.5893 25.0983 26.6795 25.2087 26.7946 25.2881L30.0675 27.546C30.5007 27.8449 30.4918 28.4879 30.0504 28.7746L26.2135 31.2672C26.0882 31.3486 25.9905 31.4662 25.9332 31.6043L24.2671 35.627C24.0874 36.061 23.5539 36.2195 23.1664 35.9542L19.3067 33.3115C19.179 33.2241 19.027 33.1789 18.8722 33.1824L13.6539 33.3016C13.1044 33.3142 12.7338 32.7441 12.9683 32.247L14.5946 28.7998C14.6722 28.6353 14.6865 28.448 14.6346 28.2736L13.5492 24.6242C13.4103 24.1569 13.7537 23.6854 14.241 23.6743L19.5942 23.552C19.7148 23.5493 19.8328 23.5171 19.9381 23.4583Z" fill="#00A3FF"/>
</mask>
<g mask="url(#mask1_5838_319959)">
<path opacity="0.2" d="M19.9523 23.4278L24.0587 21.1642C24.4406 20.9536 24.9209 21.1177 25.0941 21.5181L25.2093 21.7843L13.1946 33.1641L13.123 33.0959C12.8936 32.8776 12.8287 32.5374 12.9617 32.25L14.5999 28.7082C14.6758 28.544 14.6889 28.3577 14.6367 28.1845L13.5546 24.5945C13.4136 24.1267 13.7571 23.6532 14.2456 23.642L19.6122 23.5195C19.7313 23.5167 19.848 23.4853 19.9523 23.4278Z" fill="white"/>
<path opacity="0.2" d="M18.6661 33.1866L17.1878 33.2203L26.1439 23.8456L26.611 24.8703L18.6661 33.1866Z" fill="white"/>
</g>
<ellipse cx="17.5607" cy="26.0579" rx="1.87658" ry="1.37616" transform="rotate(-24.6439 17.5607 26.0579)" fill="white"/>
<ellipse cx="20.0708" cy="24.7599" rx="0.585648" ry="0.429475" transform="rotate(-24.6439 20.0708 24.7599)" fill="white"/>
<path opacity="0.1" d="M38.6873 56.2935L42.9699 53.8995C43.3711 53.6753 43.8782 53.8483 44.0586 54.2711L45.5973 57.8769C45.6547 58.0114 45.7491 58.1269 45.8694 58.2099L49.2994 60.5762C49.7525 60.8889 49.7432 61.5614 49.2815 61.8614L45.2608 64.4734C45.1296 64.5586 45.0274 64.6815 44.9676 64.826L43.2217 69.0414C43.0337 69.4953 42.4756 69.6611 42.0703 69.3836L38.0259 66.6145C37.8922 66.523 37.7332 66.4757 37.5713 66.4794L32.1031 66.6043C31.5283 66.6174 31.1407 66.0211 31.386 65.5011L33.0905 61.8883C33.1716 61.7162 33.1865 61.5202 33.1323 61.3379L31.9948 57.5134C31.8495 57.0246 32.2087 56.5314 32.7185 56.5197L38.3276 56.3916C38.4537 56.3888 38.5772 56.3551 38.6873 56.2935Z" fill="black"/>
<path d="M30.7865 64.757L30.7493 63.1298L48.2499 58.7367L48.2852 60.2837C48.2906 60.5193 48.1832 60.7432 47.9962 60.8866L44.6707 63.4352C44.5683 63.5137 44.4882 63.6177 44.4385 63.7368L42.6144 68.1071C42.436 68.5346 41.9124 68.6941 41.5259 68.4386L37.0572 65.4842C36.9317 65.4012 36.7837 65.3585 36.6332 65.362L31.5415 65.4782C31.1338 65.4875 30.7958 65.1646 30.7865 64.757Z" fill="url(#paint27_linear_5838_319959)"/>
<path d="M37.807 54.1566L41.8954 51.8712C42.2784 51.6571 42.7625 51.8223 42.9347 52.2259L44.4037 55.6682C44.4585 55.7966 44.5486 55.9069 44.6635 55.9861L47.9379 58.2451C48.3705 58.5436 48.3616 59.1857 47.9209 59.472L44.0824 61.9656C43.9572 62.0469 43.8596 62.1643 43.8025 62.3022L42.1358 66.3264C41.9563 66.7598 41.4236 66.9181 41.0366 66.6531L37.1756 64.0096C37.048 63.9222 36.8962 63.8772 36.7416 63.8807L31.5214 63.9999C30.9727 64.0124 30.6026 63.4431 30.8368 62.9467L32.4639 59.4977C32.5414 59.3334 32.5557 59.1463 32.5039 58.9722L31.418 55.3212C31.2792 54.8545 31.6221 54.3837 32.1088 54.3726L37.4636 54.2503C37.584 54.2475 37.7019 54.2154 37.807 54.1566Z" fill="url(#paint28_linear_5838_319959)"/>
<mask id="mask2_5838_319959" style="mask-type:alpha" maskUnits="userSpaceOnUse" x="30" y="51" width="19" height="16">
<path d="M37.8072 54.1562L41.8944 51.8715C42.278 51.6571 42.7627 51.8225 42.9352 52.2267L44.4036 55.6677C44.4585 55.7963 44.5487 55.9067 44.6638 55.9861L47.9367 58.244C48.3699 58.5429 48.3609 59.1859 47.9196 59.4726L44.0827 61.9652C43.9573 62.0466 43.8596 62.1642 43.8024 62.3023L42.1363 66.325C41.9566 66.759 41.4231 66.9175 41.0355 66.6522L37.1759 64.0095C37.0481 63.9221 36.8961 63.8769 36.7413 63.8804L31.523 63.9996C30.9735 64.0121 30.603 63.4421 30.8375 62.945L32.4638 59.4978C32.5414 59.3333 32.5556 59.146 32.5038 58.9716L31.4184 55.3222C31.2794 54.8549 31.6228 54.3834 32.1102 54.3723L37.4633 54.25C37.5839 54.2473 37.702 54.2151 37.8072 54.1562Z" fill="#00A3FF"/>
</mask>
<g mask="url(#mask2_5838_319959)">
<path opacity="0.2" d="M37.8214 54.1251L41.9278 51.8614C42.3098 51.6509 42.7901 51.815 42.9633 52.2153L43.0785 52.4815L31.0638 63.8613L30.9922 63.7932C30.7628 63.5749 30.6979 63.2347 30.8308 62.9473L32.469 59.4055C32.5449 59.2413 32.558 59.0549 32.5058 58.8817L31.4238 55.2918C31.2827 54.8239 31.6263 54.3504 32.1148 54.3393L37.4814 54.2167C37.6004 54.214 37.7171 54.1826 37.8214 54.1251Z" fill="white"/>
<path opacity="0.2" d="M36.5352 63.8836L35.0569 63.9174L44.0131 54.5427L44.4802 55.5673L36.5352 63.8836Z" fill="white"/>
</g>
<ellipse cx="35.4299" cy="56.7559" rx="1.87658" ry="1.37616" transform="rotate(-24.6439 35.4299 56.7559)" fill="white"/>
<ellipse cx="37.9399" cy="55.4577" rx="0.585648" ry="0.429475" transform="rotate(-24.6439 37.9399 55.4577)" fill="white"/>
<path opacity="0.1" d="M65.8924 62.8453L70.175 60.4513C70.5762 60.227 71.0833 60.4001 71.2637 60.8228L72.8024 64.4287C72.8598 64.5632 72.9541 64.6786 73.0745 64.7617L76.5044 67.128C76.9576 67.4406 76.9483 68.1132 76.4866 68.4131L72.4658 71.0252C72.3347 71.1104 72.2325 71.2333 72.1726 71.3778L70.4268 75.5931C70.2388 76.047 69.6807 76.2129 69.2753 75.9353L65.231 73.1662C65.0973 73.0747 64.9383 73.0275 64.7764 73.0312L59.3082 73.1561C58.7334 73.1692 58.3458 72.5729 58.5911 72.0529L60.2955 68.4401C60.3767 68.268 60.3916 68.072 60.3374 67.8896L59.1999 64.0651C59.0546 63.5763 59.4137 63.0831 59.9236 63.0715L65.5327 62.9434C65.6588 62.9405 65.7823 62.9068 65.8924 62.8453Z" fill="black"/>
<path d="M57.9896 71.3087L57.9525 69.6816L75.453 65.2885L75.4883 66.8355C75.4937 67.071 75.3863 67.295 75.1993 67.4383L71.8738 69.987C71.7714 70.0655 71.6913 70.1695 71.6416 70.2886L69.8176 74.6588C69.6391 75.0864 69.1155 75.2458 68.729 74.9903L64.2604 72.036C64.1348 71.9529 63.9868 71.9103 63.8363 71.9137L58.7446 72.03C58.3369 72.0393 57.9989 71.7164 57.9896 71.3087Z" fill="url(#paint29_linear_5838_319959)"/>
<path d="M65.0101 60.7079L69.0985 58.4224C69.4815 58.2083 69.9656 58.3735 70.1379 58.7771L71.6068 62.2195C71.6616 62.3479 71.7517 62.4581 71.8666 62.5374L75.141 64.7964C75.5736 65.0949 75.5647 65.7369 75.124 66.0233L71.2855 68.5169C71.1604 68.5982 71.0628 68.7156 71.0056 68.8535L69.3389 72.8777C69.1595 73.311 68.6267 73.4694 68.2397 73.2044L64.3787 70.5609C64.2511 70.4735 64.0993 70.4284 63.9447 70.432L58.7245 70.5512C58.1758 70.5637 57.8057 69.9944 58.0399 69.498L59.6671 66.049C59.7446 65.8847 59.7588 65.6976 59.707 65.5235L58.6211 61.8724C58.4823 61.4058 58.8253 60.9349 59.312 60.9238L64.6667 60.8016C64.7871 60.7988 64.905 60.7666 65.0101 60.7079Z" fill="url(#paint30_linear_5838_319959)"/>
<mask id="mask3_5838_319959" style="mask-type:alpha" maskUnits="userSpaceOnUse" x="57" y="58" width="19" height="16">
<path d="M65.0123 60.7078L69.0995 58.423C69.483 58.2086 69.9678 58.374 70.1403 58.7782L71.6087 62.2192C71.6635 62.3478 71.7537 62.4582 71.8688 62.5376L75.1417 64.7955C75.5749 65.0944 75.566 65.7374 75.1247 66.0241L71.2878 68.5167C71.1624 68.5982 71.0647 68.7157 71.0075 68.8538L69.3414 72.8765C69.1616 73.3105 68.6281 73.469 68.2406 73.2037L64.3809 70.5611C64.2532 70.4736 64.1012 70.4284 63.9464 70.432L58.7281 70.5511C58.1786 70.5637 57.808 69.9936 58.0426 69.4965L59.6689 66.0493C59.7465 65.8848 59.7607 65.6975 59.7089 65.5231L58.6235 61.8737C58.4845 61.4064 58.8279 60.9349 59.3152 60.9238L64.6684 60.8016C64.789 60.7988 64.907 60.7666 65.0123 60.7078Z" fill="#00A3FF"/>
</mask>
<g mask="url(#mask3_5838_319959)">
<path opacity="0.2" d="M65.0265 60.6778L69.1329 58.4142C69.5149 58.2036 69.9952 58.3677 70.1684 58.7681L70.2835 59.0343L58.2688 70.4141L58.1972 70.3459C57.9678 70.1276 57.903 69.7874 58.0359 69.5L59.6741 65.9582C59.75 65.794 59.7631 65.6077 59.7109 65.4345L58.6288 61.8445C58.4878 61.3767 58.8313 60.9032 59.3198 60.892L64.6864 60.7695C64.8055 60.7667 64.9222 60.7353 65.0265 60.6778Z" fill="white"/>
<path opacity="0.2" d="M63.7403 70.4366L62.262 70.4703L71.2182 61.0956L71.6853 62.1203L63.7403 70.4366Z" fill="white"/>
</g>
<ellipse cx="62.633" cy="63.3072" rx="1.87658" ry="1.37616" transform="rotate(-24.6439 62.633 63.3072)" fill="white"/>
<ellipse cx="65.143" cy="62.0099" rx="0.585648" ry="0.429475" transform="rotate(-24.6439 65.143 62.0099)" fill="white"/>
<path opacity="0.1" d="M31.8221 4.61457L36.1047 2.22058C36.5059 1.99631 37.0129 2.16935 37.1933 2.5921L38.7321 6.19794C38.7895 6.33245 38.8838 6.44793 39.0042 6.53098L42.4341 8.89727C42.8873 9.2099 42.8779 9.88248 42.4163 10.1824L38.3955 12.7945C38.2644 12.8796 38.1622 13.0026 38.1023 13.1471L36.3565 17.3624C36.1685 17.8163 35.6104 17.9822 35.205 17.7046L31.1607 14.9355C31.027 14.844 30.868 14.7968 30.7061 14.8005L25.2379 14.9253C24.6631 14.9385 24.2755 14.3421 24.5208 13.8222L26.2252 10.2094C26.3064 10.0373 26.3213 9.84128 26.2671 9.6589L25.1296 5.83441C24.9842 5.34562 25.3434 4.8524 25.8532 4.84076L31.4623 4.71268C31.5885 4.7098 31.7119 4.67612 31.8221 4.61457Z" fill="black"/>
<path d="M23.9213 13.0773L23.8841 11.4501L41.3847 7.05704L41.42 8.60402C41.4254 8.83957 41.318 9.06355 41.131 9.20688L37.8055 11.7555C37.703 11.834 37.623 11.938 37.5732 12.0571L35.7492 16.4274C35.5708 16.8549 35.0472 17.0144 34.6607 16.7589L30.192 13.8045C30.0664 13.7215 29.9185 13.6788 29.768 13.6823L24.6762 13.7985C24.2686 13.8079 23.9306 13.4849 23.9213 13.0773Z" fill="url(#paint31_linear_5838_319959)"/>
<path d="M30.9418 2.47742L35.0302 0.191977C35.4132 -0.0221251 35.8973 0.143078 36.0695 0.546654L37.5385 3.989C37.5933 4.11741 37.6834 4.22765 37.7983 4.30694L41.0727 6.56594C41.5053 6.86439 41.4964 7.50648 41.0556 7.79279L37.2172 10.2864C37.092 10.3677 36.9944 10.4851 36.9373 10.623L35.2706 14.6472C35.0911 15.0806 34.5583 15.2389 34.1713 14.9739L30.3104 12.3304C30.1828 12.243 30.031 12.198 29.8764 12.2015L24.6561 12.3207C24.1074 12.3332 23.7374 11.7639 23.9715 11.2675L25.5987 7.81853C25.6762 7.65424 25.6904 7.46715 25.6387 7.29303L24.5528 3.64195C24.414 3.17533 24.7569 2.70447 25.2436 2.69336L30.5984 2.57108C30.7188 2.56833 30.8366 2.53618 30.9418 2.47742Z" fill="url(#paint32_linear_5838_319959)"/>
<mask id="mask4_5838_319959" style="mask-type:alpha" maskUnits="userSpaceOnUse" x="23" y="0" width="19" height="16">
<path d="M30.942 2.47705L35.0292 0.192288C35.4127 -0.0221105 35.8975 0.143322 36.07 0.547457L37.5384 3.98848C37.5932 4.11707 37.6834 4.22747 37.7985 4.30686L41.0714 6.56482C41.5046 6.86369 41.4957 7.50667 41.0543 7.79338L37.2174 10.286C37.0921 10.3674 36.9944 10.485 36.9372 10.6231L35.2711 14.6458C35.0913 15.0798 34.5578 15.2383 34.1703 14.973L30.3106 12.3303C30.1829 12.2429 30.0309 12.1977 29.8761 12.2012L24.6578 12.3204C24.1083 12.333 23.7377 11.7629 23.9722 11.2658L25.5985 7.81864C25.6762 7.65412 25.6904 7.46677 25.6385 7.29241L24.5532 3.64299C24.4142 3.17572 24.7576 2.70421 25.2449 2.69308L30.5981 2.57085C30.7187 2.56809 30.8367 2.53589 30.942 2.47705Z" fill="#00A3FF"/>
</mask>
<g mask="url(#mask4_5838_319959)">
<path opacity="0.2" d="M30.9562 2.44586L35.0626 0.18222C35.4445 -0.0283457 35.9248 0.135813 36.098 0.536126L36.2132 0.802349L24.1985 12.1822L24.1269 12.114C23.8975 11.8957 23.8327 11.5555 23.9656 11.2681L25.6038 7.72626C25.6797 7.56207 25.6928 7.37573 25.6406 7.20252L24.5585 3.61258C24.4175 3.14474 24.761 2.67122 25.2495 2.66007L30.6161 2.53752C30.7352 2.5348 30.8519 2.50336 30.9562 2.44586Z" fill="white"/>
<path opacity="0.2" d="M29.67 12.2049L28.1917 12.2387L37.1478 2.86396L37.615 3.88863L29.67 12.2049Z" fill="white"/>
</g>
<ellipse cx="28.5646" cy="5.07623" rx="1.87658" ry="1.37616" transform="rotate(-24.6439 28.5646 5.07623)" fill="white"/>
<ellipse cx="31.0747" cy="3.77799" rx="0.585648" ry="0.429475" transform="rotate(-24.6439 31.0747 3.77799)" fill="white"/>
<path opacity="0.1" d="M20.2165 53.1695C20.4718 53.2634 20.6921 53.3844 20.8649 53.5258C21.0377 53.6672 21.1596 53.826 21.2235 53.9933C21.2874 54.1605 21.2922 54.3329 21.2375 54.5005C21.1828 54.6681 21.0697 54.8277 20.9048 54.97L16.382 59.2112L18.3069 59.8498L18.4181 59.8893C19.4704 60.2408 19.4663 60.7328 18.4089 60.9796L6.87271 63.6756C6.74343 63.7161 6.59976 63.7404 6.45161 63.7466C6.30345 63.7528 6.15432 63.741 6.01447 63.7117C5.68938 63.6029 5.67479 63.2988 6.0216 62.8675L9.54866 58.6903L7.42701 57.9777C6.89628 57.7752 6.51623 57.4699 6.36064 57.1208C6.20505 56.7718 6.28502 56.4041 6.58503 56.089L10.5098 51.5437C10.6226 51.3873 10.7924 51.2463 11.0084 51.1296C11.2244 51.013 11.4819 50.9232 11.7642 50.8661C12.0466 50.809 12.3476 50.7858 12.6481 50.798C12.9486 50.8102 13.2419 50.8575 13.5091 50.937L20.2165 53.1695Z" fill="black"/>
<path d="M18.028 56.4214L17.9283 56.3638L16.2115 55.4292L15.8191 55.1606L13.2399 55.8201L14.964 56.7469L15.0638 56.8045C16.0064 57.3148 16.0274 58.0844 15.1104 58.5096L5.10515 63.1549C4.96708 63.2186 4.82098 63.2633 4.67087 63.2876L7.68043 62.9032C7.83156 62.8794 7.97802 62.8321 8.1145 62.763L18.12 58.1253C18.9993 57.701 18.9782 56.9315 18.028 56.4214Z" fill="url(#paint33_linear_5838_319959)"/>
<path d="M19.2799 45.8473L13.302 42.6057C12.9863 42.4362 12.6255 42.3696 12.27 42.415L9.26044 42.7994C9.61582 42.7574 9.97559 42.8238 10.2925 42.9901L16.2703 46.2317C16.4994 46.3689 16.6992 46.55 16.8582 46.7646C17.0172 46.9792 17.1323 47.223 17.1969 47.4822C17.2615 47.7413 17.2743 48.0107 17.2346 48.2748C17.195 48.5389 17.1036 48.7926 16.9657 49.0213L13.203 55.8213L16.2124 55.4294L19.9678 48.6372C20.106 48.4089 20.1978 48.1556 20.2381 47.8917C20.2783 47.6279 20.2661 47.3587 20.2022 47.0996C20.1383 46.8405 20.024 46.5965 19.8657 46.3816C19.7075 46.1668 19.5084 45.9852 19.2799 45.8473V45.8473Z" fill="url(#paint34_linear_5838_319959)"/>
<g style="mix-blend-mode:overlay">
<path d="M15.1619 56.7643L15.0622 56.7066L13.3839 55.8012L13.2406 55.8051L14.9647 56.7319L15.0645 56.7896C16.0071 57.2999 16.0281 58.0694 15.1111 58.4947L5.19598 63.1224L15.209 58.4844C16.1256 58.0441 16.1046 57.2745 15.1619 56.7643Z" fill="white"/>
</g>
<g style="mix-blend-mode:overlay">
<path d="M17.163 49.0154C17.3019 48.7869 17.3941 48.5332 17.4343 48.2689C17.4745 48.0046 17.4619 47.7349 17.3972 47.4755C17.3325 47.2161 17.2171 46.9721 17.0575 46.7576C16.8979 46.543 16.6974 46.3623 16.4676 46.2258L10.4975 42.9915C10.2183 42.8409 9.90264 42.7711 9.58596 42.7899C9.85122 42.7973 10.1113 42.865 10.3464 42.9881L16.3242 46.2297C16.5533 46.3669 16.7531 46.548 16.9121 46.7626C17.0711 46.9772 17.1862 47.2211 17.2508 47.4802C17.3154 47.7393 17.3282 48.0087 17.2886 48.2728C17.2489 48.5369 17.1575 48.7906 17.0197 49.0193L13.257 55.8193L13.4305 55.8145L17.163 49.0154Z" fill="white"/>
</g>
<path d="M16.3084 46.2302C16.5375 46.3675 16.7373 46.5486 16.8963 46.7632C17.0553 46.9778 17.1704 47.2216 17.235 47.4808C17.2996 47.7399 17.3124 48.0093 17.2728 48.2734C17.2331 48.5375 17.1417 48.7912 17.0038 49.0199L13.2411 55.8198L14.9653 56.7466L15.065 56.8043C16.0077 57.3146 16.0287 58.0841 15.1117 58.5094L5.10641 63.1547C4.9948 63.2229 4.86973 63.2661 4.73982 63.2814C4.6099 63.2967 4.47821 63.2837 4.35381 63.2432C4.06258 63.0851 4.03449 62.6102 4.31769 61.9229L7.20833 55.2601L5.30756 54.2249C4.83087 53.9281 4.48146 53.4648 4.32717 52.9249C4.17288 52.385 4.22472 51.807 4.47261 51.3031L7.6944 44.0499C7.78568 43.8012 7.92788 43.5744 8.11189 43.3839C8.29591 43.1934 8.51768 43.0434 8.76301 42.9436C9.00833 42.8438 9.27181 42.7963 9.53655 42.8042C9.80129 42.8121 10.0615 42.8752 10.3004 42.9895L16.3084 46.2302Z" fill="url(#paint35_linear_5838_319959)"/>
<g style="mix-blend-mode:overlay">
<path d="M13.1278 44.5064L10.3305 42.9898C10.0901 42.8704 9.82713 42.8033 9.55891 42.7928C9.2907 42.7823 9.02329 42.8287 8.77429 42.9289C8.52529 43.0292 8.30032 43.181 8.11418 43.3744C7.92804 43.5678 7.78495 43.7984 7.69431 44.051L7.56615 44.3339L14.0168 54.3728L16.5279 49.842L13.1278 44.5064Z" fill="url(#paint36_linear_5838_319959)"/>
<path d="M5.91794 48.0927L4.49614 51.3178C4.24824 51.8216 4.1964 52.3996 4.3507 52.9395C4.50499 53.4794 4.8544 53.9427 5.33109 54.2395L7.21635 55.2601L5.19921 59.9057L6.52407 61.9684C6.72312 62.0687 6.92175 62.1539 7.12018 62.2315L13.2039 59.4074L5.91794 48.0927Z" fill="url(#paint37_linear_5838_319959)"/>
</g>
<path opacity="0.1" d="M67.1481 13.8218C67.4034 13.9157 67.6237 14.0368 67.7965 14.1781C67.9693 14.3195 68.0912 14.4784 68.1551 14.6456C68.2191 14.8129 68.2238 14.9853 68.1692 15.1529C68.1145 15.3205 68.0014 15.48 67.8364 15.6224L63.3136 19.8635L65.2386 20.5021L65.3498 20.5417C66.4021 20.8931 66.3979 21.3852 65.3406 21.6319L53.8044 24.3279C53.6751 24.3685 53.5314 24.3927 53.3832 24.3989C53.2351 24.4052 53.086 24.3933 52.9461 24.3641C52.621 24.2552 52.6064 23.9511 52.9532 23.5199L56.4803 19.3427L54.3587 18.63C53.8279 18.4276 53.4479 18.1222 53.2923 17.7732C53.1367 17.4242 53.2167 17.0564 53.5167 16.7413L57.4415 12.196C57.5543 12.0397 57.7241 11.8987 57.9401 11.782C58.1561 11.6653 58.4135 11.5755 58.6959 11.5184C58.9782 11.4613 59.2793 11.4381 59.5798 11.4503C59.8802 11.4625 60.1735 11.5099 60.4408 11.5893L67.1481 13.8218Z" fill="black"/>
<path d="M64.9597 17.0735L64.86 17.0159L63.1431 16.0813L62.7507 15.8127L60.1715 16.4722L61.8957 17.399L61.9954 17.4566C62.938 17.9669 62.9591 18.7365 62.042 19.1617L52.0368 23.807C51.8987 23.8707 51.7526 23.9154 51.6025 23.9397L54.6121 23.5553C54.7632 23.5315 54.9097 23.4842 55.0461 23.4151L65.0516 18.7774C65.9309 18.3531 65.9099 17.5836 64.9597 17.0735Z" fill="url(#paint38_linear_5838_319959)"/>
<path d="M66.2115 6.49943L60.2337 3.25784C59.9179 3.08835 59.5571 3.02167 59.2016 3.06711L56.1921 3.45147C56.5475 3.40948 56.9072 3.47595 57.2241 3.64218L63.2019 6.88377C63.4311 7.02102 63.6308 7.20213 63.7898 7.41672C63.9488 7.6313 64.0639 7.87515 64.1285 8.13429C64.1931 8.39343 64.206 8.66278 64.1663 8.92689C64.1266 9.191 64.0352 9.44468 63.8974 9.67341L60.1347 16.4734L63.144 16.0815L66.8994 9.28928C67.0376 9.06098 67.1295 8.80767 67.1697 8.54385C67.2099 8.28002 67.1978 8.01084 67.1339 7.75172C67.07 7.4926 66.9556 7.24863 66.7974 7.03374C66.6391 6.81886 66.44 6.6373 66.2115 6.49943V6.49943Z" fill="url(#paint39_linear_5838_319959)"/>
<g style="mix-blend-mode:overlay">
<path d="M62.0955 17.4169L61.9958 17.3592L60.3175 16.4538L60.1742 16.4577L61.8983 17.3845L61.9981 17.4422C62.9407 17.9525 62.9617 18.722 62.0447 19.1473L52.1296 23.775L62.1426 19.137C63.0592 18.6967 63.0381 17.9271 62.0955 17.4169Z" fill="white"/>
</g>
<g style="mix-blend-mode:overlay">
<path d="M64.0946 9.66798C64.2335 9.43952 64.3257 9.1858 64.3659 8.92149C64.4061 8.65717 64.3935 8.38752 64.3288 8.12811C64.2642 7.86869 64.1487 7.62466 63.9891 7.41015C63.8296 7.19563 63.6291 7.01488 63.3992 6.87834L57.4291 3.64409C57.1499 3.49344 56.8343 3.42365 56.5176 3.44254C56.7829 3.44985 57.0429 3.51761 57.278 3.64067L63.2559 6.88226C63.485 7.01952 63.6847 7.20062 63.8437 7.41521C64.0027 7.62979 64.1178 7.87364 64.1824 8.13278C64.247 8.39192 64.2599 8.66127 64.2202 8.92538C64.1805 9.18949 64.0892 9.44317 63.9513 9.6719L60.1886 16.4719L60.3621 16.4671L64.0946 9.66798Z" fill="white"/>
</g>
<path d="M63.2401 6.88308C63.4692 7.02034 63.6689 7.20144 63.8279 7.41603C63.9869 7.63061 64.102 7.87446 64.1666 8.1336C64.2312 8.39274 64.2441 8.66209 64.2044 8.9262C64.1647 9.19031 64.0734 9.44399 63.9355 9.67272L60.1728 16.4727L61.8969 17.3995L61.9967 17.4571C62.9393 17.9674 62.9603 18.737 62.0433 19.1622L52.038 23.8075C51.9264 23.8757 51.8014 23.919 51.6715 23.9343C51.5415 23.9495 51.4099 23.9365 51.2855 23.896C50.9942 23.7379 50.9661 23.263 51.2493 22.5758L54.14 15.9129L52.2392 14.8777C51.7625 14.5809 51.4131 14.1176 51.2588 13.5777C51.1045 13.0378 51.1564 12.4598 51.4043 11.956L54.626 4.70268C54.7173 4.45405 54.8595 4.22722 55.0435 4.03673C55.2276 3.84623 55.4493 3.69627 55.6946 3.59645C55.94 3.49663 56.2034 3.44914 56.4682 3.45704C56.7329 3.46494 56.9931 3.52804 57.232 3.64231L63.2401 6.88308Z" fill="url(#paint40_linear_5838_319959)"/>
<g style="mix-blend-mode:overlay">
<path d="M60.0594 5.15874L57.2621 3.64217C57.0217 3.52278 56.7588 3.45565 56.4906 3.44515C56.2223 3.43465 55.9549 3.48103 55.7059 3.58127C55.4569 3.68151 55.232 3.83333 55.0458 4.02672C54.8597 4.22012 54.7166 4.45071 54.626 4.70337L54.4978 4.98625L60.9485 15.0252L63.4595 10.4943L60.0594 5.15874Z" fill="url(#paint41_linear_5838_319959)"/>
<path d="M52.8496 8.74553L51.4278 11.9706C51.1799 12.4744 51.128 13.0524 51.2823 13.5923C51.4366 14.1323 51.786 14.5956 52.2627 14.8923L54.148 15.9129L52.1308 20.5586L53.4557 22.6213C53.6548 22.7215 53.8534 22.8067 54.0518 22.8843L60.1355 20.0602L52.8496 8.74553Z" fill="url(#paint42_linear_5838_319959)"/>
</g>
<path opacity="0.1" d="M82.2341 41.461C82.4893 41.5549 82.7097 41.6759 82.8825 41.8173C83.0553 41.9587 83.1771 42.1175 83.2411 42.2848C83.305 42.452 83.3098 42.6244 83.2551 42.792C83.2004 42.9596 83.0873 43.1192 82.9224 43.2615L78.3996 47.5027L80.3245 48.1413L80.4357 48.1808C81.488 48.5323 81.4838 49.0243 80.4265 49.2711L68.8903 51.9671C68.761 52.0076 68.6173 52.0319 68.4692 52.0381C68.321 52.0444 68.1719 52.0325 68.0321 52.0032C67.707 51.8944 67.6924 51.5903 68.0392 51.159L71.5662 46.9818L69.4446 46.2692C68.9139 46.0667 68.5338 45.7614 68.3782 45.4123C68.2226 45.0633 68.3026 44.6956 68.6026 44.3805L72.5274 39.8352C72.6402 39.6788 72.81 39.5378 73.026 39.4211C73.242 39.3045 73.4994 39.2147 73.7818 39.1576C74.0642 39.1005 74.3652 39.0773 74.6657 39.0895C74.9662 39.1017 75.2594 39.149 75.5267 39.2285L82.2341 41.461Z" fill="black"/>
<path d="M80.0456 44.7132L79.9459 44.6555L78.2291 43.7209L77.8367 43.4523L75.2575 44.1118L76.9816 45.0386L77.0813 45.0963C78.024 45.6066 78.045 46.3761 77.128 46.8014L67.1227 51.4466C66.9847 51.5104 66.8386 51.555 66.6884 51.5793L69.698 51.195C69.8491 51.1712 69.9956 51.1239 70.1321 51.0548L80.1375 46.417C81.0169 45.9928 80.9958 45.2232 80.0456 44.7132Z" fill="url(#paint43_linear_5838_319959)"/>
<path d="M81.2994 34.1391L75.3216 30.8975C75.0058 30.728 74.645 30.6613 74.2895 30.7068L71.28 31.0911C71.6354 31.0491 71.9951 31.1156 72.312 31.2818L78.2898 34.5234C78.5189 34.6607 78.7187 34.8418 78.8777 35.0564C79.0367 35.2709 79.1518 35.5148 79.2164 35.7739C79.281 36.0331 79.2938 36.3024 79.2542 36.5665C79.2145 36.8306 79.1231 37.0843 78.9853 37.3131L75.2226 44.113L78.2319 43.7211L81.9873 36.9289C82.1255 36.7006 82.2174 36.4473 82.2576 36.1835C82.2978 35.9197 82.2857 35.6505 82.2218 35.3914C82.1579 35.1323 82.0435 34.8883 81.8853 34.6734C81.727 34.4585 81.5279 34.2769 81.2994 34.1391V34.1391Z" fill="url(#paint44_linear_5838_319959)"/>
<g style="mix-blend-mode:overlay">
<path d="M77.1815 45.0558L77.0817 44.9981L75.4035 44.0927L75.2601 44.0966L76.9843 45.0234L77.084 45.0811C78.0266 45.5914 78.0477 46.3609 77.1306 46.7862L67.2155 51.4139L77.2285 46.7759C78.1451 46.3356 78.1241 45.5661 77.1815 45.0558Z" fill="white"/>
</g>
<g style="mix-blend-mode:overlay">
<path d="M79.1806 37.3071C79.3195 37.0787 79.4116 36.825 79.4518 36.5606C79.492 36.2963 79.4794 36.0267 79.4148 35.7673C79.3501 35.5079 79.2347 35.2638 79.0751 35.0493C78.9155 34.8348 78.715 34.654 78.4851 34.5175L72.5151 31.2833C72.2359 31.1326 71.9202 31.0628 71.6035 31.0817C71.8688 31.089 72.1289 31.1568 72.364 31.2798L78.3418 34.5214C78.5709 34.6587 78.7707 34.8398 78.9297 35.0544C79.0887 35.269 79.2038 35.5128 79.2684 35.7719C79.333 36.0311 79.3458 36.3004 79.3061 36.5645C79.2665 36.8287 79.1751 37.0823 79.0372 37.3111L75.2745 44.111L75.4481 44.1063L79.1806 37.3071Z" fill="white"/>
</g>
<path d="M78.326 34.5222C78.5551 34.6595 78.7549 34.8406 78.9139 35.0552C79.0728 35.2698 79.1879 35.5136 79.2526 35.7728C79.3172 36.0319 79.33 36.3013 79.2903 36.5654C79.2507 36.8295 79.1593 37.0831 79.0214 37.3119L75.2587 44.1118L76.9829 45.0386L77.0826 45.0963C78.0252 45.6066 78.0463 46.3761 77.1292 46.8014L67.124 51.4467C67.0124 51.5149 66.8873 51.5581 66.7574 51.5734C66.6275 51.5887 66.4958 51.5757 66.3714 51.5352C66.0802 51.3771 66.0521 50.9022 66.3353 50.2149L69.2259 43.5521L67.3251 42.5168C66.8485 42.2201 66.499 41.7568 66.3448 41.2169C66.1905 40.6769 66.2423 40.099 66.4902 39.5951L69.712 32.3418C69.8033 32.0932 69.9455 31.8664 70.1295 31.6759C70.3135 31.4854 70.5353 31.3354 70.7806 31.2356C71.0259 31.1358 71.2894 31.0883 71.5541 31.0962C71.8189 31.1041 72.079 31.1672 72.318 31.2815L78.326 34.5222Z" fill="url(#paint45_linear_5838_319959)"/>
<g style="mix-blend-mode:overlay">
<path d="M75.1473 32.7984L72.35 31.2818C72.1096 31.1624 71.8467 31.0953 71.5784 31.0848C71.3102 31.0743 71.0428 31.1207 70.7938 31.2209C70.5448 31.3212 70.3199 31.473 70.1337 31.6664C69.9476 31.8598 69.8045 32.0904 69.7138 32.343L69.5857 32.6259L76.0364 42.6648L78.5474 38.134L75.1473 32.7984Z" fill="url(#paint46_linear_5838_319959)"/>
<path d="M67.9375 36.3854L66.5157 39.6105C66.2678 40.1143 66.2159 40.6923 66.3702 41.2322C66.5245 41.7721 66.8739 42.2355 67.3506 42.5322L69.2359 43.5528L67.2187 48.1985L68.5436 50.2612C68.7426 50.3614 68.9413 50.4466 69.1397 50.5242L75.2234 47.7001L67.9375 36.3854Z" fill="url(#paint47_linear_5838_319959)"/>
</g>
<path d="M103.43 25.1144L102.249 20.336C87.0995 28.0345 77.741 66.2905 76.5309 78.9889L79.8649 75.7554C84.2531 47.7967 98.6198 28.5547 103.43 25.1144Z" fill="url(#paint48_linear_5838_319959)"/>
<path opacity="0.5" d="M46.7474 12.7845C41.0695 17.9722 28.7443 34.7736 24.866 60.4774" stroke="url(#paint49_linear_5838_319959)" stroke-width="0.413467"/>
<path opacity="0.5" d="M74.0345 18.9979C68.3786 24.3894 56.1278 41.8803 52.3713 68.7108" stroke="url(#paint50_linear_5838_319959)" stroke-width="0.413467"/>
</g>
</g>
</g>
<defs>
<linearGradient id="paint0_linear_5838_319959" x1="1.23425" y1="51.412" x2="138.817" y2="-151.772" gradientUnits="userSpaceOnUse">
<stop stop-color="#260077"/>
<stop offset="0.223958" stop-color="#580BED"/>
<stop offset="0.567708" stop-color="#5D09EF"/>
<stop offset="1" stop-color="#5B1CC8"/>
</linearGradient>
<linearGradient id="paint1_linear_5838_319959" x1="86.8007" y1="2.20083" x2="72.5445" y2="90.268" gradientUnits="userSpaceOnUse">
<stop stop-color="#08D6A4"/>
<stop offset="0.421875" stop-color="#15C69B"/>
<stop offset="0.696275" stop-color="#18AB9D"/>
<stop offset="1" stop-color="#045F68"/>
</linearGradient>
<linearGradient id="paint2_linear_5838_319959" x1="11.9418" y1="42.071" x2="54.4738" y2="-17.2856" gradientUnits="userSpaceOnUse">
<stop stop-color="#FFFDEE"/>
<stop offset="0.11" stop-color="#FFFDEE" stop-opacity="0.87"/>
<stop offset="0.44" stop-color="#FFFDEE" stop-opacity="0.5"/>
<stop offset="0.71" stop-color="#FFFDEE" stop-opacity="0.23"/>
<stop offset="0.9" stop-color="#FFFDEE" stop-opacity="0.06"/>
<stop offset="1" stop-color="#FFFDEE" stop-opacity="0"/>
</linearGradient>
<radialGradient id="paint3_radial_5838_319959" cx="0" cy="0" r="1" gradientUnits="userSpaceOnUse" gradientTransform="translate(43.6797 32.2392) rotate(-9.02621) scale(13.8294 13.8294)">
<stop stop-color="#C4EEFF"/>
<stop offset="0.33" stop-color="#4CCAFF"/>
<stop offset="1" stop-color="#003EB0"/>
</radialGradient>
<radialGradient id="paint4_radial_5838_319959" cx="0" cy="0" r="1" gradientUnits="userSpaceOnUse" gradientTransform="translate(38.6801 30.2769) rotate(-9.02621) scale(5.25705 5.25705)">
<stop stop-color="#A5E2FF"/>
<stop offset="1" stop-color="#218CF3"/>
</radialGradient>
<radialGradient id="paint5_radial_5838_319959" cx="0" cy="0" r="1" gradientUnits="userSpaceOnUse" gradientTransform="translate(43.5382 32.6023) rotate(-9.02621) scale(15.203 15.203)">
<stop stop-color="#A5E2FF"/>
<stop offset="1" stop-color="#0088FF"/>
</radialGradient>
<radialGradient id="paint6_radial_5838_319959" cx="0" cy="0" r="1" gradientUnits="userSpaceOnUse" gradientTransform="translate(47.8648 44.197) rotate(-9.02621) scale(10.5685 10.5684)">
<stop stop-color="#A5E2FF"/>
<stop offset="1" stop-color="#0069C2"/>
</radialGradient>
<radialGradient id="paint7_radial_5838_319959" cx="0" cy="0" r="1" gradientUnits="userSpaceOnUse" gradientTransform="translate(55.3791 32.8481) rotate(-9.02621) scale(7.67805 7.67806)">
<stop stop-color="#4CCAFF"/>
<stop offset="1" stop-color="#003EB0"/>
</radialGradient>
<radialGradient id="paint8_radial_5838_319959" cx="0" cy="0" r="1" gradientUnits="userSpaceOnUse" gradientTransform="translate(40.3332 40.6116) rotate(-9.02621) scale(6.70472 6.70471)">
<stop stop-color="#A5E2FF"/>
<stop offset="1" stop-color="#218CF3"/>
</radialGradient>
<radialGradient id="paint9_radial_5838_319959" cx="0" cy="0" r="1" gradientUnits="userSpaceOnUse" gradientTransform="translate(46.328 46.0167) rotate(-9.02621) scale(12.3274 12.3274)">
<stop stop-color="#77D6FF"/>
<stop offset="1" stop-color="#001FB0"/>
</radialGradient>
<radialGradient id="paint10_radial_5838_319959" cx="0" cy="0" r="1" gradientUnits="userSpaceOnUse" gradientTransform="translate(44.4243 44.5233) rotate(-9.02621) scale(11.1861 11.1861)">
<stop stop-color="#A5E2FF"/>
<stop offset="1" stop-color="#0081FF"/>
</radialGradient>
<radialGradient id="paint11_radial_5838_319959" cx="0" cy="0" r="1" gradientUnits="userSpaceOnUse" gradientTransform="translate(52.1426 35.9182) rotate(-9.02621) scale(6.52685 6.52684)">
<stop stop-color="#00000D"/>
<stop offset="1" stop-color="white"/>
</radialGradient>
<radialGradient id="paint12_radial_5838_319959" cx="0" cy="0" r="1" gradientUnits="userSpaceOnUse" gradientTransform="translate(45.7645 37.8066) rotate(-9.02621) scale(7.01598 7.01599)">
<stop offset="0.31" stop-color="#00000D"/>
<stop offset="1" stop-color="#1CB4FF"/>
</radialGradient>
<radialGradient id="paint13_radial_5838_319959" cx="0" cy="0" r="1" gradientUnits="userSpaceOnUse" gradientTransform="translate(50.3461 26.2781) rotate(-9.02621) scale(11.3886 11.3886)">
<stop offset="0.57" stop-color="#00000D"/>
<stop offset="0.6" stop-color="#030613"/>
<stop offset="0.63" stop-color="#0D1524"/>
<stop offset="0.68" stop-color="#1C2F3F"/>
<stop offset="0.72" stop-color="#315466"/>
<stop offset="0.77" stop-color="#4C8298"/>
<stop offset="0.82" stop-color="#6DBAD3"/>
<stop offset="0.86" stop-color="#85E3FF"/>
</radialGradient>
<radialGradient id="paint14_radial_5838_319959" cx="0" cy="0" r="1" gradientUnits="userSpaceOnUse" gradientTransform="translate(82.4265 15.1761) rotate(-9.02621) scale(13.6053 13.6053)">
<stop stop-color="#C4EEFF"/>
<stop offset="0.33" stop-color="#4CCAFF"/>
<stop offset="1" stop-color="#003EB0"/>
</radialGradient>
<radialGradient id="paint15_radial_5838_319959" cx="0" cy="0" r="1" gradientUnits="userSpaceOnUse" gradientTransform="translate(77.5081 13.2449) rotate(-9.02621) scale(5.17187 5.17186)">
<stop stop-color="#A5E2FF"/>
<stop offset="1" stop-color="#218CF3"/>
</radialGradient>
<radialGradient id="paint16_radial_5838_319959" cx="0" cy="0" r="1" gradientUnits="userSpaceOnUse" gradientTransform="translate(82.2855 15.5325) rotate(-9.02621) scale(14.9566 14.9566)">
<stop stop-color="#A5E2FF"/>
<stop offset="1" stop-color="#0088FF"/>
</radialGradient>
<radialGradient id="paint17_radial_5838_319959" cx="0" cy="0" r="1" gradientUnits="userSpaceOnUse" gradientTransform="translate(86.5446 26.9389) rotate(-9.02621) scale(10.3972 10.3972)">
<stop stop-color="#A5E2FF"/>
<stop offset="1" stop-color="#0069C2"/>
</radialGradient>
<radialGradient id="paint18_radial_5838_319959" cx="0" cy="0" r="1" gradientUnits="userSpaceOnUse" gradientTransform="translate(93.9331 15.7746) rotate(-9.02621) scale(7.55363 7.55364)">
<stop stop-color="#4CCAFF"/>
<stop offset="1" stop-color="#003EB0"/>
</radialGradient>
<radialGradient id="paint19_radial_5838_319959" cx="0" cy="0" r="1" gradientUnits="userSpaceOnUse" gradientTransform="translate(79.1334 23.411) rotate(-9.02621) scale(6.59607 6.59607)">
<stop stop-color="#A5E2FF"/>
<stop offset="1" stop-color="#218CF3"/>
</radialGradient>
<radialGradient id="paint20_radial_5838_319959" cx="0" cy="0" r="1" gradientUnits="userSpaceOnUse" gradientTransform="translate(85.0327 28.7296) rotate(-9.02621) scale(12.1276 12.1276)">
<stop stop-color="#77D6FF"/>
<stop offset="1" stop-color="#001FB0"/>
</radialGradient>
<radialGradient id="paint21_radial_5838_319959" cx="0" cy="0" r="1" gradientUnits="userSpaceOnUse" gradientTransform="translate(83.1589 27.2602) rotate(-9.02621) scale(11.0048 11.0048)">
<stop stop-color="#A5E2FF"/>
<stop offset="1" stop-color="#0081FF"/>
</radialGradient>
<radialGradient id="paint22_radial_5838_319959" cx="0" cy="0" r="1" gradientUnits="userSpaceOnUse" gradientTransform="translate(90.7515 18.7944) rotate(-9.02621) scale(6.42109 6.42108)">
<stop stop-color="#00000D"/>
<stop offset="1" stop-color="white"/>
</radialGradient>
<radialGradient id="paint23_radial_5838_319959" cx="0" cy="0" r="1" gradientUnits="userSpaceOnUse" gradientTransform="translate(84.4766 20.6525) rotate(-9.02621) scale(6.90229 6.9023)">
<stop offset="0.31" stop-color="#00000D"/>
<stop offset="1" stop-color="#1CB4FF"/>
</radialGradient>
<radialGradient id="paint24_radial_5838_319959" cx="0" cy="0" r="1" gradientUnits="userSpaceOnUse" gradientTransform="translate(88.9849 9.31092) rotate(-9.02621) scale(11.2041 11.2041)">
<stop offset="0.57" stop-color="#00000D"/>
<stop offset="0.6" stop-color="#030613"/>
<stop offset="0.63" stop-color="#0D1524"/>
<stop offset="0.68" stop-color="#1C2F3F"/>
<stop offset="0.72" stop-color="#315466"/>
<stop offset="0.77" stop-color="#4C8298"/>
<stop offset="0.82" stop-color="#6DBAD3"/>
<stop offset="0.86" stop-color="#85E3FF"/>
</radialGradient>
<linearGradient id="paint25_linear_5838_319959" x1="12.9168" y1="33.4546" x2="30.4954" y2="33.0532" gradientUnits="userSpaceOnUse">
<stop stop-color="#FFAC05"/>
<stop offset="0.61" stop-color="#FF9C05"/>
<stop offset="1" stop-color="#FF8F05"/>
</linearGradient>
<linearGradient id="paint26_linear_5838_319959" x1="13.7782" y1="25.7089" x2="29.892" y2="29.6276" gradientUnits="userSpaceOnUse">
<stop stop-color="#FF8205"/>
<stop offset="0.16" stop-color="#FFAB05"/>
<stop offset="0.25" stop-color="#FFBB05"/>
<stop offset="0.34" stop-color="#FFC405"/>
<stop offset="0.5" stop-color="#FFDD05"/>
<stop offset="0.56" stop-color="#FFEA05"/>
<stop offset="0.64" stop-color="#FFDA05"/>
<stop offset="0.74" stop-color="#FFC905"/>
<stop offset="0.86" stop-color="#FFBE05"/>
<stop offset="1" stop-color="#FFBB05"/>
</linearGradient>
<linearGradient id="paint27_linear_5838_319959" x1="30.786" y1="64.1523" x2="48.3645" y2="63.7509" gradientUnits="userSpaceOnUse">
<stop stop-color="#FFAC05"/>
<stop offset="0.61" stop-color="#FF9C05"/>
<stop offset="1" stop-color="#FF8F05"/>
</linearGradient>
<linearGradient id="paint28_linear_5838_319959" x1="31.6473" y1="56.4071" x2="47.7612" y2="60.3259" gradientUnits="userSpaceOnUse">
<stop stop-color="#FF8205"/>
<stop offset="0.16" stop-color="#FFAB05"/>
<stop offset="0.25" stop-color="#FFBB05"/>
<stop offset="0.34" stop-color="#FFC405"/>
<stop offset="0.5" stop-color="#FFDD05"/>
<stop offset="0.56" stop-color="#FFEA05"/>
<stop offset="0.64" stop-color="#FFDA05"/>
<stop offset="0.74" stop-color="#FFC905"/>
<stop offset="0.86" stop-color="#FFBE05"/>
<stop offset="1" stop-color="#FFBB05"/>
</linearGradient>
<linearGradient id="paint29_linear_5838_319959" x1="57.9891" y1="70.7041" x2="75.5676" y2="70.3027" gradientUnits="userSpaceOnUse">
<stop stop-color="#FFAC05"/>
<stop offset="0.61" stop-color="#FF9C05"/>
<stop offset="1" stop-color="#FF8F05"/>
</linearGradient>
<linearGradient id="paint30_linear_5838_319959" x1="58.8505" y1="62.9584" x2="74.9643" y2="66.8771" gradientUnits="userSpaceOnUse">
<stop stop-color="#FF8205"/>
<stop offset="0.16" stop-color="#FFAB05"/>
<stop offset="0.25" stop-color="#FFBB05"/>
<stop offset="0.34" stop-color="#FFC405"/>
<stop offset="0.5" stop-color="#FFDD05"/>
<stop offset="0.56" stop-color="#FFEA05"/>
<stop offset="0.64" stop-color="#FFDA05"/>
<stop offset="0.74" stop-color="#FFC905"/>
<stop offset="0.86" stop-color="#FFBE05"/>
<stop offset="1" stop-color="#FFBB05"/>
</linearGradient>
<linearGradient id="paint31_linear_5838_319959" x1="23.9207" y1="12.4726" x2="41.4993" y2="12.0712" gradientUnits="userSpaceOnUse">
<stop stop-color="#FFAC05"/>
<stop offset="0.61" stop-color="#FF9C05"/>
<stop offset="1" stop-color="#FF8F05"/>
</linearGradient>
<linearGradient id="paint32_linear_5838_319959" x1="24.7821" y1="4.72793" x2="40.896" y2="8.64668" gradientUnits="userSpaceOnUse">
<stop stop-color="#FF8205"/>
<stop offset="0.16" stop-color="#FFAB05"/>
<stop offset="0.25" stop-color="#FFBB05"/>
<stop offset="0.34" stop-color="#FFC405"/>
<stop offset="0.5" stop-color="#FFDD05"/>
<stop offset="0.56" stop-color="#FFEA05"/>
<stop offset="0.64" stop-color="#FFDA05"/>
<stop offset="0.74" stop-color="#FFC905"/>
<stop offset="0.86" stop-color="#FFBE05"/>
<stop offset="1" stop-color="#FFBB05"/>
</linearGradient>
<linearGradient id="paint33_linear_5838_319959" x1="11.5782" y1="55.2766" x2="11.792" y2="63.0928" gradientUnits="userSpaceOnUse">
<stop stop-color="#00718A"/>
<stop offset="1" stop-color="#002B34"/>
</linearGradient>
<linearGradient id="paint34_linear_5838_319959" x1="14.6832" y1="42.3404" x2="15.0506" y2="55.7707" gradientUnits="userSpaceOnUse">
<stop stop-color="#00718A"/>
<stop offset="1" stop-color="#002B34"/>
</linearGradient>
<linearGradient id="paint35_linear_5838_319959" x1="15.4355" y1="43.5273" x2="5.84172" y2="62.1852" gradientUnits="userSpaceOnUse">
<stop stop-color="#86FFE2"/>
<stop offset="0.421875" stop-color="#4BDDBA"/>
<stop offset="0.696275" stop-color="#0ACFBC"/>
<stop offset="1" stop-color="#053A40"/>
</linearGradient>
<linearGradient id="paint36_linear_5838_319959" x1="9.30097" y1="49.7905" x2="15.9311" y2="46.2418" gradientUnits="userSpaceOnUse">
<stop stop-color="#FFFDEE"/>
<stop offset="0.11" stop-color="#FFFDEE" stop-opacity="0.87"/>
<stop offset="0.44" stop-color="#FFFDEE" stop-opacity="0.5"/>
<stop offset="0.71" stop-color="#FFFDEE" stop-opacity="0.23"/>
<stop offset="0.9" stop-color="#FFFDEE" stop-opacity="0.06"/>
<stop offset="1" stop-color="#FFFDEE" stop-opacity="0"/>
</linearGradient>
<linearGradient id="paint37_linear_5838_319959" x1="11.0657" y1="52.18" x2="5.46323" y2="57.9657" gradientUnits="userSpaceOnUse">
<stop stop-color="#FFFDEE"/>
<stop offset="0.11" stop-color="#FFFDEE" stop-opacity="0.87"/>
<stop offset="0.44" stop-color="#FFFDEE" stop-opacity="0.5"/>
<stop offset="0.71" stop-color="#FFFDEE" stop-opacity="0.23"/>
<stop offset="0.9" stop-color="#FFFDEE" stop-opacity="0.06"/>
<stop offset="1" stop-color="#FFFDEE" stop-opacity="0"/>
</linearGradient>
<linearGradient id="paint38_linear_5838_319959" x1="58.5098" y1="15.9287" x2="58.7237" y2="23.7449" gradientUnits="userSpaceOnUse">
<stop stop-color="#00718A"/>
<stop offset="1" stop-color="#002B34"/>
</linearGradient>
<linearGradient id="paint39_linear_5838_319959" x1="61.6148" y1="2.99252" x2="61.9823" y2="16.4228" gradientUnits="userSpaceOnUse">
<stop stop-color="#00718A"/>
<stop offset="1" stop-color="#002B34"/>
</linearGradient>
<linearGradient id="paint40_linear_5838_319959" x1="62.3671" y1="4.18016" x2="52.7734" y2="22.838" gradientUnits="userSpaceOnUse">
<stop stop-color="#86FFE2"/>
<stop offset="0.421875" stop-color="#4BDDBA"/>
<stop offset="0.696275" stop-color="#0ACFBC"/>
<stop offset="1" stop-color="#053A40"/>
</linearGradient>
<linearGradient id="paint41_linear_5838_319959" x1="56.2326" y1="10.4429" x2="62.8627" y2="6.8941" gradientUnits="userSpaceOnUse">
<stop stop-color="#FFFDEE"/>
<stop offset="0.11" stop-color="#FFFDEE" stop-opacity="0.87"/>
<stop offset="0.44" stop-color="#FFFDEE" stop-opacity="0.5"/>
<stop offset="0.71" stop-color="#FFFDEE" stop-opacity="0.23"/>
<stop offset="0.9" stop-color="#FFFDEE" stop-opacity="0.06"/>
<stop offset="1" stop-color="#FFFDEE" stop-opacity="0"/>
</linearGradient>
<linearGradient id="paint42_linear_5838_319959" x1="57.9974" y1="12.8328" x2="52.3949" y2="18.6185" gradientUnits="userSpaceOnUse">
<stop stop-color="#FFFDEE"/>
<stop offset="0.11" stop-color="#FFFDEE" stop-opacity="0.87"/>
<stop offset="0.44" stop-color="#FFFDEE" stop-opacity="0.5"/>
<stop offset="0.71" stop-color="#FFFDEE" stop-opacity="0.23"/>
<stop offset="0.9" stop-color="#FFFDEE" stop-opacity="0.06"/>
<stop offset="1" stop-color="#FFFDEE" stop-opacity="0"/>
</linearGradient>
<linearGradient id="paint43_linear_5838_319959" x1="73.5958" y1="43.5684" x2="73.8096" y2="51.3845" gradientUnits="userSpaceOnUse">
<stop stop-color="#00718A"/>
<stop offset="1" stop-color="#002B34"/>
</linearGradient>
<linearGradient id="paint44_linear_5838_319959" x1="76.7027" y1="30.6322" x2="77.0702" y2="44.0625" gradientUnits="userSpaceOnUse">
<stop stop-color="#00718A"/>
<stop offset="1" stop-color="#002B34"/>
</linearGradient>
<linearGradient id="paint45_linear_5838_319959" x1="77.4531" y1="31.8193" x2="67.8593" y2="50.4772" gradientUnits="userSpaceOnUse">
<stop stop-color="#86FFE2"/>
<stop offset="0.421875" stop-color="#4BDDBA"/>
<stop offset="0.696275" stop-color="#0ACFBC"/>
<stop offset="1" stop-color="#053A40"/>
</linearGradient>
<linearGradient id="paint46_linear_5838_319959" x1="71.3205" y1="38.0825" x2="77.9506" y2="34.5337" gradientUnits="userSpaceOnUse">
<stop stop-color="#FFFDEE"/>
<stop offset="0.11" stop-color="#FFFDEE" stop-opacity="0.87"/>
<stop offset="0.44" stop-color="#FFFDEE" stop-opacity="0.5"/>
<stop offset="0.71" stop-color="#FFFDEE" stop-opacity="0.23"/>
<stop offset="0.9" stop-color="#FFFDEE" stop-opacity="0.06"/>
<stop offset="1" stop-color="#FFFDEE" stop-opacity="0"/>
</linearGradient>
<linearGradient id="paint47_linear_5838_319959" x1="73.0853" y1="40.4727" x2="67.4828" y2="46.2584" gradientUnits="userSpaceOnUse">
<stop stop-color="#FFFDEE"/>
<stop offset="0.11" stop-color="#FFFDEE" stop-opacity="0.87"/>
<stop offset="0.44" stop-color="#FFFDEE" stop-opacity="0.5"/>
<stop offset="0.71" stop-color="#FFFDEE" stop-opacity="0.23"/>
<stop offset="0.9" stop-color="#FFFDEE" stop-opacity="0.06"/>
<stop offset="1" stop-color="#FFFDEE" stop-opacity="0"/>
</linearGradient>
<linearGradient id="paint48_linear_5838_319959" x1="74.0544" y1="54.1039" x2="161.116" y2="-4.15579" gradientUnits="userSpaceOnUse">
<stop stop-color="#23006D"/>
<stop offset="0.1875" stop-color="#39059F"/>
<stop offset="0.375" stop-color="#4300B9"/>
<stop offset="0.598958" stop-color="#300084"/>
<stop offset="0.802083" stop-color="#220259"/>
<stop offset="1" stop-color="#0D0024"/>
</linearGradient>
<linearGradient id="paint49_linear_5838_319959" x1="22.8766" y1="40.2769" x2="94.1722" y2="-8.04351" gradientUnits="userSpaceOnUse">
<stop stop-color="#6A39D2"/>
<stop offset="0.244792" stop-color="#3C0994"/>
<stop offset="0.552083" stop-color="#5D28BA"/>
<stop offset="0.765625" stop-color="#4D2395"/>
<stop offset="1" stop-color="#350786"/>
</linearGradient>
<linearGradient id="paint50_linear_5838_319959" x1="50.2836" y1="47.6006" x2="123.118" y2="0.131216" gradientUnits="userSpaceOnUse">
<stop stop-color="#6A39D2"/>
<stop offset="0.244792" stop-color="#3C0994"/>
<stop offset="0.552083" stop-color="#5D28BA"/>
<stop offset="0.765625" stop-color="#4D2395"/>
<stop offset="1" stop-color="#350786"/>
</linearGradient>
<clipPath id="clip0_5838_319959">
<rect width="103" height="79" fill="white"/>
</clipPath>
<clipPath id="clip1_5838_319959">
<rect width="105.781" height="105.781" fill="white" transform="translate(15.1387 -29) rotate(14.3059)"/>
</clipPath>
<clipPath id="clip2_5838_319959">
<rect width="105.781" height="105.781" fill="white" transform="translate(-2.43359 -2.84595) rotate(1.27348)"/>
</clipPath>
<clipPath id="clip3_5838_319959">
<rect width="24.9359" height="24.9359" fill="white" transform="translate(31.123 24.9512) rotate(-9.02621)"/>
</clipPath>
<clipPath id="clip4_5838_319959">
<rect width="24.5318" height="24.5318" fill="white" transform="translate(70.0723 8.00562) rotate(-9.02621)"/>
</clipPath>
</defs>
</svg>
