<svg width="111" height="111" viewBox="0 0 111 111" fill="none" xmlns="http://www.w3.org/2000/svg">
<g clip-path="url(#clip0_5838_320287)">
<ellipse cx="62.7023" cy="72.5226" rx="37.8021" ry="39.8422" transform="rotate(75.1093 62.7023 72.5226)" fill="url(#paint0_linear_5838_320287)"/>
<ellipse cx="61.4382" cy="67.7443" rx="37.287" ry="40.3038" transform="rotate(75.1093 61.4382 67.7443)" fill="url(#paint1_linear_5838_320287)"/>
<path opacity="0.25" fill-rule="evenodd" clip-rule="evenodd" d="M24.2962 77.6199C29.3423 96.5969 50.0615 107.559 70.5738 102.105C70.73 102.063 70.8857 102.021 71.041 101.978C51.197 107.008 31.28 96.3721 26.408 78.0499C21.4979 59.5843 33.7284 40.3044 53.7255 34.9871C73.5563 29.7139 93.5781 40.1522 98.6984 58.3348C98.6594 58.1791 98.6192 58.0235 98.5779 57.868C93.5318 38.891 72.8126 27.9288 52.3003 33.3832C31.788 38.8375 19.2501 58.643 24.2962 77.6199Z" fill="white"/>
<mask id="mask0_5838_320287" style="mask-type:alpha" maskUnits="userSpaceOnUse" x="27" y="36" width="69" height="62">
<ellipse cx="61.4684" cy="66.8896" rx="30.4339" ry="34.0809" transform="rotate(75.1093 61.4684 66.8896)" fill="white"/>
</mask>
<g mask="url(#mask0_5838_320287)">
<path d="M77.6099 97.2223L61.0684 62.2002L94.7775 87.9753L77.6099 97.2223Z" fill="url(#paint2_linear_5838_320287)"/>
<path d="M94.7782 87.9754L61.0691 62.2003L104.039 72.5655L94.7782 87.9754Z" fill="url(#paint3_linear_5838_320287)"/>
<path d="M99.5932 41.2203L61.0697 62.2004L105.088 56.8388L99.5932 41.2203Z" fill="url(#paint4_linear_5838_320287)"/>
<path d="M77.6099 97.2223L61.0684 62.2002L55.3169 101.015L77.6099 97.2223Z" fill="url(#paint5_linear_5838_320287)"/>
<path d="M55.3172 101.016L61.0687 62.2003L39.187 96.9022L55.3172 101.016Z" fill="url(#paint6_linear_5838_320287)"/>
<path d="M39.1868 96.9023L61.0684 62.2003L25.8822 84.0314L39.1868 96.9023Z" fill="url(#paint7_linear_5838_320287)"/>
<path d="M25.8832 84.0313L61.0694 62.2002L20.8134 66.7442L25.8832 84.0313Z" fill="url(#paint8_linear_5838_320287)"/>
<path d="M20.8144 66.7443L61.0703 62.2004L21.6016 47.3965L20.8144 66.7443Z" fill="url(#paint9_linear_5838_320287)"/>
<path d="M21.6003 47.3966L61.0691 62.2004L30.3052 31.8449L21.6003 47.3966Z" fill="url(#paint10_linear_5838_320287)"/>
<path d="M30.3046 31.845L61.0685 62.2005L46.0761 23.4268L30.3046 31.845Z" fill="url(#paint11_linear_5838_320287)"/>
<path d="M46.0785 23.4269L61.0709 62.2006L67.6623 22.4148L46.0785 23.4269Z" fill="url(#paint12_linear_5838_320287)"/>
<path d="M67.6602 22.4148L61.0688 62.2007L85.7315 28.2079L67.6602 22.4148Z" fill="url(#paint13_linear_5838_320287)"/>
<path d="M85.7306 28.2076L61.0679 62.2003L99.5914 41.2203L85.7306 28.2076Z" fill="url(#paint14_linear_5838_320287)"/>
<path d="M105.088 56.8388L61.0696 62.2004L104.04 72.5657L105.088 56.8388Z" fill="url(#paint15_linear_5838_320287)"/>
</g>
<ellipse opacity="0.1" cx="61.4918" cy="66.5981" rx="30.4339" ry="34.0809" transform="rotate(75.1093 61.4918 66.5981)" fill="white"/>
<ellipse opacity="0.5" cx="61.5496" cy="63.3978" rx="6.75191" ry="5.94345" transform="rotate(-16.1908 61.5496 63.3978)" fill="black"/>
<ellipse cx="60.0112" cy="63.3828" rx="6.86446" ry="5.94345" transform="rotate(-16.1908 60.0112 63.3828)" fill="url(#paint16_linear_5838_320287)"/>
<ellipse cx="59.7435" cy="62.4599" rx="6.86446" ry="5.51563" transform="rotate(-16.1908 59.7435 62.4599)" fill="url(#paint17_linear_5838_320287)"/>
<g opacity="0.15">
<mask id="mask1_5838_320287" style="mask-type:alpha" maskUnits="userSpaceOnUse" x="21" y="30" width="81" height="76">
<ellipse cx="61.4382" cy="67.744" rx="37.287" ry="40.3038" transform="rotate(75.1093 61.4382 67.744)" fill="#6811B6"/>
</mask>
<g mask="url(#mask1_5838_320287)">
<g opacity="0.4">
<path d="M57.9454 24.6825L58.5622 22.2637L86.2432 22.9994L85.6566 25.2997C85.5671 25.6506 85.3155 25.9377 84.9795 26.0725L79.0126 28.4653C78.8285 28.5392 78.667 28.66 78.5442 28.8157L74.0444 34.5198C73.6035 35.0788 72.7625 35.0982 72.2962 34.5602L66.9133 28.3495C66.7617 28.1747 66.5604 28.0503 66.3362 27.9932L58.7645 26.0623C58.1572 25.9075 57.7905 25.2897 57.9454 24.6825Z" fill="black"/>
<path d="M72.6997 11.9151L79.6845 10.2265C80.3399 10.068 80.9881 10.5128 81.0761 11.1813L81.825 16.8738C81.853 17.0865 81.9408 17.287 82.0781 17.4518L85.9828 22.1411C86.4997 22.7618 86.2209 23.7084 85.4501 23.9499L78.7495 26.0492C78.5305 26.1178 78.3375 26.2511 78.1959 26.4316L74.0717 31.6892C73.6269 32.2563 72.7729 32.2703 72.3097 31.718L67.6965 26.2178C67.5438 26.0358 67.3378 25.9062 67.1075 25.8475L59.3455 23.8682C58.5282 23.6597 58.216 22.6641 58.7679 22.0262L62.5955 17.603C62.7782 17.3919 62.8766 17.1209 62.872 16.8417L62.7752 10.9994C62.7628 10.2514 63.4651 9.69633 64.1901 9.8812L72.1527 11.9117C72.3321 11.9575 72.5198 11.9586 72.6997 11.9151Z" fill="black"/>
<path d="M28.5219 36.4944L29.0889 34.2711L54.5323 34.9473L53.9931 37.0617C53.9108 37.3842 53.6796 37.6481 53.3707 37.772L47.8862 39.9714C47.717 40.0393 47.5685 40.1503 47.4556 40.2935L43.3196 45.5365C42.9143 46.0503 42.1413 46.0682 41.7127 45.5736L36.7649 39.8649C36.6256 39.7042 36.4405 39.59 36.2345 39.5374L29.2748 37.7627C28.7167 37.6203 28.3796 37.0525 28.5219 36.4944Z" fill="black"/>
<path d="M42.0831 24.7595L48.5033 23.2073C49.1057 23.0617 49.7015 23.4705 49.7824 24.085L50.4708 29.3173C50.4965 29.5129 50.5772 29.6971 50.7034 29.8487L54.2925 34.1589C54.7676 34.7294 54.5113 35.5995 53.8029 35.8214L47.6438 37.751C47.4426 37.8141 47.2652 37.9366 47.1351 38.1026L43.3442 42.9351C42.9353 43.4564 42.1503 43.4692 41.7246 42.9616L37.4844 37.9061C37.344 37.7387 37.1546 37.6196 36.943 37.5657L29.8084 35.7463C29.0572 35.5547 28.7702 34.6395 29.2775 34.0533L32.7957 29.9876C32.9636 29.7936 33.0541 29.5444 33.0498 29.2879L32.9609 23.9178C32.9495 23.2303 33.595 22.7201 34.2613 22.89L41.5803 24.7564C41.7452 24.7984 41.9178 24.7995 42.0831 24.7595Z" fill="black"/>
<mask id="mask2_5838_320287" style="mask-type:alpha" maskUnits="userSpaceOnUse" x="29" y="22" width="26" height="22">
<path d="M42.0831 24.7588L48.5033 23.2066C49.1057 23.061 49.7015 23.4698 49.7824 24.0843L50.4708 29.3166C50.4965 29.5121 50.5772 29.6964 50.7034 29.8479L54.2925 34.1581C54.7676 34.7286 54.5113 35.5988 53.8029 35.8207L47.6438 37.7503C47.4426 37.8133 47.2652 37.9359 47.1351 38.1018L43.3442 42.9344C42.9353 43.4557 42.1503 43.4685 41.7246 42.9609L37.4844 37.9053C37.344 37.738 37.1546 37.6189 36.943 37.5649L29.8084 35.7456C29.0572 35.554 28.7702 34.6388 29.2775 34.0526L32.7957 29.9869C32.9636 29.7928 33.0541 29.5437 33.0498 29.2871L32.9609 23.9171C32.9495 23.2295 33.595 22.7193 34.2613 22.8893L41.5803 24.7556C41.7452 24.7977 41.9178 24.7988 42.0831 24.7588Z" fill="#00A3FF"/>
</mask>
<g mask="url(#mask2_5838_320287)">
<path opacity="0.5" d="M42.115 24.7236L48.5532 23.2074C49.1521 23.0664 49.7423 23.4718 49.8256 24.0814L49.881 24.4868L29.2378 35.3852L29.1663 35.2654C28.9376 34.8817 28.9786 34.395 29.2683 34.0549L32.8386 29.8652C33.0041 29.6709 33.0927 29.4228 33.0875 29.1676L32.9805 23.8797C32.9665 23.1905 33.613 22.6776 34.2809 22.848L41.6182 24.719C41.781 24.7606 41.9515 24.7621 42.115 24.7236Z" fill="black"/>
<path opacity="0.5" d="M36.6635 37.4936L34.6423 36.9782L50.3691 27.6426L50.6146 29.212L36.6635 37.4936Z" fill="black"/>
</g>
<path d="M11.5557 57.4943L12.0382 55.602L33.6938 56.1776L33.2349 57.9771C33.1649 58.2516 32.9681 58.4762 32.7051 58.5817L28.0371 60.4537C27.8931 60.5114 27.7667 60.6059 27.6706 60.7278L24.1504 65.1902C23.8054 65.6276 23.1475 65.6428 22.7827 65.2218L18.5715 60.3631C18.4529 60.2263 18.2954 60.129 18.12 60.0843L12.1965 58.5737C11.7214 58.4526 11.4345 57.9693 11.5557 57.4943Z" fill="black"/>
<path d="M23.0984 47.5058L28.5628 46.1847C29.0755 46.0607 29.5826 46.4087 29.6514 46.9317L30.2374 51.3851C30.2593 51.5515 30.3279 51.7083 30.4353 51.8373L33.4901 55.5058C33.8945 55.9914 33.6764 56.732 33.0734 56.9209L27.8313 58.5632C27.66 58.6169 27.509 58.7212 27.3982 58.8624L24.1718 62.9755C23.8237 63.4192 23.1556 63.4302 22.7932 62.9981L19.1843 58.6952C19.0648 58.5527 18.9036 58.4514 18.7235 58.4055L12.6511 56.857C12.0117 56.6939 11.7674 55.915 12.1992 55.416L15.1936 51.9556C15.3365 51.7904 15.4135 51.5784 15.4099 51.36L15.3342 46.7894C15.3245 46.2042 15.8739 45.77 16.4411 45.9146L22.6705 47.5031C22.8108 47.5389 22.9577 47.5398 23.0984 47.5058Z" fill="black"/>
<mask id="mask3_5838_320287" style="mask-type:alpha" maskUnits="userSpaceOnUse" x="11" y="45" width="23" height="19">
<path d="M23.0984 47.5065L28.5628 46.1854C29.0755 46.0615 29.5826 46.4094 29.6514 46.9324L30.2374 51.3858C30.2593 51.5522 30.3279 51.7091 30.4353 51.838L33.4901 55.5066C33.8945 55.9921 33.6764 56.7327 33.0734 56.9216L27.8313 58.564C27.66 58.6176 27.509 58.7219 27.3982 58.8632L24.1718 62.9763C23.8237 63.42 23.1556 63.4309 22.7932 62.9988L19.1843 58.6959C19.0648 58.5535 18.9036 58.4521 18.7235 58.4062L12.6511 56.8577C12.0117 56.6946 11.7674 55.9157 12.1992 55.4167L15.1936 51.9563C15.3365 51.7911 15.4135 51.5791 15.4099 51.3607L15.3342 46.7902C15.3245 46.2049 15.8739 45.7707 16.4411 45.9153L22.6705 47.5039C22.8108 47.5396 22.9577 47.5406 23.0984 47.5065Z" fill="#00A3FF"/>
</mask>
<g mask="url(#mask3_5838_320287)">
<path opacity="0.5" d="M23.1252 47.4757L28.6049 46.1852C29.1146 46.0652 29.617 46.4102 29.6879 46.929L29.735 47.2741L12.165 56.55L12.1042 56.4481C11.9095 56.1215 11.9444 55.7072 12.191 55.4178L15.2298 51.8518C15.3707 51.6865 15.446 51.4752 15.4416 51.2581L15.3505 46.7573C15.3386 46.1708 15.8889 45.7343 16.4573 45.8792L22.7024 47.4718C22.8409 47.5071 22.986 47.5084 23.1252 47.4757Z" fill="black"/>
<path opacity="0.5" d="M18.4829 58.345L16.7626 57.9063L30.1481 49.9605L30.3571 51.2963L18.4829 58.345Z" fill="black"/>
</g>
<ellipse cx="19.5098" cy="49.744" rx="2.25304" ry="1.65223" transform="rotate(-9.0299 19.5098 49.744)" fill="black"/>
<ellipse cx="22.83" cy="49.0534" rx="0.703134" ry="0.515631" transform="rotate(-9.0299 22.83 49.0534)" fill="black"/>
<path d="M13.84 80.3721L14.2623 78.7161L33.2137 79.2198L32.8121 80.7946C32.7508 81.0349 32.5786 81.2314 32.3485 81.3237L28.2634 82.9619C28.1374 83.0125 28.0268 83.0952 27.9426 83.2018L24.862 87.107C24.5601 87.4897 23.9844 87.503 23.6651 87.1347L19.9797 82.8826C19.876 82.7629 19.7381 82.6778 19.5847 82.6387L14.4008 81.3167C13.9851 81.2107 13.734 80.7878 13.84 80.3721Z" fill="black"/>
<path d="M23.9419 71.6311L28.7239 70.475C29.1726 70.3665 29.6164 70.671 29.6766 71.1287L30.1894 75.026C30.2086 75.1717 30.2686 75.3089 30.3626 75.4218L33.036 78.6322C33.3898 79.0571 33.1989 79.7052 32.6713 79.8706L28.0837 81.3078C27.9339 81.3548 27.8017 81.4461 27.7048 81.5696L24.8812 85.1691C24.5766 85.5574 23.9919 85.567 23.6748 85.1889L20.5165 81.4233C20.412 81.2986 20.2709 81.2099 20.1133 81.1697L14.7991 79.8146C14.2396 79.6719 14.0258 78.9902 14.4037 78.5536L17.0242 75.5252C17.1493 75.3807 17.2167 75.1952 17.2135 75.0041L17.1472 71.0042C17.1387 70.4921 17.6195 70.1121 18.1159 70.2386L23.5674 71.6288C23.6902 71.6601 23.8187 71.6609 23.9419 71.6311Z" fill="black"/>
<mask id="mask4_5838_320287" style="mask-type:alpha" maskUnits="userSpaceOnUse" x="14" y="70" width="20" height="16">
<path d="M23.9399 71.6307L28.7219 70.4745C29.1707 70.366 29.6144 70.6705 29.6747 71.1283L30.1874 75.0255C30.2066 75.1712 30.2667 75.3084 30.3607 75.4213L33.034 78.6317C33.3879 79.0566 33.197 79.7048 32.6693 79.8701L28.0818 81.3073C27.9319 81.3543 27.7998 81.4456 27.7028 81.5692L24.8793 85.1687C24.5747 85.5569 23.99 85.5665 23.6729 85.1884L20.5146 81.4228C20.41 81.2981 20.269 81.2094 20.1113 81.1692L14.7972 79.8141C14.2376 79.6714 14.0239 78.9897 14.4017 78.5531L17.0222 75.5248C17.1473 75.3802 17.2147 75.1947 17.2115 75.0036L17.1453 71.0037C17.1368 70.4916 17.6176 70.1116 18.1139 70.2381L23.5654 71.6283C23.6882 71.6596 23.8168 71.6604 23.9399 71.6307Z" fill="#00A3FF"/>
</mask>
<g mask="url(#mask4_5838_320287)">
<path opacity="0.5" d="M23.9633 71.604L28.7588 70.4747C29.2049 70.3696 29.6445 70.6716 29.7065 71.1257L29.7478 71.4276L14.3718 79.5452L14.3186 79.456C14.1482 79.1702 14.1788 78.8077 14.3946 78.5544L17.0539 75.4337C17.1771 75.289 17.2431 75.1042 17.2392 74.9141L17.1595 70.9754C17.1491 70.4621 17.6306 70.0801 18.1281 70.207L23.5933 71.6006C23.7146 71.6315 23.8415 71.6327 23.9633 71.604Z" fill="black"/>
<path opacity="0.5" d="M19.9007 81.1161L18.3952 80.7322L30.1092 73.7786L30.2921 74.9476L19.9007 81.1161Z" fill="black"/>
</g>
<ellipse cx="20.8011" cy="73.5887" rx="1.9717" ry="1.44591" transform="rotate(-9.0299 20.8011 73.5887)" fill="black"/>
<ellipse cx="23.7059" cy="72.9848" rx="0.615332" ry="0.451243" transform="rotate(-9.0299 23.7059 72.9848)" fill="black"/>
<path d="M25.0058 99.4534L25.3473 98.1142L40.6731 98.5216L40.3483 99.7951C40.2988 99.9894 40.1595 100.148 39.9734 100.223L36.6698 101.548C36.5679 101.589 36.4785 101.656 36.4105 101.742L33.9192 104.9C33.675 105.209 33.2094 105.22 32.9512 104.922L29.9709 101.484C29.887 101.387 29.7756 101.318 29.6515 101.286L25.4593 100.217C25.1231 100.132 24.9201 99.7896 25.0058 99.4534Z" fill="black"/>
<path d="M33.1729 92.385L37.04 91.4501C37.4029 91.3623 37.7618 91.6086 37.8105 91.9787L38.2252 95.1304C38.2407 95.2482 38.2892 95.3592 38.3653 95.4505L40.5272 98.0467C40.8133 98.3903 40.659 98.9145 40.2322 99.0481L36.5224 100.21C36.4011 100.248 36.2943 100.322 36.2159 100.422L33.9325 103.333C33.6862 103.647 33.2134 103.655 32.9569 103.349L30.4028 100.304C30.3183 100.203 30.2042 100.131 30.0767 100.099L25.7792 99.0029C25.3267 98.8875 25.1539 98.3362 25.4594 97.9831L27.5786 95.5341C27.6798 95.4173 27.7343 95.2672 27.7317 95.1127L27.6781 91.878C27.6712 91.4639 28.0601 91.1566 28.4614 91.2589L32.87 92.3831C32.9693 92.4085 33.0733 92.4091 33.1729 92.385Z" fill="black"/>
<mask id="mask5_5838_320287" style="mask-type:alpha" maskUnits="userSpaceOnUse" x="25" y="91" width="16" height="13">
<path d="M33.1729 92.3836L37.04 91.4486C37.4029 91.3609 37.7618 91.6071 37.8105 91.9773L38.2252 95.129C38.2407 95.2467 38.2892 95.3577 38.3653 95.449L40.5272 98.0452C40.8133 98.3889 40.659 98.913 40.2322 99.0467L36.5224 100.209C36.4011 100.247 36.2943 100.321 36.2159 100.421L33.9325 103.332C33.6862 103.646 33.2134 103.653 32.9569 103.348L30.4028 100.302C30.3183 100.202 30.2042 100.13 30.0767 100.097L25.7792 99.0014C25.3267 98.886 25.1539 98.3348 25.4594 97.9816L27.5786 95.5327C27.6798 95.4158 27.7343 95.2657 27.7317 95.1112L27.6781 91.8766C27.6712 91.4624 28.0601 91.1551 28.4614 91.2575L32.87 92.3817C32.9693 92.407 33.0733 92.4076 33.1729 92.3836Z" fill="#00A3FF"/>
</mask>
<g mask="url(#mask5_5838_320287)">
<path opacity="0.5" d="M33.1927 92.3625L37.0707 91.4493C37.4315 91.3643 37.787 91.6085 37.8371 91.9757L37.8705 92.2199L25.4361 98.7845L25.3931 98.7124C25.2553 98.4812 25.28 98.188 25.4545 97.9832L27.6051 95.4595C27.7048 95.3425 27.7581 95.193 27.755 95.0394L27.6905 91.8542C27.6821 91.4391 28.0715 91.1301 28.4738 91.2327L32.8935 92.3598C32.9915 92.3848 33.0942 92.3857 33.1927 92.3625Z" fill="black"/>
<path opacity="0.5" d="M29.9078 100.054L28.6904 99.7437L38.1634 94.1204L38.3113 95.0657L29.9078 100.054Z" fill="black"/>
</g>
<ellipse cx="30.6332" cy="93.968" rx="1.59449" ry="1.16929" transform="rotate(-9.0299 30.6332 93.968)" fill="black"/>
<ellipse cx="32.9843" cy="93.4796" rx="0.497612" ry="0.364915" transform="rotate(-9.0299 32.9843 93.4796)" fill="black"/>
</g>
</g>
</g>
<path opacity="0.1" d="M65.3491 93.3319C53.6296 95.875 43.2973 86.8556 41.6161 81.8709C41.4484 81.3735 41.9376 80.974 42.4451 81.1079C67.2915 87.665 73.7075 78.6212 84.6156 67.2459C84.9062 66.9428 85.3915 66.9429 85.5468 67.3331C87.282 71.6922 81.6439 89.7966 65.3491 93.3319Z" fill="black"/>
<path opacity="0.2" d="M47.654 43.1277C34.5904 49.6056 31.6194 66.0153 33.8051 72.0266C34.0232 72.6264 34.7912 72.6347 35.1717 72.1223C53.7999 47.0373 66.7585 50.76 85.7538 53.2886C86.26 53.356 86.7209 52.9876 86.5723 52.4991C84.9127 47.041 65.8171 34.1204 47.654 43.1277Z" fill="white"/>
<path d="M101.809 64.8388L100.695 60.2325L103.296 60.0058L101.809 64.8388Z" fill="url(#paint18_linear_5838_320287)"/>
<g filter="url(#filter0_d_5838_320287)">
<path d="M78.5799 55.7332L79.2792 52.991L110.216 56.3036L108.472 63.1449C108.177 64.2984 107.101 65.0765 105.913 64.9939L101.794 64.7073L102.92 60.2908L80.8015 58.8001C79.2654 58.6966 78.1995 57.2252 78.5799 55.7332Z" fill="url(#paint19_linear_5838_320287)"/>
</g>
<path d="M79.5606 52.3139L88.8824 38.0203C89.7288 36.7224 91.549 36.5188 92.6613 37.5976L109.523 53.9517C111.18 55.5587 109.916 58.3574 107.615 58.1763L81.4309 56.1158C79.5666 55.9691 78.539 53.8803 79.5606 52.3139Z" fill="url(#paint20_linear_5838_320287)"/>
<path opacity="0.3" fill-rule="evenodd" clip-rule="evenodd" d="M95.2957 56.9596L106.894 57.8723C109.195 58.0533 110.459 55.2546 108.802 53.6476L106.334 51.2535L108.307 53.4284C109.785 55.0577 108.549 57.6601 106.352 57.544L95.2957 56.9596Z" fill="white"/>
<g opacity="0.3">
<mask id="mask6_5838_320287" style="mask-type:alpha" maskUnits="userSpaceOnUse" x="72" y="34" width="55" height="23">
<path d="M83.6435 56.1186C82.7082 44.8374 117.093 48.9923 126.94 48.5482L93.1939 35.4362L81.4332 34.1205L72.8023 44.4885C74.268 48.0045 76.9231 56.9858 83.6435 56.1186Z" fill="url(#paint21_linear_5838_320287)"/>
</mask>
<g mask="url(#mask6_5838_320287)">
<path d="M79.9315 52.2856L88.8623 38.5915C89.6732 37.348 91.4171 37.153 92.4827 38.1865L108.637 53.8547C110.225 55.3943 109.013 58.0756 106.809 57.9021L81.7234 55.9281C79.9372 55.7875 78.9528 53.7863 79.9315 52.2856Z" fill="white"/>
</g>
</g>
<ellipse opacity="0.2" cx="62.9305" cy="45.6091" rx="4.35045" ry="3.19033" transform="rotate(-1.90211 62.9305 45.6091)" fill="white"/>
<ellipse opacity="0.2" cx="69.4584" cy="45.0828" rx="1.3577" ry="0.995645" transform="rotate(-1.90211 69.4584 45.0828)" fill="white"/>
<path d="M46.4629 19.028L47.0757 16.6248L74.5814 17.3559L73.9986 19.6414C73.9096 19.9902 73.6596 20.2755 73.3255 20.4095L67.1174 22.8991L62.4601 28.803C62.0218 29.3586 61.186 29.3779 60.7225 28.8431L55.1426 22.4052L47.277 20.3994C46.6734 20.2455 46.3089 19.6315 46.4629 19.028Z" fill="url(#paint22_linear_5838_320287)"/>
<path d="M61.1237 6.3421L68.0638 4.66422C68.7153 4.50672 69.3595 4.94878 69.447 5.61331L70.1911 11.2693C70.219 11.4807 70.3062 11.68 70.4426 11.8438L74.3223 16.5029C74.836 17.1199 74.5589 18.0608 73.7928 18.3008L67.1351 20.3866C66.9175 20.4548 66.7257 20.5873 66.585 20.7668L62.4872 25.9906C62.045 26.5543 61.1961 26.5682 60.7357 26.0193L56.1521 20.5543C56.0004 20.3734 55.7956 20.2446 55.5667 20.1862L47.8545 18.2196C47.0421 18.0124 46.7318 17.0227 47.2804 16.3888L51.0833 11.994C51.2649 11.7842 51.3627 11.5148 51.3581 11.2374L51.262 5.43265C51.2496 4.68912 51.9477 4.13741 52.6683 4.32116L60.58 6.33871C60.7582 6.38416 60.9449 6.38532 61.1237 6.3421Z" fill="url(#paint23_linear_5838_320287)"/>
<mask id="mask7_5838_320287" style="mask-type:alpha" maskUnits="userSpaceOnUse" x="47" y="4" width="28" height="23">
<path d="M61.1256 6.34212L68.0661 4.66413C68.7174 4.50668 69.3615 4.94861 69.4489 5.61294L70.1931 11.2694C70.2209 11.4808 70.3081 11.6799 70.4445 11.8438L74.3246 16.5033C74.8381 17.1201 74.5611 18.0607 73.7952 18.3007L67.137 20.3867C66.9195 20.4548 66.7277 20.5873 66.587 20.7667L62.4889 25.9909C62.0468 26.5545 61.1982 26.5684 60.738 26.0196L56.154 20.5542C56.0023 20.3733 55.7976 20.2446 55.5688 20.1863L47.8559 18.2194C47.0438 18.0123 46.7335 17.023 47.282 16.3892L51.0853 11.994C51.2669 11.7842 51.3647 11.5149 51.3601 11.2375L51.2639 5.43222C51.2516 4.68891 51.9494 4.13735 52.6698 4.32105L60.582 6.33873C60.7602 6.38417 60.9468 6.38533 61.1256 6.34212Z" fill="#00A3FF"/>
</mask>
<g mask="url(#mask7_5838_320287)">
<path opacity="0.2" d="M61.1585 6.30352L68.1186 4.66444C68.766 4.51197 69.404 4.95021 69.4941 5.60922L69.554 6.04749L47.2375 17.8293L47.1603 17.6998C46.913 17.285 46.9573 16.7588 47.2706 16.3912L51.1302 11.8618C51.3091 11.6518 51.4049 11.3836 51.3993 11.1077L51.2836 5.39115C51.2685 4.64617 51.9673 4.09172 52.6894 4.27584L60.6215 6.29858C60.7975 6.34346 60.9817 6.34516 61.1585 6.30352Z" fill="white"/>
<path opacity="0.2" d="M55.2656 20.1092L53.0806 19.552L70.0821 9.45968L70.3475 11.1563L55.2656 20.1092Z" fill="white"/>
</g>
<ellipse cx="56.5658" cy="9.18372" rx="2.86169" ry="2.09857" transform="rotate(-9.0299 56.5658 9.18372)" fill="white"/>
<ellipse cx="60.7836" cy="8.30742" rx="0.893082" ry="0.654927" transform="rotate(-9.0299 60.7836 8.30742)" fill="white"/>
<path d="M18.3267 29.5772L18.8427 27.5538L42.0024 28.1693L41.5117 30.0937C41.4368 30.3874 41.2263 30.6277 40.945 30.7405L35.7178 32.8367L31.7964 37.8077C31.4273 38.2756 30.7235 38.2919 30.3332 37.8416L25.635 32.4209L19.0122 30.732C18.504 30.6024 18.1971 30.0854 18.3267 29.5772Z" fill="url(#paint24_linear_5838_320287)"/>
<path d="M30.6718 18.8956L36.5154 17.4829C37.0639 17.3502 37.6064 17.7225 37.68 18.282L38.3066 23.0443C38.33 23.2223 38.4034 23.3901 38.5183 23.5281L41.785 27.451C42.2176 27.9705 41.9842 28.7627 41.3392 28.9648L35.7334 30.7211C35.5502 30.7785 35.3887 30.8901 35.2702 31.0412L31.8199 35.4396C31.4476 35.9143 30.7328 35.926 30.3452 35.4638L26.4858 30.8623C26.358 30.7099 26.1856 30.6015 25.9929 30.5524L19.4992 28.8964C18.8152 28.722 18.5538 27.8887 19.0158 27.3549L22.2178 23.6545C22.3707 23.4779 22.4531 23.251 22.4492 23.0174L22.3682 18.1299C22.3579 17.5038 22.9456 17.0393 23.5524 17.194L30.214 18.8928C30.3641 18.931 30.5213 18.932 30.6718 18.8956Z" fill="url(#paint25_linear_5838_320287)"/>
<mask id="mask8_5838_320287" style="mask-type:alpha" maskUnits="userSpaceOnUse" x="18" y="17" width="25" height="19">
<path d="M30.6737 18.8956L36.5176 17.4828C37.066 17.3502 37.6083 17.7223 37.6819 18.2817L38.3085 23.0444C38.332 23.2224 38.4054 23.3901 38.5202 23.528L41.7872 27.4514C42.2197 27.9707 41.9864 28.7627 41.3415 28.9647L35.7353 30.7211C35.5521 30.7785 35.3907 30.8901 35.2722 31.0411L31.8216 35.4399C31.4494 35.9144 30.7349 35.9261 30.3473 35.464L26.4877 30.8622C26.3599 30.7099 26.1876 30.6015 25.9949 30.5524L19.5007 28.8963C18.8169 28.7219 18.5556 27.8889 19.0174 27.3553L22.2199 23.6545C22.3727 23.4778 22.455 23.2511 22.4512 23.0176L22.3702 18.1295C22.3598 17.5036 22.9474 17.0392 23.554 17.1939L30.216 18.8928C30.3661 18.931 30.5232 18.932 30.6737 18.8956Z" fill="#00A3FF"/>
</mask>
<g mask="url(#mask8_5838_320287)">
<path opacity="0.2" d="M30.7019 18.8634L36.5622 17.4833C37.1074 17.3549 37.6446 17.7239 37.7204 18.2788L37.7709 18.6478L18.9804 28.5681L18.9154 28.459C18.7072 28.1098 18.7445 27.6667 19.0083 27.3572L22.2581 23.5435C22.4088 23.3667 22.4894 23.1408 22.4847 22.9085L22.3872 18.0952C22.3745 17.4679 22.963 17.0011 23.5709 17.1561L30.2497 18.8592C30.3979 18.897 30.553 18.8985 30.7019 18.8634Z" fill="white"/>
<path opacity="0.2" d="M25.7396 30.4877L23.8999 30.0185L38.2151 21.5208L38.4386 22.9494L25.7396 30.4877Z" fill="white"/>
</g>
<ellipse cx="26.8347" cy="21.2883" rx="2.40954" ry="1.76699" transform="rotate(-9.0299 26.8347 21.2883)" fill="white"/>
<ellipse cx="30.3858" cy="20.5511" rx="0.751974" ry="0.551447" transform="rotate(-9.0299 30.3858 20.5511)" fill="white"/>
<path d="M0.894893 47.0022L1.36175 45.1715L22.3158 45.7284L21.8718 47.4696C21.8041 47.7353 21.6136 47.9527 21.3591 48.0547L16.6297 49.9513L13.0818 54.4489C12.7478 54.8722 12.1111 54.8869 11.758 54.4795L7.5072 49.5751L1.51511 48.0471C1.05532 47.9298 0.777645 47.462 0.894893 47.0022Z" fill="url(#paint26_linear_5838_320287)"/>
<path d="M12.0653 37.3384L17.3524 36.0601C17.8487 35.9401 18.3395 36.2769 18.4061 36.7832L18.973 41.0919C18.9942 41.253 19.0606 41.4048 19.1646 41.5296L22.1201 45.079C22.5115 45.5489 22.3004 46.2658 21.7168 46.4486L16.6449 48.0376C16.4791 48.0895 16.333 48.1905 16.2258 48.3272L13.1041 52.3067C12.7672 52.7362 12.1205 52.7468 11.7698 52.3286L8.27797 48.1653C8.16234 48.0275 8.00635 47.9294 7.83199 47.8849L1.95675 46.3867C1.33788 46.2289 1.10144 45.475 1.51937 44.992L4.41649 41.6441C4.55481 41.4842 4.62934 41.279 4.62584 41.0676L4.55258 36.6455C4.54319 36.0791 5.07498 35.6588 5.62391 35.7988L11.6511 37.3358C11.7869 37.3704 11.9291 37.3713 12.0653 37.3384Z" fill="url(#paint27_linear_5838_320287)"/>
<mask id="mask9_5838_320287" style="mask-type:alpha" maskUnits="userSpaceOnUse" x="1" y="35" width="22" height="18">
<path d="M12.0653 37.3384L17.3526 36.0601C17.8488 35.9401 18.3394 36.2768 18.406 36.7829L18.973 41.092C18.9942 41.253 19.0606 41.4048 19.1645 41.5296L22.1204 45.0793C22.5116 45.5491 22.3006 46.2657 21.7171 46.4485L16.6448 48.0376C16.4791 48.0895 16.333 48.1905 16.2258 48.3271L13.1039 52.307C12.7671 52.7363 12.1206 52.7469 11.77 52.3288L8.27792 48.1653C8.16232 48.0275 8.00637 47.9294 7.83207 47.885L1.95636 46.3866C1.33767 46.2288 1.1013 45.4751 1.5191 44.9923L4.41655 41.644C4.55483 41.4842 4.62935 41.279 4.62584 41.0677L4.55257 36.6452C4.54319 36.0789 5.07482 35.6588 5.62359 35.7987L11.6512 37.3358C11.7869 37.3704 11.9291 37.3713 12.0653 37.3384Z" fill="#00A3FF"/>
</mask>
<g mask="url(#mask9_5838_320287)">
<path opacity="0.2" d="M12.0906 37.3094L17.3928 36.0607C17.886 35.9445 18.3721 36.2784 18.4407 36.7804L18.4863 37.1143L1.48545 46.0898L1.42665 45.9911C1.23825 45.6751 1.27203 45.2742 1.51065 44.9942L4.45096 41.5437C4.58727 41.3838 4.6602 41.1794 4.65595 40.9693L4.56778 36.6143C4.55629 36.0468 5.08869 35.6244 5.63874 35.7647L11.6815 37.3056C11.8156 37.3398 11.9559 37.3411 12.0906 37.3094Z" fill="white"/>
<path opacity="0.2" d="M7.60119 47.8259L5.93665 47.4014L18.8885 39.713L19.0907 41.0055L7.60119 47.8259Z" fill="white"/>
</g>
<ellipse cx="8.59146" cy="39.5033" rx="2.18006" ry="1.59871" transform="rotate(-9.0299 8.59146 39.5033)" fill="white"/>
<ellipse cx="11.8049" cy="38.8357" rx="0.680357" ry="0.498928" transform="rotate(-9.0299 11.8049 38.8357)" fill="white"/>
<path d="M0.843971 70.0354L1.26168 68.3974L20.0101 68.8957L19.6128 70.4536C19.5522 70.6913 19.3817 70.8858 19.154 70.9771L14.9225 72.6741L11.748 76.6982C11.4492 77.077 10.8795 77.0901 10.5636 76.7256L6.76025 72.3374L1.3989 70.9703C0.987515 70.8654 0.739064 70.4468 0.843971 70.0354Z" fill="url(#paint28_linear_5838_320287)"/>
<path d="M10.8377 61.3888L15.5682 60.2451C16.0123 60.1377 16.4514 60.439 16.511 60.892L17.0183 64.7472C17.0372 64.8913 17.0967 65.0271 17.1897 65.1388L19.8341 68.3146C20.1843 68.7351 19.9954 69.3764 19.4732 69.54L14.9353 70.9617C14.7869 71.0082 14.6562 71.0986 14.5602 71.2209L11.7671 74.7815C11.4657 75.1657 10.8871 75.1752 10.5733 74.8011L7.44906 71.0761C7.3456 70.9527 7.20603 70.8649 7.05003 70.8252L1.79324 69.4846C1.2395 69.3434 1.02796 68.6689 1.40189 68.2367L3.99405 65.2412C4.11781 65.0982 4.1845 64.9146 4.18137 64.7255L4.11581 60.7689C4.10742 60.2621 4.58322 59.886 5.07438 60.0112L10.4672 61.3864C10.5886 61.4174 10.7159 61.4182 10.8377 61.3888Z" fill="url(#paint29_linear_5838_320287)"/>
<mask id="mask10_5838_320287" style="mask-type:alpha" maskUnits="userSpaceOnUse" x="1" y="59" width="20" height="17">
<path d="M10.8377 61.3885L15.5685 60.2448C16.0124 60.1375 16.4514 60.4387 16.511 60.8915L17.0183 64.747C17.0372 64.8911 17.0967 65.0269 17.1897 65.1385L19.8344 68.3146C20.1844 68.735 19.9956 69.3761 19.4736 69.5397L14.9352 70.9615C14.7869 71.008 14.6562 71.0983 14.5603 71.2206L11.767 74.7815C11.4657 75.1656 10.8872 75.1751 10.5735 74.801L7.44901 71.0758C7.34559 70.9524 7.20605 70.8647 7.0501 70.8249L1.79288 69.4843C1.23931 69.3431 1.02783 68.6688 1.40165 68.2368L3.9941 65.2409C4.11783 65.0979 4.1845 64.9144 4.18137 64.7253L4.11581 60.7683C4.10742 60.2617 4.58308 59.8857 5.07409 60.0109L10.4672 61.3862C10.5887 61.4172 10.7159 61.418 10.8377 61.3885Z" fill="#00A3FF"/>
</mask>
<g mask="url(#mask10_5838_320287)">
<path opacity="0.2" d="M10.8601 61.3625L15.6042 60.2453C16.0455 60.1413 16.4804 60.4401 16.5418 60.8893L16.5826 61.188L1.37134 69.2187L1.31872 69.1304C1.15016 68.8477 1.18039 68.489 1.39388 68.2384L4.02469 65.1511C4.14665 65.008 4.2119 64.8251 4.2081 64.6371L4.12921 60.7406C4.11893 60.2328 4.59529 59.8549 5.08744 59.9804L10.4941 61.3591C10.6141 61.3897 10.7396 61.3909 10.8601 61.3625Z" fill="white"/>
<path opacity="0.2" d="M6.84362 70.7723L5.3543 70.3925L16.9428 63.5134L17.1237 64.6698L6.84362 70.7723Z" fill="white"/>
</g>
<ellipse cx="7.72903" cy="63.326" rx="1.95058" ry="1.43042" transform="rotate(-9.0299 7.72903 63.326)" fill="white"/>
<ellipse cx="10.6049" cy="62.7286" rx="0.60874" ry="0.44641" transform="rotate(-9.0299 10.6049 62.7286)" fill="white"/>
<path d="M12.0244 90.4088L12.3684 89.0598L27.8083 89.4702L27.4811 90.7532C27.4312 90.9489 27.2908 91.1091 27.1033 91.1843L23.6185 92.5818L21.0042 95.8958C20.7582 96.2077 20.289 96.2186 20.0288 95.9184L16.8966 92.3046L12.4814 91.1787C12.1426 91.0923 11.938 90.7476 12.0244 90.4088Z" fill="url(#paint30_linear_5838_320287)"/>
<path d="M20.2532 83.2881L24.1489 82.3462C24.5146 82.2578 24.8763 82.506 24.9253 82.879L25.3431 86.0539C25.3587 86.1726 25.4076 86.2844 25.4842 86.3764L27.662 88.9917C27.9504 89.338 27.7948 89.8662 27.3648 90.0009L23.6276 91.1717C23.5055 91.21 23.3978 91.2844 23.3188 91.3851L21.0186 94.3174C20.7704 94.6338 20.2939 94.6416 20.0355 94.3335L17.4625 91.2659C17.3773 91.1643 17.2624 91.092 17.1339 91.0592L12.8048 89.9553C12.3488 89.839 12.1746 89.2835 12.4825 88.9276L14.6172 86.4607C14.7191 86.3429 14.7741 86.1917 14.7715 86.036L14.7175 82.7776C14.7106 82.3602 15.1024 82.0505 15.5069 82.1537L19.948 83.2862C20.0481 83.3117 20.1528 83.3123 20.2532 83.2881Z" fill="url(#paint31_linear_5838_320287)"/>
<mask id="mask11_5838_320287" style="mask-type:alpha" maskUnits="userSpaceOnUse" x="12" y="82" width="16" height="13">
<path d="M20.2571 83.2881L24.153 82.3462C24.5186 82.2578 24.8802 82.5059 24.9292 82.8788L25.347 86.0539C25.3626 86.1726 25.4115 86.2844 25.4881 86.3763L27.6661 88.9919C27.9544 89.3381 27.7989 89.8661 27.369 90.0008L23.6315 91.1717C23.5094 91.21 23.4017 91.2844 23.3227 91.3851L21.0224 94.3176C20.7742 94.6339 20.2979 94.6417 20.0395 94.3337L17.4664 91.2658C17.3812 91.1643 17.2663 91.092 17.1379 91.0593L12.8084 89.9552C12.3525 89.839 12.1784 89.2836 12.4862 88.9278L14.6212 86.4606C14.7231 86.3429 14.778 86.1917 14.7754 86.036L14.7214 82.7773C14.7145 82.3601 15.1062 82.0505 15.5106 82.1536L19.952 83.2862C20.052 83.3117 20.1567 83.3123 20.2571 83.2881Z" fill="#00A3FF"/>
</mask>
<g mask="url(#mask11_5838_320287)">
<path opacity="0.2" d="M20.2752 83.2664L24.1821 82.3464C24.5455 82.2608 24.9037 82.5068 24.9542 82.8767L24.9879 83.1227L12.4609 89.7362L12.4176 89.6635C12.2788 89.4307 12.3037 89.1353 12.4795 88.929L14.646 86.3865C14.7465 86.2686 14.8002 86.118 14.7971 85.9632L14.7321 82.7543C14.7236 82.3361 15.1159 82.0249 15.5212 82.1282L19.9738 83.2637C20.0726 83.2889 20.176 83.2898 20.2752 83.2664Z" fill="white"/>
<path opacity="0.2" d="M16.967 91.0157L15.7405 90.7029L25.284 85.0378L25.433 85.9902L16.967 91.0157Z" fill="white"/>
</g>
<ellipse cx="17.6952" cy="84.883" rx="1.60636" ry="1.178" transform="rotate(-9.0299 17.6952 84.883)" fill="white"/>
<ellipse cx="20.0626" cy="84.3911" rx="0.501316" ry="0.367631" transform="rotate(-9.0299 20.0626 84.3911)" fill="white"/>
</g>
<defs>
<filter id="filter0_d_5838_320287" x="77.5165" y="52.991" width="33.6858" height="13.98" filterUnits="userSpaceOnUse" color-interpolation-filters="sRGB">
<feFlood flood-opacity="0" result="BackgroundImageFix"/>
<feColorMatrix in="SourceAlpha" type="matrix" values="0 0 0 0 0 0 0 0 0 0 0 0 0 0 0 0 0 0 127 0" result="hardAlpha"/>
<feOffset dy="0.985478"/>
<feGaussianBlur stdDeviation="0.492739"/>
<feComposite in2="hardAlpha" operator="out"/>
<feColorMatrix type="matrix" values="0 0 0 0 0 0 0 0 0 0 0 0 0 0 0 0 0 0 0.5 0"/>
<feBlend mode="normal" in2="BackgroundImageFix" result="effect1_dropShadow_5838_320287"/>
<feBlend mode="normal" in="SourceGraphic" in2="effect1_dropShadow_5838_320287" result="shape"/>
</filter>
<linearGradient id="paint0_linear_5838_320287" x1="47.8188" y1="25.7137" x2="93.77" y2="110.024" gradientUnits="userSpaceOnUse">
<stop stop-color="#284265"/>
<stop offset="1" stop-color="#192C40"/>
</linearGradient>
<linearGradient id="paint1_linear_5838_320287" x1="29.0531" y1="64.6341" x2="87.5074" y2="82.8072" gradientUnits="userSpaceOnUse">
<stop offset="0.17" stop-color="#557FAE"/>
<stop offset="0.35" stop-color="#3C6593"/>
<stop offset="0.546875" stop-color="#335477"/>
<stop offset="0.81" stop-color="#274159"/>
<stop offset="1" stop-color="#1C3144"/>
</linearGradient>
<linearGradient id="paint2_linear_5838_320287" x1="90.8852" y1="52.8631" x2="104.951" y2="87.3317" gradientUnits="userSpaceOnUse">
<stop stop-color="#08D6C9"/>
<stop offset="0.21875" stop-color="#15C6BB"/>
<stop offset="0.411458" stop-color="#18ABAB"/>
<stop offset="1" stop-color="#045668"/>
</linearGradient>
<linearGradient id="paint3_linear_5838_320287" x1="59.1764" y1="70.8929" x2="98.7079" y2="20.1881" gradientUnits="userSpaceOnUse">
<stop stop-color="#6A39D2"/>
<stop offset="0.244792" stop-color="#3C0994"/>
<stop offset="0.552083" stop-color="#5D28BA"/>
<stop offset="0.765625" stop-color="#4D2395"/>
<stop offset="1" stop-color="#350786"/>
</linearGradient>
<linearGradient id="paint4_linear_5838_320287" x1="64.676" y1="49.2468" x2="140.476" y2="-7.1376" gradientUnits="userSpaceOnUse">
<stop stop-color="#6A39D2"/>
<stop offset="0.244792" stop-color="#3C0994"/>
<stop offset="0.552083" stop-color="#5D28BA"/>
<stop offset="0.765625" stop-color="#4D2395"/>
<stop offset="1" stop-color="#350786"/>
</linearGradient>
<linearGradient id="paint5_linear_5838_320287" x1="55.9371" y1="83.0318" x2="131.292" y2="62.7385" gradientUnits="userSpaceOnUse">
<stop stop-color="#6A39D2"/>
<stop offset="0.244792" stop-color="#3C0994"/>
<stop offset="0.552083" stop-color="#5D28BA"/>
<stop offset="0.765625" stop-color="#4D2395"/>
<stop offset="1" stop-color="#350786"/>
</linearGradient>
<linearGradient id="paint6_linear_5838_320287" x1="65.1225" y1="41.0809" x2="84.3447" y2="56.1461" gradientUnits="userSpaceOnUse">
<stop stop-color="#08D6C9"/>
<stop offset="0.21875" stop-color="#15C6BB"/>
<stop offset="0.411458" stop-color="#18ABAB"/>
<stop offset="1" stop-color="#045668"/>
</linearGradient>
<linearGradient id="paint7_linear_5838_320287" x1="28.1542" y1="75.9471" x2="110.582" y2="47.7199" gradientUnits="userSpaceOnUse">
<stop stop-color="#6A39D2"/>
<stop offset="0.244792" stop-color="#3C0994"/>
<stop offset="0.552083" stop-color="#5D28BA"/>
<stop offset="0.765625" stop-color="#4D2395"/>
<stop offset="1" stop-color="#350786"/>
</linearGradient>
<linearGradient id="paint8_linear_5838_320287" x1="53.4186" y1="43.3086" x2="67.8207" y2="77.205" gradientUnits="userSpaceOnUse">
<stop stop-color="#08D6C9"/>
<stop offset="0.21875" stop-color="#15C6BB"/>
<stop offset="0.411458" stop-color="#18ABAB"/>
<stop offset="1" stop-color="#045668"/>
</linearGradient>
<linearGradient id="paint9_linear_5838_320287" x1="19.3174" y1="57.5585" x2="64.6809" y2="5.78715" gradientUnits="userSpaceOnUse">
<stop stop-color="#6A39D2"/>
<stop offset="0.244792" stop-color="#3C0994"/>
<stop offset="0.552083" stop-color="#5D28BA"/>
<stop offset="0.765625" stop-color="#4D2395"/>
<stop offset="1" stop-color="#350786"/>
</linearGradient>
<linearGradient id="paint10_linear_5838_320287" x1="56.4745" y1="26.1386" x2="62.9818" y2="55.6558" gradientUnits="userSpaceOnUse">
<stop stop-color="#08D6C9"/>
<stop offset="0.21875" stop-color="#15C6BB"/>
<stop offset="0.411458" stop-color="#18ABAB"/>
<stop offset="1" stop-color="#045668"/>
</linearGradient>
<linearGradient id="paint11_linear_5838_320287" x1="28.9405" y1="38.2669" x2="112.522" y2="-10.2602" gradientUnits="userSpaceOnUse">
<stop stop-color="#6A39D2"/>
<stop offset="0.244792" stop-color="#3C0994"/>
<stop offset="0.552083" stop-color="#5D28BA"/>
<stop offset="0.765625" stop-color="#4D2395"/>
<stop offset="1" stop-color="#350786"/>
</linearGradient>
<linearGradient id="paint12_linear_5838_320287" x1="69.01" y1="-0.0462373" x2="91.7877" y2="23.6261" gradientUnits="userSpaceOnUse">
<stop stop-color="#08D6C9"/>
<stop offset="0.21875" stop-color="#15C6BB"/>
<stop offset="0.411458" stop-color="#18ABAB"/>
<stop offset="1" stop-color="#045668"/>
</linearGradient>
<linearGradient id="paint13_linear_5838_320287" x1="62.3335" y1="43.8477" x2="125.017" y2="34.522" gradientUnits="userSpaceOnUse">
<stop stop-color="#6A39D2"/>
<stop offset="0.244792" stop-color="#3C0994"/>
<stop offset="0.552083" stop-color="#5D28BA"/>
<stop offset="0.765625" stop-color="#4D2395"/>
<stop offset="1" stop-color="#350786"/>
</linearGradient>
<linearGradient id="paint14_linear_5838_320287" x1="97.2318" y1="8.98735" x2="119.912" y2="41.021" gradientUnits="userSpaceOnUse">
<stop stop-color="#08D6C9"/>
<stop offset="0.21875" stop-color="#15C6BB"/>
<stop offset="0.411458" stop-color="#18ABAB"/>
<stop offset="1" stop-color="#045668"/>
</linearGradient>
<linearGradient id="paint15_linear_5838_320287" x1="96.3953" y1="45.5002" x2="98.4792" y2="68.9319" gradientUnits="userSpaceOnUse">
<stop stop-color="#08D6C9"/>
<stop offset="0.21875" stop-color="#15C6BB"/>
<stop offset="0.411458" stop-color="#18ABAB"/>
<stop offset="1" stop-color="#045668"/>
</linearGradient>
<linearGradient id="paint16_linear_5838_320287" x1="53.1437" y1="63.3778" x2="66.8756" y2="63.3778" gradientUnits="userSpaceOnUse">
<stop stop-color="#413B4D"/>
<stop offset="0.06" stop-color="#453E51"/>
<stop offset="0.13" stop-color="#4F485E"/>
<stop offset="0.2" stop-color="#605773"/>
<stop offset="0.24" stop-color="#6B6180"/>
<stop offset="0.26" stop-color="#645B78"/>
<stop offset="0.33" stop-color="#554D65"/>
<stop offset="0.41" stop-color="#413E48"/>
<stop offset="0.51" stop-color="#332F39"/>
<stop offset="0.69" stop-color="#302C37"/>
<stop offset="1" stop-color="#25212B"/>
</linearGradient>
<linearGradient id="paint17_linear_5838_320287" x1="52.8652" y1="62.46" x2="66.6059" y2="62.46" gradientUnits="userSpaceOnUse">
<stop stop-color="#524A61"/>
<stop offset="0.17" stop-color="#4A4358"/>
<stop offset="0.68" stop-color="#5D556D"/>
<stop offset="1" stop-color="#585168"/>
</linearGradient>
<linearGradient id="paint18_linear_5838_320287" x1="101.741" y1="59.1536" x2="104.287" y2="63.1709" gradientUnits="userSpaceOnUse">
<stop stop-color="#112A4B"/>
<stop offset="1" stop-color="#165492"/>
</linearGradient>
<linearGradient id="paint19_linear_5838_320287" x1="89.642" y1="50.1345" x2="88.5415" y2="63.9196" gradientUnits="userSpaceOnUse">
<stop stop-color="#112A4B"/>
<stop offset="1" stop-color="#165492"/>
</linearGradient>
<linearGradient id="paint20_linear_5838_320287" x1="82.6809" y1="44.4289" x2="103.131" y2="63.2368" gradientUnits="userSpaceOnUse">
<stop offset="0.17" stop-color="#1F4E84"/>
<stop offset="0.35" stop-color="#225389"/>
<stop offset="0.57" stop-color="#295F99"/>
<stop offset="0.81" stop-color="#3675B2"/>
<stop offset="1" stop-color="#428ACC"/>
</linearGradient>
<linearGradient id="paint21_linear_5838_320287" x1="82.1593" y1="46.7289" x2="102.38" y2="27.9144" gradientUnits="userSpaceOnUse">
<stop stop-color="#FFFDEE"/>
<stop offset="0.11" stop-color="#FFFDEE" stop-opacity="0.87"/>
<stop offset="0.44" stop-color="#FFFDEE" stop-opacity="0.5"/>
<stop offset="0.71" stop-color="#FFFDEE" stop-opacity="0.23"/>
<stop offset="0.9" stop-color="#FFFDEE" stop-opacity="0.06"/>
<stop offset="1" stop-color="#FFFDEE" stop-opacity="0"/>
</linearGradient>
<linearGradient id="paint22_linear_5838_320287" x1="56.7934" y1="11.4363" x2="57.5527" y2="31.6021" gradientUnits="userSpaceOnUse">
<stop stop-color="#112A4B"/>
<stop offset="1" stop-color="#165492"/>
</linearGradient>
<linearGradient id="paint23_linear_5838_320287" x1="49.7954" y1="10.7815" x2="68.1255" y2="24.1385" gradientUnits="userSpaceOnUse">
<stop offset="0.17" stop-color="#1F4E84"/>
<stop offset="0.35" stop-color="#225389"/>
<stop offset="0.57" stop-color="#295F99"/>
<stop offset="0.81" stop-color="#3675B2"/>
<stop offset="1" stop-color="#428ACC"/>
</linearGradient>
<linearGradient id="paint24_linear_5838_320287" x1="27.025" y1="23.1851" x2="27.6643" y2="40.1646" gradientUnits="userSpaceOnUse">
<stop stop-color="#112A4B"/>
<stop offset="1" stop-color="#165492"/>
</linearGradient>
<linearGradient id="paint25_linear_5838_320287" x1="21.1334" y1="22.6336" x2="36.5673" y2="33.8801" gradientUnits="userSpaceOnUse">
<stop offset="0.17" stop-color="#1F4E84"/>
<stop offset="0.35" stop-color="#225389"/>
<stop offset="0.57" stop-color="#295F99"/>
<stop offset="0.81" stop-color="#3675B2"/>
<stop offset="1" stop-color="#428ACC"/>
</linearGradient>
<linearGradient id="paint26_linear_5838_320287" x1="8.76477" y1="41.2189" x2="9.34321" y2="56.5813" gradientUnits="userSpaceOnUse">
<stop stop-color="#112A4B"/>
<stop offset="1" stop-color="#165492"/>
</linearGradient>
<linearGradient id="paint27_linear_5838_320287" x1="3.43535" y1="40.7204" x2="17.3994" y2="50.8958" gradientUnits="userSpaceOnUse">
<stop offset="0.17" stop-color="#1F4E84"/>
<stop offset="0.35" stop-color="#225389"/>
<stop offset="0.57" stop-color="#295F99"/>
<stop offset="0.81" stop-color="#3675B2"/>
<stop offset="1" stop-color="#428ACC"/>
</linearGradient>
<linearGradient id="paint28_linear_5838_320287" x1="7.88544" y1="64.8608" x2="8.40299" y2="78.6062" gradientUnits="userSpaceOnUse">
<stop stop-color="#112A4B"/>
<stop offset="1" stop-color="#165492"/>
</linearGradient>
<linearGradient id="paint29_linear_5838_320287" x1="3.11619" y1="64.4148" x2="15.6103" y2="73.5191" gradientUnits="userSpaceOnUse">
<stop offset="0.17" stop-color="#1F4E84"/>
<stop offset="0.35" stop-color="#225389"/>
<stop offset="0.57" stop-color="#295F99"/>
<stop offset="0.81" stop-color="#3675B2"/>
<stop offset="1" stop-color="#428ACC"/>
</linearGradient>
<linearGradient id="paint30_linear_5838_320287" x1="17.8233" y1="86.1474" x2="18.2495" y2="97.4671" gradientUnits="userSpaceOnUse">
<stop stop-color="#112A4B"/>
<stop offset="1" stop-color="#165492"/>
</linearGradient>
<linearGradient id="paint31_linear_5838_320287" x1="13.8943" y1="85.7801" x2="24.1836" y2="93.2778" gradientUnits="userSpaceOnUse">
<stop offset="0.17" stop-color="#1F4E84"/>
<stop offset="0.35" stop-color="#225389"/>
<stop offset="0.57" stop-color="#295F99"/>
<stop offset="0.81" stop-color="#3675B2"/>
<stop offset="1" stop-color="#428ACC"/>
</linearGradient>
<clipPath id="clip0_5838_320287">
<rect width="111" height="111" fill="white"/>
</clipPath>
</defs>
</svg>
