<svg width="133" height="35" viewBox="0 0 133 35" fill="none" xmlns="http://www.w3.org/2000/svg">
<g clip-path="url(#clip0_5423_314520)">
<g filter="url(#filter0_d_5423_314520)">
<g clip-path="url(#clip1_5423_314520)">
<circle cx="17.9269" cy="17.0732" r="17.0732" fill="url(#paint0_linear_5423_314520)"/>
<g clip-path="url(#clip2_5423_314520)">
<g clip-path="url(#clip3_5423_314520)">
<path d="M15.4282 15.6761L6.33111 10.8623L5.36389 12.7967L10.5 21.2794L12.3876 18.6465V17.0263V16.1487H14.7531L15.0906 17.0263L15.4282 15.6761Z" fill="black"/>
<path d="M15.8333 17.4313C16.2715 17.3088 17.2903 16.9905 17.8633 16.8145V19.9393L15.4283 21.617L16.1709 24.7224L17.9261 25.9376L17.8633 28.8674H15.4283L10.5001 21.2794L13.8521 19.7283L15.1255 20.747L16.846 18.7815L15.8333 17.4313Z" fill="black"/>
<path d="M13.176 25.4452L16.1521 24.7012L15.4081 28.8676L13.176 25.4452Z" fill="black"/>
<path d="M13.403 11.3555L11.9853 12.4357L6.33112 10.8624L7.22397 8.99268H17.8633V12.8712L13.403 11.3555Z" fill="black"/>
<path d="M17.8632 9.00244L13.3992 11.3833L17.8632 12.8713V9.00244Z" fill="black"/>
</g>
<g clip-path="url(#clip4_5423_314520)">
<path d="M20.2984 15.6761L29.3955 10.8623L30.3627 12.7967L25.2266 21.2794L23.3389 18.6465V17.0263V16.1487H20.9735L20.6359 17.0263L20.2984 15.6761Z" fill="black"/>
<path d="M19.8932 17.4313C19.455 17.3088 18.4363 16.9905 17.8633 16.8145V19.9393L20.2983 21.617L19.5557 24.7224L17.8004 25.9376L17.8633 28.8674H20.2983L25.2265 21.2794L21.8745 19.7283L20.6011 20.747L18.8806 18.7815L19.8932 17.4313Z" fill="black"/>
<path d="M22.5505 25.4452L19.5745 24.7012L20.3185 28.8676L22.5505 25.4452Z" fill="black"/>
<path d="M22.3236 11.3555L23.7413 12.4357L29.3954 10.8624L28.5026 8.99268H17.8632V12.8712L22.3236 11.3555Z" fill="black"/>
<path d="M17.8633 9.00244L22.3274 11.3833L17.8633 12.8713V9.00244Z" fill="black"/>
</g>
</g>
</g>
</g>
<path d="M45.672 16H49.64C52.216 16 53.832 14.848 53.832 12.544C53.832 11.248 53.224 10.352 52.136 9.856C52.984 9.36 53.416 8.592 53.416 7.584C53.416 5.424 51.96 4.32 49.352 4.32H45.672V16ZM49.544 11.008C51.16 11.008 51.64 11.536 51.64 12.496C51.64 13.456 50.968 14 49.64 14H47.848V11.008H49.544ZM49.352 6.32C50.696 6.32 51.224 6.704 51.224 7.584C51.224 8.416 50.744 8.976 49.352 8.976H47.848V6.32H49.352ZM56.2359 16H58.4119V6.64H56.2359V16ZM55.9639 4.352C55.9639 5.168 56.4439 5.696 57.3239 5.696C58.1719 5.696 58.6839 5.168 58.6839 4.352C58.6839 3.536 58.1719 2.992 57.3239 2.992C56.4919 2.992 55.9639 3.536 55.9639 4.352ZM65.6418 16.192C68.3298 16.192 70.4898 14.016 70.4898 11.328C70.4898 8.592 68.3298 6.448 65.6418 6.448C62.9378 6.448 60.7938 8.592 60.7938 11.328C60.7938 14.016 62.9378 16.192 65.6418 16.192ZM65.6418 14.16C64.0898 14.16 62.9218 12.88 62.9218 11.328C62.9218 9.744 64.0898 8.48 65.6418 8.48C67.1778 8.48 68.3618 9.744 68.3618 11.328C68.3618 12.88 67.1778 14.16 65.6418 14.16ZM72.8815 16H75.0415V10.864C75.0415 9.216 76.0015 8.32 77.2335 8.32C78.6415 8.32 79.3455 9.216 79.3455 10.672V16H81.5375V10.448C81.5375 7.904 80.1775 6.448 77.8255 6.448C76.6095 6.448 75.6495 6.976 75.0255 7.792V6.64H72.8815V16ZM88.2118 16.16C90.7718 16.16 92.2438 14.368 92.2438 12.528C92.2438 10.288 90.4518 9.584 88.8678 9.072C87.5878 8.64 86.4838 8.368 86.4838 7.424C86.4838 6.672 87.0438 6.096 88.1158 6.096C89.0278 6.096 89.7318 6.464 90.2278 7.216L92.0198 5.856C91.0758 4.88 89.9718 4.16 88.0998 4.16C85.8598 4.16 84.2278 5.632 84.2278 7.504C84.2278 9.728 85.9558 10.32 87.5398 10.832C88.7718 11.216 89.9718 11.536 89.9718 12.512C89.9718 13.328 89.3478 14.08 88.1958 14.08C87.1238 14.08 86.2278 13.52 85.6358 12.496L83.6518 14.064C84.7238 15.264 86.1158 16.16 88.2118 16.16ZM96.6705 16H98.7985L101.231 9.52L103.599 16H105.679L108.959 6.64H106.767L104.623 13.104L102.319 6.64H100.175L97.8225 13.088L95.7585 6.64H93.5505L96.6705 16ZM114.912 16.192C116.144 16.192 117.264 15.664 117.952 14.784V16H120.112V6.64H117.952V7.76C117.264 6.944 116.176 6.448 114.944 6.448C112.576 6.448 110.304 8.224 110.304 11.328C110.304 14.4 112.656 16.192 114.912 16.192ZM115.264 14.208C113.664 14.208 112.432 12.928 112.432 11.296C112.432 9.68 113.664 8.416 115.264 8.416C116.88 8.416 118.064 9.696 118.064 11.296C118.064 12.912 116.88 14.208 115.264 14.208ZM128.06 16.192C130.316 16.192 132.652 14.4 132.652 11.328C132.652 8.224 130.396 6.448 128.044 6.448C126.764 6.448 125.66 7.008 125.004 7.888V6.64H122.86V20.304H125.004V14.896C125.66 15.728 126.78 16.192 128.06 16.192ZM127.708 14.208C126.092 14.208 124.924 12.912 124.924 11.296C124.924 9.696 126.092 8.416 127.708 8.416C129.292 8.416 130.524 9.68 130.524 11.296C130.524 12.928 129.292 14.208 127.708 14.208Z" fill="black"/>
<path d="M49.97 28.8165H47.19L46.73 30.1465H45.26L47.77 23.1565H49.4L51.91 30.1465H50.43L49.97 28.8165ZM49.59 27.6965L48.58 24.7765L47.57 27.6965H49.59ZM55.1482 22.7465V30.1465H53.7482V22.7465H55.1482ZM58.8314 25.4065C59.0114 25.1532 59.2581 24.9432 59.5714 24.7765C59.8914 24.6032 60.2547 24.5165 60.6614 24.5165C61.1347 24.5165 61.5614 24.6332 61.9414 24.8665C62.3281 25.0998 62.6314 25.4332 62.8514 25.8665C63.0781 26.2932 63.1914 26.7898 63.1914 27.3565C63.1914 27.9232 63.0781 28.4265 62.8514 28.8665C62.6314 29.2998 62.3281 29.6365 61.9414 29.8765C61.5614 30.1165 61.1347 30.2365 60.6614 30.2365C60.2547 30.2365 59.8947 30.1532 59.5814 29.9865C59.2747 29.8198 59.0247 29.6098 58.8314 29.3565V32.7865H57.4314V24.6065H58.8314V25.4065ZM61.7614 27.3565C61.7614 27.0232 61.6914 26.7365 61.5514 26.4965C61.4181 26.2498 61.2381 26.0632 61.0114 25.9365C60.7914 25.8098 60.5514 25.7465 60.2914 25.7465C60.0381 25.7465 59.7981 25.8132 59.5714 25.9465C59.3514 26.0732 59.1714 26.2598 59.0314 26.5065C58.8981 26.7532 58.8314 27.0432 58.8314 27.3765C58.8314 27.7098 58.8981 27.9998 59.0314 28.2465C59.1714 28.4932 59.3514 28.6832 59.5714 28.8165C59.7981 28.9432 60.0381 29.0065 60.2914 29.0065C60.5514 29.0065 60.7914 28.9398 61.0114 28.8065C61.2381 28.6732 61.4181 28.4832 61.5514 28.2365C61.6914 27.9898 61.7614 27.6965 61.7614 27.3565ZM68.2288 24.5265C68.6488 24.5265 69.0221 24.6198 69.3488 24.8065C69.6754 24.9865 69.9288 25.2565 70.1088 25.6165C70.2954 25.9698 70.3888 26.3965 70.3888 26.8965V30.1465H68.9888V27.0865C68.9888 26.6465 68.8788 26.3098 68.6588 26.0765C68.4388 25.8365 68.1388 25.7165 67.7588 25.7165C67.3721 25.7165 67.0654 25.8365 66.8388 26.0765C66.6188 26.3098 66.5088 26.6465 66.5088 27.0865V30.1465H65.1088V22.7465H66.5088V25.2965C66.6888 25.0565 66.9288 24.8698 67.2288 24.7365C67.5288 24.5965 67.8621 24.5265 68.2288 24.5265ZM72.2601 27.3565C72.2601 26.7965 72.3701 26.2998 72.5901 25.8665C72.8167 25.4332 73.1201 25.0998 73.5001 24.8665C73.8867 24.6332 74.3167 24.5165 74.7901 24.5165C75.2034 24.5165 75.5634 24.5998 75.8701 24.7665C76.1834 24.9332 76.4334 25.1432 76.6201 25.3965V24.6065H78.0301V30.1465H76.6201V29.3365C76.4401 29.5965 76.1901 29.8132 75.8701 29.9865C75.5567 30.1532 75.1934 30.2365 74.7801 30.2365C74.3134 30.2365 73.8867 30.1165 73.5001 29.8765C73.1201 29.6365 72.8167 29.2998 72.5901 28.8665C72.3701 28.4265 72.2601 27.9232 72.2601 27.3565ZM76.6201 27.3765C76.6201 27.0365 76.5534 26.7465 76.4201 26.5065C76.2867 26.2598 76.1067 26.0732 75.8801 25.9465C75.6534 25.8132 75.4101 25.7465 75.1501 25.7465C74.8901 25.7465 74.6501 25.8098 74.4301 25.9365C74.2101 26.0632 74.0301 26.2498 73.8901 26.4965C73.7567 26.7365 73.6901 27.0232 73.6901 27.3565C73.6901 27.6898 73.7567 27.9832 73.8901 28.2365C74.0301 28.4832 74.2101 28.6732 74.4301 28.8065C74.6567 28.9398 74.8967 29.0065 75.1501 29.0065C75.4101 29.0065 75.6534 28.9432 75.8801 28.8165C76.1067 28.6832 76.2867 28.4965 76.4201 28.2565C76.5534 28.0098 76.6201 27.7165 76.6201 27.3765ZM88.3302 23.1665V24.2965H86.4702V30.1465H85.0702V24.2965H83.2102V23.1665H88.3302ZM95.4017 27.2565C95.4017 27.4565 95.3884 27.6365 95.3617 27.7965H91.3117C91.3451 28.1965 91.4851 28.5098 91.7317 28.7365C91.9784 28.9632 92.2817 29.0765 92.6417 29.0765C93.1617 29.0765 93.5317 28.8532 93.7517 28.4065H95.2617C95.1017 28.9398 94.7951 29.3798 94.3417 29.7265C93.8884 30.0665 93.3317 30.2365 92.6717 30.2365C92.1384 30.2365 91.6584 30.1198 91.2317 29.8865C90.8117 29.6465 90.4817 29.3098 90.2417 28.8765C90.0084 28.4432 89.8917 27.9432 89.8917 27.3765C89.8917 26.8032 90.0084 26.2998 90.2417 25.8665C90.4751 25.4332 90.8017 25.0998 91.2217 24.8665C91.6417 24.6332 92.1251 24.5165 92.6717 24.5165C93.1984 24.5165 93.6684 24.6298 94.0817 24.8565C94.5017 25.0832 94.8251 25.4065 95.0517 25.8265C95.2851 26.2398 95.4017 26.7165 95.4017 27.2565ZM93.9517 26.8565C93.9451 26.4965 93.8151 26.2098 93.5617 25.9965C93.3084 25.7765 92.9984 25.6665 92.6317 25.6665C92.2851 25.6665 91.9917 25.7732 91.7517 25.9865C91.5184 26.1932 91.3751 26.4832 91.3217 26.8565H93.9517ZM99.4436 30.2365C98.9903 30.2365 98.5836 30.1565 98.2236 29.9965C97.8636 29.8298 97.5769 29.6065 97.3636 29.3265C97.1569 29.0465 97.0436 28.7365 97.0236 28.3965H98.4336C98.4603 28.6098 98.5636 28.7865 98.7436 28.9265C98.9303 29.0665 99.1603 29.1365 99.4336 29.1365C99.7003 29.1365 99.9069 29.0832 100.054 28.9765C100.207 28.8698 100.284 28.7332 100.284 28.5665C100.284 28.3865 100.19 28.2532 100.004 28.1665C99.8236 28.0732 99.5336 27.9732 99.1336 27.8665C98.7203 27.7665 98.3803 27.6632 98.1136 27.5565C97.8536 27.4498 97.6269 27.2865 97.4336 27.0665C97.2469 26.8465 97.1536 26.5498 97.1536 26.1765C97.1536 25.8698 97.2403 25.5898 97.4136 25.3365C97.5936 25.0832 97.8469 24.8832 98.1736 24.7365C98.5069 24.5898 98.8969 24.5165 99.3436 24.5165C100.004 24.5165 100.53 24.6832 100.924 25.0165C101.317 25.3432 101.534 25.7865 101.574 26.3465H100.234C100.214 26.1265 100.12 25.9532 99.9536 25.8265C99.7936 25.6932 99.5769 25.6265 99.3036 25.6265C99.0503 25.6265 98.8536 25.6732 98.7136 25.7665C98.5803 25.8598 98.5136 25.9898 98.5136 26.1565C98.5136 26.3432 98.6069 26.4865 98.7936 26.5865C98.9803 26.6798 99.2703 26.7765 99.6636 26.8765C100.064 26.9765 100.394 27.0798 100.654 27.1865C100.914 27.2932 101.137 27.4598 101.324 27.6865C101.517 27.9065 101.617 28.1998 101.624 28.5665C101.624 28.8865 101.534 29.1732 101.354 29.4265C101.18 29.6798 100.927 29.8798 100.594 30.0265C100.267 30.1665 99.8836 30.2365 99.4436 30.2365ZM105.303 25.7565V28.4365C105.303 28.6232 105.346 28.7598 105.433 28.8465C105.526 28.9265 105.679 28.9665 105.893 28.9665H106.543V30.1465H105.663C104.483 30.1465 103.893 29.5732 103.893 28.4265V25.7565H103.233V24.6065H103.893V23.2365H105.303V24.6065H106.543V25.7565H105.303Z" fill="#2AC89F"/>
</g>
<defs>
<filter id="filter0_d_5423_314520" x="-1.96" y="-0.133516" width="38.92" height="38.92" filterUnits="userSpaceOnUse" color-interpolation-filters="sRGB">
<feFlood flood-opacity="0" result="BackgroundImageFix"/>
<feColorMatrix in="SourceAlpha" type="matrix" values="0 0 0 0 0 0 0 0 0 0 0 0 0 0 0 0 0 0 127 0" result="hardAlpha"/>
<feMorphology radius="0.7" operator="erode" in="SourceAlpha" result="effect1_dropShadow_5423_314520"/>
<feOffset dy="1.68"/>
<feGaussianBlur stdDeviation="1.33"/>
<feColorMatrix type="matrix" values="0 0 0 0 0.145098 0 0 0 0 0.152941 0 0 0 0 0.239216 0 0 0 0.08 0"/>
<feBlend mode="normal" in2="BackgroundImageFix" result="effect1_dropShadow_5423_314520"/>
<feBlend mode="normal" in="SourceGraphic" in2="effect1_dropShadow_5423_314520" result="shape"/>
</filter>
<linearGradient id="paint0_linear_5423_314520" x1="3.84268" y1="1.04198e-07" x2="29.9335" y2="32.7743" gradientUnits="userSpaceOnUse">
<stop stop-color="#F261FF"/>
<stop offset="0.479167" stop-color="#83D9D9"/>
<stop offset="0.713542" stop-color="#87F7A6"/>
<stop offset="1" stop-color="#90FB9B"/>
</linearGradient>
<clipPath id="clip0_5423_314520">
<rect width="133" height="35" fill="white"/>
</clipPath>
<clipPath id="clip1_5423_314520">
<rect y="0.146484" width="35" height="35" rx="17.5" fill="white"/>
</clipPath>
<clipPath id="clip2_5423_314520">
<rect width="27.5055" height="23.94" fill="white" transform="translate(4.62 6.1665)"/>
</clipPath>
<clipPath id="clip3_5423_314520">
<rect x="4.61987" y="7.43994" width="13.2434" height="23.2132" fill="white"/>
</clipPath>
<clipPath id="clip4_5423_314520">
<rect width="13.2434" height="23.2132" transform="matrix(-1 0 0 1 31.1067 7.43994)" fill="white"/>
</clipPath>
</defs>
</svg>
