<svg width="158" height="35" viewBox="0 0 158 35" fill="none" xmlns="http://www.w3.org/2000/svg">
<g clip-path="url(#clip0_5481_314710)">
<circle cx="17.9269" cy="17.9268" r="17.0732" fill="url(#paint0_linear_5481_314710)"/>
<g filter="url(#filter0_d_5481_314710)">
<g clip-path="url(#clip1_5481_314710)">
<g clip-path="url(#clip2_5481_314710)">
<path d="M15.4282 16.5297L6.33111 11.7159L5.36389 13.6504L10.5 22.133L12.3876 19.5002V17.8799V17.0023H14.7531L15.0906 17.8799L15.4282 16.5297Z" fill="black"/>
<path d="M15.8333 18.2849C16.2715 18.1623 17.2903 17.844 17.8633 17.668V20.7928L15.4283 22.4705L16.1709 25.5759L17.9261 26.7911L17.8633 29.721H15.4283L10.5001 22.1329L13.8521 20.5818L15.1255 21.6005L16.846 19.6351L15.8333 18.2849Z" fill="black"/>
<path d="M13.176 26.2985L16.1521 25.5544L15.4081 29.7209L13.176 26.2985Z" fill="black"/>
<path d="M13.403 12.209L11.9853 13.2892L6.33112 11.7159L7.22397 9.84619H17.8633V13.7247L13.403 12.209Z" fill="black"/>
<path d="M17.8632 9.85583L13.3992 12.2367L17.8632 13.7247V9.85583Z" fill="black"/>
</g>
<g clip-path="url(#clip3_5481_314710)">
<path d="M20.2984 16.5297L29.3955 11.7159L30.3627 13.6504L25.2266 22.133L23.3389 19.5002V17.8799V17.0023H20.9735L20.6359 17.8799L20.2984 16.5297Z" fill="black"/>
<path d="M19.8932 18.2849C19.455 18.1623 18.4363 17.844 17.8633 17.668V20.7928L20.2983 22.4705L19.5557 25.5759L17.8004 26.7911L17.8633 29.721H20.2983L25.2265 22.1329L21.8745 20.5818L20.6011 21.6005L18.8806 19.6351L19.8932 18.2849Z" fill="black"/>
<path d="M22.5505 26.2985L19.5745 25.5544L20.3185 29.7209L22.5505 26.2985Z" fill="black"/>
<path d="M22.3236 12.209L23.7413 13.2892L29.3954 11.7159L28.5026 9.84619H17.8632V13.7247L22.3236 12.209Z" fill="black"/>
<path d="M17.8633 9.85583L22.3274 12.2367L17.8633 13.7247V9.85583Z" fill="black"/>
</g>
</g>
</g>
</g>
<path d="M45.672 16.5H49.64C52.216 16.5 53.832 15.348 53.832 13.044C53.832 11.748 53.224 10.852 52.136 10.356C52.984 9.86 53.416 9.092 53.416 8.084C53.416 5.924 51.96 4.82 49.352 4.82H45.672V16.5ZM49.544 11.508C51.16 11.508 51.64 12.036 51.64 12.996C51.64 13.956 50.968 14.5 49.64 14.5H47.848V11.508H49.544ZM49.352 6.82C50.696 6.82 51.224 7.204 51.224 8.084C51.224 8.916 50.744 9.476 49.352 9.476H47.848V6.82H49.352ZM56.2359 16.5H58.4119V7.14H56.2359V16.5ZM55.9639 4.852C55.9639 5.668 56.4439 6.196 57.3239 6.196C58.1719 6.196 58.6839 5.668 58.6839 4.852C58.6839 4.036 58.1719 3.492 57.3239 3.492C56.4919 3.492 55.9639 4.036 55.9639 4.852ZM65.6418 16.692C68.3298 16.692 70.4898 14.516 70.4898 11.828C70.4898 9.092 68.3298 6.948 65.6418 6.948C62.9378 6.948 60.7938 9.092 60.7938 11.828C60.7938 14.516 62.9378 16.692 65.6418 16.692ZM65.6418 14.66C64.0898 14.66 62.9218 13.38 62.9218 11.828C62.9218 10.244 64.0898 8.98 65.6418 8.98C67.1778 8.98 68.3618 10.244 68.3618 11.828C68.3618 13.38 67.1778 14.66 65.6418 14.66ZM72.8815 16.5H75.0415V11.364C75.0415 9.716 76.0015 8.82 77.2335 8.82C78.6415 8.82 79.3455 9.716 79.3455 11.172V16.5H81.5375V10.948C81.5375 8.404 80.1775 6.948 77.8255 6.948C76.6095 6.948 75.6495 7.476 75.0255 8.292V7.14H72.8815V16.5ZM88.2118 16.66C90.7718 16.66 92.2438 14.868 92.2438 13.028C92.2438 10.788 90.4518 10.084 88.8678 9.572C87.5878 9.14 86.4838 8.868 86.4838 7.924C86.4838 7.172 87.0438 6.596 88.1158 6.596C89.0278 6.596 89.7318 6.964 90.2278 7.716L92.0198 6.356C91.0758 5.38 89.9718 4.66 88.0998 4.66C85.8598 4.66 84.2278 6.132 84.2278 8.004C84.2278 10.228 85.9558 10.82 87.5398 11.332C88.7718 11.716 89.9718 12.036 89.9718 13.012C89.9718 13.828 89.3478 14.58 88.1958 14.58C87.1238 14.58 86.2278 14.02 85.6358 12.996L83.6518 14.564C84.7238 15.764 86.1158 16.66 88.2118 16.66ZM96.6705 16.5H98.7985L101.231 10.02L103.599 16.5H105.679L108.959 7.14H106.767L104.623 13.604L102.319 7.14H100.175L97.8225 13.588L95.7585 7.14H93.5505L96.6705 16.5ZM114.912 16.692C116.144 16.692 117.264 16.164 117.952 15.284V16.5H120.112V7.14H117.952V8.26C117.264 7.444 116.176 6.948 114.944 6.948C112.576 6.948 110.304 8.724 110.304 11.828C110.304 14.9 112.656 16.692 114.912 16.692ZM115.264 14.708C113.664 14.708 112.432 13.428 112.432 11.796C112.432 10.18 113.664 8.916 115.264 8.916C116.88 8.916 118.064 10.196 118.064 11.796C118.064 13.412 116.88 14.708 115.264 14.708ZM128.06 16.692C130.316 16.692 132.652 14.9 132.652 11.828C132.652 8.724 130.396 6.948 128.044 6.948C126.764 6.948 125.66 7.508 125.004 8.388V7.14H122.86V20.804H125.004V15.396C125.66 16.228 126.78 16.692 128.06 16.692ZM127.708 14.708C126.092 14.708 124.924 13.412 124.924 11.796C124.924 10.196 126.092 8.916 127.708 8.916C129.292 8.916 130.524 10.18 130.524 11.796C130.524 13.428 129.292 14.708 127.708 14.708Z" fill="black"/>
<path d="M49.97 29.17H47.19L46.73 30.5H45.26L47.77 23.51H49.4L51.91 30.5H50.43L49.97 29.17ZM49.59 28.05L48.58 25.13L47.57 28.05H49.59ZM55.1482 23.1V30.5H53.7482V23.1H55.1482ZM58.8314 25.76C59.0114 25.5067 59.2581 25.2967 59.5714 25.13C59.8914 24.9567 60.2547 24.87 60.6614 24.87C61.1347 24.87 61.5614 24.9867 61.9414 25.22C62.3281 25.4533 62.6314 25.7867 62.8514 26.22C63.0781 26.6467 63.1914 27.1433 63.1914 27.71C63.1914 28.2767 63.0781 28.78 62.8514 29.22C62.6314 29.6533 62.3281 29.99 61.9414 30.23C61.5614 30.47 61.1347 30.59 60.6614 30.59C60.2547 30.59 59.8947 30.5067 59.5814 30.34C59.2747 30.1733 59.0247 29.9633 58.8314 29.71V33.14H57.4314V24.96H58.8314V25.76ZM61.7614 27.71C61.7614 27.3767 61.6914 27.09 61.5514 26.85C61.4181 26.6033 61.2381 26.4167 61.0114 26.29C60.7914 26.1633 60.5514 26.1 60.2914 26.1C60.0381 26.1 59.7981 26.1667 59.5714 26.3C59.3514 26.4267 59.1714 26.6133 59.0314 26.86C58.8981 27.1067 58.8314 27.3967 58.8314 27.73C58.8314 28.0633 58.8981 28.3533 59.0314 28.6C59.1714 28.8467 59.3514 29.0367 59.5714 29.17C59.7981 29.2967 60.0381 29.36 60.2914 29.36C60.5514 29.36 60.7914 29.2933 61.0114 29.16C61.2381 29.0267 61.4181 28.8367 61.5514 28.59C61.6914 28.3433 61.7614 28.05 61.7614 27.71ZM68.2288 24.88C68.6488 24.88 69.0221 24.9733 69.3488 25.16C69.6754 25.34 69.9288 25.61 70.1088 25.97C70.2954 26.3233 70.3888 26.75 70.3888 27.25V30.5H68.9888V27.44C68.9888 27 68.8788 26.6633 68.6588 26.43C68.4388 26.19 68.1388 26.07 67.7588 26.07C67.3721 26.07 67.0654 26.19 66.8388 26.43C66.6188 26.6633 66.5088 27 66.5088 27.44V30.5H65.1088V23.1H66.5088V25.65C66.6888 25.41 66.9288 25.2233 67.2288 25.09C67.5288 24.95 67.8621 24.88 68.2288 24.88ZM72.2601 27.71C72.2601 27.15 72.3701 26.6533 72.5901 26.22C72.8167 25.7867 73.1201 25.4533 73.5001 25.22C73.8867 24.9867 74.3167 24.87 74.7901 24.87C75.2034 24.87 75.5634 24.9533 75.8701 25.12C76.1834 25.2867 76.4334 25.4967 76.6201 25.75V24.96H78.0301V30.5H76.6201V29.69C76.4401 29.95 76.1901 30.1667 75.8701 30.34C75.5567 30.5067 75.1934 30.59 74.7801 30.59C74.3134 30.59 73.8867 30.47 73.5001 30.23C73.1201 29.99 72.8167 29.6533 72.5901 29.22C72.3701 28.78 72.2601 28.2767 72.2601 27.71ZM76.6201 27.73C76.6201 27.39 76.5534 27.1 76.4201 26.86C76.2867 26.6133 76.1067 26.4267 75.8801 26.3C75.6534 26.1667 75.4101 26.1 75.1501 26.1C74.8901 26.1 74.6501 26.1633 74.4301 26.29C74.2101 26.4167 74.0301 26.6033 73.8901 26.85C73.7567 27.09 73.6901 27.3767 73.6901 27.71C73.6901 28.0433 73.7567 28.3367 73.8901 28.59C74.0301 28.8367 74.2101 29.0267 74.4301 29.16C74.6567 29.2933 74.8967 29.36 75.1501 29.36C75.4101 29.36 75.6534 29.2967 75.8801 29.17C76.1067 29.0367 76.2867 28.85 76.4201 28.61C76.5534 28.3633 76.6201 28.07 76.6201 27.73ZM88.3302 23.52V24.65H86.4702V30.5H85.0702V24.65H83.2102V23.52H88.3302ZM95.4017 27.61C95.4017 27.81 95.3884 27.99 95.3617 28.15H91.3117C91.3451 28.55 91.4851 28.8633 91.7317 29.09C91.9784 29.3167 92.2817 29.43 92.6417 29.43C93.1617 29.43 93.5317 29.2067 93.7517 28.76H95.2617C95.1017 29.2933 94.7951 29.7333 94.3417 30.08C93.8884 30.42 93.3317 30.59 92.6717 30.59C92.1384 30.59 91.6584 30.4733 91.2317 30.24C90.8117 30 90.4817 29.6633 90.2417 29.23C90.0084 28.7967 89.8917 28.2967 89.8917 27.73C89.8917 27.1567 90.0084 26.6533 90.2417 26.22C90.4751 25.7867 90.8017 25.4533 91.2217 25.22C91.6417 24.9867 92.1251 24.87 92.6717 24.87C93.1984 24.87 93.6684 24.9833 94.0817 25.21C94.5017 25.4367 94.8251 25.76 95.0517 26.18C95.2851 26.5933 95.4017 27.07 95.4017 27.61ZM93.9517 27.21C93.9451 26.85 93.8151 26.5633 93.5617 26.35C93.3084 26.13 92.9984 26.02 92.6317 26.02C92.2851 26.02 91.9917 26.1267 91.7517 26.34C91.5184 26.5467 91.3751 26.8367 91.3217 27.21H93.9517ZM99.4436 30.59C98.9903 30.59 98.5836 30.51 98.2236 30.35C97.8636 30.1833 97.5769 29.96 97.3636 29.68C97.1569 29.4 97.0436 29.09 97.0236 28.75H98.4336C98.4603 28.9633 98.5636 29.14 98.7436 29.28C98.9303 29.42 99.1603 29.49 99.4336 29.49C99.7003 29.49 99.9069 29.4367 100.054 29.33C100.207 29.2233 100.284 29.0867 100.284 28.92C100.284 28.74 100.19 28.6067 100.004 28.52C99.8236 28.4267 99.5336 28.3267 99.1336 28.22C98.7203 28.12 98.3803 28.0167 98.1136 27.91C97.8536 27.8033 97.6269 27.64 97.4336 27.42C97.2469 27.2 97.1536 26.9033 97.1536 26.53C97.1536 26.2233 97.2403 25.9433 97.4136 25.69C97.5936 25.4367 97.8469 25.2367 98.1736 25.09C98.5069 24.9433 98.8969 24.87 99.3436 24.87C100.004 24.87 100.53 25.0367 100.924 25.37C101.317 25.6967 101.534 26.14 101.574 26.7H100.234C100.214 26.48 100.12 26.3067 99.9536 26.18C99.7936 26.0467 99.5769 25.98 99.3036 25.98C99.0503 25.98 98.8536 26.0267 98.7136 26.12C98.5803 26.2133 98.5136 26.3433 98.5136 26.51C98.5136 26.6967 98.6069 26.84 98.7936 26.94C98.9803 27.0333 99.2703 27.13 99.6636 27.23C100.064 27.33 100.394 27.4333 100.654 27.54C100.914 27.6467 101.137 27.8133 101.324 28.04C101.517 28.26 101.617 28.5533 101.624 28.92C101.624 29.24 101.534 29.5267 101.354 29.78C101.18 30.0333 100.927 30.2333 100.594 30.38C100.267 30.52 99.8836 30.59 99.4436 30.59ZM105.303 26.11V28.79C105.303 28.9767 105.346 29.1133 105.433 29.2C105.526 29.28 105.679 29.32 105.893 29.32H106.543V30.5H105.663C104.483 30.5 103.893 29.9267 103.893 28.78V26.11H103.233V24.96H103.893V23.59H105.303V24.96H106.543V26.11H105.303Z" fill="#2AC89F"/>
<defs>
<filter id="filter0_d_5481_314710" x="-1.96" y="0.72" width="38.92" height="38.92" filterUnits="userSpaceOnUse" color-interpolation-filters="sRGB">
<feFlood flood-opacity="0" result="BackgroundImageFix"/>
<feColorMatrix in="SourceAlpha" type="matrix" values="0 0 0 0 0 0 0 0 0 0 0 0 0 0 0 0 0 0 127 0" result="hardAlpha"/>
<feMorphology radius="0.7" operator="erode" in="SourceAlpha" result="effect1_dropShadow_5481_314710"/>
<feOffset dy="1.68"/>
<feGaussianBlur stdDeviation="1.33"/>
<feColorMatrix type="matrix" values="0 0 0 0 0.145098 0 0 0 0 0.152941 0 0 0 0 0.239216 0 0 0 0.08 0"/>
<feBlend mode="normal" in2="BackgroundImageFix" result="effect1_dropShadow_5481_314710"/>
<feBlend mode="normal" in="SourceGraphic" in2="effect1_dropShadow_5481_314710" result="shape"/>
</filter>
<linearGradient id="paint0_linear_5481_314710" x1="3.84268" y1="0.853638" x2="29.9335" y2="33.6279" gradientUnits="userSpaceOnUse">
<stop stop-color="#F261FF"/>
<stop offset="0.479167" stop-color="#83D9D9"/>
<stop offset="0.713542" stop-color="#87F7A6"/>
<stop offset="1" stop-color="#90FB9B"/>
</linearGradient>
<clipPath id="clip0_5481_314710">
<rect width="35" height="35" fill="white"/>
</clipPath>
<clipPath id="clip1_5481_314710">
<rect width="27.5055" height="23.94" fill="white" transform="translate(4.62 7.02002)"/>
</clipPath>
<clipPath id="clip2_5481_314710">
<rect x="4.61987" y="8.29346" width="13.2434" height="23.2132" fill="white"/>
</clipPath>
<clipPath id="clip3_5481_314710">
<rect width="13.2434" height="23.2132" transform="matrix(-1 0 0 1 31.1067 8.29346)" fill="white"/>
</clipPath>
</defs>
</svg>
