<svg xmlns="http://www.w3.org/2000/svg" viewBox="0 0 162.99 162.99"><defs><style>.cls-1{fill:#3671e9;}.cls-2{fill:#fff;}</style></defs><g id="Layer_2" data-name="Layer 2"><g id="Layer_1-2" data-name="Layer 1"><circle class="cls-1" cx="81.49" cy="81.49" r="81.49"/><path class="cls-2" d="M83.26,37,49.53,96.77A29.5,29.5,0,0,1,33.42,70.09C33.42,52.34,47.37,37,73.23,37Z"/><path class="cls-2" d="M83.25,125.62H115s14.62-15.72,14.62-35.49c0-23.43-23.15-23.84-23.15-23.84l1.91-3.36A17.32,17.32,0,0,0,93.28,37h0L75.67,68.68c4.71.5,25.46,3.76,25.46,22.13C101.13,108.42,83.25,125.62,83.25,125.62Z"/><path class="cls-2" d="M44,125.62a55.12,55.12,0,0,0,7.52.33c18.08,0,39.88-12,39.88-33.45,0-13.62-15.93-14.89-20.64-15Z"/></g></g></svg>