<svg width="191" height="35" viewBox="0 0 191 35" fill="none" xmlns="http://www.w3.org/2000/svg">
<g clip-path="url(#clip0_55_2957)">
<circle cx="17.9268" cy="17.9268" r="17.0732" fill="url(#paint0_linear_55_2957)"/>
<g filter="url(#filter0_d_55_2957)">
<g clip-path="url(#clip1_55_2957)">
<g clip-path="url(#clip2_55_2957)">
<path d="M15.4282 16.5297L6.33111 11.7159L5.36389 13.6504L10.5 22.133L12.3876 19.5002V17.8799V17.0023H14.7531L15.0906 17.8799L15.4282 16.5297Z" fill="black"/>
<path d="M15.8333 18.2849C16.2715 18.1623 17.2902 17.844 17.8632 17.668V20.7928L15.4282 22.4705L16.1708 25.5759L17.9261 26.7911L17.8632 29.721H15.4282L10.5 22.1329L13.852 20.5818L15.1254 21.6005L16.8459 19.6351L15.8333 18.2849Z" fill="black"/>
<path d="M13.176 26.2985L16.1521 25.5544L15.4081 29.7209L13.176 26.2985Z" fill="black"/>
<path d="M13.4031 12.209L11.9854 13.2892L6.33118 11.7159L7.22404 9.84619H17.8634V13.7247L13.4031 12.209Z" fill="black"/>
<path d="M17.8632 9.85583L13.3992 12.2367L17.8632 13.7247V9.85583Z" fill="black"/>
</g>
<g clip-path="url(#clip3_55_2957)">
<path d="M20.2984 16.5297L29.3955 11.7159L30.3627 13.6504L25.2266 22.133L23.3389 19.5002V17.8799V17.0023H20.9735L20.6359 17.8799L20.2984 16.5297Z" fill="black"/>
<path d="M19.8933 18.2849C19.4551 18.1623 18.4364 17.844 17.8633 17.668V20.7928L20.2983 22.4705L19.5557 25.5759L17.8005 26.7911L17.8633 29.721H20.2983L25.2266 22.1329L21.8745 20.5818L20.6011 21.6005L18.8806 19.6351L19.8933 18.2849Z" fill="black"/>
<path d="M22.5505 26.2985L19.5745 25.5544L20.3185 29.7209L22.5505 26.2985Z" fill="black"/>
<path d="M22.3235 12.209L23.7412 13.2892L29.3954 11.7159L28.5025 9.84619H17.8632V13.7247L22.3235 12.209Z" fill="black"/>
<path d="M17.8633 9.85583L22.3274 12.2367L17.8633 13.7247V9.85583Z" fill="black"/>
</g>
</g>
</g>
</g>
<path d="M52.3 25.24C55.1 25.24 58.02 23 58.02 19.16C58.02 15.28 55.2 13.06 52.26 13.06C50.68 13.06 49.3 13.74 48.48 14.78V10.2H45.78V25H48.46V23.48C49.32 24.6 50.7 25.24 52.3 25.24ZM51.84 22.76C49.84 22.76 48.36 21.14 48.36 19.12C48.36 17.12 49.84 15.52 51.84 15.52C53.82 15.52 55.36 17.1 55.36 19.12C55.36 21.16 53.82 22.76 51.84 22.76ZM60.9394 25H63.6594V13.3H60.9394V25ZM60.5994 10.44C60.5994 11.46 61.1994 12.12 62.2994 12.12C63.3594 12.12 63.9994 11.46 63.9994 10.44C63.9994 9.42 63.3594 8.74 62.2994 8.74C61.2594 8.74 60.5994 9.42 60.5994 10.44ZM72.6967 25.24C76.0567 25.24 78.7567 22.52 78.7567 19.16C78.7567 15.74 76.0567 13.06 72.6967 13.06C69.3167 13.06 66.6367 15.74 66.6367 19.16C66.6367 22.52 69.3167 25.24 72.6967 25.24ZM72.6967 22.7C70.7567 22.7 69.2967 21.1 69.2967 19.16C69.2967 17.18 70.7567 15.6 72.6967 15.6C74.6167 15.6 76.0967 17.18 76.0967 19.16C76.0967 21.1 74.6167 22.7 72.6967 22.7ZM81.7464 25H84.4464V18.58C84.4464 16.52 85.6464 15.4 87.1864 15.4C88.9464 15.4 89.8264 16.52 89.8264 18.34V25H92.5664V18.06C92.5664 14.88 90.8664 13.06 87.9264 13.06C86.4064 13.06 85.2064 13.72 84.4264 14.74V13.3H81.7464V25ZM100.329 25.24C103.669 25.24 105.129 23.06 105.129 21.42C105.129 18.96 102.929 18.28 101.009 17.9C99.2492 17.52 98.3292 17.32 98.3292 16.54C98.3292 15.88 98.9292 15.28 100.209 15.28C101.329 15.28 102.209 15.8 102.689 16.62L104.989 15.46C104.089 13.96 102.589 13.04 100.209 13.04C97.4292 13.04 95.6092 14.74 95.6092 16.62C95.6092 19.08 97.7092 19.72 99.7092 20.14C101.149 20.46 102.449 20.62 102.449 21.48C102.449 22.26 101.789 22.9 100.449 22.9C99.1692 22.9 98.1892 22.3 97.6292 21.2L95.1292 22.4C96.0692 24.24 97.7092 25.24 100.329 25.24ZM110.76 25H113.42L116.46 16.9L119.42 25H122.02L126.12 13.3H123.38L120.7 21.38L117.82 13.3H115.14L112.2 21.36L109.62 13.3H106.86L110.76 25ZM133.562 25.24C135.102 25.24 136.502 24.58 137.362 23.48V25H140.062V13.3H137.362V14.7C136.502 13.68 135.142 13.06 133.602 13.06C130.642 13.06 127.802 15.28 127.802 19.16C127.802 23 130.742 25.24 133.562 25.24ZM134.002 22.76C132.002 22.76 130.462 21.16 130.462 19.12C130.462 17.1 132.002 15.52 134.002 15.52C136.022 15.52 137.502 17.12 137.502 19.12C137.502 21.14 136.022 22.76 134.002 22.76ZM149.997 25.24C152.817 25.24 155.737 23 155.737 19.16C155.737 15.28 152.917 13.06 149.977 13.06C148.377 13.06 146.997 13.76 146.177 14.86V13.3H143.497V30.38H146.177V23.62C146.997 24.66 148.397 25.24 149.997 25.24ZM149.557 22.76C147.537 22.76 146.077 21.14 146.077 19.12C146.077 17.12 147.537 15.52 149.557 15.52C151.537 15.52 153.077 17.1 153.077 19.12C153.077 21.16 151.537 22.76 149.557 22.76Z" fill="white"/>
<defs>
<filter id="filter0_d_55_2957" x="-1.96" y="0.72" width="38.92" height="38.92" filterUnits="userSpaceOnUse" color-interpolation-filters="sRGB">
<feFlood flood-opacity="0" result="BackgroundImageFix"/>
<feColorMatrix in="SourceAlpha" type="matrix" values="0 0 0 0 0 0 0 0 0 0 0 0 0 0 0 0 0 0 127 0" result="hardAlpha"/>
<feMorphology radius="0.7" operator="erode" in="SourceAlpha" result="effect1_dropShadow_55_2957"/>
<feOffset dy="1.68"/>
<feGaussianBlur stdDeviation="1.33"/>
<feColorMatrix type="matrix" values="0 0 0 0 0.145098 0 0 0 0 0.152941 0 0 0 0 0.239216 0 0 0 0.08 0"/>
<feBlend mode="normal" in2="BackgroundImageFix" result="effect1_dropShadow_55_2957"/>
<feBlend mode="normal" in="SourceGraphic" in2="effect1_dropShadow_55_2957" result="shape"/>
</filter>
<linearGradient id="paint0_linear_55_2957" x1="3.88886" y1="1.18355" x2="28.6386" y2="29.725" gradientUnits="userSpaceOnUse">
<stop stop-color="#88E5ED"/>
<stop offset="0.479167" stop-color="#83D9C0"/>
<stop offset="0.713542" stop-color="#87F7BE"/>
<stop offset="1" stop-color="#90FBBE"/>
</linearGradient>
<clipPath id="clip0_55_2957">
<rect width="35" height="35" fill="white"/>
</clipPath>
<clipPath id="clip1_55_2957">
<rect width="27.5055" height="23.94" fill="white" transform="translate(4.62 7.02002)"/>
</clipPath>
<clipPath id="clip2_55_2957">
<rect x="4.61987" y="8.29346" width="13.2434" height="23.2132" fill="white"/>
</clipPath>
<clipPath id="clip3_55_2957">
<rect width="13.2434" height="23.2132" transform="matrix(-1 0 0 1 31.1067 8.29346)" fill="white"/>
</clipPath>
</defs>
</svg>
