<svg width="154" height="35" viewBox="0 0 154 35" fill="none" xmlns="http://www.w3.org/2000/svg">
<g clip-path="url(#clip0_230_9741)">
<circle cx="17.9269" cy="17.9269" r="17.0732" fill="url(#paint0_linear_230_9741)"/>
<g filter="url(#filter0_d_230_9741)">
<g clip-path="url(#clip1_230_9741)">
<g clip-path="url(#clip2_230_9741)">
<path d="M15.4282 16.5296L6.33111 11.7158L5.36389 13.6502L10.5 22.1329L12.3876 19.5V17.8798V17.0022H14.7531L15.0906 17.8798L15.4282 16.5296Z" fill="black"/>
<path d="M15.8333 18.2848C16.2715 18.1623 17.2902 17.8439 17.8633 17.6679V20.7928L15.4283 22.4704L16.1709 25.5759L17.9261 26.791L17.8633 29.7209H15.4283L10.5 22.1329L13.852 20.5818L15.1254 21.6005L16.846 19.635L15.8333 18.2848Z" fill="black"/>
<path d="M13.1761 26.2985L16.1521 25.5544L15.4081 29.7209L13.1761 26.2985Z" fill="black"/>
<path d="M13.403 12.209L11.9853 13.2892L6.33115 11.7159L7.224 9.84619H17.8634V13.7247L13.403 12.209Z" fill="black"/>
<path d="M17.8632 9.85577L13.3991 12.2366L17.8632 13.7246V9.85577Z" fill="black"/>
</g>
<g clip-path="url(#clip3_230_9741)">
<path d="M20.2984 16.5296L29.3955 11.7158L30.3627 13.6502L25.2266 22.1329L23.3389 19.5V17.8798V17.0022H20.9735L20.6359 17.8798L20.2984 16.5296Z" fill="black"/>
<path d="M19.8933 18.2848C19.4551 18.1623 18.4363 17.8439 17.8633 17.6679V20.7928L20.2983 22.4704L19.5557 25.5759L17.8004 26.791L17.8633 29.7209H20.2983L25.2265 22.1329L21.8745 20.5818L20.6011 21.6005L18.8806 19.635L19.8933 18.2848Z" fill="black"/>
<path d="M22.5505 26.2985L19.5745 25.5544L20.3185 29.7209L22.5505 26.2985Z" fill="black"/>
<path d="M22.3235 12.209L23.7412 13.2892L29.3954 11.7159L28.5026 9.84619H17.8632V13.7247L22.3235 12.209Z" fill="black"/>
<path d="M17.8634 9.85577L22.3274 12.2366L17.8634 13.7246V9.85577Z" fill="black"/>
</g>
</g>
</g>
</g>
<path d="M45 25.26H49.96C53.18 25.26 55.2 23.82 55.2 20.94C55.2 19.32 54.44 18.2 53.08 17.58C54.14 16.96 54.68 16 54.68 14.74C54.68 12.04 52.86 10.66 49.6 10.66H45V25.26ZM49.84 19.02C51.86 19.02 52.46 19.68 52.46 20.88C52.46 22.08 51.62 22.76 49.96 22.76H47.72V19.02H49.84ZM49.6 13.16C51.28 13.16 51.94 13.64 51.94 14.74C51.94 15.78 51.34 16.48 49.6 16.48H47.72V13.16H49.6Z" fill="white"/>
<path d="M58.2048 25.26H60.9248V13.56H58.2048V25.26ZM57.8648 10.7C57.8648 11.72 58.4648 12.38 59.5648 12.38C60.6248 12.38 61.2648 11.72 61.2648 10.7C61.2648 9.68 60.6248 9 59.5648 9C58.5248 9 57.8648 9.68 57.8648 10.7Z" fill="white"/>
<path d="M69.9622 25.5C73.3222 25.5 76.0222 22.78 76.0222 19.42C76.0222 16 73.3222 13.32 69.9622 13.32C66.5822 13.32 63.9022 16 63.9022 19.42C63.9022 22.78 66.5822 25.5 69.9622 25.5ZM69.9622 22.96C68.0222 22.96 66.5622 21.36 66.5622 19.42C66.5622 17.44 68.0222 15.86 69.9622 15.86C71.8822 15.86 73.3622 17.44 73.3622 19.42C73.3622 21.36 71.8822 22.96 69.9622 22.96Z" fill="white"/>
<path d="M79.0119 25.26H81.7119V18.84C81.7119 16.78 82.9119 15.66 84.4519 15.66C86.2119 15.66 87.0919 16.78 87.0919 18.6V25.26H89.8319V18.32C89.8319 15.14 88.1319 13.32 85.1919 13.32C83.6719 13.32 82.4719 13.98 81.6919 15V13.56H79.0119V25.26Z" fill="white"/>
<path d="M98.1747 25.46C101.375 25.46 103.215 23.22 103.215 20.92C103.215 18.12 100.975 17.24 98.9947 16.6C97.3947 16.06 96.0147 15.72 96.0147 14.54C96.0147 13.6 96.7147 12.88 98.0547 12.88C99.1947 12.88 100.075 13.34 100.695 14.28L102.935 12.58C101.755 11.36 100.375 10.46 98.0347 10.46C95.2347 10.46 93.1947 12.3 93.1947 14.64C93.1947 17.42 95.3547 18.16 97.3347 18.8C98.8747 19.28 100.375 19.68 100.375 20.9C100.375 21.92 99.5947 22.86 98.1547 22.86C96.8147 22.86 95.6947 22.16 94.9547 20.88L92.4747 22.84C93.8147 24.34 95.5547 25.46 98.1747 25.46Z" fill="white"/>
<path d="M108.748 25.26H111.408L114.448 17.16L117.408 25.26H120.008L124.108 13.56H121.368L118.688 21.64L115.808 13.56H113.128L110.188 21.62L107.608 13.56H104.848L108.748 25.26Z" fill="white"/>
<path d="M131.55 25.5C133.09 25.5 134.49 24.84 135.35 23.74V25.26H138.05V13.56H135.35V14.96C134.49 13.94 133.13 13.32 131.59 13.32C128.63 13.32 125.79 15.54 125.79 19.42C125.79 23.26 128.73 25.5 131.55 25.5ZM131.99 23.02C129.99 23.02 128.45 21.42 128.45 19.38C128.45 17.36 129.99 15.78 131.99 15.78C134.01 15.78 135.49 17.38 135.49 19.38C135.49 21.4 134.01 23.02 131.99 23.02Z" fill="white"/>
<path d="M147.985 25.5C150.805 25.5 153.725 23.26 153.725 19.42C153.725 15.54 150.905 13.32 147.965 13.32C146.365 13.32 144.985 14.02 144.165 15.12V13.56H141.485V30.64H144.165V23.88C144.985 24.92 146.385 25.5 147.985 25.5ZM147.545 23.02C145.525 23.02 144.065 21.4 144.065 19.38C144.065 17.38 145.525 15.78 147.545 15.78C149.525 15.78 151.065 17.36 151.065 19.38C151.065 21.42 149.525 23.02 147.545 23.02Z" fill="white"/>
<defs>
<filter id="filter0_d_230_9741" x="-1.96" y="0.72" width="38.92" height="38.92" filterUnits="userSpaceOnUse" color-interpolation-filters="sRGB">
<feFlood flood-opacity="0" result="BackgroundImageFix"/>
<feColorMatrix in="SourceAlpha" type="matrix" values="0 0 0 0 0 0 0 0 0 0 0 0 0 0 0 0 0 0 127 0" result="hardAlpha"/>
<feMorphology radius="0.7" operator="erode" in="SourceAlpha" result="effect1_dropShadow_230_9741"/>
<feOffset dy="1.68"/>
<feGaussianBlur stdDeviation="1.33"/>
<feColorMatrix type="matrix" values="0 0 0 0 0.145098 0 0 0 0 0.152941 0 0 0 0 0.239216 0 0 0 0.08 0"/>
<feBlend mode="normal" in2="BackgroundImageFix" result="effect1_dropShadow_230_9741"/>
<feBlend mode="normal" in="SourceGraphic" in2="effect1_dropShadow_230_9741" result="shape"/>
</filter>
<linearGradient id="paint0_linear_230_9741" x1="3.84268" y1="0.853699" x2="29.9335" y2="33.628" gradientUnits="userSpaceOnUse">
<stop stop-color="#F261FF"/>
<stop offset="0.479167" stop-color="#83D9D9"/>
<stop offset="0.713542" stop-color="#87F7A6"/>
<stop offset="1" stop-color="#90FB9B"/>
</linearGradient>
<clipPath id="clip0_230_9741">
<rect width="35" height="35" fill="white"/>
</clipPath>
<clipPath id="clip1_230_9741">
<rect width="27.5055" height="23.94" fill="white" transform="translate(4.62 7.02002)"/>
</clipPath>
<clipPath id="clip2_230_9741">
<rect x="4.61987" y="8.2934" width="13.2434" height="23.2132" fill="white"/>
</clipPath>
<clipPath id="clip3_230_9741">
<rect width="13.2434" height="23.2132" transform="matrix(-1 0 0 1 31.1067 8.2934)" fill="white"/>
</clipPath>
</defs>
</svg>
