<svg width="154" height="35" viewBox="0 0 154 35" fill="none" xmlns="http://www.w3.org/2000/svg">
<g clip-path="url(#clip0_159_5004)">
<circle cx="17.9269" cy="17.9269" r="17.0732" fill="url(#paint0_linear_159_5004)"/>
<g filter="url(#filter0_d_159_5004)">
<g clip-path="url(#clip1_159_5004)">
<g clip-path="url(#clip2_159_5004)">
<path d="M15.4282 16.5296L6.33111 11.7158L5.36389 13.6502L10.5 22.1329L12.3876 19.5V17.8798V17.0022H14.7531L15.0906 17.8798L15.4282 16.5296Z" fill="black"/>
<path d="M15.8333 18.2848C16.2715 18.1623 17.2903 17.8439 17.8633 17.6679V20.7928L15.4283 22.4704L16.1709 25.5759L17.9261 26.791L17.8633 29.7209H15.4283L10.5001 22.1329L13.8521 20.5818L15.1255 21.6005L16.846 19.635L15.8333 18.2848Z" fill="black"/>
<path d="M13.176 26.2985L16.1521 25.5544L15.4081 29.7209L13.176 26.2985Z" fill="black"/>
<path d="M13.403 12.209L11.9853 13.2892L6.33112 11.7159L7.22397 9.84619H17.8633V13.7247L13.403 12.209Z" fill="black"/>
<path d="M17.8632 9.85577L13.3992 12.2366L17.8632 13.7246V9.85577Z" fill="black"/>
</g>
<g clip-path="url(#clip3_159_5004)">
<path d="M20.2984 16.5296L29.3955 11.7158L30.3627 13.6502L25.2266 22.1329L23.3389 19.5V17.8798V17.0022H20.9735L20.6359 17.8798L20.2984 16.5296Z" fill="black"/>
<path d="M19.8932 18.2848C19.455 18.1623 18.4363 17.8439 17.8633 17.6679V20.7928L20.2983 22.4704L19.5557 25.5759L17.8004 26.791L17.8633 29.7209H20.2983L25.2265 22.1329L21.8745 20.5818L20.6011 21.6005L18.8806 19.635L19.8932 18.2848Z" fill="black"/>
<path d="M22.5505 26.2985L19.5745 25.5544L20.3185 29.7209L22.5505 26.2985Z" fill="black"/>
<path d="M22.3236 12.209L23.7413 13.2892L29.3954 11.7159L28.5026 9.84619H17.8632V13.7247L22.3236 12.209Z" fill="black"/>
<path d="M17.8633 9.85577L22.3274 12.2366L17.8633 13.7246V9.85577Z" fill="black"/>
</g>
</g>
</g>
</g>
<path d="M45 22.94H49.96C53.18 22.94 55.2 21.5 55.2 18.62C55.2 17 54.44 15.88 53.08 15.26C54.14 14.64 54.68 13.68 54.68 12.42C54.68 9.71999 52.86 8.33999 49.6 8.33999H45V22.94ZM49.84 16.7C51.86 16.7 52.46 17.36 52.46 18.56C52.46 19.76 51.62 20.44 49.96 20.44H47.72V16.7H49.84ZM49.6 10.84C51.28 10.84 51.94 11.32 51.94 12.42C51.94 13.46 51.34 14.16 49.6 14.16H47.72V10.84H49.6Z" fill="white"/>
<path d="M58.2048 22.94H60.9248V11.24H58.2048V22.94ZM57.8648 8.37999C57.8648 9.39999 58.4648 10.06 59.5648 10.06C60.6248 10.06 61.2648 9.39999 61.2648 8.37999C61.2648 7.35999 60.6248 6.67999 59.5648 6.67999C58.5248 6.67999 57.8648 7.35999 57.8648 8.37999Z" fill="white"/>
<path d="M69.9622 23.18C73.3222 23.18 76.0222 20.46 76.0222 17.1C76.0222 13.68 73.3222 11 69.9622 11C66.5822 11 63.9022 13.68 63.9022 17.1C63.9022 20.46 66.5822 23.18 69.9622 23.18ZM69.9622 20.64C68.0222 20.64 66.5622 19.04 66.5622 17.1C66.5622 15.12 68.0222 13.54 69.9622 13.54C71.8822 13.54 73.3622 15.12 73.3622 17.1C73.3622 19.04 71.8822 20.64 69.9622 20.64Z" fill="white"/>
<path d="M79.0119 22.94H81.7119V16.52C81.7119 14.46 82.9119 13.34 84.4519 13.34C86.2119 13.34 87.0919 14.46 87.0919 16.28V22.94H89.8319V16C89.8319 12.82 88.1319 11 85.1919 11C83.6719 11 82.4719 11.66 81.6919 12.68V11.24H79.0119V22.94Z" fill="white"/>
<path d="M98.1747 23.14C101.375 23.14 103.215 20.9 103.215 18.6C103.215 15.8 100.975 14.92 98.9947 14.28C97.3947 13.74 96.0147 13.4 96.0147 12.22C96.0147 11.28 96.7147 10.56 98.0547 10.56C99.1947 10.56 100.075 11.02 100.695 11.96L102.935 10.26C101.755 9.03999 100.375 8.13999 98.0347 8.13999C95.2347 8.13999 93.1947 9.97999 93.1947 12.32C93.1947 15.1 95.3547 15.84 97.3347 16.48C98.8747 16.96 100.375 17.36 100.375 18.58C100.375 19.6 99.5947 20.54 98.1547 20.54C96.8147 20.54 95.6947 19.84 94.9547 18.56L92.4747 20.52C93.8147 22.02 95.5547 23.14 98.1747 23.14Z" fill="white"/>
<path d="M108.748 22.94H111.408L114.448 14.84L117.408 22.94H120.008L124.108 11.24H121.368L118.688 19.32L115.808 11.24H113.128L110.188 19.3L107.608 11.24H104.848L108.748 22.94Z" fill="white"/>
<path d="M131.55 23.18C133.09 23.18 134.49 22.52 135.35 21.42V22.94H138.05V11.24H135.35V12.64C134.49 11.62 133.13 11 131.59 11C128.63 11 125.79 13.22 125.79 17.1C125.79 20.94 128.73 23.18 131.55 23.18ZM131.99 20.7C129.99 20.7 128.45 19.1 128.45 17.06C128.45 15.04 129.99 13.46 131.99 13.46C134.01 13.46 135.49 15.06 135.49 17.06C135.49 19.08 134.01 20.7 131.99 20.7Z" fill="white"/>
<path d="M147.985 23.18C150.805 23.18 153.725 20.94 153.725 17.1C153.725 13.22 150.905 11 147.965 11C146.365 11 144.985 11.7 144.165 12.8V11.24H141.485V28.32H144.165V21.56C144.985 22.6 146.385 23.18 147.985 23.18ZM147.545 20.7C145.525 20.7 144.065 19.08 144.065 17.06C144.065 15.06 145.525 13.46 147.545 13.46C149.525 13.46 151.065 15.04 151.065 17.06C151.065 19.1 149.525 20.7 147.545 20.7Z" fill="white"/>
<defs>
<filter id="filter0_d_159_5004" x="-1.96" y="0.72" width="38.92" height="38.92" filterUnits="userSpaceOnUse" color-interpolation-filters="sRGB">
<feFlood flood-opacity="0" result="BackgroundImageFix"/>
<feColorMatrix in="SourceAlpha" type="matrix" values="0 0 0 0 0 0 0 0 0 0 0 0 0 0 0 0 0 0 127 0" result="hardAlpha"/>
<feMorphology radius="0.7" operator="erode" in="SourceAlpha" result="effect1_dropShadow_159_5004"/>
<feOffset dy="1.68"/>
<feGaussianBlur stdDeviation="1.33"/>
<feColorMatrix type="matrix" values="0 0 0 0 0.145098 0 0 0 0 0.152941 0 0 0 0 0.239216 0 0 0 0.08 0"/>
<feBlend mode="normal" in2="BackgroundImageFix" result="effect1_dropShadow_159_5004"/>
<feBlend mode="normal" in="SourceGraphic" in2="effect1_dropShadow_159_5004" result="shape"/>
</filter>
<linearGradient id="paint0_linear_159_5004" x1="3.84268" y1="0.853699" x2="29.9335" y2="33.628" gradientUnits="userSpaceOnUse">
<stop stop-color="#F261FF"/>
<stop offset="0.479167" stop-color="#83D9D9"/>
<stop offset="0.713542" stop-color="#87F7A6"/>
<stop offset="1" stop-color="#90FB9B"/>
</linearGradient>
<clipPath id="clip0_159_5004">
<rect width="35" height="35" fill="white"/>
</clipPath>
<clipPath id="clip1_159_5004">
<rect width="27.5055" height="23.94" fill="white" transform="translate(4.62 7.02002)"/>
</clipPath>
<clipPath id="clip2_159_5004">
<rect x="4.61987" y="8.2934" width="13.2434" height="23.2132" fill="white"/>
</clipPath>
<clipPath id="clip3_159_5004">
<rect width="13.2434" height="23.2132" transform="matrix(-1 0 0 1 31.1067 8.2934)" fill="white"/>
</clipPath>
</defs>
</svg>
