<svg width="150" height="28" viewBox="0 0 150 28" fill="none" xmlns="http://www.w3.org/2000/svg">
<g clip-path="url(#clip0_2010_1449)">
<path d="M41.0272 22.4826C40.5885 22.4826 40.1361 22.3455 39.67 22.0714C39.2176 21.7835 38.8543 21.427 38.5801 21.002V22.3181H36.3798V7.92353H38.7446V13.0028C39.0188 12.66 39.3684 12.3927 39.7934 12.2008C40.2184 11.9951 40.6433 11.8923 41.0683 11.8923H42.5078C43.2618 11.8923 43.9335 12.0637 44.523 12.4064C45.1125 12.7354 45.5718 13.2015 45.9008 13.8047C46.2298 14.4079 46.3943 15.1003 46.3943 15.8817V18.3288C46.3943 19.1513 46.2298 19.8779 45.9008 20.5085C45.5718 21.1391 45.1057 21.6258 44.5025 21.9685C43.913 22.3113 43.2344 22.4826 42.4667 22.4826H41.0272ZM42.2199 20.4057C42.7545 20.4057 43.1932 20.2069 43.536 19.8093C43.8787 19.3981 44.0501 18.8634 44.0501 18.2054V16.0256C44.0501 15.4087 43.8855 14.9152 43.5565 14.545C43.2275 14.1612 42.8025 13.9693 42.2816 13.9693H40.9655C40.3623 13.9693 39.8551 14.1886 39.4438 14.6273C39.0325 15.0523 38.7995 15.6144 38.7446 16.3135V18.3288C38.8132 18.932 39.0462 19.4323 39.4438 19.8299C39.8551 20.2138 40.328 20.4057 40.8627 20.4057H42.2199ZM51.4885 10.9053C51.0224 10.9053 50.6454 10.7682 50.3575 10.494C50.0833 10.2061 49.9462 9.84281 49.9462 9.40411C49.9462 8.96542 50.0833 8.60899 50.3575 8.3348C50.6454 8.04691 51.0224 7.90297 51.4885 7.90297C51.9546 7.90297 52.3316 8.04691 52.6195 8.3348C52.9074 8.60899 53.0513 8.96542 53.0513 9.40411C53.0513 9.84281 52.9074 10.2061 52.6195 10.494C52.3316 10.7682 51.9546 10.9053 51.4885 10.9053ZM50.3164 12.0568H52.6812V22.3181H50.3164V12.0568ZM60.8099 22.4826C59.5487 22.4826 58.5342 22.1193 57.7665 21.3927C56.9988 20.6525 56.615 19.6791 56.615 18.4727V15.9228C56.615 15.1277 56.7863 14.4285 57.129 13.8253C57.4855 13.2084 57.979 12.7354 58.6096 12.4064C59.254 12.0637 59.9943 11.8923 60.8305 11.8923H62.6401C63.4764 11.8923 64.2098 12.0637 64.8404 12.4064C65.4848 12.7354 65.9783 13.2084 66.321 13.8253C66.6775 14.4285 66.8557 15.1277 66.8557 15.9228V18.4727C66.8557 19.6791 66.465 20.6525 65.6835 21.3927C64.9158 22.1193 63.8876 22.4826 62.599 22.4826H60.8099ZM62.5784 20.4468C63.1542 20.4468 63.6135 20.2549 63.9562 19.871C64.3126 19.4735 64.4908 18.9594 64.4908 18.3288V16.0462C64.4908 15.4156 64.3195 14.9083 63.9768 14.5245C63.634 14.1269 63.1748 13.9281 62.599 13.9281H60.8716C60.2959 13.9281 59.8366 14.1269 59.4939 14.5245C59.1511 14.9083 58.9798 15.4156 58.9798 16.0462V18.3288C58.9798 18.9594 59.1511 19.4735 59.4939 19.871C59.8366 20.2549 60.2821 20.4468 60.8305 20.4468H62.5784ZM70.4119 12.0568H72.6122V13.3935C72.9138 12.9411 73.3114 12.5778 73.8049 12.3036C74.2984 12.0294 74.792 11.8923 75.2855 11.8923H76.5605C77.6161 11.8923 78.4592 12.2282 79.0898 12.8999C79.7341 13.5717 80.0563 14.4559 80.0563 15.5527V22.3181H77.6915V15.6144C77.6915 15.1208 77.5612 14.7233 77.3007 14.4217C77.054 14.1063 76.725 13.9487 76.3137 13.9487H75.0387C74.5041 13.9487 74.0243 14.1543 73.5993 14.5656C73.1743 14.9632 72.9001 15.4773 72.7767 16.1079V22.3181H70.4119V12.0568ZM85.4403 10.9053C84.9742 10.9053 84.5972 10.7682 84.3093 10.494C84.0351 10.2061 83.898 9.84281 83.898 9.40411C83.898 8.96542 84.0351 8.60899 84.3093 8.3348C84.5972 8.04691 84.9742 7.90297 85.4403 7.90297C85.9064 7.90297 86.2834 8.04691 86.5713 8.3348C86.8592 8.60899 87.0031 8.96542 87.0031 9.40411C87.0031 9.84281 86.8592 10.2061 86.5713 10.494C86.2834 10.7682 85.9064 10.9053 85.4403 10.9053ZM84.2681 12.0568H86.633V22.3181H84.2681V12.0568ZM94.7412 22.4826C93.4799 22.4826 92.4655 22.1193 91.6977 21.3927C90.9437 20.6662 90.5667 19.7065 90.5667 18.5138V15.9228C90.5667 15.1277 90.7381 14.4285 91.0808 13.8253C91.4236 13.2084 91.9102 12.7354 92.5409 12.4064C93.1715 12.0637 93.8981 11.8923 94.7206 11.8923H96.3657C97.5447 11.8923 98.4906 12.2351 99.2035 12.9205C99.9301 13.5923 100.293 14.4833 100.293 15.5938H97.9697C97.9697 15.1003 97.8189 14.7027 97.5173 14.4011C97.2294 14.0858 96.8455 13.9281 96.3657 13.9281H94.7412C94.2065 13.9281 93.7678 14.1269 93.4251 14.5245C93.0961 14.922 92.9316 15.4361 92.9316 16.0668V18.3699C92.9316 18.9868 93.0961 19.4872 93.4251 19.871C93.7678 20.2549 94.2134 20.4468 94.7617 20.4468H96.3863C96.8935 20.4468 97.2979 20.2617 97.5995 19.8916C97.9148 19.5215 98.0725 19.0416 98.0725 18.4521H100.396C100.396 19.6585 100.026 20.6319 99.2857 21.3722C98.5592 22.1125 97.5927 22.4826 96.3863 22.4826H94.7412Z" fill="#474747"/>
<path d="M105.473 8.12114H115.871V9.93707H107.527V14.9741H115.071V16.7901H107.527V23.2539H105.473V8.12114ZM123.966 23.4269C122.914 23.4269 121.984 23.1963 121.177 22.7351C120.384 22.2739 119.765 21.6253 119.318 20.7894C118.885 19.9535 118.669 18.9807 118.669 17.871V13.5041C118.669 12.3943 118.885 11.4215 119.318 10.5856C119.765 9.74971 120.391 9.10116 121.199 8.63997C122.006 8.17878 122.935 7.94819 123.987 7.94819H126.279C127.331 7.94819 128.253 8.17878 129.046 8.63997C129.853 9.10116 130.473 9.74971 130.905 10.5856C131.352 11.4215 131.575 12.3943 131.575 13.5041V17.871C131.575 18.9807 131.352 19.9535 130.905 20.7894C130.473 21.6253 129.853 22.2739 129.046 22.7351C128.239 23.1963 127.317 23.4269 126.279 23.4269H123.966ZM126.236 21.5893C127.216 21.5893 128.008 21.2506 128.614 20.5732C129.219 19.8815 129.522 18.9663 129.522 17.8277V13.5473C129.522 12.4088 129.219 11.5008 128.614 10.8234C128.008 10.1316 127.216 9.78574 126.236 9.78574H124.009C123.029 9.78574 122.236 10.1316 121.631 10.8234C121.026 11.5008 120.723 12.4088 120.723 13.5473V17.8277C120.723 18.9663 121.018 19.8815 121.609 20.5732C122.215 21.2506 123.007 21.5893 123.987 21.5893H126.236ZM139.135 15.5362L134.012 8.12114H136.347L140.303 13.85L144.259 8.12114H146.572L141.449 15.5362L146.788 23.2539H144.454L140.303 17.2224L136.131 23.2539H133.796L139.135 15.5362Z" fill="#FFB800"/>
<g clip-path="url(#clip1_2010_1449)">
<path fill-rule="evenodd" clip-rule="evenodd" d="M25.1575 3.47241L15.7563 9.93621L19.0098 12.0347L15.1972 26.0524V27.084L27.0841 17.5523L25.1575 3.47241ZM19.0098 12.0347L25.6558 16.6003L24.5463 4.32371L19.0098 12.0347ZM11.8914 11.9361L11.8915 11.9361L4.86883 16.6468L5.94366 4.73509L5.48004 4.17268L11.8914 11.9361ZM3.47241 17.5959L5.46273 4.15173L5.46271 4.1517L5.46274 4.15171L5.46274 4.1517L5.46277 4.15173L15.7562 9.93632L11.8915 11.9361L15.1971 26.0525V27.0841L3.47241 17.5959Z" fill="url(#paint0_radial_2010_1449)"/>
<mask id="mask0_2010_1449" style="mask-type:alpha" maskUnits="userSpaceOnUse" x="3" y="3" width="25" height="25">
<path fill-rule="evenodd" clip-rule="evenodd" d="M25.1575 3.47241L15.7563 9.93621L19.0098 12.0347L15.1972 26.0524V27.084L27.0841 17.5523L25.1575 3.47241ZM19.0098 12.0347L25.6558 16.6003L24.5463 4.32371L19.0098 12.0347ZM11.8914 11.9361L11.8915 11.9361L4.86883 16.6468L5.94366 4.73509L5.48004 4.17268L11.8914 11.9361ZM3.47241 17.5959L5.46273 4.15173L5.46271 4.1517L5.46274 4.15171L5.46274 4.1517L5.46277 4.15173L15.7562 9.93632L11.8915 11.9361L15.1971 26.0525V27.0841L3.47241 17.5959Z" fill="url(#paint1_radial_2010_1449)"/>
</mask>
<g mask="url(#mask0_2010_1449)">
<path d="M24.3061 23.6117L0.989746 1.06079L31.7745 14.2542L24.3061 23.6117Z" fill="url(#paint2_linear_2010_1449)"/>
<g style="mix-blend-mode:screen">
<path d="M27.4312 19.7922L0.989746 1.06079L27.8022 8.08311L27.4312 19.7922Z" fill="url(#paint3_radial_2010_1449)"/>
</g>
<g style="mix-blend-mode:screen">
<path d="M-4.6205 13.7814L25.4004 3.74683L4.64921 22.121L-4.6205 13.7814Z" fill="url(#paint4_radial_2010_1449)"/>
</g>
<path d="M7.9862 27.4312L30.001 -3.33716L-0.783733 4.53635L7.9862 27.4312Z" fill="url(#paint5_radial_2010_1449)"/>
</g>
</g>
</g>
<defs>
<radialGradient id="paint0_radial_2010_1449" cx="0" cy="0" r="1" gradientUnits="userSpaceOnUse" gradientTransform="translate(20.2834 3.47241) rotate(110.632) scale(25.1635 25.1634)">
<stop stop-color="#FFE091"/>
<stop offset="1" stop-color="#DB9306"/>
</radialGradient>
<radialGradient id="paint1_radial_2010_1449" cx="0" cy="0" r="1" gradientUnits="userSpaceOnUse" gradientTransform="translate(20.2834 3.47241) rotate(110.632) scale(25.1635 25.1634)">
<stop stop-color="#FFE091"/>
<stop offset="1" stop-color="#DB9306"/>
</radialGradient>
<linearGradient id="paint2_linear_2010_1449" x1="21.1811" y1="14.5837" x2="21.8755" y2="22.9173" gradientUnits="userSpaceOnUse">
<stop offset="0.0506306" stop-color="#FFB661"/>
<stop offset="0.671875" stop-color="#FDE661" stop-opacity="0"/>
<stop offset="1" stop-color="#FCFF61" stop-opacity="0"/>
</linearGradient>
<radialGradient id="paint3_radial_2010_1449" cx="0" cy="0" r="1" gradientUnits="userSpaceOnUse" gradientTransform="translate(18.2264 15.5665) rotate(90) scale(11.1009 14.2574)">
<stop offset="0.0506306" stop-color="#FFB661"/>
<stop offset="1" stop-color="#FCFF61" stop-opacity="0"/>
</radialGradient>
<radialGradient id="paint4_radial_2010_1449" cx="0" cy="0" r="1" gradientUnits="userSpaceOnUse" gradientTransform="translate(3.75771 10.0006) rotate(-146.2) scale(11.1009 14.2574)">
<stop offset="0.0506306" stop-color="#FFB661"/>
<stop offset="1" stop-color="#FCFF61" stop-opacity="0"/>
</radialGradient>
<radialGradient id="paint5_radial_2010_1449" cx="0" cy="0" r="1" gradientUnits="userSpaceOnUse" gradientTransform="translate(18.0843 3.47236) rotate(104.88) scale(19.0417 24.4561)">
<stop offset="0.0506306" stop-color="#FFC961"/>
<stop offset="1" stop-color="#FCFF61" stop-opacity="0"/>
</radialGradient>
<clipPath id="clip0_2010_1449">
<rect width="150" height="28" fill="white"/>
</clipPath>
<clipPath id="clip1_2010_1449">
<rect width="23.6116" height="23.6116" fill="white" transform="translate(3.47241 3.47241)"/>
</clipPath>
</defs>
</svg>
