<svg id="Layer_1" data-name="Layer 1" xmlns="http://www.w3.org/2000/svg" viewBox="0 0 899.17 169.89"><defs><style>.cls-1{fill:#131c26;}.cls-2{fill:#3671e9;}.cls-3{fill:#fff;}</style></defs><path class="cls-1" d="M262.53,92.42a26.69,26.69,0,0,0-20.23-44.1H208.91v95.62h35.66a28.89,28.89,0,0,0,18-51.52ZM224.45,63.86H242.3a11.15,11.15,0,0,1,0,22.3H224.45Zm20.12,64.55H224.45V101.7h20.12a13.36,13.36,0,0,1,0,26.71Z" transform="translate(-8.64 -7.52)"/><rect class="cls-1" x="284.87" y="60.79" width="17.8" height="75.63"/><path class="cls-1" d="M496,94v50H478.23V98.32a16.71,16.71,0,0,0-18.88-16.58c-8.43,1.07-14.53,8.65-14.53,17.14v45.06H427V68.31h17.8v8c2.39-3.07,9.4-10.2,23.26-10.2a30.44,30.44,0,0,1,10.15,1.65,25.89,25.89,0,0,1,8.82,5.22A28.11,28.11,0,0,1,496,94Z" transform="translate(-8.64 -7.52)"/><polygon class="cls-1" points="710.54 63.02 683.7 135.67 683.41 136.42 665.78 136.42 665.49 135.67 647.39 86.7 629.01 136.38 628.99 136.42 610.85 136.42 610.82 136.36 583.71 63.02 601.88 63.02 619.93 111.78 637.96 63.02 656.81 63.02 674.59 111.07 692.38 63.02 710.54 63.02"/><path class="cls-1" d="M789.87,68.31v5.26a36.91,36.91,0,0,0-22.28-7.48c-20.9,0-37.84,17.42-37.84,38.93s16.94,39,37.84,39a37,37,0,0,0,22.28-7.48v7.45h17.78V68.31Zm-22.28,60.1c-12.31,0-22.28-10.46-22.28-23.39s10-23.4,22.28-23.4,22.26,10.49,22.26,23.4S779.87,128.41,767.59,128.41Z" transform="translate(-8.64 -7.52)"/><path class="cls-1" d="M829.9,68.31v109.1h17.78V136.49A37,37,0,0,0,870,144c20.9,0,37.84-17.43,37.84-38.95S890.86,66.09,870,66.09a36.93,36.93,0,0,0-22.28,7.48V68.31ZM847.71,105c0-12.91,10-23.4,22.25-23.4s22.28,10.49,22.28,23.4-10,23.39-22.28,23.39S847.71,118,847.71,105Z" transform="translate(-8.64 -7.52)"/><circle class="cls-1" cx="293.77" cy="41.63" r="10.7"/><path class="cls-1" d="M369.15,66.06c-20.9,0-37.84,17.43-37.84,38.93s16.94,39,37.84,39S407,126.52,407,105,390,66.06,369.15,66.06Zm0,62.33c-12.31,0-22.28-10.47-22.28-23.4s10-23.39,22.28-23.39S391.41,92.08,391.41,105,381.43,128.39,369.15,128.39Z" transform="translate(-8.64 -7.52)"/><path class="cls-1" d="M582.51,114.9c0,24.21-21,29-33.32,29-26.11,0-35.08-16.71-35.08-16.71l14.63-11.86c3.29,3.93,11.82,13,20.32,13,11.44,0,16-5.43,16-12.49,0-20.1-45.78-8.35-45.78-41.38,0-14.66,11.46-26.42,32-26.42S580.6,61.63,580.6,61.63l-13.49,11S562,63.1,551,63.1c-12,0-15.25,5.86-15.25,10.71C535.7,93.49,582.51,80.26,582.51,114.9Z" transform="translate(-8.64 -7.52)"/><circle class="cls-2" cx="81.49" cy="81.49" r="81.49"/><path class="cls-3" d="M91.89,44.56,58.17,104.29A29.5,29.5,0,0,1,42.05,77.61c0-17.75,14-33,39.82-33Z" transform="translate(-8.64 -7.52)"/><path class="cls-3" d="M91.89,133.14h31.69s14.63-15.72,14.63-35.49c0-23.43-23.16-23.83-23.16-23.83L117,70.45a17.32,17.32,0,0,0-15.06-25.89h0L84.3,76.2c4.71.5,25.47,3.76,25.47,22.13C109.77,115.94,91.89,133.14,91.89,133.14Z" transform="translate(-8.64 -7.52)"/><path class="cls-3" d="M52.62,133.14a55,55,0,0,0,7.51.33c18.09,0,39.89-12,39.89-33.45,0-13.62-15.93-14.89-20.64-15Z" transform="translate(-8.64 -7.52)"/></svg>