<svg xmlns="http://www.w3.org/2000/svg" viewBox="0 0 912.31 169.53"><defs><style>.cls-1{fill:#fff;}.cls-2{fill:#3671e9;}</style></defs><g id="Layer_2" data-name="Layer 2"><g id="Layer_1-2" data-name="Layer 1"><path class="cls-1" d="M267,84.53a26.68,26.68,0,0,0-20.23-44.09H213.42v95.62h35.66a28.9,28.9,0,0,0,18-51.53ZM229,56h17.85a11.15,11.15,0,0,1,0,22.3H229Zm20.12,64.54H229V93.81h20.12a13.36,13.36,0,0,1,0,26.71Z"/><rect class="cls-1" x="298.02" y="60.43" width="17.8" height="75.63"/><path class="cls-1" d="M500.55,86.1v50H482.74V90.43a16.71,16.71,0,0,0-18.88-16.58c-8.43,1.08-14.53,8.65-14.53,17.15v45.06h-17.8V60.43h17.8v7.94c2.39-3.07,9.4-10.19,23.26-10.19a30.19,30.19,0,0,1,10.15,1.65A25.87,25.87,0,0,1,491.56,65,28.15,28.15,0,0,1,500.55,86.1Z"/><polygon class="cls-1" points="723.69 62.65 696.84 135.3 696.55 136.06 678.92 136.06 678.64 135.3 660.54 86.33 642.15 136.01 642.13 136.06 623.99 136.06 623.97 135.99 596.86 62.65 615.02 62.65 633.07 111.42 651.1 62.65 669.96 62.65 687.74 110.71 705.52 62.65 723.69 62.65"/><path class="cls-1" d="M794.38,60.43v5.25A36.91,36.91,0,0,0,772.1,58.2c-20.9,0-37.84,17.43-37.84,38.93s16.94,39,37.84,39a36.91,36.91,0,0,0,22.28-7.48v7.46h17.78V60.43ZM772.1,120.52c-12.31,0-22.28-10.46-22.28-23.39s10-23.39,22.28-23.39,22.26,10.48,22.26,23.39S784.38,120.52,772.1,120.52Z"/><path class="cls-1" d="M834.41,60.43v109.1h17.78V128.6a36.93,36.93,0,0,0,22.28,7.48c20.9,0,37.84-17.43,37.84-39S895.37,58.2,874.47,58.2a36.93,36.93,0,0,0-22.28,7.48V60.43Zm17.81,36.7c0-12.91,10-23.39,22.25-23.39s22.28,10.48,22.28,23.39-10,23.39-22.28,23.39S852.22,110.06,852.22,97.13Z"/><circle class="cls-1" cx="306.92" cy="41.27" r="10.7"/><path class="cls-1" d="M373.66,58.18c-20.9,0-37.84,17.43-37.84,38.93s16.94,39,37.84,39,37.81-17.43,37.81-38.95S394.54,58.18,373.66,58.18Zm0,62.32c-12.31,0-22.28-10.46-22.28-23.39s10-23.4,22.28-23.4,22.26,10.49,22.26,23.4S385.94,120.5,373.66,120.5Z"/><path class="cls-1" d="M587,107c0,24.22-21,29.05-33.32,29.05-26.11,0-35.08-16.72-35.08-16.72l14.63-11.86c3.29,3.94,11.82,13,20.32,13,11.44,0,16-5.43,16-12.48,0-20.1-45.78-8.35-45.78-41.38,0-14.67,11.46-26.42,32-26.42s29.34,13.51,29.34,13.51l-13.49,11s-5.14-9.52-16.16-9.52c-12,0-15.25,5.85-15.25,10.7C540.21,85.6,587,72.38,587,107Z"/><path class="cls-2" d="M84.71,0l61.68,109.24s29.48-13.12,29.48-48.79C175.87,28,150.36,0,103,0Z"/><path class="cls-2" d="M84.72,162h-58S0,133.27,0,97.1C0,54.25,42.35,53.51,42.35,53.51L11.88,0h54.5L98.59,57.87C90,58.8,52,64.74,52,98.34,52,130.55,84.72,162,84.72,162Z"/><path class="cls-2" d="M156.55,162s-3.72.61-13.75.61c-33.07,0-73-22-73-61.18C69.85,76.53,99,74.2,107.6,74.06Z"/></g></g></svg>