<svg width="107" height="29" viewBox="0 0 107 29" fill="none" xmlns="http://www.w3.org/2000/svg">
<g clip-path="url(#clip0_561_2601)">
<circle cx="10.2438" cy="14.7439" r="9.7561" fill="url(#paint0_linear_561_2601)"/>
<g filter="url(#filter0_d_561_2601)">
<g clip-path="url(#clip1_561_2601)">
<g clip-path="url(#clip2_561_2601)">
<path d="M8.81621 13.9453L3.61788 11.1946L3.06519 12.3L6.00008 17.1472L7.07875 15.6427V14.7169V14.2154H8.43044L8.62332 14.7169L8.81621 13.9453Z" fill="black"/>
<path d="M9.04771 14.9485C9.29811 14.8784 9.88024 14.6965 10.2077 14.5959V16.3816L8.81625 17.3402L9.2406 19.1148L10.2436 19.8092L10.2077 21.4834H8.81625L6.00012 17.1473L7.91556 16.261L8.64322 16.8431L9.62637 15.72L9.04771 14.9485Z" fill="black"/>
<path d="M7.52924 19.5277L9.22983 19.1025L8.80468 21.4834L7.52924 19.5277Z" fill="black"/>
<path d="M7.65894 11.4764L6.84882 12.0937L3.61786 11.1946L4.12806 10.1262H10.2077V12.3425L7.65894 11.4764Z" fill="black"/>
<path d="M10.2076 10.1318L7.65674 11.4923L10.2076 12.3426V10.1318Z" fill="black"/>
</g>
<g clip-path="url(#clip3_561_2601)">
<path d="M11.5991 13.9453L16.7975 11.1946L17.3502 12.3L14.4153 17.1472L13.3366 15.6427V14.7169V14.2154H11.9849L11.792 14.7169L11.5991 13.9453Z" fill="black"/>
<path d="M11.3676 14.9485C11.1172 14.8784 10.5351 14.6965 10.2077 14.5959V16.3816L11.5991 17.3402L11.1747 19.1148L10.1717 19.8092L10.2077 21.4834H11.5991L14.4152 17.1473L12.4998 16.261L11.7721 16.8431L10.789 15.72L11.3676 14.9485Z" fill="black"/>
<path d="M12.8861 19.5277L11.1855 19.1025L11.6107 21.4834L12.8861 19.5277Z" fill="black"/>
<path d="M12.7564 11.4764L13.5665 12.0937L16.7975 11.1946L16.2873 10.1262H10.2076V12.3425L12.7564 11.4764Z" fill="black"/>
<path d="M10.2077 10.1318L12.7586 11.4923L10.2077 12.3426V10.1318Z" fill="black"/>
</g>
</g>
</g>
</g>
<path d="M34.816 14.256C35.2213 14.32 35.5893 14.4853 35.92 14.752C36.2613 15.0187 36.528 15.3493 36.72 15.744C36.9227 16.1387 37.024 16.56 37.024 17.008C37.024 17.5733 36.88 18.0853 36.592 18.544C36.304 18.992 35.8827 19.3493 35.328 19.616C34.784 19.872 34.1387 20 33.392 20H29.232V8.848H33.232C33.9893 8.848 34.6347 8.976 35.168 9.232C35.7013 9.47733 36.1013 9.81333 36.368 10.24C36.6347 10.6667 36.768 11.1467 36.768 11.68C36.768 12.3413 36.5867 12.8907 36.224 13.328C35.872 13.7547 35.4027 14.064 34.816 14.256ZM30.688 13.664H33.136C33.8187 13.664 34.3467 13.504 34.72 13.184C35.0933 12.864 35.28 12.4213 35.28 11.856C35.28 11.2907 35.0933 10.848 34.72 10.528C34.3467 10.208 33.808 10.048 33.104 10.048H30.688V13.664ZM33.264 18.8C33.9893 18.8 34.5547 18.6293 34.96 18.288C35.3653 17.9467 35.568 17.472 35.568 16.864C35.568 16.2453 35.3547 15.76 34.928 15.408C34.5013 15.0453 33.9307 14.864 33.216 14.864H30.688V18.8H33.264ZM39.7965 9.808C39.5192 9.808 39.2845 9.712 39.0925 9.52C38.9005 9.328 38.8045 9.09333 38.8045 8.816C38.8045 8.53867 38.9005 8.304 39.0925 8.112C39.2845 7.92 39.5192 7.824 39.7965 7.824C40.0632 7.824 40.2872 7.92 40.4685 8.112C40.6605 8.304 40.7565 8.53867 40.7565 8.816C40.7565 9.09333 40.6605 9.328 40.4685 9.52C40.2872 9.712 40.0632 9.808 39.7965 9.808ZM40.5005 11.232V20H39.0445V11.232H40.5005ZM46.806 20.144C45.9847 20.144 45.238 19.9573 44.566 19.584C43.9047 19.2107 43.382 18.6827 42.998 18C42.6247 17.3067 42.438 16.5067 42.438 15.6C42.438 14.704 42.63 13.9147 43.014 13.232C43.4087 12.5387 43.942 12.0107 44.614 11.648C45.286 11.2747 46.038 11.088 46.87 11.088C47.702 11.088 48.454 11.2747 49.126 11.648C49.798 12.0107 50.326 12.5333 50.71 13.216C51.1047 13.8987 51.302 14.6933 51.302 15.6C51.302 16.5067 51.0993 17.3067 50.694 18C50.2993 18.6827 49.7607 19.2107 49.078 19.584C48.3953 19.9573 47.638 20.144 46.806 20.144ZM46.806 18.864C47.3287 18.864 47.8193 18.7413 48.278 18.496C48.7367 18.2507 49.1047 17.8827 49.382 17.392C49.67 16.9013 49.814 16.304 49.814 15.6C49.814 14.896 49.6753 14.2987 49.398 13.808C49.1207 13.3173 48.758 12.9547 48.31 12.72C47.862 12.4747 47.3767 12.352 46.854 12.352C46.3207 12.352 45.83 12.4747 45.382 12.72C44.9447 12.9547 44.5927 13.3173 44.326 13.808C44.0593 14.2987 43.926 14.896 43.926 15.6C43.926 16.3147 44.054 16.9173 44.31 17.408C44.5767 17.8987 44.9287 18.2667 45.366 18.512C45.8033 18.7467 46.2833 18.864 46.806 18.864ZM57.4884 11.072C58.555 11.072 59.419 11.3973 60.0804 12.048C60.7417 12.688 61.0724 13.616 61.0724 14.832V20H59.6324V15.04C59.6324 14.1653 59.4137 13.4987 58.9764 13.04C58.539 12.5707 57.9417 12.336 57.1844 12.336C56.4164 12.336 55.803 12.576 55.3444 13.056C54.8964 13.536 54.6724 14.2347 54.6724 15.152V20H53.2164V11.232H54.6724V12.48C54.9604 12.032 55.3497 11.6853 55.8404 11.44C56.3417 11.1947 56.891 11.072 57.4884 11.072ZM66.9868 20.112C66.2508 20.112 65.5894 19.984 65.0028 19.728C64.4268 19.4613 63.9734 19.0987 63.6428 18.64C63.3121 18.1707 63.1414 17.632 63.1308 17.024H64.6828C64.7361 17.5467 64.9494 17.9893 65.3228 18.352C65.7068 18.704 66.2614 18.88 66.9868 18.88C67.6801 18.88 68.2241 18.7093 68.6188 18.368C69.0241 18.016 69.2268 17.568 69.2268 17.024C69.2268 16.5973 69.1094 16.2507 68.8748 15.984C68.6401 15.7173 68.3468 15.5147 67.9948 15.376C67.6428 15.2373 67.1681 15.088 66.5708 14.928C65.8348 14.736 65.2428 14.544 64.7948 14.352C64.3574 14.16 63.9788 13.8613 63.6588 13.456C63.3494 13.04 63.1948 12.4853 63.1948 11.792C63.1948 11.184 63.3494 10.6453 63.6588 10.176C63.9681 9.70667 64.4001 9.344 64.9548 9.088C65.5201 8.832 66.1654 8.704 66.8908 8.704C67.9361 8.704 68.7894 8.96533 69.4508 9.488C70.1228 10.0107 70.5014 10.704 70.5868 11.568H68.9868C68.9334 11.1413 68.7094 10.768 68.3148 10.448C67.9201 10.1173 67.3974 9.952 66.7468 9.952C66.1388 9.952 65.6428 10.112 65.2588 10.432C64.8748 10.7413 64.6828 11.1787 64.6828 11.744C64.6828 12.1493 64.7948 12.48 65.0188 12.736C65.2534 12.992 65.5361 13.1893 65.8668 13.328C66.2081 13.456 66.6828 13.6053 67.2908 13.776C68.0268 13.9787 68.6188 14.1813 69.0668 14.384C69.5148 14.576 69.8988 14.88 70.2188 15.296C70.5388 15.7013 70.6988 16.256 70.6988 16.96C70.6988 17.504 70.5548 18.016 70.2668 18.496C69.9788 18.976 69.5521 19.3653 68.9868 19.664C68.4214 19.9627 67.7548 20.112 66.9868 20.112ZM84.5214 11.232L81.7854 20H80.2814L78.1694 13.04L76.0574 20H74.5534L71.8014 11.232H73.2894L75.3054 18.592L77.4814 11.232H78.9694L81.0974 18.608L83.0814 11.232H84.5214ZM85.4224 15.584C85.4224 14.688 85.6037 13.904 85.9664 13.232C86.329 12.5493 86.825 12.0213 87.4544 11.648C88.0944 11.2747 88.8037 11.088 89.5824 11.088C90.3504 11.088 91.017 11.2533 91.5824 11.584C92.1477 11.9147 92.569 12.3307 92.8464 12.832V11.232H94.3184V20H92.8464V18.368C92.5584 18.88 92.1264 19.3067 91.5504 19.648C90.985 19.9787 90.3237 20.144 89.5664 20.144C88.7877 20.144 88.0837 19.952 87.4544 19.568C86.825 19.184 86.329 18.6453 85.9664 17.952C85.6037 17.2587 85.4224 16.4693 85.4224 15.584ZM92.8464 15.6C92.8464 14.9387 92.713 14.3627 92.4464 13.872C92.1797 13.3813 91.817 13.008 91.3584 12.752C90.9104 12.4853 90.4144 12.352 89.8704 12.352C89.3264 12.352 88.8304 12.48 88.3824 12.736C87.9344 12.992 87.577 13.3653 87.3104 13.856C87.0437 14.3467 86.9104 14.9227 86.9104 15.584C86.9104 16.256 87.0437 16.8427 87.3104 17.344C87.577 17.8347 87.9344 18.2133 88.3824 18.48C88.8304 18.736 89.3264 18.864 89.8704 18.864C90.4144 18.864 90.9104 18.736 91.3584 18.48C91.817 18.2133 92.1797 17.8347 92.4464 17.344C92.713 16.8427 92.8464 16.2613 92.8464 15.6ZM98.2349 12.848C98.5229 12.3467 98.9495 11.9307 99.5149 11.6C100.091 11.2587 100.758 11.088 101.515 11.088C102.294 11.088 102.998 11.2747 103.627 11.648C104.267 12.0213 104.768 12.5493 105.131 13.232C105.494 13.904 105.675 14.688 105.675 15.584C105.675 16.4693 105.494 17.2587 105.131 17.952C104.768 18.6453 104.267 19.184 103.627 19.568C102.998 19.952 102.294 20.144 101.515 20.144C100.768 20.144 100.107 19.9787 99.5309 19.648C98.9655 19.3067 98.5335 18.8853 98.2349 18.384V24.16H96.7789V11.232H98.2349V12.848ZM104.187 15.584C104.187 14.9227 104.054 14.3467 103.787 13.856C103.52 13.3653 103.158 12.992 102.699 12.736C102.251 12.48 101.755 12.352 101.211 12.352C100.678 12.352 100.182 12.4853 99.7229 12.752C99.2749 13.008 98.9122 13.3867 98.6349 13.888C98.3682 14.3787 98.2349 14.9493 98.2349 15.6C98.2349 16.2613 98.3682 16.8427 98.6349 17.344C98.9122 17.8347 99.2749 18.2133 99.7229 18.48C100.182 18.736 100.678 18.864 101.211 18.864C101.755 18.864 102.251 18.736 102.699 18.48C103.158 18.2133 103.52 17.8347 103.787 17.344C104.054 16.8427 104.187 16.256 104.187 15.584Z" fill="#A8B0B9"/>
<defs>
<filter id="filter0_d_561_2601" x="-1.12" y="4.91153" width="22.24" height="22.24" filterUnits="userSpaceOnUse" color-interpolation-filters="sRGB">
<feFlood flood-opacity="0" result="BackgroundImageFix"/>
<feColorMatrix in="SourceAlpha" type="matrix" values="0 0 0 0 0 0 0 0 0 0 0 0 0 0 0 0 0 0 127 0" result="hardAlpha"/>
<feMorphology radius="0.4" operator="erode" in="SourceAlpha" result="effect1_dropShadow_561_2601"/>
<feOffset dy="0.96"/>
<feGaussianBlur stdDeviation="0.76"/>
<feColorMatrix type="matrix" values="0 0 0 0 0.145098 0 0 0 0 0.152941 0 0 0 0 0.239216 0 0 0 0.08 0"/>
<feBlend mode="normal" in2="BackgroundImageFix" result="effect1_dropShadow_561_2601"/>
<feBlend mode="normal" in="SourceGraphic" in2="effect1_dropShadow_561_2601" result="shape"/>
</filter>
<linearGradient id="paint0_linear_561_2601" x1="2.19572" y1="4.98779" x2="17.1047" y2="23.7159" gradientUnits="userSpaceOnUse">
<stop stop-color="#EC0DFF"/>
<stop offset="0.479167" stop-color="#69FFFF"/>
<stop offset="0.713542" stop-color="#87F7A6"/>
<stop offset="1" stop-color="#90FB9B"/>
</linearGradient>
<clipPath id="clip0_561_2601">
<rect width="20" height="20" fill="white" transform="translate(0 4.5)"/>
</clipPath>
<clipPath id="clip1_561_2601">
<rect width="15.7174" height="13.68" fill="white" transform="translate(2.64008 8.51147)"/>
</clipPath>
<clipPath id="clip2_561_2601">
<rect x="2.64001" y="9.23901" width="7.56766" height="13.2647" fill="white"/>
</clipPath>
<clipPath id="clip3_561_2601">
<rect width="7.56766" height="13.2647" transform="matrix(-1 0 0 1 17.7753 9.23901)" fill="white"/>
</clipPath>
</defs>
</svg>
