<svg width="100" height="100" viewBox="0 0 100 100" fill="none" xmlns="http://www.w3.org/2000/svg">
<circle cx="56" cy="58.5" r="40" fill="black"/>
<g clip-path="url(#clip0_5057_16471)">
<path style="mix-blend-mode:screen" d="M85.3416 62.7786C89.9249 43.5252 78.0324 24.2018 58.779 19.6186C39.5257 15.0353 20.2023 26.9278 15.619 46.1812C11.0358 65.4345 22.9283 84.7579 42.1816 89.3412C61.435 93.9244 80.7584 82.0319 85.3416 62.7786Z" fill="url(#paint0_radial_5057_16471)"/>
<path fill-rule="evenodd" clip-rule="evenodd" d="M27.4199 52.3711H84.6087L84.0053 84.3135L47.6637 92.1969L27.8092 78.9022L27.4199 52.3711Z" fill="#AB5500"/>
<path fill-rule="evenodd" clip-rule="evenodd" d="M47.6637 92.1969V52.3711H27.4199L27.8092 78.9022L47.6637 92.1969Z" fill="url(#paint1_linear_5057_16471)"/>
<path fill-rule="evenodd" clip-rule="evenodd" d="M47.6641 52.3711V92.1969L84.0056 84.3135L84.609 52.3711H47.6641Z" fill="url(#paint2_linear_5057_16471)"/>
<path style="mix-blend-mode:multiply" opacity="0.5" fill-rule="evenodd" clip-rule="evenodd" d="M31.2733 80.5756C30.3696 80.0597 29.5884 79.354 28.9835 78.5072C28.3787 77.6604 27.9645 76.6926 27.7695 75.6704V78.9016L47.624 92.1964V88.5174C47.2153 89.5296 45.7943 89.627 44.6459 89.1209C39.9419 86.6566 35.4553 83.7979 31.2343 80.5756H31.2733Z" fill="url(#paint3_radial_5057_16471)"/>
<path style="mix-blend-mode:multiply" fill-rule="evenodd" clip-rule="evenodd" d="M47.6641 88.5164V92.1953L84.064 84.2924L84.1613 78.959C83.6163 81.0807 82.5457 82.307 79.4702 83.689C71.4961 86.741 63.1827 88.8194 54.7105 89.879C51.5182 90.2293 48.2091 90.1709 47.7225 88.5164H47.6641Z" fill="url(#paint4_radial_5057_16471)"/>
<path style="mix-blend-mode:multiply" opacity="0.4" fill-rule="evenodd" clip-rule="evenodd" d="M27.4766 56.2635V53.6162L47.7009 64.8866V69.7139C46.3384 65.1396 31.3891 55.154 27.5155 56.2635H27.4766Z" fill="url(#paint5_radial_5057_16471)"/>
<path style="mix-blend-mode:multiply" opacity="0.75" fill-rule="evenodd" clip-rule="evenodd" d="M47.6641 69.7144C51.1289 63.5439 76.8619 58.9696 84.4728 60.3516V56.77L47.6641 64.2252V69.7144Z" fill="url(#paint6_radial_5057_16471)"/>
<path fill-rule="evenodd" clip-rule="evenodd" d="M26.9722 53.3432L47.3912 64.9445L85.0174 58.0343L85.1926 47.7567L26.8359 43.2603L26.9722 53.3432Z" fill="#AB5500"/>
<path fill-rule="evenodd" clip-rule="evenodd" d="M26.8359 43.2603L47.3912 54.3554V64.9445L26.9722 53.3432L26.8359 43.2603Z" fill="url(#paint7_radial_5057_16471)"/>
<path fill-rule="evenodd" clip-rule="evenodd" d="M47.3906 54.3565L85.192 47.7578L85.0169 58.0354L47.3906 64.9456V54.3565Z" fill="url(#paint8_radial_5057_16471)"/>
<path fill-rule="evenodd" clip-rule="evenodd" d="M26.8359 43.2611L47.3912 54.3562L85.1926 47.7575L63.0217 37.4604L26.8359 43.2611Z" fill="url(#paint9_radial_5057_16471)"/>
<path style="mix-blend-mode:screen" opacity="0.2" fill-rule="evenodd" clip-rule="evenodd" d="M51.7526 63.388C51.1631 62.5649 50.8461 61.5779 50.8461 60.5655C50.8461 59.5531 51.1631 58.5661 51.7526 57.743C54.5556 54.5702 79.0039 48.6528 82.897 50.2879C84.6488 51.0081 84.9992 54.4534 84.8435 56.1274C84.769 56.9132 84.4489 57.6556 83.9286 58.2491L84.9603 58.0545L85.1355 47.7769L47.3535 54.3561V64.9646L52.8232 63.9524C52.4074 63.8676 52.0194 63.6802 51.6942 63.4074L51.7526 63.388Z" fill="url(#paint10_radial_5057_16471)"/>
<path style="mix-blend-mode:screen" opacity="0.5" fill-rule="evenodd" clip-rule="evenodd" d="M28.0232 53.3242C27.5171 51.9616 27.011 48.5163 28.0232 47.3289C29.7751 45.3824 34.4467 47.9518 36.1012 48.7693C38.9626 50.1903 44.0236 53.1879 45.4445 56.0104C45.8955 56.9282 46.2165 57.9044 46.3983 58.9107C46.5735 60.0202 46.3983 62.8038 45.172 63.2515C44.9662 63.2904 44.7549 63.2904 44.5491 63.2515L47.3716 64.8476V54.3364L26.7969 43.2412L26.9331 53.3437L28.4903 54.2391C28.2842 53.9563 28.1142 53.649 27.9843 53.3242H28.0232Z" fill="url(#paint11_radial_5057_16471)"/>
<path style="mix-blend-mode:screen" opacity="0.3" fill-rule="evenodd" clip-rule="evenodd" d="M32.4808 43.5926C33.364 42.6504 34.5345 42.0274 35.8094 41.8213L26.8359 43.2422L47.4106 54.3374L85.1926 47.7582L79.8591 45.2861C80.4042 46.3761 79.5866 47.2326 77.5622 47.9139C68.9234 50.2713 60.066 51.7388 51.1285 52.2936C49.8994 52.3516 48.6676 52.2929 47.4496 52.1184C42.5858 51.2022 37.9895 49.2067 33.9991 46.2788C32.5782 45.2277 32.0526 44.3323 32.4808 43.651V43.5926Z" fill="url(#paint12_radial_5057_16471)"/>
<path fill-rule="evenodd" clip-rule="evenodd" d="M34.834 47.562C36.9946 48.8467 46.2406 54.1218 46.7467 54.6863C47.2528 55.2508 47.2722 57.5087 47.4085 62.8811C47.4639 60.1889 47.698 57.5033 48.1092 54.842C48.6153 54.4332 78.9616 49.0024 83.3218 48.0876C76.8593 49.1192 48.4985 53.713 47.5253 53.7519C46.007 53.4794 37.7927 49.0803 34.834 47.562Z" fill="#0BC490"/>
<path fill-rule="evenodd" clip-rule="evenodd" d="M63.5481 61.9669L62.75 88.9457L70.283 87.3106L71.159 60.6044C71.159 57.1396 71.159 53.6748 71.159 50.21L63.5286 51.5336C63.5286 55.0179 63.5286 58.5021 63.5286 61.9864L63.5481 61.9669Z" fill="url(#paint13_radial_5057_16471)"/>
<path fill-rule="evenodd" clip-rule="evenodd" d="M41.0628 87.7773L40.4204 60.9737C40.4204 57.5089 40.4204 54.0246 40.4204 50.5598L33.666 46.9004C33.666 50.3263 33.666 53.7521 33.666 57.1585L34.4057 83.3392L41.0239 87.7773H41.0628Z" fill="url(#paint14_radial_5057_16471)"/>
<path fill-rule="evenodd" clip-rule="evenodd" d="M71.2543 50.1901C67.2444 48.2436 62.6507 46.4723 58.5824 44.4868C55.4291 42.9491 52.4119 41.2556 49.6868 39.6011L42.582 40.7301C46.4751 42.5403 50.1735 44.2533 53.7745 46.1024C57.3756 47.9516 60.2175 49.7619 63.6239 51.5138L71.2543 50.1901Z" fill="url(#paint15_radial_5057_16471)"/>
<path style="mix-blend-mode:multiply" opacity="0.65" fill-rule="evenodd" clip-rule="evenodd" d="M60.3148 49.723C58.3683 47.0952 63.4293 47.2314 65.7067 47.6597C63.293 46.628 60.8599 45.5964 58.5824 44.4868C55.4291 42.9491 52.4119 41.2556 49.6868 39.6011L42.582 40.7301C46.4751 42.5403 50.1735 44.2532 53.7745 46.1024C56.052 47.2704 58.1542 48.5161 60.3148 49.723Z" fill="url(#paint16_radial_5057_16471)"/>
<path fill-rule="evenodd" clip-rule="evenodd" d="M40.3833 50.5608C46.8847 49.4513 52.627 47.9135 59.1283 46.804C64.9679 45.8113 71.878 44.8575 77.6203 44.2346L70.3208 40.8477C65.4156 41.6652 60.7634 42.7942 55.8387 43.6312C48.5198 44.838 40.9478 45.6945 33.6289 46.9013L40.3833 50.5608Z" fill="url(#paint17_radial_5057_16471)"/>
<g style="mix-blend-mode:multiply" opacity="0.35">
<path fill-rule="evenodd" clip-rule="evenodd" d="M33.705 57.1577V56.5737C34.4447 57.5859 39.0385 60.603 40.4205 60.1943V60.9729V64.0094C40.2013 62.9305 39.666 61.9413 38.8828 61.1675C37.2282 59.3962 34.4836 57.7416 33.6855 58.9679V57.1577H33.705Z" fill="#F39200"/>
</g>
<g style="mix-blend-mode:multiply" opacity="0.2">
<path fill-rule="evenodd" clip-rule="evenodd" d="M63.5462 61.9662V61.0124C64.3054 62.336 70.7678 60.8956 71.1766 59.4746V60.5841V63.3482C71.0014 62.7448 70.7483 62.2192 70.0281 62.1024C68.0875 61.898 66.1427 62.4486 64.5973 63.6402C64.2312 63.9615 63.9325 64.3524 63.7187 64.7902C63.5048 65.2279 63.38 65.7037 63.3516 66.1901L63.4683 61.8883L63.5462 61.9662Z" fill="#F39200"/>
</g>
<g style="mix-blend-mode:multiply" opacity="0.5">
<path fill-rule="evenodd" clip-rule="evenodd" d="M41.0459 87.1733C38.8853 85.8886 36.491 84.2925 34.4277 82.8521V83.3387L41.0459 87.7767V87.1733Z" fill="#936037"/>
</g>
<g style="mix-blend-mode:multiply" opacity="0.5">
<path fill-rule="evenodd" clip-rule="evenodd" d="M70.283 86.7451C67.8109 87.4264 65.2221 88.0298 62.75 88.5359V88.9252L70.283 87.2901V86.7451Z" fill="#B17F4A"/>
</g>
<path style="mix-blend-mode:screen" fill-rule="evenodd" clip-rule="evenodd" d="M33.6289 46.9001V48.3989C36.2251 48.9764 38.5822 50.335 40.3833 52.292V50.6569L41.4345 50.4817C39.0732 49.502 36.8222 48.2754 34.719 46.8223L33.6289 46.9974V46.9001Z" fill="url(#paint18_radial_5057_16471)"/>
<path style="mix-blend-mode:screen" fill-rule="evenodd" clip-rule="evenodd" d="M70.3004 49.7041C67.9062 50.1907 65.2005 50.6774 62.709 51.0472L63.6239 51.5144L71.2542 50.1907L70.3004 49.7041Z" fill="url(#paint19_radial_5057_16471)"/>
<path style="mix-blend-mode:multiply" opacity="0.5" fill-rule="evenodd" clip-rule="evenodd" d="M63.6055 53.0718C66.1165 52.3905 68.7443 51.7676 71.2553 51.2615V50.1909L63.6249 51.5146C63.6249 52.0401 63.6249 52.5657 63.6249 53.0718H63.6055Z" fill="url(#paint20_radial_5057_16471)"/>
<path style="mix-blend-mode:multiply" fill-rule="evenodd" clip-rule="evenodd" d="M35.4004 46.6288C41.4735 49.1593 47.8387 48.4391 55.3522 47.5048C56.598 47.2517 57.8438 47.0181 59.1285 46.804C64.968 45.8113 71.8782 44.8575 77.6204 44.2346L70.321 40.8477C65.4157 41.6652 60.7635 42.7942 55.8389 43.6312C49.1234 44.7407 42.2132 45.5777 35.4004 46.6288Z" fill="url(#paint21_radial_5057_16471)"/>
<path fill-rule="evenodd" clip-rule="evenodd" d="M54.7298 42.6173L57.6107 43.1817C60.0049 36.8945 62.477 33.9942 66.7009 28.6023C64.1601 28.9756 61.6796 29.6824 59.3236 30.7046C58.9581 29.3192 58.3662 28.0038 57.5718 26.8115C55.3653 28.9235 53.9849 31.7534 53.6787 34.7923C53.5207 37.439 53.9117 40.0899 54.8272 42.5783L54.7298 42.6173Z" fill="url(#paint22_radial_5057_16471)"/>
<path style="mix-blend-mode:multiply" fill-rule="evenodd" clip-rule="evenodd" d="M58.9542 38.706C58.1953 39.0236 57.3649 39.1315 56.55 39.0185C55.7351 38.9055 54.9654 38.5757 54.3215 38.0636C53.9714 37.6496 53.7008 37.1745 53.5234 36.6621C53.6599 38.6923 54.0657 40.6953 54.7303 42.6185L57.6111 43.1829C58.3555 41.1672 59.2603 39.2145 60.3168 37.3434C59.9347 37.8421 59.4746 38.276 58.9542 38.6281V38.706Z" fill="url(#paint23_radial_5057_16471)"/>
<path style="mix-blend-mode:screen" fill-rule="evenodd" clip-rule="evenodd" d="M53.5605 35.0862C53.7316 34.8492 53.9569 34.6565 54.2177 34.5244C54.4784 34.3924 54.7671 34.3247 55.0594 34.3271C56.383 34.3271 60.0035 34.658 60.8989 35.7091C61.0076 35.8546 61.0869 36.0199 61.1325 36.1957C61.989 34.8526 62.9233 33.5679 63.9744 32.1859C63.4423 32.2992 62.9021 32.3708 62.3588 32.4C60.202 32.5159 58.0481 32.1225 56.0715 31.2516C55.8329 31.1288 55.6282 30.9491 55.4754 30.7284C55.3227 30.5078 55.2266 30.2529 55.1956 29.9863C54.3588 31.4666 53.8354 33.1031 53.6579 34.7942C53.6579 34.7942 53.6579 34.9889 53.6579 35.0862H53.5605Z" fill="url(#paint24_radial_5057_16471)"/>
<path fill-rule="evenodd" clip-rule="evenodd" d="M54.2613 43.7281L56.5971 41.9568C53.5021 35.9809 52.9961 32.2242 51.7698 25.4697C50.3601 27.6189 49.2347 29.9416 48.4217 32.3799C47.1448 31.7325 45.7706 31.2986 44.3535 31.0952C44.445 34.1628 45.6169 37.0996 47.6626 39.3873C49.5315 41.2833 51.7803 42.7626 54.2613 43.7281Z" fill="url(#paint25_radial_5057_16471)"/>
<path style="mix-blend-mode:multiply" fill-rule="evenodd" clip-rule="evenodd" d="M54.1642 37.9854C53.697 39.2701 52.062 41.0803 50.5826 41.0219C50.0464 41.0019 49.5185 40.8832 49.0254 40.6715C50.622 41.926 52.384 42.9544 54.2615 43.7276L56.5974 41.9563C55.6139 40.0786 54.7808 38.126 54.1058 36.1167C54.2147 36.761 54.2147 37.4189 54.1058 38.0632L54.1642 37.9854Z" fill="url(#paint26_radial_5057_16471)"/>
<path style="mix-blend-mode:screen" fill-rule="evenodd" clip-rule="evenodd" d="M47.8598 39.601C47.7952 39.3157 47.8022 39.0188 47.8804 38.7369C47.9585 38.455 48.1052 38.1968 48.3075 37.9854C49.1639 36.9732 51.8307 34.5011 53.1543 34.5985C53.3408 34.599 53.5232 34.653 53.6799 34.7542C53.2516 33.2164 52.9207 31.6592 52.5898 29.9463C52.3234 30.4298 52.0105 30.8861 51.6555 31.3088C50.3164 32.989 48.5944 34.3239 46.6335 35.2019C46.3814 35.3009 46.1084 35.335 45.8397 35.301C45.571 35.267 45.3152 35.166 45.0957 35.0072C45.6428 36.6221 46.5175 38.1065 47.6651 39.3674L47.8598 39.5816V39.601Z" fill="url(#paint27_radial_5057_16471)"/>
<path fill-rule="evenodd" clip-rule="evenodd" d="M55.4488 42.7542C53.5023 39.8734 44.4315 31.2892 40.5774 32.5156C37.8718 33.3915 33.3948 40.0096 34.7379 43.2603C34.9679 43.7172 35.2857 44.1243 35.6731 44.4583C36.0606 44.7923 36.51 45.0467 36.9958 45.2069C42.7216 47.2142 48.936 47.3573 54.7481 45.6156C55.0206 44.6424 55.2737 43.6691 55.5462 42.6764L55.4488 42.7542Z" fill="url(#paint28_radial_5057_16471)"/>
<path fill-rule="evenodd" clip-rule="evenodd" d="M56.6191 42.502L58.0985 45.4023C62.3225 45.85 70.42 45.558 75.3641 42.463C75.6705 42.2965 75.9163 42.0374 76.0666 41.7228C76.2169 41.4082 76.264 41.0541 76.2012 40.7112C75.5588 37.0128 71.1207 32.127 67.8506 31.7572C64.5804 31.3873 57.7092 39.2902 56.6191 42.502Z" fill="url(#paint29_radial_5057_16471)"/>
<path fill-rule="evenodd" clip-rule="evenodd" d="M52.7622 44.7593V45.8299C47.9738 46.9199 40.7911 47.173 36.4504 44.3311C34.5038 43.0853 35.5355 39.601 36.6061 39.2117C39.9346 37.9659 49.9009 42.5987 52.8401 44.7593H52.7622Z" fill="url(#paint30_linear_5057_16471)"/>
<path style="mix-blend-mode:multiply" fill-rule="evenodd" clip-rule="evenodd" d="M39.8201 39.1924C41.0204 41.0392 42.5891 42.6183 44.4279 43.8308C46.2667 45.0433 48.3361 45.863 50.5064 46.2388C51.2656 46.122 52.0053 45.9857 52.6866 45.83V44.7594C48.7236 42.174 44.3447 40.2908 39.7422 39.1924H39.8201Z" fill="url(#paint31_radial_5057_16471)"/>
<path fill-rule="evenodd" clip-rule="evenodd" d="M59.4784 44.6429L59.6731 45.149C64.0844 45.4435 68.5103 44.8613 72.6953 43.4361C74.1358 42.8911 76.3743 41.9957 75.7708 40.2244C75.401 39.1732 74.3693 37.9858 73.8243 37.908C70.6709 37.5382 62.1452 42.4434 59.459 44.6429H59.4784Z" fill="url(#paint32_linear_5057_16471)"/>
<path style="mix-blend-mode:multiply" fill-rule="evenodd" clip-rule="evenodd" d="M73.5304 38.7249C73.3573 38.5127 73.1368 38.344 72.8866 38.2324C72.6364 38.1209 72.3636 38.0695 72.09 38.0825C67.5494 39.551 63.2862 41.7682 59.4766 44.6423C64.0171 44.2213 68.4671 43.1121 72.674 41.3527C73.4136 40.9829 73.9781 40.5546 74.0755 40.0291C74.088 39.7847 74.0455 39.5407 73.9512 39.315C73.8568 39.0893 73.7131 38.8876 73.5304 38.7249Z" fill="url(#paint33_radial_5057_16471)"/>
<path style="mix-blend-mode:screen" fill-rule="evenodd" clip-rule="evenodd" d="M36.5317 39.2117C38.9162 38.8688 41.3491 39.2202 43.5391 40.2239C43.1949 39.7703 43.0086 39.2166 43.0086 38.6472C43.0086 38.0779 43.1949 37.5241 43.5391 37.0706C44.0536 36.3489 44.7989 35.8244 45.6519 35.5837C46.5049 35.3431 47.4144 35.4006 48.2302 35.7469C46.5151 34.301 44.5303 33.2093 42.3907 32.5352C41.6789 32.6232 41.0053 32.9061 40.4441 33.3527C38.3994 35.0379 36.796 37.1959 35.7725 39.64C35.6451 40.0065 35.5538 40.3846 35.5 40.7689C35.5544 40.4495 35.6762 40.1454 35.8575 39.8769C36.0387 39.6084 36.2752 39.3816 36.5511 39.2117H36.5317Z" fill="url(#paint34_radial_5057_16471)"/>
<path style="mix-blend-mode:screen" fill-rule="evenodd" clip-rule="evenodd" d="M68.3536 32.1074C67.5993 31.8724 66.7915 31.8724 66.0372 32.1074C64.5684 32.9072 63.2241 33.917 62.0469 35.105C62.4877 34.8011 62.9901 34.5982 63.5184 34.5107C64.0466 34.4232 64.5876 34.4534 65.1029 34.599C65.9538 34.7002 66.752 35.0639 67.3869 35.6394C68.0217 36.2149 68.4616 36.9738 68.6456 37.8107C68.7329 38.1275 68.7178 38.4638 68.6024 38.7715C68.4871 39.0791 68.2773 39.3424 68.0032 39.5237C69.8017 38.5401 71.7963 37.9683 73.8428 37.8496C74.4468 38.1355 74.9443 38.6058 75.2637 39.1928C74.1153 36.6817 71.3707 32.9833 68.3536 32.049V32.1074Z" fill="url(#paint35_radial_5057_16471)"/>
<path style="mix-blend-mode:multiply" fill-rule="evenodd" clip-rule="evenodd" d="M58.8564 39.5817C58.9381 39.2331 59.0555 38.894 59.2067 38.5695C59.3039 38.3328 59.4211 38.1049 59.5571 37.8882L58.9926 38.6084C58.8369 38.7836 58.7006 38.9782 58.5644 39.1534C57.8699 40.1116 57.2825 41.1429 56.8125 42.2289C57.5222 43.3329 58.6193 44.1314 59.888 44.4674C60.5693 43.9419 61.5036 43.319 62.5547 42.6572L63.9757 41.8202C63.2993 42.0897 62.5816 42.2411 61.854 42.2679C60.2968 42.2679 58.6033 41.5282 58.9147 39.679L58.8564 39.5817Z" fill="url(#paint36_radial_5057_16471)"/>
<path style="mix-blend-mode:multiply" fill-rule="evenodd" clip-rule="evenodd" d="M52.5889 40.4571C52.5889 41.4499 51.0122 42.4037 50.0973 42.4037C49.2808 42.3649 48.4743 42.2075 47.7031 41.9365C49.1628 42.5936 50.58 43.3413 51.9465 44.175C52.5856 44.0983 53.1958 43.8644 53.7223 43.4941C54.2488 43.1239 54.6753 42.6288 54.9636 42.0533C54.088 41.0007 53.1521 39.9998 52.1606 39.0557C52.4496 39.4502 52.6002 39.9293 52.5889 40.4182V40.4571Z" fill="url(#paint37_radial_5057_16471)"/>
<path d="M51.497 45.1108C51.3802 44.5657 52.2367 43.8845 53.1905 43.1642C53.945 42.5188 54.8595 42.0884 55.8378 41.9185C57.103 42.0547 61.5605 44.7993 60.4121 46.3371C59.5556 47.466 56.85 47.5634 55.5263 47.4661C54.2027 47.3687 51.7695 46.5512 51.497 45.0524V45.1108Z" fill="#8500C4"/>
<path fill-rule="evenodd" clip-rule="evenodd" d="M52.5664 45.5389C53.373 46.135 54.3307 46.4924 55.3305 46.5706C56.4344 46.7279 57.5551 46.7279 58.659 46.5706C60.4109 46.2397 60.6055 45.3054 59.8464 44.4878C58.8709 43.5009 57.7315 42.6908 56.4789 42.0936C56.2659 41.9931 56.0332 41.9409 55.7976 41.9409C55.5621 41.9409 55.3294 41.9931 55.1164 42.0936C54.2571 42.5439 53.4367 43.0648 52.6637 43.6508C51.6515 44.4294 51.6126 44.7993 52.5664 45.5974V45.5389Z" fill="url(#paint38_radial_5057_16471)"/>
<path style="mix-blend-mode:screen" fill-rule="evenodd" clip-rule="evenodd" d="M59.2261 43.8057C58.3893 43.0969 57.4673 42.4953 56.4815 42.0149C56.2715 41.9041 56.0377 41.8462 55.8002 41.8462C55.5628 41.8462 55.329 41.9041 55.119 42.0149C54.294 42.434 53.506 42.9224 52.7637 43.4748C52.7637 45.2656 59.6154 45.6354 59.4013 44.0977C59.3865 43.9748 59.3235 43.8627 59.2261 43.7863V43.8057Z" fill="url(#paint39_radial_5057_16471)"/>
</g>
<defs>
<radialGradient id="paint0_radial_5057_16471" cx="0" cy="0" r="1" gradientUnits="userSpaceOnUse" gradientTransform="translate(50.4732 54.4901) scale(35.8354 35.8354)">
<stop stop-color="#6100FF"/>
<stop offset="0.13" stop-color="#6700CD"/>
<stop offset="0.31" stop-color="#370090"/>
<stop offset="0.48" stop-color="#23005C"/>
<stop offset="0.64" stop-color="#1A0034"/>
<stop offset="0.78" stop-color="#0C0018"/>
<stop offset="0.91" stop-color="#030006"/>
<stop offset="1"/>
</radialGradient>
<linearGradient id="paint1_linear_5057_16471" x1="37.5418" y1="52.3711" x2="37.5418" y2="92.1969" gradientUnits="userSpaceOnUse">
<stop stop-color="#15C69B"/>
<stop offset="1" stop-color="#021710"/>
</linearGradient>
<linearGradient id="paint2_linear_5057_16471" x1="66.1365" y1="52.3711" x2="66.1365" y2="92.1969" gradientUnits="userSpaceOnUse">
<stop stop-color="#0FBB92"/>
<stop offset="1" stop-color="#003421"/>
</linearGradient>
<radialGradient id="paint3_radial_5057_16471" cx="0" cy="0" r="1" gradientUnits="userSpaceOnUse" gradientTransform="translate(46.0084 70.2202) scale(23.3582 23.3582)">
<stop offset="0.54" stop-color="white"/>
<stop offset="0.58" stop-color="#F9F5F6"/>
<stop offset="0.66" stop-color="#EADADF"/>
<stop offset="0.76" stop-color="#D1ADB8"/>
<stop offset="0.87" stop-color="#AE7083"/>
<stop offset="1" stop-color="#822341"/>
</radialGradient>
<radialGradient id="paint4_radial_5057_16471" cx="0" cy="0" r="1" gradientUnits="userSpaceOnUse" gradientTransform="translate(52.5304 56.1263) scale(47.573 47.5729)">
<stop offset="0.54" stop-color="white"/>
<stop offset="0.58" stop-color="#F9F5F6"/>
<stop offset="0.66" stop-color="#EADADF"/>
<stop offset="0.76" stop-color="#D1ADB8"/>
<stop offset="0.87" stop-color="#AE7083"/>
<stop offset="1" stop-color="#822341"/>
</radialGradient>
<radialGradient id="paint5_radial_5057_16471" cx="0" cy="0" r="1" gradientUnits="userSpaceOnUse" gradientTransform="translate(22.8049 86.4151) scale(36.8866 36.8866)">
<stop offset="0.54" stop-color="white"/>
<stop offset="0.58" stop-color="#FAF6F5"/>
<stop offset="0.65" stop-color="#EDDEDA"/>
<stop offset="0.73" stop-color="#D7B7AD"/>
<stop offset="0.84" stop-color="#B98270"/>
<stop offset="0.95" stop-color="#933E22"/>
<stop offset="1" stop-color="#822000"/>
</radialGradient>
<radialGradient id="paint6_radial_5057_16471" cx="0" cy="0" r="1" gradientUnits="userSpaceOnUse" gradientTransform="translate(70.1464 85.6369) scale(33.4802 33.4802)">
<stop offset="0.54" stop-color="white"/>
<stop offset="0.58" stop-color="#FAF6F5"/>
<stop offset="0.65" stop-color="#EDDEDA"/>
<stop offset="0.73" stop-color="#D7B7AD"/>
<stop offset="0.84" stop-color="#B98270"/>
<stop offset="0.95" stop-color="#933E22"/>
<stop offset="1" stop-color="#822000"/>
</radialGradient>
<radialGradient id="paint7_radial_5057_16471" cx="0" cy="0" r="1" gradientUnits="userSpaceOnUse" gradientTransform="translate(31.0909 -2.73586) scale(31.1292 72.2235)">
<stop stop-color="#0EE698"/>
<stop offset="1" stop-color="#00734A"/>
</radialGradient>
<radialGradient id="paint8_radial_5057_16471" cx="0" cy="0" r="1" gradientUnits="userSpaceOnUse" gradientTransform="translate(55.2156 11.2995) scale(57.2472 57.2472)">
<stop stop-color="#0EE698"/>
<stop offset="1" stop-color="#00734A"/>
</radialGradient>
<radialGradient id="paint9_radial_5057_16471" cx="0" cy="0" r="1" gradientUnits="userSpaceOnUse" gradientTransform="translate(41.902 61.8114) scale(87.3014 87.3014)">
<stop stop-color="#0C8968"/>
<stop offset="1" stop-color="#09A57B"/>
</radialGradient>
<radialGradient id="paint10_radial_5057_16471" cx="0" cy="0" r="1" gradientUnits="userSpaceOnUse" gradientTransform="translate(82.7023 63.7773) scale(52.4198 52.4198)">
<stop/>
<stop offset="1" stop-color="#8AFFC7"/>
</radialGradient>
<radialGradient id="paint11_radial_5057_16471" cx="0" cy="0" r="1" gradientUnits="userSpaceOnUse" gradientTransform="translate(40.7923 79.719) scale(61.4711 61.4711)">
<stop/>
<stop offset="1" stop-color="#8AFFC0"/>
</radialGradient>
<radialGradient id="paint12_radial_5057_16471" cx="0" cy="0" r="1" gradientUnits="userSpaceOnUse" gradientTransform="translate(62.6324 16.9837) scale(48.8576 48.8576)">
<stop/>
<stop offset="1" stop-color="#CA9E67"/>
</radialGradient>
<radialGradient id="paint13_radial_5057_16471" cx="0" cy="0" r="1" gradientUnits="userSpaceOnUse" gradientTransform="translate(38.6327 40.7109) scale(58.9016 58.9017)">
<stop stop-color="#8F00FF"/>
<stop offset="1" stop-color="#4F00B3"/>
</radialGradient>
<radialGradient id="paint14_radial_5057_16471" cx="0" cy="0" r="1" gradientUnits="userSpaceOnUse" gradientTransform="translate(12.4516 36.8763) scale(51.8117 62.1576)">
<stop stop-color="#8F00FF"/>
<stop offset="1" stop-color="#4F00B3"/>
</radialGradient>
<radialGradient id="paint15_radial_5057_16471" cx="0" cy="0" r="1" gradientUnits="userSpaceOnUse" gradientTransform="translate(58.0374 44.4479) scale(32.137 32.137)">
<stop stop-color="#760DFC"/>
<stop offset="1" stop-color="#930DFC"/>
</radialGradient>
<radialGradient id="paint16_radial_5057_16471" cx="0" cy="0" r="1" gradientUnits="userSpaceOnUse" gradientTransform="translate(61.3854 53.7717) scale(8.91507 8.91506)">
<stop stop-color="#B85E16"/>
<stop offset="1" stop-color="white"/>
</radialGradient>
<radialGradient id="paint17_radial_5057_16471" cx="0" cy="0" r="1" gradientUnits="userSpaceOnUse" gradientTransform="translate(57.3418 44.7996) scale(49.3074 26.2032)">
<stop stop-color="#760DFC"/>
<stop offset="1" stop-color="#930DFC"/>
</radialGradient>
<radialGradient id="paint18_radial_5057_16471" cx="0" cy="0" r="1" gradientUnits="userSpaceOnUse" gradientTransform="translate(32.6946 42.6762) scale(13.5673 13.5672)">
<stop stop-color="#B385FF"/>
<stop offset="1"/>
</radialGradient>
<radialGradient id="paint19_radial_5057_16471" cx="0" cy="0" r="1" gradientUnits="userSpaceOnUse" gradientTransform="translate(65.7261 55.349) scale(14.268 14.268)">
<stop stop-color="#9F4CF2"/>
<stop offset="1"/>
</radialGradient>
<radialGradient id="paint20_radial_5057_16471" cx="0" cy="0" r="1" gradientUnits="userSpaceOnUse" gradientTransform="translate(68.4134 46.7066) scale(15.2412 15.2413)">
<stop stop-color="#7C0000"/>
<stop offset="1" stop-color="white"/>
</radialGradient>
<radialGradient id="paint21_radial_5057_16471" cx="0" cy="0" r="1" gradientUnits="userSpaceOnUse" gradientTransform="translate(67.8294 40.0885) scale(45.4512 45.4512)">
<stop stop-color="#B85E16"/>
<stop offset="1" stop-color="white"/>
</radialGradient>
<radialGradient id="paint22_radial_5057_16471" cx="0" cy="0" r="1" gradientUnits="userSpaceOnUse" gradientTransform="translate(58.1362 42.6757) scale(36.2053 36.2053)">
<stop stop-color="#820CF7"/>
<stop offset="1" stop-color="#BE0DFC"/>
</radialGradient>
<radialGradient id="paint23_radial_5057_16471" cx="0" cy="0" r="1" gradientUnits="userSpaceOnUse" gradientTransform="translate(58.2535 33.8397) scale(10.8032 10.8032)">
<stop stop-color="white"/>
<stop offset="1" stop-color="#7E00BA"/>
</radialGradient>
<radialGradient id="paint24_radial_5057_16471" cx="0" cy="0" r="1" gradientUnits="userSpaceOnUse" gradientTransform="translate(58.9913 28.215) scale(11.3677 11.3677)">
<stop stop-color="#FFF48F"/>
<stop offset="1"/>
</radialGradient>
<radialGradient id="paint25_radial_5057_16471" cx="0" cy="0" r="1" gradientUnits="userSpaceOnUse" gradientTransform="translate(55.1762 40.9056) scale(19.8545 19.8545)">
<stop stop-color="#820CF7"/>
<stop offset="1" stop-color="#BE0DFC"/>
</radialGradient>
<radialGradient id="paint26_radial_5057_16471" cx="0" cy="0" r="1" gradientUnits="userSpaceOnUse" gradientTransform="translate(54.2976 32.8224) scale(12.0414 12.6091)">
<stop stop-color="white"/>
<stop offset="1" stop-color="#7E00BA"/>
</radialGradient>
<radialGradient id="paint27_radial_5057_16471" cx="0" cy="0" r="1" gradientUnits="userSpaceOnUse" gradientTransform="translate(50.4292 28.2334) scale(12.3409 12.3409)">
<stop stop-color="#FFF48F"/>
<stop offset="1"/>
</radialGradient>
<radialGradient id="paint28_radial_5057_16471" cx="0" cy="0" r="1" gradientUnits="userSpaceOnUse" gradientTransform="translate(40.9473 35.2212) scale(16.6622 16.6622)">
<stop stop-color="#B00DFC"/>
<stop offset="1" stop-color="#820CF7"/>
</radialGradient>
<radialGradient id="paint29_radial_5057_16471" cx="0" cy="0" r="1" gradientUnits="userSpaceOnUse" gradientTransform="translate(62.6312 34.4511) scale(15.5188 15.9645)">
<stop stop-color="#B00DFC"/>
<stop offset="1" stop-color="#820CF7"/>
</radialGradient>
<linearGradient id="paint30_linear_5057_16471" x1="35.3762" y1="42.7897" x2="73.4274" y2="42.7897" gradientUnits="userSpaceOnUse">
<stop stop-color="#5317D4"/>
<stop offset="1" stop-color="#8000FF"/>
</linearGradient>
<radialGradient id="paint31_radial_5057_16471" cx="0" cy="0" r="1" gradientUnits="userSpaceOnUse" gradientTransform="translate(55.5285 36.039) scale(15.4165 15.4164)">
<stop stop-color="#BA5700"/>
<stop offset="1" stop-color="white"/>
</radialGradient>
<linearGradient id="paint32_linear_5057_16471" x1="59.4784" y1="41.548" x2="95.1971" y2="41.548" gradientUnits="userSpaceOnUse">
<stop stop-color="#5317D4"/>
<stop offset="1" stop-color="#8000FF"/>
</linearGradient>
<radialGradient id="paint33_radial_5057_16471" cx="0" cy="0" r="1" gradientUnits="userSpaceOnUse" gradientTransform="translate(58.1529 45.2847) scale(17.1294 17.1293)">
<stop stop-color="#BA5700"/>
<stop offset="1" stop-color="white"/>
</radialGradient>
<radialGradient id="paint34_radial_5057_16471" cx="0" cy="0" r="1" gradientUnits="userSpaceOnUse" gradientTransform="translate(39.8797 41.314) scale(14.7935 14.7936)">
<stop stop-color="#C78FFF"/>
<stop offset="1"/>
</radialGradient>
<radialGradient id="paint35_radial_5057_16471" cx="0" cy="0" r="1" gradientUnits="userSpaceOnUse" gradientTransform="translate(62.4556 42.2099) scale(16.779 16.779)">
<stop stop-color="#E28FFF"/>
<stop offset="1"/>
</radialGradient>
<radialGradient id="paint36_radial_5057_16471" cx="0" cy="0" r="1" gradientUnits="userSpaceOnUse" gradientTransform="translate(61.8 35.0405) scale(11.3913 10.8999)">
<stop stop-color="white"/>
<stop offset="1" stop-color="#7E00BA"/>
</radialGradient>
<radialGradient id="paint37_radial_5057_16471" cx="0" cy="0" r="1" gradientUnits="userSpaceOnUse" gradientTransform="translate(52.7584 36.8398) scale(11.5461 8.4813)">
<stop stop-color="white"/>
<stop offset="1" stop-color="#7E00BA"/>
</radialGradient>
<radialGradient id="paint38_radial_5057_16471" cx="0" cy="0" r="1" gradientUnits="userSpaceOnUse" gradientTransform="translate(54.9217 39.1154) scale(9.05131 9.05132)">
<stop stop-color="#B00DFC"/>
<stop offset="1" stop-color="#820CF7"/>
</radialGradient>
<radialGradient id="paint39_radial_5057_16471" cx="0" cy="0" r="1" gradientUnits="userSpaceOnUse" gradientTransform="translate(56.6956 38.5696) scale(7.74716 7.74716)">
<stop stop-color="#BA8FFF"/>
<stop offset="1"/>
</radialGradient>
<clipPath id="clip0_5057_16471">
<rect width="100" height="100" fill="white"/>
</clipPath>
</defs>
</svg>
