<svg width="58" height="67" viewBox="0 0 58 67" fill="none" xmlns="http://www.w3.org/2000/svg">
<g clip-path="url(#clip0_5835_319701)">
<g clip-path="url(#clip1_5835_319701)">
<path fill-rule="evenodd" clip-rule="evenodd" d="M0.419922 27.3712H57.6087L57.0053 59.3136L20.6637 67.197L0.809226 53.9023L0.419922 27.3712Z" fill="#AB5500"/>
<path fill-rule="evenodd" clip-rule="evenodd" d="M20.6637 67.197V27.3712H0.419922L0.809226 53.9023L20.6637 67.197Z" fill="url(#paint0_linear_5835_319701)"/>
<path fill-rule="evenodd" clip-rule="evenodd" d="M20.6641 27.3712V67.197L57.0056 59.3136L57.609 27.3712H20.6641Z" fill="url(#paint1_linear_5835_319701)"/>
<path style="mix-blend-mode:multiply" opacity="0.5" fill-rule="evenodd" clip-rule="evenodd" d="M4.27327 55.5759C3.36955 55.0599 2.58838 54.3543 1.98352 53.5075C1.37867 52.6607 0.964496 51.6929 0.769531 50.6707V53.9019L20.624 67.1966V63.5177C20.2153 64.5299 18.7943 64.6272 17.6459 64.1211C12.9419 61.6568 8.45533 58.7982 4.23433 55.5759H4.27327Z" fill="url(#paint2_radial_5835_319701)"/>
<path style="mix-blend-mode:multiply" fill-rule="evenodd" clip-rule="evenodd" d="M20.6641 63.5165V67.1954L57.064 59.2926L57.1613 53.9591C56.6163 56.0808 55.5457 57.3071 52.4702 58.6892C44.4961 61.7412 36.1827 63.8195 27.7105 64.8791C24.5182 65.2295 21.2091 65.1711 20.7225 63.5165H20.6641Z" fill="url(#paint3_radial_5835_319701)"/>
<path style="mix-blend-mode:multiply" opacity="0.4" fill-rule="evenodd" clip-rule="evenodd" d="M0.476562 31.2637V28.6165L20.7009 39.8868V44.7142C19.3384 40.1399 4.38908 30.1542 0.515501 31.2637H0.476562Z" fill="url(#paint4_radial_5835_319701)"/>
<path style="mix-blend-mode:multiply" opacity="0.75" fill-rule="evenodd" clip-rule="evenodd" d="M20.6641 44.7144C24.1289 38.5439 49.8619 33.9696 57.4728 35.3516V31.77L20.6641 39.2252V44.7144V44.7144Z" fill="url(#paint5_radial_5835_319701)"/>
<path fill-rule="evenodd" clip-rule="evenodd" d="M-0.0278067 28.3435L20.3912 39.9447L58.0174 33.0346L58.1926 22.757L-0.164062 18.2605L-0.0278067 28.3435Z" fill="#AB5500"/>
<path fill-rule="evenodd" clip-rule="evenodd" d="M-0.164062 18.2605L20.3912 29.3557V39.9447L-0.0278067 28.3435L-0.164062 18.2605Z" fill="url(#paint6_radial_5835_319701)"/>
<path fill-rule="evenodd" clip-rule="evenodd" d="M20.3906 29.3565L58.192 22.7578L58.0169 33.0354L20.3906 39.9456V29.3565Z" fill="url(#paint7_radial_5835_319701)"/>
<path fill-rule="evenodd" clip-rule="evenodd" d="M-0.164062 18.2615L20.3912 29.3566L58.1926 22.7579L36.0217 12.4608L-0.164062 18.2615Z" fill="url(#paint8_radial_5835_319701)"/>
<path style="mix-blend-mode:screen" opacity="0.2" fill-rule="evenodd" clip-rule="evenodd" d="M24.7526 38.3878C24.1631 37.5648 23.8461 36.5778 23.8461 35.5654C23.8461 34.553 24.1631 33.566 24.7526 32.7429C27.5556 29.5701 52.0039 23.6527 55.897 25.2877C57.6488 26.008 57.9992 29.4533 57.8435 31.1273C57.769 31.9131 57.4489 32.6555 56.9286 33.249L57.9603 33.0544L58.1355 22.7767L20.3535 29.356V39.9645L25.8232 38.9523C25.4074 38.8674 25.0194 38.6801 24.6942 38.4073L24.7526 38.3878Z" fill="url(#paint9_radial_5835_319701)"/>
<path style="mix-blend-mode:screen" opacity="0.5" fill-rule="evenodd" clip-rule="evenodd" d="M1.02319 28.3243C0.517097 26.9617 0.0110017 23.5164 1.02319 22.329C2.77506 20.3825 7.4467 22.9519 9.10124 23.7695C11.9626 25.1904 17.0236 28.1881 18.4445 31.0105C18.8955 31.9283 19.2165 32.9045 19.3983 33.9108C19.5735 35.0203 19.3983 37.8039 18.172 38.2516C17.9662 38.2905 17.7549 38.2905 17.5491 38.2516L20.3716 39.8477V29.3365L-0.203125 18.2413L-0.0668841 28.3438L1.49034 29.2392C1.28423 28.9565 1.11423 28.6491 0.984253 28.3243H1.02319Z" fill="url(#paint10_radial_5835_319701)"/>
<path style="mix-blend-mode:screen" opacity="0.3" fill-rule="evenodd" clip-rule="evenodd" d="M5.48083 18.5927C6.36396 17.6505 7.53454 17.0276 8.8094 16.8214L-0.164062 18.2424L20.4106 29.3375L58.1926 22.7583L52.8591 20.2862C53.4042 21.3763 52.5866 22.2327 50.5622 22.914C41.9234 25.2714 33.066 26.7389 24.1285 27.2937C22.8994 27.3517 21.6676 27.293 20.4496 27.1185C15.5858 26.2023 10.9895 24.2068 6.99912 21.2789C5.57816 20.2278 5.0526 19.3324 5.48083 18.6511V18.5927Z" fill="url(#paint11_radial_5835_319701)"/>
<path fill-rule="evenodd" clip-rule="evenodd" d="M7.83398 22.5619C9.99462 23.8466 19.2406 29.1217 19.7467 29.6862C20.2528 30.2507 20.2722 32.5086 20.4085 37.881C20.4639 35.1887 20.698 32.5031 21.1092 29.8419C21.6153 29.4331 51.9616 24.0023 56.3218 23.0875C49.8593 24.1191 21.4985 28.7129 20.5253 28.7518C19.007 28.4793 10.7927 24.0802 7.83398 22.5619V22.5619Z" fill="#0BC490"/>
<path fill-rule="evenodd" clip-rule="evenodd" d="M36.5481 36.9669L35.75 63.9457L43.283 62.3106L44.159 35.6044C44.159 32.1396 44.159 28.6748 44.159 25.21L36.5286 26.5336C36.5286 30.0179 36.5286 33.5021 36.5286 36.9864L36.5481 36.9669Z" fill="url(#paint12_radial_5835_319701)"/>
<path fill-rule="evenodd" clip-rule="evenodd" d="M14.0628 62.7773L13.4204 35.9737C13.4204 32.5089 13.4204 29.0246 13.4204 25.5598L6.66602 21.9004C6.66602 25.3263 6.66602 28.7521 6.66602 32.1585L7.4057 58.3392L14.0239 62.7773H14.0628Z" fill="url(#paint13_radial_5835_319701)"/>
<path fill-rule="evenodd" clip-rule="evenodd" d="M44.2543 25.1901C40.2444 23.2436 35.6507 21.4723 31.5824 19.4868C28.4291 17.9491 25.4119 16.2556 22.6868 14.6011L15.582 15.7301C19.4751 17.5403 23.1735 19.2533 26.7745 21.1024C30.3756 22.9516 33.2175 24.7619 36.6239 26.5138L44.2543 25.1901V25.1901Z" fill="url(#paint14_radial_5835_319701)"/>
<path style="mix-blend-mode:multiply" opacity="0.65" fill-rule="evenodd" clip-rule="evenodd" d="M33.3148 24.723C31.3683 22.0952 36.4293 22.2314 38.7067 22.6597C36.293 21.628 33.8599 20.5964 31.5824 19.4868C28.4291 17.9491 25.4119 16.2556 22.6868 14.6011L15.582 15.7301C19.4751 17.5403 23.1735 19.2532 26.7745 21.1024C29.052 22.2704 31.1542 23.5161 33.3148 24.723V24.723Z" fill="url(#paint15_radial_5835_319701)"/>
<path fill-rule="evenodd" clip-rule="evenodd" d="M13.3833 25.561C19.8847 24.4515 25.627 22.9138 32.1283 21.8042C37.9679 20.8115 44.878 19.8577 50.6203 19.2348L43.3208 15.8479C38.4156 16.6654 33.7634 17.7944 28.8387 18.6314C21.5198 19.8383 13.9478 20.6947 6.62891 21.9016L13.3833 25.561V25.561Z" fill="url(#paint16_radial_5835_319701)"/>
<g style="mix-blend-mode:multiply" opacity="0.35">
<path fill-rule="evenodd" clip-rule="evenodd" d="M6.70503 32.158V31.5741C7.44471 32.5863 12.0385 35.6034 13.4205 35.1946V35.9732V39.0098C13.2013 37.9309 12.666 36.9416 11.8828 36.1679C10.2282 34.3966 7.48362 32.742 6.68555 33.9683V32.158H6.70503Z" fill="#F39200"/>
</g>
<g style="mix-blend-mode:multiply" opacity="0.2">
<path fill-rule="evenodd" clip-rule="evenodd" d="M36.5462 36.9665V36.0127C37.3054 37.3364 43.7678 35.8959 44.1766 34.475V35.5845V38.3485C44.0014 37.7451 43.7483 37.2196 43.0281 37.1028C41.0875 36.8983 39.1427 37.449 37.5973 38.6405C37.2312 38.9619 36.9325 39.3528 36.7187 39.7905C36.5048 40.2283 36.38 40.7041 36.3516 41.1905L36.4683 36.8887L36.5462 36.9665Z" fill="#F39200"/>
</g>
<g style="mix-blend-mode:multiply" opacity="0.5">
<path fill-rule="evenodd" clip-rule="evenodd" d="M14.0459 62.1733C11.8853 60.8886 9.49105 59.2925 7.42773 57.8521V58.3387L14.0459 62.7767V62.1733Z" fill="#936037"/>
</g>
<g style="mix-blend-mode:multiply" opacity="0.5">
<path fill-rule="evenodd" clip-rule="evenodd" d="M43.283 61.7451C40.8109 62.4264 38.2221 63.0298 35.75 63.5359V63.9252L43.283 62.2901V61.7451Z" fill="#B17F4A"/>
</g>
<path style="mix-blend-mode:screen" fill-rule="evenodd" clip-rule="evenodd" d="M6.62891 21.9003V23.3991C9.22511 23.9765 11.5822 25.3351 13.3833 27.2921V25.657L14.4345 25.4818C12.0732 24.5021 9.82221 23.2755 7.71895 21.8224L6.62891 21.9976V21.9003Z" fill="url(#paint17_radial_5835_319701)"/>
<path style="mix-blend-mode:screen" fill-rule="evenodd" clip-rule="evenodd" d="M43.3004 24.7042C40.9062 25.1909 38.2005 25.6775 35.709 26.0473L36.6239 26.5145L44.2542 25.1909L43.3004 24.7042V24.7042Z" fill="url(#paint18_radial_5835_319701)"/>
<path style="mix-blend-mode:multiply" opacity="0.5" fill-rule="evenodd" clip-rule="evenodd" d="M36.6055 28.0718C39.1165 27.3905 41.7443 26.7676 44.2553 26.2615V25.1909L36.6249 26.5146C36.6249 27.0401 36.6249 27.5657 36.6249 28.0718H36.6055Z" fill="url(#paint19_radial_5835_319701)"/>
<path style="mix-blend-mode:multiply" fill-rule="evenodd" clip-rule="evenodd" d="M8.40039 21.6291C14.4735 24.1595 20.8387 23.4393 28.3522 22.505C29.598 22.2519 30.8438 22.0184 32.1285 21.8042C37.968 20.8115 44.8782 19.8577 50.6204 19.2348L43.321 15.8479C38.4157 16.6654 33.7635 17.7944 28.8389 18.6314C22.1234 19.7409 15.2132 20.5779 8.40039 21.6291V21.6291Z" fill="url(#paint20_radial_5835_319701)"/>
<path fill-rule="evenodd" clip-rule="evenodd" d="M27.7298 17.6176L30.6107 18.1821C33.0049 11.8949 35.477 8.99454 39.7009 3.60268C37.1601 3.97594 34.6796 4.68279 32.3236 5.70493C31.9581 4.3196 31.3662 3.00419 30.5718 1.81189C28.3653 3.92383 26.9849 6.75374 26.6787 9.79262C26.5207 12.4394 26.9117 15.0903 27.8272 17.5787L27.7298 17.6176Z" fill="url(#paint21_radial_5835_319701)"/>
<path style="mix-blend-mode:multiply" fill-rule="evenodd" clip-rule="evenodd" d="M31.9542 13.7061C31.1953 14.0237 30.3649 14.1316 29.55 14.0186C28.7351 13.9056 27.9654 13.5758 27.3215 13.0637C26.9714 12.6497 26.7008 12.1746 26.5234 11.6622C26.6599 13.6924 27.0657 15.6954 27.7303 17.6186L30.6111 18.1831C31.3555 16.1674 32.2603 14.2146 33.3168 12.3435C32.9347 12.8423 32.4746 13.2761 31.9542 13.6282V13.7061Z" fill="url(#paint22_radial_5835_319701)"/>
<path style="mix-blend-mode:screen" fill-rule="evenodd" clip-rule="evenodd" d="M26.5605 10.0863C26.7316 9.84928 26.9569 9.65664 27.2177 9.52456C27.4784 9.39248 27.7671 9.32481 28.0594 9.3272C29.383 9.3272 33.0035 9.6581 33.8989 10.7092C34.0076 10.8548 34.0869 11.02 34.1325 11.1959C34.989 9.85276 35.9233 8.56804 36.9744 7.18601C36.4423 7.29932 35.9021 7.37091 35.3588 7.40013C33.202 7.51602 31.0481 7.1226 29.0715 6.25169C28.8329 6.12888 28.6282 5.94921 28.4754 5.72856C28.3227 5.5079 28.2266 5.25303 28.1956 4.98645C27.3588 6.46669 26.8354 8.10323 26.6579 9.79436C26.6579 9.79436 26.6579 9.98901 26.6579 10.0863H26.5605Z" fill="url(#paint23_radial_5835_319701)"/>
<path fill-rule="evenodd" clip-rule="evenodd" d="M27.2613 18.7281L29.5971 16.9568C26.5021 10.9809 25.9961 7.22415 24.7698 0.469727C23.3601 2.61888 22.2347 4.94159 21.4217 7.37988C20.1448 6.73255 18.7706 6.29857 17.3535 6.09517C17.445 9.1628 18.6169 12.0996 20.6626 14.3873C22.5315 16.2833 24.7803 17.7626 27.2613 18.7281V18.7281Z" fill="url(#paint24_radial_5835_319701)"/>
<path style="mix-blend-mode:multiply" fill-rule="evenodd" clip-rule="evenodd" d="M27.1642 12.9854C26.697 14.2701 25.062 16.0803 23.5826 16.0219C23.0464 16.0019 22.5185 15.8832 22.0254 15.6715C23.622 16.926 25.384 17.9544 27.2615 18.7276L29.5974 16.9563C28.6139 15.0786 27.7808 13.126 27.1058 11.1167C27.2147 11.761 27.2147 12.4189 27.1058 13.0632L27.1642 12.9854Z" fill="url(#paint25_radial_5835_319701)"/>
<path style="mix-blend-mode:screen" fill-rule="evenodd" clip-rule="evenodd" d="M20.8598 14.6011C20.7952 14.3158 20.8022 14.0189 20.8804 13.737C20.9585 13.4551 21.1052 13.1969 21.3075 12.9855C22.1639 11.9733 24.8307 9.50127 26.1543 9.59859C26.3408 9.59908 26.5232 9.65313 26.6799 9.75432C26.2516 8.21657 25.9207 6.65935 25.5898 4.94641C25.3234 5.4299 25.0105 5.88625 24.6555 6.30897C23.3164 7.98912 21.5944 9.32404 19.6335 10.202C19.3814 10.3011 19.1084 10.3352 18.8397 10.3011C18.571 10.2671 18.3152 10.1661 18.0957 10.0074C18.6428 11.6222 19.5175 13.1066 20.6651 14.3676L20.8598 14.5817V14.6011Z" fill="url(#paint26_radial_5835_319701)"/>
<path fill-rule="evenodd" clip-rule="evenodd" d="M28.4488 17.7545C26.5023 14.8736 17.4315 6.28949 13.5774 7.51579C10.8718 8.39173 6.39477 15.0099 7.73787 18.2606C7.9679 18.7175 8.2857 19.1245 8.67314 19.4585C9.06057 19.7925 9.51005 20.0469 9.99584 20.2071C15.7216 22.2144 21.936 22.3575 27.7481 20.6159C28.0206 19.6426 28.2737 18.6694 28.5462 17.6766L28.4488 17.7545Z" fill="url(#paint27_radial_5835_319701)"/>
<path fill-rule="evenodd" clip-rule="evenodd" d="M29.6191 17.502L31.0985 20.4023C35.3225 20.85 43.42 20.558 48.3641 17.463C48.6705 17.2965 48.9163 17.0374 49.0666 16.7228C49.2169 16.4082 49.264 16.0541 49.2012 15.7112C48.5588 12.0128 44.1207 7.12702 40.8506 6.75718C37.5804 6.38734 30.7092 14.2902 29.6191 17.502V17.502Z" fill="url(#paint28_radial_5835_319701)"/>
<path fill-rule="evenodd" clip-rule="evenodd" d="M25.7622 19.7593V20.8299C20.9738 21.9199 13.7911 22.173 9.45037 19.3311C7.50385 18.0853 8.53551 14.601 9.6061 14.2117C12.9346 12.9659 22.9009 17.5987 25.8401 19.7593H25.7622Z" fill="url(#paint29_linear_5835_319701)"/>
<path style="mix-blend-mode:multiply" fill-rule="evenodd" clip-rule="evenodd" d="M12.8201 14.1923C14.0204 16.0391 15.5891 17.6182 17.4279 18.8307C19.2667 20.0432 21.3361 20.8629 23.5064 21.2387C24.2656 21.1219 25.0053 20.9856 25.6866 20.8299V19.7593C21.7236 17.1739 17.3447 15.2906 12.7422 14.1923H12.8201Z" fill="url(#paint30_radial_5835_319701)"/>
<path fill-rule="evenodd" clip-rule="evenodd" d="M32.4784 19.6433L32.6731 20.1494C37.0844 20.4438 41.5103 19.8617 45.6953 18.4365C47.1358 17.8915 49.3743 16.9961 48.7708 15.2247C48.401 14.1736 47.3693 12.9862 46.8243 12.9084C43.671 12.5385 35.1452 17.4437 32.459 19.6433H32.4784Z" fill="url(#paint31_linear_5835_319701)"/>
<path style="mix-blend-mode:multiply" fill-rule="evenodd" clip-rule="evenodd" d="M46.5304 13.7248C46.3573 13.5125 46.1368 13.3439 45.8866 13.2323C45.6364 13.1208 45.3636 13.0694 45.09 13.0824C40.5494 14.5509 36.2862 16.768 32.4766 19.6422C37.0171 19.2212 41.4671 18.112 45.674 16.3526C46.4136 15.9827 46.9781 15.5545 47.0755 15.0289C47.088 14.7846 47.0455 14.5406 46.9512 14.3149C46.8568 14.0892 46.7131 13.8875 46.5304 13.7248V13.7248Z" fill="url(#paint32_radial_5835_319701)"/>
<path style="mix-blend-mode:screen" fill-rule="evenodd" clip-rule="evenodd" d="M9.53165 14.2121C11.9162 13.8691 14.3491 14.2205 16.5391 15.2243C16.1949 14.7707 16.0086 14.217 16.0086 13.6476C16.0086 13.0782 16.1949 12.5245 16.5391 12.0709C17.0536 11.3493 17.7989 10.8248 18.6519 10.5841C19.5049 10.3434 20.4144 10.401 21.2302 10.7473C19.5151 9.30132 17.5303 8.20969 15.3907 7.53552C14.6789 7.62354 14.0053 7.90647 13.4441 8.35307C11.3994 10.0383 9.79596 12.1962 8.77251 14.6403C8.64511 15.0069 8.55384 15.385 8.5 15.7693C8.55436 15.4499 8.67623 15.1458 8.85749 14.8773C9.03875 14.6087 9.27522 14.3819 9.55111 14.2121H9.53165Z" fill="url(#paint33_radial_5835_319701)"/>
<path style="mix-blend-mode:screen" fill-rule="evenodd" clip-rule="evenodd" d="M41.3536 7.10742C40.5993 6.8724 39.7915 6.8724 39.0372 7.10742C37.5684 7.90717 36.2241 8.91701 35.0469 10.105C35.4877 9.80112 35.9901 9.59819 36.5184 9.51071C37.0466 9.42323 37.5876 9.45336 38.1029 9.59897C38.9538 9.70024 39.752 10.0639 40.3869 10.6394C41.0217 11.2149 41.4616 11.9738 41.6456 12.8107C41.7329 13.1275 41.7178 13.4638 41.6024 13.7715C41.4871 14.0791 41.2773 14.3424 41.0032 14.5237C42.8017 13.5401 44.7963 12.9683 46.8428 12.8497C47.4468 13.1355 47.9443 13.6058 48.2637 14.1928C47.1153 11.6817 44.3707 7.98334 41.3536 7.04901V7.10742Z" fill="url(#paint34_radial_5835_319701)"/>
<path style="mix-blend-mode:multiply" fill-rule="evenodd" clip-rule="evenodd" d="M31.8564 14.582C31.9381 14.2335 32.0555 13.8943 32.2067 13.5698C32.3039 13.3332 32.4211 13.1053 32.5571 12.8885L31.9926 13.6088C31.8369 13.784 31.7006 13.9786 31.5644 14.1538C30.8699 15.112 30.2825 16.1433 29.8125 17.2293C30.5222 18.3333 31.6193 19.1318 32.888 19.4678C33.5693 18.9422 34.5036 18.3193 35.5547 17.6575L36.9757 16.8205C36.2993 17.09 35.5816 17.2414 34.854 17.2682C33.2968 17.2682 31.6033 16.5286 31.9147 14.6794L31.8564 14.582Z" fill="url(#paint35_radial_5835_319701)"/>
<path style="mix-blend-mode:multiply" fill-rule="evenodd" clip-rule="evenodd" d="M25.5889 15.4571C25.5889 16.4499 24.0122 17.4037 23.0973 17.4037C22.2808 17.3649 21.4743 17.2075 20.7031 16.9365C22.1628 17.5936 23.58 18.3413 24.9465 19.175C25.5856 19.0983 26.1958 18.8644 26.7223 18.4941C27.2488 18.1239 27.6753 17.6288 27.9636 17.0533C27.088 16.0007 26.1521 14.9998 25.1606 14.0557C25.4496 14.4502 25.6002 14.9293 25.5889 15.4182V15.4571Z" fill="url(#paint36_radial_5835_319701)"/>
<path d="M24.497 20.1106C24.3802 19.5656 25.2367 18.8843 26.1905 18.1641C26.945 17.5187 27.8595 17.0883 28.8378 16.9183C30.103 17.0546 34.5605 19.7992 33.4121 21.3369C32.5556 22.4659 29.85 22.5633 28.5263 22.4659C27.2027 22.3686 24.7695 21.5511 24.497 20.0522V20.1106Z" fill="#8500C4"/>
<path fill-rule="evenodd" clip-rule="evenodd" d="M25.5664 20.5392C26.373 21.1352 27.3307 21.4927 28.3305 21.5709C29.4344 21.7282 30.5551 21.7282 31.659 21.5709C33.4109 21.24 33.6055 20.3056 32.8464 19.4881C31.8709 18.5012 30.7315 17.6911 29.4789 17.0939C29.2659 16.9933 29.0332 16.9412 28.7976 16.9412C28.5621 16.9412 28.3294 16.9933 28.1164 17.0939C27.2571 17.5441 26.4367 18.065 25.6637 18.6511C24.6515 19.4297 24.6126 19.7995 25.5664 20.5976V20.5392Z" fill="url(#paint37_radial_5835_319701)"/>
<path style="mix-blend-mode:screen" fill-rule="evenodd" clip-rule="evenodd" d="M32.2261 18.8058C31.3893 18.097 30.4673 17.4954 29.4815 17.015C29.2715 16.9042 29.0377 16.8463 28.8002 16.8463C28.5628 16.8463 28.329 16.9042 28.119 17.015C27.294 17.4341 26.506 17.9225 25.7637 18.4749C25.7637 20.2657 32.6154 20.6356 32.4013 19.0978C32.3865 18.9749 32.3235 18.8629 32.2261 18.7864V18.8058Z" fill="url(#paint38_radial_5835_319701)"/>
</g>
</g>
<defs>
<linearGradient id="paint0_linear_5835_319701" x1="10.5418" y1="27.3712" x2="10.5418" y2="67.197" gradientUnits="userSpaceOnUse">
<stop stop-color="#15C69B"/>
<stop offset="1" stop-color="#021710"/>
</linearGradient>
<linearGradient id="paint1_linear_5835_319701" x1="39.1365" y1="27.3712" x2="39.1365" y2="67.197" gradientUnits="userSpaceOnUse">
<stop stop-color="#0FBB92"/>
<stop offset="1" stop-color="#003421"/>
</linearGradient>
<radialGradient id="paint2_radial_5835_319701" cx="0" cy="0" r="1" gradientUnits="userSpaceOnUse" gradientTransform="translate(19.0084 45.2204) scale(23.3582 23.3582)">
<stop offset="0.54" stop-color="white"/>
<stop offset="0.58" stop-color="#F9F5F6"/>
<stop offset="0.66" stop-color="#EADADF"/>
<stop offset="0.76" stop-color="#D1ADB8"/>
<stop offset="0.87" stop-color="#AE7083"/>
<stop offset="1" stop-color="#822341"/>
</radialGradient>
<radialGradient id="paint3_radial_5835_319701" cx="0" cy="0" r="1" gradientUnits="userSpaceOnUse" gradientTransform="translate(25.5304 31.1264) scale(47.573 47.5729)">
<stop offset="0.54" stop-color="white"/>
<stop offset="0.58" stop-color="#F9F5F6"/>
<stop offset="0.66" stop-color="#EADADF"/>
<stop offset="0.76" stop-color="#D1ADB8"/>
<stop offset="0.87" stop-color="#AE7083"/>
<stop offset="1" stop-color="#822341"/>
</radialGradient>
<radialGradient id="paint4_radial_5835_319701" cx="0" cy="0" r="1" gradientUnits="userSpaceOnUse" gradientTransform="translate(-4.19509 61.4153) scale(36.8866 36.8866)">
<stop offset="0.54" stop-color="white"/>
<stop offset="0.58" stop-color="#FAF6F5"/>
<stop offset="0.65" stop-color="#EDDEDA"/>
<stop offset="0.73" stop-color="#D7B7AD"/>
<stop offset="0.84" stop-color="#B98270"/>
<stop offset="0.95" stop-color="#933E22"/>
<stop offset="1" stop-color="#822000"/>
</radialGradient>
<radialGradient id="paint5_radial_5835_319701" cx="0" cy="0" r="1" gradientUnits="userSpaceOnUse" gradientTransform="translate(43.1464 60.6369) scale(33.4802 33.4802)">
<stop offset="0.54" stop-color="white"/>
<stop offset="0.58" stop-color="#FAF6F5"/>
<stop offset="0.65" stop-color="#EDDEDA"/>
<stop offset="0.73" stop-color="#D7B7AD"/>
<stop offset="0.84" stop-color="#B98270"/>
<stop offset="0.95" stop-color="#933E22"/>
<stop offset="1" stop-color="#822000"/>
</radialGradient>
<radialGradient id="paint6_radial_5835_319701" cx="0" cy="0" r="1" gradientUnits="userSpaceOnUse" gradientTransform="translate(4.09094 -27.7356) scale(31.1292 72.2235)">
<stop stop-color="#0EE698"/>
<stop offset="1" stop-color="#00734A"/>
</radialGradient>
<radialGradient id="paint7_radial_5835_319701" cx="0" cy="0" r="1" gradientUnits="userSpaceOnUse" gradientTransform="translate(28.2156 -13.7005) scale(57.2472 57.2472)">
<stop stop-color="#0EE698"/>
<stop offset="1" stop-color="#00734A"/>
</radialGradient>
<radialGradient id="paint8_radial_5835_319701" cx="0" cy="0" r="1" gradientUnits="userSpaceOnUse" gradientTransform="translate(14.902 36.8118) scale(87.3014 87.3014)">
<stop stop-color="#0C8968"/>
<stop offset="1" stop-color="#09A57B"/>
</radialGradient>
<radialGradient id="paint9_radial_5835_319701" cx="0" cy="0" r="1" gradientUnits="userSpaceOnUse" gradientTransform="translate(55.7023 38.7771) scale(52.4198 52.4198)">
<stop/>
<stop offset="1" stop-color="#8AFFC7"/>
</radialGradient>
<radialGradient id="paint10_radial_5835_319701" cx="0" cy="0" r="1" gradientUnits="userSpaceOnUse" gradientTransform="translate(13.7923 54.7191) scale(61.4711 61.4711)">
<stop/>
<stop offset="1" stop-color="#8AFFC0"/>
</radialGradient>
<radialGradient id="paint11_radial_5835_319701" cx="0" cy="0" r="1" gradientUnits="userSpaceOnUse" gradientTransform="translate(35.6324 -8.01618) scale(48.8576 48.8576)">
<stop/>
<stop offset="1" stop-color="#CA9E67"/>
</radialGradient>
<radialGradient id="paint12_radial_5835_319701" cx="0" cy="0" r="1" gradientUnits="userSpaceOnUse" gradientTransform="translate(11.6327 15.7109) scale(58.9016 58.9017)">
<stop stop-color="#8F00FF"/>
<stop offset="1" stop-color="#4F00B3"/>
</radialGradient>
<radialGradient id="paint13_radial_5835_319701" cx="0" cy="0" r="1" gradientUnits="userSpaceOnUse" gradientTransform="translate(-14.5484 11.8763) scale(51.8117 62.1576)">
<stop stop-color="#8F00FF"/>
<stop offset="1" stop-color="#4F00B3"/>
</radialGradient>
<radialGradient id="paint14_radial_5835_319701" cx="0" cy="0" r="1" gradientUnits="userSpaceOnUse" gradientTransform="translate(31.0374 19.4479) scale(32.137 32.137)">
<stop stop-color="#760DFC"/>
<stop offset="1" stop-color="#930DFC"/>
</radialGradient>
<radialGradient id="paint15_radial_5835_319701" cx="0" cy="0" r="1" gradientUnits="userSpaceOnUse" gradientTransform="translate(34.3854 28.7717) scale(8.91507 8.91506)">
<stop stop-color="#B85E16"/>
<stop offset="1" stop-color="white"/>
</radialGradient>
<radialGradient id="paint16_radial_5835_319701" cx="0" cy="0" r="1" gradientUnits="userSpaceOnUse" gradientTransform="translate(30.3418 19.7998) scale(49.3074 26.2032)">
<stop stop-color="#760DFC"/>
<stop offset="1" stop-color="#930DFC"/>
</radialGradient>
<radialGradient id="paint17_radial_5835_319701" cx="0" cy="0" r="1" gradientUnits="userSpaceOnUse" gradientTransform="translate(5.69457 17.6763) scale(13.5673 13.5672)">
<stop stop-color="#B385FF"/>
<stop offset="1"/>
</radialGradient>
<radialGradient id="paint18_radial_5835_319701" cx="0" cy="0" r="1" gradientUnits="userSpaceOnUse" gradientTransform="translate(38.7261 30.3491) scale(14.268 14.268)">
<stop stop-color="#9F4CF2"/>
<stop offset="1"/>
</radialGradient>
<radialGradient id="paint19_radial_5835_319701" cx="0" cy="0" r="1" gradientUnits="userSpaceOnUse" gradientTransform="translate(41.4134 21.7066) scale(15.2412 15.2413)">
<stop stop-color="#7C0000"/>
<stop offset="1" stop-color="white"/>
</radialGradient>
<radialGradient id="paint20_radial_5835_319701" cx="0" cy="0" r="1" gradientUnits="userSpaceOnUse" gradientTransform="translate(40.8294 15.0888) scale(45.4512 45.4512)">
<stop stop-color="#B85E16"/>
<stop offset="1" stop-color="white"/>
</radialGradient>
<radialGradient id="paint21_radial_5835_319701" cx="0" cy="0" r="1" gradientUnits="userSpaceOnUse" gradientTransform="translate(31.1362 17.676) scale(36.2053 36.2053)">
<stop stop-color="#820CF7"/>
<stop offset="1" stop-color="#BE0DFC"/>
</radialGradient>
<radialGradient id="paint22_radial_5835_319701" cx="0" cy="0" r="1" gradientUnits="userSpaceOnUse" gradientTransform="translate(31.2535 8.83978) scale(10.8032 10.8032)">
<stop stop-color="white"/>
<stop offset="1" stop-color="#7E00BA"/>
</radialGradient>
<radialGradient id="paint23_radial_5835_319701" cx="0" cy="0" r="1" gradientUnits="userSpaceOnUse" gradientTransform="translate(31.9913 3.21512) scale(11.3677 11.3677)">
<stop stop-color="#FFF48F"/>
<stop offset="1"/>
</radialGradient>
<radialGradient id="paint24_radial_5835_319701" cx="0" cy="0" r="1" gradientUnits="userSpaceOnUse" gradientTransform="translate(28.1762 15.9056) scale(19.8545 19.8545)">
<stop stop-color="#820CF7"/>
<stop offset="1" stop-color="#BE0DFC"/>
</radialGradient>
<radialGradient id="paint25_radial_5835_319701" cx="0" cy="0" r="1" gradientUnits="userSpaceOnUse" gradientTransform="translate(27.2976 7.82244) scale(12.0414 12.6091)">
<stop stop-color="white"/>
<stop offset="1" stop-color="#7E00BA"/>
</radialGradient>
<radialGradient id="paint26_radial_5835_319701" cx="0" cy="0" r="1" gradientUnits="userSpaceOnUse" gradientTransform="translate(23.4292 3.23347) scale(12.3409 12.3409)">
<stop stop-color="#FFF48F"/>
<stop offset="1"/>
</radialGradient>
<radialGradient id="paint27_radial_5835_319701" cx="0" cy="0" r="1" gradientUnits="userSpaceOnUse" gradientTransform="translate(13.9473 10.2215) scale(16.6622 16.6622)">
<stop stop-color="#B00DFC"/>
<stop offset="1" stop-color="#820CF7"/>
</radialGradient>
<radialGradient id="paint28_radial_5835_319701" cx="0" cy="0" r="1" gradientUnits="userSpaceOnUse" gradientTransform="translate(35.6312 9.45107) scale(15.5188 15.9645)">
<stop stop-color="#B00DFC"/>
<stop offset="1" stop-color="#820CF7"/>
</radialGradient>
<linearGradient id="paint29_linear_5835_319701" x1="8.37621" y1="17.7897" x2="46.4274" y2="17.7897" gradientUnits="userSpaceOnUse">
<stop stop-color="#5317D4"/>
<stop offset="1" stop-color="#8000FF"/>
</linearGradient>
<radialGradient id="paint30_radial_5835_319701" cx="0" cy="0" r="1" gradientUnits="userSpaceOnUse" gradientTransform="translate(28.5285 11.0389) scale(15.4165 15.4164)">
<stop stop-color="#BA5700"/>
<stop offset="1" stop-color="white"/>
</radialGradient>
<linearGradient id="paint31_linear_5835_319701" x1="32.4784" y1="16.5483" x2="68.1971" y2="16.5483" gradientUnits="userSpaceOnUse">
<stop stop-color="#5317D4"/>
<stop offset="1" stop-color="#8000FF"/>
</linearGradient>
<radialGradient id="paint32_radial_5835_319701" cx="0" cy="0" r="1" gradientUnits="userSpaceOnUse" gradientTransform="translate(31.1529 20.2845) scale(17.1294 17.1293)">
<stop stop-color="#BA5700"/>
<stop offset="1" stop-color="white"/>
</radialGradient>
<radialGradient id="paint33_radial_5835_319701" cx="0" cy="0" r="1" gradientUnits="userSpaceOnUse" gradientTransform="translate(12.8797 16.3143) scale(14.7935 14.7936)">
<stop stop-color="#C78FFF"/>
<stop offset="1"/>
</radialGradient>
<radialGradient id="paint34_radial_5835_319701" cx="0" cy="0" r="1" gradientUnits="userSpaceOnUse" gradientTransform="translate(35.4556 17.2099) scale(16.779 16.779)">
<stop stop-color="#E28FFF"/>
<stop offset="1"/>
</radialGradient>
<radialGradient id="paint35_radial_5835_319701" cx="0" cy="0" r="1" gradientUnits="userSpaceOnUse" gradientTransform="translate(34.8 10.0408) scale(11.3913 10.8999)">
<stop stop-color="white"/>
<stop offset="1" stop-color="#7E00BA"/>
</radialGradient>
<radialGradient id="paint36_radial_5835_319701" cx="0" cy="0" r="1" gradientUnits="userSpaceOnUse" gradientTransform="translate(25.7584 11.8398) scale(11.5461 8.4813)">
<stop stop-color="white"/>
<stop offset="1" stop-color="#7E00BA"/>
</radialGradient>
<radialGradient id="paint37_radial_5835_319701" cx="0" cy="0" r="1" gradientUnits="userSpaceOnUse" gradientTransform="translate(27.9217 14.1157) scale(9.05131 9.05132)">
<stop stop-color="#B00DFC"/>
<stop offset="1" stop-color="#820CF7"/>
</radialGradient>
<radialGradient id="paint38_radial_5835_319701" cx="0" cy="0" r="1" gradientUnits="userSpaceOnUse" gradientTransform="translate(29.6956 13.5697) scale(7.74716 7.74716)">
<stop stop-color="#BA8FFF"/>
<stop offset="1"/>
</radialGradient>
<clipPath id="clip0_5835_319701">
<rect width="58" height="67" fill="white"/>
</clipPath>
<clipPath id="clip1_5835_319701">
<rect width="100" height="100" fill="white" transform="translate(-27 -25)"/>
</clipPath>
</defs>
</svg>
