<svg width="62" height="65" viewBox="0 0 62 65" fill="none" xmlns="http://www.w3.org/2000/svg">
<g clip-path="url(#clip0_5835_319773)">
<path d="M60.6383 33.3531L44.911 51.8852C36.074 61.8332 14.6917 63.2568 5.90416 54.2053C0.232388 46.0873 0.29074 40.1777 0.537751 33.0471C0.647205 29.6431 1.47189 26.3002 2.95815 23.2359C4.4444 20.1715 6.55896 17.4543 9.16435 15.2608L28.0812 -0.0587117L36.3898 9.80403L17.8599 25.4639C16.6941 26.4644 15.7476 27.695 15.0799 29.0785C14.4121 30.4621 14.0374 31.9687 13.9794 33.5038C13.944 35.198 14.257 36.8813 14.8988 38.4495C15.5405 40.0178 16.4975 41.4375 17.7104 42.6208C18.8534 43.8855 20.2516 44.8935 21.8126 45.5783C23.3736 46.2631 25.0621 46.6093 26.7667 46.5939C28.2954 46.5404 29.7984 46.1854 31.1895 45.5494C32.5806 44.9134 33.8324 44.0088 34.8729 42.8877L50.8234 24.592L60.6534 33.2994L60.6383 33.3531Z" fill="#686868"/>
<path fill-rule="evenodd" clip-rule="evenodd" d="M60.6504 37.9897L60.6403 33.3542L50.8103 24.6468L50.8254 29.2645L60.6504 37.9897Z" fill="url(#paint0_linear_5835_319773)"/>
<path fill-rule="evenodd" clip-rule="evenodd" d="M36.3867 14.4929L36.3766 9.85738L28.073 -0.0232471L28.0831 4.6123L36.3867 14.4929Z" fill="url(#paint1_linear_5835_319773)"/>
<path fill-rule="evenodd" clip-rule="evenodd" d="M53.9015 45.937L60.6516 37.9891L58.3965 35.985L50.8266 29.2639L43.9412 37.2123L51.675 44.0374L53.9015 45.937ZM26.1491 18.5079L28.405 21.2651L36.3729 14.5474L34.0842 11.8389L28.0694 4.66678L19.9526 11.2269L26.1491 18.5079Z" fill="url(#paint2_radial_5835_319773)"/>
<path fill-rule="evenodd" clip-rule="evenodd" d="M43.9657 32.5086L43.9579 37.1391L50.8232 29.2622L50.8081 24.6446L43.9657 32.5086Z" fill="url(#paint3_linear_5835_319773)"/>
<path fill-rule="evenodd" clip-rule="evenodd" d="M19.9568 6.53686L19.9668 11.1724L28.0836 4.61232L28.0735 -0.0232253L19.9568 6.53686Z" fill="url(#paint4_linear_5835_319773)"/>
<path fill-rule="evenodd" clip-rule="evenodd" d="M43.9384 37.2122L34.9398 47.5975C33.8974 48.7206 32.6427 49.6259 31.2482 50.2612C29.8538 50.8965 28.3472 51.2491 26.8157 51.2986C25.088 51.312 23.3777 50.9534 21.8009 50.2472C20.2241 49.541 18.8177 48.5038 17.6772 47.2059L10.4942 54.2214L8.04397 56.6214C10.4837 59.1579 13.4126 61.173 16.6536 62.5449C19.8946 63.9167 23.3802 64.6168 26.8995 64.6026C30.3063 64.584 33.6707 63.8451 36.7718 62.4343C39.8729 61.0235 42.6405 58.9727 44.8929 56.4166L53.8701 45.8324L51.61 43.8461L43.8762 37.0211L43.9384 37.2122Z" fill="url(#paint5_radial_5835_319773)"/>
<path fill-rule="evenodd" clip-rule="evenodd" d="M17.8567 30.1532L28.4035 21.2647L26.1326 18.5612L19.9512 11.2265L9.1611 19.9502C4.27813 24.0809 1.23243 29.9793 0.691812 36.3522C0.566139 36.7994 0.624405 37.2791 0.606075 37.7565C0.507022 41.2745 1.12277 44.7761 2.41609 48.0493C3.70941 51.3225 5.6534 54.2992 8.1304 56.7994L10.5806 54.3994L17.6786 47.2056C16.4635 46.0205 15.5056 44.5978 14.8645 43.0261C14.2235 41.4545 13.9131 39.7676 13.9526 38.0708C13.9685 37.4424 14.0409 36.8167 14.1691 36.2013C14.6688 33.7999 15.9567 31.6343 17.8281 30.0487L17.8567 30.1532Z" fill="url(#paint6_linear_5835_319773)"/>
<path fill-rule="evenodd" clip-rule="evenodd" d="M17.6763 47.2047C18.8171 48.4671 20.2123 49.4734 21.7703 50.1574C23.3282 50.8414 25.0133 51.1874 26.7147 51.1727C28.2463 51.1232 29.7528 50.7706 31.1473 50.1353C32.5417 49.5001 33.7964 48.5947 34.8389 47.4716L43.9375 37.211L43.9274 32.5755L34.8372 43.0121C33.7966 44.1333 32.5449 45.0378 31.1538 45.6738C29.7627 46.3098 28.2596 46.6648 26.731 46.7183C24.4363 46.793 22.1746 46.1575 20.2546 44.8986L17.6763 47.2047Z" fill="url(#paint7_linear_5835_319773)"/>
<path fill-rule="evenodd" clip-rule="evenodd" d="M17.6758 47.2041L20.3043 44.7191C19.3655 44.1063 18.4984 43.39 17.7194 42.5836C15.9716 40.8362 14.7577 38.6271 14.2199 36.2148C14.0917 36.8302 14.0193 37.4559 14.0035 38.0843C13.959 39.7748 14.262 41.4564 14.8937 43.0251C15.5254 44.5938 16.4723 46.0161 17.6758 47.2041V47.2041Z" fill="#BA9E11"/>
<path fill-rule="evenodd" clip-rule="evenodd" d="M9.17634 19.8961L19.9664 11.1724L19.9563 6.53686L9.16626 15.2605C6.56087 17.454 4.44631 20.1712 2.96006 23.2356C1.4738 26.2999 0.649115 29.6428 0.53966 33.0468C0.420922 35.5276 0.457385 38.0135 0.648835 40.4898C0.57434 39.5261 0.549672 38.5591 0.5749 37.5929C0.684354 34.1889 1.50901 30.846 2.99527 27.7817C4.48153 24.7173 6.59609 22.0001 9.20148 19.8066L9.17634 19.8961Z" fill="#BA9E11"/>
<path style="mix-blend-mode:screen" fill-rule="evenodd" clip-rule="evenodd" d="M54.6273 32.4937C54.2426 36.2537 52.9563 39.8653 50.8776 43.0219L51.7566 43.8094L54.0168 45.7956L60.7669 37.8478L58.5118 35.8436L54.6273 32.4937Z" fill="url(#paint8_radial_5835_319773)"/>
<path style="mix-blend-mode:screen" fill-rule="evenodd" clip-rule="evenodd" d="M51.6395 43.9508L50.7605 43.1633C50.2967 43.921 49.8099 44.6914 49.2824 45.4697C47.54 48.03 45.8405 50.5059 44.0712 52.7497C42.163 55.2678 39.9212 57.5147 37.4074 59.4285C28.5125 66.0788 18.3716 63.905 10.6917 57.7127C10.0358 57.1617 9.38493 56.5927 8.76201 55.993L8.36294 56.3828L7.96389 56.7725C10.4036 59.309 13.3325 61.3242 16.5735 62.696C19.8145 64.0679 23.3001 64.7679 26.8194 64.7537C30.2263 64.7352 33.5907 63.9962 36.6917 62.5854C39.7928 61.1746 42.5604 59.1238 44.8128 56.5678L53.79 45.9835L51.5299 43.9973L51.6395 43.9508Z" fill="url(#paint9_radial_5835_319773)"/>
<path style="mix-blend-mode:screen" fill-rule="evenodd" clip-rule="evenodd" d="M8.87189 55.9451C5.83856 52.9934 3.376 49.5072 1.60799 45.6617L1.49725 45.4376C2.41301 48.6069 3.9077 51.5793 5.90575 54.2044C6.57072 55.0967 7.29326 55.9445 8.06875 56.7425L8.46779 56.3528L8.86687 55.963L8.87189 55.9451Z" fill="url(#paint10_radial_5835_319773)"/>
<path fill-rule="evenodd" clip-rule="evenodd" d="M0.597135 36.7496C2.56442 27.8246 12.0784 19.7268 22.0915 13.6996L19.9643 11.1716L9.17419 19.8952C6.6758 21.9844 4.62563 24.5571 3.14687 27.4588C1.66812 30.3604 0.791305 33.5311 0.569175 36.7803L0.597135 36.7496Z" fill="#EFCF2D"/>
<path style="mix-blend-mode:multiply" opacity="0.65" fill-rule="evenodd" clip-rule="evenodd" d="M19.9638 11.1714L22.091 13.6994C23.527 12.8482 24.9937 12.0249 26.4274 11.2503C28.1188 10.2949 29.9175 9.54324 31.7858 9.01117L28.0805 4.61133L19.9638 11.1714V11.1714Z" fill="url(#paint11_radial_5835_319773)"/>
<path style="mix-blend-mode:multiply" fill-rule="evenodd" clip-rule="evenodd" d="M19.6454 45.4221C24.2539 49.1492 31.2425 49.6265 37.0419 42.5891L43.9659 34.7094L43.9587 32.4682L34.8685 42.9049C33.8279 44.026 32.5761 44.9305 31.185 45.5666C29.7939 46.2026 28.2909 46.5575 26.7622 46.6111C24.4676 46.6857 22.2058 46.0502 20.2859 44.7913L19.6504 45.4042L19.6454 45.4221Z" fill="url(#paint12_linear_5835_319773)"/>
<path fill-rule="evenodd" clip-rule="evenodd" d="M19.6448 45.4218L20.2803 44.809C19.3415 44.1961 18.4744 43.4798 17.6954 42.6735C16.8996 41.8672 16.2063 40.9657 15.6313 39.9895C16.4926 42.1081 17.8727 43.9762 19.6448 45.4218V45.4218Z" fill="#FFE353"/>
<path style="mix-blend-mode:multiply" fill-rule="evenodd" clip-rule="evenodd" d="M43.9671 32.5088L43.9615 34.7271L50.8196 26.9447L50.8095 24.6448L43.9671 32.5088Z" fill="url(#paint13_radial_5835_319773)"/>
</g>
<defs>
<linearGradient id="paint0_linear_5835_319773" x1="62.0278" y1="33.0878" x2="49.4329" y2="29.5488" gradientUnits="userSpaceOnUse">
<stop stop-color="#2F5078"/>
<stop offset="1" stop-color="#456A97"/>
</linearGradient>
<linearGradient id="paint1_linear_5835_319773" x1="37.9752" y1="8.83953" x2="26.4896" y2="5.61225" gradientUnits="userSpaceOnUse">
<stop stop-color="#2F5078"/>
<stop offset="1" stop-color="#456A97"/>
</linearGradient>
<radialGradient id="paint2_radial_5835_319773" cx="0" cy="0" r="1" gradientUnits="userSpaceOnUse" gradientTransform="translate(61.2335 30.972) rotate(-164.306) scale(67.4202 67.4202)">
<stop stop-color="#DCFBFF"/>
<stop offset="1" stop-color="#6084AB"/>
</radialGradient>
<linearGradient id="paint3_linear_5835_319773" x1="50.1496" y1="31.6596" x2="44.6393" y2="30.1113" gradientUnits="userSpaceOnUse">
<stop stop-color="#5C86B8"/>
<stop offset="1" stop-color="#2F5078"/>
</linearGradient>
<linearGradient id="paint4_linear_5835_319773" x1="27.5356" y1="6.56238" x2="20.5047" y2="4.5868" gradientUnits="userSpaceOnUse">
<stop stop-color="#5C86B8"/>
<stop offset="1" stop-color="#2F5078"/>
</linearGradient>
<radialGradient id="paint5_radial_5835_319773" cx="0" cy="0" r="1" gradientUnits="userSpaceOnUse" gradientTransform="translate(30.0112 37.7965) rotate(-164.306) scale(35.2339 35.2339)">
<stop stop-color="#5D00D4"/>
<stop offset="1" stop-color="#750FF7"/>
</radialGradient>
<linearGradient id="paint6_linear_5835_319773" x1="24.0502" y1="36.7579" x2="1.83025" y2="30.5144" gradientUnits="userSpaceOnUse">
<stop stop-color="#F6D83E"/>
<stop offset="1" stop-color="#FFED01"/>
</linearGradient>
<linearGradient id="paint7_linear_5835_319773" x1="45.4997" y1="36.0478" x2="19.6283" y2="51.1119" gradientUnits="userSpaceOnUse">
<stop stop-color="#430099"/>
<stop offset="1" stop-color="#4A00C2"/>
</linearGradient>
<radialGradient id="paint8_radial_5835_319773" cx="0" cy="0" r="1" gradientUnits="userSpaceOnUse" gradientTransform="translate(70.9201 39.9092) rotate(-164.306) scale(21.2779 21.2779)">
<stop stop-color="#F0FFFF"/>
<stop offset="0.11" stop-color="#ECFAFB"/>
<stop offset="0.24" stop-color="#DFEDEF"/>
<stop offset="0.37" stop-color="#C9D6DB"/>
<stop offset="0.51" stop-color="#ABB7BE"/>
<stop offset="0.65" stop-color="#848E9A"/>
<stop offset="0.79" stop-color="#545C6D"/>
<stop offset="0.93" stop-color="#1D233A"/>
<stop offset="1" stop-color="#00051F"/>
</radialGradient>
<radialGradient id="paint9_radial_5835_319773" cx="0" cy="0" r="1" gradientUnits="userSpaceOnUse" gradientTransform="translate(28.2571 93.4365) rotate(-164.306) scale(68.6095 68.6095)">
<stop stop-color="#7000FF"/>
<stop offset="1"/>
</radialGradient>
<radialGradient id="paint10_radial_5835_319773" cx="0" cy="0" r="1" gradientUnits="userSpaceOnUse" gradientTransform="translate(5.27434 62.1536) rotate(-164.306) scale(28.005 28.005)">
<stop stop-color="#D4C646"/>
<stop offset="1"/>
</radialGradient>
<radialGradient id="paint11_radial_5835_319773" cx="0" cy="0" r="1" gradientUnits="userSpaceOnUse" gradientTransform="translate(36.6357 25.8935) rotate(-164.306) scale(25.6635 25.6635)">
<stop offset="0.51" stop-color="#F0FFFF"/>
<stop offset="0.77" stop-color="#B4D1F0"/>
<stop offset="1" stop-color="#7BA4E1"/>
</radialGradient>
<linearGradient id="paint12_linear_5835_319773" x1="18.9805" y1="51.5666" x2="47.0858" y2="29.5828" gradientUnits="userSpaceOnUse">
<stop stop-color="#BEB561"/>
<stop offset="0.6" stop-color="#C3C7E6"/>
<stop offset="1" stop-color="white"/>
</linearGradient>
<radialGradient id="paint13_radial_5835_319773" cx="0" cy="0" r="1" gradientUnits="userSpaceOnUse" gradientTransform="translate(61.3855 45.742) rotate(-164.306) scale(26.5555 26.5555)">
<stop offset="0.51" stop-color="#F0FFFF"/>
<stop offset="0.77" stop-color="#B4D1F0"/>
<stop offset="1" stop-color="#7BA4E1"/>
</radialGradient>
<clipPath id="clip0_5835_319773">
<rect width="62" height="65" fill="white"/>
</clipPath>
</defs>
</svg>
