<svg width="37" height="25" viewBox="0 0 37 25" fill="none" xmlns="http://www.w3.org/2000/svg">
<rect width="37" height="25" fill="#6803B8"/>
<path d="M22.3084 8.34216C22.2512 8.334 22.1941 8.334 22.137 8.34216C20.8718 8.30135 19.8679 7.26475 19.8679 5.99144C19.8679 4.69365 20.9208 3.63257 22.2267 3.63257C23.5245 3.63257 24.5856 4.68549 24.5856 5.99144C24.5774 7.26475 23.5735 8.30135 22.3084 8.34216Z" fill="#DADADA"/>
<path d="M24.9692 13.9984C24.0551 14.6106 22.7736 14.8391 21.5901 14.684C21.9002 14.0147 22.0635 13.272 22.0716 12.4884C22.0716 11.6722 21.8921 10.8968 21.5493 10.2193C22.7573 10.0561 24.0387 10.2846 24.9611 10.8968C26.2507 11.7456 26.2507 13.1414 24.9692 13.9984Z" fill="#DADADA"/>
<path d="M13.2565 8.34216C13.3136 8.334 13.3707 8.334 13.4279 8.34216C14.693 8.30135 15.697 7.26475 15.697 5.99144C15.697 4.68549 14.644 3.63257 13.3381 3.63257C12.0403 3.63257 10.9874 4.68549 10.9874 5.99144C10.9874 7.26475 11.9913 8.30135 13.2565 8.34216Z" fill="#DADADA"/>
<path d="M13.3462 12.4883C13.3462 13.28 13.5176 14.031 13.8278 14.7084C12.6769 14.8309 11.4771 14.586 10.5956 14.0065C9.30595 13.1494 9.30595 11.7537 10.5956 10.8967C11.4689 10.309 12.7014 10.0723 13.8605 10.2029C13.5258 10.8885 13.3462 11.6639 13.3462 12.4883Z" fill="#DADADA"/>
<path d="M17.8926 14.9534C17.8273 14.9452 17.7538 14.9452 17.6804 14.9534C16.1785 14.9044 14.9787 13.6719 14.9787 12.1537C14.9869 10.6029 16.2357 9.34595 17.7947 9.34595C19.3455 9.34595 20.6025 10.6029 20.6025 12.1537C20.5943 13.6719 19.4026 14.9044 17.8926 14.9534Z" fill="white"/>
<path d="M15.2399 16.643C14.0074 17.4673 14.0074 18.8223 15.2399 19.6385C16.6438 20.5771 18.9455 20.5771 20.3494 19.6385C21.5819 18.8141 21.5819 17.4592 20.3494 16.643C18.9537 15.7043 16.6519 15.7043 15.2399 16.643Z" fill="white"/>
</svg>
