<svg width="1773" height="500" viewBox="0 0 1773 500" fill="none" xmlns="http://www.w3.org/2000/svg">
<g clip-path="url(#clip0_4401_137972)">
<path d="M550 -50H-50V550H550V-50Z" fill="white"/>
<path d="M550 -50H-50V550H550V-50Z" fill="#4839F4"/>
<path d="M550 -50H-50V550H550V-50Z" fill="white"/>
<path d="M550 -50H-50V550H550V-50Z" fill="#4839F4"/>
<path d="M98.5996 39.6816V460.541H401.068V39.6816H98.5996ZM182.834 376.369V241.697H283.548V157.525H216.459V208.197H182.834V123.854H317.006V376.369H182.834Z" fill="white"/>
<path d="M182.834 376.369V241.697H283.548V157.525H216.459V208.197H182.834V123.854H317.006V376.369H182.834Z" fill="#4839F4"/>
</g>
<path d="M677.972 390.611C662.346 390.611 648.36 386.596 636.015 378.565C623.669 370.533 613.914 358.875 606.748 343.59C599.583 328.305 596 309.738 596 287.889C596 265.782 599.626 247.129 606.878 231.93C614.216 216.644 624.101 205.116 636.533 197.344C648.964 189.485 662.82 185.556 678.101 185.556C689.756 185.556 699.339 187.542 706.849 191.514C714.36 195.401 720.317 200.107 724.72 205.634C729.123 211.074 732.533 216.213 734.95 221.049H736.893V121.824H783.9V387.114H737.799V355.766H734.95C732.533 360.602 729.037 365.74 724.461 371.181C719.885 376.535 713.842 381.112 706.331 384.912C698.821 388.712 689.367 390.611 677.972 390.611ZM691.051 352.139C700.979 352.139 709.439 349.462 716.432 344.108C723.425 338.667 728.734 331.111 732.36 321.439C735.986 311.767 737.799 300.497 737.799 287.63C737.799 274.763 735.986 263.58 732.36 254.08C728.821 244.581 723.555 237.198 716.562 231.93C709.655 226.662 701.152 224.028 691.051 224.028C680.605 224.028 671.885 226.748 664.892 232.189C657.9 237.629 652.633 245.142 649.094 254.728C645.554 264.314 643.784 275.281 643.784 287.63C643.784 300.066 645.554 311.163 649.094 320.921C652.72 330.593 658.029 338.236 665.022 343.849C672.101 349.376 680.777 352.139 691.051 352.139Z" fill="white"/>
<path d="M921.912 391C901.969 391 884.746 386.855 870.242 378.565C855.825 370.188 844.731 358.357 836.961 343.072C829.192 327.7 825.307 309.608 825.307 288.796C825.307 268.329 829.192 250.367 836.961 234.909C844.818 219.365 855.782 207.275 869.854 198.639C883.926 189.917 900.458 185.556 919.451 185.556C931.71 185.556 943.279 187.542 954.156 191.514C965.12 195.401 974.789 201.446 983.164 209.65C991.624 217.853 998.272 228.303 1003.11 240.997C1007.94 253.605 1010.36 268.632 1010.36 286.076V300.454H847.321V268.848H965.422C965.336 259.866 963.394 251.878 959.595 244.883C955.797 237.802 950.487 232.232 943.667 228.173C936.933 224.114 929.077 222.085 920.099 222.085C910.516 222.085 902.098 224.417 894.847 229.08C887.595 233.657 881.94 239.702 877.883 247.215C873.911 254.642 871.882 262.803 871.796 271.697V299.288C871.796 310.86 873.911 320.791 878.142 329.082C882.372 337.286 888.285 343.59 895.883 347.994C903.48 352.312 912.372 354.471 922.559 354.471C929.379 354.471 935.552 353.521 941.077 351.621C946.602 349.635 951.394 346.742 955.451 342.942C959.509 339.142 962.574 334.436 964.645 328.823L1008.42 333.745C1005.65 345.317 1000.39 355.421 992.617 364.057C984.933 372.606 975.092 379.255 963.092 384.005C951.091 388.668 937.365 391 921.912 391Z" fill="white"/>
<path d="M1150.77 188.147V224.417H1033.18V188.147H1150.77ZM1062.58 387.114V169.364C1062.58 155.978 1065.34 144.838 1070.87 135.943C1076.48 127.049 1083.99 120.399 1093.4 115.995C1102.81 111.591 1113.25 109.389 1124.74 109.389C1132.85 109.389 1140.06 110.036 1146.36 111.332C1152.66 112.627 1157.33 113.793 1160.35 114.829L1151.02 151.099C1149.04 150.495 1146.53 149.89 1143.51 149.286C1140.49 148.595 1137.12 148.249 1133.41 148.249C1124.69 148.249 1118.52 150.365 1114.89 154.597C1111.35 158.742 1109.59 164.7 1109.59 172.473V387.114H1062.58Z" fill="white"/>
<path d="M1187.48 387.114V188.147H1234.36V387.114H1187.48ZM1211.05 159.908C1203.62 159.908 1197.23 157.446 1191.88 152.524C1186.53 147.515 1183.85 141.514 1183.85 134.519C1183.85 127.437 1186.53 121.435 1191.88 116.513C1197.23 111.504 1203.62 109 1211.05 109C1218.56 109 1224.95 111.504 1230.21 116.513C1235.56 121.435 1238.24 127.437 1238.24 134.519C1238.24 141.514 1235.56 147.515 1230.21 152.524C1224.95 157.446 1218.56 159.908 1211.05 159.908Z" fill="white"/>
<path d="M1311.44 389.964C1303.58 389.964 1296.85 387.2 1291.24 381.673C1285.63 376.147 1282.86 369.411 1282.95 361.466C1282.86 353.694 1285.63 347.044 1291.24 341.517C1296.85 335.99 1303.58 333.227 1311.44 333.227C1319.04 333.227 1325.64 335.99 1331.25 341.517C1336.95 347.044 1339.84 353.694 1339.93 361.466C1339.84 366.734 1338.46 371.526 1335.78 375.844C1333.19 380.162 1329.74 383.616 1325.42 386.207C1321.19 388.712 1316.53 389.964 1311.44 389.964Z" fill="white"/>
<path d="M1566 188.147L1495.16 387.114H1443.36L1372.53 188.147H1422.51L1468.23 335.947H1470.3L1516.14 188.147H1566Z" fill="white"/>
<path d="M1645.31 270.531V387.114H1598.44V188.147H1643.24V221.955H1645.57C1650.15 210.815 1657.44 201.964 1667.46 195.401C1677.56 188.837 1690.03 185.556 1704.88 185.556C1718.61 185.556 1730.57 188.492 1740.75 194.364C1751.03 200.237 1758.97 208.743 1764.58 219.883C1770.28 231.023 1773.08 244.538 1773 260.428V387.114H1726.12V267.682C1726.12 254.383 1722.67 243.977 1715.76 236.463C1708.94 228.95 1699.49 225.194 1687.4 225.194C1679.2 225.194 1671.9 227.007 1665.52 230.634C1659.21 234.175 1654.25 239.313 1650.62 246.049C1647.08 252.785 1645.31 260.946 1645.31 270.531Z" fill="white"/>
<defs>
<clipPath id="clip0_4401_137972">
<rect width="500" height="500" fill="white"/>
</clipPath>
</defs>
</svg>
