<svg id="图层_1" data-name="图层 1" xmlns="http://www.w3.org/2000/svg" viewBox="0 0 600.73 320.29"><defs><style>.cls-1{fill:none;stroke:#000;stroke-width:10px;}</style></defs><title>OKX OKC black</title><path d="M641.87,189H470a4,4,0,0,0-4,4V364.87a4,4,0,0,0,4,4H641.87a4,4,0,0,0,4-4V193a4,4,0,0,0-4-4Zm-56,115.91a4,4,0,0,1-4,4H530a4,4,0,0,1-4-4V253a4,4,0,0,1,4-4h52a4,4,0,0,1,4,4Z" transform="translate(-466 -189)"/><path d="M1001.7,249h-52a4,4,0,0,0-4,4v52a4,4,0,0,0,4,4h52a4,4,0,0,0,4-4V253A4,4,0,0,0,1001.7,249Z" transform="translate(-466 -189)"/><path d="M941.72,189h-52a4,4,0,0,0-4,4v52a4,4,0,0,0,4,4h52a4,4,0,0,0,4-4V193A4,4,0,0,0,941.72,189Z" transform="translate(-466 -189)"/><path d="M1061.63,189h-52a4,4,0,0,0-4,4v52a4,4,0,0,0,4,4h52a4,4,0,0,0,4-4V193A4,4,0,0,0,1061.63,189Z" transform="translate(-466 -189)"/><path d="M941.72,308.91h-52a4,4,0,0,0-4,4v52a4,4,0,0,0,4,4h52a4,4,0,0,0,4-4v-52A4,4,0,0,0,941.72,308.91Z" transform="translate(-466 -189)"/><path d="M1061.63,308.91h-52a4,4,0,0,0-4,4v52a4,4,0,0,0,4,4h52a4,4,0,0,0,4-4v-52A4,4,0,0,0,1061.63,308.91Z" transform="translate(-466 -189)"/><path d="M851.71,189h-52a4,4,0,0,0-4,4v52a4,4,0,0,0,4,4h52a4,4,0,0,0,4-4V193A4,4,0,0,0,851.71,189Z" transform="translate(-466 -189)"/><path d="M851.71,308.91h-52a4,4,0,0,0-4,4v52a4,4,0,0,0,4,4h52a4,4,0,0,0,4-4v-52A4,4,0,0,0,851.71,308.91Z" transform="translate(-466 -189)"/><path d="M795.76,252.91a4,4,0,0,0-1.18-2.83,4,4,0,0,0-2.82-1.17h-56V193a4,4,0,0,0-4-4h-52a4,4,0,0,0-4,4V364.78a4,4,0,0,0,4,4h52a4,4,0,0,0,4-4V308.87h56a4,4,0,0,0,2.82-1.17,4,4,0,0,0,1.18-2.83Z" transform="translate(-466 -189)"/><path d="M795.51,466c0,25.39,16.73,43.29,40.25,43.29S876,491.39,876,466s-16.62-43.29-40.25-43.29S795.51,440.61,795.51,466Zm61,0c0,16.14-8.54,26.32-20.71,26.32S815.17,482.14,815.17,466s8.42-26.33,20.59-26.33S856.47,449.85,856.47,466Zm66.73-42H903.66v84H923.2V485.3l9.36-10.88L955.14,508h22.7l-32.3-48.67L975.85,424h-22.7L923.2,460.38Zm88.31,42c0-16,8.31-26.33,20-26.33,8.65,0,14.86,5.5,16.84,14.39l18.37-6.08c-5.14-15.33-17.08-25.27-35.1-25.27-23.05,0-39.66,17.9-39.66,43.29s16.61,43.29,39.66,43.29c18,0,30-10,35.1-25.27l-18.37-6.09c-2,8.89-8.19,14.39-16.84,14.39C1019.82,492.32,1011.51,482,1011.51,466Z" transform="translate(-466 -189)"/><path class="cls-1" d="M466,469H766" transform="translate(-466 -189)"/></svg>