<?xml version="1.0" encoding="utf-8"?>
<!-- Generator: Adobe Illustrator 26.0.2, SVG Export Plug-In . SVG Version: 6.00 Build 0)  -->
<svg version="1.1" id="图层_1" xmlns="http://www.w3.org/2000/svg" xmlns:xlink="http://www.w3.org/1999/xlink" x="0px" y="0px"
	 viewBox="0 0 1532 702" style="enable-background:new 0 0 1532 702;" xml:space="preserve">
<style type="text/css">
	.st0{fill:#FFFFFF;}
	.st1{fill:none;stroke:#FFFFFF;stroke-width:10;}
</style>
<path class="st0" d="M641.9,189H470c-1.1,0-2.1,0.4-2.8,1.2c-0.8,0.7-1.2,1.8-1.2,2.8v171.9c0,1.1,0.4,2.1,1.2,2.8
	c0.8,0.8,1.8,1.2,2.8,1.2h171.9c1.1,0,2.1-0.4,2.8-1.2c0.7-0.7,1.2-1.8,1.2-2.8V193c0-1.1-0.4-2.1-1.2-2.8
	C643.9,189.4,642.9,189,641.9,189z M585.9,304.9c0,1.1-0.4,2.1-1.2,2.8c-0.7,0.8-1.8,1.2-2.8,1.2h-52c-1.1,0-2.1-0.4-2.8-1.2
	c-0.7-0.8-1.2-1.8-1.2-2.8v-52c0-1.1,0.4-2.1,1.2-2.8c0.8-0.7,1.8-1.2,2.8-1.2h52c1.1,0,2.1,0.4,2.8,1.2c0.8,0.8,1.2,1.8,1.2,2.8
	V304.9z"/>
<path class="st0" d="M1001.7,249h-52c-2.2,0-4,1.8-4,4v52c0,2.2,1.8,4,4,4h52c2.2,0,4-1.8,4-4v-52
	C1005.7,250.8,1003.9,249,1001.7,249z"/>
<path class="st0" d="M941.7,189h-52c-2.2,0-4,1.8-4,4v52c0,2.2,1.8,4,4,4h52c2.2,0,4-1.8,4-4v-52C945.7,190.8,943.9,189,941.7,189z"
	/>
<path class="st0" d="M1061.6,189h-52c-2.2,0-4,1.8-4,4v52c0,2.2,1.8,4,4,4h52c2.2,0,4-1.8,4-4v-52
	C1065.6,190.8,1063.8,189,1061.6,189z"/>
<path class="st0" d="M941.7,308.9h-52c-2.2,0-4,1.8-4,4v52c0,2.2,1.8,4,4,4h52c2.2,0,4-1.8,4-4v-52
	C945.7,310.7,943.9,308.9,941.7,308.9z"/>
<path class="st0" d="M1061.6,308.9h-52c-2.2,0-4,1.8-4,4v52c0,2.2,1.8,4,4,4h52c2.2,0,4-1.8,4-4v-52
	C1065.6,310.7,1063.8,308.9,1061.6,308.9z"/>
<path class="st0" d="M851.7,189h-52c-2.2,0-4,1.8-4,4v52c0,2.2,1.8,4,4,4h52c2.2,0,4-1.8,4-4v-52C855.7,190.8,853.9,189,851.7,189z"
	/>
<path class="st0" d="M851.7,308.9h-52c-2.2,0-4,1.8-4,4v52c0,2.2,1.8,4,4,4h52c2.2,0,4-1.8,4-4v-52
	C855.7,310.7,853.9,308.9,851.7,308.9z"/>
<path class="st0" d="M795.8,252.9c0-1.1-0.4-2.1-1.2-2.8c-0.7-0.7-1.8-1.2-2.8-1.2h-56V193c0-1.1-0.4-2.1-1.2-2.8
	c-0.7-0.8-1.8-1.2-2.8-1.2h-52c-1.1,0-2.1,0.4-2.8,1.2c-0.7,0.7-1.2,1.8-1.2,2.8v171.8c0,1.1,0.4,2.1,1.2,2.8
	c0.8,0.7,1.8,1.2,2.8,1.2h52c1.1,0,2.1-0.4,2.8-1.2c0.8-0.8,1.2-1.8,1.2-2.8v-55.9h56c1.1,0,2.1-0.4,2.8-1.2
	c0.8-0.7,1.2-1.8,1.2-2.8V252.9z"/>
<path class="st0" d="M795.5,466c0,25.4,16.7,43.3,40.2,43.3c23.6,0,40.2-17.9,40.2-43.3c0-25.4-16.6-43.3-40.2-43.3
	C812.2,422.7,795.5,440.6,795.5,466z M856.5,466c0,16.1-8.5,26.3-20.7,26.3c-12.2,0-20.6-10.2-20.6-26.3s8.4-26.3,20.6-26.3
	C847.9,439.7,856.5,449.9,856.5,466z M923.2,424h-19.5v84h19.5v-22.7l9.4-10.9l22.6,33.6h22.7l-32.3-48.7l30.3-35.3h-22.7l-30,36.4
	V424z M1011.5,466c0-16,8.3-26.3,20-26.3c8.7,0,14.9,5.5,16.8,14.4l18.4-6.1c-5.1-15.3-17.1-25.3-35.1-25.3
	c-23,0-39.7,17.9-39.7,43.3c0,25.4,16.6,43.3,39.7,43.3c18,0,30-9.9,35.1-25.3l-18.4-6.1c-2,8.9-8.2,14.4-16.8,14.4
	C1019.8,492.3,1011.5,482,1011.5,466z"/>
<path class="st1" d="M466,469h300"/>
</svg>
