<svg viewBox="0 0 86 21" fill="none" xmlns="http://www.w3.org/2000/svg" width="86px" height="21px"><path d="M29.128 16.989c0-.305-.048-.576-.144-.813a1.586 1.586 0 0 0-.48-.65c-.232-.196-.56-.385-.982-.568-.416-.19-.948-.383-1.595-.579a17.77 17.77 0 0 1-1.964-.72 7.485 7.485 0 0 1-1.554-.935 4.003 4.003 0 0 1-1.033-1.229c-.246-.467-.368-1.005-.368-1.614 0-.603.126-1.151.378-1.646.26-.494.624-.92 1.094-1.279a5.249 5.249 0 0 1 1.688-.843 7.153 7.153 0 0 1 2.147-.304c1.105 0 2.056.203 2.854.609.804.406 1.421.951 1.85 1.635.437.683.655 1.438.655 2.264h-2.546c0-.487-.106-.917-.317-1.29a2.142 2.142 0 0 0-.941-.893c-.416-.217-.945-.325-1.585-.325-.607 0-1.112.091-1.514.274-.402.183-.702.43-.9.741a1.929 1.929 0 0 0-.296 1.057c0 .277.064.531.194.761.13.224.327.433.593.63.266.19.6.369 1.002.538.402.17.876.332 1.422.487.825.244 1.544.515 2.157.813.614.29 1.125.623 1.534.995.41.372.716.795.92 1.27.205.466.308.998.308 1.594 0 .622-.127 1.184-.379 1.685a3.645 3.645 0 0 1-1.084 1.27c-.463.345-1.022.612-1.677.802-.648.183-1.37.274-2.168.274a8.017 8.017 0 0 1-2.117-.284 6.264 6.264 0 0 1-1.882-.864 4.471 4.471 0 0 1-1.35-1.462c-.333-.589-.5-1.276-.5-2.061h2.566c0 .48.082.89.246 1.229.17.338.405.616.705.832.3.21.648.366 1.043.467.403.102.832.153 1.29.153.599 0 1.1-.085 1.502-.254.41-.17.716-.406.92-.711a1.85 1.85 0 0 0 .308-1.056ZM36.737 6.012v14.785H34.17V6.012h2.567ZM49.275 18.776v2.02h-7.476v-2.02h7.476Zm-6.76-12.764v14.785h-2.567V6.012h2.567ZM54.46 18.096l3.917-12.084h2.833L55.87 20.797H53.96l.501-2.701ZM50.84 6.012l3.886 12.084.532 2.7h-1.923L48.017 6.013h2.823ZM72.644 18.776v2.02h-7.906v-2.02h7.906Zm-7.18-12.764v14.785h-2.566V6.012h2.566Zm6.147 6.174v1.99h-6.873v-1.99h6.873Zm.981-6.174v2.03H64.74v-2.03h7.853ZM74.761 6.012h5.267c1.131 0 2.096.169 2.894.507.797.339 1.408.84 1.83 1.503.43.657.645 1.47.645 2.437 0 .738-.137 1.388-.41 1.95a3.971 3.971 0 0 1-1.155 1.422c-.498.379-1.09.673-1.78.883l-.777.376H76.54l-.02-2.02h3.549c.613 0 1.124-.11 1.534-.326.409-.216.715-.51.92-.883.211-.38.317-.806.317-1.28 0-.514-.102-.961-.307-1.34a1.97 1.97 0 0 0-.92-.884c-.416-.21-.945-.314-1.585-.314h-2.7v12.754H74.76V6.012Zm8.498 14.785-3.497-6.641 2.69-.01L86 20.665v.132h-2.74Z" fill="#6639F8"></path><path fill-rule="evenodd" clip-rule="evenodd" d="M20.944 0h-5.29l-5.248 5.34L5.247.035 0 0l10.45 10.784L20.944 0Z" fill="#6639F8"></path><path fill-rule="evenodd" clip-rule="evenodd" d="M20.944 20.797h-5.29l-5.248-5.34-5.159 5.305L0 20.797l10.45-10.784 10.494 10.784Z" fill="#6639F8"></path></svg>