<svg width="20" height="20" viewBox="0 0 20 20" fill="none" xmlns="http://www.w3.org/2000/svg">
<g clip-path="url(#clip0_4545_138057)">
<path d="M18.342 9.93468C18.342 13.0911 16.5871 15.8382 13.9979 17.2518C13.6993 17.4152 13.3872 17.5612 13.0639 17.689C12.1115 18.0678 11.0672 18.2652 10.0089 18.2662C8.67433 18.2619 7.36812 17.9491 6.23979 17.3636L6.19635 17.3421C3.64801 16.0302 1.86693 13.4406 1.69316 10.4217C1.69316 10.3986 1.69316 10.3755 1.68933 10.3524C1.68209 10.2124 1.67847 10.0725 1.67847 9.93258C1.67847 6.76045 3.45061 4.00288 6.06028 2.59497C6.08583 2.5808 6.11075 2.56715 6.13694 2.55456C7.21579 1.96931 8.47038 1.64003 9.76249 1.603C11.0546 1.56596 12.3341 1.8226 13.46 2.34466C15.7144 3.37055 17.4304 5.37196 18.0698 7.80891C18.0807 7.84616 18.0903 7.88395 18.0992 7.92226C18.2625 8.58463 18.3439 9.25886 18.342 9.93468V9.93468Z" fill="url(#paint0_radial_4545_138057)"/>
<path d="M6.13474 2.55554C7.21359 1.97029 8.46818 1.64101 9.76029 1.60397C11.0524 1.56694 12.3319 1.82359 13.4578 2.34564L12.313 5.24227L7.7772 5.21342L6.05872 2.597L6.13474 2.55554Z" fill="url(#paint1_linear_4545_138057)"/>
<path d="M18.0695 7.81203C17.4307 5.37508 15.7141 3.37367 13.4596 2.34778L12.3148 5.24441L14.5457 9.96299L18.0989 7.92537L18.0695 7.81203Z" fill="url(#paint2_linear_4545_138057)"/>
<path d="M7.70297 14.6244L5.47278 9.90578L7.77708 5.21606L12.3122 5.24493L14.5424 9.96351L12.2381 14.6527L7.70297 14.6244Z" fill="url(#paint3_linear_4545_138057)"/>
<path d="M18.0684 7.81189L14.5446 9.96338L12.2396 14.6531L13.0644 17.6893C13.3877 17.5616 13.6997 17.4155 13.9984 17.2522C16.5869 15.8385 18.3425 13.0914 18.3425 9.93504C18.3437 9.26024 18.2619 8.58706 18.0984 7.92576L18.0684 7.81189Z" fill="url(#paint4_linear_4545_138057)"/>
<path style="mix-blend-mode:multiply" d="M18.3418 9.93469C18.3418 11.5089 17.9068 12.9783 17.1472 14.2377C16.3876 15.4971 15.2946 16.5466 13.9984 17.2534C13.6997 17.4167 13.3877 17.5628 13.0644 17.6905L12.2396 14.6543L14.5446 9.9646L18.0684 7.81311L18.0978 7.92646C18.2612 8.58742 18.343 9.26024 18.3418 9.93469Z" fill="url(#paint5_linear_4545_138057)"/>
<path d="M13.9966 17.2518C13.698 17.4151 13.3859 17.5612 13.0626 17.6889C12.1102 18.0678 11.0659 18.2651 10.0077 18.2661C8.67305 18.2619 7.36684 17.9491 6.23851 17.3636L6.19507 17.342L7.70337 14.6249L12.2391 14.6537L13.9966 17.2518Z" fill="url(#paint6_linear_4545_138057)"/>
<path d="M6.13486 2.55554L7.77795 5.21447L5.4743 9.9047L1.68725 10.4295C1.68022 10.2909 1.67639 10.0768 1.67639 9.93619C1.67639 6.76406 3.44853 4.00648 6.0582 2.59857L6.13486 2.55554Z" fill="url(#paint7_linear_4545_138057)"/>
<path d="M7.70456 14.6249L6.23523 17.3657L6.19179 17.3442C3.64345 16.0323 1.86236 13.4426 1.6886 10.4237L5.47181 9.90686L7.70456 14.6249Z" fill="url(#paint8_linear_4545_138057)"/>
<path style="mix-blend-mode:screen" d="M6.13474 2.55554C7.21359 1.97029 8.46818 1.64101 9.76029 1.60397C11.0524 1.56694 12.3319 1.82359 13.4578 2.34564L12.313 5.24227L7.7772 5.21342L6.05872 2.597L6.13474 2.55554Z" fill="url(#paint9_linear_4545_138057)"/>
<path style="mix-blend-mode:screen" opacity="0.5" d="M14.5424 9.96298L13.9649 11.1395L13.3427 12.4047L12.2375 14.6532L7.70361 14.6238L5.47278 9.90578L6.7083 7.39117L7.48257 5.81481L7.77708 5.21606L12.3116 5.24493L14.5424 9.96298Z" fill="url(#paint10_linear_4545_138057)"/>
<path style="mix-blend-mode:screen" opacity="0.5" d="M6.13486 2.55554L7.77795 5.21447L5.4743 9.9047L1.68725 10.4295C1.68022 10.2909 1.67639 10.0768 1.67639 9.93619C1.67639 6.76406 3.44853 4.00648 6.0582 2.59857L6.13486 2.55554Z" fill="url(#paint11_linear_4545_138057)"/>
<path style="mix-blend-mode:screen" d="M14.3277 10.5445L13.7054 11.8097L6.98035 6.79621L7.75462 5.21985L14.3277 10.5445Z" fill="url(#paint12_linear_4545_138057)"/>
<path style="mix-blend-mode:screen" d="M12.9695 13.2222L12.3473 14.4879L5.71289 9.47446L6.48717 7.89758L12.9695 13.2222Z" fill="url(#paint13_linear_4545_138057)"/>
<path style="mix-blend-mode:screen" opacity="0.62" d="M2.34375 10.2533L5.09971 9.43522L7.27304 5.26868L6.05925 2.59717L7.99749 4.74813L12.3141 5.24507L7.75664 5.21988L5.46193 9.95577L2.34375 10.2533Z" fill="url(#paint14_linear_4545_138057)"/>
<path style="mix-blend-mode:screen" opacity="0.62" d="M13.3409 2.66467L12.0728 5.19398L13.6283 8.04968L12.435 5.19398L13.3409 2.66467Z" fill="url(#paint15_linear_4545_138057)"/>
<path style="mix-blend-mode:screen" d="M8.06519 8.21079C9.99583 8.21079 11.5609 6.90476 11.5609 5.29369C11.5609 3.68262 9.99583 2.37659 8.06519 2.37659C6.13455 2.37659 4.56946 3.68262 4.56946 5.29369C4.56946 6.90476 6.13455 8.21079 8.06519 8.21079Z" fill="url(#paint16_radial_4545_138057)"/>
</g>
<defs>
<radialGradient id="paint0_radial_4545_138057" cx="0" cy="0" r="1" gradientUnits="userSpaceOnUse" gradientTransform="translate(10.7287 9.5562) scale(14.763 12.1265)">
<stop offset="0.01" stop-color="#F05A3C"/>
<stop offset="0.19" stop-color="#F0573A"/>
<stop offset="0.33" stop-color="#EE4D33"/>
<stop offset="0.45" stop-color="#EC3D28"/>
<stop offset="0.57" stop-color="#E82519"/>
<stop offset="0.69" stop-color="#E40805"/>
<stop offset="0.7" stop-color="#E30302"/>
<stop offset="0.99" stop-color="#AD0808"/>
</radialGradient>
<linearGradient id="paint1_linear_4545_138057" x1="11.0691" y1="4.17755" x2="2.49658" y2="-6.97527" gradientUnits="userSpaceOnUse">
<stop stop-color="#EFE353"/>
<stop offset="1" stop-color="#4CA137"/>
</linearGradient>
<linearGradient id="paint2_linear_4545_138057" x1="10.3574" y1="7.74328" x2="17.2161" y2="3.31341" gradientUnits="userSpaceOnUse">
<stop stop-color="#EFE353"/>
<stop offset="1" stop-color="#4CA137"/>
</linearGradient>
<linearGradient id="paint3_linear_4545_138057" x1="13.1114" y1="14.1106" x2="7.15555" y2="2.23446" gradientUnits="userSpaceOnUse">
<stop stop-color="#EFE353"/>
<stop offset="1" stop-color="#4CA137"/>
</linearGradient>
<linearGradient id="paint4_linear_4545_138057" x1="5.24113" y1="5.88867" x2="14.6015" y2="15.1092" gradientUnits="userSpaceOnUse">
<stop stop-color="#EFE353"/>
<stop offset="1" stop-color="#4CA137"/>
</linearGradient>
<linearGradient id="paint5_linear_4545_138057" x1="12.8708" y1="11.3169" x2="22.2092" y2="18.677" gradientUnits="userSpaceOnUse">
<stop stop-color="#EFE353"/>
<stop offset="1" stop-color="#4CA137"/>
</linearGradient>
<linearGradient id="paint6_linear_4545_138057" x1="9.9144" y1="13.3838" x2="10.0705" y2="18.4007" gradientUnits="userSpaceOnUse">
<stop stop-color="#EFE353"/>
<stop offset="1" stop-color="#4CA137"/>
</linearGradient>
<linearGradient id="paint7_linear_4545_138057" x1="6.97493" y1="7.7443" x2="-1.17191" y2="2.81082" gradientUnits="userSpaceOnUse">
<stop stop-color="#EFE353"/>
<stop offset="1" stop-color="#4CA137"/>
</linearGradient>
<linearGradient id="paint8_linear_4545_138057" x1="3.76547" y1="6.81869" x2="4.76971" y2="16.1392" gradientUnits="userSpaceOnUse">
<stop stop-color="#EFE353"/>
<stop offset="1" stop-color="#4CA137"/>
</linearGradient>
<linearGradient id="paint9_linear_4545_138057" x1="11.0691" y1="4.17755" x2="2.49658" y2="-6.97527" gradientUnits="userSpaceOnUse">
<stop stop-color="#EFE353"/>
<stop offset="1" stop-color="#4CA137"/>
</linearGradient>
<linearGradient id="paint10_linear_4545_138057" x1="13.1114" y1="14.1101" x2="7.15555" y2="2.23393" gradientUnits="userSpaceOnUse">
<stop stop-color="#EFE353"/>
<stop offset="1" stop-color="#4CA137"/>
</linearGradient>
<linearGradient id="paint11_linear_4545_138057" x1="-0.419643" y1="3.72522" x2="1.9287" y2="5.94903" gradientUnits="userSpaceOnUse">
<stop stop-color="#EFE353"/>
<stop offset="1" stop-color="#4CA137"/>
</linearGradient>
<linearGradient id="paint12_linear_4545_138057" x1="2.83746" y1="3.00382" x2="12.1361" y2="12.6266" gradientUnits="userSpaceOnUse">
<stop stop-color="white"/>
<stop offset="1"/>
</linearGradient>
<linearGradient id="paint13_linear_4545_138057" x1="1.58087" y1="5.72143" x2="10.8137" y2="15.2757" gradientUnits="userSpaceOnUse">
<stop stop-color="white"/>
<stop offset="1"/>
</linearGradient>
<linearGradient id="paint14_linear_4545_138057" x1="6.11546" y1="7.01559" x2="8.01381" y2="8.7168" gradientUnits="userSpaceOnUse">
<stop stop-color="white"/>
<stop offset="1"/>
</linearGradient>
<linearGradient id="paint15_linear_4545_138057" x1="13.3696" y1="5.28791" x2="14.495" y2="6.29618" gradientUnits="userSpaceOnUse">
<stop stop-color="white"/>
<stop offset="1"/>
</linearGradient>
<radialGradient id="paint16_radial_4545_138057" cx="0" cy="0" r="1" gradientUnits="userSpaceOnUse" gradientTransform="translate(7.64857 4.79054) scale(2.95448 2.42686)">
<stop stop-color="white"/>
<stop offset="0.15" stop-color="#CCCCCC"/>
<stop offset="0.39" stop-color="#848484"/>
<stop offset="0.6" stop-color="#4B4B4B"/>
<stop offset="0.77" stop-color="#222222"/>
<stop offset="0.92" stop-color="#090909"/>
<stop offset="1"/>
</radialGradient>
<clipPath id="clip0_4545_138057">
<rect width="16.6667" height="16.6667" fill="white" transform="translate(1.67639 1.59949)"/>
</clipPath>
</defs>
</svg>
