<?xml version="1.0" standalone="no"?>
<!DOCTYPE svg PUBLIC "-//W3C//DTD SVG 20010904//EN"
 "http://www.w3.org/TR/2001/REC-SVG-20010904/DTD/svg10.dtd">
<svg version="1.0" xmlns="http://www.w3.org/2000/svg"
 width="200.000000pt" height="200.000000pt" viewBox="0 0 200.000000 200.000000"
 preserveAspectRatio="xMidYMid meet">

<g transform="translate(0.000000,200.000000) scale(0.100000,-0.100000)"
fill="#000000" stroke="none">
<path d="M211 1786 c-8 -9 -11 -85 -9 -262 l3 -249 260 0 260 0 0 260 0 260
-251 3 c-205 2 -253 0 -263 -12z"/>
<path d="M1275 1787 c-3 -7 -4 -125 -3 -262 l3 -250 260 0 260 0 3 249 c2 175
-1 253 -9 262 -16 20 -507 21 -514 1z"/>
<path d="M746 1254 c-24 -23 -24 -485 0 -508 23 -24 485 -24 508 0 24 23 24
485 0 508 -23 24 -485 24 -508 0z"/>
<path d="M207 723 c-4 -3 -7 -118 -7 -253 0 -198 3 -250 14 -259 9 -8 87 -11
262 -9 l249 3 0 260 0 260 -256 3 c-140 1 -258 -1 -262 -5z"/>
<path d="M1275 717 c-3 -7 -4 -125 -3 -262 l3 -250 251 -3 c205 -2 253 0 263
12 8 9 11 85 9 262 l-3 249 -258 3 c-202 2 -259 0 -262 -11z"/>
</g>
</svg>
