<svg width="45" height="47" viewBox="0 0 45 47" fill="none" xmlns="http://www.w3.org/2000/svg">
<path d="M35.0041 13.0012C34.8463 12.9787 34.6886 12.9787 34.5309 13.0012C31.0384 12.8885 28.2669 10.0269 28.2669 6.51186C28.2669 2.92921 31.1736 0 34.7787 0C38.3614 0 41.2906 2.90668 41.2906 6.51186C41.2681 10.0269 38.4966 12.8885 35.0041 13.0012Z" fill="#CACACA"/>
<path d="M42.3496 28.6156C39.826 30.3056 36.2884 30.9365 33.0212 30.5084C33.8774 28.6607 34.3281 26.6103 34.3506 24.4472C34.3506 22.1939 33.8549 20.0533 32.9085 18.1831C36.2433 17.7325 39.7809 18.3634 42.3271 20.0533C45.8872 22.3967 45.8872 26.2497 42.3496 28.6156Z" fill="#CACACA"/>
<path d="M10.0153 13.0012C10.173 12.9787 10.3308 12.9787 10.4885 13.0012C13.981 12.8885 16.7525 10.0269 16.7525 6.51186C16.7525 2.90668 13.8458 0 10.2406 0C6.65798 0 3.7513 2.90668 3.7513 6.51186C3.7513 10.0269 6.52279 12.8885 10.0153 13.0012Z" fill="#CACACA"/>
<path d="M10.2635 24.4468C10.2635 26.6325 10.7367 28.7055 11.5929 30.5757C8.41585 30.9136 5.10359 30.2377 2.67009 28.6379C-0.89003 26.272 -0.89003 22.4189 2.67009 20.053C5.08106 18.4307 8.48345 17.7773 11.683 18.1378C10.7592 20.0305 10.2635 22.1711 10.2635 24.4468Z" fill="#CACACA"/>
<path d="M22.8141 31.252C22.6339 31.2294 22.4311 31.2294 22.2283 31.252C18.0823 31.1168 14.7701 27.7144 14.7701 23.5234C14.7926 19.2422 18.2401 15.7722 22.5437 15.7722C26.8249 15.7722 30.2949 19.2422 30.2949 23.5234C30.2724 27.7144 26.9826 31.1168 22.8141 31.252Z" fill="white"/>
<path d="M15.4906 35.9162C12.0883 38.192 12.0883 41.9323 15.4906 44.1856C19.3662 46.7768 25.7204 46.7768 29.5959 44.1856C32.9983 41.9098 32.9983 38.1694 29.5959 35.9162C25.7429 33.325 19.3888 33.325 15.4906 35.9162Z" fill="white"/>
</svg>
