<svg width="42" height="32" viewBox="0 0 42 32" fill="none" xmlns="http://www.w3.org/2000/svg">
<path d="M35.2703 2.70262C35.2588 2.68 35.2396 2.66228 35.2163 2.65262C32.5191 1.40323 29.6728 0.512324 26.7487 0.00218527C26.7221 -0.00280124 26.6947 0.000796087 26.6702 0.0124656C26.6458 0.0241352 26.6256 0.0432828 26.6126 0.0671854C26.225 0.777394 25.8732 1.5069 25.5585 2.25291C22.4064 1.76982 19.2001 1.76982 16.048 2.25291C15.7312 1.505 15.3737 0.775318 14.9772 0.0671854C14.9636 0.0438023 14.9434 0.0250956 14.9191 0.0135019C14.8948 0.00190813 14.8677 -0.00203534 14.8411 0.00218527C11.9166 0.511253 9.07018 1.40223 6.37337 2.65269C6.35029 2.66257 6.33081 2.67945 6.31762 2.70098C0.924532 10.8323 -0.552839 18.7637 0.171909 26.5968C0.173948 26.616 0.17979 26.6346 0.189088 26.6515C0.198386 26.6684 0.210949 26.6832 0.226032 26.695C3.36638 29.0426 6.8789 30.8345 10.6137 31.9943C10.64 32.0022 10.6681 32.0019 10.6942 31.9933C10.7203 31.9846 10.7431 31.9681 10.7596 31.946C11.5618 30.844 12.2726 29.6772 12.8847 28.4573C12.8931 28.4405 12.8979 28.4222 12.8988 28.4034C12.8997 28.3847 12.8966 28.366 12.8898 28.3485C12.883 28.331 12.8726 28.3152 12.8593 28.3021C12.846 28.289 12.8301 28.2789 12.8126 28.2724C11.6918 27.8394 10.6067 27.3175 9.56753 26.7115C9.54865 26.7003 9.5328 26.6845 9.52137 26.6657C9.50994 26.6468 9.50328 26.6254 9.50199 26.6034C9.50069 26.5813 9.5048 26.5592 9.51395 26.5392C9.5231 26.5191 9.537 26.5016 9.55444 26.4882C9.77249 26.3233 9.99068 26.1517 10.1989 25.9784C10.2174 25.963 10.2398 25.9532 10.2635 25.9499C10.2873 25.9467 10.3114 25.9502 10.3333 25.9601C17.1414 29.0971 24.512 29.0971 31.2395 25.9601C31.2614 25.9496 31.2859 25.9456 31.31 25.9485C31.3341 25.9515 31.3568 25.9613 31.3756 25.9768C31.5839 26.15 31.802 26.3233 32.0217 26.4882C32.0392 26.5014 32.0533 26.5188 32.0626 26.5388C32.0718 26.5588 32.0761 26.5808 32.075 26.6029C32.0738 26.625 32.0673 26.6464 32.0561 26.6654C32.0448 26.6843 32.029 26.7001 32.0102 26.7115C30.9734 27.3226 29.8874 27.8442 28.7636 28.2708C28.7461 28.2775 28.7303 28.2878 28.7171 28.3011C28.7039 28.3145 28.6936 28.3304 28.6869 28.348C28.6802 28.3656 28.6773 28.3845 28.6783 28.4033C28.6793 28.4221 28.6843 28.4405 28.6928 28.4573C29.3152 29.6704 30.025 30.8358 30.8163 31.9441C30.8323 31.9668 30.8551 31.9839 30.8813 31.9928C30.9075 32.0018 30.9358 32.0022 30.9622 31.9941C34.7037 30.8382 38.2224 29.0461 41.3667 26.695C41.382 26.6838 41.3947 26.6693 41.4041 26.6527C41.4134 26.636 41.4191 26.6175 41.4208 26.5985C42.2885 17.5425 39.9682 9.67614 35.2703 2.70262ZM13.9014 21.8272C11.8517 21.8272 10.1628 19.9282 10.1628 17.5959C10.1628 15.2636 11.819 13.3644 13.9014 13.3644C16.0002 13.3644 17.6728 15.2801 17.64 17.5957C17.64 19.9282 15.9838 21.8272 13.9014 21.8272ZM27.7243 21.8272C25.6746 21.8272 23.9857 19.9282 23.9857 17.5959C23.9857 15.2636 25.6419 13.3644 27.7243 13.3644C29.8232 13.3644 31.4957 15.2801 31.4629 17.5957C31.4629 19.9282 29.8232 21.8272 27.7243 21.8272Z" fill="white"/>
</svg>
