<svg width="68" height="68" viewBox="0 0 68 68" fill="none" xmlns="http://www.w3.org/2000/svg">
<g filter="url(#filter0_b_299_8335)">
<path d="M34 67.3222C15.5459 67.3222 0.5 52.3619 0.5 33.9111C0.5 15.4604 15.5459 0.5 34 0.5C52.4542 0.5 67.5 15.4604 67.5 33.9111C67.5 52.3619 52.4542 67.3222 34 67.3222Z" stroke="url(#paint0_radial_299_8335)"/>
</g>
<path d="M42.4555 16.3799C42.4555 15.7487 42.1503 15.1434 41.607 14.6971C41.0637 14.2507 40.3269 14 39.5586 14H18V43.3466L19.7381 42.3946L21.4763 43.3466L23.2144 42.3946L24.9525 43.3466L26.6906 42.3946L28.4288 43.3466L30.1669 42.3946L31.905 43.3466L33.6432 42.3946L35.3813 43.3466L37.1194 42.3946L38.8575 43.3466L40.5957 42.3946L42.3338 43.3466L42.4555 16.3799Z" fill="#07E0E0"/>
<path d="M51.5259 37.0756L37.7332 30.5018C37.5252 30.4036 37.2974 30.3546 37.0674 30.3585C36.8374 30.3624 36.6114 30.4192 36.4069 30.5243C36.2023 30.6295 36.0247 30.7803 35.8877 30.9651C35.7507 31.1498 35.658 31.3636 35.6168 31.5899L32.9284 46.6232C32.879 46.8981 32.9075 47.1813 33.0108 47.4408C33.1141 47.7003 33.2879 47.9257 33.5126 48.0915C33.7373 48.2574 34.004 48.357 34.2824 48.3791C34.5608 48.4013 34.8399 48.3451 35.088 48.2168L38.6017 46.4103L42.9123 54.7944C43.0278 55.0203 43.1868 55.2212 43.3801 55.3856C43.5734 55.55 43.7972 55.6747 44.0387 55.7525C44.2802 55.8303 44.5348 55.8597 44.7877 55.839C45.0406 55.8183 45.2869 55.7479 45.5126 55.6319L51.5245 52.541C51.7502 52.4249 51.9508 52.2655 52.1148 52.0719C52.2788 51.8782 52.403 51.6541 52.4802 51.4124C52.5575 51.1707 52.5863 50.9162 52.5651 50.6633C52.5439 50.4104 52.473 50.1642 52.3564 49.9388L48.0459 41.5547L51.5597 39.7482C51.8056 39.6204 52.0113 39.4269 52.1536 39.1891C52.296 38.9513 52.3696 38.6786 52.3661 38.4015C52.3626 38.1244 52.2822 37.8537 52.1338 37.6196C51.9855 37.3854 51.775 37.1971 51.5259 37.0756V37.0756Z" fill="url(#paint1_linear_299_8335)"/>
<path opacity="0.3" d="M51.5259 37.0756L37.7332 30.5018C37.5252 30.4036 37.2974 30.3546 37.0674 30.3585C36.8374 30.3624 36.6114 30.4192 36.4069 30.5243C36.2023 30.6295 36.0247 30.7803 35.8877 30.9651C35.7507 31.1498 35.658 31.3636 35.6168 31.5899L32.9284 46.6232C32.879 46.8981 32.9075 47.1813 33.0108 47.4408C33.1141 47.7003 33.2879 47.9257 33.5126 48.0915C33.7373 48.2574 34.004 48.357 34.2824 48.3791C34.5608 48.4013 34.8399 48.3451 35.088 48.2168L38.6017 46.4103L42.9123 54.7944C43.0278 55.0203 43.1868 55.2212 43.3801 55.3856C43.5734 55.55 43.7972 55.6747 44.0387 55.7525C44.2802 55.8303 44.5348 55.8597 44.7877 55.839C45.0406 55.8183 45.2869 55.7479 45.5126 55.6319L51.5245 52.541C51.7502 52.4249 51.9508 52.2655 52.1148 52.0719C52.2788 51.8782 52.403 51.6541 52.4802 51.4124C52.5575 51.1707 52.5863 50.9162 52.5651 50.6633C52.5439 50.4104 52.473 50.1642 52.3564 49.9388L48.0459 41.5547L51.5597 39.7482C51.8056 39.6204 52.0113 39.4269 52.1536 39.1891C52.296 38.9513 52.3696 38.6786 52.3661 38.4015C52.3626 38.1244 52.2822 37.8537 52.1338 37.6196C51.9855 37.3854 51.775 37.1971 51.5259 37.0756V37.0756Z" fill="white"/>
<path d="M36.41 30.5354C36.6147 30.4292 36.8412 30.372 37.0718 30.3681C37.3023 30.3642 37.5306 30.4138 37.7388 30.513L51.5258 37.0757C51.778 37.1955 51.9918 37.3835 52.1427 37.6185C52.2937 37.8535 52.3759 38.126 52.38 38.4053C52.3841 38.6845 52.31 38.9593 52.166 39.1987C52.022 39.438 51.8139 39.6322 51.5652 39.7594L48.0515 41.5659L52.362 49.95C52.4785 50.1754 52.5494 50.4216 52.5707 50.6745C52.5919 50.9274 52.5631 51.1819 52.4858 51.4236C52.4085 51.6653 52.2844 51.8894 52.1204 52.0831C51.9564 52.2767 51.7558 52.4361 51.5301 52.5521L45.5182 55.6431C45.2925 55.7591 45.0462 55.8295 44.7933 55.8502C44.5403 55.8709 44.2858 55.8415 44.0443 55.7637C43.8028 55.6859 43.5789 55.5612 43.3856 55.3968C43.1924 55.2324 43.0334 55.0315 42.9179 54.8056L38.6073 46.4215L35.0935 48.228C34.8454 48.3562 34.5664 48.4125 34.288 48.3903C34.0096 48.3682 33.7429 48.2686 33.5182 48.1027C33.2935 47.9369 33.1196 47.7115 33.0164 47.452C32.9131 47.1925 32.8846 46.9092 32.9339 46.6344L35.6167 31.59C35.6561 31.3633 35.7478 31.149 35.8845 30.964C36.0212 30.779 36.1992 30.6284 36.4043 30.5243M36.2252 30.1758C35.9664 30.3078 35.7419 30.498 35.5692 30.7316C35.3965 30.9651 35.2804 31.2356 35.2301 31.5216L32.5453 46.553C32.4811 46.8997 32.5162 47.2575 32.6466 47.5852C32.7769 47.9128 32.9971 48.197 33.2819 48.4049C33.5646 48.6149 33.9005 48.7413 34.2515 48.7696C34.6024 48.798 34.9543 48.7272 35.267 48.5653L38.4323 46.9379L42.5637 54.9736C42.8454 55.5215 43.333 55.9352 43.9194 56.1239C44.5058 56.3127 45.1432 56.2611 45.6916 55.9804L51.7035 52.8894C52.2509 52.6068 52.6638 52.1184 52.8515 51.5317C53.0392 50.9449 52.9864 50.3076 52.7047 49.7598L48.5733 41.7241L51.7386 40.0967C52.0522 39.9365 52.3146 39.6916 52.4957 39.3896C52.6769 39.0877 52.7696 38.741 52.7633 38.3889C52.7596 38.0366 52.657 37.6924 52.4671 37.3956C52.2772 37.0989 52.0077 36.8614 51.6894 36.7104L37.9045 30.1607C37.6426 30.0349 37.3551 29.9717 37.0646 29.9763C36.7741 29.9808 36.4887 30.053 36.2309 30.187L36.2252 30.1758Z" fill="url(#paint2_linear_299_8335)"/>
<path d="M30.6426 22.0035L30.6426 18.8911L20.9347 18.8911L20.9347 22.0035L30.6426 22.0035Z" fill="white" fill-opacity="0.5"/>
<path d="M35.3 27.566L35.3 24.4536L20.9373 24.4536L20.9373 27.566L35.3 27.566Z" fill="white" fill-opacity="0.5"/>
<path d="M40.499 33.6409L40.499 30.5286L20.9376 30.5286L20.9376 33.6409L40.499 33.6409Z" fill="white" fill-opacity="0.5"/>
<defs>
<filter id="filter0_b_299_8335" x="-5" y="-5" width="78" height="77.8223" filterUnits="userSpaceOnUse" color-interpolation-filters="sRGB">
<feFlood flood-opacity="0" result="BackgroundImageFix"/>
<feGaussianBlur in="BackgroundImage" stdDeviation="2.5"/>
<feComposite in2="SourceAlpha" operator="in" result="effect1_backgroundBlur_299_8335"/>
<feBlend mode="normal" in="SourceGraphic" in2="effect1_backgroundBlur_299_8335" result="shape"/>
</filter>
<radialGradient id="paint0_radial_299_8335" cx="0" cy="0" r="1" gradientUnits="userSpaceOnUse" gradientTransform="translate(-36.2071 6.93838) rotate(35.0407) scale(78.3285 46.23)">
<stop stop-color="white"/>
<stop offset="1" stop-color="white" stop-opacity="0.06"/>
</radialGradient>
<linearGradient id="paint1_linear_299_8335" x1="53.4262" y1="50.0871" x2="32.3317" y2="36.4937" gradientUnits="userSpaceOnUse">
<stop stop-color="white" stop-opacity="0"/>
<stop offset="1" stop-color="white" stop-opacity="0.5"/>
</linearGradient>
<linearGradient id="paint2_linear_299_8335" x1="48.7033" y1="54.446" x2="36.2309" y2="30.187" gradientUnits="userSpaceOnUse">
<stop stop-color="white" stop-opacity="0"/>
<stop offset="1" stop-color="white" stop-opacity="0.8"/>
</linearGradient>
</defs>
</svg>
