<svg width="68" height="68" viewBox="0 0 68 68" fill="none" xmlns="http://www.w3.org/2000/svg">
<g filter="url(#filter0_b_299_8298)">
<path d="M34 67.3222C15.5459 67.3222 0.5 52.3619 0.5 33.9111C0.5 15.4604 15.5459 0.5 34 0.5C52.4542 0.5 67.5 15.4604 67.5 33.9111C67.5 52.3619 52.4542 67.3222 34 67.3222Z" stroke="url(#paint0_radial_299_8298)"/>
<path d="M34 67.3222C15.5459 67.3222 0.5 52.3619 0.5 33.9111C0.5 15.4604 15.5459 0.5 34 0.5C52.4542 0.5 67.5 15.4604 67.5 33.9111C67.5 52.3619 52.4542 67.3222 34 67.3222Z" stroke="url(#paint1_radial_299_8298)"/>
<path d="M34 67.3222C15.5459 67.3222 0.5 52.3619 0.5 33.9111C0.5 15.4604 15.5459 0.5 34 0.5C52.4542 0.5 67.5 15.4604 67.5 33.9111C67.5 52.3619 52.4542 67.3222 34 67.3222Z" stroke="url(#paint2_radial_299_8298)"/>
</g>
<path d="M50.0004 23.254C50.0004 22.48 49.693 21.7378 49.1457 21.1905C48.5985 20.6433 47.8562 20.3358 47.0823 20.3358H25.3655V56.3194L27.1164 55.1522L28.8672 56.3194L30.6181 55.1522L32.369 56.3194L34.1199 55.1522L35.8708 56.3194L37.6217 55.1522L39.3726 56.3194L41.1234 55.1522L42.8743 56.3194L44.6252 55.1522L46.3761 56.3194L48.127 55.1522L49.8779 56.3194L50.0004 23.254Z" fill="#2AC89F"/>
<path d="M17.1733 47.8775C17.1733 48.6514 17.4808 49.3937 18.0281 49.9409C18.5753 50.4882 19.3175 50.7956 20.0915 50.7956H41.8083V14.8149L40.0574 15.9822L38.3065 14.8149L36.5556 15.9822L34.8048 14.8149L33.0539 15.9822L31.303 14.8149L29.5521 15.9822L27.8012 14.8149L26.0503 15.9822L24.2994 14.8149L22.5486 15.9822L20.7977 14.8149L19.0468 15.9822L17.2959 14.8149L17.1733 47.8775Z" fill="url(#paint3_linear_299_8298)"/>
<path d="M41.8106 14.8143V50.7979H20.0967C19.3227 50.7979 18.5805 50.4904 18.0332 49.9432C17.486 49.3959 17.1785 48.6537 17.1785 47.8798V14.8143L18.9294 15.9815L20.6803 14.8143L22.4312 15.9815L24.1821 14.8143L25.933 15.9815L27.6839 14.8143L29.4347 15.9815L31.1856 14.8143L32.9365 15.9815L34.6874 14.8143L36.4383 15.9815L38.1892 14.8143L39.9401 15.9815L41.6909 14.8143H41.8106ZM24.0916 14.5225C24.0344 14.5229 23.9786 14.5402 23.9311 14.5721L22.332 15.6314L20.7358 14.5721C20.6878 14.5401 20.6315 14.523 20.5738 14.523C20.5162 14.523 20.4598 14.5401 20.4118 14.5721L18.8156 15.6314L17.2165 14.5721C17.169 14.5402 17.1132 14.5229 17.056 14.5225C17.0071 14.5222 16.9589 14.5343 16.9159 14.5575C16.8699 14.5827 16.8314 14.6198 16.8047 14.665C16.778 14.7102 16.764 14.7618 16.7642 14.8143V47.8768C16.7642 48.7282 17.1024 49.5446 17.7043 50.1466C18.3063 50.7486 19.1228 51.0868 19.9741 51.0868H41.688C41.7654 51.0868 41.8396 51.056 41.8944 51.0013C41.9491 50.9466 41.9798 50.8724 41.9798 50.795V14.8143C41.98 14.7618 41.966 14.7102 41.9392 14.665C41.9125 14.6198 41.8741 14.5827 41.8281 14.5575C41.7851 14.5343 41.7369 14.5222 41.688 14.5225C41.6308 14.5229 41.575 14.5402 41.5275 14.5721L39.9284 15.6314L38.3263 14.5721C38.2788 14.5402 38.223 14.5229 38.1658 14.5225C38.1086 14.5229 38.0528 14.5402 38.0053 14.5721L36.4062 15.6314L34.807 14.5721C34.7591 14.5401 34.7027 14.523 34.6451 14.523C34.5874 14.523 34.5311 14.5401 34.4831 14.5721L32.8869 15.6314L31.4045 14.5721C31.3565 14.5401 31.3002 14.523 31.2425 14.523C31.1849 14.523 31.1285 14.5401 31.0806 14.5721L29.4844 15.6314L27.9027 14.5721C27.8548 14.5401 27.7984 14.523 27.7408 14.523C27.6831 14.523 27.6268 14.5401 27.5788 14.5721L25.9826 15.6314L24.3864 14.5721C24.3381 14.5396 24.2811 14.5223 24.2229 14.5225H24.0916Z" fill="url(#paint4_linear_299_8298)"/>
<g style="mix-blend-mode:soft-light">
<path d="M40.0487 15.9822L38.2861 14.8149L36.5265 15.9822L34.7668 14.8149L33.0072 15.9822L31.2475 14.8149L29.4879 15.9822L27.7283 14.8149L25.9686 15.9822L24.2119 14.8149L22.4523 15.9822L20.6926 14.8149L18.933 15.9822L17.1733 14.8149V15.3519L18.933 16.5191L20.6926 15.3519L22.4523 16.5191L24.2119 15.3519L25.9686 16.5191L27.7283 15.3519L29.4879 16.5191L31.2475 15.3519L33.0072 16.5191L34.7668 15.3519L36.5265 16.5191L38.2861 15.3519L40.0487 16.5191L41.8112 15.3519V14.8149L40.0487 15.9822Z" fill="white"/>
</g>
<path d="M38.6243 22.8046H20.3567C20.2461 22.8046 20.1399 22.7606 20.0617 22.6823C19.9834 22.6041 19.9395 22.4979 19.9395 22.3873C19.9395 22.2766 19.9834 22.1705 20.0617 22.0922C20.1399 22.0139 20.2461 21.97 20.3567 21.97H38.6243C38.735 21.97 38.8411 22.0139 38.9194 22.0922C38.9976 22.1705 39.0416 22.2766 39.0416 22.3873V22.3873C39.0416 22.4979 38.9976 22.6041 38.9194 22.6823C38.8411 22.7606 38.735 22.8046 38.6243 22.8046V22.8046Z" fill="white"/>
<path d="M38.6243 26.6841H20.3568C20.2461 26.6841 20.1399 26.6401 20.0617 26.5618C19.9834 26.4836 19.9395 26.3774 19.9395 26.2668C19.9391 26.2117 19.9496 26.1571 19.9704 26.1062C19.9912 26.0552 20.0219 26.0089 20.0606 25.9698C20.0994 25.9308 20.1456 25.8998 20.1964 25.8786C20.2472 25.8574 20.3017 25.8466 20.3568 25.8466H38.6243C38.6794 25.8466 38.7339 25.8574 38.7847 25.8786C38.8355 25.8998 38.8817 25.9308 38.9204 25.9698C38.9592 26.0089 38.9899 26.0552 39.0107 26.1062C39.0315 26.1571 39.042 26.2117 39.0416 26.2668V26.2668C39.0416 26.3774 38.9977 26.4836 38.9194 26.5618C38.8411 26.6401 38.735 26.6841 38.6243 26.6841V26.6841Z" fill="white"/>
<path d="M31.8396 34.4449H20.3567C20.3019 34.4449 20.2477 34.4341 20.1971 34.4132C20.1464 34.3922 20.1004 34.3615 20.0617 34.3227C20.0229 34.284 19.9922 34.238 19.9712 34.1873C19.9502 34.1367 19.9395 34.0824 19.9395 34.0276C19.9395 33.917 19.9834 33.8108 20.0617 33.7326C20.1399 33.6543 20.2461 33.6104 20.3567 33.6104H31.8396C31.9503 33.6104 32.0565 33.6543 32.1347 33.7326C32.213 33.8108 32.2569 33.917 32.2569 34.0276C32.2569 34.0824 32.2461 34.1367 32.2252 34.1873C32.2042 34.238 32.1735 34.284 32.1347 34.3227C32.096 34.3615 32.05 34.3922 31.9993 34.4132C31.9487 34.4341 31.8944 34.4449 31.8396 34.4449V34.4449Z" fill="white"/>
<path d="M31.8396 38.3252H20.3567C20.2461 38.3252 20.1399 38.2812 20.0617 38.203C19.9834 38.1247 19.9395 38.0186 19.9395 37.9079V37.9079C19.9395 37.7972 19.9834 37.6911 20.0617 37.6128C20.1399 37.5346 20.2461 37.4906 20.3567 37.4906H31.8396C31.9503 37.4906 32.0565 37.5346 32.1347 37.6128C32.213 37.6911 32.2569 37.7972 32.2569 37.9079V37.9079C32.2569 38.0186 32.213 38.1247 32.1347 38.203C32.0565 38.2812 31.9503 38.3252 31.8396 38.3252V38.3252Z" fill="white"/>
<path d="M31.8396 42.2065H20.3568C20.2461 42.2065 20.1399 42.1626 20.0617 42.0843C19.9834 42.006 19.9395 41.8999 19.9395 41.7892V41.7892C19.9391 41.7342 19.9496 41.6796 19.9704 41.6286C19.9912 41.5777 20.0219 41.5313 20.0606 41.4923C20.0994 41.4532 20.1456 41.4222 20.1964 41.4011C20.2472 41.3799 20.3017 41.369 20.3568 41.369H31.8396C31.8947 41.369 31.9492 41.3799 32 41.4011C32.0508 41.4222 32.097 41.4532 32.1358 41.4923C32.1745 41.5313 32.2052 41.5777 32.226 41.6286C32.2468 41.6796 32.2573 41.7342 32.2569 41.7892C32.2569 41.8999 32.213 42.006 32.1347 42.0843C32.0565 42.1626 31.9503 42.2065 31.8396 42.2065V42.2065Z" fill="white"/>
<path d="M31.8396 46.0852H20.3567C20.2461 46.0852 20.1399 46.0412 20.0617 45.963C19.9834 45.8847 19.9395 45.7786 19.9395 45.6679C19.9395 45.5572 19.9834 45.4511 20.0617 45.3728C20.1399 45.2946 20.2461 45.2506 20.3567 45.2506H31.8396C31.9503 45.2506 32.0565 45.2946 32.1347 45.3728C32.213 45.4511 32.2569 45.5572 32.2569 45.6679C32.2569 45.7786 32.213 45.8847 32.1347 45.963C32.0565 46.0412 31.9503 46.0852 31.8396 46.0852Z" fill="white"/>
<path d="M38.6256 34.4449H34.2076C34.1528 34.4449 34.0985 34.4341 34.0479 34.4132C33.9973 34.3922 33.9513 34.3615 33.9125 34.3227C33.8738 34.284 33.843 34.238 33.822 34.1873C33.8011 34.1367 33.7903 34.0824 33.7903 34.0276V34.0276C33.7903 33.917 33.8343 33.8108 33.9125 33.7326C33.9908 33.6543 34.0969 33.6104 34.2076 33.6104H38.6256C38.7363 33.6104 38.8425 33.6543 38.9207 33.7326C38.999 33.8108 39.0429 33.917 39.0429 34.0276V34.0276C39.0429 34.0824 39.0321 34.1367 39.0112 34.1873C38.9902 34.238 38.9595 34.284 38.9207 34.3227C38.882 34.3615 38.836 34.3922 38.7853 34.4132C38.7347 34.4341 38.6804 34.4449 38.6256 34.4449V34.4449Z" fill="white"/>
<path d="M38.6256 38.3252H34.2076C34.0969 38.3252 33.9908 38.2812 33.9125 38.203C33.8343 38.1247 33.7903 38.0186 33.7903 37.9079V37.9079C33.7903 37.7972 33.8343 37.6911 33.9125 37.6128C33.9908 37.5346 34.0969 37.4906 34.2076 37.4906H38.6256C38.7363 37.4906 38.8425 37.5346 38.9207 37.6128C38.999 37.6911 39.0429 37.7972 39.0429 37.9079V37.9079C39.0429 38.0186 38.999 38.1247 38.9207 38.203C38.8425 38.2812 38.7363 38.3252 38.6256 38.3252V38.3252Z" fill="white"/>
<path d="M38.6257 42.2065H34.2076C34.0969 42.2065 33.9908 42.1626 33.9125 42.0843C33.8343 42.006 33.7903 41.8999 33.7903 41.7892V41.7892C33.7899 41.7342 33.8004 41.6796 33.8212 41.6286C33.842 41.5777 33.8727 41.5313 33.9115 41.4923C33.9503 41.4532 33.9964 41.4222 34.0472 41.4011C34.098 41.3799 34.1525 41.369 34.2076 41.369H38.6257C38.6807 41.369 38.7352 41.3799 38.786 41.4011C38.8368 41.4222 38.883 41.4532 38.9218 41.4923C38.9606 41.5313 38.9912 41.5777 39.012 41.6286C39.0328 41.6796 39.0433 41.7342 39.0429 41.7892V41.7892C39.0429 41.8999 38.999 42.006 38.9207 42.0843C38.8425 42.1626 38.7363 42.2065 38.6257 42.2065V42.2065Z" fill="white"/>
<path d="M38.6256 46.0852H34.2076C34.0969 46.0852 33.9908 46.0412 33.9125 45.963C33.8343 45.8847 33.7903 45.7786 33.7903 45.6679V45.6679C33.7903 45.5572 33.8343 45.4511 33.9125 45.3728C33.9908 45.2946 34.0969 45.2506 34.2076 45.2506H38.6256C38.7363 45.2506 38.8425 45.2946 38.9207 45.3728C38.999 45.4511 39.0429 45.5572 39.0429 45.6679V45.6679C39.0429 45.7786 38.999 45.8847 38.9207 45.963C38.8425 46.0412 38.7363 46.0852 38.6256 46.0852V46.0852Z" fill="white"/>
<g style="mix-blend-mode:overlay">
<g style="mix-blend-mode:overlay" opacity="0.6">
<path style="mix-blend-mode:hard-light" d="M17.0862 36.4808C16.1349 36.4808 15.3645 30.5511 15.3645 23.2412C15.3645 15.9312 16.1349 9.99866 17.0862 9.99866C18.0375 9.99866 18.805 15.9283 18.805 23.2412C18.805 30.5541 18.0346 36.4808 17.0862 36.4808Z" fill="url(#paint5_radial_299_8298)"/>
<path style="mix-blend-mode:overlay" d="M17.086 34.0557C16.6103 34.0557 16.2251 29.2115 16.2251 23.241C16.2251 17.2705 16.6103 12.4235 17.086 12.4235C17.5616 12.4235 17.9468 17.2676 17.9468 23.241C17.9468 29.2145 17.5616 34.0557 17.086 34.0557Z" fill="url(#paint6_radial_299_8298)"/>
</g>
<path style="mix-blend-mode:overlay" d="M17.0863 18.7834C19.8954 18.7834 22.1726 18.5508 22.1726 18.2639C22.1726 17.9771 19.8954 17.7445 17.0863 17.7445C14.2772 17.7445 12 17.9771 12 18.2639C12 18.5508 14.2772 18.7834 17.0863 18.7834Z" fill="url(#paint7_radial_299_8298)"/>
<path style="mix-blend-mode:hard-light" d="M17.0875 18.0823C17.6128 18.0823 18.0389 18.164 18.0389 18.2632C18.0389 18.3624 17.6128 18.4412 17.0875 18.4412C16.5623 18.4412 16.1362 18.3624 16.1362 18.2632C16.1362 18.164 16.5623 18.0823 17.0875 18.0823Z" fill="url(#paint8_radial_299_8298)"/>
<path style="mix-blend-mode:overlay" d="M16.5212 18.2638C16.5212 15.5149 16.781 13.2854 17.1049 13.2854C17.4288 13.2854 17.6885 15.5149 17.6885 18.2638C17.6885 21.0126 17.4317 23.2421 17.1049 23.2421C16.778 23.2421 16.5212 21.0126 16.5212 18.2638Z" fill="url(#paint9_radial_299_8298)"/>
<path style="mix-blend-mode:hard-light" d="M16.8865 18.2636C16.8865 17.7383 16.9769 17.3123 17.0878 17.3123C17.1987 17.3123 17.2892 17.7383 17.2892 18.2636C17.2892 18.7888 17.1987 19.2149 17.0878 19.2149C16.9769 19.2149 16.8865 18.7888 16.8865 18.2636Z" fill="url(#paint10_radial_299_8298)"/>
<g style="mix-blend-mode:overlay" opacity="0.5">
<path style="mix-blend-mode:overlay" d="M17.0863 18.7837C19.8954 18.7837 22.1726 18.5512 22.1726 18.2643C22.1726 17.9774 19.8954 17.7449 17.0863 17.7449C14.2772 17.7449 12 17.9774 12 18.2643C12 18.5512 14.2772 18.7837 17.0863 18.7837Z" fill="url(#paint11_radial_299_8298)"/>
<path style="mix-blend-mode:hard-light" d="M17.0875 18.0819C17.6128 18.0819 18.0389 18.1636 18.0389 18.2628C18.0389 18.362 17.6128 18.4408 17.0875 18.4408C16.5623 18.4408 16.1362 18.362 16.1362 18.2628C16.1362 18.1636 16.5623 18.0819 17.0875 18.0819Z" fill="url(#paint12_radial_299_8298)"/>
<path style="mix-blend-mode:overlay" d="M16.5212 18.2631C16.5212 15.5143 16.781 13.2848 17.1049 13.2848C17.4288 13.2848 17.6885 15.5143 17.6885 18.2631C17.6885 21.012 17.4317 23.2415 17.1049 23.2415C16.778 23.2415 16.5212 21.012 16.5212 18.2631Z" fill="url(#paint13_radial_299_8298)"/>
<path style="mix-blend-mode:hard-light" d="M16.8865 18.263C16.8865 17.7377 16.9769 17.3116 17.0878 17.3116C17.1987 17.3116 17.2892 17.7377 17.2892 18.263C17.2892 18.7882 17.1987 19.2143 17.0878 19.2143C16.9769 19.2143 16.8865 18.7882 16.8865 18.263Z" fill="url(#paint14_radial_299_8298)"/>
</g>
</g>
<defs>
<filter id="filter0_b_299_8298" x="-5" y="-5" width="78" height="77.8223" filterUnits="userSpaceOnUse" color-interpolation-filters="sRGB">
<feFlood flood-opacity="0" result="BackgroundImageFix"/>
<feGaussianBlur in="BackgroundImage" stdDeviation="2.5"/>
<feComposite in2="SourceAlpha" operator="in" result="effect1_backgroundBlur_299_8298"/>
<feBlend mode="normal" in="SourceGraphic" in2="effect1_backgroundBlur_299_8298" result="shape"/>
</filter>
<radialGradient id="paint0_radial_299_8298" cx="0" cy="0" r="1" gradientUnits="userSpaceOnUse" gradientTransform="translate(-36.2071 6.93838) rotate(35.0407) scale(78.3285 46.23)">
<stop stop-color="white"/>
<stop offset="1" stop-color="white" stop-opacity="0.06"/>
</radialGradient>
<radialGradient id="paint1_radial_299_8298" cx="0" cy="0" r="1" gradientUnits="userSpaceOnUse" gradientTransform="translate(87.9079 45.3907) rotate(161.385) scale(56.8164 38.4017)">
<stop stop-color="#006F87"/>
<stop offset="1" stop-color="#00343F" stop-opacity="0.28"/>
</radialGradient>
<radialGradient id="paint2_radial_299_8298" cx="0" cy="0" r="1" gradientUnits="userSpaceOnUse" gradientTransform="translate(34.7404 -15.5005) rotate(47.2149) scale(37.9466 27.2747)">
<stop/>
<stop offset="1" stop-color="white" stop-opacity="0"/>
</radialGradient>
<linearGradient id="paint3_linear_299_8298" x1="29.4908" y1="14.065" x2="29.4908" y2="50.0486" gradientUnits="userSpaceOnUse">
<stop stop-color="white" stop-opacity="0.9"/>
<stop offset="0.01" stop-color="white" stop-opacity="0.84"/>
<stop offset="0.03" stop-color="white" stop-opacity="0.73"/>
<stop offset="0.05" stop-color="white" stop-opacity="0.65"/>
<stop offset="0.08" stop-color="white" stop-opacity="0.58"/>
<stop offset="0.11" stop-color="white" stop-opacity="0.53"/>
<stop offset="0.16" stop-color="white" stop-opacity="0.51"/>
<stop offset="0.28" stop-color="white" stop-opacity="0.5"/>
<stop offset="0.46" stop-color="#FEFEFE" stop-opacity="0.48"/>
<stop offset="0.67" stop-color="#FAFAFA" stop-opacity="0.43"/>
<stop offset="0.89" stop-color="#F3F3F3" stop-opacity="0.35"/>
<stop offset="1" stop-color="#EFEFEF" stop-opacity="0.3"/>
</linearGradient>
<linearGradient id="paint4_linear_299_8298" x1="29.4931" y1="51.0897" x2="29.4931" y2="14.5225" gradientUnits="userSpaceOnUse">
<stop stop-color="white" stop-opacity="0.9"/>
<stop offset="0.03" stop-color="white" stop-opacity="0.83"/>
<stop offset="0.11" stop-color="white" stop-opacity="0.68"/>
<stop offset="0.17" stop-color="white" stop-opacity="0.58"/>
<stop offset="0.23" stop-color="white" stop-opacity="0.52"/>
<stop offset="0.28" stop-color="white" stop-opacity="0.5"/>
<stop offset="0.46" stop-color="#FEFEFE" stop-opacity="0.48"/>
<stop offset="0.67" stop-color="#FAFAFA" stop-opacity="0.43"/>
<stop offset="0.89" stop-color="#F3F3F3" stop-opacity="0.35"/>
<stop offset="1" stop-color="#EFEFEF" stop-opacity="0.3"/>
</linearGradient>
<radialGradient id="paint5_radial_299_8298" cx="0" cy="0" r="1" gradientUnits="userSpaceOnUse" gradientTransform="translate(19.5763 23.4041) rotate(90) scale(13.2362 1.72129)">
<stop stop-color="white" stop-opacity="0.6"/>
<stop offset="0.15" stop-color="white" stop-opacity="0.45"/>
<stop offset="0.33" stop-color="white" stop-opacity="0.29"/>
<stop offset="0.52" stop-color="white" stop-opacity="0.16"/>
<stop offset="0.69" stop-color="white" stop-opacity="0.07"/>
<stop offset="0.86" stop-color="white" stop-opacity="0.02"/>
<stop offset="1" stop-color="white" stop-opacity="0"/>
</radialGradient>
<radialGradient id="paint6_radial_299_8298" cx="0" cy="0" r="1" gradientUnits="userSpaceOnUse" gradientTransform="translate(35.016 22.4115) rotate(90) scale(10.8227 0.865816)">
<stop stop-color="white"/>
<stop offset="0.01" stop-color="white" stop-opacity="0.96"/>
<stop offset="0.05" stop-color="white" stop-opacity="0.78"/>
<stop offset="0.09" stop-color="white" stop-opacity="0.61"/>
<stop offset="0.14" stop-color="white" stop-opacity="0.47"/>
<stop offset="0.2" stop-color="white" stop-opacity="0.34"/>
<stop offset="0.25" stop-color="white" stop-opacity="0.23"/>
<stop offset="0.32" stop-color="white" stop-opacity="0.15"/>
<stop offset="0.4" stop-color="white" stop-opacity="0.08"/>
<stop offset="0.49" stop-color="white" stop-opacity="0.03"/>
<stop offset="0.63" stop-color="white" stop-opacity="0.01"/>
<stop offset="1" stop-color="white" stop-opacity="0"/>
</radialGradient>
<radialGradient id="paint7_radial_299_8298" cx="0" cy="0" r="1" gradientUnits="userSpaceOnUse" gradientTransform="translate(14.7687 -4.05412) rotate(-90) scale(0.521734 5.08005)">
<stop stop-color="white"/>
<stop offset="0.05" stop-color="white" stop-opacity="0.89"/>
<stop offset="0.15" stop-color="white" stop-opacity="0.69"/>
<stop offset="0.26" stop-color="white" stop-opacity="0.5"/>
<stop offset="0.37" stop-color="white" stop-opacity="0.35"/>
<stop offset="0.48" stop-color="white" stop-opacity="0.22"/>
<stop offset="0.6" stop-color="white" stop-opacity="0.12"/>
<stop offset="0.72" stop-color="white" stop-opacity="0.05"/>
<stop offset="0.85" stop-color="white" stop-opacity="0.01"/>
<stop offset="1" stop-color="white" stop-opacity="0"/>
</radialGradient>
<radialGradient id="paint8_radial_299_8298" cx="0" cy="0" r="1" gradientUnits="userSpaceOnUse" gradientTransform="translate(17.0875 -4.05687) rotate(-90) scale(0.180751 0.951317)">
<stop stop-color="white"/>
<stop offset="0.05" stop-color="white" stop-opacity="0.89"/>
<stop offset="0.15" stop-color="white" stop-opacity="0.69"/>
<stop offset="0.26" stop-color="white" stop-opacity="0.5"/>
<stop offset="0.37" stop-color="white" stop-opacity="0.35"/>
<stop offset="0.48" stop-color="white" stop-opacity="0.22"/>
<stop offset="0.6" stop-color="white" stop-opacity="0.12"/>
<stop offset="0.72" stop-color="white" stop-opacity="0.05"/>
<stop offset="0.85" stop-color="white" stop-opacity="0.01"/>
<stop offset="1" stop-color="white" stop-opacity="0"/>
</radialGradient>
<radialGradient id="paint9_radial_299_8298" cx="0" cy="0" r="1" gradientUnits="userSpaceOnUse" gradientTransform="translate(21.5232 20.5469) rotate(180) scale(0.576654 4.97021)">
<stop stop-color="white"/>
<stop offset="0.05" stop-color="white" stop-opacity="0.89"/>
<stop offset="0.15" stop-color="white" stop-opacity="0.69"/>
<stop offset="0.26" stop-color="white" stop-opacity="0.5"/>
<stop offset="0.37" stop-color="white" stop-opacity="0.35"/>
<stop offset="0.48" stop-color="white" stop-opacity="0.22"/>
<stop offset="0.6" stop-color="white" stop-opacity="0.12"/>
<stop offset="0.72" stop-color="white" stop-opacity="0.05"/>
<stop offset="0.85" stop-color="white" stop-opacity="0.01"/>
<stop offset="1" stop-color="white" stop-opacity="0"/>
</radialGradient>
<radialGradient id="paint10_radial_299_8298" cx="0" cy="0" r="1" gradientUnits="userSpaceOnUse" gradientTransform="translate(21.5249 18.2607) rotate(180) scale(0.199777 0.951313)">
<stop stop-color="white"/>
<stop offset="0.05" stop-color="white" stop-opacity="0.89"/>
<stop offset="0.15" stop-color="white" stop-opacity="0.69"/>
<stop offset="0.26" stop-color="white" stop-opacity="0.5"/>
<stop offset="0.37" stop-color="white" stop-opacity="0.35"/>
<stop offset="0.48" stop-color="white" stop-opacity="0.22"/>
<stop offset="0.6" stop-color="white" stop-opacity="0.12"/>
<stop offset="0.72" stop-color="white" stop-opacity="0.05"/>
<stop offset="0.85" stop-color="white" stop-opacity="0.01"/>
<stop offset="1" stop-color="white" stop-opacity="0"/>
</radialGradient>
<radialGradient id="paint11_radial_299_8298" cx="0" cy="0" r="1" gradientUnits="userSpaceOnUse" gradientTransform="translate(14.7687 -4.05375) rotate(-90) scale(0.521734 5.08005)">
<stop stop-color="white"/>
<stop offset="0.05" stop-color="white" stop-opacity="0.89"/>
<stop offset="0.15" stop-color="white" stop-opacity="0.69"/>
<stop offset="0.26" stop-color="white" stop-opacity="0.5"/>
<stop offset="0.37" stop-color="white" stop-opacity="0.35"/>
<stop offset="0.48" stop-color="white" stop-opacity="0.22"/>
<stop offset="0.6" stop-color="white" stop-opacity="0.12"/>
<stop offset="0.72" stop-color="white" stop-opacity="0.05"/>
<stop offset="0.85" stop-color="white" stop-opacity="0.01"/>
<stop offset="1" stop-color="white" stop-opacity="0"/>
</radialGradient>
<radialGradient id="paint12_radial_299_8298" cx="0" cy="0" r="1" gradientUnits="userSpaceOnUse" gradientTransform="translate(17.0875 -4.05724) rotate(-90) scale(0.180751 0.951317)">
<stop stop-color="white"/>
<stop offset="0.05" stop-color="white" stop-opacity="0.89"/>
<stop offset="0.15" stop-color="white" stop-opacity="0.69"/>
<stop offset="0.26" stop-color="white" stop-opacity="0.5"/>
<stop offset="0.37" stop-color="white" stop-opacity="0.35"/>
<stop offset="0.48" stop-color="white" stop-opacity="0.22"/>
<stop offset="0.6" stop-color="white" stop-opacity="0.12"/>
<stop offset="0.72" stop-color="white" stop-opacity="0.05"/>
<stop offset="0.85" stop-color="white" stop-opacity="0.01"/>
<stop offset="1" stop-color="white" stop-opacity="0"/>
</radialGradient>
<radialGradient id="paint13_radial_299_8298" cx="0" cy="0" r="1" gradientUnits="userSpaceOnUse" gradientTransform="translate(21.5232 20.5463) rotate(180) scale(0.576654 4.97021)">
<stop stop-color="white"/>
<stop offset="0.05" stop-color="white" stop-opacity="0.89"/>
<stop offset="0.15" stop-color="white" stop-opacity="0.69"/>
<stop offset="0.26" stop-color="white" stop-opacity="0.5"/>
<stop offset="0.37" stop-color="white" stop-opacity="0.35"/>
<stop offset="0.48" stop-color="white" stop-opacity="0.22"/>
<stop offset="0.6" stop-color="white" stop-opacity="0.12"/>
<stop offset="0.72" stop-color="white" stop-opacity="0.05"/>
<stop offset="0.85" stop-color="white" stop-opacity="0.01"/>
<stop offset="1" stop-color="white" stop-opacity="0"/>
</radialGradient>
<radialGradient id="paint14_radial_299_8298" cx="0" cy="0" r="1" gradientUnits="userSpaceOnUse" gradientTransform="translate(21.5249 18.26) rotate(180) scale(0.199777 0.951313)">
<stop stop-color="white"/>
<stop offset="0.05" stop-color="white" stop-opacity="0.89"/>
<stop offset="0.15" stop-color="white" stop-opacity="0.69"/>
<stop offset="0.26" stop-color="white" stop-opacity="0.5"/>
<stop offset="0.37" stop-color="white" stop-opacity="0.35"/>
<stop offset="0.48" stop-color="white" stop-opacity="0.22"/>
<stop offset="0.6" stop-color="white" stop-opacity="0.12"/>
<stop offset="0.72" stop-color="white" stop-opacity="0.05"/>
<stop offset="0.85" stop-color="white" stop-opacity="0.01"/>
<stop offset="1" stop-color="white" stop-opacity="0"/>
</radialGradient>
</defs>
</svg>
