<svg width="40" height="33" viewBox="0 0 40 33" fill="none" xmlns="http://www.w3.org/2000/svg">
<path d="M39.763 3.85111C38.3012 4.50529 36.7281 4.94656 35.0774 5.14403C36.7628 4.12822 38.055 2.51919 38.6644 0.59973C37.0881 1.54158 35.343 2.22502 33.4841 2.59395C31.9965 0.997925 29.8761 0 27.5297 0C23.025 0 19.3726 3.67721 19.3726 8.21338C19.3726 8.85618 19.4444 9.48273 19.584 10.0849C12.8039 9.74196 6.79223 6.4727 2.76855 1.50339C2.06632 2.71585 1.66436 4.1266 1.66436 5.63324C1.66436 8.48236 3.10433 10.9967 5.29333 12.4692C3.95668 12.4261 2.69833 12.0564 1.59817 11.4412C1.59736 11.4753 1.59736 11.5103 1.59736 11.5452C1.59736 15.5239 4.4095 18.8427 8.14179 19.5985C7.45732 19.7854 6.73653 19.8862 5.99233 19.8862C5.46607 19.8862 4.95514 19.835 4.45712 19.7383C5.49593 23.001 8.50824 25.3764 12.0775 25.4422C9.28553 27.6453 5.76875 28.9585 1.94606 28.9585C1.28822 28.9585 0.638461 28.9195 0 28.8431C3.61122 31.1746 7.89884 32.5333 12.5053 32.5333C27.5111 32.5333 35.7159 20.0186 35.7159 9.16498C35.7159 8.80905 35.7086 8.45392 35.6933 8.10123C37.2866 6.94566 38.6701 5.49834 39.763 3.85111Z" fill="white"/>
</svg>
