<svg xmlns="http://www.w3.org/2000/svg" viewBox="0 0 479.13 479.14"><defs><style>.cls-1{fill:#fff;}</style></defs><g id="Layer_2" data-name="Layer 2"><g id="LOGOS"><path class="cls-1" d="M78.88,210.5a61.13,61.13,0,0,1,13-38.14l87.31,87.29A62.25,62.25,0,0,1,78.88,210.5Z"/><path class="cls-1" d="M338.62,272.48a62.21,62.21,0,0,0,49.16-100.3l-87.32,87.28A61.17,61.17,0,0,0,338.62,272.48Z"/><path class="cls-1" d="M413.09,74.26a239.45,239.45,0,0,0-346.69,0C60.53,80.5,54.85,87.1,49.53,93.88l190,190L429.6,93.7A163.05,163.05,0,0,0,413.09,74.26ZM239.75,239.48,92.45,92.23c39.25-39.42,91.17-61.06,147.3-61.06S348,52.81,387,92.23Z"/><path class="cls-1" d="M239.56,479.14c132.26,0,239.57-107.27,239.57-239.48a233.75,233.75,0,0,0-34.31-124.14l-38.7,38.69a88,88,0,0,1-124,124l-42.37,42.35-42.38-42.35a88,88,0,0,1-124-124l-19.81-19.8L34.67,115.52A238.37,238.37,0,0,0,0,239.66C0,372.05,107.31,479.14,239.56,479.14Z"/></g></g></svg>