<svg width="48" height="24" viewBox="0 0 48 24" fill="none" xmlns="http://www.w3.org/2000/svg">
<g clip-path="url(#clip0_1268_44405)">
<path d="M7.37945 21.0095C7.86945 21.4995 8.65945 21.4995 9.14945 21.0095L17.4595 12.6995C17.8495 12.3095 17.8495 11.6795 17.4595 11.2895L9.14945 2.97945C8.65945 2.48945 7.86945 2.48945 7.37945 2.97945C6.88945 3.46945 6.88945 4.25945 7.37945 4.74945L14.6195 11.9995L7.36945 19.2495C6.88945 19.7295 6.88945 20.5295 7.37945 21.0095Z" fill="#07E0E0"/>
</g>
<g clip-path="url(#clip1_1268_44405)">
<path d="M19.3795 21.0095C19.8695 21.4995 20.6595 21.4995 21.1495 21.0095L29.4595 12.6995C29.8495 12.3095 29.8495 11.6795 29.4595 11.2895L21.1495 2.97945C20.6595 2.48945 19.8695 2.48945 19.3795 2.97945C18.8895 3.46945 18.8895 4.25945 19.3795 4.74945L26.6195 11.9995L19.3695 19.2495C18.8895 19.7295 18.8895 20.5295 19.3795 21.0095Z" fill="#07E0E0"/>
</g>
<g clip-path="url(#clip2_1268_44405)">
<path d="M31.3795 21.0095C31.8695 21.4995 32.6595 21.4995 33.1495 21.0095L41.4595 12.6995C41.8495 12.3095 41.8495 11.6795 41.4595 11.2895L33.1495 2.97945C32.6595 2.48945 31.8695 2.48945 31.3795 2.97945C30.8895 3.46945 30.8895 4.25945 31.3795 4.74945L38.6195 11.9995L31.3695 19.2495C30.8895 19.7295 30.8895 20.5295 31.3795 21.0095Z" fill="#07E0E0"/>
</g>
<defs>
<clipPath id="clip0_1268_44405">
<rect width="24" height="24" fill="white" transform="translate(24 24) rotate(-180)"/>
</clipPath>
<clipPath id="clip1_1268_44405">
<rect width="24" height="24" fill="white" transform="translate(36 24) rotate(-180)"/>
</clipPath>
<clipPath id="clip2_1268_44405">
<rect width="24" height="24" fill="white" transform="translate(48 24) rotate(-180)"/>
</clipPath>
</defs>
</svg>
