<svg width="111" height="19" viewBox="0 0 111 19" fill="none" xmlns="http://www.w3.org/2000/svg">
<g clip-path="url(#clip0_5028_164501)">
<path d="M3.88091 2.91017L8.9947 0L14.1077 2.91017L12.2281 3.98525L8.9947 2.15017L5.76054 3.98525L3.88091 2.91017ZM14.1069 6.58033L12.2281 5.50525L8.9947 7.34033L5.76054 5.50525L3.88091 6.58033V8.7305L7.11426 10.5656V14.2358L8.9947 15.3108L10.8743 14.2358V10.5656L14.1077 8.7305L14.1069 6.58033ZM14.1069 12.4007V10.2505L12.2281 11.3256V13.4757L14.1069 12.4007ZM15.4421 13.1607L12.2088 14.9957V17.1459L17.3218 14.2358V8.41542L15.4421 9.4905V13.1607ZM13.5625 4.74525L15.4413 5.82033V7.9705L17.3218 6.89542V4.74525L15.4421 3.67017L13.5625 4.74525ZM7.11346 15.7748V17.9249L8.9947 19L10.8743 17.9249V15.7748L8.9947 16.8498L7.11346 15.7748ZM3.8801 12.4007L5.75974 13.4757V11.3256L3.8801 10.2505V12.4007ZM7.11346 4.74525L8.9939 5.82033L10.8735 4.74525L8.9939 3.67017L7.11346 4.74525ZM2.54485 5.82033L4.42529 4.74525L2.54485 3.67017L0.666016 4.74525V6.89542L2.54565 7.9705L2.54485 5.82033ZM2.54485 9.4905L0.666016 8.41542V14.2358L5.77981 17.1467V14.9957L2.54485 13.1607V9.4905ZM32.1445 11.9241V11.8932C32.1445 10.4738 31.3785 9.76363 30.1372 9.29575C30.9032 8.87221 31.5471 8.208 31.5471 7.01417V6.98408C31.5471 5.32237 30.1982 4.24967 28.0078 4.24967H23.0289V14.824H28.1307C30.5507 14.824 32.1445 13.8581 32.1445 11.9241ZM29.2018 7.40604C29.2018 8.19137 28.5434 8.52388 27.5012 8.52388H25.3253V6.289H27.6546C28.6502 6.289 29.2018 6.68167 29.2018 7.37675V7.40604ZM29.8 11.6359C29.8 12.4213 29.1713 12.7838 28.1299 12.7838H25.3261V10.4579H28.0528C29.2636 10.4579 29.7992 10.8957 29.7992 11.6058L29.8 11.6359ZM43.7675 14.824V4.24967H41.4391V10.7603L36.4136 4.24967H34.2377V14.824H36.567V8.10271L41.7611 14.824H43.7675ZM55.6114 11.9241V11.8932C55.6114 10.4738 54.8454 9.76363 53.6041 9.29575C54.3701 8.87221 55.0132 8.208 55.0132 7.01417V6.98408C55.0132 5.32237 53.6651 4.24967 51.4748 4.24967H46.4951V14.824H51.5968C54.0176 14.824 55.6114 13.8581 55.6114 11.9241ZM52.6695 7.40683C52.6695 8.19217 52.0111 8.52467 50.9689 8.52467H48.793V6.289H51.1215C52.1179 6.289 52.6695 6.68167 52.6695 7.37675V7.40683ZM53.2669 11.6367C53.2669 12.422 52.639 12.7846 51.5968 12.7846H48.7938V10.4587H51.5205C52.7305 10.4587 53.2669 10.8965 53.2669 11.6066V11.6367ZM69.8303 12.9564L68.6203 11.7475C67.701 12.5938 66.8587 13.1227 65.5411 13.1227C63.4881 13.1227 62.0019 11.4301 62.0019 9.34642C62.0019 7.26117 63.4873 5.59946 65.5411 5.59946C66.7664 5.59946 67.6857 6.12829 68.544 6.91363L69.754 5.53929C68.7279 4.57267 67.5324 3.89262 65.5564 3.89262C62.3086 3.89262 60.0259 6.35471 60.0259 9.37571C60.0259 12.4276 62.3543 14.8295 65.4793 14.8295C67.4866 14.8295 68.7119 14.1043 69.8303 12.9564ZM78.9659 10.1919V14.6482H80.8504V4.07392H78.9659V8.46925H73.8489V4.07392H71.9645V14.6482H73.8489V10.1911L78.9659 10.1919ZM89.3035 3.99792H87.5572L82.8384 14.6482H84.7686L85.8719 12.0951H90.9431L92.0311 14.6482H94.0223L89.3035 3.99792ZM90.2534 10.4484H86.5616L88.3994 6.21854L90.2534 10.4484ZM96.1219 4.07392V14.6482H98.0064V4.07392H96.1219ZM108.522 11.385L102.777 4.07392H101.03V14.6482H102.884V7.125L108.798 14.6482H110.376V4.07392H108.522V11.385Z" fill="#373F47"/>
</g>
<defs>
<clipPath id="clip0_5028_164501">
<rect width="110" height="19" fill="white" transform="translate(0.666016)"/>
</clipPath>
</defs>
</svg>
