<svg width="110" height="29" viewBox="0 0 110 29" fill="none" xmlns="http://www.w3.org/2000/svg">
<path d="M31.0729 16.3509C31.0714 16.4467 31.0321 16.538 30.9636 16.6049C30.8952 16.6717 30.8031 16.7086 30.7076 16.7075H23.9795C24.1519 18.3768 25.4005 19.9044 27.1662 19.9044C28.3738 19.9044 29.2669 19.4457 29.9368 18.4789C29.9678 18.4281 30.0109 18.3857 30.0622 18.3556C30.1134 18.3254 30.1713 18.3084 30.2306 18.306C30.2749 18.3048 30.319 18.3127 30.3601 18.3292C30.4013 18.3457 30.4387 18.3704 30.47 18.4019C30.5013 18.4333 30.5259 18.4708 30.5424 18.5121C30.5588 18.5533 30.5667 18.5975 30.5656 18.642C30.566 18.7033 30.5486 18.7634 30.5155 18.8149C29.835 19.9958 28.4854 20.5764 27.1662 20.5764C24.903 20.5764 23.2793 18.5398 23.2793 16.3715C23.2793 14.2031 24.8932 12.1665 27.1662 12.1665C29.4401 12.1665 31.063 14.1825 31.0737 16.3509H31.0729ZM30.353 16.0355C30.2109 14.3662 28.9328 12.8385 27.1662 12.8385C25.4005 12.8385 24.1519 14.3662 23.9795 16.0355H30.353ZM39.2531 12.3296C39.3077 12.3314 39.3612 12.3462 39.409 12.3728C39.4568 12.3994 39.4976 12.437 39.5281 12.4825C39.5586 12.528 39.5778 12.5802 39.5842 12.6346C39.5906 12.6891 39.5841 12.7443 39.565 12.7957C39.5402 12.8579 39.4971 12.911 39.4413 12.9478C39.3855 12.9846 39.3198 13.0034 39.2531 13.0016H37.4471V20.1177C37.4465 20.2068 37.4109 20.292 37.348 20.3549C37.2852 20.4178 37.2002 20.4533 37.1114 20.4537C37.0233 20.4512 36.9396 20.415 36.8773 20.3526C36.815 20.2901 36.7789 20.2061 36.7765 20.1177V13.0016H35.0411C34.9967 13.0031 34.9525 12.9954 34.9112 12.9791C34.8699 12.9627 34.8324 12.938 34.801 12.9065C34.7696 12.875 34.7449 12.8374 34.7286 12.7959C34.7123 12.7545 34.7047 12.7101 34.7062 12.6656C34.707 12.5768 34.7426 12.4918 34.8052 12.429C34.8678 12.3661 34.9525 12.3305 35.0411 12.3296H36.7765V9.73384C36.7766 9.64777 36.8073 9.56456 36.8632 9.49919C36.919 9.43383 36.9962 9.39059 37.081 9.37726C37.1284 9.37098 37.1766 9.37502 37.2222 9.3891C37.2679 9.40318 37.31 9.42698 37.3457 9.45887C37.3814 9.49076 37.4098 9.52999 37.429 9.57389C37.4482 9.61778 37.4578 9.66532 37.457 9.71325V12.3296H39.2531ZM50.263 15.7703V20.0774C50.2611 20.1321 50.2464 20.1856 50.2199 20.2335C50.1935 20.2813 50.1561 20.3222 50.1108 20.3528C50.0655 20.3833 50.0137 20.4027 49.9595 20.4092C49.9053 20.4157 49.8503 20.4092 49.7991 20.3903C49.7372 20.3654 49.6843 20.3221 49.6476 20.2662C49.6109 20.2102 49.5922 20.1443 49.5939 20.0774V15.7703C49.5939 14.3151 48.7714 12.869 47.1583 12.869C45.088 12.869 44.1949 14.6808 44.3164 16.5444C44.3164 16.5955 44.3369 16.8088 44.3369 16.8393V20.0675C44.3366 20.1533 44.3059 20.2362 44.2502 20.3014C44.1946 20.3666 44.1177 20.4098 44.0332 20.4233C43.9858 20.4295 43.9376 20.4255 43.892 20.4114C43.8463 20.3973 43.8042 20.3735 43.7685 20.3416C43.7328 20.3098 43.7044 20.2705 43.6852 20.2266C43.666 20.1827 43.6564 20.1352 43.6572 20.0873V5.92584C43.6579 5.83693 43.6933 5.75184 43.756 5.68897C43.8187 5.6261 43.9035 5.59049 43.9921 5.58984C44.0802 5.59233 44.1639 5.62853 44.2262 5.69101C44.2885 5.75349 44.3246 5.83752 44.3271 5.92584V13.9281C44.905 12.8896 45.9401 12.1871 47.1477 12.1871C49.1367 12.1871 50.2638 13.9281 50.2638 15.7703H50.263ZM62.3498 16.3509C62.3483 16.4467 62.309 16.538 62.2406 16.6049C62.1721 16.6717 62.08 16.7086 61.9845 16.7075H55.2565C55.4289 18.3768 56.6766 19.9044 58.4432 19.9044C59.6507 19.9044 60.5438 19.4457 61.2137 18.4789C61.2448 18.4281 61.2878 18.3857 61.3391 18.3556C61.3903 18.3254 61.4482 18.3084 61.5076 18.306C61.5519 18.3048 61.5959 18.3127 61.6371 18.3292C61.6782 18.3457 61.7156 18.3704 61.7469 18.4019C61.7782 18.4333 61.8029 18.4708 61.8193 18.5121C61.8357 18.5533 61.8436 18.5975 61.8425 18.642C61.8427 18.7034 61.825 18.7635 61.7916 18.8149C61.1119 19.9958 59.7624 20.5764 58.4424 20.5764C56.18 20.5764 54.5562 18.5398 54.5562 16.3715C54.5562 14.2031 56.1701 12.1665 58.4432 12.1665C60.6957 12.1665 62.34 14.1825 62.3506 16.3509H62.3498ZM61.6192 16.0355C61.4772 14.3662 60.1991 12.8385 58.4333 12.8385C56.6668 12.8385 55.419 14.3662 55.2466 16.0355H61.6192ZM70.6212 12.645C70.6277 12.7355 70.5982 12.825 70.5391 12.8937C70.48 12.9624 70.3962 13.0047 70.3059 13.0115C68.3276 13.3071 67.4344 14.9262 67.4344 16.8096V20.037C67.4341 20.123 67.4033 20.206 67.3475 20.2712C67.2917 20.3364 67.2145 20.3795 67.1299 20.3928C67.0826 20.3991 67.0344 20.395 66.9888 20.381C66.9431 20.3669 66.9011 20.3431 66.8655 20.3111C66.8298 20.2792 66.8015 20.24 66.7824 20.1961C66.7633 20.1522 66.7539 20.1047 66.7547 20.0568V12.6961C66.7549 12.6101 66.7855 12.527 66.8411 12.4617C66.8968 12.3963 66.9739 12.353 67.0585 12.3395C67.1059 12.3332 67.1542 12.3373 67.1999 12.3514C67.2456 12.3655 67.2878 12.3894 67.3235 12.4214C67.3592 12.4534 67.3876 12.4927 67.4067 12.5367C67.4259 12.5807 67.4353 12.6283 67.4344 12.6763V14.1727C67.9927 13.2256 69.0984 12.3296 70.2559 12.3296C70.4283 12.3296 70.6212 12.4523 70.6212 12.645ZM81.6827 16.3509C81.6812 16.4467 81.6419 16.538 81.5735 16.6049C81.505 16.6717 81.4129 16.7086 81.3174 16.7075H74.5886C74.7609 18.3768 76.0095 19.9044 77.7753 19.9044C78.9828 19.9044 79.8768 19.4457 80.5458 18.4789C80.5769 18.4281 80.62 18.3858 80.6712 18.3557C80.7225 18.3255 80.7803 18.3084 80.8397 18.306C80.884 18.3047 80.9282 18.3125 80.9694 18.329C81.0107 18.3454 81.0481 18.3701 81.0795 18.4016C81.111 18.433 81.1357 18.4705 81.1522 18.5119C81.1686 18.5532 81.1766 18.5975 81.1754 18.642C81.1756 18.7034 81.1579 18.7635 81.1245 18.8149C80.444 19.9958 79.0944 20.5764 77.7753 20.5764C75.5121 20.5764 73.8883 18.5398 73.8883 16.3715C73.8883 14.2031 75.5022 12.1665 77.7753 12.1665C80.0492 12.1665 81.6721 14.1825 81.6827 16.3509ZM80.962 16.0355C80.82 14.3662 79.5418 12.8385 77.7753 12.8385C76.0095 12.8385 74.7609 14.3662 74.5886 16.0355H80.962ZM92.5612 12.7266V20.1177C92.5595 20.1725 92.5447 20.2261 92.5182 20.2741C92.4917 20.3221 92.4542 20.363 92.4088 20.3936C92.3634 20.4242 92.3115 20.4435 92.2572 20.4499C92.2029 20.4564 92.1479 20.4498 92.0966 20.4307C92.0345 20.406 91.9815 20.3627 91.9447 20.3067C91.908 20.2507 91.8894 20.1847 91.8914 20.1177V18.7128C91.3332 19.8229 90.3489 20.6275 89.0905 20.6275C87.0916 20.6275 85.985 18.8866 85.985 17.0435V12.7167C85.9863 12.628 86.022 12.5432 86.0846 12.4805C86.1471 12.4178 86.2315 12.3819 86.32 12.3807C86.4079 12.3834 86.4916 12.4196 86.5538 12.4821C86.6161 12.5445 86.6522 12.6284 86.6549 12.7167V17.0435C86.6549 18.4995 87.4774 19.9448 89.0905 19.9448C91.3537 19.9448 91.8914 17.8176 91.8914 15.4648V12.706C91.8932 12.6241 91.9242 12.5455 91.9787 12.4845C92.0332 12.4235 92.1076 12.384 92.1886 12.3733C92.2422 12.3661 92.2969 12.372 92.3478 12.3905C92.4117 12.4202 92.4658 12.4676 92.5036 12.5272C92.5415 12.5867 92.5615 12.6559 92.5612 12.7266ZM109.6 15.7398V20.0675C109.598 20.1222 109.583 20.1757 109.557 20.2236C109.53 20.2715 109.493 20.3123 109.448 20.3429C109.402 20.3734 109.35 20.3928 109.296 20.3993C109.242 20.4058 109.187 20.3994 109.136 20.3804C109.095 20.364 109.057 20.339 109.026 20.3071C108.994 20.276 108.97 20.2386 108.953 20.1974C108.937 20.1561 108.929 20.1119 108.931 20.0675V15.7398C108.931 14.2847 108.108 12.8591 106.495 12.8591C104.465 12.8591 103.694 15.0382 103.694 16.7281V20.0675C103.692 20.1223 103.678 20.1759 103.651 20.2239C103.625 20.2718 103.587 20.3128 103.542 20.3434C103.496 20.3739 103.444 20.3932 103.39 20.3997C103.336 20.4061 103.281 20.3995 103.23 20.3804C103.167 20.3558 103.114 20.3125 103.078 20.2565C103.041 20.2005 103.022 20.1345 103.024 20.0675V15.7398C103.024 14.2847 102.202 12.8591 100.589 12.8591C98.5382 12.8591 97.6959 14.4782 97.7674 16.6358C97.7674 16.6869 97.7879 16.7783 97.7674 16.8088V20.0568C97.7674 20.1429 97.7367 20.2262 97.6808 20.2916C97.625 20.357 97.5476 20.4002 97.4628 20.4134C97.4155 20.4197 97.3673 20.4156 97.3217 20.4015C97.2761 20.3875 97.234 20.3636 97.1984 20.3317C97.1628 20.2998 97.1344 20.2606 97.1153 20.2167C97.0962 20.1728 97.0868 20.1253 97.0877 20.0774V12.6961C97.0875 12.6099 97.1181 12.5265 97.174 12.4611C97.2299 12.3957 97.3073 12.3525 97.3922 12.3395C97.4395 12.3333 97.4876 12.3375 97.5332 12.3516C97.5788 12.3658 97.6208 12.3896 97.6564 12.4215C97.6919 12.4533 97.7203 12.4925 97.7394 12.5363C97.7586 12.5802 97.7681 12.6276 97.7674 12.6755V13.9075C98.3461 12.8698 99.3812 12.1871 100.589 12.1871C101.959 12.1871 103.024 13.0625 103.46 14.3349C104.018 13.0724 105.105 12.1871 106.495 12.1871C108.473 12.1871 109.6 13.9083 109.6 15.7398Z" fill="#373F47"/>
<path opacity="0.6" d="M8.42239 10.6914L0 14.5291L8.42239 19.5279L16.8563 14.5291L8.42321 10.6914H8.42239Z" fill="#373F47"/>
<path opacity="0.45" d="M0 14.5288L8.42239 19.5276V0.5L0 14.5288Z" fill="#373F47"/>
<path opacity="0.8" d="M8.42188 0.5V19.5276L16.8558 14.5288L8.42188 0.5Z" fill="#373F47"/>
<path opacity="0.45" d="M0 16.1377L8.42239 28.0492V21.1258L0 16.1385V16.1377Z" fill="#373F47"/>
<path opacity="0.8" d="M8.42188 21.1258V28.0492L16.8558 16.1377L8.4227 21.1258H8.42188Z" fill="#373F47"/>
</svg>
