<svg width="82" height="25" viewBox="0 0 82 25" fill="none" xmlns="http://www.w3.org/2000/svg">
<path d="M24.4622 0.5H1.52934C1.38792 0.5 1.25227 0.556144 1.15231 0.656216C1.05224 0.756181 0.996094 0.891823 0.996094 1.03336V23.9662C0.996094 24.1076 1.05224 24.2433 1.15231 24.3433C1.25227 24.4433 1.38792 24.4995 1.52934 24.4995H24.4622C24.6037 24.4995 24.7394 24.4433 24.8393 24.3433C24.9394 24.2433 24.9956 24.1076 24.9956 23.9662V1.03336C24.9956 0.891823 24.9394 0.756181 24.8393 0.656216C24.7394 0.556144 24.6037 0.5 24.4622 0.5ZM16.9957 15.9664C16.9957 16.1078 16.9396 16.2434 16.8395 16.3435C16.7395 16.4435 16.6039 16.4997 16.4624 16.4997H9.5292C9.38777 16.4997 9.25213 16.4435 9.15206 16.3435C9.05209 16.2434 8.99595 16.1078 8.99595 15.9664V9.03311C8.99595 8.89168 9.05209 8.75603 9.15206 8.65607C9.25213 8.556 9.38777 8.49986 9.5292 8.49986H16.4624C16.6039 8.49986 16.7395 8.556 16.8395 8.65607C16.9396 8.75603 16.9957 8.89168 16.9957 9.03311V15.9664Z" fill="#373F47"/>
<path d="M72.4743 8.50049H65.5412C65.2466 8.50049 65.0078 8.7392 65.0078 9.03374V15.967C65.0078 16.2615 65.2466 16.5003 65.5412 16.5003H72.4743C72.7688 16.5003 73.0077 16.2615 73.0077 15.967V9.03374C73.0077 8.7392 72.7688 8.50049 72.4743 8.50049Z" fill="#373F47"/>
<path d="M64.4724 0.500488H57.5392C57.2447 0.500488 57.0059 0.739203 57.0059 1.03385V7.96698C57.0059 8.26152 57.2447 8.50034 57.5392 8.50034H64.4724C64.767 8.50034 65.0057 8.26152 65.0057 7.96698V1.03385C65.0057 0.739203 64.767 0.500488 64.4724 0.500488Z" fill="#373F47"/>
<path d="M80.4705 0.500488H73.5373C73.2427 0.500488 73.0039 0.739203 73.0039 1.03385V7.96698C73.0039 8.26152 73.2427 8.50034 73.5373 8.50034H80.4705C80.7651 8.50034 81.0038 8.26152 81.0038 7.96698V1.03385C81.0038 0.739203 80.7651 0.500488 80.4705 0.500488Z" fill="#373F47"/>
<path d="M64.4724 16.5H57.5392C57.2447 16.5 57.0059 16.7387 57.0059 17.0333V23.9665C57.0059 24.261 57.2447 24.4999 57.5392 24.4999H64.4724C64.767 24.4999 65.0057 24.261 65.0057 23.9665V17.0333C65.0057 16.7387 64.767 16.5 64.4724 16.5Z" fill="#373F47"/>
<path d="M80.4705 16.5H73.5373C73.2427 16.5 73.0039 16.7387 73.0039 17.0333V23.9665C73.0039 24.261 73.2427 24.4999 73.5373 24.4999H80.4705C80.7651 24.4999 81.0038 24.261 81.0038 23.9665V17.0333C81.0038 16.7387 80.7651 16.5 80.4705 16.5Z" fill="#373F47"/>
<path d="M52.4626 0.500488H45.5295C45.2349 0.500488 44.9961 0.739203 44.9961 1.03385V7.96698C44.9961 8.26152 45.2349 8.50034 45.5295 8.50034H52.4626C52.7571 8.50034 52.9959 8.26152 52.9959 7.96698V1.03385C52.9959 0.739203 52.7571 0.500488 52.4626 0.500488Z" fill="#373F47"/>
<path d="M52.4626 16.5H45.5295C45.2349 16.5 44.9961 16.7387 44.9961 17.0333V23.9665C44.9961 24.261 45.2349 24.4999 45.5295 24.4999H52.4626C52.7571 24.4999 52.9959 24.261 52.9959 23.9665V17.0333C52.9959 16.7387 52.7571 16.5 52.4626 16.5Z" fill="#373F47"/>
<path d="M44.9958 9.02711C44.9958 8.88568 44.9396 8.75003 44.8396 8.65007C44.7395 8.55 44.6039 8.49386 44.4624 8.49386H36.9959V1.03336C36.9959 0.891823 36.9397 0.756181 36.8397 0.656216C36.7397 0.556144 36.604 0.5 36.4626 0.5H29.5295C29.3879 0.5 29.2523 0.556144 29.1523 0.656216C29.0522 0.756181 28.9961 0.891823 28.9961 1.03336V23.9542C28.9961 24.0956 29.0522 24.2313 29.1523 24.3312C29.2523 24.4313 29.3879 24.4875 29.5295 24.4875H36.4626C36.604 24.4875 36.7397 24.4313 36.8397 24.3312C36.9397 24.2313 36.9959 24.0956 36.9959 23.9542V16.4937H44.4624C44.6039 16.4937 44.7395 16.4375 44.8396 16.3375C44.9396 16.2374 44.9958 16.1018 44.9958 15.9604V9.02711Z" fill="#373F47"/>
</svg>
