<svg width="109" height="25" viewBox="0 0 109 25" fill="none" xmlns="http://www.w3.org/2000/svg">
<path d="M42.6481 7.79091C43.3158 8.20384 43.8811 8.77108 44.2401 9.54522C44.652 10.3194 44.8575 11.2478 44.8575 12.2797C44.8575 13.3116 44.6511 14.1892 44.189 14.9633C43.7918 15.7159 43.1595 16.3146 42.3906 16.6659C41.6206 17.0788 40.6954 17.2849 39.7191 17.2849C39.1736 17.2869 38.6329 17.1818 38.127 16.9754C37.6129 16.8202 37.1507 16.5107 36.7908 16.1495V21.5159H33.8106V7.37884H36.3798L36.6365 8.51418C37.7672 7.58487 39.0002 7.12108 40.2844 7.12108C41.1576 7.12108 41.9796 7.32711 42.6481 7.79177V7.79091ZM41.0041 14.1892C41.5174 13.7245 41.7741 13.1056 41.7741 12.3314C41.7741 11.5573 41.5183 10.9383 41.0553 10.4219C40.5931 9.90643 39.9766 9.69953 39.3081 9.69953C38.7436 9.69953 38.2294 9.80298 37.8184 10.0616C37.4074 10.2676 37.0995 10.6288 36.842 11.0926V13.415C36.9963 13.8797 37.305 14.2409 37.664 14.4987C38.075 14.7573 38.5381 14.9116 39.1025 14.9116C39.8734 14.9116 40.4899 14.653 41.0041 14.1892ZM46.6039 9.59608C47.066 8.87367 47.6825 8.25384 48.5054 7.84091C49.3656 7.40162 50.3156 7.17193 51.2793 7.17022C52.3068 7.17022 53.232 7.37711 54.0532 7.84091C54.824 8.2547 55.4405 8.87367 55.9036 9.64694C56.3657 10.4211 56.5712 11.2469 56.5712 12.2271C56.5712 13.2081 56.3657 14.0331 55.9027 14.8073C55.4405 15.5814 54.8752 16.2004 54.0532 16.6133C53.2823 17.0263 52.3068 17.284 51.2793 17.284C50.2518 17.284 49.3266 17.0771 48.5046 16.665C47.6825 16.2513 47.066 15.6849 46.603 14.9107C46.1604 14.0874 45.931 13.1642 45.9362 12.2271C45.9362 11.2469 46.192 10.3694 46.6039 9.59608ZM49.6353 14.0849C50.0463 14.6013 50.6116 14.8073 51.2793 14.8073C51.947 14.8073 52.5123 14.5487 52.9233 14.0849C53.3343 13.6202 53.5398 12.9495 53.5398 12.2271C53.5398 11.453 53.3343 10.834 52.9233 10.3694C52.4612 9.85384 51.947 9.59608 51.2281 9.59608C50.5596 9.59608 50.0463 9.85384 49.5841 10.3185C49.1722 10.834 48.9667 11.453 48.9667 12.2271C48.9667 12.9495 49.1722 13.5694 49.6353 14.0849ZM61.401 0.0503906V17.0254H58.4208V0.0512527H61.401V0.0503906ZM73.628 7.63487L67.5653 21.5668H64.6891L66.9487 16.5616L62.634 7.63487H66.0244L68.4904 13.2081L70.9565 7.63487H73.628ZM85.0331 7.63487V17.0263C85.0379 17.8968 84.7682 18.7462 84.2631 19.4513C83.7489 20.1737 83.0812 20.7418 82.2081 21.1538C81.334 21.5676 80.4088 21.7728 79.3822 21.7728C78.6113 21.7728 77.9436 21.6694 77.3783 21.515C76.8129 21.3081 76.3508 21.1021 75.9909 20.8961C75.5799 20.6375 75.1689 20.328 74.7067 19.9159L76.4539 17.8513C76.8308 18.2276 77.2642 18.5413 77.7381 18.7806C78.1491 18.9875 78.7145 19.1418 79.331 19.1418C80.101 19.1418 80.7175 18.9349 81.2317 18.5745C81.745 18.2125 82.0025 17.6452 82.0025 16.9745V15.6331C81.6706 16.1427 81.2091 16.5525 80.6663 16.8194C80.0498 17.1297 79.331 17.2849 78.509 17.2849C77.6861 17.2849 76.865 17.078 76.1453 16.6133C75.4264 16.2004 74.8611 15.5814 74.398 14.8073C73.987 14.0331 73.7304 13.2081 73.7304 12.2788C73.7304 11.3504 73.9359 10.4728 74.398 9.69867C74.8611 8.92453 75.4264 8.30556 76.1973 7.84091C76.8863 7.39408 77.6896 7.16093 78.5081 7.17022C79.279 7.17022 79.9475 7.27367 80.5632 7.48056C81.1805 7.6866 81.6427 7.99608 81.9505 8.35729L82.2592 7.63487H85.0331ZM82.0025 13.4142V11.0918C81.8075 10.6294 81.4634 10.2475 81.0262 10.0081C80.5397 9.73312 79.9907 9.59109 79.4333 9.59608C78.7145 9.59608 78.0971 9.85384 77.5838 10.3185C77.0696 10.7823 76.8129 11.4013 76.8129 12.1754C76.8129 12.8978 77.0704 13.5694 77.5838 14.0849C77.8238 14.3343 78.1116 14.5316 78.4296 14.6647C78.7476 14.7978 79.0892 14.8639 79.4333 14.859C80.6152 14.8073 81.4884 14.3426 82.0025 13.4142ZM87.5008 9.59694C87.963 8.8228 88.5795 8.2547 89.4015 7.79091C90.2617 7.35153 91.2117 7.12183 92.1754 7.12022C93.2029 7.12022 94.1281 7.32625 94.9501 7.79091C95.721 8.20384 96.3375 8.8228 96.7997 9.59694C97.2107 10.3702 97.4674 11.1961 97.4674 12.1763C97.4674 13.1573 97.2618 13.9823 96.7997 14.7564C96.3871 15.5406 95.7397 16.1728 94.9501 16.5625C94.1793 16.9754 93.2029 17.2331 92.1754 17.2331C91.1479 17.2331 90.2236 17.0263 89.4015 16.6142C88.5795 16.2013 87.963 15.634 87.5008 14.8599C87.0378 14.0857 86.8323 13.209 86.8323 12.1254C86.8323 11.2478 87.0378 10.3702 87.5008 9.59694ZM90.4802 14.0857C90.8912 14.6021 91.4566 14.8081 92.1243 14.8081C92.7919 14.8081 93.3573 14.5495 93.7683 14.0857C94.1793 13.6211 94.3848 12.9504 94.3848 12.228C94.3848 11.4538 94.1793 10.8349 93.7683 10.3702C93.3573 9.90642 92.7919 9.64867 92.1243 9.64867C91.4566 9.64867 90.9424 9.90642 90.4802 10.3702C90.0181 10.8357 89.8125 11.5056 89.8125 12.228C89.8637 12.9504 90.0692 13.5694 90.4802 14.0857ZM108 7.94436C108.617 8.46074 108.873 9.13142 108.924 9.95729V17.0263H105.893V11.0918C105.842 10.1633 105.38 9.69867 104.507 9.69867C103.838 9.69867 103.273 10.009 102.862 10.6797C102.451 11.3504 102.246 12.1754 102.246 13.1564V17.0263H99.2657V7.63487H101.988L102.194 9.13143C102.537 8.52864 103.034 8.02977 103.632 7.6866C104.249 7.32453 104.969 7.17022 105.791 7.17022C106.664 7.17022 107.435 7.42884 108 7.94436ZM21.0694 7.48229C20.556 7.17194 19.8875 7.17194 19.323 7.48229L15.3153 9.8547L12.5925 11.403L8.58479 13.7771C8.07061 14.0866 7.40293 14.0866 6.83843 13.7771L3.6527 11.9194C3.13851 11.609 2.77952 11.0418 2.77952 10.4228V6.75815C2.77952 6.13918 3.08735 5.57108 3.6527 5.2616L6.78642 3.45643C7.3006 3.14694 7.96828 3.14694 8.53363 3.45643L11.6673 5.26246C12.1815 5.5728 12.5405 6.14005 12.5405 6.75901V9.13229L15.2641 7.53315V5.15987C15.2641 4.54005 14.9554 3.9728 14.3901 3.66332L8.58564 0.258149C8.07146 -0.0521956 7.40378 -0.0521956 6.83929 0.258149L0.928279 3.66332C0.661349 3.80813 0.4389 4.02429 0.285216 4.2882C0.131531 4.55212 0.0525197 4.85365 0.0568062 5.15987V12.0219C0.0568062 12.6418 0.365488 13.209 0.930837 13.5185L6.83929 16.9237C7.35262 17.234 8.0203 17.234 8.58564 16.9237L12.5934 14.6021L15.3161 13.003L19.3239 10.6806C19.8372 10.3711 20.5049 10.3711 21.0702 10.6806L24.2039 12.4866C24.7181 12.7969 25.078 13.3642 25.078 13.9831V17.6469C25.078 18.2659 24.7693 18.8331 24.2039 19.1426L21.0702 21.0004C20.5569 21.3107 19.8884 21.3107 19.3239 21.0004L16.1893 19.1944C15.676 18.8849 15.3161 18.3176 15.3161 17.6987V15.3245L12.5934 16.9245V19.2978C12.5934 19.9168 12.9012 20.4849 13.4666 20.7944L19.375 24.1995C19.8884 24.5099 20.5569 24.5099 21.1214 24.1995L27.0307 20.7944C27.544 20.484 27.9039 19.9168 27.9039 19.2978V12.4357C27.9039 11.8159 27.5952 11.2487 27.0298 10.9392L21.0694 7.48229Z" fill="#373F47"/>
</svg>
