<svg width="52" height="53" viewBox="0 0 52 53" fill="none" xmlns="http://www.w3.org/2000/svg">
<g clip-path="url(#clip0_5057_16252)">
<path d="M4.35938 44.3514L26.026 6.8252L47.6927 44.3514H4.35938Z" fill="url(#paint0_linear_5057_16252)"/>
<path d="M15.1035 38.152L26.0271 19.2241L36.9507 38.152H15.1035Z" fill="url(#paint1_linear_5057_16252)"/>
<path style="mix-blend-mode:screen" opacity="0.6" d="M36.9472 38.152L26.0236 19.2319L18.9609 31.4739C18.9609 31.4739 26.0236 30.0535 31.3127 38.152H36.9472Z" fill="url(#paint2_linear_5057_16252)"/>
<path style="mix-blend-mode:screen" opacity="0.22" d="M15.0957 38.1519H23.7749C22.7862 34.856 21.7895 31.5523 20.8165 28.2485L15.0957 38.1519Z" fill="url(#paint3_linear_5057_16252)"/>
<path d="M26.026 19.2241V6.8252L4.35938 44.3514L15.1025 38.152L26.026 19.2241Z" fill="url(#paint4_linear_5057_16252)"/>
<path d="M15.1888 25.5884L4.35938 44.3515L15.1025 38.1521L15.1888 25.5884Z" fill="url(#paint5_linear_5057_16252)"/>
<path style="mix-blend-mode:screen" opacity="0.34" d="M15.1888 25.5884L4.35938 44.3515L9.77408 41.2518L15.1888 25.5884Z" fill="url(#paint6_linear_5057_16252)"/>
<path style="mix-blend-mode:screen" d="M26.0208 19.2241V6.8252L15.1836 25.5883L26.0208 19.2241Z" fill="url(#paint7_linear_5057_16252)"/>
<path style="mix-blend-mode:screen" opacity="0.31" d="M26.0219 19.2241V6.8252L20.2148 22.6299L26.0219 19.2241Z" fill="url(#paint8_linear_5057_16252)"/>
<path d="M26.0234 19.2241L36.947 38.152L36.8528 25.5884L26.0234 19.2241Z" fill="url(#paint9_linear_5057_16252)"/>
<path style="mix-blend-mode:screen" d="M36.8485 25.5959L32.2734 22.9121C35.5509 27.2964 37.2016 32.684 36.9426 38.1518L36.8485 25.5959Z" fill="url(#paint10_linear_5057_16252)"/>
<path d="M26.0234 6.8252V19.2241L36.8528 25.5883L26.0234 6.8252Z" fill="url(#paint11_linear_5057_16252)"/>
<path style="mix-blend-mode:screen" opacity="0.52" d="M26.0234 19.2241L29.5705 21.3115L26.0234 6.8252V19.2241Z" fill="url(#paint12_linear_5057_16252)"/>
<path d="M47.6927 44.3515L36.8555 25.5884L36.9496 38.1521L47.6927 44.3515Z" fill="url(#paint13_linear_5057_16252)"/>
<path d="M36.9496 38.1523H26.026H15.1025L4.35938 44.3518H26.026L36.9496 38.1523Z" fill="url(#paint14_linear_5057_16252)"/>
<path style="mix-blend-mode:screen" opacity="0.56" d="M26.0252 38.1519H15.0938L31.8244 41.0554L36.9488 38.1519H26.0252Z" fill="url(#paint15_linear_5057_16252)"/>
<path style="mix-blend-mode:multiply" d="M36.947 38.1523L26.0234 44.3518H47.6901L36.947 38.1523Z" fill="url(#paint16_linear_5057_16252)"/>
<path style="mix-blend-mode:overlay" d="M15.1025 38.1523L4.35938 44.3518H26.026L15.1025 38.1523Z" fill="url(#paint17_linear_5057_16252)"/>
<path d="M34.4149 33.2945C31.9116 28.6253 29.3062 24.011 26.6774 19.4046C26.6054 19.2888 26.5648 19.1563 26.5597 19.02L26.026 6.8252L25.4846 19.02C25.4525 19.1459 25.3957 19.2641 25.3176 19.3678C25.2395 19.4715 25.1415 19.5587 25.0294 19.6243C24.2447 20.1344 18.6259 23.548 15.3693 25.5334C15.3154 25.5626 15.2386 25.658 15.2386 25.658C15.2069 25.7104 15.1897 25.7703 15.1888 25.8316C14.9926 29.6847 14.8356 33.5377 14.6944 37.3908C14.6852 37.549 14.6383 37.7027 14.5578 37.8392C14.4773 37.9757 14.3654 38.091 14.2314 38.1755C10.9276 40.2002 7.62389 42.2484 4.35938 44.3436C7.9064 42.3504 11.422 40.2943 14.9455 38.2305C15.0491 38.1729 15.1358 38.0889 15.1966 37.9872C15.4948 37.5242 16.4365 36.0724 16.9309 35.272C19.9443 30.4773 22.84 25.604 25.7043 20.7151C25.7369 20.6598 25.7833 20.6139 25.8391 20.582C25.8948 20.5502 25.9579 20.5334 26.0221 20.5334C26.0863 20.5334 26.1494 20.5502 26.2052 20.582C26.2609 20.6139 26.3073 20.6598 26.3399 20.7151L27.5092 22.724C30.5461 27.9268 33.6616 33.0904 36.9261 38.1442C36.1178 36.5198 35.2781 34.9032 34.4149 33.2945ZM15.1495 37.1083C15.3379 33.1846 15.4556 30.3124 15.5969 26.3888C15.6026 26.2307 15.6471 26.0764 15.7265 25.9396C15.8059 25.8027 15.9176 25.6875 16.052 25.604C19.0968 23.6892 21.7884 22.3709 24.8018 20.409L23.8837 21.9785C20.8468 27.3147 18.1629 31.623 15.1495 37.1083Z" fill="url(#paint18_linear_5057_16252)"/>
<path style="mix-blend-mode:screen" d="M28.9996 18.7265C29.0023 16.9438 26.8849 15.4971 24.27 15.4953C21.6552 15.4934 19.5332 16.9371 19.5304 18.7199C19.5276 20.5026 21.6451 21.9492 24.26 21.9511C26.8748 21.9529 28.9968 20.5092 28.9996 18.7265Z" fill="url(#paint19_radial_5057_16252)"/>
<path d="M4.64084 44.1894L26.026 7.15019L47.4112 44.1894H4.64084Z" stroke="#F9CAFF" stroke-width="0.325"/>
</g>
<defs>
<linearGradient id="paint0_linear_5057_16252" x1="4.35938" y1="25.5883" x2="47.6927" y2="25.5883" gradientUnits="userSpaceOnUse">
<stop stop-color="#5C00A8"/>
<stop offset="0.19" stop-color="#7001B5"/>
<stop offset="0.58" stop-color="#A505D5"/>
<stop offset="1" stop-color="#E50AFC"/>
</linearGradient>
<linearGradient id="paint1_linear_5057_16252" x1="14.4051" y1="36.6532" x2="32.3521" y2="28.2879" gradientUnits="userSpaceOnUse">
<stop stop-color="#8800BF"/>
<stop offset="0.22" stop-color="#9A14CA"/>
<stop offset="0.67" stop-color="#C949E5"/>
<stop offset="1" stop-color="#EF74FC"/>
</linearGradient>
<linearGradient id="paint2_linear_5057_16252" x1="20.8757" y1="34.809" x2="31.4854" y2="28.688" gradientUnits="userSpaceOnUse">
<stop stop-color="#8800BF"/>
<stop offset="0.22" stop-color="#9A14CA"/>
<stop offset="0.67" stop-color="#C949E5"/>
<stop offset="1" stop-color="#EF74FC"/>
</linearGradient>
<linearGradient id="paint3_linear_5057_16252" x1="14.4915" y1="36.8414" x2="22.9745" y2="32.8785" gradientUnits="userSpaceOnUse">
<stop stop-color="#8800BF"/>
<stop offset="0.22" stop-color="#9A14CA"/>
<stop offset="0.67" stop-color="#C949E5"/>
<stop offset="1" stop-color="#EF74FC"/>
</linearGradient>
<linearGradient id="paint4_linear_5057_16252" x1="-0.733585" y1="32.3449" x2="31.119" y2="18.8239" gradientUnits="userSpaceOnUse">
<stop stop-color="#5C00A8"/>
<stop offset="0.13" stop-color="#7D11BB"/>
<stop offset="0.33" stop-color="#AC2BD7"/>
<stop offset="0.51" stop-color="#CE3DEB"/>
<stop offset="0.66" stop-color="#E348F8"/>
<stop offset="0.76" stop-color="#EB4CFC"/>
</linearGradient>
<linearGradient id="paint5_linear_5057_16252" x1="4.35938" y1="34.966" x2="15.1888" y2="34.966" gradientUnits="userSpaceOnUse">
<stop stop-color="#8B03C5"/>
<stop offset="0.65" stop-color="#C521E7"/>
<stop offset="1" stop-color="#E632FA"/>
</linearGradient>
<linearGradient id="paint6_linear_5057_16252" x1="4.35938" y1="34.966" x2="15.1888" y2="34.966" gradientUnits="userSpaceOnUse">
<stop stop-color="#8B03C5"/>
<stop offset="0.65" stop-color="#C521E7"/>
<stop offset="1" stop-color="#E632FA"/>
</linearGradient>
<linearGradient id="paint7_linear_5057_16252" x1="15.1836" y1="16.2028" x2="26.0208" y2="16.2028" gradientUnits="userSpaceOnUse">
<stop stop-color="#8B03C5"/>
<stop offset="0.42" stop-color="#B43DDA"/>
<stop offset="1" stop-color="#F094FA"/>
</linearGradient>
<linearGradient id="paint8_linear_5057_16252" x1="20.2148" y1="14.7275" x2="26.0219" y2="14.7275" gradientUnits="userSpaceOnUse">
<stop stop-color="#8B03C5"/>
<stop offset="0.42" stop-color="#B43DDA"/>
<stop offset="1" stop-color="#F094FA"/>
</linearGradient>
<linearGradient id="paint9_linear_5057_16252" x1="26.0234" y1="28.6881" x2="36.947" y2="28.6881" gradientUnits="userSpaceOnUse">
<stop stop-color="#E50AFC"/>
<stop offset="0.19" stop-color="#D20FF6"/>
<stop offset="0.73" stop-color="#9D1EE5"/>
<stop offset="1" stop-color="#8924DE"/>
</linearGradient>
<linearGradient id="paint10_linear_5057_16252" x1="38.1276" y1="29.3077" x2="34.3451" y2="30.6183" gradientUnits="userSpaceOnUse">
<stop stop-color="#E50AFC"/>
<stop offset="0.19" stop-color="#D20FF6"/>
<stop offset="0.73" stop-color="#9D1EE5"/>
<stop offset="1" stop-color="#8924DE"/>
</linearGradient>
<linearGradient id="paint11_linear_5057_16252" x1="23.1905" y1="11.1883" x2="39.3797" y2="21.7039" gradientUnits="userSpaceOnUse">
<stop stop-color="#EC4CFC"/>
<stop offset="0.45" stop-color="#A527D3"/>
<stop offset="0.82" stop-color="#700BB4"/>
<stop offset="1" stop-color="#5C00A8"/>
</linearGradient>
<linearGradient id="paint12_linear_5057_16252" x1="24.2499" y1="17.2622" x2="35.2049" y2="7.39805" gradientUnits="userSpaceOnUse">
<stop stop-color="#EC4CFC"/>
<stop offset="0.45" stop-color="#A527D3"/>
<stop offset="0.82" stop-color="#700BB4"/>
<stop offset="1" stop-color="#5C00A8"/>
</linearGradient>
<linearGradient id="paint13_linear_5057_16252" x1="36.8555" y1="34.966" x2="47.6927" y2="34.966" gradientUnits="userSpaceOnUse">
<stop stop-color="#E50AFC"/>
<stop offset="0.5" stop-color="#B006DC"/>
<stop offset="1" stop-color="#8003BE"/>
</linearGradient>
<linearGradient id="paint14_linear_5057_16252" x1="4.35938" y1="41.2521" x2="36.9496" y2="41.2521" gradientUnits="userSpaceOnUse">
<stop offset="0.24" stop-color="#5C00A8"/>
<stop offset="0.38" stop-color="#7F03BE"/>
<stop offset="0.57" stop-color="#AB06D8"/>
<stop offset="0.75" stop-color="#CB08EC"/>
<stop offset="0.9" stop-color="#DE09F8"/>
<stop offset="1" stop-color="#E50AFC"/>
</linearGradient>
<linearGradient id="paint15_linear_5057_16252" x1="25.2875" y1="40.8828" x2="26.755" y2="35.421" gradientUnits="userSpaceOnUse">
<stop stop-color="#8B03C5"/>
<stop offset="0.22" stop-color="#AC32D6"/>
<stop offset="0.45" stop-color="#C95CE6"/>
<stop offset="0.65" stop-color="#DE7BF1"/>
<stop offset="0.83" stop-color="#EB8DF8"/>
<stop offset="0.95" stop-color="#F094FA"/>
</linearGradient>
<linearGradient id="paint16_linear_5057_16252" x1="26.0234" y1="41.2521" x2="47.6901" y2="41.2521" gradientUnits="userSpaceOnUse">
<stop stop-color="#E50AFC"/>
<stop offset="0.42" stop-color="#A505D5"/>
<stop offset="0.81" stop-color="#7001B5"/>
<stop offset="1" stop-color="#5C00A8"/>
</linearGradient>
<linearGradient id="paint17_linear_5057_16252" x1="4.35938" y1="41.2521" x2="26.026" y2="41.2521" gradientUnits="userSpaceOnUse">
<stop stop-color="#5C00A8"/>
<stop offset="0.14" stop-color="#7F03BE"/>
<stop offset="0.31" stop-color="#A405D4"/>
<stop offset="0.49" stop-color="#C007E6"/>
<stop offset="0.66" stop-color="#D509F2"/>
<stop offset="0.83" stop-color="#E10AFA"/>
<stop offset="1" stop-color="#E50AFC"/>
</linearGradient>
<linearGradient id="paint18_linear_5057_16252" x1="9.92318" y1="24.0738" x2="38.8487" y2="32.3763" gradientUnits="userSpaceOnUse">
<stop stop-color="white"/>
<stop offset="0.43" stop-color="#FAE5FC"/>
<stop offset="0.53" stop-color="#F8D2FC"/>
<stop offset="0.73" stop-color="#F3B0FB"/>
<stop offset="0.89" stop-color="#F19CFA"/>
<stop offset="1" stop-color="#F094FA"/>
</linearGradient>
<radialGradient id="paint19_radial_5057_16252" cx="0" cy="0" r="1" gradientUnits="userSpaceOnUse" gradientTransform="translate(24.5685 20.5891) rotate(0.0402661) scale(4.01854 2.69685)">
<stop stop-color="white"/>
<stop offset="0.15" stop-color="#CCCCCC"/>
<stop offset="0.39" stop-color="#848484"/>
<stop offset="0.6" stop-color="#4B4B4B"/>
<stop offset="0.77" stop-color="#222222"/>
<stop offset="0.92" stop-color="#090909"/>
<stop offset="1"/>
</radialGradient>
<clipPath id="clip0_5057_16252">
<rect width="43.3333" height="37.5263" fill="white" transform="translate(4.35938 6.8252)"/>
</clipPath>
</defs>
</svg>
